<svg width="84" height="73" viewBox="0 0 84 73" fill="none" xmlns="http://www.w3.org/2000/svg">
<path d="M79.9211 29.9971C78.3018 37.9794 74.6909 52.004 71.7389 59.5625C71.2249 60.8788 70.8268 62.3784 70.4973 63.9698C54.9403 72.0645 33.82 74.9545 17.8508 69.012C4.56901 56.9556 -3.29475 33.217 3.31715 17.5263C3.91813 16.1001 4.61925 14.7797 5.4102 13.559C13.1704 8.96804 21.2879 4.26387 30.1684 1.10348C33.0502 1.01264 36.046 0.702647 39.1209 0.268066C50.643 0.533382 62.2763 3.2947 70.0455 6.15895C72.4584 6.9923 74.7146 8.01386 76.8473 9.19081C78.6579 10.9766 80.5248 12.6914 82.5764 14.0831C82.0788 18.821 81.4974 23.6916 79.9211 29.9971Z" fill="#F8BC99"/>
<path d="M82.7459 22.5183C80.29 35.0521 73.8914 50.7193 71.4053 63.2682C71.4053 63.2682 72.7931 49.716 75.0859 43.0047C77.8391 34.7454 78.6805 26.2264 81.3737 17.8508C81.3737 16.3922 81.5065 14.9308 81.709 13.4683C82.135 13.783 82.5685 14.0847 83.0109 14.371C82.8719 17.0803 82.757 19.7952 82.7459 22.5183Z" fill="#95725D"/>
<path d="M65.4282 44.505C59.0731 50.1566 61.6496 49.0844 50.5978 49.0844C29.1433 49.0844 15.8135 28.3915 15.8135 28.3915C15.8135 28.3915 27.366 25.7256 48.8205 25.7256C70.275 25.7256 70.7635 21.5317 70.7635 21.5317C70.7635 21.5317 71.415 22.9588 71.3195 25.4883C71.1094 31.0597 69.5422 40.8465 65.4282 44.505Z" fill="#482520"/>
<path d="M25.0826 27.8041L25.1181 27.7564C25.2022 27.6621 25.3844 27.5413 25.633 27.4061C27.8053 26.8148 29.6209 26.2812 30.5064 26.1828C34.5752 25.7305 45.5412 23.9039 49.1441 23.9039L49.4715 23.8432C52.0501 26.0767 56.8491 23.8871 60.7793 23.0151C63.1679 23.1231 67.1959 23.3266 68.9402 23.904C69.2799 24.2543 70.4413 28.9026 67.5437 30.3235C66.1851 30.9897 62.9869 32.792 54.0537 33.3245C43.9745 33.9254 30.1739 33.7932 26.9085 31.7221C25.6146 30.9015 22.3035 28.7397 22.2578 27.7564C22.2578 27.7564 24.7465 27.8625 25.0826 27.8041Z" fill="#F9F9F9"/>
<path d="M56.5563 37.3029C59.8699 38.8575 71.4092 42.0249 63.0179 45.6641C57.9817 45.7323 52.9652 47.1454 47.8465 47.1454C42.75 47.1454 37.195 47.3469 32.1172 47.4396C31.3974 47.4299 30.5843 47.3044 29.7455 47.0824C29.5845 46.7744 29.4157 46.4675 29.2413 46.1621C30.2885 46.5048 31.3059 46.6928 32.1172 46.6779C37.2756 46.7477 42.6896 46.3837 47.8465 46.3837C52.859 46.3837 57.9068 44.833 62.823 44.9228C67.6929 42.638 63.4768 40.6621 59.7156 39.2779C59.7418 39.3337 59.7588 39.4026 59.7429 39.4777C59.0818 39.2474 58.4121 39.0204 57.7748 38.7441C57.3375 38.7441 56.5451 38.6502 55.5838 38.5475C52.7495 37.7316 49.1575 37.255 47.6716 38.9047C47.7729 38.9501 47.8733 38.9952 47.9726 39.0397C47.5459 39.3404 47.2798 39.7498 47.2432 40.2995L46.6738 40.0438C43.6622 38.6919 41.0891 38.0773 37.8008 38.0277C37.314 37.92 36.8154 37.8512 36.3007 37.8512C33.656 37.8512 27.0781 37.1979 25.2749 39.4941C25.1477 39.5094 24.9687 39.4869 24.8562 39.285C24.6665 38.9444 25.0459 38.7741 25.0459 38.7741C25.2391 38.6873 25.4318 38.6054 25.6241 38.5281C25.6126 38.5197 25.6015 38.5108 25.591 38.5014C25.3193 38.6267 25.0479 38.7528 24.778 38.8816C24.6631 38.9845 24.5573 39.0875 24.46 39.1907C24.2575 39.0197 24.0459 38.8591 23.8262 38.7097C23.9607 38.5632 24.109 38.4168 24.2714 38.2706C24.5125 38.1525 24.7541 38.0373 24.9967 37.9241C28.3961 37.5907 31.7361 36.5533 35.3941 36.5533C36.5891 36.5533 38.11 36.458 39.6289 36.4537C39.863 36.5128 40.0937 36.5804 40.3206 36.6571C41.6699 36.7009 43.1022 37.0819 44.489 37.5823C47.8957 36.3394 53.3954 35.9321 56.5563 37.3029ZM27.9546 37.7201C27.8553 37.7667 27.7619 37.8152 27.6722 37.8627C27.8684 37.8133 28.0645 37.7677 28.2607 37.7256L27.9546 37.7201ZM53.7649 37.3242C54.2895 37.4161 54.8099 37.5281 55.3167 37.657C54.8389 37.5107 54.3167 37.401 53.7649 37.3242Z" fill="#B65E50"/>
<path d="M55.6636 38.5218C56.6249 38.6244 57.4192 38.7232 57.8565 38.7232C58.4938 38.9996 59.1652 39.2328 59.8263 39.4631C59.8422 39.388 59.8249 39.318 59.7987 39.2622C63.5599 40.6464 67.7769 42.6504 62.907 44.9352C57.9907 44.8454 52.9108 46.4444 47.8983 46.4444C42.7414 46.4444 37.1972 46.7767 32.0388 46.7069C31.2568 46.7211 30.2831 46.5451 29.2758 46.2226C28.4224 44.7208 27.4304 43.255 26.5585 41.8772C26.505 41.7927 26.4304 41.6832 26.3369 41.554C25.8624 40.6247 25.2026 39.8057 24.4062 39.1458C24.4953 39.0529 24.5914 38.9601 24.6948 38.8675C24.9647 38.7387 25.2367 38.6105 25.5084 38.4851C25.5189 38.4945 25.6956 38.5363 25.7071 38.5447C25.5148 38.622 25.3225 38.7025 25.1292 38.7892C25.1292 38.7892 24.7503 38.9573 24.94 39.2979C25.0524 39.4998 25.0641 39.4975 25.1913 39.4823C26.9945 37.186 33.5837 37.8117 36.2284 37.8117C36.7432 37.8117 37.2453 37.8757 37.7321 37.9834C41.0204 38.033 43.7217 38.6376 46.7332 39.9896L47.1748 40.3445C47.2113 39.7948 47.485 39.3934 47.9117 39.0928C47.8124 39.0483 47.8304 38.894 47.729 38.8486C49.2149 37.1989 52.8294 37.7059 55.6636 38.5218Z" fill="#C36556"/>
<path d="M62.3276 46.0488L62.3016 46.0713C62.2407 46.1155 62.1097 46.1705 61.9315 46.231C60.3833 46.4718 59.0887 46.6922 58.4598 46.7207C55.57 46.8515 47.7722 47.5009 45.2193 47.4211L44.9864 47.4435C43.1936 46.2951 39.7597 47.2585 36.9617 47.5974C35.271 47.4917 32.4201 47.303 31.193 46.9823C30.9576 46.8036 30.2058 44.5068 32.2806 43.8768C33.2534 43.5814 35.547 42.7717 41.8846 42.7095C49.0354 42.6393 58.8117 43.0098 61.0937 44.094C61.998 44.5237 64.3109 45.6532 64.3283 46.1347C64.3283 46.1347 62.5666 46.0277 62.3276 46.0488Z" fill="#F9F9F9"/>
<path d="M37.4734 56.7057L37.5309 56.6865C37.5506 56.6962 37.57 56.7056 37.5896 56.7148C38.1465 56.7604 38.6885 56.8396 39.2212 56.9391C40.0529 56.802 40.813 56.3768 41.7736 56.4096C42.039 56.2791 42.3419 56.1581 42.6755 56.0481C45.1201 55.966 47.5578 55.8408 50.0613 55.8408C51.3441 55.8408 52.6173 56.1727 53.8863 56.3234C53.8887 56.3247 53.8912 56.3257 53.8936 56.327L53.8949 56.3245C54.0518 56.3431 54.2086 56.3587 54.3655 56.3709L54.5221 56.4479C54.7124 56.5367 54.844 56.7276 54.844 56.9487C54.844 57.1698 54.7124 57.3607 54.5221 57.4495L54.0943 57.6601C52.9736 59.7517 48.7698 59.4414 46.6856 59.4414C45.9797 59.4414 45.2994 59.3766 44.6342 59.2726C41.977 59.3351 39.1939 59.2086 37.2134 57.8738L37.1501 57.9981L36.7082 57.7805C36.6581 57.7799 36.6081 57.7795 36.5578 57.7795C36.5578 57.7795 35.9951 57.7795 35.9951 57.2255C35.9951 56.6716 36.5578 56.6716 36.5578 56.6716C36.6351 56.6716 36.712 56.6723 36.7885 56.6738C36.8051 56.6723 36.8221 56.6716 36.839 56.6716H37.4016V56.7005C37.4256 56.7022 37.4496 56.704 37.4734 56.7057Z" fill="#DEA889"/>
<path d="M35.4008 56.4221C35.6562 56.4221 35.9117 56.4221 36.1672 56.4221C40.97 54.5432 47.9037 55.5528 52.9557 55.6001C53.5848 55.8066 54.2619 55.8771 54.9249 55.8771L55.0196 55.9482L55.0348 55.9037L55.8633 56.1756C56.0069 56.219 56.1308 56.3065 56.219 56.422C55.9377 56.422 55.6563 56.422 55.375 56.422C48.5029 56.4225 41.6089 56.6613 34.7168 56.6951L35.4008 56.4221Z" fill="#95725D"/>
<path opacity="0.01" d="M30.168 1.10369C30.8158 0.873155 31.4676 0.650841 32.1237 0.437412C34.429 0.263958 36.7724 0.214284 39.1205 0.26835C36.0456 0.702854 33.0498 1.01279 30.168 1.10369Z" fill="black"/>
<path opacity="0.01" fill-rule="evenodd" clip-rule="evenodd" d="M41.3623 27.9287C42.4672 28.4816 42.4672 28.4816 41.3623 27.9287Z" fill="black"/>
<path opacity="0.01" fill-rule="evenodd" clip-rule="evenodd" d="M42.1913 40.3619C39.9161 40.846 37.9822 41.9517 36.3892 43.6775C34.0318 40.7366 34.8606 39.0788 38.8758 38.7041C39.9334 37.7807 39.9334 36.9518 38.8758 36.2174C38.0087 32.6706 39.2521 30.4608 42.6058 29.5864C43.7373 30.4923 44.014 31.5973 43.4346 32.902C42.5875 33.6099 41.897 34.4387 41.3625 35.3886C41.5647 37.0879 41.8407 38.7456 42.1913 40.3619Z" fill="#101010"/>
<path opacity="0.01" fill-rule="evenodd" clip-rule="evenodd" d="M60.4269 44.5065C60.4675 46.6608 61.2964 48.4569 62.9135 49.8944C62.2073 51.3266 61.3785 51.4651 60.4269 50.3089C60.4269 49.204 59.874 48.651 58.7691 48.651C58.9017 47.2428 58.7642 45.8609 58.3547 44.5066C58.1242 45.2658 57.7098 45.818 57.1114 46.1644C56.1805 45.1225 55.6285 45.3985 55.4536 46.9933C54.715 47.4989 53.8861 47.7749 52.9669 47.8221C51.1442 46.849 49.4864 47.2635 47.9935 49.0655C49.798 50.5351 51.3173 52.3305 52.5523 54.4533C52.8284 53.9005 53.1052 53.3484 53.3812 52.7955C53.7459 54.1018 54.4365 55.2077 55.4534 56.1111C54.8376 56.6764 54.2856 57.2293 53.7956 57.7689C54.6246 57.7689 55.4534 57.7689 56.2822 57.7689C55.387 59.0495 55.387 60.2928 56.2822 61.4988C54.7985 62.9361 53.1408 64.1795 51.3088 65.2288C49.4513 64.7878 48.2079 63.683 47.5788 61.9133C46.2418 62.8433 45.2744 62.4288 44.6776 60.67C47.388 59.4059 48.2171 57.4721 47.1643 54.8678C47.7885 53.6353 48.4789 53.4969 49.2365 54.4533C49.8431 52.6247 49.2903 51.2439 47.5787 50.309C47.0855 49.1493 47.2239 48.0444 47.993 46.9934C47.6988 46.1463 47.1459 45.5933 46.3352 45.3356C45.6091 45.4441 45.0562 45.1682 44.6774 44.5067C45.7823 43.4018 45.7823 42.2961 44.6774 41.1912C45.7616 40.2578 46.8674 40.2578 47.9931 41.1912C49.0193 41.4481 49.0193 41.8626 47.9931 42.4345C49.694 43.2054 50.9373 44.4487 51.7231 46.1645C51.864 44.1063 51.1727 42.3109 49.6509 40.7766C51.7464 39.6857 51.7464 38.7185 49.6509 37.8755C49.1088 36.5368 48.6944 35.1551 48.4075 33.7311C47.2487 33.2743 46.143 32.9984 45.092 32.9022C44.8341 31.1981 44.4197 29.5402 43.8486 27.9288C44.104 27.259 44.5184 26.7062 45.092 26.271C45.9209 27.3759 46.7497 27.3759 47.5786 26.271C49.3748 28.0672 51.1702 29.8625 52.9664 31.6588C52.5338 32.1239 52.2578 32.6767 52.1376 33.3166C53.6196 35.4328 54.5869 37.7809 55.0386 40.3622C55.9081 39.5191 56.8754 39.3808 57.9398 39.9477C58.3451 41.7788 59.1745 43.298 60.4269 44.5065ZM57.1114 46.1644C56.5584 46.4404 56.0064 46.7173 55.4536 46.9933C55.6285 45.3985 56.1805 45.1225 57.1114 46.1644ZM55.4536 46.9933C55.0731 50.744 54.2442 51.0199 52.9669 47.8221C53.8861 47.7749 54.715 47.4989 55.4536 46.9933ZM60.4269 50.3089C60.4269 49.204 59.874 48.651 58.7691 48.651C59.0451 49.4799 59.598 50.0328 60.4269 50.3089ZM53.7956 57.7689C53.7244 58.5945 54.0013 59.2846 54.6247 59.8408C53.1667 60.6763 52.1993 61.9197 51.7235 63.5708C51.4973 62.0548 50.806 60.8114 49.6513 59.8408C50.5772 58.2725 51.9589 57.5824 53.7956 57.7689Z" fill="#161616"/>
<path opacity="0.01" fill-rule="evenodd" clip-rule="evenodd" d="M38.8759 36.2177C38.129 38.0636 36.7481 38.8926 34.7314 38.7044C34.7314 37.8756 34.7314 37.0466 34.7314 36.2177C36.2731 35.7445 37.655 35.7445 38.8759 36.2177Z" fill="black"/>
<path opacity="0.01" fill-rule="evenodd" clip-rule="evenodd" d="M47.9932 41.191C46.8676 40.2576 45.7617 40.2576 44.6776 41.191C45.7825 42.2959 45.7825 43.4016 44.6776 44.5065C45.0564 45.168 45.6093 45.444 46.3354 45.3354C44.2233 47.5013 42.2888 47.3629 40.5332 44.9209C41.1731 43.9088 42.002 43.08 43.0199 42.4343C42.3966 41.8782 42.1197 41.1876 42.1911 40.3621C44.5203 38.9712 46.454 39.2472 47.9932 41.191Z" fill="#030303"/>
<path opacity="0.01" fill-rule="evenodd" clip-rule="evenodd" d="M61.2557 44.5066C60.9796 44.5066 60.7028 44.5066 60.4268 44.5066C60.7029 42.296 60.9797 42.296 61.2557 44.5066Z" fill="black"/>
<path opacity="0.01" fill-rule="evenodd" clip-rule="evenodd" d="M61.256 44.5063C62.481 44.2891 63.5858 44.5652 64.5714 45.3352C64.0185 45.6112 63.4665 45.8881 62.9136 46.1641C61.9081 45.9594 61.3554 45.4065 61.256 44.5063Z" fill="black"/>
<path opacity="0.012" fill-rule="evenodd" clip-rule="evenodd" d="M55.4535 46.9932C55.073 50.7439 54.2441 51.0198 52.9668 47.822C53.886 47.7748 54.715 47.4988 55.4535 46.9932Z" fill="#484848"/>
<path opacity="0.016" fill-rule="evenodd" clip-rule="evenodd" d="M58.7686 48.6509C59.0447 49.4797 59.5975 50.0328 60.4264 50.3087C60.8725 51.649 61.1485 53.0307 61.2554 54.4531C59.6381 54.6794 58.3949 54.1274 57.5253 52.7953C57.3671 54.6255 56.9526 56.2833 56.282 57.7687C56.4114 55.6418 56.1344 53.5695 55.4531 51.552C55.8758 50.0385 56.5671 49.9001 57.5253 51.1376C57.7176 50.1123 58.132 49.2832 58.7686 48.6509Z" fill="#1E1E1E"/>
<path d="M52.7654 44.4123C53.4127 44.1634 60.8659 42.1153 61.599 41.7946C62.9759 41.3915 66.2216 42.5105 67.1335 40.8541C68.775 37.8727 72.5005 21.7135 72.9317 21.1259C74.3701 19.1658 68.9036 43.8416 66.566 46.6958C64.9765 48.6364 61.4816 49.3644 60.5507 50.1811C58.1226 51.8784 54.5232 52.1857 52.3657 52.3138C48.2391 52.5588 40.2206 53.0698 36.9662 52.0805C31.5489 50.4337 26.745 44.6343 24.2189 42.5572C24.0877 42.4493 15.3573 28.9385 14.9446 28.3994C14.6276 27.9853 16.1588 28.4292 16.1588 28.4292C16.1588 28.4292 28.2606 42.8793 29.0218 42.8322C29.0218 42.8322 31.8382 43.3604 36.5984 42.6757C36.5984 42.6757 49.145 45.5775 52.7654 44.4123Z" fill="#DC8D79"/>
<path d="M38.6997 52.6737C35.7386 52.6675 34.0986 51.5837 33.6561 51.3026C30.8461 49.5175 24.0743 42.2674 23.5908 41.9234C25.0462 41.9004 32.0204 50.4708 37.4724 51.8055C42.0616 51.8326 44.2579 52.3178 48.8585 52.4618C48.681 52.5017 41.9643 52.6737 38.6997 52.6737Z" fill="#AF7060"/>
<path d="M62.5815 49.9603C59.2517 51.227 55.293 52.7679 54.8867 52.2114C55.2074 52.0783 57.5842 51.3421 57.8974 51.1816C60.3688 50.5215 65.2296 47.5918 65.9841 47.3389C64.5215 48.3816 64.8161 49.1102 62.5815 49.9603Z" fill="#AF7060"/>
<path d="M19.1103 28.0374C17.2306 28.1894 16.4679 28.2217 14.3447 28.2284C20.6599 26.7655 27.671 23.9651 32.3649 22.164C35.0361 21.2795 37.6068 20.069 40.0618 18.8359C41.4749 18.3142 42.9313 17.9384 44.5936 18.2274C47.6994 18.7675 51.8252 21.1662 55.2327 20.4725C57.7802 19.954 61.2271 18.2867 63.7003 17.3556C64.0334 17.3211 64.367 17.3039 64.6992 17.3022C66.7552 18.3341 69.0065 19.1435 71.363 19.7236C72.0974 20.447 73.7624 19.9953 73.6408 20.7714C73.492 21.7212 71.7664 25.1406 69.9623 25.7237C66.927 26.7046 58.2671 27.7803 54.0878 27.7684C50.7564 28.1941 46.3473 27.2007 43.8416 27.2667C39.9931 27.3682 38.2355 28.3697 33.0462 28.3697C28.9608 28.3697 27.5757 28.8368 23.5237 28.9199L19.1103 28.0374Z" fill="#C9816E"/>
<path d="M43.3412 17.3527C44.7353 17.4914 51.7521 19.4447 53.075 19.9493L53.6974 20.1878C56.5113 19.0023 59.3149 17.7588 62.1727 16.6588L62.4819 16.4951C62.7296 16.3007 63.0109 16.2491 63.2565 16.2555C63.4982 16.2412 63.7776 16.2824 64.033 16.462C66.5324 17.6264 68.9923 18.7965 71.6086 19.7994L72.4952 20.0679C72.4952 20.0679 73.314 20.319 73.2459 20.9303C69.9054 20.1037 66.8565 18.9544 63.3542 17.4629C60.6774 18.2783 56.986 21.1596 54.2243 21.352C50.6272 21.6028 46.7798 19.0302 43.4461 18.5303C41.5424 18.2448 39.5836 19.4826 37.8619 19.9225C33.4149 21.6272 25.0771 26.1745 19.4062 26.9632C19.5531 26.8169 40.2173 16.3934 43.3412 17.3527Z" fill="#AF7060"/>
<path d="M35.4808 43.0114C28.7278 43.6624 28.0439 42.7443 28.0439 42.7443C28.0439 42.7443 34.7664 42.5927 34.8374 42.6007C46.3897 43.8489 46.8035 45.1111 54.3146 44.0512C55.9412 43.5828 61.4929 41.5557 61.5112 41.5537C61.9752 41.7317 69.5474 41.8473 67.5846 42.2123C66.9113 42.3376 63.6142 42.6117 61.5309 42.9173C61.5309 42.9173 55.2677 45.0689 53.4626 45.265C46.1275 46.0617 35.4808 43.0114 35.4808 43.0114Z" fill="#AF7060"/>
<path d="M65.4257 26.4847C63.7617 27.1882 54.9135 28.2859 53.1686 28.7883C45.4801 29.914 40.4828 27.4174 40.4828 27.4174C28.728 31.0107 15.0154 28.4931 14.1664 28.351C13.9768 28.3193 20.1012 28.033 21.2725 27.9752C25.2475 27.7789 30.7592 28.615 32.7518 27.7387C34.3629 27.5149 40.6511 26.4102 40.7221 26.4182C44.3637 26.4531 49.5454 27.2211 53.5666 27.2705C57.7535 27.322 56.9565 26.644 60.7878 26.1034C62.4144 25.635 66.7892 24.4906 66.8075 24.4886C67.0538 24.583 69.1553 26.0439 70.4834 25.3193C72.3078 24.324 73.1616 22.2085 73.1616 22.2085C73.1616 22.2085 73.1319 26.0532 69.1809 27.3233L65.4257 26.4847Z" fill="#AF7060"/>
</svg>
