<svg width="83" height="72" viewBox="0 0 83 72" fill="none" xmlns="http://www.w3.org/2000/svg">
<path d="M79.0744 29.8027C77.4552 37.7851 73.8442 51.8097 70.8922 59.3681C70.3782 60.6845 69.9801 62.184 69.6506 63.7754C54.0936 71.8702 32.9733 74.7602 17.0041 68.8176C3.72233 56.7612 -4.14143 33.0226 2.47047 17.332C3.07145 15.9058 3.77257 14.5853 4.56352 13.3647C12.3237 8.77371 20.4412 4.06953 29.3217 0.909142C32.2035 0.818302 35.1993 0.508311 38.2742 0.0737305C49.7963 0.339046 61.4296 3.10036 69.1988 5.96461C71.6117 6.79796 73.8679 7.81952 76.0006 8.99647C77.8112 10.7822 79.6781 12.4971 81.7297 13.8888C81.2321 18.6266 80.6507 23.4973 79.0744 29.8027Z" fill="#F8BC99"/>
<path d="M81.8993 22.324C79.4433 34.8578 73.0447 50.525 70.5586 63.0739C70.5586 63.0739 71.9465 49.5216 74.2392 42.8104C76.9924 34.5511 77.8338 26.032 80.527 17.6564C80.527 16.1979 80.6598 14.7364 80.8623 13.2739C81.2883 13.5887 81.7219 13.8904 82.1642 14.1767C82.0252 16.886 81.9104 19.6009 81.8993 22.324Z" fill="#95725D"/>
<path d="M64.1191 42.6935C57.4059 47.7777 60.1276 46.8131 48.4531 46.8131C25.7899 46.8131 11.709 28.1975 11.709 28.1975C11.709 28.1975 23.9124 25.7992 46.5757 25.7992C69.2389 25.7992 69.755 22.0264 69.755 22.0264C69.755 22.0264 70.4432 23.3101 70.3424 25.5858C70.1204 30.5979 68.4648 39.4022 64.1191 42.6935Z" fill="#482520"/>
<path d="M55.4053 36.8039C58.7189 38.3585 70.2582 41.5258 61.867 45.1651C56.8308 45.2332 51.8142 46.6464 46.6955 46.6464C41.599 46.6464 36.044 46.8479 30.9662 46.9406C27.6264 46.8954 22.2794 44.3579 21.6553 41.2501C21.7617 40.2681 21.9831 39.2485 22.4682 38.4492C22.6531 38.2232 22.8698 37.9971 23.1204 37.7716C23.3615 37.6535 23.6031 37.5382 23.8457 37.4251C27.2451 37.0916 30.5851 36.0543 34.2432 36.0543C35.4381 36.0543 36.959 35.9589 38.4779 35.9547C38.712 36.0138 38.9427 36.0813 39.1697 36.158C40.519 36.2018 41.9512 36.5828 43.338 37.0833C46.7447 35.8403 52.2444 35.4331 55.4053 36.8039ZM46.5207 38.4057C46.622 38.4511 46.7223 38.4962 46.8216 38.5407C46.3949 38.8413 46.1288 39.2507 46.0922 39.8004L45.5228 39.5448C42.5112 38.1928 39.9381 37.5783 36.6498 37.5287C36.163 37.4209 35.6645 37.3522 35.1498 37.3522C32.505 37.3522 25.9272 36.6989 24.124 38.9951C23.9967 39.0103 23.8177 38.9879 23.7052 38.786C23.5155 38.4454 23.8949 38.275 23.8949 38.275C24.0882 38.1883 24.2809 38.1064 24.4732 38.0291C24.4616 38.0207 24.4506 38.0117 24.4401 38.0023C24.1684 38.1277 23.8969 38.2538 23.627 38.3826C19.4066 42.1615 27.2952 46.246 30.9662 46.1789C36.1246 46.2487 41.5387 45.8847 46.6956 45.8847C51.708 45.8847 56.7558 44.334 61.672 44.4237C66.5419 42.139 62.3259 40.163 58.5647 38.7789C58.5909 38.8347 58.6079 38.9036 58.592 38.9786C57.9309 38.7484 57.2611 38.5214 56.6238 38.245C56.1865 38.245 55.3941 38.1511 54.4328 38.0485C51.5985 37.2326 48.0066 36.756 46.5207 38.4057ZM26.8036 37.221C26.7043 37.2676 26.6109 37.3161 26.5213 37.3637C26.7175 37.3142 26.9136 37.2686 27.1097 37.2266L26.8036 37.221ZM52.6139 36.8252C53.1385 36.9171 53.6589 37.0291 54.1657 37.158C53.6879 37.0117 53.1657 36.902 52.6139 36.8252Z" fill="#B65E50"/>
<path d="M54.5122 38.0227C55.4735 38.1253 56.2677 38.2242 56.705 38.2242C57.3423 38.5006 58.0137 38.7338 58.6748 38.964C58.6908 38.889 58.6735 38.819 58.6473 38.7632C62.4085 40.1474 66.6254 42.1514 61.7555 44.4361C56.8392 44.3464 51.7593 45.9453 46.7469 45.9453C41.59 45.9453 36.0457 46.2777 30.8873 46.2078C27.2164 46.2749 19.3229 42.1474 23.5433 38.3685C23.8133 38.2397 24.0852 38.1114 24.3569 37.986C24.3674 37.9955 24.5441 38.0373 24.5557 38.0457C24.3634 38.123 24.171 38.2034 23.9778 38.2902C23.9778 38.2902 23.5989 38.4582 23.7886 38.7989C23.901 39.0008 23.9126 38.9985 24.0399 38.9832C25.843 36.687 32.4322 37.3127 35.077 37.3127C35.5917 37.3127 36.0939 37.3766 36.5806 37.4844C39.869 37.534 42.5703 38.1386 45.5818 39.4906L46.0233 39.8455C46.0599 39.2957 46.3335 38.8944 46.7602 38.5938C46.661 38.5492 46.6789 38.395 46.5776 38.3496C48.0634 36.6999 51.6779 37.2068 54.5122 38.0227Z" fill="#C36556"/>
<path d="M20.1254 28.0497L20.1639 28.0038C20.255 27.9132 20.4524 27.7971 20.7219 27.6672C23.0758 27.0989 25.0432 26.586 26.0027 26.4914C30.4117 26.0567 42.2946 24.301 46.1988 24.301L46.5535 24.2426C49.3477 26.3894 54.548 24.2849 58.8068 23.4468C61.395 23.5505 65.7598 23.7461 67.65 24.3011C68.0181 24.6378 69.2766 29.1055 66.1367 30.4712C64.6645 31.1116 61.1989 32.8438 51.5189 33.3557C40.5969 33.9333 25.6424 33.8062 22.104 31.8156C20.7019 31.0268 17.114 28.949 17.0645 28.0038C17.0645 28.0038 19.7612 28.1058 20.1254 28.0497Z" fill="#F9F9F9"/>
<path d="M64.4454 40.0199L64.4129 40.047C64.3359 40.1009 64.1685 40.1707 63.9399 40.2493C61.9389 40.6042 60.2667 40.9229 59.4502 40.9874C55.6981 41.2838 56.7723 43.6351 53.4472 43.6724L41.9626 42.4989C39.5689 41.2698 35.1538 42.5504 31.5322 43.0813C29.3273 43.0453 25.6087 42.9725 23.9953 42.6659C23.6796 42.4725 22.5785 39.8712 25.2437 39.0424C26.4933 38.6538 29.4334 37.6074 37.6742 37.2157C46.9721 36.7736 59.7091 36.7053 62.7356 37.836C63.9349 38.284 67.0042 39.4651 67.0526 40.0175C67.0526 40.0175 64.7552 39.9836 64.4454 40.0199Z" fill="#F9F9F9"/>
<path d="M36.6267 54.3786L36.6843 54.3594C36.7039 54.369 36.7233 54.3784 36.7429 54.3877C37.2998 54.4332 37.8418 54.5125 38.3745 54.612C39.2062 54.4748 39.9664 54.0497 40.9269 54.0825C41.1923 53.9519 41.4953 53.831 41.8288 53.7209C44.2734 53.6389 46.7111 53.5137 49.2146 53.5137C50.4974 53.5137 51.7706 53.8455 53.0396 53.9963C53.042 53.9976 53.0445 53.9986 53.0469 53.9999L53.0483 53.9974C53.2051 54.016 53.3619 54.0316 53.5188 54.0438L53.6754 54.1208C53.8657 54.2096 53.9973 54.4004 53.9973 54.6216C53.9973 54.8427 53.8657 55.0336 53.6754 55.1224L53.2476 55.333C52.1269 57.4246 47.9231 57.1143 45.8389 57.1143C45.1331 57.1143 44.4527 57.0495 43.7875 56.9455C41.1303 57.008 38.3472 56.8815 36.3667 55.5466L36.3034 55.6709L35.8615 55.4533C35.8115 55.4527 35.7614 55.4524 35.7111 55.4524C35.7111 55.4524 35.1484 55.4523 35.1484 54.8984C35.1484 54.3444 35.7111 54.3445 35.7111 54.3445C35.7884 54.3445 35.8653 54.3452 35.9418 54.3466C35.9584 54.3452 35.9754 54.3445 35.9923 54.3445H36.555V54.3734C36.5789 54.375 36.6029 54.3768 36.6267 54.3786Z" fill="#DEA889"/>
<path d="M34.5541 54.0949C34.8095 54.0949 35.065 54.0949 35.3205 54.0949C40.1234 52.216 47.057 53.2256 52.109 53.273C52.7381 53.4794 53.4152 53.5499 54.0782 53.5499L54.1729 53.6211L54.1881 53.5766L55.0167 53.8484C55.1602 53.8919 55.2842 53.9794 55.3724 54.0949C55.091 54.0949 54.8097 54.0949 54.5284 54.0949C47.6562 54.0954 40.7622 54.3342 33.8701 54.368L34.5541 54.0949Z" fill="#95725D"/>
<path opacity="0.01" d="M29.3213 0.909355C29.9692 0.678819 30.621 0.456505 31.2771 0.243076C33.5823 0.069622 35.9257 0.0199481 38.2738 0.0740137C35.1989 0.508518 32.2031 0.818454 29.3213 0.909355Z" fill="black"/>
<path opacity="0.01" fill-rule="evenodd" clip-rule="evenodd" d="M40.5156 27.7344C41.6205 28.2872 41.6205 28.2872 40.5156 27.7344Z" fill="black"/>
<path opacity="0.01" fill-rule="evenodd" clip-rule="evenodd" d="M41.3447 40.1676C39.0694 40.6517 37.1355 41.7574 35.5425 43.4832C33.1851 40.5422 34.0139 38.8845 38.0291 38.5098C39.0867 37.5864 39.0867 36.7575 38.0291 36.0231C37.162 32.4763 38.4054 30.2665 41.7591 29.3921C42.8906 30.298 43.1673 31.403 42.5879 32.7077C41.7408 33.4155 41.0504 34.2443 40.5158 35.1943C40.718 36.8935 40.994 38.5512 41.3447 40.1676Z" fill="#101010"/>
<path opacity="0.01" fill-rule="evenodd" clip-rule="evenodd" d="M59.5802 44.3122C59.6208 46.4664 60.4497 48.2626 62.0668 49.7C61.3606 51.1323 60.5318 51.2708 59.5802 50.1145C59.5802 49.0096 59.0273 48.4567 57.9224 48.4567C58.055 47.0485 57.9175 45.6666 57.508 44.3122C57.2776 45.0715 56.8632 45.6236 56.2647 45.9701C55.3338 44.9282 54.7819 45.2041 54.6069 46.7989C53.8683 47.3046 53.0394 47.5806 52.1202 47.6278C50.2975 46.6547 48.6397 47.0691 47.1468 48.8711C48.9513 50.3408 50.4706 52.1362 51.7056 54.259C51.9817 53.7062 52.2585 53.154 52.5346 52.6012C52.8992 53.9075 53.5898 55.0133 54.6067 55.9167C53.9909 56.4821 53.4389 57.0349 52.9489 57.5746C53.7779 57.5746 54.6067 57.5746 55.4355 57.5746C54.5403 58.8552 54.5403 60.0985 55.4355 61.3045C53.9518 62.7418 52.2941 63.9851 50.4621 65.0345C48.6046 64.5935 47.3612 63.4886 46.7321 61.719C45.3951 62.649 44.4277 62.2345 43.8309 60.4757C46.5413 59.2115 47.3704 57.2778 46.3177 54.6735C46.9418 53.4409 47.6322 53.3025 48.3898 54.259C48.9964 52.4304 48.4436 51.0496 46.732 50.1146C46.2388 48.955 46.3772 47.85 47.1464 46.7991C46.8521 45.9519 46.2992 45.399 45.4885 45.1413C44.7625 45.2498 44.2095 44.9738 43.8307 44.3124C44.9356 43.2075 44.9356 42.1018 43.8307 40.9968C44.9149 40.0635 46.0207 40.0635 47.1464 40.9968C48.1726 41.2538 48.1726 41.6682 47.1464 42.2402C48.8473 43.0111 50.0906 44.2543 50.8764 45.9701C51.0173 43.912 50.3261 42.1165 48.8042 40.5823C50.8997 39.4914 50.8997 38.5241 48.8042 37.6812C48.2621 36.3424 47.8477 34.9608 47.5609 33.5367C46.402 33.08 45.2963 32.804 44.2453 32.7079C43.9874 31.0037 43.573 29.3458 43.002 27.7345C43.2573 27.0647 43.6718 26.5119 44.2453 26.0767C45.0742 27.1816 45.9031 27.1816 46.7319 26.0767C48.5281 27.8729 50.3235 29.6682 52.1198 31.4644C51.6871 31.9295 51.4111 32.4823 51.2909 33.1223C52.7729 35.2384 53.7402 37.5866 54.1919 40.1678C55.0614 39.3248 56.0287 39.1864 57.0931 39.7534C57.4984 41.5844 58.3279 43.1037 59.5802 44.3122ZM56.2647 45.9701C55.7118 46.2461 55.1597 46.523 54.6069 46.7989C54.7819 45.2041 55.3338 44.9282 56.2647 45.9701ZM54.6069 46.7989C54.2264 50.5497 53.3975 50.8256 52.1202 47.6278C53.0394 47.5806 53.8683 47.3046 54.6069 46.7989ZM59.5802 50.1145C59.5802 49.0096 59.0273 48.4567 57.9224 48.4567C58.1984 49.2856 58.7513 49.8385 59.5802 50.1145ZM52.9489 57.5746C52.8777 58.4001 53.1546 59.0902 53.778 59.6464C52.32 60.482 51.3526 61.7253 50.8768 63.3765C50.6506 61.8605 49.9593 60.6171 48.8047 59.6464C49.7305 58.0782 51.1122 57.388 52.9489 57.5746Z" fill="#161616"/>
<path opacity="0.01" fill-rule="evenodd" clip-rule="evenodd" d="M38.0292 36.0234C37.2824 37.8693 35.9014 38.6983 33.8848 38.5101C33.8848 37.6812 33.8848 36.8523 33.8848 36.0234C35.4264 35.5501 36.8083 35.5501 38.0292 36.0234Z" fill="black"/>
<path opacity="0.01" fill-rule="evenodd" clip-rule="evenodd" d="M47.1465 40.9966C46.0209 40.0633 44.9151 40.0633 43.8309 40.9966C44.9358 42.1015 44.9358 43.2072 43.8309 44.3122C44.2097 44.9736 44.7627 45.2497 45.4887 45.1411C43.3767 47.307 41.4421 47.1685 39.6865 44.7266C40.3264 43.7145 41.1553 42.8856 42.1732 42.24C41.5499 41.6838 41.273 40.9933 41.3444 40.1678C43.6736 38.7769 45.6073 39.0528 47.1465 40.9966Z" fill="#030303"/>
<path opacity="0.01" fill-rule="evenodd" clip-rule="evenodd" d="M60.409 44.3122C60.1329 44.3122 59.8561 44.3122 59.5801 44.3122C59.8562 42.1016 60.133 42.1016 60.409 44.3122Z" fill="black"/>
<path opacity="0.01" fill-rule="evenodd" clip-rule="evenodd" d="M60.4093 44.312C61.6343 44.0947 62.7391 44.3708 63.7247 45.1409C63.1718 45.4169 62.6198 45.6938 62.0669 45.9697C61.0615 45.765 60.5088 45.2122 60.4093 44.312Z" fill="black"/>
<path opacity="0.012" fill-rule="evenodd" clip-rule="evenodd" d="M54.6068 46.7988C54.2263 50.5495 53.3974 50.8255 52.1201 47.6277C53.0393 47.5804 53.8683 47.3045 54.6068 46.7988Z" fill="#484848"/>
<path opacity="0.016" fill-rule="evenodd" clip-rule="evenodd" d="M57.9219 48.4565C58.198 49.2854 58.7508 49.8384 59.5798 50.1143C60.0258 51.4546 60.3018 52.8364 60.4087 54.2587C58.7915 54.4851 57.5482 53.933 56.6787 52.601C56.5204 54.4312 56.1059 56.089 55.4353 57.5744C55.5647 55.4475 55.2878 53.3752 54.6064 51.3577C55.0291 49.8441 55.7205 49.7058 56.6786 50.9432C56.8709 49.9179 57.2854 49.0889 57.9219 48.4565Z" fill="#1E1E1E"/>
<path d="M50.7415 42.6099C51.4253 42.386 59.2984 40.5435 60.0729 40.255C61.5273 39.8924 64.9559 40.8991 65.9192 39.409C67.6531 36.7269 71.5885 22.1898 72.044 21.6611C73.5635 19.8979 67.7889 42.0966 65.3196 44.6643C63.6406 46.41 59.9488 47.0649 58.9655 47.7997C56.4005 49.3266 52.5983 49.603 50.3193 49.7183C45.9602 49.9387 37.4899 50.3984 34.0522 49.5084C28.3296 48.0269 23.2551 42.8097 20.5866 40.9411C20.448 40.844 11.2258 28.6895 10.7898 28.2045C10.4549 27.832 12.0725 28.2313 12.0725 28.2313C12.0725 28.2313 24.8561 41.2308 25.6601 41.1884C25.6601 41.1884 28.6353 41.6636 33.6636 41.0477C33.6636 41.0477 46.9171 43.6582 50.7415 42.6099Z" fill="#DC8D79"/>
<path d="M35.884 50.0423C32.756 50.0367 31.0236 49.0617 30.5562 48.8088C27.5879 47.2029 20.4346 40.6806 19.9238 40.3711C21.4612 40.3504 28.8284 48.0605 34.5875 49.2612C39.4353 49.2856 41.7554 49.7221 46.6152 49.8517C46.4277 49.8876 39.3325 50.0423 35.884 50.0423Z" fill="#AF7060"/>
<path d="M61.1106 47.6014C57.5932 48.741 53.4116 50.1272 52.9824 49.6265C53.3212 49.5068 55.8319 48.8446 56.1627 48.7002C58.7734 48.1063 63.908 45.4707 64.705 45.2432C63.16 46.1812 63.4712 46.8367 61.1106 47.6014Z" fill="#AF7060"/>
<path d="M15.1903 27.8788C13.2047 28.0154 12.3991 28.0445 10.1562 28.0505C16.8272 26.7345 24.2334 24.2152 29.1917 22.595C32.0134 21.7992 34.7289 20.7103 37.3223 19.6009C38.815 19.1316 40.3535 18.7935 42.1094 19.0534C45.3902 19.5394 49.7484 21.6973 53.3479 21.0732C56.0389 20.6068 59.68 19.1068 62.2926 18.2692C62.6445 18.2382 62.9969 18.2227 63.3478 18.2212C65.5197 19.1495 67.8978 19.8776 70.3871 20.3995C71.1629 21.0503 72.9217 20.6439 72.7932 21.3421C72.636 22.1965 70.8132 25.2727 68.9074 25.7972C65.7011 26.6797 56.5533 27.6474 52.1385 27.6367C48.6194 28.0197 43.9619 27.126 41.315 27.1854C37.2497 27.2767 35.3931 28.1776 29.9114 28.1776C25.5959 28.1776 24.1326 28.5979 19.8524 28.6726L15.1903 27.8788Z" fill="#C9816E"/>
<path d="M40.7865 18.2667C42.2591 18.3915 49.6712 20.1488 51.0687 20.6026L51.7262 20.8172C54.6986 19.7507 57.6601 18.632 60.679 17.6425L61.0055 17.4952C61.2672 17.3204 61.5644 17.2739 61.8238 17.2797C62.0791 17.2668 62.3743 17.3038 62.644 17.4654C65.2843 18.513 67.8828 19.5656 70.6465 20.4678L71.5831 20.7094C71.5831 20.7094 72.448 20.9352 72.3761 21.4852C68.8474 20.7415 65.6266 19.7076 61.927 18.3658C59.0994 19.0994 55.2 21.6915 52.2827 21.8646C48.483 22.0901 44.4188 19.7758 40.8973 19.3261C38.8863 19.0693 36.8171 20.1828 34.9985 20.5786C30.3009 22.1121 21.4933 26.2029 15.5029 26.9125C15.658 26.7808 37.4866 17.4037 40.7865 18.2667Z" fill="#AF7060"/>
<path d="M32.4838 41.35C25.3503 41.9356 24.6279 41.1096 24.6279 41.1096C24.6279 41.1096 31.7292 40.9733 31.8041 40.9804C44.0073 42.1033 44.4444 43.2389 52.3788 42.2853C54.097 41.864 59.9615 40.0404 59.9808 40.0386C60.4709 40.1987 68.4697 40.3026 66.3964 40.631C65.6851 40.7437 62.2022 40.9903 60.0015 41.2653C60.0015 41.2653 53.3856 43.2009 51.4787 43.3773C43.7303 44.094 32.4838 41.35 32.4838 41.35Z" fill="#AF7060"/>
<path d="M64.1158 26.4822C62.3579 27.115 53.0112 28.1026 51.168 28.5546C43.0463 29.5672 37.7676 27.3213 37.7676 27.3213C25.3505 30.5538 10.8652 28.289 9.96842 28.1611C9.76808 28.1326 16.2376 27.8751 17.4748 27.823C21.6738 27.6464 27.496 28.3987 29.6009 27.6103C31.3028 27.4089 37.9453 26.4152 38.0203 26.4224C41.8671 26.4538 47.3407 27.1447 51.5885 27.1892C56.0113 27.2355 55.1694 26.6255 59.2166 26.1392C60.9348 25.7178 65.5561 24.6882 65.5754 24.6864C65.8356 24.7714 68.0555 26.0856 69.4584 25.4338C71.3856 24.5384 72.2875 22.6353 72.2875 22.6353C72.2875 22.6353 72.2561 26.094 68.0826 27.2366L64.1158 26.4822Z" fill="#AF7060"/>
</svg>
