<svg width="84" height="73" viewBox="0 0 84 73" fill="none" xmlns="http://www.w3.org/2000/svg">
<path d="M79.9211 29.9971C78.3018 37.9794 74.6909 52.004 71.7389 59.5625C71.2249 60.8788 70.8268 62.3784 70.4973 63.9698C54.9403 72.0645 33.82 74.9545 17.8508 69.012C4.56901 56.9556 -3.29475 33.217 3.31715 17.5263C3.91813 16.1001 4.61925 14.7797 5.4102 13.559C13.1704 8.96804 21.2879 4.26387 30.1684 1.10348C33.0502 1.01264 36.046 0.702647 39.1209 0.268066C50.643 0.533382 62.2763 3.2947 70.0455 6.15895C72.4584 6.9923 74.7146 8.01386 76.8473 9.19081C78.6579 10.9766 80.5248 12.6914 82.5764 14.0831C82.0788 18.821 81.4974 23.6916 79.9211 29.9971Z" fill="#F8BC99"/>
<path d="M82.7459 22.5183C80.29 35.0521 73.8914 50.7193 71.4053 63.2682C71.4053 63.2682 72.7931 49.716 75.0859 43.0047C77.8391 34.7454 78.6805 26.2264 81.3737 17.8508C81.3737 16.3922 81.5065 14.9308 81.709 13.4683C82.135 13.783 82.5685 14.0847 83.0109 14.371C82.8719 17.0803 82.757 19.7952 82.7459 22.5183Z" fill="#95725D"/>
<path d="M64.1538 38.2314C57.7987 43.8829 59.8723 41.7328 48.8204 41.7328C27.366 41.7328 17.6807 28.2046 17.6807 28.2046C17.6807 28.2046 27.366 25.7256 48.8204 25.7256C70.2749 25.7256 70.7634 21.5317 70.7634 21.5317C70.7634 21.5317 71.4149 22.9588 71.3195 25.4883C71.1093 31.0597 68.2678 34.5728 64.1538 38.2314Z" fill="#482520"/>
<path d="M38.1062 51.8092L38.1637 51.79C38.1834 51.7997 38.2028 51.8091 38.2224 51.8183C38.7793 51.8639 39.3213 51.9431 39.854 52.0426C40.6857 51.9055 41.4459 51.4803 42.4064 51.5131C42.6718 51.3826 42.9747 51.2617 43.3083 51.1516C45.7529 51.0695 48.1906 50.9443 50.6941 50.9443C51.9769 50.9443 53.2501 51.2762 54.5191 51.427C54.5215 51.4282 54.524 51.4292 54.5264 51.4306L54.5278 51.428C54.6846 51.4466 54.8414 51.4622 54.9983 51.4744L55.1549 51.5515C55.3452 51.6402 55.4768 51.8311 55.4768 52.0522C55.4768 52.2734 55.3452 52.4643 55.1549 52.553L54.7271 52.7636C53.6064 54.8552 49.4026 54.5449 47.3184 54.5449C46.6126 54.5449 45.9322 54.4801 45.267 54.3761C42.6098 54.4386 39.8267 54.3121 37.8462 52.9773L37.7829 53.1016L37.341 52.884C37.291 52.8834 37.2409 52.883 37.1906 52.883C37.1906 52.883 36.6279 52.883 36.6279 52.3291C36.6279 51.7751 37.1906 51.7751 37.1906 51.7751C37.2679 51.7751 37.3448 51.7758 37.4213 51.7773C37.4379 51.7758 37.4549 51.7751 37.4718 51.7751H38.0345V51.8041C38.0584 51.8057 38.0824 51.8075 38.1062 51.8092Z" fill="#DEA889"/>
<path d="M36.0336 51.5256C36.289 51.5256 36.5445 51.5256 36.8 51.5256C41.6028 49.6467 48.5365 50.6563 53.5885 50.7036C54.2176 50.9101 54.8947 50.9806 55.5577 50.9806L55.6524 51.0518L55.6676 51.0072L56.4962 51.2791C56.6397 51.3225 56.7637 51.41 56.8519 51.5255C56.5705 51.5255 56.2892 51.5255 56.0079 51.5255C49.1357 51.526 42.2417 51.7649 35.3496 51.7986L36.0336 51.5256Z" fill="#95725D"/>
<path opacity="0.01" d="M30.168 1.10369C30.8158 0.873155 31.4676 0.650841 32.1237 0.437412C34.429 0.263958 36.7724 0.214284 39.1205 0.26835C36.0456 0.702854 33.0498 1.01279 30.168 1.10369Z" fill="black"/>
<path opacity="0.01" fill-rule="evenodd" clip-rule="evenodd" d="M41.3623 27.9287C42.4672 28.4816 42.4672 28.4816 41.3623 27.9287Z" fill="black"/>
<path opacity="0.01" fill-rule="evenodd" clip-rule="evenodd" d="M42.1913 40.3619C39.9161 40.846 37.9822 41.9517 36.3892 43.6775C34.0318 40.7366 34.8606 39.0788 38.8758 38.7041C39.9334 37.7807 39.9334 36.9518 38.8758 36.2174C38.0087 32.6706 39.2521 30.4608 42.6058 29.5864C43.7373 30.4923 44.014 31.5973 43.4346 32.902C42.5875 33.6099 41.897 34.4387 41.3625 35.3886C41.5647 37.0879 41.8407 38.7456 42.1913 40.3619Z" fill="#101010"/>
<path opacity="0.01" fill-rule="evenodd" clip-rule="evenodd" d="M60.4269 44.5065C60.4675 46.6608 61.2964 48.4569 62.9135 49.8944C62.2073 51.3266 61.3785 51.4651 60.4269 50.3089C60.4269 49.204 59.874 48.651 58.7691 48.651C58.9017 47.2428 58.7642 45.8609 58.3547 44.5066C58.1242 45.2658 57.7098 45.818 57.1114 46.1644C56.1805 45.1225 55.6285 45.3985 55.4536 46.9933C54.715 47.4989 53.8861 47.7749 52.9669 47.8221C51.1442 46.849 49.4864 47.2635 47.9935 49.0655C49.798 50.5351 51.3173 52.3305 52.5523 54.4533C52.8284 53.9005 53.1052 53.3484 53.3812 52.7955C53.7459 54.1018 54.4365 55.2077 55.4534 56.1111C54.8376 56.6764 54.2856 57.2293 53.7956 57.7689C54.6246 57.7689 55.4534 57.7689 56.2822 57.7689C55.387 59.0495 55.387 60.2928 56.2822 61.4988C54.7985 62.9361 53.1408 64.1795 51.3088 65.2288C49.4513 64.7878 48.2079 63.683 47.5788 61.9133C46.2418 62.8433 45.2744 62.4288 44.6776 60.67C47.388 59.4059 48.2171 57.4721 47.1643 54.8678C47.7885 53.6353 48.4789 53.4969 49.2365 54.4533C49.8431 52.6247 49.2903 51.2439 47.5787 50.309C47.0855 49.1493 47.2239 48.0444 47.993 46.9934C47.6988 46.1463 47.1459 45.5933 46.3352 45.3356C45.6091 45.4441 45.0562 45.1682 44.6774 44.5067C45.7823 43.4018 45.7823 42.2961 44.6774 41.1912C45.7616 40.2578 46.8674 40.2578 47.9931 41.1912C49.0193 41.4481 49.0193 41.8626 47.9931 42.4345C49.694 43.2054 50.9373 44.4487 51.7231 46.1645C51.864 44.1063 51.1727 42.3109 49.6509 40.7766C51.7464 39.6857 51.7464 38.7185 49.6509 37.8755C49.1088 36.5368 48.6944 35.1551 48.4075 33.7311C47.2487 33.2743 46.143 32.9984 45.092 32.9022C44.8341 31.1981 44.4197 29.5402 43.8486 27.9288C44.104 27.259 44.5184 26.7062 45.092 26.271C45.9209 27.3759 46.7497 27.3759 47.5786 26.271C49.3748 28.0672 51.1702 29.8625 52.9664 31.6588C52.5338 32.1239 52.2578 32.6767 52.1376 33.3166C53.6196 35.4328 54.5869 37.7809 55.0386 40.3622C55.9081 39.5191 56.8754 39.3808 57.9398 39.9477C58.3451 41.7788 59.1745 43.298 60.4269 44.5065ZM57.1114 46.1644C56.5584 46.4404 56.0064 46.7173 55.4536 46.9933C55.6285 45.3985 56.1805 45.1225 57.1114 46.1644ZM55.4536 46.9933C55.0731 50.744 54.2442 51.0199 52.9669 47.8221C53.8861 47.7749 54.715 47.4989 55.4536 46.9933ZM60.4269 50.3089C60.4269 49.204 59.874 48.651 58.7691 48.651C59.0451 49.4799 59.598 50.0328 60.4269 50.3089ZM53.7956 57.7689C53.7244 58.5945 54.0013 59.2846 54.6247 59.8408C53.1667 60.6763 52.1993 61.9197 51.7235 63.5708C51.4973 62.0548 50.806 60.8114 49.6513 59.8408C50.5772 58.2725 51.9589 57.5824 53.7956 57.7689Z" fill="#161616"/>
<path opacity="0.01" fill-rule="evenodd" clip-rule="evenodd" d="M38.8759 36.2177C38.129 38.0636 36.7481 38.8926 34.7314 38.7044C34.7314 37.8756 34.7314 37.0466 34.7314 36.2177C36.2731 35.7445 37.655 35.7445 38.8759 36.2177Z" fill="black"/>
<path opacity="0.01" fill-rule="evenodd" clip-rule="evenodd" d="M47.9932 41.191C46.8676 40.2576 45.7617 40.2576 44.6776 41.191C45.7825 42.2959 45.7825 43.4016 44.6776 44.5065C45.0564 45.168 45.6093 45.444 46.3354 45.3354C44.2233 47.5013 42.2888 47.3629 40.5332 44.9209C41.1731 43.9088 42.002 43.08 43.0199 42.4343C42.3966 41.8782 42.1197 41.1876 42.1911 40.3621C44.5203 38.9712 46.454 39.2472 47.9932 41.191Z" fill="#030303"/>
<path opacity="0.01" fill-rule="evenodd" clip-rule="evenodd" d="M61.2557 44.5066C60.9796 44.5066 60.7028 44.5066 60.4268 44.5066C60.7029 42.296 60.9797 42.296 61.2557 44.5066Z" fill="black"/>
<path opacity="0.01" fill-rule="evenodd" clip-rule="evenodd" d="M61.256 44.5063C62.481 44.2891 63.5858 44.5652 64.5714 45.3352C64.0185 45.6112 63.4665 45.8881 62.9136 46.1641C61.9081 45.9594 61.3554 45.4065 61.256 44.5063Z" fill="black"/>
<path opacity="0.012" fill-rule="evenodd" clip-rule="evenodd" d="M55.4535 46.9932C55.073 50.7439 54.2441 51.0198 52.9668 47.822C53.886 47.7748 54.715 47.4988 55.4535 46.9932Z" fill="#484848"/>
<path opacity="0.016" fill-rule="evenodd" clip-rule="evenodd" d="M58.7686 48.6509C59.0447 49.4797 59.5975 50.0328 60.4264 50.3087C60.8725 51.649 61.1485 53.0307 61.2554 54.4531C59.6381 54.6794 58.3949 54.1274 57.5253 52.7953C57.3671 54.6255 56.9526 56.2833 56.282 57.7687C56.4114 55.6418 56.1344 53.5695 55.4531 51.552C55.8758 50.0385 56.5671 49.9001 57.5253 51.1376C57.7176 50.1123 58.132 49.2832 58.7686 48.6509Z" fill="#1E1E1E"/>
<path d="M40.8373 34.4688C55.1751 27.6756 58.5824 33.8844 65.1565 32.46C70.611 32.46 69.8726 27.6827 71.0757 26.0432C72.5129 24.0849 72.1413 35.3725 69.8057 38.2242C68.2176 40.1631 64.889 41.528 63.9589 42.3441C61.5329 44.0399 56.1017 42.8352 53.0396 43.1763C47.2862 43.8174 43.8804 45.5435 38.7617 44.7801C30.9136 42.4996 21.5659 37.7073 17.1184 29.4327C17.1184 29.4327 16.5951 29.3969 17.1181 28.4767C22.7404 29.3487 26.7353 36.497 40.8373 34.4688Z" fill="#DC8D79"/>
<path d="M25.0826 26.492L25.1181 26.4375C25.2022 26.3296 25.3844 26.1915 25.633 26.0369C27.8053 25.3607 29.6209 24.7504 30.5064 24.6378C34.5752 24.1206 45.5412 22.0316 49.1441 22.0316L49.4715 21.9621C52.0501 24.5165 56.8491 22.0124 60.7793 21.0151C63.1679 21.1386 67.1959 21.3713 68.9402 22.0317C69.2799 22.4323 70.4413 27.7483 67.5437 29.3734C66.1851 30.1353 62.9869 32.1964 54.0537 32.8055C43.9745 33.4927 30.1739 33.3415 26.9085 30.9729C25.6146 30.0344 22.3035 27.5621 22.2578 26.4375C22.2578 26.4375 24.7465 26.5588 25.0826 26.492Z" fill="#F9F9F9"/>
<path d="M19.1103 28.0374C17.2306 28.1894 16.4679 28.2217 14.3447 28.2284C20.6599 26.7655 27.671 23.9651 32.3649 22.164C35.0361 21.2795 37.6068 20.069 40.0618 18.8359C41.4749 18.3142 42.9313 17.9384 44.5936 18.2274C47.6994 18.7675 51.8252 21.1662 55.2327 20.4725C57.7802 19.954 61.2271 18.2867 63.7003 17.3556C64.0334 17.3211 64.367 17.3039 64.6992 17.3022C66.7552 18.3341 69.0065 19.1435 71.363 19.7236C72.0974 20.447 73.7624 19.9953 73.6408 20.7714C73.492 21.7212 71.7664 25.1406 69.9623 25.7237C66.927 26.7046 58.2671 27.7803 54.0878 27.7684C50.7564 28.1941 46.3473 27.2007 43.8416 27.2667C39.9931 27.3682 38.2355 28.3697 33.0462 28.3697C28.9608 28.3697 27.5757 28.8368 23.5237 28.9199L19.1103 28.0374Z" fill="#C9816E"/>
<path d="M43.3412 17.3527C44.7353 17.4914 51.7521 19.4447 53.075 19.9493L53.6974 20.1878C56.5113 19.0023 59.3149 17.7588 62.1727 16.6588L62.4819 16.4951C62.7296 16.3007 63.0109 16.2491 63.2565 16.2555C63.4982 16.2412 63.7776 16.2824 64.033 16.462C66.5324 17.6264 68.9923 18.7965 71.6086 19.7994L72.4952 20.0679C72.4952 20.0679 73.314 20.319 73.2459 20.9303C69.9054 20.1037 66.8565 18.9544 63.3542 17.4629C60.6774 18.2783 56.986 21.1596 54.2243 21.352C50.6272 21.6028 46.7798 19.0302 43.4461 18.5303C41.5424 18.2448 39.5836 19.4826 37.8619 19.9225C33.4149 21.6272 25.0771 26.1745 19.4062 26.9632C19.5531 26.8169 40.2173 16.3934 43.3412 17.3527Z" fill="#AF7060"/>
<path d="M65.4257 26.4847C63.7617 27.1882 54.9135 28.2859 53.1686 28.7883C45.4801 29.914 40.4828 27.4174 40.4828 27.4174C28.728 31.0107 15.0154 28.4931 14.1664 28.351C13.9768 28.3193 20.1012 28.033 21.2725 27.9752C25.2475 27.7789 30.7592 28.615 32.7518 27.7387C34.3629 27.5149 40.6511 26.4102 40.7221 26.4182C44.3637 26.4531 49.5454 27.2211 53.5666 27.2705C57.7535 27.322 56.9565 26.644 60.7878 26.1034C62.4144 25.635 66.7892 24.4906 66.8075 24.4886C67.0538 24.583 69.1553 26.0439 70.4834 25.3193C72.3078 24.324 73.1616 22.2085 73.1616 22.2085C73.1616 22.2085 73.1319 26.0532 69.1809 27.3233L65.4257 26.4847Z" fill="#AF7060"/>
<path d="M52.7426 44.1493L49.9685 44.7995C46.7461 45.2629 45.814 45.6669 42.5522 45.6669C39.0679 45.6596 34.8579 45.2768 31.9275 43.4151C29.12 41.6316 27.3151 39.5333 24.4392 38.6051C23.9922 38.2588 23.53 37.9154 23.0469 37.5716C24.501 37.5486 25.9113 37.6366 26.9845 38.1687C31.6836 40.499 34.4089 43.4659 39.8562 44.7995C44.4414 44.8265 48.6414 43.2712 53.238 43.4151C56.0622 43.4151 52.7426 44.1493 52.7426 44.1493Z" fill="#AF7060"/>
<path d="M68.3322 40.4121L67.8162 40.6596C65.4663 41.8613 63.2486 43.2759 60.166 43.7808C60.166 43.7808 56.4345 43.3661 56.0173 43.0236C56.6727 42.8268 58.7321 42.9364 60.8517 42.8683C63.7075 41.891 65.3659 41.2656 66.6124 40.0745C67.0896 39.8143 69.2989 37.5832 69.6802 37.2997C70.1786 37.6882 68.8737 40.0018 68.3322 40.4121Z" fill="#AF7060"/>
</svg>
