<svg width="83" height="73" viewBox="0 0 83 73" fill="none" xmlns="http://www.w3.org/2000/svg">
<path d="M79.2404 30.1953C77.6212 38.1777 74.0103 52.2022 71.0583 59.7607C70.5443 61.0771 70.1461 62.5766 69.8166 64.168C54.2596 72.2628 33.1393 75.1528 17.1701 69.2102C3.88834 57.1538 -3.97541 33.4152 2.63648 17.7246C3.23747 16.2983 3.93858 14.9779 4.72953 13.7573C12.4897 9.16628 20.6072 4.46211 29.4877 1.30172C32.3695 1.21088 35.3653 0.900889 38.4402 0.466309C49.9623 0.731624 61.5956 3.49294 69.3648 6.35719C71.7778 7.19054 74.0339 8.21208 76.1666 9.38903C77.9772 11.1748 79.8441 12.8896 81.8957 14.2813C81.3981 19.0192 80.8167 23.8898 79.2404 30.1953Z" fill="#F8BC99"/>
<path d="M82.0653 22.7165C79.6093 35.2504 73.2107 50.9176 70.7246 63.4665C70.7246 63.4665 72.1125 49.9142 74.4053 43.203C77.1584 34.9437 77.9999 26.4246 80.6931 18.049C80.6931 16.5905 80.8259 15.129 81.0284 13.6665C81.4543 13.9813 81.8879 14.283 82.3302 14.5693C82.1913 17.2786 82.0764 19.9934 82.0653 22.7165Z" fill="#95725D"/>
<path d="M62.072 46.9001C55.7169 52.5516 58.7287 49.3031 47.6769 49.3031C40.1458 49.3031 33.6579 52.7189 28.7473 48.6093C22.6416 43.4994 12.8926 26.8692 12.8926 26.8692C12.8926 26.8692 24.4451 25.9443 45.8996 25.9443C67.3541 25.9443 67.8426 21.7505 67.8426 21.7505C67.8426 21.7505 68.4941 23.1775 68.3986 25.7071C68.1885 31.2785 66.186 43.2416 62.072 46.9001Z" fill="#482520"/>
<path d="M47.7956 50.3281L46.9394 50.5594C44.4692 50.5602 42.7019 50.3951 40.681 48.9654C39.3063 49.0284 37.5508 49.309 35.7385 49.4841C35.3827 49.5394 35.0182 49.5706 34.644 49.5742C31.0626 49.8096 27.5129 49.3869 26.4555 45.8519C26.4234 45.7718 26.41 45.6921 26.4053 45.6258C26.3969 45.5401 26.3993 45.4303 26.4383 45.3205C27.5075 40.1591 33.3767 36.1947 37.5604 33.2491C43.7885 29.7443 53.0069 28.167 56.1986 35.8363C56.2698 41.6455 54.5565 48.7925 48.1115 50.1395C47.9676 50.2742 47.7956 50.3281 47.7956 50.3281Z" fill="#B65E50"/>
<path d="M45.7114 40.3103C45.6619 40.3492 42.5662 43.7472 39.721 45.8594C37.79 47.293 35.7493 47.7118 35.7256 47.72C33.0463 47.9106 31.6282 48.4124 29.3286 47.2853C28.9638 47.1065 28.1905 45.9274 27.8564 45.726C27.8394 45.6745 27.8229 45.6213 27.8076 45.5679C28.6692 40.8745 34.6023 36.9661 38.3445 34.3241C43.6056 31.3484 51.9535 29.5373 54.8348 36.074C54.7514 41.5961 53.241 49.0905 45.9289 49.0542C45.0758 49.0591 44.3806 48.9153 43.6077 48.3919C41.7089 47.1062 45.6685 40.5121 45.7114 40.3103Z" fill="#C36556"/>
<path d="M44.4666 45.9264C44.4677 45.9503 44.4711 45.977 44.4764 46.0061C44.5307 46.7281 44.6557 47.4333 44.9112 48.1082C44.8901 48.1439 44.8637 48.1756 44.8314 48.2028C44.5612 48.4307 44.1079 48.4322 43.5955 48.324C43.5189 48.3832 43.4073 48.4201 43.2515 48.3663C43.1226 48.3217 43.0558 48.247 43.0232 48.1694C42.1724 47.8975 41.2863 47.4572 40.8541 47.3079C40.5532 47.1974 40.2663 47.0228 40.0392 46.7962L39.4853 46.6048C39.2865 46.5361 39.1809 46.3193 39.2496 46.1205C39.2555 46.1034 39.2626 46.0869 39.2706 46.0713C39.1747 46.0589 39.0699 46.0059 38.9979 45.8579C38.8312 45.5155 39.1737 45.3489 39.1737 45.3489L39.5673 45.1791C39.9358 45.1305 40.3221 45.0075 40.7035 44.8248C41.0725 44.3994 41.3958 43.9746 41.7094 43.5489C42.7268 42.8743 43.6504 41.9853 44.4915 40.8633C44.6005 42.4777 44.3732 44.1617 44.4611 45.7699C44.4624 45.8227 44.4642 45.8749 44.4666 45.9264ZM43.8104 46.3248C43.76 46.775 43.7525 47.2282 43.8153 47.6865C43.9932 47.7216 44.1464 47.7292 44.2615 47.6976C44.7396 47.5662 44.0792 46.8949 43.8104 46.3248Z" fill="#AD594C"/>
<path d="M43.3323 43.9559C43.3 44.0614 43.2619 44.159 43.2188 44.2478C43.2506 42.778 43.5399 41.4133 44.1123 39.9334C44.7564 38.2678 46.3658 37.1302 46.8951 35.6626C47.3396 38.3233 44.3983 42.4973 43.3323 43.9559Z" fill="#B65E50"/>
<path d="M34.5515 61.277L34.6091 61.2578C34.6287 61.2675 34.6482 61.2769 34.6678 61.2861C35.2247 61.3317 35.7666 61.4109 36.2993 61.5104C37.131 61.3733 37.8912 60.9481 38.8517 60.9809C39.1171 60.8503 39.4201 60.7295 39.7536 60.6194C42.1983 60.5373 44.6359 60.4121 47.1394 60.4121C48.4222 60.4121 49.6955 60.744 50.9644 60.8947C50.9668 60.896 50.9693 60.897 50.9718 60.8983L50.9731 60.8958C51.1299 60.9144 51.2867 60.93 51.4436 60.9422L51.6003 61.0192C51.7905 61.108 51.9221 61.2989 51.9221 61.52C51.9221 61.7411 51.7905 61.932 51.6003 62.0208L51.1724 62.2314C50.0517 64.323 45.848 64.0127 43.7637 64.0127C43.0579 64.0127 42.3775 63.9479 41.7123 63.8439C39.0551 63.9064 36.2721 63.7799 34.2915 62.4451L34.2283 62.5694L33.7864 62.3517C33.7363 62.3511 33.6863 62.3508 33.636 62.3508C33.636 62.3508 33.0732 62.3508 33.0732 61.7968C33.0732 61.2429 33.636 61.2429 33.636 61.2429C33.7132 61.2429 33.7901 61.2436 33.8666 61.2451C33.8832 61.2436 33.9002 61.2429 33.9171 61.2429H34.4798V61.2719C34.5037 61.2735 34.5278 61.2753 34.5515 61.277Z" fill="#DEA889"/>
<path d="M32.4789 60.9934C32.7343 60.9934 32.9899 60.9934 33.2453 60.9934C38.0482 59.1145 44.9818 60.1241 50.0339 60.1714C50.6629 60.3779 51.34 60.4484 52.0031 60.4484L52.0978 60.5195L52.1129 60.475L52.9415 60.7468C53.085 60.7903 53.209 60.8778 53.2972 60.9933C53.0159 60.9933 52.7345 60.9933 52.4532 60.9933C45.5811 60.9938 38.687 61.2326 31.7949 61.2664L32.4789 60.9934Z" fill="#95725D"/>
<path d="M19.8631 28.0404L19.9001 27.9927C19.9877 27.8984 20.1775 27.7776 20.4366 27.6424C22.6999 27.0511 24.5916 26.5176 25.5141 26.4191C29.7534 25.9668 41.179 24.1402 44.9329 24.1402L45.274 24.0795C47.9606 26.3131 52.9608 24.1234 57.0557 23.2515C59.5443 23.3594 63.7411 23.5629 65.5585 24.1403C65.9125 24.4906 67.1225 29.1389 64.1035 30.5598C62.6879 31.226 59.3557 33.0283 50.0483 33.5609C39.5466 34.1618 25.1677 34.0295 21.7655 31.9585C20.4174 31.1378 16.9676 28.976 16.9199 27.9927C16.9199 27.9927 19.5129 28.0988 19.8631 28.0404Z" fill="#F9F9F9"/>
<path d="M61.2787 47.2949L61.2528 47.3174C61.1918 47.3616 61.0609 47.4166 60.8827 47.4771C59.3344 47.7179 58.0399 47.9383 57.411 47.9668C54.5212 48.0976 46.7234 48.747 44.1705 48.6672L43.9376 48.6896C42.1447 47.5411 38.7109 48.5046 35.9129 48.8435C34.2221 48.7378 31.3712 48.5491 30.1441 48.2284C29.9088 48.0497 29.1569 45.7529 31.2317 45.1229C32.2046 44.8275 34.4982 44.0178 40.8358 43.9556C47.9866 43.8854 57.7628 44.2559 60.0449 45.3401C60.9491 45.7698 63.2621 46.8993 63.2795 47.3808C63.2795 47.3808 61.5178 47.2738 61.2787 47.2949Z" fill="#F9F9F9"/>
<path opacity="0.01" d="M27.2471 1.32242C27.8949 1.09189 28.5468 0.869571 29.2028 0.656143C31.5081 0.482688 33.8515 0.433038 36.1996 0.487103C33.1247 0.921608 30.1289 1.23152 27.2471 1.32242Z" fill="black"/>
<path opacity="0.01" fill-rule="evenodd" clip-rule="evenodd" d="M38.4414 28.1475C39.5463 28.7003 39.5463 28.7003 38.4414 28.1475Z" fill="black"/>
<path opacity="0.01" fill-rule="evenodd" clip-rule="evenodd" d="M39.2704 40.5807C36.9952 41.0648 35.0613 42.1705 33.4683 43.8962C31.1109 40.9553 31.9397 39.2976 35.9549 38.9229C37.0125 37.9995 37.0125 37.1705 35.9549 36.4362C35.0878 32.8893 36.3312 30.6795 39.6849 29.8052C40.8164 30.7111 41.0932 31.8161 40.5137 33.1207C39.6667 33.8286 38.9761 34.6574 38.4416 35.6074C38.6438 37.3066 38.9198 38.9643 39.2704 40.5807Z" fill="#101010"/>
<path opacity="0.01" fill-rule="evenodd" clip-rule="evenodd" d="M57.506 44.7253C57.5466 46.8795 58.3756 48.6757 59.9927 50.1131C59.2865 51.5454 58.4576 51.6838 57.506 50.5276C57.506 49.4227 56.9531 48.8698 55.8482 48.8698C55.9808 47.4616 55.8433 46.0797 55.4338 44.7253C55.2033 45.4846 54.789 46.0367 54.1905 46.3831C53.2596 45.3413 52.7076 45.6172 52.5327 47.212C51.7941 47.7177 50.9652 47.9936 50.046 48.0409C48.2233 47.0678 46.5655 47.4822 45.0726 49.2842C46.8771 50.7538 48.3964 52.5492 49.6314 54.6721C49.9075 54.1192 50.1844 53.5671 50.4604 53.0143C50.825 54.3206 51.5156 55.4264 52.5325 56.3298C51.9167 56.8951 51.3647 57.448 50.8747 57.9876C51.7037 57.9876 52.5325 57.9876 53.3613 57.9876C52.4662 59.2683 52.4662 60.5116 53.3613 61.7176C51.8776 63.1549 50.2199 64.3982 48.3879 65.4476C46.5304 65.0066 45.287 63.9017 44.6579 62.1321C43.3209 63.062 42.3536 62.6476 41.7568 60.8887C44.4672 59.6246 45.2962 57.6909 44.2434 55.0866C44.8676 53.854 45.558 53.7156 46.3156 54.6721C46.9222 52.8434 46.3694 51.4627 44.6578 50.5277C44.1646 49.3681 44.303 48.2631 45.0722 47.2122C44.778 46.365 44.225 45.8121 43.4144 45.5543C42.6883 45.6628 42.1353 45.3869 41.7565 44.7255C42.8614 43.6206 42.8614 42.5149 41.7565 41.4099C42.8407 40.4765 43.9465 40.4765 45.0722 41.4099C46.0984 41.6669 46.0984 42.0813 45.0722 42.6532C46.7731 43.4241 48.0164 44.6674 48.8022 46.3832C48.9431 44.3251 48.2518 42.5296 46.73 40.9953C48.8255 39.9045 48.8255 38.9372 46.73 38.0942C46.1879 36.7555 45.7735 35.3739 45.4866 33.9498C44.3278 33.4931 43.2221 33.2171 42.1711 33.1209C41.9132 31.4168 41.4988 29.7589 40.9277 28.1476C41.1831 27.4777 41.5975 26.925 42.1711 26.4897C43 27.5946 43.8288 27.5946 44.6577 26.4897C46.4539 28.2859 48.2493 30.0813 50.0455 31.8775C49.6129 32.3426 49.337 32.8954 49.2167 33.5353C50.6987 35.6515 51.6661 37.9997 52.1177 40.5809C52.9873 39.7379 53.9545 39.5995 55.0189 40.1665C55.4242 41.9975 56.2537 43.5168 57.506 44.7253ZM54.1905 46.3831C53.6376 46.6592 53.0855 46.9361 52.5327 47.212C52.7076 45.6172 53.2596 45.3413 54.1905 46.3831ZM52.5327 47.212C52.1522 50.9627 51.3233 51.2387 50.046 48.0409C50.9652 47.9936 51.7941 47.7177 52.5327 47.212ZM57.506 50.5276C57.506 49.4227 56.9531 48.8698 55.8482 48.8698C56.1242 49.6986 56.6771 50.2516 57.506 50.5276ZM50.8747 57.9876C50.8035 58.8132 51.0804 59.5033 51.7038 60.0595C50.2458 60.8951 49.2784 62.1384 48.8026 63.7896C48.5764 62.2736 47.8851 61.0302 46.7304 60.0595C47.6563 58.4913 49.038 57.8011 50.8747 57.9876Z" fill="#161616"/>
<path opacity="0.01" fill-rule="evenodd" clip-rule="evenodd" d="M35.955 36.4365C35.2081 38.2824 33.8272 39.1114 31.8105 38.9232C31.8105 38.0943 31.8105 37.2654 31.8105 36.4365C33.3522 35.9632 34.7341 35.9632 35.955 36.4365Z" fill="black"/>
<path opacity="0.01" fill-rule="evenodd" clip-rule="evenodd" d="M45.0723 41.4097C43.9467 40.4764 42.8408 40.4764 41.7567 41.4097C42.8615 42.5146 42.8615 43.6203 41.7567 44.7253C42.1355 45.3867 42.6884 45.6627 43.4145 45.5542C41.3024 47.7201 39.3679 47.5816 37.6123 45.1397C38.2522 44.1276 39.0811 43.2987 40.099 42.6531C39.4757 42.0969 39.1988 41.4064 39.2701 40.5809C41.5993 39.19 43.5331 39.4659 45.0723 41.4097Z" fill="#030303"/>
<path opacity="0.01" fill-rule="evenodd" clip-rule="evenodd" d="M58.3348 44.7253C58.0587 44.7253 57.7819 44.7253 57.5059 44.7253C57.782 42.5147 58.0588 42.5147 58.3348 44.7253Z" fill="black"/>
<path opacity="0.01" fill-rule="evenodd" clip-rule="evenodd" d="M58.335 44.7251C59.5601 44.5078 60.6649 44.7839 61.6505 45.5539C61.0976 45.8299 60.5455 46.1069 59.9927 46.3828C58.9872 46.1781 58.4345 45.6252 58.335 44.7251Z" fill="black"/>
<path opacity="0.012" fill-rule="evenodd" clip-rule="evenodd" d="M52.5326 47.2119C52.1521 50.9626 51.3232 51.2386 50.0459 48.0408C50.9651 47.9935 51.7941 47.7176 52.5326 47.2119Z" fill="#484848"/>
<path opacity="0.016" fill-rule="evenodd" clip-rule="evenodd" d="M55.8477 48.8696C56.1238 49.6985 56.6766 50.2515 57.5056 50.5275C57.9516 51.8677 58.2276 53.2494 58.3345 54.6718C56.7172 54.8982 55.474 54.3461 54.6044 53.0141C54.4462 54.8443 54.0317 56.502 53.3611 57.9874C53.4905 55.8606 53.2135 53.7883 52.5322 51.7708C52.9549 50.2572 53.6462 50.1189 54.6044 51.3563C54.7967 50.3311 55.2112 49.5019 55.8477 48.8696Z" fill="#1E1E1E"/>
<path d="M20.9981 25.5139L21.0327 25.4602C21.1143 25.354 21.2912 25.218 21.5327 25.0658C23.6426 24.4001 25.406 23.7993 26.2659 23.6885C30.2177 23.1793 40.8683 21.1227 44.3677 21.1227L44.6856 21.0543C47.19 23.5691 51.8511 21.1038 55.6682 20.1221C55.9484 20.1368 56.2262 20.1541 56.5011 20.1745C54.9614 22.3172 53.9393 24.8549 53.6459 27.8062C53.591 28.359 53.3558 32.1237 53.4995 32.6339C52.644 32.9531 51.0639 33.0305 49.8575 32.7133C48.9752 32.4814 47.9986 31.6073 47.9459 31.4384C46.0185 32.9929 39.5686 32.5535 39.2582 30.8164C37.9223 31.7801 35.4818 32.4343 33.796 31.8277C33.2927 31.6393 32.0414 31.3341 31.7248 30.9926C31.5061 30.7568 31.6238 29.9096 31.4255 30.1562C31.1257 30.529 29.6872 33.0468 29.091 33.0834C28.0053 33.1499 25.943 30.8896 25.7832 29.7365C25.0042 30.392 23.9086 31.6162 22.5013 30.9274C22.1094 30.7356 22.2958 30.1175 21.8683 29.9768C20.8929 29.6557 19.6927 30.6698 19.452 29.2099C19.2787 28.1592 20.7184 26.9683 20.674 25.8612C20.674 25.8612 20.6717 25.5796 20.9981 25.5139Z" fill="#F9F9F9"/>
<path d="M53.9314 22.9107C50.815 22.9301 49.7875 26.3272 49.5319 28.7959C49.192 29.3398 48.8703 29.8955 48.6147 30.4417C48.5246 30.3416 48.5236 30.2232 48.5236 30.2232L48.5196 29.7459C48.5012 27.5533 48.7614 23.202 44.7632 23.1967C41.3761 21.7232 40.4394 26.7811 39.7785 29.1774C39.7783 29.2198 39.7782 29.2619 39.7779 29.3036C39.5723 29.6872 39.3888 30.0728 39.2551 30.4359C39.1048 29.8443 38.8803 29.2605 38.6062 28.6897C38.0359 25.935 36.4298 21.2948 34.0548 24.9839C33.0504 26.4641 33.4441 28.2926 32.5322 29.7664L32.2362 30.2262C32.2017 30.298 32.1339 30.3785 32.0004 30.4193C31.9477 30.44 31.8855 30.4538 31.8138 30.453C31.6738 30.0708 31.5123 29.6509 31.3215 29.2375C31.25 26.2306 30.8047 21.3439 27.5168 26.4371C27.5056 26.4606 27.4907 26.485 27.4711 26.5086C27.0072 27.2444 26.7992 27.9012 26.7064 28.6137C26.6386 28.5853 26.5606 28.5694 26.4778 28.5699C26.2906 28.571 26.1299 28.6558 26.0557 28.7773L25.7516 29.2496L25.878 29.2969C25.8183 29.3765 25.7644 29.4555 25.7147 29.5345C25.7085 28.3158 25.9126 27.3361 26.6164 26.2151C26.6335 24.0292 25.2668 25.4255 24.2587 27.1521C24.1371 27.1566 24.0277 27.1965 23.9477 27.2585L23.3267 27.7397L23.4897 27.8624C22.6878 28.6604 22.5695 29.6591 22.5732 30.7225C22.2762 30.6496 22.274 30.3859 22.274 30.3859L22.27 29.9086C22.282 29.0557 22.6488 27.5574 23.266 26.3218C20.9704 24.8786 20.6535 27.6488 19.7502 29.0519L19.7661 29.4468C19.7661 29.4468 19.7691 29.8048 19.3003 29.8077C19.2429 29.808 19.1925 29.803 19.1482 29.7939C18.8833 29.8783 18.6555 29.7068 18.6555 29.7068C17.2739 28.6618 17.4258 27.3723 16.958 26.3582C21.1659 25.4773 24.6934 23.8913 26.2656 23.6887C30.2173 23.1795 40.868 21.1229 44.3673 21.1229L44.6853 21.0545C47.4225 23.8031 52.7362 20.6025 56.7084 19.8921C55.9849 20.8541 55.3673 21.8983 54.8756 23.0263C54.5918 22.9456 54.2781 22.9046 53.9314 22.9107Z" fill="#F9F9F9"/>
<path d="M49.1704 53.8869C48.946 53.6787 48.7477 53.4283 48.5762 53.1468C48.5353 53.2748 48.4898 53.3908 48.44 53.4926C48.1627 54.0591 47.6575 54.672 47.077 55.0073C46.7076 55.0781 46.3221 55.1527 45.9247 55.2287C45.6806 55.1712 45.4398 55.0378 45.2119 54.8081L45.337 55.0089C45.337 55.0089 44.8723 55.048 44.8375 54.6687C44.8318 54.6066 44.8395 54.5537 44.8563 54.5085C43.7637 53.8053 43.2039 52.6527 43.0162 51.4582C42.1717 54.1712 38.2018 55.6833 37.7104 51.8158C37.5298 51.7769 37.4288 51.6409 37.4288 51.6409C35.6583 49.1691 38.4707 44.0709 42.0984 46.7297C42.6202 47.1122 42.6184 48.8461 42.9814 49.7888C43.0068 49.5593 43.0441 49.336 43.092 49.1219C43.2617 48.3639 42.2875 46.8956 43.356 46.3142C44.0496 45.9368 45.5596 46.3265 46.4064 46.2552C47.2181 46.2263 47.8052 46.8102 48.1987 47.6684C48.8053 46.2526 50.0667 45.4288 52.045 46.3167C52.3029 47.6215 52.6346 48.9008 53.0359 50.1511C53.1954 50.688 53.345 51.2351 53.486 51.7914C53.3736 52.8276 53.0579 53.7362 52.3698 54.2276C51.5629 54.3115 50.7895 54.3978 50.0645 54.4942C49.8077 54.4345 49.5329 54.3519 49.239 54.2444L49.1704 53.8869Z" fill="#F9F9F9"/>
<path d="M32.5495 48.8608C33.3853 47.138 34.7805 45.3357 36.3172 45.8874C36.5833 45.9829 37.5916 50.6694 37.6511 51.1966C38.0439 55.4744 33.0575 55.708 32.1653 52.0959C31.8479 52.532 31.4636 52.9366 31.0606 53.2575C29.765 51.9719 28.607 50.473 27.4775 49.1265C29.0494 48.1577 31.1559 47.7741 32.5495 48.8608Z" fill="#F9F9F9"/>
<path d="M31.4884 51.544L31.7479 51.0199C31.8106 50.8853 31.9626 50.7831 32.1481 50.7675C32.4047 50.7459 32.6283 50.8982 32.6475 51.1077C32.6534 51.1714 32.6397 51.2331 32.6105 51.2886L32.4744 51.5635C32.9524 53.9288 35.9612 55.4649 37.4757 52.3453L37.6949 51.6289C37.7391 51.469 37.9055 51.3415 38.1146 51.3239C38.3687 51.3025 38.5905 51.4517 38.6134 51.6581L38.6758 52.2048C39.9003 54.1058 41.5014 54.52 42.7567 51.8698L43.0163 51.3457C43.079 51.2111 43.231 51.109 43.4164 51.0933C43.6731 51.0717 43.8967 51.2241 43.916 51.4335L43.9614 51.9288C44.987 53.6009 46.8002 55.0134 47.7106 52.1204L47.6792 51.6185C47.6655 51.4123 47.8563 51.2294 48.1097 51.2081C48.2952 51.1924 48.4635 51.2677 48.5498 51.3897L48.9008 51.8624C50.7011 53.1233 53.2622 54.6246 52.9462 51.1833L52.8766 50.4247C52.8656 50.3048 52.9239 50.1922 53.0239 50.1138C53.0279 50.1262 53.0319 50.1386 53.0359 50.1511C53.1987 50.6991 53.3511 51.2577 53.4946 51.8259C53.5541 52.5657 53.6258 53.3277 53.7133 54.0915C52.2518 54.2372 50.8674 54.3774 49.6389 54.5527C46.3989 55.0151 38.4119 57.0626 35.2788 56.0501C33.4557 55.461 31.9249 54.1916 30.542 52.7251C30.9338 52.3909 31.2654 51.9941 31.4884 51.544Z" fill="#F9F9F9"/>
<path d="M53.3955 52.6315C53.3556 52.7598 53.3111 52.876 53.2621 52.9781C53.2315 53.0417 53.1981 53.1058 53.1621 53.1701C53.2265 52.5022 53.2626 51.7479 53.2703 50.9707C53.4689 51.6954 53.6512 52.4372 53.8202 53.1936C53.6646 53.026 53.5229 52.8372 53.3955 52.6315Z" fill="#F9F9F9"/>
<path d="M53.0342 54.1593C53.1795 53.3037 53.2582 52.1642 53.2702 50.9707C53.5441 51.9708 53.7872 53.0033 54.0071 54.062C53.6789 54.0947 53.3543 54.127 53.0342 54.1593Z" fill="#F9F9F9"/>
<path d="M54.9089 46.6082C55.1327 48.4164 55.7683 52.701 54.5855 53.9081C54.1047 53.9766 53.6264 54.0364 53.1566 54.0926C53.1536 54.0915 53.1506 54.0903 53.1475 54.0891C53.0055 51.313 52.7807 48.5582 52.4297 45.8716C52.9801 45.3498 53.7961 45.4365 54.9089 46.6082Z" fill="#F9F9F9"/>
<path d="M54.9057 50.8376L54.8386 50.0789C54.8201 49.8695 54.9383 49.686 55.1027 49.6692C55.2216 49.657 55.332 49.7352 55.3911 49.8586L55.6115 50.2985C57.0475 51.7699 59.142 53.4442 58.7857 49.4197L58.7185 48.6611C58.7 48.4516 58.8182 48.2681 58.9826 48.2512C59.1471 48.2344 59.2954 48.3906 59.314 48.6001L59.3553 49.0665C59.8323 50.109 60.3561 51.1425 61.2213 51.6034C59.101 53.2887 55.9701 53.7563 53.1479 54.0936C53.115 53.449 53.0776 52.8056 53.0352 52.1638C54.0852 53.1389 55.153 53.6306 54.9057 50.8376Z" fill="#F9F9F9"/>
<path d="M63.8701 47.242C63.8796 47.2401 63.8895 47.2386 63.8998 47.2376C63.9209 47.2354 63.9407 47.2353 63.9592 47.237C63.9613 47.2689 63.9635 47.3007 63.9657 47.3326C63.9658 47.3543 63.966 47.3759 63.9662 47.3975C63.9358 47.3442 63.9038 47.2923 63.8701 47.242Z" fill="#F9F9F9"/>
<path d="M59.7601 52.5093C59.6567 52.5199 59.5852 52.481 59.5358 52.4258C59.484 52.3745 59.4404 52.2922 59.4288 52.1605C59.4282 52.1536 59.4276 52.1468 59.4272 52.1401C59.3907 51.6757 59.1973 51.0627 59.0048 50.4068C58.959 50.774 58.8499 51.1222 58.6655 51.4372C58.6922 51.4648 58.7181 51.5014 58.7421 51.5493C58.9052 51.8749 58.654 52.0718 58.654 52.0718C54.5896 55.2568 55.4102 47.2396 55.518 44.8354C56.6573 45.1286 57.9328 46.4967 58.5883 48.0309C58.6104 47.6866 58.694 47.3695 58.8683 47.099C59.3651 46.3282 62.9973 45.5712 63.5887 45.8502C63.7094 46.0795 63.8189 46.3008 63.9178 46.5144C63.9308 46.7865 63.9467 47.0592 63.9655 47.3323C63.9679 47.6621 63.9754 47.9914 63.9878 48.3203C63.1763 49.5464 62.324 50.7089 61.2751 51.5598C60.8192 51.9297 60.3152 52.2419 59.7767 52.5075L59.7601 52.5093Z" fill="#F9F9F9"/>
<path d="M16.4056 27.3852C14.5259 27.5371 12.8927 26.2636 10.7695 26.2704C18.3904 26.3309 24.7487 24.1834 29.4425 22.3823C32.1138 21.4978 34.6845 20.2873 37.1396 19.0541C38.5526 18.5325 40.009 18.1566 41.6712 18.4456C44.7771 18.9857 48.9028 21.3844 52.3104 20.6908C54.8578 20.1722 58.3047 18.5049 60.778 17.5738C61.1111 17.5394 61.4447 17.5221 61.7769 17.5205C63.833 18.5524 66.0842 19.3618 68.4407 19.9419C69.1751 20.6653 71.493 19.5607 71.3714 20.3368C71.2226 21.2866 68.8442 25.3588 67.04 25.9419C64.0048 26.9228 55.3448 27.9986 51.1655 27.9867C47.8341 28.4124 43.425 27.4189 40.9193 27.485C37.0708 27.5865 35.3132 28.5879 30.1239 28.5879C26.0385 28.5879 24.6534 29.0551 20.6014 29.1382L16.4056 27.3852Z" fill="#C9816E"/>
<path d="M40.4197 17.5714C41.8137 17.7102 48.8305 19.6635 50.1534 20.168L50.7759 20.4066C53.5897 19.2211 56.3933 17.9775 59.2512 16.8776L59.5603 16.7139C59.8081 16.5195 60.0893 16.4678 60.3349 16.4743C60.5766 16.46 60.8561 16.5012 61.1114 16.6808C63.6109 17.8452 65.4179 18.3624 68.0342 19.3653L70.2266 19.8514C70.2266 19.8514 70.3925 20.1025 70.3244 20.7139C66.9839 19.8872 63.9349 19.1732 60.4326 17.6816C57.7559 18.4971 54.0644 21.3784 51.3027 21.5708C47.7056 21.8216 43.8582 19.2489 40.5246 18.7491C38.6209 18.4636 36.662 19.7013 34.9403 20.1413C30.4933 21.846 22.5908 25.3051 16.9199 26.0939C17.0667 25.9475 37.2958 16.6121 40.4197 17.5714Z" fill="#AF7060"/>
<path d="M49.843 48.1694C50.4904 47.8829 57.9436 45.5251 58.6767 45.1558C60.0536 44.6917 62.8641 45.98 63.776 44.0731C65.4174 40.6409 69.5781 22.0378 70.0093 21.3613C71.4478 19.1048 65.546 47.2948 63.2084 50.5807C61.6189 52.8147 58.5592 53.8704 57.6284 54.8107C55.2002 56.7647 51.6008 57.1183 49.4434 57.2658C45.3168 57.548 37.2982 58.1362 34.0439 56.9973C28.6266 55.1015 25.1285 48.2074 22.6023 45.8161C22.4711 45.6919 13.3055 27.744 12.8928 27.1233C12.5758 26.6466 14.7599 27.3752 14.7599 27.3752C14.7599 27.3752 25.7735 45.7516 26.5347 45.6974C26.5347 45.6974 28.9159 46.9584 33.6761 46.1702C33.6761 46.1702 46.2226 49.5109 49.843 48.1694Z" fill="#DC8D79"/>
<path d="M35.7778 57.6807C32.8166 57.6735 31.1766 56.4259 30.7341 56.1023C27.9241 54.0472 22.4581 45.483 21.9746 45.087C23.43 45.0604 29.0985 55.1447 34.5504 56.6812C39.1396 56.7124 41.3359 57.271 45.9365 57.4368C45.759 57.4827 39.0424 57.6807 35.7778 57.6807Z" fill="#AF7060"/>
<path d="M59.6596 54.5569C56.3298 56.0152 52.3712 57.7891 51.9648 57.1485C52.2855 56.9953 54.6623 56.1478 54.9756 55.963C57.447 55.203 62.3078 51.8303 63.0622 51.5391C61.5997 52.7395 61.8942 53.5783 59.6596 54.5569Z" fill="#AF7060"/>
<path d="M32.5589 46.5566C25.8059 47.306 25.1221 46.249 25.1221 46.249C25.1221 46.249 31.8445 46.0745 31.9155 46.0837C43.4678 47.5206 43.8816 48.9738 51.3928 47.7536C53.0194 47.2144 58.5711 44.8807 58.5893 44.8784C59.0534 45.0833 66.6255 45.2163 64.6628 45.6366C63.9894 45.7808 60.6923 46.0964 58.609 46.4482C58.609 46.4482 52.3459 48.9252 50.5407 49.151C43.2056 50.0681 32.5589 46.5566 32.5589 46.5566Z" fill="#AF7060"/>
<path d="M62.5042 26.7038C60.8402 27.4072 51.992 28.5049 50.2471 29.0074C42.5586 30.133 37.5614 27.6365 37.5614 27.6365C25.8066 31.2297 11.6587 26.7535 10.8097 26.6113C10.62 26.5796 17.1797 27.3816 18.351 27.3237C22.326 27.1274 27.8377 28.8341 29.8303 27.9578C31.4414 27.7339 37.7297 26.6293 37.8007 26.6373C41.4422 26.6722 46.6239 27.4402 50.6452 27.4896C54.8321 27.5411 54.035 26.8631 57.8663 26.3225C59.4929 25.8541 63.8678 24.7096 63.886 24.7077C64.1323 24.8021 66.0162 25.6101 67.3444 24.8855C69.1687 23.8902 71.1107 20.6865 71.1107 20.6865C71.1107 20.6865 70.4281 25.6194 66.4771 26.8895L62.5042 26.7038Z" fill="#AF7060"/>
</svg>
