<svg width="83" height="73" viewBox="0 0 83 73" fill="none" xmlns="http://www.w3.org/2000/svg">
<path d="M79.6575 30.5812C78.0396 38.5567 74.4319 52.5691 71.4824 60.1211C70.9688 61.4363 70.5711 62.9345 70.2418 64.5246C54.6983 72.6123 33.5962 75.4998 17.6408 69.5624C4.37055 57.5164 -3.48641 33.7984 3.11977 18.1213C3.72023 16.6963 4.42075 15.377 5.21101 14.1574C12.9645 9.57041 21.0749 4.87027 29.9478 1.71262C32.8271 1.62186 35.8203 1.31213 38.8926 0.87793C50.4047 1.14302 62.028 3.90197 69.7904 6.76374C72.2013 7.59637 74.4555 8.61702 76.5863 9.79296C78.3954 11.5772 80.2607 13.2905 82.3105 14.681C81.8133 19.4148 81.2324 24.2812 79.6575 30.5812Z" fill="#F8BC99"/>
<path d="M82.4803 23.1052C80.0264 35.6282 73.6334 51.2818 71.1494 63.8199C71.1494 63.8199 72.5361 50.2793 74.8269 43.5739C77.5777 35.3217 78.4184 26.8101 81.1093 18.4417C81.1093 16.9844 81.242 15.5242 81.4442 14.063C81.8699 14.3775 82.303 14.6789 82.745 14.965C82.6062 17.6719 82.4914 20.3844 82.4803 23.1052Z" fill="#95725D"/>
<path d="M37.7825 56.3524C38.6135 56.164 39.3019 56.385 40.2617 56.4301C40.5268 56.2507 40.9005 56.5037 41.2338 56.3524C43.6763 56.2396 46.112 56.0676 48.6133 56.0676C49.895 56.0676 49.6135 56.104 50.8814 56.3112C48.3243 55.499 51.52 56.0657 51.5224 56.0676L51.9762 56.3112C51.9675 55.9313 53.4008 56.3357 53.5576 56.3524L53.0702 56.9019C53.2603 57.024 53.3918 57.2862 53.3918 57.5901C53.3918 57.894 53.2603 58.1564 53.0702 58.2784L52.6428 58.5678C51.523 61.4423 47.3229 61.0158 45.2405 61.0158C44.5353 61.0158 43.8555 60.9268 43.1909 60.7838C40.5359 60.8697 37.7553 60.6959 35.7765 58.8614C34.1919 58.4588 34.8748 57.6763 34.1846 56.6547C35.5498 56.6547 35.2864 56.6547 35.638 56.3112C36.3965 56.3816 37.1344 56.1859 37.7825 56.3524Z" fill="#DEA889"/>
<path d="M33.9725 56.5503C34.2277 56.5503 34.483 56.5503 34.7382 56.5503C39.5369 54.9975 46.4646 55.8319 51.5122 55.871C52.1408 56.0416 52.8172 56.0999 53.4797 56.0999L53.5744 56.1587L53.5895 56.1219L54.4174 56.3465C54.5608 56.3824 54.6846 56.4548 54.7728 56.5502C54.4917 56.5502 54.2106 56.5502 53.9295 56.5502C47.0633 56.5507 40.1752 56.748 33.2891 56.7759L33.9725 56.5503Z" fill="#95725D"/>
<path opacity="0.01" d="M29.9473 1.70889C30.5946 1.47855 31.2458 1.25643 31.9013 1.04319C34.2046 0.869881 36.546 0.820274 38.892 0.874292C35.8198 1.30842 32.8266 1.61807 29.9473 1.70889Z" fill="black"/>
<path opacity="0.01" fill-rule="evenodd" clip-rule="evenodd" d="M41.1328 28.5107C42.2504 29.07 42.2504 29.07 41.1328 28.5107Z" fill="black"/>
<path opacity="0.01" fill-rule="evenodd" clip-rule="evenodd" d="M41.9606 40.9332C39.6873 41.4169 37.7551 42.5216 36.1634 44.2459C33.8081 41.3075 34.6362 39.6512 38.6479 39.2768C39.7046 38.3542 39.7046 37.526 38.6479 36.7922C37.7815 33.2485 39.0238 31.0406 42.3746 30.167C43.5052 31.0721 43.7817 32.1761 43.2028 33.4797C42.3565 34.187 41.6665 35.015 41.1324 35.9642C41.3345 37.662 41.6102 39.3182 41.9606 40.9332Z" fill="#101010"/>
<path opacity="0.01" fill-rule="evenodd" clip-rule="evenodd" d="M60.1802 45.0742C60.2207 47.2266 61.049 49.0213 62.6647 50.4574C61.9591 51.8885 61.1309 52.0268 60.1802 50.8715C60.1802 49.7676 59.6277 49.2152 58.5238 49.2152C58.6563 47.8082 58.5189 46.4275 58.1098 45.0743C57.8795 45.8329 57.4655 46.3845 56.8675 46.7307C55.9375 45.6897 55.3859 45.9654 55.2111 47.5588C54.4732 48.0641 53.645 48.3398 52.7266 48.387C50.9054 47.4147 49.2491 47.8288 47.7575 49.6293C49.5604 51.0976 51.0784 52.8914 52.3124 55.0124C52.5882 54.4601 52.8648 53.9084 53.1406 53.3561C53.505 54.6612 54.1949 55.7661 55.211 56.6688C54.5957 57.2336 54.0441 57.786 53.5546 58.3251C54.3828 58.3251 55.211 58.3251 56.0391 58.3251C55.1447 59.6047 55.1447 60.8469 56.0391 62.0519C54.5567 63.4879 52.9003 64.7302 51.07 65.7786C49.214 65.338 47.9717 64.2341 47.3432 62.466C46.0073 63.3952 45.0408 62.981 44.4445 61.2237C47.1526 59.9607 47.9809 58.0286 46.929 55.4266C47.5527 54.1951 48.2425 54.0568 48.9994 55.0124C49.6055 53.1854 49.0532 51.8058 47.343 50.8717C46.8502 49.713 46.9886 48.609 47.7571 47.559C47.4631 46.7125 46.9107 46.1601 46.1007 45.9026C45.3752 46.011 44.8227 45.7353 44.4443 45.0744C45.5482 43.9705 45.5482 42.8658 44.4443 41.7617C45.5275 40.8292 46.6324 40.8292 47.7571 41.7617C48.7824 42.0185 48.7824 42.4326 47.7571 43.004C49.4565 43.7743 50.6988 45.0165 51.4839 46.7308C51.6246 44.6744 50.934 42.8805 49.4134 41.3475C51.5071 40.2576 51.5071 39.2912 49.4134 38.449C48.8718 37.1114 48.4578 35.7309 48.1712 34.3081C47.0134 33.8518 45.9086 33.5761 44.8585 33.48C44.6008 31.7773 44.1868 30.1208 43.6162 28.5109C43.8713 27.8416 44.2854 27.2894 44.8585 26.8545C45.6867 27.9584 46.5148 27.9584 47.343 26.8545C49.1376 28.6491 50.9314 30.4429 52.7261 32.2376C52.2938 32.7023 52.0182 33.2546 51.898 33.894C53.3788 36.0083 54.3452 38.3545 54.7965 40.9335C55.6653 40.0912 56.6317 39.9529 57.6952 40.5194C58.1001 42.3488 58.9289 43.8668 60.1802 45.0742ZM56.8675 46.7307C56.3151 47.0065 55.7635 47.2831 55.2111 47.5588C55.3859 45.9654 55.9375 45.6897 56.8675 46.7307ZM55.2111 47.5588C54.8309 51.3063 54.0028 51.582 52.7266 48.387C53.645 48.3398 54.4732 48.0641 55.2111 47.5588ZM60.1802 50.8715C60.1802 49.7676 59.6277 49.2152 58.5238 49.2152C58.7996 50.0433 59.3519 50.5958 60.1802 50.8715ZM53.5546 58.3251C53.4834 59.15 53.7601 59.8395 54.3829 60.3952C52.9262 61.2301 51.9597 62.4723 51.4843 64.1221C51.2583 62.6074 50.5676 61.365 49.4139 60.3952C50.339 58.8283 51.7195 58.1388 53.5546 58.3251Z" fill="#161616"/>
<path opacity="0.01" fill-rule="evenodd" clip-rule="evenodd" d="M38.6231 36.7905C37.8813 38.6238 36.5098 39.4472 34.5068 39.2603C34.5068 38.4371 34.5068 37.6138 34.5068 36.7905C36.038 36.3205 37.4105 36.3205 38.6231 36.7905Z" fill="black"/>
<path opacity="0.01" fill-rule="evenodd" clip-rule="evenodd" d="M47.7582 41.7613C46.6336 40.8287 45.5286 40.8287 44.4455 41.7613C45.5494 42.8652 45.5494 43.97 44.4455 45.074C44.8239 45.7349 45.3764 46.0106 46.1018 45.9021C43.9916 48.0662 42.0587 47.9278 40.3047 45.488C40.944 44.4768 41.7722 43.6487 42.7892 43.0035C42.1665 42.4479 41.8898 41.7579 41.9611 40.9331C44.2883 39.5434 46.2203 39.8191 47.7582 41.7613Z" fill="#030303"/>
<path opacity="0.01" fill-rule="evenodd" clip-rule="evenodd" d="M61.0014 45.0595C60.728 45.0595 60.454 45.0595 60.1807 45.0595C60.454 42.8708 60.7281 42.8708 61.0014 45.0595Z" fill="black"/>
<path opacity="0.01" fill-rule="evenodd" clip-rule="evenodd" d="M61.0088 45.0737C62.2256 44.8579 63.3229 45.1322 64.3018 45.8969C63.7527 46.1711 63.2043 46.4461 62.6552 46.7202C61.6566 46.5169 61.1077 45.9678 61.0088 45.0737Z" fill="black"/>
<path opacity="0.012" fill-rule="evenodd" clip-rule="evenodd" d="M58.5238 49.2152C57.8878 49.847 57.4738 50.6753 57.2816 51.6997C56.3243 50.4633 55.6336 50.6015 55.2112 52.1138C55.892 54.1295 56.1685 56.2 56.0393 58.3251C55.2111 58.3251 54.3831 58.3251 53.5549 58.3251C54.0444 57.786 54.5959 57.2335 55.2113 56.6687C54.195 55.766 53.5052 54.6612 53.1409 53.356C52.865 53.9083 52.5885 54.46 52.3127 55.0124C51.0788 52.8914 49.5607 51.0976 47.7578 49.6292C49.2493 47.8287 50.9056 47.4145 52.7269 48.3869C54.003 51.582 54.8312 51.3063 55.2113 47.5587C55.7638 47.2829 56.3154 47.0063 56.8677 46.7306C57.4657 46.3843 57.8798 45.8328 58.11 45.0742C58.5191 46.4275 58.6564 47.8082 58.5238 49.2152ZM52.7269 48.3869C54.003 51.582 54.8312 51.3063 55.2113 47.5587C54.4735 48.064 53.6453 48.3397 52.7269 48.3869Z" fill="#484848"/>
<path opacity="0.016" fill-rule="evenodd" clip-rule="evenodd" d="M58.5235 49.2153C58.7994 50.0435 59.3517 50.596 60.1799 50.8717C60.6256 52.2108 60.9013 53.5914 61.0081 55.0125C59.3923 55.2386 58.1501 54.6871 57.2813 53.3562C57.1232 55.1848 56.7091 56.8411 56.0391 58.3253C56.1683 56.2002 55.8917 54.1297 55.2109 52.114C55.6333 50.6017 56.3239 50.4635 57.2813 51.6999C57.4734 50.6755 57.8875 49.8471 58.5235 49.2153Z" fill="#1E1E1E"/>
<path d="M32.96 31.1047C32.645 28.6746 32.218 26.2797 31.6846 23.9251C36.0813 22.7408 40.5116 21.5871 44.8569 21.7559C44.8569 21.7559 51.4635 26.0891 54.042 25.2273C58.8002 23.6368 61.8322 21.0636 64.1089 21.8494C65.3526 22.3941 72.7272 28.235 76.102 29.5546C74.9049 30.5972 77.6979 28.6196 64.2874 29.7926C54.0506 33.7004 54.8525 33.6273 51.6628 33.6044C48.4386 33.7475 38.919 32.183 32.96 31.1047Z" fill="#C9816E"/>
<path d="M45.6665 31.7384C46.428 31.7384 47.1702 31.8932 47.9008 32.097C48.7108 37.3806 50.0742 42.4869 51.9313 47.3578C43.5319 46.053 32.3177 50.7265 23.4587 43.2935C21.8282 41.9254 11.1277 34.1997 4.87639 34.1997L4.67072 34.0495L4.62383 34.1254L3.09797 33.5066C2.70523 33.3555 2.43359 33.0311 2.43359 32.6551C2.43359 32.1348 2.95351 31.7132 3.59477 31.7132H5.91735V31.7808C14.3597 30.3793 22.6772 30.4574 31.4646 30.4574C36.2464 30.4574 41.3833 30.0015 45.6665 31.7384Z" fill="#DC8D79"/>
<path d="M41.9183 22.1786C43.6432 22.6782 45.3679 23.1778 47.0927 23.6774C47.2397 27.3972 47.6588 31.0487 48.331 34.6134C46.7181 34.4055 45.0535 33.9975 43.2916 33.3235C30.7248 29.8574 20.2232 31.4837 7.44447 33.2307C7.36608 33.2625 7.28767 33.2943 7.20928 33.326L6.13856 33.4083C6.12803 33.4097 6.11759 33.4111 6.1069 33.4125C6.1069 33.4125 6.05093 33.42 5.96146 33.4219L5.91576 33.4253C5.91576 33.4253 5.86867 33.4254 5.7934 33.4177C5.56509 33.4017 5.25816 33.3374 5.03523 33.1291C4.88797 33.0022 4.77608 32.8206 4.75744 32.5612C4.7232 32.3029 4.79687 32.1091 4.91645 31.9641C5.09406 31.7289 5.38399 31.6247 5.60582 31.5785C5.6786 31.5608 5.72508 31.5546 5.72508 31.5546C6.05675 31.5098 6.38672 31.465 6.7151 31.4204C7.56587 31.0756 8.41664 30.7305 9.2674 30.3855C19.6568 26.1725 28.7814 22.1235 40.7534 22.1235C40.7534 22.1235 40.7819 22.1237 40.8295 22.1271L41.9183 22.1786Z" fill="#C9816E"/>
<path d="M42.2065 30.9347C44.1135 31.3767 46.0206 31.8187 47.9277 32.2606C48.0339 32.9434 48.1494 33.6231 48.274 34.2998C45.446 33.6445 41.9777 32.8409 39.6623 32.3043C39.6623 32.3043 39.6375 32.2985 39.5959 32.2855C39.3819 32.3406 39.2072 32.3407 39.2072 32.3407C33.2769 32.2585 26.2512 30.6623 20.1199 31.6878C14.7433 32.587 10.4321 33.3996 4.90137 33.5656C11.027 32.0756 17.6319 31.9449 23.4656 29.5414C28.761 29.46 34.2926 30.5537 39.2072 30.4571C39.2072 30.4571 39.3661 30.4572 39.5662 30.5047C39.9373 30.4092 40.3005 30.4933 40.3005 30.4933L42.2065 30.9347Z" fill="#AF7060"/>
<path d="M35.0231 48.0664C33.0989 47.4139 26.1938 42.6553 24.1436 42.1234C24.2521 40.4401 33.6074 42.9422 33.6074 41.2315C33.6074 38.0335 33.4151 34.8805 33.0411 31.7833C37.9644 32.2814 43.7798 32.8768 47.6129 33.0122C53.1438 34.1679 57.1246 35.0276 61.01 30.8829C62.4779 30.3938 65.1124 30.6647 66.9892 30.102C69.1797 29.4452 79.4016 29.641 77.9763 30.8829C77.4821 31.3135 71.8869 32.893 69.327 37.0033C66.1766 40.4012 62.8731 45.2451 58.5496 46.5923C55.454 47.557 54.149 45.3339 51.4066 45.6984C46.0163 46.4147 41.1316 48.282 35.0231 48.0664Z" fill="#DC8D79"/>
<path d="M64.4156 20.6257C65.8701 21.1549 67.0749 22.912 69.2209 24.5944C72.6884 27.3129 77.0288 30.2326 77.0018 30.4258C75.798 29.9032 70.9613 26.9587 67.8246 24.722C65.8458 23.3111 65.58 22.182 64.0587 22.1201C58.9569 21.9128 58.3712 24.7665 54.3009 27.432L50.4165 25.5321C47.1796 24.278 41.044 22.1508 40.8648 22.1652C38.1399 22.2387 18.0005 27.3185 17.9053 26.9269C22.6682 24.3989 38.4489 20.8227 40.6948 20.6267C41.9158 20.5203 41.0928 20.2568 42.1973 20.6667C44.9467 21.6871 48.6796 23.8327 51.5096 24.741L52.9219 25.588C56.7656 23.4931 61.1224 21.4352 63.432 20.3799L64.4156 20.6257Z" fill="#AF7060"/>
<path d="M66.4289 40.2131C66.2991 40.7268 63.9462 43.519 63.9462 43.519C63.9462 43.519 61.435 45.9563 58.2376 47.4957C55.739 48.0682 53.6123 46.3965 51.138 47.0354C45.1597 48.5792 37.8653 49.4459 32.8242 47.8611C32.8324 47.7404 28.8258 46.4637 25.7329 44.5477C20.7602 41.4672 13.072 36.3095 13.083 36.1147C15.1737 36.6792 21.596 40.892 27.0652 43.7669C28.7106 44.6318 31.6056 45.1841 33.2876 45.9535C37.4089 47.8388 48.0503 46.5802 50.8826 45.7485C53.1975 45.0686 55.0786 46.9633 57.8101 46.3416C61.1859 45.5733 63.7724 41.5928 66.4289 40.2131Z" fill="#AF7060"/>
<path d="M40.0398 33.1226C37.8415 32.8802 35.2434 32.4023 33.0825 32.0801C33.0077 31.4399 32.9252 30.802 32.835 30.1665C33.1089 30.1785 33.3872 30.1911 33.6703 30.2044C33.8006 30.2386 37.9403 30.9319 42.5528 31.9147C48.7742 33.2403 52.5665 33.486 54.3936 34.0098C52.2759 34.6325 47.3646 33.9304 40.0398 33.1226Z" fill="#AF7060"/>
<path d="M66.4424 29.0987C67.5055 29.1244 71.4121 29.2193 72.7505 29.3533C75.5749 29.636 76.8467 29.3001 76.6942 29.6486C76.524 30.0379 74.712 30.4944 72.1157 30.264C70.8928 30.1555 68.5499 30.5005 66.7909 30.3679C61.3864 30.1757 57.9752 35.1372 52.7471 33.8967C57.4287 32.8197 62.0181 28.8868 66.4424 29.0987Z" fill="#AF7060"/>
</svg>
