<svg width="83" height="73" viewBox="0 0 83 73" fill="none" xmlns="http://www.w3.org/2000/svg">
<path d="M79.1437 30.352C77.5245 38.3344 73.9136 52.3589 70.9616 59.9174C70.4475 61.2338 70.0494 62.7333 69.7199 64.3247C54.1629 72.4195 33.0426 75.3095 17.0734 69.3669C3.79166 57.3105 -4.07209 33.5719 2.5398 17.8813C3.14078 16.4551 3.84195 15.1347 4.6329 13.914C12.3931 9.32304 20.5105 4.61884 29.391 1.45846C32.2728 1.36762 35.2687 1.05763 38.3436 0.623047C49.8657 0.888362 61.4989 3.6497 69.2681 6.51395C71.6811 7.3473 73.9372 8.36883 76.0699 9.54578C77.8806 11.3316 79.7474 13.0464 81.799 14.4381C81.3014 19.1759 80.72 24.0466 79.1437 30.352Z" fill="#F8BC99"/>
<path d="M81.9686 22.8732C79.5127 35.4071 73.114 51.0743 70.6279 63.6231C70.6279 63.6231 72.0159 50.0709 74.3086 43.3597C77.0618 35.1004 77.9032 26.5814 80.5964 18.2058C80.5964 16.7472 80.7292 15.2857 80.9317 13.8232C81.3577 14.138 81.7912 14.4397 82.2336 14.726C82.0946 17.4353 81.9797 20.1502 81.9686 22.8732Z" fill="#95725D"/>
<path opacity="0.01" d="M29.3906 1.45865C30.0385 1.22812 30.6903 1.0058 31.3464 0.792373C33.6516 0.618919 35.995 0.569268 38.3431 0.623334C35.2682 1.05784 32.2724 1.36775 29.3906 1.45865Z" fill="black"/>
<path opacity="0.01" fill-rule="evenodd" clip-rule="evenodd" d="M40.585 28.2837C41.6899 28.8365 41.6899 28.8365 40.585 28.2837Z" fill="black"/>
<path opacity="0.01" fill-rule="evenodd" clip-rule="evenodd" d="M41.414 40.7169C39.1388 41.201 37.2049 42.3067 35.6118 44.0325C33.2544 41.0915 34.0833 39.4338 38.0985 39.0591C39.1561 38.1357 39.1561 37.3068 38.0985 36.5724C37.2314 33.0256 38.4747 30.8158 41.8284 29.9414C42.9599 30.8473 43.2367 31.9523 42.6573 33.257C41.8102 33.9648 41.1197 34.7937 40.5851 35.7436C40.7874 37.4429 41.0634 39.1006 41.414 40.7169Z" fill="#101010"/>
<path opacity="0.01" fill-rule="evenodd" clip-rule="evenodd" d="M59.6496 44.8615C59.6901 47.0157 60.5191 48.8119 62.1362 50.2493C61.43 51.6816 60.6011 51.8201 59.6496 50.6638C59.6496 49.5589 59.0966 49.006 57.9917 49.006C58.1243 47.5978 57.9868 46.2159 57.5773 44.8615C57.3469 45.6208 56.9325 46.1729 56.334 46.5194C55.4031 45.4775 54.8512 45.7534 54.6762 47.3482C53.9376 47.8539 53.1087 48.1298 52.1895 48.1771C50.3668 47.204 48.709 47.6184 47.2161 49.4204C49.0206 50.8901 50.54 52.6854 51.775 54.8083C52.0511 54.2554 52.3279 53.7033 52.6039 53.1505C52.9685 54.4568 53.6591 55.5626 54.6761 56.466C54.0603 57.0314 53.5082 57.5842 53.0182 58.1238C53.8472 58.1238 54.676 58.1238 55.5048 58.1238C54.6097 59.4045 54.6097 60.6478 55.5048 61.8538C54.0211 63.2911 52.3634 64.5344 50.5315 65.5838C48.674 65.1428 47.4305 64.0379 46.8014 62.2683C45.4644 63.1982 44.4971 62.7838 43.9003 61.0249C46.6107 59.7608 47.4397 57.827 46.3869 55.2227C47.0111 53.9902 47.7016 53.8518 48.4591 54.8083C49.0658 52.9797 48.513 51.5989 46.8013 50.6639C46.3081 49.5043 46.4465 48.3993 47.2157 47.3483C46.9215 46.5012 46.3685 45.9483 45.5579 45.6905C44.8318 45.7991 44.2788 45.5231 43.9001 44.8617C45.005 43.7568 45.005 42.6511 43.9001 41.5461C44.9843 40.6128 46.09 40.6128 47.2157 41.5461C48.2419 41.8031 48.2419 42.2176 47.2157 42.7895C48.9166 43.5604 50.16 44.8036 50.9458 46.5194C51.0866 44.4613 50.3954 42.6658 48.8735 41.1315C50.969 40.0407 50.969 39.0734 48.8735 38.2305C48.3314 36.8917 47.9171 35.5101 47.6302 34.086C46.4714 33.6293 45.3657 33.3534 44.3146 33.2572C44.0567 31.5531 43.6423 29.8952 43.0713 28.2838C43.3266 27.614 43.7411 27.0612 44.3146 26.626C45.1436 27.7309 45.9724 27.7309 46.8012 26.626C48.5974 28.4222 50.3928 30.2175 52.1891 32.0137C51.7564 32.4788 51.4805 33.0316 51.3602 33.6716C52.8422 35.7877 53.8096 38.1359 54.2612 40.7172C55.1308 39.8741 56.098 39.7357 57.1624 40.3027C57.5677 42.1337 58.3972 43.653 59.6496 44.8615ZM56.334 46.5194C55.7811 46.7954 55.229 47.0723 54.6762 47.3482C54.8512 45.7534 55.4031 45.4775 56.334 46.5194ZM54.6762 47.3482C54.2957 51.0989 53.4668 51.3749 52.1895 48.1771C53.1087 48.1298 53.9376 47.8539 54.6762 47.3482ZM59.6496 50.6638C59.6496 49.5589 59.0966 49.006 57.9917 49.006C58.2677 49.8349 58.8206 50.3878 59.6496 50.6638ZM53.0182 58.1238C52.947 58.9494 53.2239 59.6395 53.8473 60.1957C52.3893 61.0313 51.4219 62.2746 50.9461 63.9258C50.7199 62.4098 50.0286 61.1663 48.874 60.1957C49.7999 58.6275 51.1815 57.9373 53.0182 58.1238Z" fill="#161616"/>
<path opacity="0.01" fill-rule="evenodd" clip-rule="evenodd" d="M38.0985 36.5727C37.3517 38.4186 35.9708 39.2476 33.9541 39.0594C33.9541 38.2305 33.9541 37.4016 33.9541 36.5727C35.4958 36.0995 36.8776 36.0995 38.0985 36.5727Z" fill="black"/>
<path opacity="0.01" fill-rule="evenodd" clip-rule="evenodd" d="M47.2159 41.546C46.0902 40.6126 44.9843 40.6126 43.9002 41.546C45.0051 42.6508 45.0051 43.7565 43.9002 44.8615C44.279 45.523 44.8319 45.799 45.558 45.6904C43.446 47.8563 41.5114 47.7178 39.7559 45.2759C40.3957 44.2638 41.2247 43.435 42.2425 42.7893C41.6193 42.2331 41.3423 41.5426 41.4137 40.7171C43.7429 39.3262 45.6766 39.6021 47.2159 41.546Z" fill="#030303"/>
<path opacity="0.01" fill-rule="evenodd" clip-rule="evenodd" d="M60.4784 44.8616C60.2023 44.8616 59.9254 44.8616 59.6494 44.8616C59.9255 42.651 60.2024 42.651 60.4784 44.8616Z" fill="black"/>
<path opacity="0.01" fill-rule="evenodd" clip-rule="evenodd" d="M60.4786 44.8613C61.7037 44.644 62.8085 44.9202 63.7941 45.6902C63.2412 45.9662 62.6891 46.2431 62.1363 46.519C61.1308 46.3143 60.5781 45.7615 60.4786 44.8613Z" fill="black"/>
<path opacity="0.012" fill-rule="evenodd" clip-rule="evenodd" d="M57.9912 49.0059C57.3546 49.6383 56.9402 50.4672 56.7478 51.4925C55.7897 50.255 55.0984 50.3934 54.6757 51.907C55.357 53.9244 55.6339 55.9967 55.5046 58.1236C54.6756 58.1236 53.8468 58.1236 53.0179 58.1236C53.5078 57.5841 54.0598 57.0311 54.6757 56.4658C53.6586 55.5624 52.9682 54.4566 52.6036 53.1502C52.3275 53.7031 52.0507 54.2552 51.7746 54.8081C50.5397 52.6853 49.0203 50.8899 47.2158 49.4202C48.7086 47.6181 50.3663 47.2037 52.1892 48.1769C53.4664 51.3747 54.2954 51.0988 54.6758 47.348C55.2287 47.072 55.7808 46.7951 56.3336 46.5191C56.9321 46.1725 57.3465 45.6206 57.577 44.8613C57.9865 46.2158 58.1238 47.5977 57.9912 49.0059ZM52.1892 48.1769C53.4664 51.3747 54.2954 51.0988 54.6758 47.348C53.9373 47.8537 53.1084 48.1296 52.1892 48.1769Z" fill="#484848"/>
<path opacity="0.016" fill-rule="evenodd" clip-rule="evenodd" d="M57.9913 49.0059C58.2674 49.8347 58.8201 50.3877 59.6491 50.6637C60.0951 52.0039 60.3711 53.3857 60.478 54.808C58.8608 55.0344 57.6175 54.4823 56.748 53.1503C56.5897 54.9805 56.1753 56.6383 55.5047 58.1237C55.634 55.9968 55.3571 53.9245 54.6758 51.907C55.0985 50.3935 55.7898 50.2551 56.7479 51.4925C56.9402 50.4673 57.3547 49.6382 57.9913 49.0059Z" fill="#1E1E1E"/>
<path d="M41.6856 58.6816L41.7273 58.6623C41.7415 58.672 41.7557 58.6815 41.7697 58.6908C42.1718 58.7368 42.5634 58.8167 42.9481 58.9172C43.5488 58.7788 44.0978 58.3496 44.7917 58.3827C44.9833 58.2509 45.2021 58.1289 45.443 58.0178C47.2086 57.935 48.9693 57.8086 50.7775 57.8086C51.704 57.8086 52.6236 58.1435 53.5401 58.2957C53.5419 58.2969 53.5436 58.2981 53.5453 58.2994L53.5463 58.2968C53.6596 58.3156 53.7728 58.3314 53.8861 58.3435L53.9992 58.4213C54.1366 58.511 54.2317 58.7036 54.2317 58.9268C54.2317 59.15 54.1367 59.3428 53.9992 59.4324L53.6902 59.6451C52.8807 61.7564 49.8446 61.4431 48.3394 61.4431C47.8296 61.4431 47.3381 61.3777 46.8577 61.2726C44.9385 61.3357 42.9285 61.208 41.498 59.8607L41.4524 59.9863L41.1332 59.7667C41.0971 59.766 41.0609 59.7656 41.0245 59.7656C41.0245 59.7656 40.6182 59.7656 40.6182 59.2064C40.6182 58.6472 41.0245 58.6472 41.0245 58.6472C41.0804 58.6472 41.1359 58.648 41.1912 58.6494C41.2032 58.648 41.2154 58.6472 41.2277 58.6472H41.6342V58.6764C41.6514 58.678 41.6684 58.6798 41.6856 58.6816Z" fill="#DEA889"/>
<path d="M39.8837 58.3951C40.0682 58.3951 40.2527 58.3951 40.4372 58.3951C43.9061 56.4986 48.914 57.5177 52.5628 57.5654C53.0172 57.7739 53.5062 57.845 53.9852 57.845L54.0536 57.9168L54.0644 57.8719L54.6629 58.1463C54.7666 58.1901 54.8561 58.2785 54.9198 58.3951C54.7166 58.3951 54.5134 58.3951 54.3102 58.3951C49.3468 58.3957 44.3675 58.6368 39.3896 58.6708L39.8837 58.3951Z" fill="#95725D"/>
<path d="M58.2949 35.9305C58.2949 43.6443 53.8944 49.8976 48.4663 49.8976C43.0381 49.8976 38.6377 43.6443 38.6377 35.9305C38.6377 28.2167 43.0381 21.9634 48.4663 21.9634C53.8944 21.9634 58.2949 28.2167 58.2949 35.9305Z" fill="#482520"/>
<path d="M57.4309 43.0743C57.4309 43.9762 58.0536 43.2429 57.8184 40.3063C57.6107 37.714 57.4556 29.8295 56.7942 28.4181C56.1597 27.064 52.3521 23.8829 49.3305 23.8829C48.7559 23.8829 46.2054 23.7912 44.0102 24.9083C42.7421 25.5537 41.4487 27.4549 41.0947 27.8105C39.4355 29.4773 38.4386 38.2707 38.98 39.6397C39.0839 39.9024 38.2058 39.9336 38.2058 37.7433C38.2058 36.3297 37.3208 28.7855 38.3371 25.5759C39.5318 21.8026 41.3928 19.4581 43.5769 17.7604C45.2615 16.4509 47.0099 21.1108 48.4664 21.1108C48.87 21.1108 51.603 16.4937 53.3805 18.0356C55.0396 19.4749 56.835 21.4499 57.7711 23.7068C59.7492 28.4756 58.079 37.0356 58.079 39.236L57.4309 43.0743Z" fill="#C9816E"/>
<path d="M58.2953 37.7429C58.2953 38.7516 58.3729 38.5687 58.382 40.3057C58.3959 42.9796 58.6791 46.1606 57.8342 48.7534C57.3142 50.349 55.6008 53.3739 54.8418 53.5353C52.9589 53.9357 49.6547 53.3093 49.6547 53.3093C49.6547 53.3093 46.9527 53.9427 45.5433 53.8092C44.6352 53.7232 42.4334 52.6604 41.5841 51.3648C39.9591 48.8863 39.046 44.8588 38.5896 41.402C38.3155 39.3258 38.2061 37.4554 38.2061 36.2502C38.2061 33.309 39.4124 41.4442 42.3546 43.7345C44.6036 45.4852 45.6858 46.4856 48.7907 46.4856C51.9385 46.4856 53.6973 43.6838 55.5176 42.7431C55.8685 42.5617 58.2953 37.7429 58.2953 37.7429Z" fill="#DC8D79"/>
<path d="M52.4629 18.445C51.7053 18.398 48.4993 22.0062 48.4667 21.9901C48.1487 21.8332 45.7806 19.0903 44.6958 18.6177C42.8845 17.8286 40.1677 22.9398 40.1484 22.9905C39.5147 23.5692 38.9623 24.2338 38.5255 24.9533C38.2099 24.7442 38.3418 24.3537 38.3418 24.3537L38.585 23.6484C38.8529 23.2517 39.0802 22.8213 39.233 22.3689C40.3894 20.6478 42.3613 16.6131 45.1091 17.6326C46.5532 18.1685 47.4147 19.6252 48.4663 20.676C49.4368 19.6906 51.0457 17.4211 52.4629 17.3788C54.5747 17.3158 56.9137 20.6228 57.4586 22.3229C57.9874 22.8225 57.6674 23.6026 57.6674 23.6026C56.968 22.8715 53.9869 18.5397 52.4629 18.445Z" fill="#AF7060"/>
<path d="M51.0737 53.6939C49.4655 53.6377 47.9047 54.0019 46.3243 54.0571C44.8931 54.0571 42.7779 54.1269 41.915 51.9565C42.4102 52.3756 42.8678 52.9004 43.4242 53.018C44.3325 53.5605 45.3362 53.3308 46.3243 53.3308C47.0509 53.3713 48.0496 53.0653 48.7602 52.7957C49.5108 52.511 50.3611 53.0073 51.0737 52.9676C51.1427 52.9676 51.2108 52.9681 51.2781 52.9692C52.3706 53.3748 53.542 53.3308 54.6922 53.3308C54.9196 53.3228 55.1329 53.2707 55.3349 53.1833C53.9123 54.0997 52.6571 53.6939 51.0737 53.6939Z" fill="#AF7060"/>
<path d="M56.8361 41.3889C55.2427 43.7605 52.4791 45.8239 49.769 46.9097C49.7664 46.9618 49.7558 47.0187 49.7348 47.0807C49.5641 47.5865 49.0517 47.4179 49.0517 47.4179C46.2591 46.499 42.7481 45.3055 40.9967 42.7298L40.747 42.2461C40.747 42.2461 40.7057 42.1644 40.6914 42.0517C42.3415 44.0097 44.758 45.4438 47.2428 45.6742C47.7302 45.8533 48.2144 46.0174 48.6823 46.1724C49.6843 45.8366 50.7239 45.3414 51.7158 44.7296C53.6833 43.7004 56.6456 40.4656 57.7782 38.4854C57.8519 38.4769 56.8361 41.3889 56.8361 41.3889Z" fill="#AF7060"/>
<path d="M50.519 25.0554C49.0816 25.0554 46.7283 24.5766 45.4588 24.8279C45.0771 24.9035 44.7112 25.1065 44.3612 25.3874C42.9116 25.919 41.6469 26.9544 40.6685 28.6372C40.6181 28.6926 40.5689 28.749 40.5208 28.8064C40.3425 28.4833 40.6326 28.1969 40.6326 28.1969C41.9343 26.9859 43.1906 24.1885 45.2107 23.7903C46.6405 23.5084 48.9771 23.9892 50.519 23.9892C53.7507 24.0288 54.9973 26.6066 57.1653 28.6234L57.2092 28.7873C56.5145 28.2422 55.7827 27.7977 55.2671 27.516C54.9407 27.3378 54.6132 27.1661 54.2852 27.0019C53.2514 25.9088 52.1139 25.0405 50.519 25.0554Z" fill="#AF7060"/>
</svg>
