<svg width="83" height="73" viewBox="0 0 83 73" fill="none" xmlns="http://www.w3.org/2000/svg">
<path d="M79.2111 30.5264C77.5918 38.5087 73.981 52.5333 71.029 60.0917C70.5149 61.4081 70.1168 62.9076 69.7873 64.499C54.2303 72.5938 33.11 75.4838 17.1408 69.5412C3.85904 57.4848 -4.00471 33.7463 2.60719 18.0556C3.20817 16.6294 3.90933 15.309 4.70028 14.0883C12.4604 9.49733 20.5779 4.79316 29.4584 1.63277C32.3402 1.54193 35.3361 1.23194 38.411 0.797363C49.9331 1.06268 61.5663 3.82399 69.3355 6.68824C71.7485 7.52159 74.0046 8.54315 76.1373 9.7201C77.948 11.5059 79.8148 13.2207 81.8664 14.6124C81.3688 19.3503 80.7874 24.2209 79.2111 30.5264Z" fill="#F8BC99"/>
<path d="M82.036 23.0476C79.5801 35.5814 73.1814 51.2486 70.6953 63.7975C70.6953 63.7975 72.0832 50.2453 74.376 43.534C77.1291 35.2747 77.9706 26.7557 80.6638 18.3801C80.6638 16.9215 80.7966 15.4601 80.999 13.9976C81.425 14.3123 81.8586 14.614 82.301 14.9003C82.162 17.6096 82.0471 20.3245 82.036 23.0476Z" fill="#95725D"/>
<path d="M63.2494 43.0755C56.8943 48.727 54.5198 47.6548 43.468 47.6548C33.4293 47.6548 28.6242 44.1652 24.5515 40.4421C21.6717 37.8094 18.3963 35.0601 17.2582 33.3452C16.566 32.3022 14.3672 31.0634 14.3672 31.0634C14.3672 31.0634 25.5682 28.8662 47.0226 28.8662C68.4771 28.8662 68.9656 24.6724 68.9656 24.6724C68.9656 24.6724 69.6171 26.0994 69.5217 28.6289C69.3115 34.2003 67.3634 39.4169 63.2494 43.0755Z" fill="#482520"/>
<path d="M37.1443 53.4264L37.2018 53.4072C37.2214 53.4169 37.2409 53.4263 37.2605 53.4355C37.8174 53.4811 38.3594 53.5603 38.892 53.6598C39.7238 53.5227 40.4839 53.0975 41.4445 53.1303C41.7098 52.9998 42.0128 52.8788 42.3464 52.7688C44.791 52.6867 47.2287 52.5615 49.7322 52.5615C51.015 52.5615 52.2882 52.8934 53.5571 53.0441C53.5596 53.0454 53.5621 53.0464 53.5645 53.0477L53.5658 53.0452C53.7227 53.0638 53.8795 53.0794 54.0363 53.0916L54.193 53.1686C54.3832 53.2574 54.5149 53.4483 54.5149 53.6694C54.5149 53.8906 54.3832 54.0815 54.193 54.1702L53.7651 54.3808C52.6444 56.4724 48.4407 56.1621 46.3565 56.1621C45.6506 56.1621 44.9702 56.0973 44.3051 55.9933C41.6479 56.0558 38.8648 55.9293 36.8843 54.5945L36.821 54.7188L36.3791 54.5012C36.329 54.5006 36.279 54.5002 36.2287 54.5002C36.2287 54.5002 35.666 54.5002 35.666 53.9462C35.666 53.3923 36.2287 53.3923 36.2287 53.3923C36.306 53.3923 36.3829 53.393 36.4594 53.3945C36.476 53.393 36.493 53.3923 36.5099 53.3923H37.0725V53.4212C37.0965 53.4229 37.1205 53.4247 37.1443 53.4264Z" fill="#DEA889"/>
<path d="M35.0718 53.1428C35.3272 53.1428 35.5826 53.1428 35.8381 53.1428C40.641 51.2639 47.5746 52.2735 52.6266 52.3208C53.2557 52.5273 53.9328 52.5978 54.5959 52.5978L54.6906 52.6689L54.7057 52.6244L55.5343 52.8963C55.6778 52.9397 55.8018 53.0272 55.89 53.1427C55.6087 53.1427 55.3273 53.1427 55.046 53.1427C48.1738 53.1432 41.2798 53.382 34.3877 53.4158L35.0718 53.1428Z" fill="#95725D"/>
<path d="M22.3299 29.5477L22.3669 29.5C22.4545 29.4057 22.6443 29.285 22.9034 29.1497C25.1667 28.5585 27.0584 28.0249 27.9809 27.9264C32.2202 27.4741 43.6458 25.6475 47.3997 25.6475L47.7408 25.5868C50.4274 27.8204 55.4276 25.6307 59.5225 24.7588C62.0111 24.8667 66.2079 25.0702 68.0253 25.6477C68.3793 25.9979 69.5893 30.6462 66.5703 32.0671C65.1547 32.7334 61.8225 34.5356 52.515 35.0682C42.0134 35.6691 27.6345 35.5369 24.2323 33.4658C22.8841 32.6451 19.4344 30.4834 19.3867 29.5C19.3867 29.5 21.9797 29.6061 22.3299 29.5477Z" fill="#F9F9F9"/>
<path d="M65.5707 40.8446L65.332 42.0402C65.2551 42.1189 63.4786 41.934 63.2551 42.0433C61.3179 42.4909 63.3754 41.9842 62.5896 42.0442C58.9788 42.3201 49.2307 43.5853 46.044 43.4857L45.7528 43.5288C43.5322 41.5393 39.2288 43.2869 35.7292 43.927C33.6195 43.7682 26.8402 40.9634 25.3129 40.4192C25.0218 40.109 24.9977 37.2443 27.5987 36.1042C28.8183 35.5696 33.6077 35.5063 41.5291 35.5063C60.2874 35.5063 60.1658 33.2055 67.4467 36.1042C68.7129 36.6083 66.532 38.0406 66.546 38.8863C66.546 38.8863 65.8695 40.8037 65.5707 40.8446Z" fill="#F9F9F9"/>
<path opacity="0.01" d="M28.3701 4.2443C29.018 4.01376 29.6698 3.79145 30.3259 3.57802C32.6311 3.40456 34.9745 3.35491 37.3226 3.40898C34.2477 3.84348 31.2519 4.1534 28.3701 4.2443Z" fill="black"/>
<path opacity="0.01" fill-rule="evenodd" clip-rule="evenodd" d="M39.5645 31.0693C40.6693 31.6222 40.6693 31.6222 39.5645 31.0693Z" fill="black"/>
<path opacity="0.01" fill-rule="evenodd" clip-rule="evenodd" d="M40.3935 43.5025C38.1183 43.9867 36.1844 45.0924 34.5913 46.8181C32.2339 43.8772 33.0628 42.2194 37.078 41.8447C38.1356 40.9213 38.1356 40.0924 37.078 39.358C36.2109 35.8112 37.4542 33.6014 40.8079 32.7271C41.9394 33.633 42.2162 34.7379 41.6368 36.0426C40.7897 36.7505 40.0992 37.5793 39.5646 38.5292C39.7669 40.2285 40.0429 41.8862 40.3935 43.5025Z" fill="#101010"/>
<path opacity="0.01" fill-rule="evenodd" clip-rule="evenodd" d="M58.6291 47.6471C58.6696 49.8014 59.4986 51.5976 61.1157 53.035C60.4094 54.4672 59.5806 54.6057 58.6291 53.4494C58.6291 52.3445 58.0761 51.7916 56.9713 51.7916C57.1038 50.3834 56.9663 49.0016 56.5568 47.6472C56.3264 48.4064 55.912 48.9585 55.3135 49.305C54.3826 48.2631 53.8307 48.5391 53.6557 50.1339C52.9171 50.6396 52.0882 50.9155 51.169 50.9627C49.3463 49.9896 47.6885 50.4041 46.1956 52.2061C48.0001 53.6757 49.5195 55.4711 50.7545 57.5939C51.0306 57.0411 51.3074 56.489 51.5834 55.9361C51.948 57.2424 52.6386 58.3483 53.6556 59.2517C53.0397 59.817 52.4877 60.3699 51.9977 60.9095C52.8267 60.9095 53.6555 60.9095 54.4843 60.9095C53.5891 62.1901 53.5891 63.4334 54.4843 64.6394C53.0006 66.0767 51.3429 67.3201 49.511 68.3694C47.6534 67.9284 46.41 66.8235 45.7809 65.0539C44.4439 65.9839 43.4766 65.5694 42.8798 63.8106C45.5902 62.5465 46.4192 60.6127 45.3664 58.0084C45.9906 56.7759 46.6811 56.6375 47.4386 57.5939C48.0452 55.7653 47.4925 54.3846 45.7808 53.4496C45.2876 52.29 45.426 51.185 46.1952 50.134C45.901 49.2869 45.348 48.7339 44.5374 48.4762C43.8113 48.5847 43.2583 48.3088 42.8796 47.6473C43.9845 46.5424 43.9845 45.4367 42.8796 44.3318C43.9638 43.3984 45.0696 43.3984 46.1952 44.3318C47.2215 44.5887 47.2215 45.0032 46.1952 45.5751C47.8961 46.346 49.1394 47.5893 49.9252 49.3051C50.0661 47.2469 49.3749 45.4515 47.853 43.9172C49.9485 42.8263 49.9485 41.8591 47.853 41.0161C47.3109 39.6774 46.8966 38.2957 46.6097 36.8717C45.4509 36.4149 44.3452 36.139 43.2941 36.0428C43.0362 34.3387 42.6218 32.6808 42.0508 31.0694C42.3061 30.3996 42.7206 29.8469 43.2941 29.4116C44.1231 30.5165 44.9518 30.5165 45.7807 29.4116C47.5769 31.2078 49.3723 33.0031 51.1686 34.7994C50.7359 35.2645 50.46 35.8173 50.3397 36.4572C51.8217 38.5734 52.789 40.9215 53.2407 43.5028C54.1102 42.6598 55.0775 42.5214 56.1419 43.0883C56.5472 44.9194 57.3767 46.4386 58.6291 47.6471ZM55.3135 49.305C54.7606 49.581 54.2085 49.8579 53.6557 50.1339C53.8307 48.5391 54.3826 48.2631 55.3135 49.305ZM53.6557 50.1339C53.2752 53.8846 52.4463 54.1605 51.169 50.9627C52.0882 50.9155 52.9171 50.6396 53.6557 50.1339ZM58.6291 53.4494C58.6291 52.3445 58.0761 51.7916 56.9713 51.7916C57.2473 52.6205 57.8001 53.1734 58.6291 53.4494ZM51.9977 60.9095C51.9265 61.7351 52.2035 62.4252 52.8268 62.9814C51.3689 63.8169 50.4014 65.0603 49.9256 66.7114C49.6994 65.1954 49.0081 63.952 47.8535 62.9814C48.7794 61.4132 50.161 60.723 51.9977 60.9095Z" fill="#161616"/>
<path opacity="0.01" fill-rule="evenodd" clip-rule="evenodd" d="M37.078 39.3584C36.3312 41.2042 34.9503 42.0333 32.9336 41.8451C32.9336 41.0162 32.9336 40.1872 32.9336 39.3584C34.4753 38.8851 35.8571 38.8851 37.078 39.3584Z" fill="black"/>
<path opacity="0.01" fill-rule="evenodd" clip-rule="evenodd" d="M46.1954 44.3316C45.0697 43.3982 43.9638 43.3982 42.8797 44.3316C43.9846 45.4365 43.9846 46.5422 42.8797 47.6472C43.2585 48.3086 43.8115 48.5846 44.5376 48.476C42.4255 50.6419 40.4909 50.5035 38.7354 48.0616C39.3752 47.0495 40.2042 46.2206 41.222 45.5749C40.5988 45.0188 40.3219 44.3282 40.3932 43.5027C42.7224 42.1118 44.6561 42.3878 46.1954 44.3316Z" fill="#030303"/>
<path opacity="0.01" fill-rule="evenodd" clip-rule="evenodd" d="M59.4579 47.6472C59.1818 47.6472 58.9049 47.6472 58.6289 47.6472C58.905 45.4366 59.1819 45.4366 59.4579 47.6472Z" fill="black"/>
<path opacity="0.01" fill-rule="evenodd" clip-rule="evenodd" d="M59.4581 47.6469C60.6832 47.4297 61.788 47.7058 62.7736 48.4758C62.2207 48.7518 61.6686 49.0287 61.1158 49.3047C60.1103 49.1 59.5576 48.5471 59.4581 47.6469Z" fill="black"/>
<path opacity="0.012" fill-rule="evenodd" clip-rule="evenodd" d="M53.6556 50.1338C53.2751 53.8845 52.4463 54.1605 51.1689 50.9627C52.0881 50.9154 52.9171 50.6395 53.6556 50.1338Z" fill="#484848"/>
<path opacity="0.016" fill-rule="evenodd" clip-rule="evenodd" d="M56.9717 51.7915C57.2478 52.6204 57.8006 53.1734 58.6295 53.4493C59.0755 54.7896 59.3516 56.1713 59.4585 57.5937C57.8413 57.82 56.598 57.268 55.7285 55.9359C55.5702 57.7662 55.1557 59.4239 54.4851 60.9093C54.6145 58.7824 54.3376 56.7102 53.6562 54.6927C54.0789 53.1791 54.7702 53.0407 55.7284 54.2782C55.9207 53.2529 56.3352 52.4238 56.9717 51.7915Z" fill="#1E1E1E"/>
<path d="M17.3115 31.1781C15.4318 31.33 14.6691 31.3623 12.5459 31.369C18.861 29.9061 25.8722 27.1057 30.566 25.3047C33.2373 24.4201 35.808 23.2097 38.263 21.9765C39.6761 21.4548 41.1325 21.079 42.7947 21.368C45.9006 21.9081 50.0263 24.3068 53.4339 23.6131C55.9813 23.0946 59.4282 21.4273 61.9015 20.4962C62.2346 20.4617 62.5682 20.4445 62.9004 20.4429C64.9564 21.4747 67.2077 22.2842 69.5641 22.8643C70.2986 23.5877 71.9636 23.1359 71.8419 23.912C71.6931 24.8618 69.9676 28.2812 68.1635 28.8643C65.1282 29.8452 56.4683 30.921 52.289 30.909C48.9576 31.3347 44.5485 30.3413 42.0428 30.4074C38.1943 30.5088 36.4367 31.5103 31.2474 31.5103C27.162 31.5103 25.7769 31.9774 21.7249 32.0605L17.3115 31.1781Z" fill="#C9816E"/>
<path d="M41.5425 20.4933C42.9365 20.632 49.9533 22.5854 51.2762 23.0899L51.8986 23.3285C54.7125 22.1429 57.516 20.8994 60.3739 19.7994L60.683 19.6358C60.9308 19.4414 61.2121 19.3897 61.4577 19.3962C61.6994 19.3818 61.9788 19.423 62.2342 19.6027C64.7336 20.7671 67.1935 21.9371 69.8098 22.94L70.6964 23.2086C70.6964 23.2086 71.5152 23.4596 71.4471 24.071C68.1066 23.2443 65.0577 22.095 61.5554 20.6035C58.8786 21.419 55.1872 24.3003 52.4255 24.4927C48.8284 24.7434 44.981 22.1708 41.6473 21.6709C39.7436 21.3855 37.7847 22.6232 36.0631 23.0631C31.6161 24.7678 23.2783 29.3151 17.6074 30.1039C17.7542 29.9575 38.4185 19.534 41.5425 20.4933Z" fill="#AF7060"/>
<path d="M63.6278 29.6254C61.9637 30.3288 53.1155 31.4265 51.3707 31.9289C43.6822 33.0546 38.685 30.5581 38.685 30.5581C26.9302 34.1513 13.2175 31.6337 12.3686 31.4916C12.1789 31.4599 18.3033 31.1736 19.4746 31.1158C23.4496 30.9195 28.9613 31.7556 30.9539 30.8793C32.565 30.6555 38.8533 29.5508 38.9242 29.5588C42.5658 29.5937 47.7475 30.3617 51.7688 30.4112C55.9556 30.4626 55.1586 29.7847 58.9899 29.244C60.6165 28.7756 64.9913 27.6312 65.0096 27.6292C65.2559 27.7237 67.3574 29.1845 68.6855 28.4599C70.5099 27.4646 71.3637 25.3491 71.3637 25.3491C71.3637 25.3491 71.334 29.1938 67.3831 30.4639L63.6278 29.6254Z" fill="#AF7060"/>
<path d="M50.9665 41.9237C51.6138 41.7347 59.067 40.1793 59.8002 39.9358C61.1771 39.6297 64.4228 40.4795 65.3347 39.2216C66.9761 36.9575 70.7015 24.6861 71.1327 24.2398C72.5712 22.7514 67.1047 41.4903 64.7671 43.6578C63.1776 45.1315 59.6827 45.6843 58.7519 46.3045C56.3237 47.5935 52.7243 47.8268 50.5668 47.9241C46.4402 48.1102 38.4217 48.4982 35.1674 47.7469C29.7501 46.4964 24.9462 42.0923 22.42 40.5148C22.2888 40.4329 13.5585 30.1728 13.1457 29.7634C12.8287 29.4489 14.36 29.786 14.36 29.786C14.36 29.786 26.4617 40.7595 27.2229 40.7237C27.2229 40.7237 30.0394 41.1248 34.7995 40.6049C34.7995 40.6049 47.3461 42.8086 50.9665 41.9237Z" fill="#DC8D79"/>
<path d="M36.9009 48.1976C33.9397 48.1928 32.2997 47.3699 31.8572 47.1564C29.0472 45.8007 22.2755 40.295 21.792 40.0337C23.2474 40.0162 30.2216 46.5247 35.6736 47.5382C40.2627 47.5588 42.4591 47.9273 47.0597 48.0367C46.8822 48.067 40.1655 48.1976 36.9009 48.1976Z" fill="#AF7060"/>
<path d="M60.7826 46.1372C57.4528 47.0991 53.4942 48.2693 53.0879 47.8467C53.4086 47.7456 55.7853 47.1866 56.0986 47.0647C58.57 46.5634 63.4308 44.3386 64.1852 44.1465C62.7227 44.9383 63.0172 45.4917 60.7826 46.1372Z" fill="#AF7060"/>
<path d="M33.6819 40.8599C26.9289 41.3543 26.2451 40.6571 26.2451 40.6571C26.2451 40.6571 32.9676 40.5419 33.0385 40.548C44.5908 41.4959 45.0046 42.4544 52.5158 41.6495C54.1423 41.2938 59.6941 39.7544 59.7123 39.7529C60.1763 39.8881 67.7485 39.9758 65.7858 40.2531C65.1124 40.3482 61.8153 40.5564 59.732 40.7884C59.732 40.7884 53.4689 42.4224 51.6638 42.5713C44.3286 43.1763 33.6819 40.8599 33.6819 40.8599Z" fill="#AF7060"/>
</svg>
