<svg width="115" height="72" viewBox="0 0 115 72" fill="none" xmlns="http://www.w3.org/2000/svg">
<path d="M14.3114 11.7923C35.8194 1.83597 56.4626 1.50858 72.5404 0.859587C89.0668 0.192487 115.024 4.78442 114.209 26.3305C114.768 85.3947 22.5914 77.9666 6.32443 53.7729C1.1394 46.0615 -7.19651 21.7485 14.3114 11.7923Z" fill="#F8BC99"/>
<path opacity="0.02" fill-rule="evenodd" clip-rule="evenodd" d="M61.4687 4.42254C62.1992 4.3133 62.7554 4.591 63.1365 5.2565C62.7862 6.7792 62.7862 8.44699 63.1365 10.2599C58.3757 9.37256 57.8195 7.42708 61.4687 4.42254Z" fill="#222222"/>
<path opacity="0.01" fill-rule="evenodd" clip-rule="evenodd" d="M100.775 18.6377C101.043 19.9321 101.88 20.4899 103.283 20.3101C103.005 20.8678 102.726 21.4247 102.447 21.9824C101.333 22.2608 101.333 22.5402 102.447 22.8186C102.415 23.7242 102.135 24.5603 101.611 25.327C102.541 25.9667 103.099 26.8029 103.283 27.8356C100.786 27.4609 99.9497 26.2067 100.775 24.0728C100.336 23.4942 99.7783 23.0761 99.1026 22.8186C98.2464 23.95 97.1317 24.5077 95.7579 24.4909C95.5388 23.255 95.8173 22.1405 96.5941 21.1462C97.0841 21.3209 97.5022 21.6003 97.8484 21.9824C98.7113 20.7055 99.6871 19.5909 100.775 18.6377Z" fill="#050505"/>
<path opacity="0.01" fill-rule="evenodd" clip-rule="evenodd" d="M67.3121 46.2229C65.9144 46.7925 65.3582 47.9048 65.6442 49.5585C64.521 50.1181 63.5478 50.1181 62.7255 49.5585C62.4662 47.844 62.0492 46.1761 61.4746 44.5551C61.7314 43.8812 62.1484 43.325 62.7255 42.8872C63.5595 43.9988 64.3933 43.9988 65.2271 42.8872C66.1403 43.882 66.8351 44.9945 67.3121 46.2229Z" fill="black"/>
<path opacity="0.01" d="M67.3275 46.2319C67.8711 46.4861 68.4288 46.7645 68.9999 47.0681C69.9407 50.4295 70.9156 53.7742 71.9265 57.1022C72.8037 56.2518 73.7795 56.1122 74.8532 56.6841C75.2621 58.5312 76.0982 60.0639 77.3616 61.2831C77.5489 63.1954 78.1067 65.0066 79.034 66.7183C78.8811 68.1265 78.3232 68.2652 77.3616 67.1363C77.5084 67.6331 77.621 68.0818 77.6993 68.4826C76.2242 68.7153 74.727 68.9039 73.2109 69.0503C72.5435 68.4973 71.9759 67.8593 71.5083 67.1364C72.1222 66.1262 72.4006 65.0116 72.3446 63.7917C72.0661 63.7917 71.7868 63.7917 71.5083 63.7917C71.2224 63.091 70.6655 62.8117 69.836 62.9555C69.4538 61.0766 68.6177 59.4042 67.3275 57.9384C67.6059 57.3807 67.8852 56.8237 68.1636 56.266C66.993 54.1463 66.1568 51.9162 65.6551 49.5766C65.3683 47.9185 65.9261 46.803 67.3275 46.2319ZM74.0171 62.5374C72.9167 62.0958 72.3588 62.514 72.3446 63.7917C73.0044 63.555 73.5622 63.1369 74.0171 62.5374ZM75.6894 65.8819C76.1443 66.4814 76.7018 66.8997 77.3616 67.1363C77.3474 65.8587 76.7898 65.4404 75.6894 65.8819Z" fill="#1B1B1B"/>
<path fill-rule="evenodd" clip-rule="evenodd" d="M92.9931 2.2644C94.5099 2.26439 97.2636 2.26442 90.4307 4.56398C90.1803 7.2066 88.7575 8.48764 86.1602 8.40743V10.9697L92.9931 10.5427C94.0991 13.4687 95.523 16.1738 97.2636 18.6567C94.0504 18.7864 90.9194 19.3561 87.8685 20.3649C86.1747 20.0958 85.0362 19.2417 84.452 17.8026C86.3986 16.764 88.1068 15.4829 89.5766 13.9592C88.643 11.2944 87.362 11.1518 85.7332 13.5322C85.3208 12.7225 85.1789 11.8683 85.3061 10.9699C84.1496 11.1058 82.9769 10.9596 81.8896 10.5429C84.6783 8.61351 87.2406 6.33549 89.5766 3.70993C92.4747 1.93679 89.6279 2.48471 92.9931 2.2644Z" fill="#E9B191"/>
<path fill-rule="evenodd" clip-rule="evenodd" d="M89.5716 3.70991C87.2356 6.33547 84.6731 8.61329 81.8845 10.5428C82.9717 10.9597 84.1444 11.1058 85.3009 10.9699C85.1736 11.8684 85.3155 12.7224 85.728 13.5321C87.3568 11.1517 88.6378 11.2943 89.5714 13.9592C88.1014 15.4829 86.3933 16.7641 84.4468 17.8027C84.6338 16.7991 84.3496 15.945 83.5928 15.2404C82.4381 16.1098 81.5838 17.2484 81.0304 18.6568C79.6101 17.4824 78.4707 17.7668 77.614 19.5109C76.4755 17.233 75.336 17.233 74.1976 19.5109C72.9207 18.4818 71.7822 18.4818 70.7812 19.5109C69.9339 19.364 69.3652 19.6492 69.0731 20.365C67.7561 21.0491 66.3329 21.3335 64.8024 21.219C65.1603 18.8062 64.3064 16.9562 62.2402 15.6674C64.1987 13.9908 66.4765 12.9941 69.0731 12.678L70.7814 9.26156C72.0437 8.4519 72.898 7.31338 73.3437 5.84525C73.114 7.49277 73.541 8.91574 74.6249 10.1157C76.5928 8.16835 77.874 5.89128 78.4685 3.28278H82.7389C82.8064 2.06139 82.5215 1.77618 81.8845 0.720518C82.7385 0.720518 84.8742 0.720518 84.8742 0.720518H87.0519C87.1962 1.4866 87.4381 -0.221557 87.8635 0.720518C88.9598 0.720518 91.2799 1.13701 91.2799 1.57457C92.0817 1.57457 93.2958 2.3511 89.5716 3.70991Z" fill="#F0B694"/>
<path fill-rule="evenodd" clip-rule="evenodd" d="M84.4512 17.8028C85.0354 19.2421 86.1738 20.0962 87.8675 20.3652C90.9183 19.3565 94.0496 18.7868 97.2627 18.6569V19.5111V20.3651C95.8295 22.2169 94.1212 22.502 92.1379 21.2192C88.7608 21.6146 85.4555 22.4772 82.3158 23.7814C79.3769 22.7658 76.3875 21.9118 73.3477 21.2192C71.5371 22.3911 70.6831 21.8213 70.7856 19.5109C71.7867 18.4818 72.9251 18.4818 74.202 19.5109C75.3405 17.233 76.4798 17.233 77.6182 19.5109C78.4748 17.7669 79.6143 17.4824 81.0346 18.6568C81.588 17.2484 82.4423 16.11 83.597 15.2405C84.3537 15.9451 84.6383 16.7992 84.4512 17.8028Z" fill="#F4B996"/>
<path d="M94.2166 26.8423C94.2166 26.8423 90.9881 33.1188 84.9118 38.5223C78.4564 44.263 68.8201 49.1512 57.5939 49.1512C35.8009 49.1512 22.2607 28.1318 22.2607 28.1318C22.2607 28.1318 33.9956 25.4238 55.7886 25.4238C77.5816 25.4238 94.2166 26.8423 94.2166 26.8423Z" fill="#482520"/>
<path d="M55.5488 37.6708C55.5811 37.7025 55.6128 37.7356 55.6443 37.7701C55.6443 37.7401 55.6443 37.7209 55.6443 37.7209C55.6443 37.706 55.6456 37.6912 55.6481 37.6769C55.615 37.6749 55.5819 37.6728 55.5488 37.6708ZM36.852 41.0159C36.8311 40.9609 36.8311 40.9161 36.8311 40.9161C36.9048 37.3471 42.1384 37.1951 45.0409 36.2377C47.7637 35.676 51.987 35.4248 54.4311 37.0299C55.43 37.0239 57.28 36.7258 58.6712 36.7001C60.8722 35.8299 64.3606 35.262 66.2194 36.0315C70.0726 35.9542 75.1359 36.6388 77.0724 39.7836C79.7749 44.2769 74.1073 45.7541 70.1128 46.3916C66.9925 47.647 60.2172 47.0122 56.694 47.0054C52.4738 46.315 48.2933 46.5072 44.1417 45.6581C40.7709 45.2713 38.3881 43.9645 36.8692 41.4494L36.8311 41.1158C36.8311 41.1158 36.8311 41.0709 36.852 41.0159Z" fill="#B65E50"/>
<path d="M60.202 36.7054C62.2339 36.0627 64.5868 35.9499 66.1141 36.5822C69.7138 36.6332 74.6959 36.9897 76.4976 40.047C79.0247 44.2131 73.438 45.253 69.9446 45.8489C68.8626 46.3112 67.3641 45.96 66.1675 46.042C63.0128 46.2582 59.9266 46.4623 56.7594 46.469C52.5628 45.7649 48.3397 45.9555 44.2084 45.0894C41.0463 44.7733 38.8532 43.514 37.4443 41.1812L37.4825 41.1152C37.4825 41.1152 37.4825 41.07 37.4616 41.015C37.4825 40.96 37.4825 40.9148 37.4825 40.9148C37.391 37.7896 42.7791 37.5878 45.1979 36.7832C49.7839 35.8303 52.5479 36.7178 55.4171 39.2364L55.6833 39.626C55.7259 39.749 55.7676 39.8692 55.7992 39.9905C55.676 40.4023 55.7109 40.7834 55.9157 41.1893L55.755 41.2524L55.9897 41.6264C56.0477 41.7277 56.1654 41.7844 56.3098 41.7844C56.5096 41.7844 56.5414 41.7016 56.5414 41.5362L56.5498 40.8821C56.549 40.8259 56.5548 40.7601 56.5512 40.7011C57.4215 39.5557 57.5373 38.1798 59.5759 37.3358L60.055 37.1406C60.1774 37.0926 60.1921 37.0942 60.1921 36.9747C60.1921 36.9142 60.2392 36.7525 60.202 36.7054Z" fill="#C36556"/>
<path d="M57.3735 38.3882C57.3735 38.3882 57.0499 38.5221 56.8881 38.2542C56.7263 37.9863 57.0499 37.8523 57.0499 37.8523C57.3085 37.7478 57.5622 37.649 57.8122 37.5558C57.771 37.3541 58.0147 37.2532 58.0147 37.2532L58.4473 37.0785C59.4114 36.2802 64.4936 35.304 65.768 36.2231H66.3771C66.5769 36.2231 66.7389 36.3572 66.7389 36.5227C66.7389 36.6881 66.5769 36.8222 66.3771 36.8222H65.6535C62.341 36.8222 60.1488 37.2167 57.3735 38.3882Z" fill="#B65E50"/>
<path d="M29.3531 26.1712L29.3887 26.1167C29.4727 26.0088 29.6549 25.8707 29.9035 25.7161C32.0758 25.0399 33.8914 24.4296 34.7769 24.317C38.8457 23.7998 49.8117 21.7108 53.4147 21.7108L53.742 21.6413C56.3206 24.1957 61.1196 21.6916 65.0499 20.6943C67.4384 20.8178 86.0954 25.0557 87.8398 25.7161C88.1795 26.1167 87.8398 29.1026 84.9422 30.7276C83.5836 31.4895 65.3638 34.2616 56.4187 33.8653C46.9168 33.4443 33.9124 33.0962 30.647 30.7276C29.3531 29.7891 26.574 27.2413 26.5283 26.1167C26.5283 26.1167 29.017 26.238 29.3531 26.1712Z" fill="#F9F9F9"/>
<path d="M81.9319 30.646L82.0514 30.8141C81.9955 30.8265 81.9399 30.8397 81.8848 30.8537C81.9001 30.7844 81.9156 30.7153 81.9319 30.646Z" fill="#F9F9F9"/>
<path d="M75.0757 31.3202C75.0802 31.3485 75.0816 31.3795 75.077 31.4115C75.0767 31.3717 75.0765 31.3474 75.0765 31.3474L74.9854 31.348C75.0144 31.2458 75.0414 31.1448 75.0671 31.0449L75.0757 31.3202Z" fill="#F9F9F9"/>
<path opacity="0.02" fill-rule="evenodd" clip-rule="evenodd" d="M58.7346 4.42359C59.4673 4.31403 60.0251 4.59253 60.4074 5.26002C60.056 6.78726 60.056 8.46 60.4074 10.2783C55.6324 9.38834 55.0745 7.43707 58.7346 4.42359Z" fill="#222222"/>
<path opacity="0.01" fill-rule="evenodd" clip-rule="evenodd" d="M53.7166 8.60547C55.253 8.72173 55.5316 9.27966 54.5529 10.2783C53.8854 9.89608 53.607 9.33817 53.7166 8.60547Z" fill="black"/>
<path opacity="0.01" fill-rule="evenodd" clip-rule="evenodd" d="M92.191 16.1333C93.5928 16.7046 94.1506 17.8203 93.8638 19.4788C93.0273 19.4788 92.191 19.4788 91.3547 19.4788C91.2987 18.2585 91.577 17.1436 92.191 16.1333Z" fill="#0A0A0A"/>
<path opacity="0.01" fill-rule="evenodd" clip-rule="evenodd" d="M98.0448 18.6426C98.3133 19.9373 99.1496 20.4952 100.554 20.3154C100.275 20.8732 99.9961 21.4302 99.7176 21.9881C98.6027 22.2666 98.6027 22.546 99.7176 22.8245C99.685 23.7304 99.4055 24.5667 98.8811 25.3336C99.8111 25.9735 100.369 26.8099 100.554 27.8428C98.0555 27.468 97.2193 26.2135 98.0448 24.0791C97.6057 23.5003 97.0479 23.0821 96.372 22.8245C95.5156 23.9562 94.4006 24.514 93.0265 24.4973C92.8073 23.2611 93.0859 22.1462 93.8629 21.1517C94.353 21.3265 94.7712 21.6059 95.1175 21.9881C95.9806 20.7109 96.9566 19.596 98.0448 18.6426Z" fill="#050505"/>
<path opacity="0.01" fill-rule="evenodd" clip-rule="evenodd" d="M64.5892 46.2435C63.1874 46.8148 62.6295 47.9305 62.9164 49.5891C61.7898 50.1503 60.8137 50.1503 59.989 49.5891C59.7289 47.8695 59.3106 46.1967 58.7344 44.5707C58.9919 43.8949 59.4102 43.3371 59.989 42.8979C60.8254 44.0128 61.6618 44.0128 62.4981 42.8979C63.4139 43.8957 64.1108 45.0115 64.5892 46.2435Z" fill="black"/>
<path opacity="0.01" fill-rule="evenodd" clip-rule="evenodd" d="M56.2256 44.5703C57.3602 45.1381 57.3602 45.1381 56.2256 44.5703Z" fill="black"/>
<path opacity="0.01" fill-rule="evenodd" clip-rule="evenodd" d="M57.0617 57.1162C55.0419 57.7192 53.369 58.8341 52.0434 60.4617C49.8252 58.4535 50.1038 56.7808 52.8797 55.4434C53.788 55.3431 54.3459 54.7852 54.5525 53.7706C54.5165 53.0045 54.238 52.4467 53.7161 52.0979C54.4195 50.5263 54.6989 48.8535 54.5525 47.0795C55.6582 47.2217 56.6343 46.9432 57.4799 46.2432C58.2076 46.7517 58.6258 47.4484 58.7345 48.3341C58.0746 49.694 57.2382 50.9487 56.2254 52.0979C56.4295 53.8125 56.7079 55.4852 57.0617 57.1162Z" fill="#121212"/>
<path opacity="0.01" fill-rule="evenodd" clip-rule="evenodd" d="M53.7156 52.0981C53.7717 53.3185 53.4931 54.4333 52.8792 55.4436C52.0428 55.4436 51.2065 55.4436 50.3702 55.4436C50.3601 53.2339 51.4749 52.119 53.7156 52.0981Z" fill="black"/>
<path opacity="0.01" d="M64.5897 46.2432C65.1334 46.4975 65.6912 46.7759 66.2625 47.0795C67.2035 50.4418 68.1787 53.7874 69.1899 57.1162C70.0673 56.2656 71.0433 56.1259 72.1173 56.698C72.5263 58.5455 73.3626 60.0787 74.6263 61.2982C74.8137 63.2109 75.3715 65.0226 76.2991 66.7348C76.1461 68.1433 75.5882 68.282 74.6263 67.1528C74.7732 67.6497 74.8858 68.0985 74.9641 68.4994C73.4887 68.7322 71.991 68.9209 70.4746 69.0673C69.8069 68.5142 69.2393 67.876 68.7716 67.1528C69.3855 66.1425 69.6641 65.0276 69.608 63.8073C69.3295 63.8073 69.0501 63.8073 68.7716 63.8073C68.4855 63.1065 67.9285 62.8271 67.0988 62.971C66.7165 61.0916 65.8802 59.4188 64.5896 57.9526C64.8681 57.3947 65.1475 56.8376 65.426 56.2798C64.2551 54.1595 63.4186 51.9289 62.9168 49.5887C62.63 47.9301 63.1879 46.8144 64.5897 46.2432ZM71.281 62.5527C70.1803 62.1111 69.6223 62.5293 69.608 63.8073C70.268 63.5706 70.826 63.1524 71.281 62.5527ZM72.9537 65.8981C73.4087 66.4977 73.9664 66.9162 74.6263 67.1528C74.6121 65.8749 74.0544 65.4564 72.9537 65.8981Z" fill="#1B1B1B"/>
<path opacity="0.01" fill-rule="evenodd" clip-rule="evenodd" d="M62.0798 57.1165C61.097 56.9333 60.2606 57.2118 59.5706 57.9528C60.6855 59.0677 60.6855 60.1836 59.5706 61.2984C59.9529 61.9659 60.5107 62.2444 61.2434 62.1348C59.1123 64.3203 57.1601 64.1806 55.3887 61.7166C56.0344 60.6954 56.8707 59.859 57.8978 59.2075C57.2689 58.6462 56.9895 57.9496 57.0614 57.1165C58.827 56.0777 60.4998 56.0777 62.0798 57.1165Z" fill="#030303"/>
<path opacity="0.01" fill-rule="evenodd" clip-rule="evenodd" d="M75.4622 61.2985C75.1837 61.2985 74.9044 61.2985 74.626 61.2985C74.9045 59.0678 75.1838 59.0678 75.4622 61.2985Z" fill="black"/>
<path opacity="0.01" fill-rule="evenodd" clip-rule="evenodd" d="M75.4619 61.2982C76.4446 61.115 77.2812 61.3935 77.9712 62.1345C76.6731 63.2201 75.8366 62.9417 75.4619 61.2982Z" fill="black"/>
<path opacity="0.01" fill-rule="evenodd" clip-rule="evenodd" d="M62.0804 65.48C62.6735 66.2361 63.5098 66.5146 64.5896 66.3163C64.5896 67.1527 64.5896 67.9891 64.5896 68.8255C63.5684 68.3838 62.5931 67.826 61.6623 67.1527C61.0835 66.369 61.2231 65.812 62.0804 65.48Z" fill="black"/>
<path opacity="0.012" d="M67.0988 62.9712C67.9285 62.8273 68.4854 63.1066 68.7716 63.8076C67.7796 65.0295 67.7796 66.1452 68.7716 67.1531C69.2392 67.8763 69.8068 68.5145 70.4745 69.0676C68.5408 69.2543 66.5768 69.3721 64.5896 69.4244C64.5896 69.2249 64.5896 69.0255 64.5896 68.8259C64.5896 67.9896 64.5896 67.1531 64.5896 66.3168C63.5098 66.515 62.6734 66.2365 62.0804 65.4804C63.2966 64.0059 63.0172 62.8901 61.2441 62.1348C60.5114 62.2444 59.9536 61.9659 59.5713 61.2985C60.6862 60.1836 60.6862 59.0677 59.5713 57.9529C60.2613 57.2119 61.0977 56.9333 62.0804 57.1165C63.4772 59.3463 65.15 61.2976 67.0988 62.9712Z" fill="#3D3D3D"/>
<path d="M48.9974 53.2866C48.929 53.2997 48.8453 53.3057 48.7588 53.2884C48.8383 53.2878 48.9179 53.2873 48.9974 53.2866Z" fill="#9B6F5D"/>
<path d="M48.3133 53.2915C48.2536 53.3006 48.1852 53.3036 48.1143 53.2925C48.1806 53.2922 48.247 53.2918 48.3133 53.2915Z" fill="#9B6F5D"/>
<path d="M33.9314 23.6221C33.7119 23.7285 33.4917 23.8313 33.2705 23.9296C33.4907 23.8246 33.7109 23.7212 33.9314 23.6221Z" fill="#9B6F5D"/>
<path d="M48.201 58.4098L48.2602 58.3901C48.2803 58.4 48.3004 58.4096 48.3203 58.4191C48.8912 58.4658 49.5224 57.9642 50.0685 58.0663C50.9213 57.9257 51.6254 58.0725 52.6103 58.1061C52.8825 57.9722 53.1931 57.8483 53.535 57.7355C56.0415 57.6514 58.5409 57.5229 61.1079 57.5229C62.4231 57.5229 63.7287 57.8632 65.0297 58.0177C65.0322 58.0189 65.0347 58.0202 65.0372 58.0215L65.0386 58.0189C65.1994 58.038 65.3602 58.054 65.5209 58.0663L65.6815 58.1453C65.8766 58.2364 66.0115 58.4321 66.0115 58.6588C66.0115 58.8855 65.8766 59.0813 65.6815 59.1724L65.2428 59.3884C64.0937 61.5331 59.7835 61.2148 57.6467 61.2148C56.923 61.2148 56.2253 61.1484 55.5433 61.0417C52.8188 61.1057 49.9653 60.976 47.9345 59.6074L47.8698 59.735L47.4167 59.5119C47.3654 59.5112 47.314 59.5109 47.2624 59.5109C47.2624 59.5109 46.6855 59.5109 46.6855 58.9428C46.6855 58.3747 47.2624 58.3748 47.2624 58.3748C47.3416 58.3748 47.4205 58.3756 47.499 58.377C47.516 58.3756 47.5334 58.3748 47.5509 58.3748H48.1278V58.4045C48.1524 58.4061 48.1766 58.4079 48.201 58.4098Z" fill="#DEA889"/>
<path d="M46.0754 58.1188C46.3373 58.1188 46.5992 58.1188 46.8612 58.1188C51.7856 56.1923 58.8949 57.2276 64.0748 57.276C64.7198 57.4877 65.4141 57.56 66.094 57.56L66.1911 57.6329L66.2065 57.5872L67.0562 57.866C67.2033 57.9105 67.3304 58.0003 67.4208 58.1188C67.1323 58.1188 66.844 58.1188 66.5555 58.1188C59.5094 58.1194 52.4407 58.3643 45.374 58.3988L46.0754 58.1188Z" fill="#95725D"/>
<path d="M57.3564 21.581C57.4161 21.3349 57.4773 21.0891 57.5371 20.8435C57.6412 20.8854 57.7487 20.9175 57.8605 20.938C58.8552 21.1196 59.6986 20.7263 60.6286 20.667L61.0615 20.3967C62.4361 20.4421 63.2373 19.7863 64.4551 19.3826C66.178 18.6024 70.1242 16.4143 72.0913 17.274C73.6429 17.9521 76.6345 19.1838 78.2212 19.9377C81.3145 21.4074 94.6028 26.0983 94.668 26.5255C91.7132 26.4338 81.0543 21.4651 78.3859 21.4651C77.1856 20.8512 75.9484 20.4283 74.7056 19.9201C73.675 19.3769 72.7227 18.8232 71.6666 18.2482C70.3781 17.5464 66.1042 19.7366 64.922 20.3352C64.89 20.3478 64.8581 20.3603 64.8262 20.3728C64.2236 20.5571 63.7019 20.7886 63.1734 20.9899C62.8722 21.0943 62.5694 21.1936 62.2631 21.2862C61.9574 21.3639 61.6351 21.4199 61.2826 21.4419C61.2523 21.5006 61.2119 21.5466 61.1672 21.5828C60.9663 21.6303 60.7632 21.6746 60.5575 21.7152C60.0867 21.7322 59.6241 21.8416 59.1503 21.9248C58.8216 21.958 58.4846 21.9809 58.1378 21.9923C57.8699 21.8785 57.6104 21.7387 57.3564 21.581Z" fill="#AF7060"/>
<path d="M96.4253 26.8966C93.1794 27.2216 80.6355 27.2223 77.5811 26.8361C72.6371 26.2109 70.3455 28.5153 59.754 28.1155C57.8365 28.0431 56.7216 28.2401 55.2651 28.1589C44.4726 27.5575 44.6856 26.5638 40.7551 27.583C35.1008 29.0493 23.0104 27.5222 19.9244 27.6174C19.1751 27.6405 32.2946 24.2937 33.8759 23.5352C37.5628 22.1619 42.0539 18.5526 46.8379 18.0792C50.9494 17.6723 54.0362 21.4886 58.1182 21.4886C62.0065 21.4886 67.4483 17.7755 70.9858 17.8832C74.0938 17.9777 77.1647 20.9686 79.5487 21.5735C81.8568 22.1592 96.4253 26.8966 96.4253 26.8966Z" fill="#C9816E"/>
<path d="M58.2737 21.9923C57.9483 21.9809 57.6321 21.958 57.3238 21.9247C56.8791 21.8416 56.4452 21.7321 56.0035 21.7151C55.8105 21.6746 55.6199 21.6304 55.4315 21.5828C55.3895 21.5466 55.3517 21.5006 55.3232 21.4418C54.9924 21.4198 54.6902 21.3638 54.4033 21.2862C54.1159 21.1935 53.8317 21.0942 53.5492 20.9898C53.0534 20.7885 52.5638 20.5572 51.9985 20.3728C51.9685 20.3603 51.9385 20.3477 51.9085 20.3352C50.7993 19.7366 46.7894 17.5464 45.5805 18.2481C44.5898 18.8233 43.6962 19.3769 42.7293 19.9201C35.4042 23.9426 22.2326 26.7308 20.1807 27.3599C20.6676 27.121 34.1382 22.9534 34.5442 22.6708C36.7452 21.8711 38.9304 20.702 40.9847 19.6617C42.4734 18.9078 43.7263 17.9521 45.1821 17.274C47.0277 16.4143 50.7301 18.6024 52.3467 19.3825C53.4892 19.7863 54.241 20.4421 55.5306 20.3967L55.9367 20.667C56.8093 20.7262 57.6006 21.1197 58.5339 20.9381C58.6386 20.9176 58.7395 20.8854 58.8371 20.8435C58.8933 21.0893 58.9508 21.3349 59.0067 21.5811C58.7685 21.7387 58.5251 21.8783 58.2737 21.9923Z" fill="#AF7060"/>
<path d="M76.6781 27.7892C75.4879 27.7229 71.1094 27.3826 69.1437 28.0335C68.2507 28.02 67.4397 28.6485 66.5775 28.817C63.7419 29.3711 60.5053 29.3582 57.6098 29.3582C54.4128 29.3582 50.9344 29.3183 47.9086 28.5773C47.8427 28.5612 41.6315 28.1326 40.6947 28.3378C34.8621 29.6152 31.351 28.8187 28.7156 28.6853C28.5229 28.0263 20.8941 28.0168 20.7959 27.2767C20.9508 27.2575 32.4326 28.6926 36.6267 27.3362C41.2437 26.7155 43.5765 26.0025 44.389 25.8437C45.1514 25.919 48.0644 27.1159 48.621 27.2637C51.5463 28.0402 54.9846 28.0162 58.0829 28.0162C60.8772 28.0162 63.6179 28.3651 66.3383 27.7908C66.3586 27.7865 66.3789 27.7819 66.399 27.7773C66.5056 27.7769 66.612 27.7767 66.7182 27.7767C69.7788 27.7092 76.4949 25.1416 76.4949 25.1416C76.9804 25.3143 78.9831 25.8027 79.4653 26.0195C79.7295 26.1722 95.983 26.8625 96.2856 27.0365C96.3427 27.0694 80.1263 27.5132 79.9905 27.5132L76.6781 27.7892Z" fill="#AF7060"/>
<path d="M55.8345 49.144C55.6486 48.9432 55.4898 48.7075 55.3578 48.4466C55.3103 48.5556 55.2597 48.6537 55.2063 48.7389C54.9089 49.2135 54.4016 49.7103 53.849 49.9575C53.5091 49.9898 53.1542 50.024 52.7886 50.0586C52.5725 49.9884 52.3657 49.8519 52.1784 49.632L52.2751 49.8182C52.2751 49.8182 51.8516 49.8149 51.8512 49.4794C51.8512 49.4245 51.8625 49.3786 51.8814 49.3404C50.9509 48.6351 50.5393 47.5786 50.4676 46.5156C49.4809 48.8273 45.766 49.8328 45.6392 46.4002C45.479 46.3514 45.3989 46.2239 45.3989 46.2239C44.0005 43.9123 46.963 39.6672 50.0258 42.2932C50.4663 42.6709 50.3223 44.1918 50.5733 45.0482C50.615 44.849 50.6671 44.656 50.7281 44.4721C50.9438 43.8209 50.1832 42.454 51.1974 42.0303C51.8558 41.7553 53.1896 42.2194 53.9613 42.2253C54.6978 42.2655 55.1809 42.8253 55.4663 43.61C56.2473 42.209 57.7779 41.5973 60.0005 43.374C60.0106 43.5523 60.0242 43.7578 60.0377 43.9836C59.9866 45.0019 59.9314 46.2689 59.9157 47.6266C59.7306 48.5385 59.3699 49.3223 58.7004 49.7016C57.9636 49.71 57.257 49.7231 56.5933 49.749C56.366 49.6759 56.1242 49.5812 55.8672 49.4632L55.8345 49.144Z" fill="#F9F9F9"/>
<path d="M37.218 43.858C38.2653 42.4176 36.5926 41.5312 41.4597 41.6408C44.9514 41.7194 51.1427 41.4211 57.2459 41.9963C76.042 41.6454 78.3105 41.7466 79.4773 44.2472C79.0999 44.6028 38.6715 47.4815 38.2139 47.7289C36.9581 46.492 35.8682 45.0797 34.7945 43.8034C36.553 43.0865 35.8397 42.7874 37.218 43.858Z" fill="#F9F9F9"/>
<path d="M40.0337 45.6587L40.3115 45.22C40.3793 45.107 40.5251 45.0296 40.6941 45.0309C40.928 45.0327 41.1178 45.1844 41.118 45.3698C41.1181 45.4261 41.1006 45.4791 41.0696 45.5255L40.9239 45.7556C41.162 47.8693 43.7573 49.4602 45.3833 46.846L45.6404 46.2353C45.6935 46.0986 45.8545 46.0001 46.045 46.0016C46.2767 46.0034 46.4651 46.1522 46.4688 46.3351L46.4804 46.8198C47.4317 48.5865 48.8459 49.0794 50.199 46.8559L50.4768 46.4171C50.5446 46.3042 50.6904 46.2268 50.8594 46.2281C51.0933 46.2299 51.2831 46.3816 51.2833 46.567L51.2837 47.0051C52.074 48.555 53.598 49.9407 54.659 47.4764L54.6719 47.0336C54.6764 46.8515 54.864 46.7065 55.095 46.7083C55.264 46.7096 55.4101 46.7892 55.4781 46.9033L55.7567 47.3463C57.2815 48.5981 59.4747 50.1223 59.4715 47.0778L59.4709 46.4066C59.4707 46.2213 59.6601 46.0726 59.894 46.0744C59.9129 46.0745 59.9314 46.0756 59.9496 46.0776C59.9141 47.1985 59.8962 48.4399 59.9265 49.6911C58.5927 49.7008 57.3289 49.7117 56.2034 49.7662C53.2349 49.9098 45.8426 51.06 43.0919 49.9184C41.4914 49.2541 40.211 48.0168 39.0806 46.6184C39.4625 46.3568 39.7951 46.0356 40.0337 45.6587Z" fill="#F9F9F9"/>
<path d="M60.2414 49.0793C60.0539 48.8796 59.8932 48.6448 59.7592 48.3847C59.7125 48.4941 59.6627 48.5924 59.61 48.678C59.5771 48.7313 59.5417 48.7849 59.5038 48.8384C59.8162 47.2338 59.9875 45.0335 59.9075 43.4119C60.6999 42.1036 62.1981 41.5786 64.3613 43.2844C64.4656 44.89 64.861 48.704 63.0513 49.6529C62.3652 49.6686 61.6835 49.6769 61.0143 49.6828C60.7836 49.6106 60.538 49.5164 60.2766 49.3983L60.2414 49.0793Z" fill="#F9F9F9"/>
<path d="M59.7976 46.7588C59.8253 46.783 59.8486 46.8103 59.8667 46.8401L60.1488 47.2815C61.6835 48.5242 63.8885 50.0354 63.8613 46.9908L63.8553 46.3196C63.8536 46.1343 64.0419 45.9844 64.2758 45.9849C64.4448 45.9852 64.5915 46.0639 64.6604 46.1775L64.9199 46.5834C66.7733 48.0056 69.5319 49.6664 69.5 46.106L69.494 45.4349C69.4923 45.2496 69.6806 45.0996 69.9145 45.1001C70.1484 45.1005 70.3394 45.251 70.341 45.4364L70.3447 45.849C70.8957 46.8068 71.5136 47.761 72.6802 48.2447C69.0356 49.7098 63.7139 49.6581 59.3062 49.6955C59.5181 48.9194 59.6892 47.8626 59.7976 46.7588Z" fill="#F9F9F9"/>
<path d="M76.9267 44.6668C76.9404 44.666 76.9547 44.6657 76.9694 44.6657C77.397 44.6664 77.4001 45.0053 77.4001 45.0053L77.3556 45.0795C77.3908 45.1367 77.4238 45.1936 77.4547 45.25C77.4139 45.2822 77.3731 45.3144 77.3323 45.3466C77.2443 45.1046 77.109 44.8739 76.9267 44.6668Z" fill="#F9F9F9"/>
<path d="M70.5131 48.9045C70.366 48.9042 70.2696 48.8636 70.2065 48.8106C70.1394 48.7609 70.0876 48.6847 70.0865 48.5681C70.0865 48.562 70.0866 48.5561 70.0868 48.5502C70.0895 48.1398 69.8885 47.5846 69.6936 46.9919C69.5862 47.3095 69.3915 47.6047 69.0944 47.8638C69.1289 47.8904 69.1612 47.9249 69.1894 47.9691C69.3815 48.2696 69.0041 48.419 69.0041 48.419C62.8984 50.8356 64.9937 43.8842 65.4271 41.787C66.9998 42.1491 68.6389 43.4659 69.3841 44.871C69.4554 44.5713 69.6106 44.3011 69.8881 44.0801C70.679 43.4504 75.8908 43.122 76.6924 43.4211C76.8406 43.6402 76.9731 43.8508 77.0904 44.0531C77.9779 43.2013 78.9077 43.1307 79.7122 43.479C77.4635 45.1347 75.4654 47.1005 72.7612 48.2121C72.0748 48.4942 71.3274 48.7214 70.5367 48.9045L70.5131 48.9045Z" fill="#F9F9F9"/>
<path d="M81.6766 44.1316C82.5099 46.1495 74.6301 47.4556 65.977 47.4794C52.8938 47.4538 36.6305 47.8425 37.664 45.9653C28.3813 39.0917 22.1943 28.7887 22.1943 28.7887C22.6302 29.1409 30.3654 35.7881 30.8119 36.1082C31.7311 36.7672 34.2746 39.5337 36.2557 40.2398C39.6696 41.4566 43.7466 41.6019 45.4376 42.2017C51.0522 44.1933 50.3804 44.0931 56.3026 43.913C59.5421 43.8144 62.783 42.973 65.977 42.9672C68.6634 42.9757 72.0604 43.9019 75.7366 42.9159C78.4013 42.2011 82.2002 39.8567 85.2655 37.2028C90.3896 32.7662 94.3892 27.4646 94.3892 27.4646C94.3892 27.4646 92.965 27.7487 93.7983 29.7666L81.6766 44.1316Z" fill="#AF7060"/>
<path d="M94.5696 26.8646C94.5696 30.6529 84.0227 43.0743 77.9273 49.0587C74.623 51.2405 74.884 51.8043 71.6401 53.3967C68.657 54.861 60.0153 53.5366 57.1052 53.5366C54.4468 53.5366 49.2391 55.1587 46.3842 54.3424C41.5646 52.9642 39.3673 48.6469 35.8835 45.5352C31.1583 41.3145 21.543 31.1203 21.543 27.8992C21.543 26.6402 35.4723 42.8553 41.7083 42.5544C46.2996 42.835 52.2125 44.7952 56.4265 44.7952C61.9019 44.7952 70.6616 43.1683 74.5017 43.732C87.3773 40.7501 94.3119 25.3929 94.3119 26.8648L94.5696 26.8646Z" fill="#DC8D79"/>
<path d="M61.2105 54.7759C57.7567 54.6727 54.4046 55.3419 51.0106 55.4433C47.9369 55.4433 43.3941 55.5715 41.541 51.5837C42.6045 52.3537 43.5873 53.318 44.7822 53.5341C46.7328 54.5308 48.8885 54.1087 51.0106 54.1087C52.571 54.1831 54.7158 53.6209 56.2419 53.1255C57.8539 52.6024 59.68 53.5144 61.2105 53.4413C61.3588 53.4413 61.5051 53.4424 61.6496 53.4443C63.9959 54.1896 66.5116 54.1087 68.9818 54.1087C69.4703 54.094 69.9283 53.9983 70.3621 53.8377C67.3068 55.5215 64.6112 54.7759 61.2105 54.7759Z" fill="#AF7060"/>
</svg>
