<svg width="115" height="72" viewBox="0 0 115 72" fill="none" xmlns="http://www.w3.org/2000/svg">
<path d="M14.5507 11.5545C36.0586 1.59818 56.7019 1.27079 72.7797 0.621794C89.3061 -0.0453065 115.263 4.54663 114.448 26.0927C115.008 85.1569 22.8306 77.7288 6.56369 53.5352C1.37866 45.8237 -6.95726 21.5107 14.5507 11.5545Z" fill="#F8BC99"/>
<path opacity="0.02" fill-rule="evenodd" clip-rule="evenodd" d="M58.4687 4.42254C59.1992 4.3133 59.7554 4.591 60.1365 5.2565C59.7862 6.7792 59.7862 8.44699 60.1365 10.2599C55.3757 9.37256 54.8195 7.42708 58.4687 4.42254Z" fill="#222222"/>
<path opacity="0.01" fill-rule="evenodd" clip-rule="evenodd" d="M97.775 18.6377C98.0434 19.9321 98.8796 20.4899 100.283 20.3101C100.005 20.8678 99.7258 21.4247 99.4473 21.9824C98.3327 22.2608 98.3327 22.5402 99.4473 22.8186C99.4148 23.7242 99.1353 24.5603 98.6111 25.327C99.5409 25.9667 100.099 26.8029 100.283 27.8356C97.7857 27.4609 96.9497 26.2067 97.775 24.0728C97.336 23.4942 96.7783 23.0761 96.1026 22.8186C95.2464 23.95 94.1317 24.5077 92.7579 24.4909C92.5388 23.255 92.8173 22.1405 93.5941 21.1462C94.0841 21.3209 94.5022 21.6003 94.8484 21.9824C95.7113 20.7055 96.6871 19.5909 97.775 18.6377Z" fill="#050505"/>
<path opacity="0.01" fill-rule="evenodd" clip-rule="evenodd" d="M64.3121 46.2229C62.9144 46.7925 62.3582 47.9048 62.6442 49.5585C61.521 50.1181 60.5478 50.1181 59.7255 49.5585C59.4662 47.844 59.0492 46.1761 58.4746 44.5551C58.7314 43.8812 59.1484 43.325 59.7255 42.8872C60.5595 43.9988 61.3933 43.9988 62.2271 42.8872C63.1403 43.882 63.8351 44.9945 64.3121 46.2229Z" fill="black"/>
<path opacity="0.01" d="M64.3275 46.2319C64.8711 46.4861 65.4288 46.7645 65.9999 47.0681C66.9407 50.4295 67.9156 53.7742 68.9265 57.1022C69.8037 56.2518 70.7795 56.1122 71.8532 56.6841C72.2621 58.5312 73.0982 60.0639 74.3616 61.2831C74.5489 63.1954 75.1067 65.0066 76.034 66.7183C75.8811 68.1265 75.3232 68.2652 74.3616 67.1363C74.5084 67.6331 74.621 68.0818 74.6993 68.4826C73.2242 68.7153 71.727 68.9039 70.2109 69.0503C69.5435 68.4973 68.9759 67.8593 68.5083 67.1364C69.1222 66.1262 69.4006 65.0116 69.3446 63.7917C69.0661 63.7917 68.7868 63.7917 68.5083 63.7917C68.2224 63.091 67.6655 62.8117 66.836 62.9555C66.4538 61.0766 65.6177 59.4042 64.3275 57.9384C64.6059 57.3807 64.8852 56.8237 65.1636 56.266C63.993 54.1463 63.1568 51.9162 62.6551 49.5766C62.3683 47.9185 62.9261 46.803 64.3275 46.2319ZM71.0171 62.5374C69.9167 62.0958 69.3588 62.514 69.3446 63.7917C70.0044 63.555 70.5622 63.1369 71.0171 62.5374ZM72.6894 65.8819C73.1443 66.4814 73.7018 66.8997 74.3616 67.1363C74.3474 65.8587 73.7898 65.4404 72.6894 65.8819Z" fill="#1B1B1B"/>
<path fill-rule="evenodd" clip-rule="evenodd" d="M89.9931 2.2644C91.5099 2.26439 94.2636 2.26442 87.4307 4.56398C87.1803 7.2066 85.7575 8.48764 83.1602 8.40743V10.9697L89.9931 10.5427C91.0991 13.4687 92.523 16.1738 94.2636 18.6567C91.0504 18.7864 87.9194 19.3561 84.8685 20.3649C83.1747 20.0958 82.0362 19.2417 81.452 17.8026C83.3986 16.764 85.1068 15.4829 86.5766 13.9592C85.643 11.2944 84.362 11.1518 82.7332 13.5322C82.3208 12.7225 82.1789 11.8683 82.3061 10.9699C81.1496 11.1058 79.9769 10.9596 78.8896 10.5429C81.6783 8.61351 84.2406 6.33549 86.5766 3.70993C89.4747 1.93679 86.6279 2.48471 89.9931 2.2644Z" fill="#E9B191"/>
<path fill-rule="evenodd" clip-rule="evenodd" d="M86.5716 3.70991C84.2356 6.33547 81.6731 8.61329 78.8845 10.5428C79.9717 10.9597 81.1444 11.1058 82.3009 10.9699C82.1736 11.8684 82.3155 12.7224 82.728 13.5321C84.3568 11.1517 85.6378 11.2943 86.5714 13.9592C85.1014 15.4829 83.3933 16.7641 81.4468 17.8027C81.6338 16.7991 81.3496 15.945 80.5928 15.2404C79.4381 16.1098 78.5838 17.2484 78.0304 18.6568C76.6101 17.4824 75.4707 17.7668 74.614 19.5109C73.4755 17.233 72.336 17.233 71.1976 19.5109C69.9207 18.4818 68.7822 18.4818 67.7812 19.5109C66.9339 19.364 66.3652 19.6492 66.0731 20.365C64.7561 21.0491 63.3329 21.3335 61.8024 21.219C62.1603 18.8062 61.3064 16.9562 59.2402 15.6674C61.1987 13.9908 63.4765 12.9941 66.0731 12.678L67.7814 9.26156C69.0437 8.4519 69.898 7.31338 70.3437 5.84525C70.114 7.49277 70.541 8.91574 71.6249 10.1157C73.5928 8.16835 74.874 5.89128 75.4685 3.28278H79.7389C79.8064 2.06139 79.5215 1.77618 78.8845 0.720518C79.7385 0.720518 81.8742 0.720518 81.8742 0.720518H84.0519C84.1962 1.4866 84.4381 -0.221557 84.8635 0.720518C85.9598 0.720518 88.2799 1.13701 88.2799 1.57457C89.0817 1.57457 90.2958 2.3511 86.5716 3.70991Z" fill="#F0B694"/>
<path fill-rule="evenodd" clip-rule="evenodd" d="M81.4512 17.8028C82.0354 19.2421 83.1738 20.0962 84.8675 20.3652C87.9183 19.3565 91.0496 18.7868 94.2627 18.6569V19.5111V20.3651C92.8295 22.2169 91.1212 22.502 89.1379 21.2192C85.7608 21.6146 82.4555 22.4772 79.3158 23.7814C76.3769 22.7658 73.3875 21.9118 70.3477 21.2192C68.5371 22.3911 67.6831 21.8213 67.7856 19.5109C68.7867 18.4818 69.9251 18.4818 71.202 19.5109C72.3405 17.233 73.4798 17.233 74.6182 19.5109C75.4748 17.7669 76.6143 17.4824 78.0346 18.6568C78.588 17.2484 79.4423 16.11 80.597 15.2405C81.3537 15.9451 81.6383 16.7992 81.4512 17.8028Z" fill="#F4B996"/>
<path d="M97.3977 26.7937C97.3977 26.7937 93.9472 32.95 87.4532 38.2501C80.5541 43.8809 70.2553 48.6755 58.2573 48.6755C34.9662 48.6755 20.4951 28.0585 20.4951 28.0585C20.4951 28.0585 33.0367 25.4023 56.3279 25.4023C79.619 25.4023 97.3977 26.7937 97.3977 26.7937Z" fill="#482520"/>
<path opacity="0.02" fill-rule="evenodd" clip-rule="evenodd" d="M59.4774 4.80449C60.2605 4.69703 60.8567 4.97018 61.2652 5.62489C60.8897 7.1229 60.8897 8.76359 61.2652 10.5471C56.162 9.67417 55.5658 7.76028 59.4774 4.80449Z" fill="#222222"/>
<path opacity="0.01" fill-rule="evenodd" clip-rule="evenodd" d="M54.1146 8.90625C55.7567 9.02028 56.0544 9.56753 55.0085 10.547C54.2951 10.1722 53.9976 9.62493 54.1146 8.90625Z" fill="black"/>
<path opacity="0.01" fill-rule="evenodd" clip-rule="evenodd" d="M65.7349 45.8235C64.2367 46.3839 63.6405 47.4782 63.9471 49.105C62.7431 49.6556 61.6999 49.6556 60.8184 49.105C60.5404 47.4183 60.0934 45.7776 59.4775 44.1828C59.7528 43.5199 60.1998 42.9727 60.8184 42.542C61.7124 43.6355 62.6062 43.6355 63.5 42.542C64.4788 43.5207 65.2236 44.6151 65.7349 45.8235Z" fill="black"/>
<path opacity="0.01" fill-rule="evenodd" clip-rule="evenodd" d="M56.7959 44.1826C57.9874 44.7298 57.9874 44.7298 56.7959 44.1826Z" fill="black"/>
<path opacity="0.01" fill-rule="evenodd" clip-rule="evenodd" d="M57.6899 56.4882C55.5313 57.0796 53.7434 58.1732 52.3266 59.7696C49.956 57.7999 50.2537 56.1592 53.2205 54.8474C54.1912 54.749 54.7875 54.2017 55.0083 53.2066C54.9698 52.4551 54.6721 51.908 54.1143 51.5659C54.8661 50.0244 55.1647 48.3836 55.0083 46.6436C56.19 46.7831 57.2332 46.5099 58.1369 45.8232C58.9147 46.3221 59.3616 47.0055 59.4778 47.8742C58.7725 49.2081 57.8786 50.4387 56.7961 51.5659C57.0142 53.2477 57.3118 54.8884 57.6899 56.4882Z" fill="#121212"/>
<path d="M31.2134 26.4805L31.249 26.426C31.333 26.3181 31.5152 26.18 31.7639 26.0254C33.9362 25.3492 35.7518 24.7389 36.6372 24.6264C40.706 24.1091 51.672 22.0201 55.275 22.0201L55.6024 21.9506C58.1809 24.5051 62.98 22.0009 66.9102 21.0037C69.2987 21.1271 87.9558 25.365 89.7001 26.0254C90.0398 26.426 89.7001 29.4119 86.8025 31.0369C85.4439 31.7989 67.2241 34.5709 58.279 34.1746C48.7771 33.7537 35.7728 33.4055 32.5074 31.0369C31.2134 30.0984 28.4344 27.5506 28.3887 26.426C28.3887 26.426 30.8773 26.5473 31.2134 26.4805Z" fill="#F9F9F9"/>
<path d="M83.7922 30.9553L83.9117 31.1234C83.8558 31.1359 83.8002 31.149 83.7451 31.1631C83.7604 31.0937 83.776 31.0246 83.7922 30.9553Z" fill="#F9F9F9"/>
<path d="M76.936 31.6295C76.9406 31.6578 76.942 31.6888 76.9374 31.7208C76.9371 31.681 76.9369 31.6567 76.9369 31.6567L76.8457 31.6573C76.8747 31.5551 76.9018 31.4541 76.9274 31.3542L76.936 31.6295Z" fill="#F9F9F9"/>
<path d="M57.4028 45.6996C57.2169 45.4988 57.0582 45.2632 56.9261 45.0023C56.8787 45.1113 56.8281 45.2093 56.7746 45.2946C56.4772 45.7692 55.97 46.266 55.4174 46.5132C55.0775 46.5455 54.7226 46.5797 54.3569 46.6142C54.1409 46.5441 53.9341 46.4076 53.7468 46.1876L53.8434 46.3739C53.8434 46.3739 53.4199 46.3706 53.4196 46.035C53.4195 45.9801 53.4308 45.9343 53.4497 45.896C52.5193 45.1907 52.1076 44.1343 52.036 43.0712C51.0493 45.383 47.3344 46.3884 47.2076 42.9559C47.0474 42.9071 46.9672 42.7796 46.9672 42.7796C45.5689 40.4679 48.5313 36.2228 51.5941 38.8488C52.0347 39.2266 51.8907 40.7475 52.1416 41.6038C52.1834 41.4046 52.2355 41.2117 52.2964 41.0278C52.5121 40.3766 51.7516 39.0096 52.7658 38.586C53.4242 38.311 54.758 38.775 55.5297 38.781C56.2662 38.8212 56.7493 39.381 57.0347 40.1657C57.8157 38.7646 59.3463 38.1529 61.5688 39.9297C61.579 40.108 61.5925 40.3135 61.6061 40.5393C61.555 41.5575 61.4998 42.8246 61.4841 44.1822C61.299 45.0942 60.9383 45.8779 60.2687 46.2573C59.532 46.2657 58.8253 46.2788 58.1617 46.3047C57.9344 46.2316 57.6926 46.1369 57.4355 46.0188L57.4028 45.6996Z" fill="#F9F9F9"/>
<path d="M36.3623 39.359C38.3795 37.5519 39.7818 37.1964 43.0276 37.1964C46.5193 37.275 52.7106 36.9768 58.8138 37.5519C77.6099 37.201 79.8784 37.3022 81.0452 39.8028C80.6678 40.1584 47.6084 49.8882 39.7818 43.2845C38.526 42.0476 37.4361 40.6353 36.3623 39.359C35.0106 40.3481 38.1209 38.6421 36.3623 39.359Z" fill="#F9F9F9"/>
<path d="M41.6011 42.2144L41.8788 41.7756C41.9466 41.6626 42.0925 41.5853 42.2615 41.5866C42.4954 41.5884 42.6852 41.7401 42.6854 41.9254C42.6854 41.9818 42.668 42.0348 42.637 42.0812L42.4913 42.3113C42.7294 44.425 45.3246 46.0159 46.9507 43.4016L47.2078 42.7909C47.2609 42.6542 47.4219 42.5558 47.6124 42.5573C47.8441 42.559 48.0325 42.7079 48.0362 42.8908L48.0477 43.3754C48.9991 45.1421 50.4133 45.635 51.7664 43.4116L52.0441 42.9728C52.1119 42.8598 52.2578 42.7825 52.4268 42.7838C52.6607 42.7856 52.8505 42.9373 52.8507 43.1226L52.8511 43.5607C53.6414 45.1106 55.1654 46.4964 56.2264 44.0321L56.2393 43.5893C56.2438 43.4072 56.4314 43.2622 56.6623 43.264C56.8314 43.2653 56.9774 43.3449 57.0455 43.4589L57.3241 43.902C58.8489 45.1538 61.042 46.678 61.0389 43.6334L61.0382 42.9623C61.038 42.777 61.2275 42.6282 61.4614 42.63C61.4802 42.6302 61.4988 42.6313 61.517 42.6333C61.4815 43.7542 61.4636 44.9956 61.4939 46.2467C60.16 46.2564 58.8963 46.2674 57.7708 46.3218C54.8023 46.4654 47.41 47.6157 44.6593 46.4741C43.0588 45.8098 41.7784 44.5724 40.648 43.174C41.0299 42.9125 41.3625 42.5912 41.6011 42.2144Z" fill="#F9F9F9"/>
<path d="M61.8097 45.6349C61.6222 45.4352 61.4616 45.2005 61.3275 44.9404C61.2809 45.0497 61.2311 45.1481 61.1783 45.2337C61.1455 45.2869 61.11 45.3405 61.0722 45.394C61.3845 43.7895 61.5559 41.5892 61.4758 39.9675C62.2683 38.6592 63.7665 38.1343 65.9297 39.8401C66.0339 41.4456 66.4293 45.2597 64.6196 46.2086C63.9335 46.2243 63.2519 46.2326 62.5826 46.2385C62.352 46.1663 62.1064 46.0721 61.8449 45.954L61.8097 45.6349Z" fill="#F9F9F9"/>
<path d="M61.3659 43.3145C61.3936 43.3387 61.417 43.366 61.435 43.3958L61.7172 43.8372C63.2518 45.0799 65.4569 46.5911 65.4296 43.5465L65.4236 42.8753C65.422 42.69 65.6102 42.5401 65.8441 42.5405C66.0132 42.5408 66.1598 42.6196 66.2288 42.7332L66.4882 43.1391C68.3416 44.5613 71.1002 46.222 71.0684 42.6617L71.0624 41.9905C71.0607 41.8052 71.249 41.6553 71.4829 41.6557C71.7168 41.6562 71.9077 41.8067 71.9094 41.992L71.9131 42.4046C72.4641 43.3625 73.0819 44.3166 74.2485 44.8004C70.604 46.2655 65.2823 46.2137 60.8746 46.2512C61.0865 45.4751 61.2576 44.4183 61.3659 43.3145Z" fill="#F9F9F9"/>
<path d="M78.4951 41.2225C78.5088 41.2217 78.5231 41.2213 78.5378 41.2213C78.9654 41.2221 78.9684 41.5609 78.9684 41.5609L78.924 41.6352C78.9591 41.6924 78.9922 41.7492 79.0231 41.8057C78.9823 41.8379 78.9415 41.8701 78.9007 41.9023C78.8127 41.6603 78.6774 41.4295 78.4951 41.2225Z" fill="#F9F9F9"/>
<path d="M72.0817 45.4599C71.9346 45.4597 71.8382 45.419 71.7751 45.3661C71.708 45.3163 71.6562 45.2402 71.6551 45.1236C71.6551 45.1175 71.6552 45.1115 71.6554 45.1056C71.6582 44.6952 71.4571 44.1401 71.2623 43.5474C71.1548 43.865 70.9601 44.1602 70.6631 44.4193C70.6975 44.4459 70.7298 44.4803 70.7581 44.5245C70.9501 44.825 70.5727 44.9744 70.5727 44.9744C64.4671 47.391 65.0849 40.4875 65.5183 38.3903C67.0911 38.7524 70.2075 40.0213 70.9527 41.4265C71.024 41.1267 71.1792 40.8565 71.4567 40.6356C72.2476 40.0058 77.4595 39.6775 78.261 39.9766C78.4092 40.1957 78.5417 40.4062 78.659 40.6086C79.5465 39.7567 80.4764 39.6862 81.2808 40.0344C79.0321 41.6902 77.034 43.6559 74.3298 44.7675C73.6434 45.0497 72.8961 45.2768 72.1054 45.4599L72.0817 45.4599Z" fill="#F9F9F9"/>
<path opacity="0.01" d="M65.7351 45.8237C66.3162 46.0731 66.9124 46.3463 67.5229 46.6441C68.5286 49.942 69.5709 53.2236 70.6515 56.4886C71.5892 55.6543 72.6324 55.5173 73.7802 56.0784C74.2173 57.8906 75.1111 59.3944 76.4617 60.5905C76.662 62.4667 77.2582 64.2437 78.2495 65.923C78.086 67.3046 77.4897 67.4406 76.4617 66.3331C76.6186 66.8205 76.739 67.2607 76.8227 67.6539C75.2458 67.8822 73.6452 68.0673 72.0245 68.2109C71.311 67.6684 70.7043 67.0425 70.2045 66.3331C70.8606 65.3421 71.1583 64.2485 71.0984 63.0517C70.8008 63.0517 70.5021 63.0517 70.2045 63.0517C69.8988 62.3642 69.3035 62.0902 68.4167 62.2313C68.0081 60.3879 67.1143 58.7471 65.735 57.309C66.0327 56.7618 66.3313 56.2154 66.6289 55.6682C65.3775 53.5885 64.4835 51.4006 63.9472 49.1052C63.6406 47.4784 64.2369 46.384 65.7351 45.8237ZM72.8864 61.8211C71.71 61.3878 71.1136 61.7981 71.0984 63.0517C71.8037 62.8195 72.4001 62.4093 72.8864 61.8211ZM74.6741 65.1024C75.1603 65.6906 75.7564 66.101 76.4617 66.3331C76.4465 65.0797 75.8505 64.6692 74.6741 65.1024Z" fill="#1B1B1B"/>
<path d="M32.9622 23.6353C32.7299 23.7386 32.4969 23.8386 32.2627 23.934C32.4958 23.832 32.7288 23.7315 32.9622 23.6353Z" fill="#9B6F5D"/>
<path opacity="0.01" fill-rule="evenodd" clip-rule="evenodd" d="M94.2867 15.8955C95.6885 16.4668 96.2464 17.5825 95.9595 19.241C95.1231 19.241 94.2867 19.241 93.4504 19.241C93.3944 18.0207 93.6727 16.9058 94.2867 15.8955Z" fill="#0A0A0A"/>
<path opacity="0.01" fill-rule="evenodd" clip-rule="evenodd" d="M100.141 18.4048C100.409 19.6995 101.245 20.2574 102.65 20.0776C102.371 20.6354 102.092 21.1925 101.813 21.7503C100.698 22.0288 100.698 22.3082 101.813 22.5867C101.781 23.4926 101.501 24.3289 100.977 25.0958C101.907 25.7357 102.465 26.5721 102.65 27.605C100.151 27.2303 99.315 25.9757 100.141 23.8413C99.7014 23.2625 99.1436 22.8443 98.4677 22.5867C97.6113 23.7184 96.4963 24.2762 95.1222 24.2595C94.903 23.0233 95.1816 21.9084 95.9586 20.9139C96.4487 21.0887 96.8669 21.3681 97.2132 21.7503C98.0763 20.4731 99.0524 19.3582 100.141 18.4048Z" fill="#050505"/>
<path opacity="0.01" fill-rule="evenodd" clip-rule="evenodd" d="M53.9558 51.8604C54.0119 53.0807 53.7334 54.1955 53.1195 55.2058C52.283 55.2058 51.4467 55.2058 50.6104 55.2058C50.6004 52.9962 51.7151 51.8812 53.9558 51.8604Z" fill="black"/>
<path opacity="0.01" fill-rule="evenodd" clip-rule="evenodd" d="M62.319 56.8787C61.3363 56.6955 60.4999 56.974 59.8099 57.715C60.9247 58.8299 60.9247 59.9458 59.8099 61.0606C60.1921 61.7281 60.75 62.0066 61.4827 61.897C59.3515 64.0825 57.3994 63.9428 55.6279 61.4788C56.2736 60.4576 57.11 59.6212 58.1371 58.9697C57.5081 58.4084 57.2288 57.7118 57.3007 56.8787C59.0662 55.8399 60.7391 55.8399 62.319 56.8787Z" fill="#030303"/>
<path opacity="0.01" fill-rule="evenodd" clip-rule="evenodd" d="M75.7015 61.0602C75.423 61.0602 75.1437 61.0602 74.8652 61.0602C75.1437 58.8295 75.4231 58.8295 75.7015 61.0602Z" fill="black"/>
<path opacity="0.01" fill-rule="evenodd" clip-rule="evenodd" d="M75.7012 61.0604C76.6839 60.8772 77.5204 61.1557 78.2104 61.8967C76.9124 62.9823 76.0759 62.7039 75.7012 61.0604Z" fill="black"/>
<path opacity="0.01" fill-rule="evenodd" clip-rule="evenodd" d="M62.3197 65.2422C62.9127 65.9983 63.7491 66.2768 64.8289 66.0785C64.8289 66.9149 64.8289 67.7513 64.8289 68.5877C63.8077 68.1461 62.8324 67.5882 61.9015 66.9149C61.3227 66.1312 61.4624 65.5742 62.3197 65.2422Z" fill="black"/>
<path opacity="0.012" d="M67.338 62.7334C68.1677 62.5895 68.7247 62.8688 69.0108 63.5698C68.0188 64.7917 68.0188 65.9074 69.0108 66.9153C69.4785 67.6385 70.0461 68.2767 70.7138 68.8298C68.7801 69.0165 66.816 69.1343 64.8289 69.1866C64.8289 68.9871 64.8289 68.7877 64.8289 68.5881C64.8289 67.7518 64.8289 66.9153 64.8289 66.079C63.7491 66.2772 62.9127 65.9987 62.3197 65.2426C63.5359 63.7681 63.2565 62.6523 61.4833 61.897C60.7506 62.0066 60.1928 61.7281 59.8105 61.0607C60.9254 59.9458 60.9254 58.8299 59.8105 57.7151C60.5005 56.9741 61.337 56.6955 62.3197 56.8787C63.7165 59.1085 65.3893 61.0598 67.338 62.7334Z" fill="#3D3D3D"/>
<path d="M49.2272 53.0488C49.1615 53.0613 49.0811 53.0671 48.998 53.0505C49.0744 53.0499 49.1508 53.0495 49.2272 53.0488Z" fill="#9B6F5D"/>
<path d="M48.5339 53.0537C48.4798 53.0619 48.4177 53.0647 48.3535 53.0546C48.4136 53.0543 48.4738 53.054 48.5339 53.0537Z" fill="#9B6F5D"/>
<path d="M48.4403 57.2432L48.4994 57.2236C48.5196 57.2335 48.5397 57.2431 48.5596 57.2526C49.1305 57.2993 49.6863 57.3805 50.2325 57.4826C51.0852 57.3419 51.8646 56.9059 52.8496 56.9396C53.1217 56.8057 53.4323 56.6818 53.7743 56.569C56.2808 56.4849 58.7802 56.3564 61.3472 56.3564C62.6624 56.3564 63.968 56.6967 65.2689 56.8512C65.2715 56.8524 65.2739 56.8537 65.2764 56.855L65.2778 56.8523C65.4387 56.8714 65.5994 56.8875 65.7602 56.8998L65.9207 56.9788C66.1158 57.0699 66.2508 57.2656 66.2508 57.4923C66.2508 57.719 66.1159 57.9148 65.9207 58.0059L65.4821 58.2219C64.3329 60.3665 60.0228 60.0483 57.8859 60.0483C57.1622 60.0483 56.4646 59.9819 55.7826 59.8752C53.058 59.9392 50.2046 59.8095 48.1738 58.4409L48.1091 58.5684L47.6559 58.3454C47.6046 58.3447 47.5532 58.3444 47.5016 58.3444C47.5016 58.3444 46.9248 58.3443 46.9248 57.7763C46.9248 57.2082 47.5016 57.2083 47.5016 57.2083C47.5809 57.2083 47.6597 57.2091 47.7383 57.2105C47.7553 57.2091 47.7726 57.2083 47.7902 57.2083H48.3671V57.238C48.3916 57.2396 48.4158 57.2414 48.4403 57.2432Z" fill="#DEA889"/>
<path d="M46.3147 56.9523C46.5766 56.9523 46.8385 56.9523 47.1004 56.9523C52.0249 55.0258 59.1341 56.061 64.314 56.1095C64.9591 56.3212 65.6533 56.3935 66.3332 56.3935L66.4304 56.4664L66.4458 56.4207L67.2954 56.6995C67.4426 56.7441 67.5697 56.8338 67.6601 56.9523C67.3716 56.9523 67.0832 56.9523 66.7947 56.9523C59.7486 56.9529 52.6799 57.1978 45.6133 57.2323L46.3147 56.9523Z" fill="#95725D"/>
<path d="M57.5921 46.2969C57.4017 46.0702 57.2377 45.8027 57.0998 45.5054C57.0548 45.6323 57.0064 45.7466 56.9549 45.8463C56.6683 46.4011 56.1724 46.9869 55.6254 47.2862C55.2864 47.3322 54.9324 47.3809 54.5675 47.4302C54.35 47.3549 54.1401 47.2029 53.9479 46.9543L54.0488 47.1664C54.0488 47.1664 53.6253 47.1737 53.6174 46.7869C53.6161 46.7236 53.6264 46.6705 53.6444 46.6259C52.6983 45.837 52.263 44.6299 52.1674 43.4064C51.233 46.0968 47.5417 47.3522 47.3376 43.3987C47.1764 43.3467 47.0934 43.2018 47.0934 43.2018C45.6434 40.5734 48.5095 35.6032 51.6306 38.5507C52.0796 38.9747 51.9699 40.7315 52.24 41.7122C52.2773 41.4815 52.325 41.2577 52.3818 41.0441C52.5828 40.2878 51.7917 38.7319 52.7961 38.2173C53.4481 37.8832 54.792 38.3835 55.5636 38.3703C56.3009 38.3975 56.7964 39.0303 57.0994 39.9274C57.8487 38.2921 59.3651 37.5473 61.6271 39.5377C61.6413 39.7429 61.6594 39.9794 61.6781 40.2393C61.6499 41.4144 61.6233 42.8764 61.6381 44.4418C61.4736 45.4979 61.1307 46.4106 60.4698 46.8653C59.7334 46.8941 59.0273 46.9276 58.3644 46.9746C58.1354 46.8962 57.8916 46.7934 57.632 46.664L57.5921 46.2969Z" fill="#F9F9F9"/>
<path d="M42.8455 40.0442C43.7103 38.3566 45.0868 36.6275 46.4448 37.2938C46.6799 37.4092 47.3012 42.2286 47.3223 42.767C47.4114 47.1295 42.8788 47.0184 42.2957 43.2958C41.981 43.7155 41.6075 44.0988 41.2223 44.3959C40.1285 43.0027 39.1728 41.403 38.2334 39.9597C39.7181 39.0876 41.6506 38.8458 42.8455 40.0442Z" fill="#F9F9F9"/>
<path d="M41.7163 42.6896L41.9842 42.1766C42.0494 42.0446 42.1935 41.9517 42.3625 41.9488C42.5964 41.9448 42.7895 42.1148 42.7939 42.3284C42.7952 42.3933 42.7789 42.4549 42.749 42.5091L42.6086 42.7782C42.8942 45.2085 45.5246 46.975 47.0913 43.9193L47.3347 43.2086C47.3847 43.0497 47.5434 42.932 47.7339 42.9288C47.9656 42.9248 48.1572 43.0915 48.1651 43.3023L48.1875 43.8606C49.1784 45.8724 50.6034 46.4038 51.906 43.8057L52.1739 43.2928C52.2391 43.1608 52.3831 43.0678 52.5522 43.0649C52.7861 43.0609 52.9792 43.2309 52.9836 43.4445L52.9939 43.9495C53.8189 45.7156 55.3736 47.2734 56.3789 44.4052L56.3818 43.8945C56.3822 43.6845 56.5665 43.5125 56.7974 43.5085C56.9665 43.5057 57.1143 43.5936 57.1848 43.7233L57.4734 44.2268C59.026 45.6302 61.2529 47.3302 61.1812 43.8208L61.1654 43.0472C61.1611 42.8336 61.3472 42.6572 61.581 42.6532C61.5999 42.6529 61.6185 42.6537 61.6367 42.6556C61.6264 43.9485 61.6365 45.38 61.6949 46.8214C60.3616 46.8672 59.0985 46.9126 57.9744 47.0046C55.0099 47.2471 47.6454 48.7649 44.8697 47.5204C43.2546 46.7962 41.9467 45.4031 40.7852 43.8205C41.161 43.5091 41.4863 43.1302 41.7163 42.6896Z" fill="#F9F9F9"/>
<path d="M83.9983 42.1032C84.8888 43.8909 76.4673 45.0479 67.2193 45.069C53.2367 45.0464 35.8553 45.3907 36.9599 43.7277C27.039 37.6382 20.4268 28.5104 20.4268 28.5104C20.8926 28.8225 29.1595 34.7114 29.6367 34.995C30.6191 35.5788 33.3375 38.0297 35.4548 38.6553C39.1034 39.7333 43.4607 39.862 45.2679 40.3934C51.2685 42.1578 50.5506 42.069 56.8798 41.9094C60.342 41.8221 63.8058 41.0767 67.2194 41.0716C70.0904 41.0791 73.721 41.8997 77.6499 41.0261C80.4978 40.3929 84.5579 38.3159 87.8339 35.9647C93.3103 32.0343 97.5848 27.3374 97.5848 27.3374C97.5848 27.3374 96.0627 27.5891 96.9532 29.3768L83.9983 42.1032Z" fill="#AF7060"/>
<path d="M97.7765 26.8059C97.7765 30.162 86.5045 41.1665 79.9901 46.4682C76.4586 48.4011 76.7376 48.9006 73.2706 50.3114C70.0825 51.6087 60.8467 50.4354 57.7365 50.4354C54.8953 50.4354 49.3296 51.8724 46.2785 51.1492C41.1276 49.9282 38.7792 46.1035 35.0559 43.3467C30.0059 39.6075 19.7295 30.5762 19.7295 27.7225C19.7295 26.6071 34.6165 40.9725 41.2811 40.7059C46.188 40.9545 52.5075 42.6911 57.0112 42.6911C62.863 42.6911 72.2248 41.2498 76.329 41.7493C90.0897 39.1075 97.5011 25.5021 97.5011 26.8061L97.7765 26.8059Z" fill="#DC8D79"/>
<path d="M62.1242 51.5331C58.433 51.4417 54.8505 52.0345 51.2232 52.1243C47.9382 52.1243 43.083 52.2379 41.1025 48.7051C42.2392 49.3872 43.2895 50.2415 44.5665 50.433C46.6513 51.316 48.9552 50.942 51.2232 50.942C52.8908 51.0079 55.1831 50.5098 56.814 50.071C58.5369 49.6075 60.4885 50.4155 62.1242 50.3508C62.2827 50.3508 62.4391 50.3517 62.5935 50.3534C65.1011 51.0137 67.7898 50.942 70.4298 50.942C70.9518 50.929 71.4414 50.8442 71.905 50.7019C68.6396 52.1937 65.7587 51.5331 62.1242 51.5331Z" fill="#AF7060"/>
<path d="M58.0039 21.6335C58.0677 21.3921 58.1331 21.151 58.1971 20.91C58.3083 20.9511 58.4232 20.9827 58.5426 21.0027C59.6057 21.1809 60.5071 20.7951 61.501 20.7369L61.9637 20.4718C63.4328 20.5164 64.289 19.8731 65.5905 19.4772C67.4319 18.7119 71.6494 16.5656 73.7517 17.4089C75.41 18.074 78.6073 19.2821 80.303 20.0216C83.609 21.4632 97.8108 26.0643 97.8805 26.4833C94.7226 26.3934 83.3309 21.5198 80.4791 21.5198C79.1963 20.9176 77.8741 20.5029 76.5458 20.0044C75.4444 19.4715 74.4265 18.9284 73.2979 18.3644C71.9208 17.6761 67.353 19.8243 66.0896 20.4115C66.0554 20.4238 66.0212 20.4361 65.9871 20.4484C65.3432 20.6292 64.7856 20.8562 64.2208 21.0537C63.8989 21.156 63.5753 21.2534 63.2479 21.3443C62.9212 21.4205 62.5768 21.4754 62.2 21.4969C62.1676 21.5545 62.1244 21.5997 62.0766 21.6352C61.862 21.6818 61.6449 21.7252 61.425 21.765C60.9219 21.7817 60.4275 21.889 59.9211 21.9706C59.5698 22.0032 59.2096 22.0257 58.839 22.0369C58.5527 21.9252 58.2753 21.7881 58.0039 21.6335Z" fill="#AF7060"/>
<path d="M99.7589 26.8475C96.2898 27.1663 82.8836 27.167 79.6192 26.7882C74.3353 26.175 71.8861 28.4353 60.5665 28.0431C58.5172 27.9721 57.3257 28.1654 55.769 28.0858C44.2346 27.4958 44.4623 26.5211 40.2616 27.5208C34.2185 28.959 21.2969 27.4612 17.9988 27.5546C17.198 27.5772 31.2194 24.2945 32.9094 23.5505C36.8497 22.2035 41.6497 18.6633 46.7625 18.1989C51.1566 17.7998 54.4557 21.543 58.8183 21.543C62.9738 21.543 68.7898 17.9011 72.5704 18.0066C75.8921 18.0994 79.1742 21.033 81.722 21.6264C84.1888 22.2009 99.7589 26.8475 99.7589 26.8475Z" fill="#C9816E"/>
<path d="M58.9822 22.0368C58.6345 22.0256 58.2966 22.0032 57.9671 21.9706C57.4919 21.889 57.028 21.7816 56.556 21.765C56.3497 21.7253 56.1461 21.6819 55.9447 21.6352C55.8998 21.5997 55.8594 21.5546 55.829 21.4969C55.4755 21.4753 55.1524 21.4204 54.8458 21.3442C54.5386 21.2534 54.235 21.1559 53.933 21.0536C53.4031 20.8561 52.8798 20.6292 52.2757 20.4484C52.2437 20.4361 52.2116 20.4237 52.1795 20.4115C50.994 19.8244 46.7085 17.6761 45.4165 18.3644C44.3576 18.9285 43.4027 19.4716 42.3693 20.0044C34.5406 23.9498 20.4635 26.6847 18.2705 27.3017C18.7909 27.0674 33.1876 22.9795 33.6214 22.7024C35.9738 21.918 38.3092 20.7713 40.5048 19.7508C42.0958 19.0114 43.4348 18.0741 44.9907 17.4089C46.9632 16.5657 50.9201 18.7119 52.6478 19.4771C53.8689 19.8731 54.6724 20.5164 56.0507 20.4719L56.4847 20.7369C57.4172 20.7951 58.2629 21.1809 59.2604 21.0028C59.3723 20.9828 59.4801 20.9512 59.5844 20.9101C59.6445 21.1511 59.706 21.3921 59.7657 21.6335C59.5111 21.7882 59.2509 21.925 58.9822 22.0368Z" fill="#AF7060"/>
<path d="M78.6545 27.7229C77.3825 27.6579 72.7031 27.3241 70.6022 27.9626C69.6478 27.9493 68.781 28.5657 67.8596 28.731C64.8291 29.2745 61.3699 29.2619 58.2753 29.2619C54.8586 29.2619 51.1411 29.2228 47.9072 28.4959C47.8368 28.4801 41.1986 28.0598 40.1974 28.261C33.9638 29.5139 30.2113 28.7327 27.3948 28.6018C27.1888 27.9555 19.0356 27.9461 18.9307 27.2202C19.0963 27.2014 31.3674 28.609 35.8498 27.2785C40.7841 26.6697 43.2774 25.9704 44.1457 25.8146C44.9605 25.8885 48.0738 27.0625 48.6686 27.2074C51.795 27.9691 55.4697 27.9456 58.781 27.9456C61.7674 27.9456 64.6965 28.2878 67.6039 27.7245C67.6256 27.7203 67.6473 27.7158 67.6689 27.7112C67.7827 27.7108 67.8964 27.7106 68.0099 27.7106C71.2809 27.6444 78.4588 25.126 78.4588 25.126C78.9776 25.2953 81.1181 25.7744 81.6334 25.9871C81.9157 26.1368 99.2866 26.8139 99.6101 26.9846C99.6711 27.0169 82.3398 27.4521 82.1946 27.4521L78.6545 27.7229Z" fill="#AF7060"/>
</svg>
