<svg width="115" height="75" viewBox="0 0 115 75" fill="none" xmlns="http://www.w3.org/2000/svg">
<path d="M87.6424 30.2577C87.6424 33.2489 77.2512 38.9937 62.4895 38.9937C47.7277 38.9937 27.0391 34.2336 27.0391 31.2424C27.0391 28.2512 47.7277 28.1616 62.4895 28.1616C77.2512 28.1616 87.6424 27.2665 87.6424 30.2577Z" fill="#482520"/>
<path d="M32.903 29.4984L32.9328 29.4634C33.0034 29.3941 33.1564 29.3054 33.3651 29.2061C35.189 28.7717 36.7134 28.3797 37.4569 28.3074C40.8731 27.9752 50.0803 26.6333 53.1054 26.6333L53.3803 26.5887C55.5453 28.2295 59.5746 26.621 62.8745 25.9805C64.88 26.0598 80.5447 28.7819 82.0093 29.2061C82.2945 29.4634 82.0093 31.3813 79.5764 32.4251C78.4357 32.9145 63.1381 34.6951 55.6277 34.4405C47.6497 34.1701 36.7311 33.9465 33.9894 32.4251C32.903 31.8223 30.5696 30.1857 30.5312 29.4634C30.5312 29.4634 32.6208 29.5413 32.903 29.4984Z" fill="#F9F9F9"/>
<path opacity="0.02" fill-rule="evenodd" clip-rule="evenodd" d="M58.6975 7.01831C59.4302 6.90875 59.988 7.18726 60.3703 7.85475C60.0189 9.38199 60.0189 11.0547 60.3703 12.873C55.5953 11.9831 55.0374 10.0318 58.6975 7.01831Z" fill="#222222"/>
<path opacity="0.01" fill-rule="evenodd" clip-rule="evenodd" d="M53.6794 11.2002C55.2159 11.3165 55.4944 11.8744 54.5158 12.873C53.8483 12.4908 53.5699 11.9329 53.6794 11.2002Z" fill="black"/>
<path opacity="0.01" fill-rule="evenodd" clip-rule="evenodd" d="M92.1529 18.728C93.5547 19.2993 94.1126 20.415 93.8257 22.0735C92.9893 22.0735 92.1529 22.0735 91.3166 22.0735C91.2606 20.8532 91.5389 19.7383 92.1529 18.728Z" fill="#0A0A0A"/>
<path opacity="0.01" fill-rule="evenodd" clip-rule="evenodd" d="M98.0077 21.2373C98.2762 22.532 99.1125 23.0899 100.517 22.9101C100.238 23.468 99.959 24.025 99.6805 24.5828C98.5656 24.8613 98.5656 25.1407 99.6805 25.4193C99.6479 26.3251 99.3684 27.1614 98.844 27.9283C99.774 28.5682 100.332 29.4046 100.517 30.4375C98.0184 30.0628 97.1822 28.8082 98.0077 26.6738C97.5686 26.095 97.0108 25.6768 96.3349 25.4193C95.4784 26.5509 94.3635 27.1088 92.9893 27.092C92.7702 25.8558 93.0487 24.741 93.8258 23.7465C94.3159 23.9212 94.734 24.2006 95.0804 24.5828C95.9435 23.3056 96.9195 22.1907 98.0077 21.2373Z" fill="#050505"/>
<path opacity="0.01" fill-rule="evenodd" clip-rule="evenodd" d="M64.5521 48.8383C63.1503 49.4095 62.5924 50.5252 62.8793 52.1838C61.7527 52.7451 60.7766 52.7451 59.9519 52.1838C59.6918 50.4642 59.2735 48.7914 58.6973 47.1655C58.9548 46.4896 59.3731 45.9318 59.9519 45.4927C60.7883 46.6075 61.6247 46.6075 62.461 45.4927C63.3768 46.4905 64.0737 47.6062 64.5521 48.8383Z" fill="black"/>
<path opacity="0.01" fill-rule="evenodd" clip-rule="evenodd" d="M56.1885 47.165C57.3033 47.7229 57.3033 47.7229 56.1885 47.165Z" fill="black"/>
<path opacity="0.01" fill-rule="evenodd" clip-rule="evenodd" d="M57.0246 59.7109C55.0048 60.314 53.3319 61.4288 52.0063 63.0564C49.7881 61.0483 50.0667 59.3756 52.8426 58.0381C53.7509 57.9378 54.3088 57.3799 54.5154 56.3653C54.4794 55.5992 54.2009 55.0414 53.679 54.6926C54.3824 53.121 54.6618 51.4482 54.5154 49.6742C55.6211 49.8164 56.5972 49.5379 57.4428 48.8379C58.1705 49.3465 58.5887 50.0432 58.6974 50.9289C58.0375 52.2888 57.2011 53.5434 56.1883 54.6926C56.3923 56.4072 56.6708 58.08 57.0246 59.7109Z" fill="#121212"/>
<path opacity="0.01" fill-rule="evenodd" clip-rule="evenodd" d="M53.6795 54.6929C53.7355 55.9132 53.457 57.028 52.8431 58.0384C52.0067 58.0384 51.1703 58.0384 50.3341 58.0384C50.324 55.8287 51.4388 54.7137 53.6795 54.6929Z" fill="black"/>
<path opacity="0.01" d="M64.5516 48.8379C65.0953 49.0922 65.6531 49.3706 66.2244 49.6743C67.1654 53.0365 68.1406 56.3821 69.1518 59.7109C70.0292 58.8604 71.0052 58.7207 72.0792 59.2927C72.4882 61.1403 73.3245 62.6734 74.5882 63.8929C74.7756 65.8057 75.3335 67.6173 76.261 69.3295C76.108 70.738 75.5501 70.8767 74.5882 69.7476C74.7351 70.2445 74.8477 70.6933 74.926 71.0941C73.4506 71.3269 71.9529 71.5156 70.4365 71.662C69.7688 71.1089 69.2011 70.4707 68.7335 69.7476C69.3474 68.7372 69.626 67.6223 69.5699 66.4021C69.2914 66.4021 69.012 66.4021 68.7335 66.4021C68.4474 65.7012 67.8904 65.4218 67.0607 65.5657C66.6784 63.6863 65.8421 62.0135 64.5515 60.5473C64.83 59.9895 65.1095 59.4324 65.3879 58.8745C64.217 56.7542 63.3805 54.5236 62.8787 52.1834C62.5919 50.5248 63.1498 49.4091 64.5516 48.8379ZM71.2429 65.1474C70.1422 64.7058 69.5842 65.124 69.5699 66.4021C70.2299 66.1654 70.7879 65.7472 71.2429 65.1474ZM72.9156 68.4928C73.3706 69.0925 73.9283 69.5109 74.5882 69.7476C74.574 68.4696 74.0163 68.0512 72.9156 68.4928Z" fill="#1B1B1B"/>
<path opacity="0.01" fill-rule="evenodd" clip-rule="evenodd" d="M62.0427 59.7112C61.0599 59.528 60.2235 59.8065 59.5335 60.5476C60.6484 61.6624 60.6484 62.7783 59.5335 63.8932C59.9158 64.5606 60.4736 64.8391 61.2063 64.7295C59.0752 66.915 57.123 66.7753 55.3516 64.3113C55.9973 63.2901 56.8336 62.4537 57.8607 61.8022C57.2318 61.2409 56.9524 60.5443 57.0243 59.7112C58.7899 58.6724 60.4627 58.6724 62.0427 59.7112Z" fill="#030303"/>
<path opacity="0.01" fill-rule="evenodd" clip-rule="evenodd" d="M75.4251 63.8927C75.1466 63.8927 74.8673 63.8927 74.5889 63.8927C74.8674 61.6621 75.1467 61.6621 75.4251 63.8927Z" fill="black"/>
<path opacity="0.01" fill-rule="evenodd" clip-rule="evenodd" d="M75.4248 63.8929C76.4075 63.7097 77.2441 63.9882 77.9341 64.7292C76.636 65.8148 75.7995 65.5364 75.4248 63.8929Z" fill="black"/>
<path opacity="0.01" fill-rule="evenodd" clip-rule="evenodd" d="M62.0433 68.0747C62.6364 68.8308 63.4727 69.1093 64.5525 68.9111C64.5525 69.7474 64.5525 70.5839 64.5525 71.4202C63.5313 70.9786 62.556 70.4207 61.6251 69.7474C61.0464 68.9638 61.186 68.4067 62.0433 68.0747Z" fill="black"/>
<path opacity="0.012" d="M67.0616 65.5659C67.8914 65.422 68.4483 65.7014 68.7344 66.4023C67.7425 67.6243 67.7425 68.7399 68.7344 69.7478C69.2021 70.471 69.7697 71.1092 70.4374 71.6623C68.5037 71.849 66.5397 71.9668 64.5525 72.0191C64.5525 71.8196 64.5525 71.6202 64.5525 71.4207C64.5525 70.5843 64.5525 69.7479 64.5525 68.9115C63.4727 69.1097 62.6363 68.8312 62.0433 68.0751C63.2595 66.6006 62.9801 65.4848 61.207 64.7295C60.4743 64.8391 59.9164 64.5607 59.5342 63.8932C60.649 62.7783 60.649 61.6625 59.5342 60.5476C60.2242 59.8066 61.0606 59.5281 62.0433 59.7112C63.4401 61.941 65.1129 63.8923 67.0616 65.5659Z" fill="#3D3D3D"/>
<path d="M48.9509 55.8813C48.8851 55.8939 48.8048 55.8997 48.7217 55.883C48.7981 55.8824 48.8745 55.882 48.9509 55.8813Z" fill="#9B6F5D"/>
<path d="M48.2575 55.8862C48.2034 55.8944 48.1414 55.8972 48.0771 55.8871C48.1372 55.8868 48.1974 55.8865 48.2575 55.8862Z" fill="#9B6F5D"/>
<path d="M33.8879 26.2168C33.6706 26.3222 33.4525 26.4241 33.2334 26.5214C33.4515 26.4174 33.6695 26.315 33.8879 26.2168Z" fill="#9B6F5D"/>
<path d="M48.0096 48.7483L48.0688 48.7371C48.0889 48.7427 48.109 48.7482 48.1289 48.7536C48.6998 48.7804 49.2556 48.8268 49.8018 48.8853C50.6545 48.8048 51.434 48.5552 52.4189 48.5745C52.691 48.4978 53.0017 48.427 53.3436 48.3624C55.8501 48.3142 58.3495 48.2407 60.9165 48.2407C62.2317 48.2407 63.5373 48.4355 64.8383 48.5239C64.8408 48.5246 64.8433 48.5253 64.8457 48.5261L64.8472 48.5246C65.008 48.5355 65.1687 48.5447 65.3295 48.5517L65.49 48.597C65.6851 48.6491 65.8201 48.7611 65.8201 48.8909C65.8201 49.0206 65.6852 49.1327 65.49 49.1848L65.0514 49.3084C63.9023 50.5359 59.5921 50.3538 57.4552 50.3538C56.7316 50.3538 56.0339 50.3158 55.3519 50.2547C52.6273 50.2913 49.7739 50.2171 47.7431 49.4338L47.6784 49.5068L47.2253 49.3791C47.174 49.3787 47.1226 49.3785 47.071 49.3785C47.071 49.3785 46.4941 49.3785 46.4941 49.0534C46.4941 48.7283 47.071 48.7283 47.071 48.7283C47.1502 48.7283 47.2291 48.7287 47.3076 48.7296C47.3246 48.7287 47.342 48.7283 47.3595 48.7283H47.9364V48.7453C47.9609 48.7463 47.9852 48.7472 48.0096 48.7483Z" fill="#DEA889"/>
<path d="M45.884 48.5816C46.1459 48.5816 46.4078 48.5816 46.6698 48.5816C51.5942 47.4789 58.7035 48.0715 63.8833 48.0992C64.5284 48.2204 65.2226 48.2617 65.9026 48.2617L65.9997 48.3035L66.0151 48.2773L66.8647 48.4369C67.0119 48.4624 67.139 48.5137 67.2294 48.5816C66.9409 48.5816 66.6525 48.5816 66.364 48.5816C59.3179 48.5819 52.2493 48.7221 45.1826 48.7419L45.884 48.5816Z" fill="#95725D"/>
<path d="M56.2305 24.1757C56.2791 23.9297 56.3289 23.6839 56.3776 23.4382C56.4623 23.4801 56.5498 23.5123 56.6407 23.5327C57.4504 23.7143 58.137 23.3211 58.894 23.2617L59.2463 22.9915C60.3652 23.0368 61.0173 22.3811 62.0086 21.9773C63.4111 21.1972 66.6232 19.009 68.2243 19.8687C69.4873 20.5468 71.9225 21.7785 73.214 22.5324C75.7319 24.0022 86.5483 28.693 86.6013 29.1202C84.1962 29.0286 75.52 24.0598 73.348 24.0598C72.371 23.4459 71.364 23.0231 70.3523 22.5149C69.5135 21.9716 68.7383 21.4179 67.8787 20.8429C66.8298 20.1411 63.3509 22.3313 62.3887 22.9299C62.3626 22.9425 62.3366 22.955 62.3106 22.9675C61.8202 23.1519 61.3955 23.3833 60.9653 23.5846C60.7202 23.689 60.4737 23.7883 60.2244 23.881C59.9756 23.9586 59.7132 24.0146 59.4263 24.0366C59.4016 24.0953 59.3687 24.1414 59.3323 24.1775C59.1688 24.2251 59.0035 24.2693 58.836 24.3099C58.4529 24.3269 58.0763 24.4363 57.6906 24.5195C57.4231 24.5527 57.1488 24.5757 56.8665 24.5871C56.6484 24.4732 56.4372 24.3334 56.2305 24.1757Z" fill="#AF7060"/>
<path d="M88.0317 29.4913C85.3895 29.8164 75.1791 29.817 72.6929 29.4308C68.6685 28.8056 66.8032 31.11 58.1819 30.7102C56.6212 30.6379 55.7137 30.8348 54.5281 30.7537C45.7432 30.1522 45.9166 29.1585 42.7172 30.1777C38.1147 31.644 28.2734 30.117 25.7615 30.2121C25.1515 30.2352 35.8306 26.8885 37.1177 26.1299C40.1187 24.7567 43.7744 21.1473 47.6685 20.6739C51.0152 20.2671 53.5278 24.0833 56.8504 24.0833C60.0154 24.0833 64.4449 20.3703 67.3244 20.4779C69.8542 20.5725 72.3539 23.5633 74.2944 24.1683C76.1731 24.754 88.0317 29.4913 88.0317 29.4913Z" fill="#C9816E"/>
<path d="M56.9748 24.587C56.7099 24.5756 56.4526 24.5527 56.2016 24.5195C55.8397 24.4363 55.4864 24.3268 55.1269 24.3099C54.9698 24.2693 54.8147 24.2251 54.6613 24.1775C54.6271 24.1414 54.5963 24.0953 54.5732 24.0366C54.3039 24.0145 54.0579 23.9585 53.8244 23.8809C53.5904 23.7882 53.3591 23.6889 53.1291 23.5846C52.7255 23.3833 52.327 23.1519 51.8669 22.9675C51.8425 22.955 51.8181 22.9424 51.7936 22.9299C50.8907 22.3314 47.6268 20.1411 46.6428 20.8429C45.8363 21.418 45.109 21.9717 44.3219 22.5148C38.3594 26.5373 27.638 29.3255 25.9678 29.9546C26.3641 29.7158 37.3289 25.5481 37.6594 25.2655C39.451 24.4658 41.2297 23.2967 42.9019 22.2564C44.1136 21.5025 45.1335 20.5469 46.3184 19.8687C47.8207 19.009 50.8344 21.1971 52.1503 21.9773C53.0803 22.381 53.6922 23.0369 54.7419 22.9915L55.0725 23.2617C55.7827 23.321 56.4269 23.7144 57.1866 23.5328C57.2718 23.5124 57.3539 23.4801 57.4333 23.4383C57.4791 23.684 57.5259 23.9296 57.5714 24.1758C57.3775 24.3334 57.1794 24.473 56.9748 24.587Z" fill="#AF7060"/>
<path d="M71.9577 30.3839C70.9889 30.3176 67.4249 29.9773 65.8249 30.6283C65.098 30.6148 64.4378 31.2432 63.736 31.4117C61.4279 31.9658 58.7933 31.9529 56.4365 31.9529C53.8342 31.9529 51.0029 31.9131 48.5399 31.172C48.4863 31.1559 43.4304 30.7274 42.6679 30.9325C37.9203 32.2099 35.0623 31.4134 32.9172 31.28C32.7603 30.621 26.5506 30.6115 26.4707 29.8714C26.5968 29.8522 35.9428 31.2873 39.3567 29.9309C43.1148 29.3102 45.0137 28.5972 45.675 28.4384C46.2956 28.5137 48.6667 29.7107 49.1197 29.8584C51.5009 30.6349 54.2996 30.611 56.8216 30.611C59.0961 30.611 61.3269 30.9598 63.5413 30.3855C63.5578 30.3813 63.5744 30.3767 63.5908 30.372C63.6775 30.3716 63.7641 30.3714 63.8505 30.3714C66.3418 30.3039 71.8086 27.7363 71.8086 27.7363C72.2038 27.909 73.834 28.3974 74.2265 28.6143C74.4415 28.7669 87.6715 29.4572 87.9178 29.6312C87.9643 29.6641 74.7644 30.1079 74.6539 30.1079L71.9577 30.3839Z" fill="#AF7060"/>
<path d="M75.6843 36.7822C76.3625 38.2757 69.9485 39.2422 62.9051 39.2599C52.2556 39.241 39.0176 39.5286 39.8588 38.1393C32.3029 33.0522 26.6943 30.4913 26.6943 30.4913C27.0491 30.752 36.642 33.52 38.2546 34.0426C41.0334 34.9431 44.81 34.91 46.1864 35.3539C50.7566 36.8279 50.2098 36.7537 55.0303 36.6204C57.6672 36.5474 60.3053 35.9247 62.9051 35.9204C65.0918 35.9267 67.8569 36.6122 70.8492 35.8824C71.8962 35.6271 75.4398 34.6775 78.4705 33.4722C81.7188 32.1804 84.429 30.6368 84.429 30.6368C84.429 30.6368 86.3614 28.7369 87.0397 30.2303L75.6843 36.7822Z" fill="#AF7060"/>
<path d="M67.5141 43.6392C65.0859 44.723 58.0518 43.7428 55.683 43.7428C53.5191 43.7428 48.9598 45.3166 46.6361 44.7124C38.081 42.2564 34.1105 40.7828 33.0872 39.5946C30.0582 34.6019 26.8506 32.3097 26.8506 30.5364C26.8506 29.6046 36.8147 35.8376 41.8907 35.6149C45.6279 35.8226 51.7005 37.2733 55.1306 37.2733C59.5875 37.2733 67.6623 36.0692 70.7882 36.4865C81.2686 34.2795 87.5717 28.9628 87.5717 30.0522C87.5717 30.0522 86.8707 35.7086 82.4076 37.7525C81.7471 38.055 79.7099 39.2894 78.8278 39.5946C74.8054 40.9864 69.6797 42.6727 67.5141 43.6392Z" fill="#DC8D79"/>
<path d="M59.0245 44.6601C56.2132 44.5837 53.4847 45.079 50.722 45.154C48.2201 45.154 34.6187 42.773 33.1104 39.8217C33.976 40.3915 44.6796 43.5811 45.6522 43.741C47.24 44.4787 48.9947 44.1663 50.722 44.1663C51.9921 44.2213 53.738 43.8052 54.9801 43.4386C56.2923 43.0514 57.7787 43.7264 59.0245 43.6723C59.1452 43.6723 59.2643 43.6731 59.3819 43.6746C60.3318 43.9489 65.6127 43.5427 69.9954 42.4427C74.4249 41.331 77.957 39.5239 78.9677 39.5239C79.3653 39.5131 71.0725 43.4656 71.4255 43.3467C68.9386 44.5929 61.7926 44.6601 59.0245 44.6601Z" fill="#AF7060"/>
<path d="M14.5507 14.5545C36.0586 4.59818 56.7018 4.27079 72.7797 3.62179C89.3061 2.95469 115.263 7.54663 114.448 29.0927C115.008 88.1569 22.8306 80.7288 6.56367 56.5352C1.37864 48.8237 -6.95728 24.5107 14.5507 14.5545Z" fill="#F8BC99"/>
<path d="M93.9263 28.4023C93.9263 28.4023 93.947 32.7539 87.4531 35.8097C80.5539 39.0561 70.2551 41.8205 58.2571 41.8205C34.966 41.8205 27.6455 30.6392 27.6455 30.6392C27.6455 30.6392 33.0365 28.4023 56.3277 28.4023C79.6188 28.4023 93.9263 28.4023 93.9263 28.4023Z" fill="#482520"/>
<path opacity="0.02" fill-rule="evenodd" clip-rule="evenodd" d="M59.4774 7.80449C60.2605 7.69703 60.8567 7.97018 61.2652 8.62489C60.8897 10.1229 60.8897 11.7636 61.2652 13.5471C56.162 12.6742 55.5658 10.7603 59.4774 7.80449Z" fill="#222222"/>
<path opacity="0.01" fill-rule="evenodd" clip-rule="evenodd" d="M54.1146 11.9062C55.7567 12.0203 56.0544 12.5675 55.0085 13.547C54.2951 13.1722 53.9976 12.6249 54.1146 11.9062Z" fill="black"/>
<path opacity="0.01" fill-rule="evenodd" clip-rule="evenodd" d="M65.7349 48.8235C64.2367 49.3839 63.6405 50.4782 63.9471 52.105C62.7431 52.6556 61.6999 52.6556 60.8184 52.105C60.5404 50.4183 60.0934 48.7776 59.4775 47.1828C59.7528 46.5199 60.1998 45.9727 60.8184 45.542C61.7124 46.6355 62.6062 46.6355 63.5 45.542C64.4788 46.5207 65.2236 47.6151 65.7349 48.8235Z" fill="black"/>
<path opacity="0.01" fill-rule="evenodd" clip-rule="evenodd" d="M56.7959 47.1826C57.9874 47.7298 57.9874 47.7298 56.7959 47.1826Z" fill="black"/>
<path opacity="0.01" fill-rule="evenodd" clip-rule="evenodd" d="M57.6899 59.4882C55.5313 60.0796 53.7434 61.1732 52.3266 62.7696C49.956 60.7999 50.2537 59.1592 53.2205 57.8474C54.1912 57.749 54.7875 57.2017 55.0083 56.2066C54.9698 55.4551 54.6721 54.908 54.1143 54.5659C54.8661 53.0244 55.1647 51.3836 55.0083 49.6436C56.19 49.7831 57.2332 49.5099 58.1369 48.8232C58.9147 49.3221 59.3616 50.0055 59.4778 50.8742C58.7725 52.2081 57.8786 53.4387 56.7961 54.5659C57.0142 56.2477 57.3118 57.8884 57.6899 59.4882Z" fill="#121212"/>
<path d="M31.3853 28.095L31.4209 28.0405C31.5049 27.9326 31.6871 27.7945 31.9357 27.6399C34.1081 26.9637 35.9237 26.3534 36.8091 26.2409C40.8779 25.7236 51.8439 23.6346 55.4469 23.6346L55.7742 23.5651C58.3528 26.1196 63.1519 23.6154 67.0821 22.6182C69.4706 22.7416 88.1277 26.9795 89.872 27.6399C90.2117 28.0405 89.872 31.0264 86.9744 32.6515C85.6158 33.4134 67.396 36.1854 58.4509 35.7891C48.949 35.3682 35.9447 35.02 32.6793 32.6515C31.3853 31.7129 28.6063 29.1651 28.5605 28.0405C28.5605 28.0405 31.0492 28.1618 31.3853 28.095Z" fill="#F9F9F9"/>
<path d="M83.9641 32.5699L84.0836 32.7379C84.0277 32.7504 83.9721 32.7635 83.917 32.7776C83.9323 32.7082 83.9478 32.6391 83.9641 32.5699Z" fill="#F9F9F9"/>
<path d="M77.1079 33.244C77.1125 33.2723 77.1138 33.3033 77.1093 33.3353C77.1089 33.2955 77.1087 33.2712 77.1087 33.2712L77.0176 33.2718C77.0466 33.1696 77.0736 33.0686 77.0993 32.9688L77.1079 33.244Z" fill="#F9F9F9"/>
<path opacity="0.01" d="M65.7351 48.8237C66.3162 49.0731 66.9124 49.3463 67.5229 49.6441C68.5286 52.942 69.5709 56.2236 70.6515 59.4886C71.5892 58.6543 72.6324 58.5173 73.7802 59.0784C74.2173 60.8906 75.1111 62.3944 76.4617 63.5905C76.662 65.4667 77.2582 67.2437 78.2495 68.923C78.086 70.3046 77.4897 70.4406 76.4617 69.3331C76.6186 69.8205 76.739 70.2607 76.8227 70.6539C75.2458 70.8822 73.6452 71.0673 72.0245 71.2109C71.311 70.6684 70.7043 70.0425 70.2045 69.3331C70.8606 68.3421 71.1583 67.2485 71.0984 66.0517C70.8008 66.0517 70.5021 66.0517 70.2045 66.0517C69.8988 65.3642 69.3035 65.0902 68.4167 65.2313C68.0081 63.3879 67.1143 61.7471 65.735 60.309C66.0327 59.7618 66.3313 59.2154 66.6289 58.6682C65.3775 56.5885 64.4835 54.4006 63.9472 52.1052C63.6406 50.4784 64.2369 49.384 65.7351 48.8237ZM72.8864 64.8211C71.71 64.3878 71.1136 64.7981 71.0984 66.0517C71.8037 65.8195 72.4001 65.4093 72.8864 64.8211ZM74.6741 68.1024C75.1603 68.6906 75.7564 69.101 76.4617 69.3331C76.4465 68.0797 75.8505 67.6692 74.6741 68.1024Z" fill="#1B1B1B"/>
<path d="M32.9622 26.6353C32.7299 26.7386 32.4969 26.8386 32.2627 26.934C32.4958 26.832 32.7288 26.7315 32.9622 26.6353Z" fill="#9B6F5D"/>
<path opacity="0.01" fill-rule="evenodd" clip-rule="evenodd" d="M94.2867 18.8955C95.6885 19.4668 96.2464 20.5825 95.9595 22.241C95.1231 22.241 94.2867 22.241 93.4504 22.241C93.3944 21.0207 93.6727 19.9058 94.2867 18.8955Z" fill="#0A0A0A"/>
<path opacity="0.01" fill-rule="evenodd" clip-rule="evenodd" d="M100.141 21.4048C100.409 22.6995 101.245 23.2574 102.65 23.0776C102.371 23.6354 102.092 24.1925 101.813 24.7503C100.698 25.0288 100.698 25.3082 101.813 25.5867C101.781 26.4926 101.501 27.3289 100.977 28.0958C101.907 28.7357 102.465 29.5721 102.65 30.605C100.151 30.2303 99.315 28.9757 100.141 26.8413C99.7014 26.2625 99.1436 25.8443 98.4677 25.5867C97.6113 26.7184 96.4963 27.2762 95.1222 27.2595C94.903 26.0233 95.1816 24.9084 95.9586 23.9139C96.4487 24.0887 96.8669 24.3681 97.2132 24.7503C98.0763 23.4731 99.0524 22.3582 100.141 21.4048Z" fill="#050505"/>
<path opacity="0.01" fill-rule="evenodd" clip-rule="evenodd" d="M53.9558 54.8604C54.0119 56.0807 53.7334 57.1955 53.1195 58.2058C52.283 58.2058 51.4467 58.2058 50.6104 58.2058C50.6004 55.9962 51.7151 54.8812 53.9558 54.8604Z" fill="black"/>
<path opacity="0.01" fill-rule="evenodd" clip-rule="evenodd" d="M62.319 59.8787C61.3363 59.6955 60.4999 59.974 59.8099 60.715C60.9247 61.8299 60.9247 62.9458 59.8099 64.0606C60.1921 64.7281 60.75 65.0066 61.4827 64.897C59.3515 67.0825 57.3994 66.9428 55.6279 64.4788C56.2736 63.4576 57.11 62.6212 58.1371 61.9697C57.5081 61.4084 57.2288 60.7118 57.3007 59.8787C59.0662 58.8399 60.7391 58.8399 62.319 59.8787Z" fill="#030303"/>
<path opacity="0.01" fill-rule="evenodd" clip-rule="evenodd" d="M75.7015 64.0602C75.423 64.0602 75.1437 64.0602 74.8652 64.0602C75.1437 61.8295 75.4231 61.8295 75.7015 64.0602Z" fill="black"/>
<path opacity="0.01" fill-rule="evenodd" clip-rule="evenodd" d="M75.7012 64.0604C76.6839 63.8772 77.5204 64.1557 78.2104 64.8967C76.9124 65.9823 76.0759 65.7039 75.7012 64.0604Z" fill="black"/>
<path opacity="0.01" fill-rule="evenodd" clip-rule="evenodd" d="M62.3197 68.2422C62.9127 68.9983 63.7491 69.2768 64.8289 69.0785C64.8289 69.9149 64.8289 70.7513 64.8289 71.5877C63.8077 71.1461 62.8324 70.5882 61.9015 69.9149C61.3227 69.1312 61.4624 68.5742 62.3197 68.2422Z" fill="black"/>
<path opacity="0.012" d="M67.338 65.7334C68.1677 65.5895 68.7247 65.8688 69.0108 66.5698C68.0188 67.7917 68.0188 68.9074 69.0108 69.9153C69.4785 70.6385 70.0461 71.2767 70.7138 71.8298C68.7801 72.0165 66.816 72.1343 64.8289 72.1866C64.8289 71.9871 64.8289 71.7877 64.8289 71.5881C64.8289 70.7518 64.8289 69.9153 64.8289 69.079C63.7491 69.2772 62.9127 68.9987 62.3197 68.2426C63.5359 66.7681 63.2565 65.6523 61.4833 64.897C60.7506 65.0066 60.1928 64.7281 59.8105 64.0607C60.9254 62.9458 60.9254 61.8299 59.8105 60.7151C60.5005 59.9741 61.337 59.6955 62.3197 59.8787C63.7165 62.1085 65.3893 64.0598 67.338 65.7334Z" fill="#3D3D3D"/>
<path d="M49.2272 56.0488C49.1615 56.0613 49.0811 56.0671 48.998 56.0505C49.0744 56.0499 49.1508 56.0495 49.2272 56.0488Z" fill="#9B6F5D"/>
<path d="M48.5339 56.0537C48.4798 56.0619 48.4177 56.0647 48.3535 56.0546C48.4136 56.0543 48.4738 56.054 48.5339 56.0537Z" fill="#9B6F5D"/>
<path d="M50.3133 55.6822L50.3725 55.6626C50.3926 55.6725 50.4127 55.6821 50.4326 55.6915C51.0035 55.7383 51.5594 55.8194 52.1055 55.9215C52.9583 55.7809 53.7377 55.3449 54.7227 55.3786C54.9948 55.2446 55.3054 55.1208 55.6473 55.008C58.1538 54.9238 60.6532 54.7954 63.2202 54.7954C64.5354 54.7954 65.841 55.1356 67.142 55.2902C67.1445 55.2914 67.147 55.2927 67.1495 55.2939L67.1509 55.2913C67.3117 55.3104 67.4725 55.3265 67.6332 55.3388L67.7938 55.4178C67.9889 55.5088 68.1238 55.7046 68.1238 55.9313C68.1238 56.158 67.989 56.3538 67.7938 56.4449L67.3551 56.6609C66.206 58.8055 61.8958 58.4872 59.759 58.4872C59.0353 58.4872 58.3376 58.4208 57.6556 58.3141C54.9311 58.3781 52.0776 58.2485 50.0468 56.8799L49.9821 57.0074L49.529 56.7843C49.4777 56.7837 49.4263 56.7833 49.3747 56.7833C49.3747 56.7833 48.7979 56.7833 48.7979 56.2152C48.7979 55.6472 49.3747 55.6473 49.3747 55.6473C49.4539 55.6473 49.5328 55.648 49.6113 55.6495C49.6283 55.648 49.6457 55.6473 49.6632 55.6473H50.2401V55.6769C50.2647 55.6786 50.2889 55.6804 50.3133 55.6822Z" fill="#DEA889"/>
<path d="M48.1877 55.3912C48.4496 55.3912 48.7115 55.3912 48.9735 55.3912C53.8979 53.4647 61.0072 54.5 66.1871 54.5485C66.8321 54.7602 67.5264 54.8324 68.2063 54.8324L68.3034 54.9054L68.3188 54.8597L69.1685 55.1385C69.3157 55.183 69.4427 55.2727 69.5331 55.3912C69.2446 55.3912 68.9563 55.3912 68.6678 55.3912C61.6217 55.3918 54.553 55.6367 47.4863 55.6713L48.1877 55.3912Z" fill="#95725D"/>
<path d="M85.8101 36.1463C86.7006 37.4134 76.5085 38.2335 67.2606 38.2484C53.2779 38.2324 35.8966 38.4764 37.0011 37.2977C27.0803 32.9815 24.5547 29.3339 24.5547 29.3339C25.0205 29.5551 29.2008 30.9071 29.678 31.1081C30.6604 31.5219 33.0845 33.4692 35.2018 33.9126C39.1617 35.4151 39.8851 35.5755 41.5887 35.7648C47.9118 36.4674 50.3552 35.5282 56.6845 35.4151C60.1467 35.3532 63.847 35.4187 67.2606 35.4151C70.4578 36.1463 74.3161 36.7655 78.245 36.1463C81.0929 35.6974 84.5991 33.4619 87.8751 31.7954C93.3515 29.0095 91.6806 29.3339 91.6806 29.3339C91.6806 29.3339 93.6487 28.0668 94.5392 29.3339L85.8101 36.1463Z" fill="#AF7060"/>
<path d="M94.5386 29.6808C94.5386 32.7404 86.5045 37.1753 79.9901 42.0085C76.4586 43.7706 76.7376 44.2259 73.2706 45.512C70.0824 46.6946 60.8467 45.625 57.7365 45.625C54.8953 45.625 49.3296 46.9351 46.2785 46.2758C41.1275 45.1627 38.7791 41.6759 35.0559 39.1628C30.0058 35.7539 25.4434 32.2823 25.4434 29.6808C25.4434 28.664 34.878 36.9984 41.5427 36.7553C46.4496 36.982 53.8417 36.4333 58.3454 36.4333C64.1972 36.4333 72.2248 37.2512 76.329 37.7065C90.0897 35.2981 87.8318 31.7821 92.7838 28.3538L94.5386 29.6808Z" fill="#DC8D79"/>
<path d="M62.1242 46.6258C58.433 46.5424 54.8505 47.0828 51.2232 47.1647C47.9382 47.1647 43.083 47.2683 41.1025 44.0476C42.2392 44.6694 43.2895 45.4483 44.5665 45.6228C46.6513 46.4278 48.9552 46.0869 51.2232 46.0869C52.8908 46.147 55.1831 45.6929 56.814 45.2928C58.5369 44.8703 60.4885 45.6069 62.1242 45.5479C62.2827 45.5479 62.4391 45.5487 62.5935 45.5503C65.1011 46.1522 67.7898 46.0869 70.4298 46.0869C70.9518 46.075 71.4414 45.9977 71.905 45.868C68.6396 47.2279 65.7587 46.6258 62.1242 46.6258Z" fill="#AF7060"/>
<path opacity="0.02" fill-rule="evenodd" clip-rule="evenodd" d="M55.4687 4.42254C56.1992 4.3133 56.7554 4.591 57.1365 5.2565C56.7862 6.7792 56.7862 8.44699 57.1365 10.2599C52.3757 9.37256 51.8195 7.42708 55.4687 4.42254Z" fill="#222222"/>
<path opacity="0.01" fill-rule="evenodd" clip-rule="evenodd" d="M94.775 18.6377C95.0434 19.9321 95.8796 20.4899 97.2835 20.3101C97.005 20.8678 96.7258 21.4247 96.4473 21.9824C95.3327 22.2608 95.3327 22.5402 96.4473 22.8186C96.4148 23.7242 96.1353 24.5603 95.6111 25.327C96.5409 25.9667 97.0986 26.8029 97.2835 27.8356C94.7857 27.4609 93.9497 26.2067 94.775 24.0728C94.336 23.4942 93.7783 23.0761 93.1026 22.8186C92.2464 23.95 91.1317 24.5077 89.7579 24.4909C89.5388 23.255 89.8173 22.1405 90.5941 21.1462C91.0841 21.3209 91.5022 21.6003 91.8484 21.9824C92.7113 20.7055 93.6871 19.5909 94.775 18.6377Z" fill="#050505"/>
<path opacity="0.01" fill-rule="evenodd" clip-rule="evenodd" d="M61.3121 46.2229C59.9144 46.7925 59.3582 47.9048 59.6442 49.5585C58.521 50.1181 57.5478 50.1181 56.7255 49.5585C56.4662 47.844 56.0492 46.1761 55.4746 44.5551C55.7314 43.8812 56.1484 43.325 56.7255 42.8872C57.5595 43.9988 58.3933 43.9988 59.2271 42.8872C60.1403 43.882 60.8351 44.9945 61.3121 46.2229Z" fill="black"/>
<path opacity="0.01" d="M61.3275 46.2319C61.8711 46.4861 62.4288 46.7645 62.9999 47.0681C63.9407 50.4295 64.9156 53.7742 65.9265 57.1022C66.8037 56.2518 67.7795 56.1122 68.8532 56.6841C69.2621 58.5312 70.0982 60.0639 71.3616 61.2831C71.5489 63.1954 72.1067 65.0066 73.034 66.7183C72.8811 68.1265 72.3232 68.2652 71.3616 67.1363C71.5084 67.6331 71.621 68.0818 71.6993 68.4826C70.2242 68.7153 68.727 68.9039 67.2109 69.0503C66.5435 68.4973 65.9759 67.8593 65.5083 67.1364C66.1222 66.1262 66.4006 65.0116 66.3446 63.7917C66.0661 63.7917 65.7868 63.7917 65.5083 63.7917C65.2224 63.091 64.6655 62.8117 63.836 62.9555C63.4538 61.0766 62.6177 59.4042 61.3275 57.9384C61.6059 57.3807 61.8852 56.8237 62.1636 56.266C60.993 54.1463 60.1568 51.9162 59.6551 49.5766C59.3683 47.9185 59.9261 46.803 61.3275 46.2319ZM68.0171 62.5374C66.9167 62.0958 66.3588 62.514 66.3446 63.7917C67.0044 63.555 67.5622 63.1369 68.0171 62.5374ZM69.6894 65.8819C70.1443 66.4814 70.7018 66.8997 71.3616 67.1363C71.3474 65.8587 70.7898 65.4404 69.6894 65.8819Z" fill="#1B1B1B"/>
<path fill-rule="evenodd" clip-rule="evenodd" d="M86.9931 2.2644C88.5099 2.26439 91.2636 2.26442 84.4307 4.56398C84.1803 7.2066 82.7575 8.48764 80.1602 8.40743V10.9697L86.9931 10.5427C88.0991 13.4687 89.523 16.1738 91.2636 18.6567C88.0504 18.7864 84.9194 19.3561 81.8685 20.3649C80.1747 20.0958 79.0362 19.2417 78.452 17.8026C80.3986 16.764 82.1068 15.4829 83.5766 13.9592C82.643 11.2944 81.362 11.1518 79.7332 13.5322C79.3208 12.7225 79.1789 11.8683 79.3061 10.9699C78.1496 11.1058 76.9769 10.9596 75.8896 10.5429C78.6783 8.61351 81.2406 6.33549 83.5766 3.70993C86.4747 1.93679 83.6279 2.48471 86.9931 2.2644Z" fill="#E9B191"/>
<path fill-rule="evenodd" clip-rule="evenodd" d="M83.5716 3.70991C81.2356 6.33547 78.6731 8.61329 75.8845 10.5428C76.9717 10.9597 78.1444 11.1058 79.3009 10.9699C79.1736 11.8684 79.3155 12.7224 79.728 13.5321C81.3568 11.1517 82.6378 11.2943 83.5714 13.9592C82.1014 15.4829 80.3933 16.7641 78.4468 17.8027C78.6338 16.7991 78.3496 15.945 77.5928 15.2404C76.4381 16.1098 75.5838 17.2484 75.0304 18.6568C73.6101 17.4824 72.4707 17.7668 71.614 19.5109C70.4755 17.233 69.336 17.233 68.1976 19.5109C66.9207 18.4818 65.7822 18.4818 64.7812 19.5109C63.9339 19.364 63.3652 19.6492 63.0731 20.365C61.7561 21.0491 60.3329 21.3335 58.8024 21.219C59.1603 18.8062 58.3064 16.9562 56.2402 15.6674C58.1987 13.9908 60.4765 12.9941 63.0731 12.678L64.7814 9.26156C66.0437 8.4519 66.898 7.31338 67.3437 5.84525C67.114 7.49277 67.541 8.91574 68.6249 10.1157C70.5928 8.16835 71.874 5.89128 72.4685 3.28278H76.7389C76.8064 2.06139 76.5215 1.77618 75.8845 0.720518C76.7385 0.720518 78.8742 0.720518 78.8742 0.720518H81.0519C81.1962 1.4866 81.4381 -0.221557 81.8635 0.720518C82.9598 0.720518 85.2799 1.13701 85.2799 1.57457C86.0817 1.57457 87.2958 2.3511 83.5716 3.70991Z" fill="#F0B694"/>
<path fill-rule="evenodd" clip-rule="evenodd" d="M78.4512 17.8028C79.0354 19.2421 80.1738 20.0962 81.8675 20.3652C84.9183 19.3565 88.0496 18.7868 91.2627 18.6569V19.5111V20.3651C89.8295 22.2169 88.1212 22.502 86.1379 21.2192C82.7608 21.6146 79.4555 22.4772 76.3158 23.7814C73.3769 22.7658 70.3875 21.9118 67.3477 21.2192C65.5371 22.3911 64.6831 21.8213 64.7856 19.5109C65.7867 18.4818 66.9251 18.4818 68.202 19.5109C69.3405 17.233 70.4798 17.233 71.6182 19.5109C72.4748 17.7669 73.6143 17.4824 75.0346 18.6568C75.588 17.2484 76.4423 16.11 77.597 15.2405C78.3537 15.9451 78.6383 16.7992 78.4512 17.8028Z" fill="#F4B996"/>
<path d="M58.0039 24.6335C58.0677 24.3921 58.1331 24.151 58.1971 23.91C58.3083 23.9511 58.4232 23.9827 58.5426 24.0027C59.6057 24.1809 60.5071 23.7951 61.501 23.7369L61.9637 23.4718C63.4328 23.5164 64.289 22.8731 65.5905 22.4772C67.4319 21.7119 71.6494 19.5656 73.7517 20.4089C75.41 21.074 78.6073 22.2821 80.303 23.0216C83.609 24.4632 97.8108 29.0643 97.8805 29.4833C94.7226 29.3934 83.3309 24.5198 80.4791 24.5198C79.1963 23.9176 77.8741 23.5029 76.5458 23.0044C75.4444 22.4715 74.4265 21.9284 73.2979 21.3644C71.9208 20.6761 67.353 22.8243 66.0896 23.4115C66.0554 23.4238 66.0212 23.4361 65.9871 23.4484C65.3432 23.6292 64.7856 23.8562 64.2208 24.0537C63.8989 24.156 63.5753 24.2534 63.2479 24.3443C62.9212 24.4205 62.5768 24.4754 62.2 24.4969C62.1676 24.5545 62.1244 24.5997 62.0766 24.6352C61.862 24.6818 61.6449 24.7252 61.425 24.765C60.9219 24.7817 60.4275 24.889 59.9211 24.9706C59.5698 25.0032 59.2096 25.0257 58.839 25.0369C58.5527 24.9252 58.2753 24.7881 58.0039 24.6335Z" fill="#AF7060"/>
<path d="M97.3547 29.7882C93.8856 30.107 82.8832 30.167 79.6188 29.7882C74.3349 29.175 71.8857 31.4353 60.5661 31.0431C58.5168 30.9721 57.3253 31.1654 55.7686 31.0858C44.2342 30.4958 44.4619 29.5211 40.2612 30.5208C34.2181 31.959 23.3637 30.4275 20.0657 30.5208C19.2648 30.5435 31.219 27.2945 32.909 26.5505C36.8493 25.2035 41.6493 21.6633 46.7621 21.1989C51.1563 20.7998 54.4553 24.543 58.8179 24.543C62.9734 24.543 68.7894 20.9011 72.57 21.0066C75.8917 21.0994 79.1738 24.033 81.7216 24.6264C84.1884 25.2009 97.3547 29.7882 97.3547 29.7882Z" fill="#C9816E"/>
<path d="M58.9822 25.0368C58.6345 25.0256 58.2966 25.0032 57.9671 24.9706C57.4919 24.889 57.028 24.7816 56.556 24.765C56.3497 24.7253 56.1461 24.6819 55.9447 24.6352C55.8998 24.5997 55.8594 24.5546 55.829 24.4969C55.4755 24.4753 55.1524 24.4204 54.8458 24.3442C54.5386 24.2534 54.235 24.1559 53.933 24.0536C53.4031 23.8561 52.8798 23.6292 52.2757 23.4484C52.2437 23.4361 52.2116 23.4237 52.1795 23.4115C50.994 22.8244 46.7085 20.6761 45.4165 21.3644C44.3576 21.9285 43.4027 22.4716 42.3693 23.0044C34.5406 26.9498 20.4635 29.6847 18.2705 30.3017C18.7909 30.0674 33.1876 25.9795 33.6214 25.7024C35.9738 24.918 38.3092 23.7713 40.5048 22.7508C42.0958 22.0114 43.4348 21.0741 44.9907 20.4089C46.9632 19.5657 50.9201 21.7119 52.6478 22.4771C53.8689 22.8731 54.6724 23.5164 56.0507 23.4719L56.4847 23.7369C57.4172 23.7951 58.2629 24.1809 59.2604 24.0028C59.3723 23.9828 59.4801 23.9512 59.5844 23.9101C59.6445 24.1511 59.706 24.3921 59.7657 24.6335C59.5111 24.7882 59.2509 24.925 58.9822 25.0368Z" fill="#AF7060"/>
<path d="M78.655 30.7229C77.3829 30.6579 72.7035 30.3241 70.6027 30.9626C69.6483 30.9493 68.7814 31.5657 67.86 31.731C64.8295 32.2745 61.3703 32.2619 58.2758 32.2619C54.8591 32.2619 51.1416 32.2228 47.9077 31.4959C47.8373 31.4801 41.199 31.0598 40.1979 31.261C33.9643 32.5139 30.2118 31.7327 27.3953 31.6018C27.1893 30.9555 25.932 31.178 25.8271 30.4521C25.9927 30.4333 31.3678 31.609 35.8503 30.2785C40.7846 29.6697 43.2778 28.9704 44.1461 28.8146C44.961 28.8885 48.0742 30.0625 48.6691 30.2074C51.7955 30.9691 55.4702 30.9456 58.7815 30.9456C61.7679 30.9456 64.697 31.2878 67.6044 30.7245C67.6261 30.7203 67.6478 30.7158 67.6693 30.7112C67.7832 30.7108 67.8969 30.7106 68.0104 30.7106C71.2814 30.6444 78.4592 28.126 78.4592 28.126C78.9781 28.2953 81.1185 28.7744 81.6339 28.9871C81.9161 29.1368 99.287 29.8139 99.6105 29.9846C99.6715 30.0169 82.3402 30.4521 82.1951 30.4521L78.655 30.7229Z" fill="#AF7060"/>
</svg>
