<svg width="115" height="73" viewBox="0 0 115 73" fill="none" xmlns="http://www.w3.org/2000/svg">
<path d="M14.9169 12.6614C36.4249 2.70513 57.0681 2.37772 73.1459 1.72873C89.6723 1.06163 115.63 5.65356 114.814 27.1996C115.374 86.2638 23.1969 78.8358 6.92991 54.6421C1.74488 46.9306 -6.59103 22.6177 14.9169 12.6614Z" fill="#F8BC99"/>
<path opacity="0.02" fill-rule="evenodd" clip-rule="evenodd" d="M59.4687 4.42254C60.1992 4.3133 60.7554 4.591 61.1365 5.2565C60.7862 6.7792 60.7862 8.44699 61.1365 10.2599C56.3757 9.37256 55.8195 7.42708 59.4687 4.42254Z" fill="#222222"/>
<path opacity="0.01" fill-rule="evenodd" clip-rule="evenodd" d="M98.775 18.6377C99.0434 19.9321 99.8796 20.4899 101.283 20.3101C101.005 20.8678 100.726 21.4247 100.447 21.9824C99.3327 22.2608 99.3327 22.5402 100.447 22.8186C100.415 23.7242 100.135 24.5603 99.6111 25.327C100.541 25.9667 101.099 26.8029 101.283 27.8356C98.7857 27.4609 97.9497 26.2067 98.775 24.0728C98.336 23.4942 97.7783 23.0761 97.1026 22.8186C96.2464 23.95 95.1317 24.5077 93.7579 24.4909C93.5388 23.255 93.8173 22.1405 94.5941 21.1462C95.0841 21.3209 95.5022 21.6003 95.8484 21.9824C96.7113 20.7055 97.6871 19.5909 98.775 18.6377Z" fill="#050505"/>
<path opacity="0.01" fill-rule="evenodd" clip-rule="evenodd" d="M65.3121 46.2229C63.9144 46.7925 63.3582 47.9048 63.6442 49.5585C62.521 50.1181 61.5478 50.1181 60.7255 49.5585C60.4662 47.844 60.0492 46.1761 59.4746 44.5551C59.7314 43.8812 60.1484 43.325 60.7255 42.8872C61.5595 43.9988 62.3933 43.9988 63.2271 42.8872C64.1403 43.882 64.8351 44.9945 65.3121 46.2229Z" fill="black"/>
<path opacity="0.01" d="M65.3275 46.2319C65.8711 46.4861 66.4288 46.7645 66.9999 47.0681C67.9407 50.4295 68.9156 53.7742 69.9265 57.1022C70.8037 56.2518 71.7795 56.1122 72.8532 56.6841C73.2621 58.5312 74.0982 60.0639 75.3616 61.2831C75.5489 63.1954 76.1067 65.0066 77.034 66.7183C76.8811 68.1265 76.3232 68.2652 75.3616 67.1363C75.5084 67.6331 75.621 68.0818 75.6993 68.4826C74.2242 68.7153 72.727 68.9039 71.2109 69.0503C70.5435 68.4973 69.9759 67.8593 69.5083 67.1364C70.1222 66.1262 70.4006 65.0116 70.3446 63.7917C70.0661 63.7917 69.7868 63.7917 69.5083 63.7917C69.2224 63.091 68.6655 62.8117 67.836 62.9555C67.4538 61.0766 66.6177 59.4042 65.3275 57.9384C65.6059 57.3807 65.8852 56.8237 66.1636 56.266C64.993 54.1463 64.1568 51.9162 63.6551 49.5766C63.3683 47.9185 63.9261 46.803 65.3275 46.2319ZM72.0171 62.5374C70.9167 62.0958 70.3588 62.514 70.3446 63.7917C71.0044 63.555 71.5622 63.1369 72.0171 62.5374ZM73.6894 65.8819C74.1443 66.4814 74.7018 66.8997 75.3616 67.1363C75.3474 65.8587 74.7898 65.4404 73.6894 65.8819Z" fill="#1B1B1B"/>
<path fill-rule="evenodd" clip-rule="evenodd" d="M90.9931 2.2644C92.5099 2.26439 95.2636 2.26442 88.4307 4.56398C88.1803 7.2066 86.7575 8.48764 84.1602 8.40743V10.9697L90.9931 10.5427C92.0991 13.4687 93.523 16.1738 95.2636 18.6567C92.0504 18.7864 88.9194 19.3561 85.8685 20.3649C84.1747 20.0958 83.0362 19.2417 82.452 17.8026C84.3986 16.764 86.1068 15.4829 87.5766 13.9592C86.643 11.2944 85.362 11.1518 83.7332 13.5322C83.3208 12.7225 83.1789 11.8683 83.3061 10.9699C82.1496 11.1058 80.9769 10.9596 79.8896 10.5429C82.6783 8.61351 85.2406 6.33549 87.5766 3.70993C90.4747 1.93679 87.6279 2.48471 90.9931 2.2644Z" fill="#E9B191"/>
<path fill-rule="evenodd" clip-rule="evenodd" d="M87.5716 3.70991C85.2356 6.33547 82.6731 8.61329 79.8845 10.5428C80.9717 10.9597 82.1444 11.1058 83.3009 10.9699C83.1736 11.8684 83.3155 12.7224 83.728 13.5321C85.3568 11.1517 86.6378 11.2943 87.5714 13.9592C86.1014 15.4829 84.3933 16.7641 82.4468 17.8027C82.6338 16.7991 82.3496 15.945 81.5928 15.2404C80.4381 16.1098 79.5838 17.2484 79.0304 18.6568C77.6101 17.4824 76.4707 17.7668 75.614 19.5109C74.4755 17.233 73.336 17.233 72.1976 19.5109C70.9207 18.4818 69.7822 18.4818 68.7812 19.5109C67.9339 19.364 67.3652 19.6492 67.0731 20.365C65.7561 21.0491 64.3329 21.3335 62.8024 21.219C63.1603 18.8062 62.3064 16.9562 60.2402 15.6674C62.1987 13.9908 64.4765 12.9941 67.0731 12.678L68.7814 9.26156C70.0437 8.4519 70.898 7.31338 71.3437 5.84525C71.114 7.49277 71.541 8.91574 72.6249 10.1157C74.5928 8.16835 75.874 5.89128 76.4685 3.28278H80.7389C80.8064 2.06139 80.5215 1.77618 79.8845 0.720518C80.7385 0.720518 82.8742 0.720518 82.8742 0.720518H85.0519C85.1962 1.4866 85.4381 -0.221557 85.8635 0.720518C86.9598 0.720518 89.2799 1.13701 89.2799 1.57457C90.0817 1.57457 91.2958 2.3511 87.5716 3.70991Z" fill="#F0B694"/>
<path fill-rule="evenodd" clip-rule="evenodd" d="M82.4512 17.8028C83.0354 19.2421 84.1738 20.0962 85.8675 20.3652C88.9183 19.3565 92.0496 18.7868 95.2627 18.6569V19.5111V20.3651C93.8295 22.2169 92.1212 22.502 90.1379 21.2192C86.7608 21.6146 83.4555 22.4772 80.3158 23.7814C77.3769 22.7658 74.3875 21.9118 71.3477 21.2192C69.5371 22.3911 68.6831 21.8213 68.7856 19.5109C69.7867 18.4818 70.9251 18.4818 72.202 19.5109C73.3405 17.233 74.4798 17.233 75.6182 19.5109C76.4748 17.7669 77.6143 17.4824 79.0346 18.6568C79.588 17.2484 80.4423 16.11 81.597 15.2405C82.3537 15.9451 82.6383 16.7992 82.4512 17.8028Z" fill="#F4B996"/>
<path d="M92.1681 25.5361C92.1681 25.5361 92.4765 31.5916 86.4003 36.9951C83.5991 39.4862 81.9674 45.5748 78.0982 47.4151C73.0509 49.8158 64.5528 47.1819 58.1981 47.1819C53.5166 47.1819 48.0018 49.9904 44.3106 48.4992C30.8188 43.0488 23.9961 24.3341 23.9961 24.3341C23.9961 24.3341 34.5998 23.4545 56.3928 23.4545C78.1858 23.4545 92.1681 22.7512 92.1681 22.7512L92.1681 25.5361Z" fill="#482520"/>
<path d="M63.5147 48.2865H62.9494C62.4917 48.2818 61.9497 48.0858 61.3828 47.7891C57.2616 46.7195 52.2457 48.2865 47.828 48.2865C47.5545 48.2832 47.2811 48.2799 47.0077 48.2767L46.3349 48.0382C46.3349 48.0382 46.3305 48.0365 46.3227 48.0332C41.7003 47.5406 41.1202 43.0043 43.0046 40.2093C45.2975 36.8082 48.6256 32.8048 53.4009 31.0315C59.6777 28.704 61.8362 30.3482 67.2562 32.358C70.0664 36.2615 74.4671 38.003 74.4671 42.8888C74.3824 47.4565 68.9021 48.039 63.9736 48.0724C63.8601 48.2865 63.5147 48.2865 63.5147 48.2865ZM56.3815 44.3063C58.5843 43.5149 59.368 45.7881 61.0018 46.9352C61.5141 47.0367 62.0137 47.1735 62.4977 47.353C66.979 47.2931 73.5896 47.487 73.4778 42.8888C73.4778 38.1423 68.9401 36.737 66.5566 32.8768C61.4893 30.9977 59.7234 29.5073 53.8433 31.6878C49.2648 33.3831 46.0831 37.2835 43.8894 40.5374C42.2594 42.955 42.5498 47.377 47.1213 47.3432C47.1213 47.3432 47.4664 47.3432 47.5801 47.5569C47.6627 47.5556 47.7453 47.5542 47.8279 47.5528C48.2357 47.5528 48.6492 47.5397 49.0672 47.5166C51.8585 47.1594 55.5919 45.4776 56.3815 44.3063Z" fill="#B65E50"/>
<path d="M49.005 47.5735C48.587 47.5965 48.1689 47.6068 47.7611 47.6068C47.6785 47.6082 47.5951 47.609 47.5124 47.6103C47.3987 47.3966 47.0513 47.3949 47.0513 47.3949C42.4797 47.4287 42.1613 42.9647 43.7912 40.5471C45.9849 37.2932 49.2247 33.3157 53.8033 31.6204C59.6834 29.4399 61.5589 30.9455 66.6262 32.8245C69.0097 36.6847 73.5714 38.1655 73.5714 42.912C73.6831 47.5102 67.0141 47.3614 62.5329 47.4213C62.0488 47.2418 61.5389 47.1074 61.0267 47.006C59.3928 45.8589 58.559 43.5857 56.3562 44.3771C55.5665 45.5483 51.7963 47.2163 49.005 47.5735Z" fill="#C36556"/>
<path d="M57.7847 41.4801C57.7748 41.5917 57.7575 41.6967 57.7333 41.794C57.4556 40.3267 57.4557 38.9096 57.713 37.3185C58.0025 35.5279 59.3623 34.0586 59.5794 32.4888C60.5812 35.0392 58.537 39.8062 57.7847 41.4801Z" fill="#B65E50"/>
<path d="M60.0687 43.2288C60.0777 43.2514 60.0898 43.2759 60.1046 43.302C60.3962 43.9772 60.7501 44.6128 61.2192 45.1761C61.2107 45.2174 61.196 45.2566 61.174 45.2934C60.9902 45.6018 60.5554 45.7536 60.0276 45.8197C59.9737 45.9019 59.8787 45.9743 59.7113 45.9743C59.5728 45.9743 59.4838 45.9247 59.4267 45.861C58.5197 45.8822 57.523 45.7533 57.0585 45.7533C56.733 45.7469 56.3996 45.6745 56.1064 45.5322H55.5111C55.2974 45.5322 55.1242 45.359 55.1242 45.1453C55.1242 45.1269 55.1255 45.1088 55.128 45.0911C55.0319 45.111 54.9136 45.095 54.7954 44.9768C54.5219 44.7032 54.7954 44.4297 54.7954 44.4297L55.117 44.1361C55.4548 43.9673 55.7848 43.721 56.0904 43.4191C56.3036 42.8883 56.4731 42.3732 56.633 41.8605C57.3861 40.8754 57.9781 39.7156 58.4134 38.3594C59.0536 39.8732 59.3938 41.5654 60.0115 43.0803C60.0303 43.1306 60.0494 43.1801 60.0687 43.2288ZM59.5708 43.8289C59.6718 44.2778 59.8148 44.7155 60.0271 45.1347C60.2095 45.1094 60.3592 45.0659 60.4592 44.9973C60.8747 44.7127 60.018 44.2871 59.5708 43.8289Z" fill="#AD594C"/>
<path d="M30.4302 25.0819L30.4658 25.0273C30.5498 24.9194 30.732 24.7814 30.9807 24.6267C33.153 23.9505 34.9686 23.3403 35.854 23.2277C39.9228 22.7104 50.8888 20.6214 54.4918 20.6214L54.8192 20.5519C57.3977 23.1064 62.1968 20.6022 66.127 19.605C68.5155 19.7284 87.1726 23.9663 88.9169 24.6267C89.2566 25.0273 88.9169 28.0132 86.0193 29.6383C84.6607 30.4002 66.4409 33.1723 57.4958 32.7759C47.9939 32.355 34.9896 32.0069 31.7242 29.6383C30.4302 28.6997 27.6512 26.1519 27.6055 25.0273C27.6055 25.0273 30.0941 25.1487 30.4302 25.0819Z" fill="#F9F9F9"/>
<path d="M83.009 29.5567L83.1285 29.7248C83.0726 29.7372 83.017 29.7504 82.9619 29.7644C82.9772 29.695 82.9928 29.6259 83.009 29.5567Z" fill="#F9F9F9"/>
<path d="M76.1528 30.2308C76.1574 30.2591 76.1587 30.2901 76.1542 30.3221C76.1539 30.2823 76.1537 30.258 76.1537 30.258L76.0625 30.2586C76.0915 30.1564 76.1186 30.0555 76.1442 29.9556L76.1528 30.2308Z" fill="#F9F9F9"/>
<path d="M56.5743 52.0348C56.4198 51.8346 56.288 51.5996 56.1787 51.3392C56.1387 51.4484 56.096 51.5466 56.0511 51.6321C55.8009 52.1077 55.3754 52.6064 54.9129 52.8556C54.6288 52.8891 54.3323 52.9247 54.0267 52.9606C53.8465 52.8912 53.6742 52.7555 53.5186 52.5363L53.5987 52.7221C53.5987 52.7221 53.2449 52.7204 53.2459 52.3849C53.246 52.33 53.2556 52.2841 53.2716 52.2458C52.497 51.544 52.157 50.4892 52.1011 49.4265C51.2683 51.7417 48.1616 52.7608 48.0684 49.329C47.9348 49.2808 47.8682 49.1537 47.8682 49.1537C46.7088 46.8474 49.1991 42.5916 51.7477 45.206C52.1143 45.5821 51.9884 47.1034 52.1948 47.9588C52.2304 47.7595 52.2747 47.5663 52.3262 47.3822C52.5088 46.7302 51.8786 45.3662 52.7274 44.9389C53.2783 44.6615 54.3907 45.1205 55.0353 45.1236C55.6504 45.1611 56.0518 45.7191 56.2873 46.5026C56.9449 45.0988 58.2257 44.4815 60.0756 46.2498C60.0834 46.4281 60.094 46.6335 60.1044 46.8592C60.058 47.8776 60.0072 49.1447 59.989 50.5023C59.8311 51.4149 59.5268 52.1999 58.9661 52.5817C58.3507 52.5929 57.7604 52.6086 57.206 52.6369C57.0163 52.5647 56.8147 52.4709 56.6005 52.3538L56.5743 52.0348Z" fill="#F9F9F9"/>
<path d="M41.0472 45.8183C41.9274 44.3741 40.5334 43.494 44.5985 43.5855C47.5148 43.6512 52.6876 43.33 57.7834 43.8824C73.4852 43.4618 75.3797 43.5546 76.345 46.0507C76.0285 46.4076 42.2479 49.436 41.8647 49.6851C40.8203 48.453 39.9152 47.0448 39.023 45.7727C40.4946 45.0493 39.8998 44.7528 41.0472 45.8183Z" fill="#F9F9F9"/>
<path d="M43.3881 48.6084L43.6217 48.1686C43.6788 48.0554 43.8009 47.9775 43.9421 47.9782C44.1375 47.9791 44.2954 48.1301 44.2949 48.3154C44.2947 48.3718 44.2799 48.4248 44.2539 48.4713L44.1314 48.702C44.3224 50.8146 46.4843 52.3958 47.8522 49.7757L48.0693 49.1641C48.1141 49.0272 48.249 48.9282 48.4081 48.9289C48.6016 48.9299 48.7584 49.078 48.7609 49.2609L48.7687 49.7454C49.5568 51.5085 50.7363 51.9961 51.8748 49.7678L52.1084 49.328C52.1655 49.2148 52.2876 49.1369 52.4288 49.1376C52.6241 49.1385 52.7821 49.2895 52.7815 49.4748L52.7803 49.9129C53.4347 51.4598 54.7025 52.8398 55.598 50.3717L55.6103 49.9289C55.6148 49.7468 55.772 49.6011 55.9649 49.602C56.1062 49.6027 56.2278 49.6818 56.2842 49.7956L56.5154 50.2376C57.7844 51.4836 59.6107 52.9995 59.6193 49.9552L59.6213 49.2842C59.6218 49.0988 59.7806 48.9494 59.976 48.9503C59.9917 48.9504 60.0072 48.9515 60.0224 48.9534C59.9886 50.0743 59.969 51.3157 59.9897 52.5666C58.8755 52.5813 57.8198 52.5969 56.8795 52.6555C54.3994 52.8101 48.2203 53.9877 45.9269 52.8564C44.5924 52.1981 43.5275 50.9656 42.5885 49.5715C42.9084 49.3086 43.1874 48.9861 43.3881 48.6084Z" fill="#F9F9F9"/>
<path d="M60.2557 51.9537C60.0999 51.7547 59.9665 51.5206 59.8555 51.261C59.8162 51.3705 59.7742 51.469 59.7298 51.5548C59.7022 51.6082 59.6723 51.6619 59.6405 51.7155C59.9074 50.11 60.0587 47.9092 59.9978 46.288C60.6646 44.9769 61.918 44.4464 63.7186 46.144C63.7998 47.7491 64.1159 51.5614 62.6007 52.5169C62.0275 52.5351 61.4581 52.5459 60.8991 52.5543C60.7067 52.483 60.5019 52.3897 60.2839 52.2726L60.2557 51.9537Z" fill="#F9F9F9"/>
<path d="M59.8936 49.6352C59.9166 49.6592 59.936 49.6865 59.951 49.7162L60.185 50.1565C61.4623 51.3934 63.2986 52.8963 63.2871 49.8521L63.2846 49.181C63.2839 48.9957 63.4417 48.8451 63.6371 48.8447C63.7783 48.8443 63.9005 48.9225 63.9576 49.0359L64.1729 49.4408C65.7158 50.856 68.0139 52.5064 68.0005 48.9464L67.9979 48.2754C67.9972 48.0901 68.1551 47.9395 68.3504 47.939C68.5458 47.9386 68.7047 48.0884 68.7054 48.2737L68.707 48.6863C69.1637 49.642 69.6763 50.5938 70.6489 51.0732C67.5992 52.5517 63.1542 52.5197 59.4722 52.5734C59.6521 51.7966 59.799 50.7393 59.8936 49.6352Z" fill="#F9F9F9"/>
<path d="M74.2099 47.4798C74.2214 47.479 74.2333 47.4785 74.2456 47.4785C74.6028 47.4777 74.6041 47.8165 74.6041 47.8165L74.5666 47.8909C74.5958 47.948 74.6232 48.0047 74.6488 48.061C74.6146 48.0934 74.5804 48.1257 74.5462 48.158C74.4736 47.9164 74.3614 47.6862 74.2099 47.4798Z" fill="#F9F9F9"/>
<path d="M68.8371 51.7409C68.7143 51.7412 68.6339 51.701 68.5814 51.6482C68.5255 51.5987 68.4825 51.5228 68.4821 51.4062C68.4821 51.4001 68.4822 51.3941 68.4824 51.3883C68.4862 50.9779 68.3203 50.4235 68.1597 49.8316C68.0688 50.1496 67.9051 50.4455 67.656 50.7056C67.6847 50.7321 67.7115 50.7664 67.735 50.8105C67.8943 51.1103 67.5785 51.2611 67.5785 51.2611C62.4694 53.7001 64.2454 46.7416 64.6151 44.6429C65.9276 44.9991 67.2918 46.3097 67.909 47.712C67.9697 47.412 68.1004 47.1413 68.333 46.9193C68.996 46.2867 73.3506 45.939 74.0191 46.2351C74.1421 46.4537 74.2519 46.6637 74.3492 46.8656C75.0936 46.0105 75.8706 45.9365 76.5413 46.2818C74.6568 47.9457 72.9805 49.9187 70.7175 51.0403C70.1432 51.3249 69.518 51.5548 68.8569 51.7409L68.8371 51.7409Z" fill="#F9F9F9"/>
<path d="M82.5319 28.6772L82.6402 28.8295C82.5895 28.8408 82.5392 28.8528 82.4893 28.8655C82.5031 28.8026 82.5172 28.74 82.5319 28.6772Z" fill="#F9F9F9"/>
<path d="M75.6779 29.3386C75.6823 29.3656 75.6836 29.3951 75.6792 29.4256C75.6789 29.3877 75.6787 29.3645 75.6787 29.3645L75.5918 29.3651C75.6194 29.2677 75.6452 29.1714 75.6697 29.0762L75.6779 29.3386Z" fill="#F9F9F9"/>
<path opacity="0.02" fill-rule="evenodd" clip-rule="evenodd" d="M59.34 2.45484C60.0727 2.34528 60.6306 2.62378 61.0128 3.29127C60.6615 4.81851 60.6615 6.49123 61.0128 8.30951C56.2379 7.41956 55.68 5.46832 59.34 2.45484Z" fill="#222222"/>
<path opacity="0.01" fill-rule="evenodd" clip-rule="evenodd" d="M54.322 6.63672C55.8585 6.75298 56.137 7.31091 55.1584 8.30951C54.4909 7.92733 54.2125 7.36942 54.322 6.63672Z" fill="black"/>
<path opacity="0.01" fill-rule="evenodd" clip-rule="evenodd" d="M92.7964 14.1641C94.1982 14.7353 94.7561 15.851 94.4692 17.5096C93.6328 17.5096 92.7965 17.5096 91.9602 17.5096C91.9041 16.2892 92.1825 15.1744 92.7964 14.1641Z" fill="#0A0A0A"/>
<path opacity="0.01" fill-rule="evenodd" clip-rule="evenodd" d="M98.6503 16.6733C98.9188 17.9681 99.7551 18.526 101.159 18.3461C100.881 18.904 100.602 19.461 100.323 20.0189C99.2082 20.2974 99.2082 20.5768 100.323 20.8553C100.29 21.7611 100.011 22.5975 99.4866 23.3644C100.417 24.0042 100.974 24.8406 101.159 25.8735C98.661 25.4988 97.8247 24.2443 98.6503 22.1098C98.2112 21.531 97.6533 21.1129 96.9775 20.8553C96.121 21.9869 95.0061 22.5448 93.6319 22.528C93.4128 21.2918 93.6913 20.177 94.4684 19.1825C94.9585 19.3573 95.3766 19.6367 95.723 20.0189C96.5861 18.7417 97.5621 17.6268 98.6503 16.6733Z" fill="#050505"/>
<path opacity="0.01" fill-rule="evenodd" clip-rule="evenodd" d="M65.1947 44.2743C63.7929 44.8456 63.235 45.9613 63.5219 47.6198C62.3953 48.1811 61.4192 48.1811 60.5944 47.6198C60.3343 45.9002 59.9161 44.2274 59.3398 42.6015C59.5974 41.9257 60.0157 41.3678 60.5944 40.9287C61.4309 42.0436 62.2672 42.0436 63.1035 40.9287C64.0194 41.9265 64.7163 43.0423 65.1947 44.2743Z" fill="black"/>
<path opacity="0.01" fill-rule="evenodd" clip-rule="evenodd" d="M56.8311 42.6016C57.9459 43.1594 57.9459 43.1594 56.8311 42.6016Z" fill="black"/>
<path opacity="0.01" fill-rule="evenodd" clip-rule="evenodd" d="M57.6671 55.1475C55.6473 55.7505 53.9745 56.8654 52.6488 58.493C50.4307 56.4848 50.7092 54.8121 53.4852 53.4747C54.3935 53.3744 54.9514 52.8164 55.158 51.8019C55.122 51.0357 54.8435 50.478 54.3216 50.1292C55.025 48.5576 55.3044 46.8848 55.158 45.1108C56.2637 45.253 57.2398 44.9745 58.0854 44.2744C58.8131 44.783 59.2313 45.4797 59.34 46.3654C58.6801 47.7253 57.8437 48.9799 56.8309 50.1292C57.0349 51.8438 57.3134 53.5165 57.6671 55.1475Z" fill="#121212"/>
<path opacity="0.01" fill-rule="evenodd" clip-rule="evenodd" d="M54.3221 50.1289C54.3781 51.3492 54.0996 52.464 53.4857 53.4744C52.6493 53.4744 51.8129 53.4744 50.9766 53.4744C50.9666 51.2647 52.0814 50.1498 54.3221 50.1289Z" fill="black"/>
<path opacity="0.01" d="M65.1952 44.2744C65.7389 44.5287 66.2967 44.8072 66.868 45.1108C67.809 48.4731 68.7842 51.8187 69.7953 55.1475C70.6727 54.2969 71.6488 54.1572 72.7227 54.7292C73.1317 56.5768 73.968 58.1099 75.2318 59.3294C75.4192 61.2422 75.977 63.0539 76.9046 64.766C76.7516 66.1745 76.1937 66.3132 75.2318 65.1841C75.3786 65.681 75.4912 66.1298 75.5696 66.5307C74.0941 66.7634 72.5965 66.9521 71.08 67.0985C70.4124 66.5454 69.8447 65.9073 69.377 65.1841C69.991 64.1737 70.2695 63.0588 70.2135 61.8386C69.935 61.8386 69.6555 61.8386 69.377 61.8386C69.091 61.1377 68.534 60.8584 67.7042 61.0022C67.322 59.1228 66.4857 57.45 65.1951 55.9838C65.4736 55.426 65.753 54.8689 66.0314 54.311C64.8605 52.1908 64.0241 49.9601 63.5223 47.6199C63.2354 45.9614 63.7934 44.8457 65.1952 44.2744ZM71.8864 60.584C70.7857 60.1423 70.2277 60.5606 70.2135 61.8386C70.8734 61.6019 71.4315 61.1837 71.8864 60.584ZM73.5592 63.9293C74.0141 64.529 74.5719 64.9474 75.2318 65.1841C75.2176 63.9062 74.6599 63.4877 73.5592 63.9293Z" fill="#1B1B1B"/>
<path opacity="0.01" fill-rule="evenodd" clip-rule="evenodd" d="M62.6852 55.1472C61.7025 54.9641 60.8661 55.2426 60.1761 55.9836C61.291 57.0985 61.291 58.2143 60.1761 59.3292C60.5584 59.9967 61.1162 60.2751 61.8489 60.1656C59.7178 62.351 57.7656 62.2114 55.9941 59.7474C56.6399 58.7262 57.4762 57.8898 58.5033 57.2382C57.8744 56.677 57.595 55.9803 57.6669 55.1472C59.4324 54.1085 61.1053 54.1085 62.6852 55.1472Z" fill="#030303"/>
<path opacity="0.01" fill-rule="evenodd" clip-rule="evenodd" d="M76.0677 59.3292C75.7892 59.3292 75.5099 59.3292 75.2314 59.3292C75.51 57.0986 75.7893 57.0986 76.0677 59.3292Z" fill="black"/>
<path opacity="0.01" fill-rule="evenodd" clip-rule="evenodd" d="M76.0684 59.3294C77.0511 59.1462 77.8876 59.4247 78.5776 60.1658C77.2795 61.2514 76.4431 60.9729 76.0684 59.3294Z" fill="black"/>
<path opacity="0.01" fill-rule="evenodd" clip-rule="evenodd" d="M62.6859 63.5112C63.2789 64.2673 64.1153 64.5458 65.1951 64.3476C65.1951 65.184 65.1951 66.0204 65.1951 66.8567C64.1739 66.4151 63.1986 65.8572 62.2677 65.184C61.6889 64.4003 61.8286 63.8432 62.6859 63.5112Z" fill="black"/>
<path opacity="0.012" d="M67.7033 61.0019C68.533 60.858 69.0899 61.1374 69.376 61.8383C68.3841 63.0603 68.3841 64.176 69.376 65.1838C69.8437 65.9071 70.4113 66.5452 71.079 67.0983C69.1453 67.285 67.1813 67.4028 65.1941 67.4552C65.1941 67.2557 65.1941 67.0562 65.1941 66.8567C65.1941 66.0203 65.1941 65.1839 65.1941 64.3475C64.1143 64.5458 63.2779 64.2673 62.6849 63.5112C63.9011 62.0366 63.6217 60.9209 61.8486 60.1656C61.1159 60.2751 60.558 59.9967 60.1758 59.3292C61.2906 58.2144 61.2906 57.0985 60.1758 55.9836C60.8658 55.2427 61.7022 54.9641 62.6849 55.1473C64.0817 57.377 65.7545 59.3283 67.7033 61.0019Z" fill="#3D3D3D"/>
<path d="M49.5934 51.3179C49.5277 51.3304 49.4474 51.3362 49.3643 51.3196C49.4407 51.319 49.517 51.3186 49.5934 51.3179Z" fill="#9B6F5D"/>
<path d="M48.8991 51.3223C48.845 51.3305 48.783 51.3332 48.7188 51.3232C48.7788 51.3229 48.839 51.3226 48.8991 51.3223Z" fill="#9B6F5D"/>
<path d="M34.5305 21.6533C34.3132 21.7587 34.0951 21.8606 33.876 21.9579C34.094 21.8539 34.3121 21.7515 34.5305 21.6533Z" fill="#9B6F5D"/>
<path d="M49.0272 61.9669L49.0864 61.9473C49.1065 61.9571 49.1266 61.9667 49.1465 61.9762C49.7174 62.0229 50.2732 62.1041 50.8194 62.2062C51.6721 62.0656 52.4516 61.6296 53.4365 61.6633C53.7086 61.5293 54.0193 61.4055 54.3612 61.2926C56.8677 61.2085 59.3671 61.0801 61.9341 61.0801C63.2493 61.0801 64.5549 61.4203 65.8559 61.5749C65.8584 61.5761 65.8609 61.5773 65.8633 61.5786L65.8647 61.576C66.0256 61.5951 66.1863 61.6112 66.3471 61.6235L66.5076 61.7025C66.7027 61.7935 66.8377 61.9892 66.8377 62.216C66.8377 62.4427 66.7028 62.6385 66.5076 62.7295L66.069 62.9455C64.9199 65.0902 60.6097 64.7719 58.4728 64.7719C57.7492 64.7719 57.0515 64.7055 56.3695 64.5988C53.6449 64.6628 50.7915 64.5331 48.7607 63.1646L48.696 63.2921L48.2428 63.069C48.1916 63.0684 48.1401 63.068 48.0886 63.068C48.0886 63.068 47.5117 63.068 47.5117 62.4999C47.5117 61.9319 48.0886 61.932 48.0886 61.932C48.1678 61.932 48.2466 61.9327 48.3252 61.9342C48.3422 61.9327 48.3596 61.932 48.3771 61.932H48.954V61.9616C48.9785 61.9633 49.0027 61.965 49.0272 61.9669Z" fill="#DEA889"/>
<path d="M46.9026 61.6759C47.1645 61.6759 47.4264 61.6759 47.6883 61.6759C52.6127 59.7494 59.722 60.7847 64.9019 60.8331C65.547 61.0449 66.2412 61.1171 66.9211 61.1171L67.0183 61.1901L67.0337 61.1444L67.8833 61.4231C68.0305 61.4677 68.1576 61.5574 68.248 61.6759C67.9595 61.6759 67.6711 61.6759 67.3826 61.6759C60.3365 61.6765 53.2678 61.9214 46.2012 61.9559L46.9026 61.6759Z" fill="#95725D"/>
<path d="M57.9619 19.6118C58.0216 19.3657 58.0828 19.1199 58.1426 18.8742C58.2467 18.9161 58.3542 18.9483 58.466 18.9687C59.4607 19.1504 60.3041 18.7571 61.2341 18.6977L61.667 18.4275C63.0416 18.4729 63.8428 17.8171 65.0606 17.4134C66.7835 16.6332 70.7297 14.4451 72.6968 15.3047C74.2484 15.9829 77.24 17.2145 78.8267 17.9685C81.92 19.4382 96.5347 22.1395 96.5999 22.5667C93.6451 22.475 81.6597 19.4959 78.9914 19.4959C77.7911 18.882 76.5539 18.4591 75.3111 17.9509C74.2805 17.4076 73.3282 16.854 72.2721 16.2789C70.9836 15.5772 66.7097 17.7673 65.5275 18.3659C65.4955 18.3785 65.4635 18.3911 65.4316 18.4036C64.8291 18.5879 64.3074 18.8194 63.7789 19.0207C63.4777 19.125 63.1749 19.2244 62.8686 19.317C62.5629 19.3947 62.2406 19.4506 61.8881 19.4726C61.8578 19.5313 61.8174 19.5774 61.7727 19.6136C61.5718 19.6611 61.3687 19.7054 61.1629 19.7459C60.6922 19.7629 60.2296 19.8723 59.7557 19.9556C59.4271 19.9887 59.0901 20.0117 58.7433 20.0231C58.4754 19.9092 58.2158 19.7695 57.9619 19.6118Z" fill="#AF7060"/>
<path d="M97.9145 22.9378C94.6685 23.2628 81.2404 25.253 78.186 24.8668C73.242 24.2417 70.9504 26.546 60.3589 26.1463C58.4414 26.0739 57.3265 26.2709 55.87 26.1897C45.0775 25.5883 45.2905 24.5945 41.36 25.6138C35.7056 27.08 23.3942 23.1213 20.3082 23.2165C19.5589 23.2396 32.6784 21.4403 34.2597 20.6817C39.0519 19.9716 42.6588 16.5834 47.4427 16.1099C51.5543 15.7031 54.6411 19.5193 58.7231 19.5193C62.6113 19.5193 68.0531 15.8063 71.5906 15.9139C74.6986 16.0085 77.3275 18.3362 79.7114 18.9411C87.5461 21.2953 97.9145 22.9378 97.9145 22.9378Z" fill="#C9816E"/>
<path d="M58.8762 20.023C58.5508 20.0116 58.2347 19.9887 57.9263 19.9555C57.4817 19.8723 57.0477 19.7628 56.6061 19.7459C56.413 19.7054 56.2225 19.6612 56.0341 19.6136C55.9921 19.5774 55.9543 19.5314 55.9258 19.4726C55.595 19.4506 55.2927 19.3946 55.0059 19.3169C54.7184 19.2243 54.4343 19.1249 54.1518 19.0206C53.6559 18.8193 53.1663 18.588 52.601 18.4036C52.5711 18.3911 52.5411 18.3785 52.511 18.366C51.4018 17.7674 47.3919 15.5772 46.1831 16.2789C45.1923 16.8541 44.2988 17.4077 43.3318 17.9509C36.0067 21.9734 22.8351 22.772 20.7832 23.4011C21.2702 23.1622 34.7407 20.9842 35.1467 20.7016C37.3478 19.9019 39.533 18.7328 41.5873 17.6924C43.076 16.9386 44.3289 15.9829 45.7846 15.3047C47.6303 14.445 51.3327 16.6332 52.9492 17.4133C54.0918 17.817 54.8435 18.4729 56.1332 18.4275L56.5393 18.6977C57.4118 18.757 58.2032 19.1504 59.1365 18.9688C59.2412 18.9484 59.342 18.9162 59.4397 18.8743C59.4958 19.12 59.5534 19.3657 59.6093 19.6119C59.371 19.7695 59.1276 19.9091 58.8762 20.023Z" fill="#AF7060"/>
<path d="M77.2836 25.82C76.0933 25.7537 71.7149 25.4134 69.7492 26.0643C68.8562 26.0508 68.0451 26.6792 67.183 26.8477C64.3474 27.4019 61.1107 27.389 58.2152 27.389C55.0183 27.389 51.5399 27.3491 48.514 26.6081C48.4482 26.5919 42.2369 26.1634 41.3002 26.3685C35.4676 27.646 31.9564 26.1863 29.3211 26.0529C29.1283 25.3939 21.4995 23.837 21.4014 23.0969C21.5563 23.0776 33.0381 26.2813 37.2322 24.9248C41.8491 24.3041 44.182 24.0332 44.9944 23.8745C45.7568 23.9497 48.6699 25.1467 49.2264 25.2944C52.1518 26.0709 55.5901 26.047 58.6884 26.047C61.4827 26.047 64.2233 26.3959 66.9438 25.8216C66.964 25.8173 66.9844 25.8127 67.0045 25.8081C67.1111 25.8076 67.2174 25.8075 67.3236 25.8075C70.3842 25.74 77.1004 23.1724 77.1004 23.1724C77.5858 23.345 79.5886 23.8334 80.0708 24.0503C80.3349 24.203 97.0306 22.6826 97.3332 22.8567C97.3903 22.8895 86.7004 24.6597 86.5646 24.6597L77.2836 25.82Z" fill="#AF7060"/>
<path d="M82.2831 45.4354C83.1163 47.7861 75.2366 49.3076 66.5835 49.3353C53.5003 49.3056 37.2369 49.7583 38.2704 47.5716C36.5702 46.105 33.4264 42.5478 31.9529 40.724C25.3815 32.5903 22.8008 24.1416 22.8008 24.1416C23.2366 24.5519 30.9718 35.7159 31.4183 36.0888C32.3376 36.8564 34.8811 40.5213 36.8622 41.3439C40.2761 42.7614 42.3635 45.1413 44.0545 45.84C49.6691 48.1601 51.8712 46.2748 57.7933 46.0649C61.0328 45.9501 67.5897 46.5174 70.7837 46.5107C73.4701 46.5205 73.3301 45.8311 77.0063 44.6824C79.671 43.8497 82.1435 39.9293 85.2088 36.8376C90.3329 31.6694 91.6798 23.1254 91.6798 23.1254C91.6798 23.1254 93.5715 21.6146 94.4047 23.9653C94.4047 23.9653 90.1404 34.6259 88.0225 38.3773C87.0245 40.1449 82.2831 45.4354 82.2831 45.4354Z" fill="#AF7060"/>
<path d="M94.2916 22.6895C94.2916 27.1026 84.6289 44.2037 78.5335 51.175C75.2292 53.7166 75.4902 54.3735 72.2463 56.2285C69.2632 57.9343 60.6215 56.3915 57.7114 56.3915C55.053 56.3915 49.8453 58.2811 46.9904 57.3301C42.1708 55.7246 39.9735 50.6953 36.4897 47.0704C32.3632 42.7765 24.286 28.7027 22.3616 23.8396C22.0824 23.1342 24.3598 24.8963 24.3598 24.421C24.3598 22.9543 38.2892 47.9277 44.5251 47.5771C49.1164 47.904 53.0398 47.0927 57.2538 47.0927C62.7292 47.0927 69.0571 47.6291 72.8973 48.2858C85.7729 44.8121 92.9286 21.7644 92.9286 23.479L94.2916 22.6895Z" fill="#DC8D79"/>
<path d="M61.817 57.8354C58.3631 57.7151 55.0111 58.4946 51.6171 58.6128C48.5434 58.6128 44.0005 58.7622 42.1475 54.1167C43.211 55.0136 44.1937 56.137 45.3887 56.3887C47.3393 57.5498 49.495 57.0581 51.6171 57.0581C53.1774 57.1448 55.3223 56.4898 56.8483 55.9128C58.4604 55.3033 60.2865 56.3657 61.817 56.2806C61.9653 56.2806 62.1116 56.2819 62.2561 56.2842C64.6024 57.1524 67.1181 57.0581 69.5883 57.0581C70.0768 57.041 70.5348 56.9295 70.9686 56.7424C67.9132 58.7039 65.2177 57.8354 61.817 57.8354Z" fill="#AF7060"/>
<path d="M56.9369 30.0722C56.9086 30.0184 56.8926 29.9572 56.8926 29.8922L56.8926 29.8857C56.9512 30.013 56.9985 30.1411 57.0357 30.2697L56.9369 30.0722Z" fill="#C36556"/>
</svg>
