<svg width="114" height="72" viewBox="0 0 114 72" fill="none" xmlns="http://www.w3.org/2000/svg">
<path d="M14.0628 11.7895C35.5653 1.83573 56.2032 1.5084 72.277 0.859573C88.7991 0.192634 114.75 4.78341 113.935 26.324C114.494 85.3732 22.3406 77.9471 6.07778 53.7595C0.894077 46.05 -7.4397 21.7432 14.0628 11.7895Z" fill="#F8BC99"/>
<path opacity="0.01" fill-rule="evenodd" clip-rule="evenodd" d="M53.4579 8.60352C55.0051 8.72058 55.2856 9.2824 54.3001 10.288C53.628 9.90313 53.3476 9.34131 53.4579 8.60352Z" fill="black"/>
<path opacity="0.01" fill-rule="evenodd" clip-rule="evenodd" d="M91.9169 16.1294C93.3111 16.6975 93.8659 17.8072 93.5806 19.4567C92.7487 19.4567 91.9169 19.4567 91.0851 19.4567C91.0294 18.2431 91.3062 17.1342 91.9169 16.1294Z" fill="#0A0A0A"/>
<path opacity="0.01" fill-rule="evenodd" clip-rule="evenodd" d="M55.9658 44.5591C57.0902 45.1217 57.0902 45.1217 55.9658 44.5591Z" fill="black"/>
<path opacity="0.01" fill-rule="evenodd" clip-rule="evenodd" d="M56.8022 57.1022C54.7829 57.7051 53.1105 58.8197 51.7852 60.4469C49.5676 58.4393 49.8461 56.767 52.6213 55.4299C53.5294 55.3296 54.0872 54.7718 54.2937 53.7575C54.2577 52.9915 53.9793 52.4339 53.4575 52.0852C54.1607 50.514 54.4401 48.8416 54.2937 47.0681C55.3991 47.2102 56.375 46.9318 57.2204 46.2319C57.9479 46.7404 58.3659 47.4369 58.4746 48.3224C57.8149 49.682 56.9787 50.9363 55.9661 52.0852C56.1702 53.7994 56.4485 55.4717 56.8022 57.1022Z" fill="#121212"/>
<path opacity="0.01" fill-rule="evenodd" clip-rule="evenodd" d="M53.4396 52.085C53.4954 53.2987 53.2184 54.4074 52.6078 55.4123C51.7759 55.4123 50.9441 55.4123 50.1124 55.4123C50.1024 53.2146 51.2111 52.1057 53.4396 52.085Z" fill="black"/>
<path opacity="0.01" fill-rule="evenodd" clip-rule="evenodd" d="M61.8193 57.1021C60.8368 56.919 60.0006 57.1974 59.3108 57.9383C60.4254 59.0529 60.4254 60.1684 59.3108 61.283C59.6929 61.9504 60.2507 62.2287 60.9832 62.1192C58.8526 64.3041 56.9009 64.1645 55.1299 61.7011C55.7754 60.6802 56.6116 59.8439 57.6384 59.1926C57.0096 58.6314 56.7303 57.935 56.8022 57.1021C58.5673 56.0636 60.2397 56.0636 61.8193 57.1021Z" fill="#030303"/>
<path opacity="0.01" fill-rule="evenodd" clip-rule="evenodd" d="M75.2035 61.295C74.923 61.295 74.6417 61.295 74.3613 61.295C74.6418 59.0488 74.9231 59.0488 75.2035 61.295Z" fill="black"/>
<path opacity="0.01" fill-rule="evenodd" clip-rule="evenodd" d="M75.1982 61.2833C76.1853 61.0993 77.0255 61.379 77.7185 62.1233C76.4147 63.2137 75.5746 62.934 75.1982 61.2833Z" fill="black"/>
<path opacity="0.01" fill-rule="evenodd" clip-rule="evenodd" d="M61.8155 65.4634C62.4053 66.2154 63.2372 66.4924 64.3111 66.2952C64.3111 67.127 64.3111 67.9589 64.3111 68.7907C63.2954 68.3515 62.3254 67.7967 61.3996 67.127C60.824 66.3476 60.9629 65.7936 61.8155 65.4634Z" fill="black"/>
<path opacity="0.012" d="M66.8361 62.9555C67.6656 62.8116 68.2224 63.0909 68.5085 63.7917C67.5168 65.0134 67.5168 66.1287 68.5085 67.1363C68.976 67.8594 69.5435 68.4974 70.211 69.0503C68.2778 69.237 66.3142 69.3548 64.3276 69.4071C64.3276 69.2076 64.3276 69.0082 64.3276 68.8088C64.3276 67.9726 64.3276 67.1364 64.3276 66.3003C63.2481 66.4985 62.4119 66.22 61.8191 65.4641C63.0349 63.9899 62.7556 62.8745 60.9829 62.1194C60.2504 62.2289 59.6927 61.9506 59.3105 61.2832C60.4251 60.1686 60.4251 59.0531 59.3105 57.9385C60.0004 57.1977 60.8366 56.9192 61.8191 57.1023C63.2155 59.3315 64.8878 61.2823 66.8361 62.9555Z" fill="#3D3D3D"/>
<path d="M48.7414 53.2734C48.6727 53.2865 48.5888 53.2926 48.502 53.2752C48.5818 53.2746 48.6616 53.2741 48.7414 53.2734Z" fill="#9B6F5D"/>
<path d="M48.0223 53.2783C47.9725 53.2859 47.9155 53.2884 47.8564 53.2791C47.9117 53.2789 47.967 53.2786 48.0223 53.2783Z" fill="#9B6F5D"/>
<path d="M33.689 23.6162C33.466 23.7243 33.2424 23.8288 33.0176 23.9287C33.2413 23.8221 33.465 23.7169 33.689 23.6162Z" fill="#9B6F5D"/>
<path opacity="0.02" fill-rule="evenodd" clip-rule="evenodd" d="M58.4687 4.42254C59.1992 4.3133 59.7554 4.591 60.1365 5.2565C59.7862 6.7792 59.7862 8.44699 60.1365 10.2599C55.3757 9.37256 54.8195 7.42708 58.4687 4.42254Z" fill="#222222"/>
<path opacity="0.01" fill-rule="evenodd" clip-rule="evenodd" d="M97.775 18.6377C98.0434 19.9321 98.8796 20.4899 100.283 20.3101C100.005 20.8678 99.7258 21.4247 99.4473 21.9824C98.3327 22.2608 98.3327 22.5402 99.4473 22.8186C99.4148 23.7242 99.1353 24.5603 98.6111 25.327C99.5409 25.9667 100.099 26.8029 100.283 27.8356C97.7857 27.4609 96.9497 26.2067 97.775 24.0728C97.336 23.4942 96.7783 23.0761 96.1026 22.8186C95.2464 23.95 94.1317 24.5077 92.7579 24.4909C92.5388 23.255 92.8173 22.1405 93.5941 21.1462C94.0841 21.3209 94.5022 21.6003 94.8484 21.9824C95.7113 20.7055 96.6871 19.5909 97.775 18.6377Z" fill="#050505"/>
<path opacity="0.01" fill-rule="evenodd" clip-rule="evenodd" d="M64.3121 46.2229C62.9144 46.7925 62.3582 47.9048 62.6442 49.5585C61.521 50.1181 60.5478 50.1181 59.7255 49.5585C59.4662 47.844 59.0492 46.1761 58.4746 44.5551C58.7314 43.8812 59.1484 43.325 59.7255 42.8872C60.5595 43.9988 61.3933 43.9988 62.2271 42.8872C63.1403 43.882 63.8351 44.9945 64.3121 46.2229Z" fill="black"/>
<path opacity="0.01" d="M64.3275 46.2319C64.8711 46.4861 65.4288 46.7645 65.9999 47.0681C66.9407 50.4295 67.9156 53.7742 68.9265 57.1022C69.8037 56.2518 70.7795 56.1122 71.8532 56.6841C72.2621 58.5312 73.0982 60.0639 74.3616 61.2831C74.5489 63.1954 75.1067 65.0066 76.034 66.7183C75.8811 68.1265 75.3232 68.2652 74.3616 67.1363C74.5084 67.6331 74.621 68.0818 74.6993 68.4826C73.2242 68.7153 71.727 68.9039 70.2109 69.0503C69.5435 68.4973 68.9759 67.8593 68.5083 67.1364C69.1222 66.1262 69.4006 65.0116 69.3446 63.7917C69.0661 63.7917 68.7868 63.7917 68.5083 63.7917C68.2224 63.091 67.6655 62.8117 66.836 62.9555C66.4538 61.0766 65.6177 59.4042 64.3275 57.9384C64.6059 57.3807 64.8852 56.8237 65.1636 56.266C63.993 54.1463 63.1568 51.9162 62.6551 49.5766C62.3683 47.9185 62.9261 46.803 64.3275 46.2319ZM71.0171 62.5374C69.9167 62.0958 69.3588 62.514 69.3446 63.7917C70.0044 63.555 70.5622 63.1369 71.0171 62.5374ZM72.6894 65.8819C73.1443 66.4814 73.7018 66.8997 74.3616 67.1363C74.3474 65.8587 73.7898 65.4404 72.6894 65.8819Z" fill="#1B1B1B"/>
<path fill-rule="evenodd" clip-rule="evenodd" d="M89.9931 2.2644C91.5099 2.26439 94.2636 2.26442 87.4307 4.56398C87.1803 7.2066 85.7575 8.48764 83.1602 8.40743V10.9697L89.9931 10.5427C91.0991 13.4687 92.523 16.1738 94.2636 18.6567C91.0504 18.7864 87.9194 19.3561 84.8685 20.3649C83.1747 20.0958 82.0362 19.2417 81.452 17.8026C83.3986 16.764 85.1068 15.4829 86.5766 13.9592C85.643 11.2944 84.362 11.1518 82.7332 13.5322C82.3208 12.7225 82.1789 11.8683 82.3061 10.9699C81.1496 11.1058 79.9769 10.9596 78.8896 10.5429C81.6783 8.61351 84.2406 6.33549 86.5766 3.70993C89.4747 1.93679 86.6279 2.48471 89.9931 2.2644Z" fill="#E9B191"/>
<path fill-rule="evenodd" clip-rule="evenodd" d="M86.5716 3.70991C84.2356 6.33547 81.6731 8.61329 78.8845 10.5428C79.9717 10.9597 81.1444 11.1058 82.3009 10.9699C82.1736 11.8684 82.3155 12.7224 82.728 13.5321C84.3568 11.1517 85.6378 11.2943 86.5714 13.9592C85.1014 15.4829 83.3933 16.7641 81.4468 17.8027C81.6338 16.7991 81.3496 15.945 80.5928 15.2404C79.4381 16.1098 78.5838 17.2484 78.0304 18.6568C76.6101 17.4824 75.4707 17.7668 74.614 19.5109C73.4755 17.233 72.336 17.233 71.1976 19.5109C69.9207 18.4818 68.7822 18.4818 67.7812 19.5109C66.9339 19.364 66.3652 19.6492 66.0731 20.365C64.7561 21.0491 63.3329 21.3335 61.8024 21.219C62.1603 18.8062 61.3064 16.9562 59.2402 15.6674C61.1987 13.9908 63.4765 12.9941 66.0731 12.678L67.7814 9.26156C69.0437 8.4519 69.898 7.31338 70.3437 5.84525C70.114 7.49277 70.541 8.91574 71.6249 10.1157C73.5928 8.16835 74.874 5.89128 75.4685 3.28278H79.7389C79.8064 2.06139 79.5215 1.77618 78.8845 0.720518C79.7385 0.720518 81.8742 0.720518 81.8742 0.720518H84.0519C84.1962 1.4866 84.4381 -0.221557 84.8635 0.720518C85.9598 0.720518 88.2799 1.13701 88.2799 1.57457C89.0817 1.57457 90.2958 2.3511 86.5716 3.70991Z" fill="#F0B694"/>
<path fill-rule="evenodd" clip-rule="evenodd" d="M81.4512 17.8028C82.0354 19.2421 83.1738 20.0962 84.8675 20.3652C87.9183 19.3565 91.0496 18.7868 94.2627 18.6569V19.5111V20.3651C92.8295 22.2169 91.1212 22.502 89.1379 21.2192C85.7608 21.6146 82.4555 22.4772 79.3158 23.7814C76.3769 22.7658 73.3875 21.9118 70.3477 21.2192C68.5371 22.3911 67.6831 21.8213 67.7856 19.5109C68.7867 18.4818 69.9251 18.4818 71.202 19.5109C72.3405 17.233 73.4798 17.233 74.6182 19.5109C75.4748 17.7669 76.6143 17.4824 78.0346 18.6568C78.588 17.2484 79.4423 16.11 80.597 15.2405C81.3537 15.9451 81.6383 16.7992 81.4512 17.8028Z" fill="#F4B996"/>
<path d="M52.3491 53.0507C54.1411 53.201 56.2577 53.1396 58.0713 53.1396C61.0818 53.1396 64.2005 53.2345 67.1839 53.0495C68.2849 52.9813 69.3077 53.9827 69.3077 53.9827C66.6756 55.4876 65.9376 58.2865 61.6074 58.2865C60.0067 58.2865 56.2072 58.8692 52.5424 57.5115C49.1852 56.2678 46.0675 52.8119 46.1429 52.8297C46.1429 52.8297 50.3255 52.881 52.3491 53.0507Z" fill="#DEA889"/>
<path d="M46.9453 52.5994C50.6722 52.5994 64.0099 52.3595 64.1324 52.4252C65.1518 52.8257 69.3648 53.1431 69.2807 53.1158C68.252 53.239 63.8372 53.7879 62.2147 53.5244C58.4938 52.9201 48.6623 53.3598 48.6623 53.235L46.9453 52.5994Z" fill="#95725D"/>
<path d="M27.8648 32.5173L26.5328 32.4383C24.769 31.5091 20.5423 32.9257 20.4864 29.6142C20.4625 28.1991 26.9907 26.2509 27.9667 25.7807C34.8135 25.6986 42.7035 25.0399 49.3478 26.3971C51.6793 26.8733 53.7787 28.9458 56.128 29.4787C58.0242 29.9089 59.8604 28.2461 61.8665 28.2461C65.2767 26.541 69.3664 26.9886 73.1735 26.9886C80.1697 26.9886 86.7918 26.912 93.5133 28.2878V28.2214H95.3627C95.8733 28.2214 96.2871 28.6354 96.2871 29.1461C96.2871 29.5151 96.0709 29.8337 95.7581 29.982L94.5433 30.5894L94.506 30.5148L94.3423 30.6623C89.3652 30.6623 86.9964 34.3952 83.5213 36.7126C82.7495 37.2274 82.6842 37.9233 81.8908 38.3424C81.2898 38.66 79.913 38.7717 79.5477 39.5893C75.4805 47.177 63.4045 42.2325 56.7441 43.6058C53.4719 44.2806 48.4395 45.2133 45.2247 43.6058C40.1566 43.6058 32.9546 37.3655 29.542 34.8634C28.7029 34.2479 28.29 33.3347 27.8648 32.5173Z" fill="#DC8D79"/>
<path d="M32.0782 36.753L30.7182 36.0597C28.0779 33.4171 24.6704 31.7811 20.8928 31.8076C20.8928 31.8076 19.4639 30.2946 19.4639 29.3702C19.4639 29.3596 22.7848 30.3025 24.4448 31.0677C27.3205 32.3936 29.5834 34.1962 32.4244 36.8493C32.2242 36.8262 32.0782 36.753 32.0782 36.753Z" fill="#AF7060"/>
<path d="M83.0074 38.2C78.5085 41.2263 73.4556 44.6697 68.0448 44.716C65.999 44.2045 63.559 43.4944 61.4601 43.4762H61.1518C61.1518 43.4762 60.4008 43.4762 60.2526 44.1529C58.9822 43.973 57.7154 43.7866 56.4715 43.6303H55.2965C52.5009 43.5656 50.1804 45.4434 47.0711 44.8383C45.0965 44.454 43.1563 42.9646 41.1199 43.0138C41.1199 43.0138 40.1953 43.0139 40.1953 42.0893C40.1953 41.8422 40.2613 41.6611 40.3582 41.5284C46.1973 43.4811 49.7981 44.5277 56.369 42.2314C61.101 42.3041 65.8238 44.5565 70.5452 43.7723C71.6284 43.5923 72.525 43.0747 73.3839 42.5193C74.9372 42.1243 76.4184 41.5905 77.5612 40.7228C77.8724 40.4865 78.1904 40.2052 78.5185 39.9182C80.5907 39.2514 81.1151 38.4778 82.7205 37.2788C82.7805 37.4574 83.0074 38.2 83.0074 38.2Z" fill="#AF7060"/>
<path d="M20.5686 30.624C20.4215 30.33 20.4315 30.0884 20.5051 29.8989C20.3916 29.9013 20.2773 29.9024 20.1629 29.9024C20.1629 29.9024 19.2383 29.9024 19.2383 28.9778C19.2383 28.0532 20.1629 28.0533 20.1629 28.0533C29.8666 28.0533 36.5198 19.4242 46.0502 19.4242C49.9104 19.4242 52.2709 19.6518 55.709 21.371L56.589 21.8108C59.3415 20.8279 62.0939 19.8448 64.8466 18.8618L65.7133 18.8114C65.7512 18.808 65.7741 18.8079 65.7741 18.8079C75.3057 18.8079 82.5705 22.7825 90.8422 26.9182C91.5195 27.2569 92.1969 27.5957 92.8743 27.9342C93.1357 27.978 93.3984 28.0219 93.6624 28.0658C93.6624 28.0658 93.6994 28.072 93.7574 28.0894C93.934 28.1348 94.1648 28.237 94.3063 28.468C94.4015 28.6103 94.4601 28.8006 94.4328 29.0542C94.418 29.3088 94.329 29.487 94.2117 29.6115C94.0342 29.816 93.7898 29.8791 93.608 29.8948C93.5481 29.9023 93.5107 29.9024 93.5107 29.9024L93.4744 29.899C93.4033 29.8973 93.3585 29.8898 93.3585 29.8898C93.35 29.8884 93.3415 29.8869 93.3332 29.8856L92.4808 29.8048C92.4184 29.7737 92.356 29.7424 92.2937 29.7113C82.1196 27.9963 73.7585 26.3998 63.7533 29.8023C57.3162 32.8383 52.5099 30.3799 45.8274 28.6425C41.9239 27.6277 38.0714 26.3229 33.9536 28.4763C30.6259 29.5711 26.306 30.4942 22.841 30.4942L21.8094 31.0377C21.8094 31.0377 20.9822 31.4509 20.5686 30.624Z" fill="#C9816E"/>
<path d="M71.4587 19.7816C68.6363 19.0759 66.4457 19.2403 60.376 20.1933C61.6065 19.4648 64.2996 18.37 65.3572 17.8411L66.3869 17.7434C66.3869 17.7434 70.1894 18.2093 71.7017 18.1552C73.2686 18.9561 78.984 21.2808 80.6693 21.7553C78.863 21.4869 73.3406 19.7655 71.4587 19.7816Z" fill="#AF7060"/>
<path d="M45.2177 19.4946C41.7315 19.4444 32.415 23.6912 32.415 23.6912C32.415 23.6912 46.0446 17.3234 46.2587 17.3761C50.412 17.4667 51.6914 20.2858 55.784 20.5937L56.4285 21.675C57.487 21.5965 59.5946 20.372 60.6882 19.8512C59.9692 20.3834 58.3349 21.8675 57.8391 22.6334C57.4816 23.1855 52.2091 20.3778 51.8099 20.1155C50.8333 19.7819 45.8157 19.3798 45.2177 19.4946Z" fill="#AF7060"/>
<path d="M51.3788 28.2217C51.4515 28.2217 51.5239 28.2217 51.5954 28.2218C51.5949 28.2218 51.5958 28.2218 51.5954 28.2218C53.4449 28.224 54.9232 28.2654 56.7827 28.8753L57.8469 29.3929C60.1041 28.748 62.3613 28.1031 64.6184 27.4581L66.1358 27.0246C66.1358 27.0246 66.4248 26.9421 66.7204 27.0358C66.8797 26.9891 67.0065 26.9891 67.0065 26.9891C70.9193 27.084 75.3233 26.0102 79.5393 26.0902C84.1839 28.4496 89.4423 28.5779 94.3193 30.0406C89.9159 29.8777 86.4838 29.0797 82.2031 28.197C77.3216 27.1904 71.7279 28.7573 67.0065 28.838C67.0065 28.838 66.8674 28.838 66.697 28.784C66.6639 28.7967 66.6439 28.8023 66.6439 28.8023C64.3363 29.4617 60.5908 30.5319 58.2069 31.213C58.0261 31.311 57.8351 31.32 57.6797 31.3002C57.523 31.2925 57.3359 31.2501 57.175 31.1213L56.0837 30.5867C54.509 30.0512 53.2184 30.0584 51.6487 30.068C51.6163 30.0706 51.5974 30.0707 51.5974 30.0707C51.5576 30.0703 51.5175 30.0697 51.4771 30.069C51.3152 30.07 51.1498 30.0707 50.9809 30.0707C50.9809 30.0707 50.8715 30.0706 50.7278 30.0327C47.9822 29.828 44.6017 28.8432 42.1396 28.1967C37.3035 26.9268 31.8096 30.0703 26.9428 30.0706H26.3265C26.3265 30.0706 25.9962 30.0705 25.7305 29.8731C27.0465 28.8217 29.7026 29.1395 31.2172 28.644C34.7367 27.4926 38.6268 27.3424 42.385 26.4549C45.3977 26.81 48.4121 28.1869 51.3788 28.2217Z" fill="#AF7060"/>
</svg>
