<svg width="114" height="72" viewBox="0 0 114 72" fill="none" xmlns="http://www.w3.org/2000/svg">
<path d="M14.0527 11.4871C35.5606 1.53082 56.2038 1.20341 72.2817 0.554411C88.808 -0.112689 114.765 4.47924 113.95 26.0253C114.51 85.0895 22.3326 77.6615 6.06564 53.4678C0.880612 45.7563 -7.45528 21.4433 14.0527 11.4871Z" fill="#F8BC99"/>
<path opacity="0.02" fill-rule="evenodd" clip-rule="evenodd" d="M57.4687 5.42254C58.1992 5.3133 58.7554 5.591 59.1365 6.2565C58.7862 7.7792 58.7862 9.44699 59.1365 11.2599C54.3757 10.3726 53.8195 8.42708 57.4687 5.42254Z" fill="#222222"/>
<path opacity="0.01" fill-rule="evenodd" clip-rule="evenodd" d="M96.775 19.6377C97.0434 20.9321 97.8796 21.4899 99.2835 21.3101C99.005 21.8678 98.7258 22.4247 98.4473 22.9824C97.3327 23.2608 97.3327 23.5402 98.4473 23.8186C98.4148 24.7242 98.1353 25.5603 97.6111 26.327C98.5409 26.9667 99.0986 27.8029 99.2835 28.8356C96.7857 28.4609 95.9497 27.2067 96.775 25.0728C96.336 24.4942 95.7783 24.0761 95.1026 23.8186C94.2464 24.95 93.1317 25.5077 91.7579 25.4909C91.5388 24.255 91.8173 23.1405 92.5941 22.1462C93.0841 22.3209 93.5022 22.6003 93.8484 22.9824C94.7113 21.7055 95.6871 20.5909 96.775 19.6377Z" fill="#050505"/>
<path opacity="0.01" fill-rule="evenodd" clip-rule="evenodd" d="M63.3121 47.2229C61.9144 47.7925 61.3582 48.9048 61.6442 50.5585C60.521 51.1181 59.5478 51.1181 58.7255 50.5585C58.4662 48.844 58.0492 47.1761 57.4746 45.5551C57.7314 44.8812 58.1484 44.325 58.7255 43.8872C59.5595 44.9988 60.3933 44.9988 61.2271 43.8872C62.1403 44.882 62.8351 45.9945 63.3121 47.2229Z" fill="black"/>
<path opacity="0.01" d="M63.3275 47.2319C63.8711 47.4861 64.4288 47.7645 64.9999 48.0681C65.9407 51.4295 66.9156 54.7742 67.9265 58.1022C68.8037 57.2518 69.7795 57.1122 70.8532 57.6841C71.2621 59.5312 72.0982 61.0639 73.3616 62.2831C73.5489 64.1954 74.1067 66.0066 75.034 67.7183C74.8811 69.1265 74.3232 69.2652 73.3616 68.1363C73.5084 68.6331 73.621 69.0818 73.6993 69.4826C72.2242 69.7153 70.727 69.9039 69.2109 70.0503C68.5435 69.4973 67.9759 68.8593 67.5083 68.1364C68.1222 67.1262 68.4006 66.0116 68.3446 64.7917C68.0661 64.7917 67.7868 64.7917 67.5083 64.7917C67.2224 64.091 66.6655 63.8117 65.836 63.9555C65.4538 62.0766 64.6177 60.4042 63.3275 58.9384C63.6059 58.3807 63.8852 57.8237 64.1636 57.266C62.993 55.1463 62.1568 52.9162 61.6551 50.5766C61.3683 48.9185 61.9261 47.803 63.3275 47.2319ZM70.0171 63.5374C68.9167 63.0958 68.3588 63.514 68.3446 64.7917C69.0044 64.555 69.5622 64.1369 70.0171 63.5374ZM71.6894 66.8819C72.1443 67.4814 72.7018 67.8997 73.3616 68.1363C73.3474 66.8587 72.7898 66.4404 71.6894 66.8819Z" fill="#1B1B1B"/>
<path fill-rule="evenodd" clip-rule="evenodd" d="M88.9931 3.2644C90.5099 3.26439 93.2636 3.26442 86.4307 5.56398C86.1803 8.2066 84.7575 9.48764 82.1602 9.40743V11.9697L88.9931 11.5427C90.0991 14.4687 91.523 17.1738 93.2636 19.6567C90.0504 19.7864 86.9194 20.3561 83.8685 21.3649C82.1747 21.0958 81.0362 20.2417 80.452 18.8026C82.3986 17.764 84.1068 16.4829 85.5766 14.9592C84.643 12.2944 83.362 12.1518 81.7332 14.5322C81.3208 13.7225 81.1789 12.8683 81.3061 11.9699C80.1496 12.1058 78.9769 11.9596 77.8896 11.5429C80.6783 9.61351 83.2406 7.33549 85.5766 4.70993C88.4747 2.93679 85.6279 3.48471 88.9931 3.2644Z" fill="#E9B191"/>
<path fill-rule="evenodd" clip-rule="evenodd" d="M85.5716 4.70991C83.2356 7.33547 80.6731 9.61329 77.8845 11.5428C78.9717 11.9597 80.1444 12.1058 81.3009 11.9699C81.1736 12.8684 81.3155 13.7224 81.728 14.5321C83.3568 12.1517 84.6378 12.2943 85.5714 14.9592C84.1014 16.4829 82.3933 17.7641 80.4468 18.8027C80.6338 17.7991 80.3496 16.945 79.5928 16.2404C78.4381 17.1098 77.5838 18.2484 77.0304 19.6568C75.6101 18.4824 74.4707 18.7668 73.614 20.5109C72.4755 18.233 71.336 18.233 70.1976 20.5109C68.9207 19.4818 67.7822 19.4818 66.7812 20.5109C65.9339 20.364 65.3652 20.6492 65.0731 21.365C63.7561 22.0491 62.3329 22.3335 60.8024 22.219C61.1603 19.8062 60.3064 17.9562 58.2402 16.6674C60.1987 14.9908 62.4765 13.9941 65.0731 13.678L66.7814 10.2616C68.0437 9.4519 68.898 8.31338 69.3437 6.84525C69.114 8.49277 69.541 9.91574 70.6249 11.1157C72.5928 9.16835 73.874 6.89128 74.4685 4.28278H78.7389C78.8064 3.06139 78.5215 2.77618 77.8845 1.72052C78.7385 1.72052 80.8742 1.72052 80.8742 1.72052H83.0519C83.1962 2.4866 83.4381 0.778443 83.8635 1.72052C84.9598 1.72052 87.2799 2.13701 87.2799 2.57457C88.0817 2.57457 89.2958 3.3511 85.5716 4.70991Z" fill="#F0B694"/>
<path fill-rule="evenodd" clip-rule="evenodd" d="M80.4512 18.8028C81.0354 20.2421 82.1738 21.0962 83.8675 21.3652C86.9183 20.3565 90.0496 19.7868 93.2627 19.6569V20.5111V21.3651C91.8295 23.2169 90.1212 23.502 88.1379 22.2192C84.7608 22.6146 81.4555 23.4772 78.3158 24.7814C75.3769 23.7658 72.3875 22.9118 69.3477 22.2192C67.5371 23.3911 66.6831 22.8213 66.7856 20.5109C67.7867 19.4818 68.9251 19.4818 70.202 20.5109C71.3405 18.233 72.4798 18.233 73.6182 20.5109C74.4748 18.7669 75.6143 18.4824 77.0346 19.6568C77.588 18.2484 78.4423 17.11 79.597 16.2405C80.3537 16.9451 80.6383 17.7992 80.4512 18.8028Z" fill="#F4B996"/>
<path opacity="0.02" fill-rule="evenodd" clip-rule="evenodd" d="M58.4758 4.11841C59.2085 4.00885 59.7663 4.28736 60.1486 4.95484C59.7972 6.48209 59.7972 8.15482 60.1486 9.97311C55.3736 9.08316 54.8158 7.13189 58.4758 4.11841Z" fill="#222222"/>
<path opacity="0.01" fill-rule="evenodd" clip-rule="evenodd" d="M53.4578 8.30029C54.9943 8.41655 55.2728 8.97448 54.2941 9.97309C53.6267 9.5909 53.3482 9.03299 53.4578 8.30029Z" fill="black"/>
<path opacity="0.01" fill-rule="evenodd" clip-rule="evenodd" d="M91.9312 15.8281C93.333 16.3994 93.8909 17.5151 93.604 19.1736C92.7676 19.1736 91.9312 19.1736 91.0949 19.1736C91.0389 17.9533 91.3173 16.8384 91.9312 15.8281Z" fill="#0A0A0A"/>
<path opacity="0.01" fill-rule="evenodd" clip-rule="evenodd" d="M97.4735 18.3413C97.742 19.636 98.5784 20.1939 99.9826 20.0141C99.7041 20.572 99.4248 21.129 99.1463 21.6868C98.0314 21.9653 98.0314 22.2448 99.1463 22.5233C99.1137 23.4291 98.8342 24.2655 98.3098 25.0323C99.2399 25.6722 99.7977 26.5086 99.9826 27.5415C97.4843 27.1668 96.648 25.9122 97.4735 23.7778C97.0344 23.199 96.4766 22.7808 95.8008 22.5233C94.9443 23.6549 93.8293 24.2128 92.4552 24.196C92.236 22.9598 92.5146 21.845 93.2916 20.8505C93.7817 21.0252 94.1999 21.3046 94.5462 21.6868C95.4093 20.4096 96.3854 19.2947 97.4735 18.3413Z" fill="#050505"/>
<path opacity="0.01" fill-rule="evenodd" clip-rule="evenodd" d="M64.3304 45.9384C62.9286 46.5096 62.3708 47.6253 62.6576 49.2839C61.5311 49.8452 60.5549 49.8452 59.7302 49.2839C59.4701 47.5643 59.0518 45.8915 58.4756 44.2656C58.7332 43.5897 59.1514 43.0319 59.7302 42.5928C60.5666 43.7076 61.403 43.7076 62.2393 42.5928C63.1552 43.5906 63.852 44.7063 64.3304 45.9384Z" fill="black"/>
<path opacity="0.01" fill-rule="evenodd" clip-rule="evenodd" d="M55.9668 44.2651C57.0817 44.823 57.0817 44.823 55.9668 44.2651Z" fill="black"/>
<path opacity="0.01" fill-rule="evenodd" clip-rule="evenodd" d="M56.8029 56.811C54.7831 57.4141 53.1102 58.5289 51.7846 60.1566C49.5664 58.1484 49.845 56.4757 52.6209 55.1383C53.5292 55.0379 54.0871 54.48 54.2937 53.4655C54.2577 52.6993 53.9792 52.1415 53.4573 51.7927C54.1607 50.2211 54.4401 48.5483 54.2937 46.7744C55.3994 46.9165 56.3756 46.638 57.2212 45.938C57.9489 46.4466 58.367 47.1433 58.4758 48.029C57.8158 49.3889 56.9794 50.6435 55.9666 51.7927C56.1707 53.5073 56.4491 55.1801 56.8029 56.811Z" fill="#121212"/>
<path opacity="0.01" fill-rule="evenodd" clip-rule="evenodd" d="M53.4578 51.793C53.5139 53.0133 53.2353 54.1281 52.6215 55.1385C51.785 55.1385 50.9487 55.1385 50.1124 55.1385C50.1023 52.9288 51.2171 51.8138 53.4578 51.793Z" fill="black"/>
<path opacity="0.01" d="M64.3309 45.938C64.8746 46.1923 65.4324 46.4707 66.0037 46.7744C66.9447 50.1366 67.9199 53.4822 68.931 56.811C69.8085 55.9605 70.7845 55.8208 71.8585 56.3928C72.2675 58.2404 73.1038 59.7735 74.3675 60.993C74.5549 62.9058 75.1128 64.7174 76.0403 66.4296C75.8873 67.8381 75.3294 67.9768 74.3675 66.8477C74.5144 67.3446 74.627 67.7934 74.7053 68.1943C73.2298 68.427 71.7322 68.6157 70.2158 68.7621C69.5481 68.209 68.9804 67.5708 68.5128 66.8477C69.1267 65.8373 69.4053 64.7224 69.3492 63.5022C69.0707 63.5022 68.7913 63.5022 68.5128 63.5022C68.2267 62.8013 67.6697 62.5219 66.84 62.6658C66.4577 60.7864 65.6214 59.1136 64.3308 57.6474C64.6093 57.0896 64.8888 56.5325 65.1672 55.9746C63.9963 53.8543 63.1598 51.6237 62.658 49.2835C62.3712 47.6249 62.9291 46.5092 64.3309 45.938ZM71.0222 62.2476C69.9215 61.8059 69.3634 62.2241 69.3492 63.5022C70.0092 63.2655 70.5672 62.8473 71.0222 62.2476ZM72.6949 65.5929C73.1499 66.1926 73.7076 66.611 74.3675 66.8477C74.3533 65.5697 73.7956 65.1513 72.6949 65.5929Z" fill="#1B1B1B"/>
<path opacity="0.01" fill-rule="evenodd" clip-rule="evenodd" d="M61.821 56.8113C60.8383 56.6281 60.0018 56.9066 59.3118 57.6477C60.4267 58.7625 60.4267 59.8784 59.3118 60.9933C59.6941 61.6607 60.2519 61.9392 60.9846 61.8296C58.8535 64.0151 56.9014 63.8754 55.1299 61.4114C55.7756 60.3902 56.612 59.5538 57.639 58.9023C57.0101 58.341 56.7308 57.6444 56.8026 56.8113C58.5682 55.7725 60.2411 55.7725 61.821 56.8113Z" fill="#030303"/>
<path opacity="0.01" fill-rule="evenodd" clip-rule="evenodd" d="M75.2035 60.9928C74.925 60.9928 74.6456 60.9928 74.3672 60.9928C74.6457 58.7622 74.925 58.7622 75.2035 60.9928Z" fill="black"/>
<path opacity="0.01" fill-rule="evenodd" clip-rule="evenodd" d="M75.2031 60.993C76.1859 60.8098 77.0224 61.0883 77.7124 61.8293C76.4143 62.9149 75.5779 62.6365 75.2031 60.993Z" fill="black"/>
<path opacity="0.01" fill-rule="evenodd" clip-rule="evenodd" d="M61.8216 65.1748C62.4147 65.9309 63.251 66.2094 64.3308 66.0112C64.3308 66.8475 64.3308 67.684 64.3308 68.5203C63.3096 68.0787 62.3343 67.5208 61.4035 66.8475C60.8247 66.0639 60.9643 65.5068 61.8216 65.1748Z" fill="black"/>
<path opacity="0.012" d="M66.8399 62.666C67.6697 62.5221 68.2266 62.8015 68.5128 63.5024C67.5208 64.7244 67.5208 65.8401 68.5128 66.8479C68.9804 67.5711 69.548 68.2093 70.2157 68.7624C68.282 68.9491 66.318 69.0669 64.3308 69.1192C64.3308 68.9197 64.3308 68.7203 64.3308 68.5208C64.3308 67.6844 64.3308 66.848 64.3308 66.0116C63.251 66.2098 62.4146 65.9313 61.8217 65.1752C63.0378 63.7007 62.7584 62.5849 60.9853 61.8296C60.2526 61.9392 59.6948 61.6608 59.3125 60.9933C60.4274 59.8784 60.4274 58.7626 59.3125 57.6477C60.0025 56.9067 60.8389 56.6281 61.8217 56.8113C63.2184 59.0411 64.8912 60.9924 66.8399 62.666Z" fill="#3D3D3D"/>
<path d="M48.7292 52.9814C48.6634 52.994 48.5831 52.9998 48.5 52.9832C48.5764 52.9826 48.6528 52.9821 48.7292 52.9814Z" fill="#9B6F5D"/>
<path d="M48.0358 52.9863C47.9817 52.9945 47.9197 52.9973 47.8555 52.9872C47.9155 52.9869 47.9757 52.9866 48.0358 52.9863Z" fill="#9B6F5D"/>
<path d="M33.6662 23.3169C33.4489 23.4223 33.2308 23.5242 33.0117 23.6215C33.2298 23.5175 33.4479 23.415 33.6662 23.3169Z" fill="#9B6F5D"/>
<path d="M51.2286 61.0318L51.2753 61.0122C51.2912 61.0221 51.307 61.0316 51.3227 61.0411C51.7734 61.0879 52.2122 61.169 52.6434 61.2711C53.3166 61.1305 53.9319 60.6945 54.7094 60.7282C54.9242 60.5943 55.1695 60.4704 55.4394 60.3576C57.4181 60.2734 59.3912 60.145 61.4177 60.145C62.4559 60.145 63.4866 60.4852 64.5137 60.6398C64.5157 60.641 64.5176 60.6423 64.5196 60.6435L64.5207 60.6409C64.6477 60.66 64.7746 60.6761 64.9015 60.6884L65.0282 60.7674C65.1822 60.8585 65.2888 61.0542 65.2888 61.2809C65.2888 61.5076 65.1823 61.7034 65.0282 61.7945L64.682 62.0105C63.7748 64.1551 60.3722 63.8369 58.6853 63.8369C58.114 63.8369 57.5632 63.7705 57.0248 63.6637C54.874 63.7277 52.6214 63.5981 51.0182 62.2295L50.9671 62.357L50.6094 62.134C50.5689 62.1333 50.5283 62.1329 50.4876 62.1329C50.4876 62.1329 50.0322 62.1329 50.0322 61.5649C50.0322 60.9968 50.4876 60.9969 50.4876 60.9969C50.5502 60.9969 50.6124 60.9976 50.6744 60.9991C50.6878 60.9976 50.7016 60.9969 50.7154 60.9969H51.1708V61.0265C51.1902 61.0282 51.2093 61.03 51.2286 61.0318Z" fill="#DEA889"/>
<path d="M49.5508 60.7408C49.7575 60.7408 49.9643 60.7408 50.1711 60.7408C54.0586 58.8143 59.6709 59.8496 63.7601 59.8981C64.2693 60.1098 64.8173 60.182 65.3541 60.182L65.4308 60.255L65.4429 60.2093L66.1137 60.4881C66.2299 60.5326 66.3302 60.6224 66.4015 60.7409C66.1738 60.7409 65.9462 60.7409 65.7184 60.7409C60.156 60.7415 54.5757 60.9864 48.9971 61.0209L49.5508 60.7408Z" fill="#95725D"/>
<path d="M68.5514 37.325C68.5514 45.2825 63.5431 51.7335 57.3651 51.7335C51.187 51.7335 46.1787 45.2825 46.1787 37.325C46.1787 29.3674 51.187 22.9165 57.3651 22.9165C63.5431 22.9165 68.5514 29.3674 68.5514 37.325Z" fill="#482520"/>
<path d="M67.5678 44.694C67.5678 45.6245 68.2764 44.868 68.0087 41.8386C67.7723 39.1643 67.5958 31.0307 66.843 29.5747C66.1208 28.1779 61.7872 24.8962 58.3482 24.8962C57.6942 24.8962 54.7914 24.8016 52.293 25.9541C50.8497 26.6198 49.3777 28.5811 48.9748 28.9479C47.0863 30.6673 45.9517 39.7387 46.568 41.1509C46.6862 41.4219 45.6868 41.4541 45.6868 39.1946C45.6868 37.7363 44.6795 29.9537 45.8362 26.6427C47.196 22.7502 49.314 20.3316 51.7998 18.5802C53.7172 17.2293 55.7072 22.0365 57.3649 22.0365C57.8242 22.0365 60.9347 17.2735 62.9577 18.8641C64.846 20.3489 66.8895 22.3864 67.9549 24.7145C70.2062 29.634 68.3053 38.4645 68.3053 40.7345L67.5678 44.694Z" fill="#C9816E"/>
<path d="M68.551 39.1948C68.551 40.2355 68.6393 40.0467 68.6496 41.8386C68.6654 44.597 68.9878 47.8785 68.0261 50.5533C67.4343 52.1993 65.4842 55.3198 64.6204 55.4862C62.4774 55.8993 58.7168 55.2531 58.7168 55.2531C58.7168 55.2531 55.6415 55.9065 54.0374 55.7688C53.0038 55.6801 50.4979 54.5837 49.5312 53.2472C47.6817 50.6904 46.6426 46.5356 46.1231 42.9695C45.8111 40.8277 45.6865 38.8982 45.6865 37.655C45.6865 34.6208 47.0595 43.0131 50.4081 45.3758C52.9678 47.1818 54.1995 48.2138 57.7334 48.2138C61.316 48.2138 63.3178 45.3234 65.3895 44.353C65.7889 44.1659 68.551 39.1948 68.551 39.1948Z" fill="#DC8D79"/>
<path d="M61.9135 19.2869C61.0513 19.2383 57.4024 22.9606 57.3652 22.944C57.0033 22.7821 54.3081 19.9525 53.0734 19.465C51.0119 18.6509 47.9197 23.9236 47.8979 23.976C47.1766 24.573 46.5479 25.2585 46.0507 26.0008C45.6916 25.7851 45.8416 25.3823 45.8416 25.3823L46.1184 24.6546C46.4234 24.2454 46.6822 23.8014 46.856 23.3348C48.1722 21.5592 50.4165 17.397 53.5439 18.4488C55.1875 19.0016 56.168 20.5043 57.3648 21.5883C58.4695 20.5718 60.3006 18.2306 61.9135 18.187C64.3171 18.1219 66.9791 21.5335 67.5993 23.2873C68.2011 23.8027 67.8369 24.6074 67.8369 24.6074C67.041 23.8533 63.648 19.3845 61.9135 19.2869Z" fill="#AF7060"/>
<path d="M60.332 55.6497C58.5017 55.5917 56.7253 55.9674 54.9266 56.0243C53.2977 56.0243 50.8902 56.0963 49.9082 53.8574C50.4718 54.2897 50.9926 54.8311 51.6259 54.9525C52.6596 55.5121 53.802 55.275 54.9266 55.275C55.7535 55.3168 56.8902 55.0012 57.6989 54.7231C58.5532 54.4294 59.521 54.9414 60.332 54.9004C60.4106 54.9004 60.4882 54.901 60.5647 54.9021C61.8082 55.3205 63.1414 55.2751 64.4505 55.2751C64.7093 55.2668 64.952 55.2131 65.1819 55.1229C63.5628 56.0683 62.1342 55.6497 60.332 55.6497Z" fill="#AF7060"/>
<path d="M66.8906 42.9562C65.0771 45.4028 61.9317 47.5313 58.8473 48.6515C58.8443 48.7053 58.8322 48.764 58.8084 48.8279C58.614 49.3496 58.0309 49.1757 58.0309 49.1757C54.8525 48.2278 50.8565 46.9966 48.8631 44.3395L48.5789 43.8405C48.5789 43.8405 48.5318 43.7562 48.5156 43.64C50.3936 45.6598 53.144 47.1393 55.9721 47.3769C56.5267 47.5617 57.0779 47.7309 57.6104 47.8908C58.7508 47.5444 59.934 47.0336 61.0629 46.4025C63.3022 45.3408 66.6737 42.0038 67.9627 39.961C68.0467 39.9522 66.8906 42.9562 66.8906 42.9562Z" fill="#AF7060"/>
<path d="M59.7002 26.106C58.0642 26.106 55.3859 25.6121 53.941 25.8714C53.5065 25.9493 53.0901 26.1587 52.6917 26.4485C51.0419 26.9969 49.6025 28.065 48.4889 29.801C48.4316 29.8581 48.3755 29.9163 48.3208 29.9755C48.1179 29.6422 48.448 29.3468 48.448 29.3468C49.9296 28.0975 51.3594 25.2117 53.6585 24.8009C55.2859 24.5101 57.9453 25.0061 59.7002 25.0061C63.3784 25.047 64.7971 27.7062 67.2646 29.7867L67.3146 29.9559C66.524 29.3936 65.691 28.9349 65.1042 28.6444C64.7327 28.4605 64.36 28.2834 63.9867 28.114C62.8101 26.9864 61.5155 26.0906 59.7002 26.106Z" fill="#AF7060"/>
</svg>
