<svg width="115" height="72" viewBox="0 0 115 72" fill="none" xmlns="http://www.w3.org/2000/svg">
<path d="M14.7596 60.846C-6.74832 50.8897 1.58764 26.5768 6.77268 18.8653C23.0396 -5.32838 115.217 -12.7564 114.657 46.3078C115.472 67.8538 89.5151 72.4458 72.9887 71.7787C56.9108 71.1297 36.2676 70.8023 14.7596 60.846Z" fill="#F8BC99"/>
<path opacity="0.02" fill-rule="evenodd" clip-rule="evenodd" d="M58.4687 4.42254C59.1992 4.3133 59.7554 4.591 60.1365 5.2565C59.7862 6.7792 59.7862 8.44699 60.1365 10.2599C55.3757 9.37256 54.8195 7.42708 58.4687 4.42254Z" fill="#222222"/>
<path opacity="0.01" fill-rule="evenodd" clip-rule="evenodd" d="M97.775 18.6377C98.0434 19.9321 98.8796 20.4899 100.283 20.3101C100.005 20.8678 99.7258 21.4247 99.4473 21.9824C98.3327 22.2608 98.3327 22.5402 99.4473 22.8186C99.4148 23.7242 99.1353 24.5603 98.6111 25.327C99.5409 25.9667 100.099 26.8029 100.283 27.8356C97.7857 27.4609 96.9497 26.2067 97.775 24.0728C97.336 23.4942 96.7783 23.0761 96.1026 22.8186C95.2464 23.95 94.1317 24.5077 92.7579 24.4909C92.5388 23.255 92.8173 22.1405 93.5941 21.1462C94.0841 21.3209 94.5022 21.6003 94.8484 21.9824C95.7113 20.7055 96.6871 19.5909 97.775 18.6377Z" fill="#050505"/>
<path opacity="0.01" fill-rule="evenodd" clip-rule="evenodd" d="M64.3121 46.2229C62.9144 46.7925 62.3582 47.9048 62.6442 49.5585C61.521 50.1181 60.5478 50.1181 59.7255 49.5585C59.4662 47.844 59.0492 46.1761 58.4746 44.5551C58.7314 43.8812 59.1484 43.325 59.7255 42.8872C60.5595 43.9988 61.3933 43.9988 62.2271 42.8872C63.1403 43.882 63.8351 44.9945 64.3121 46.2229Z" fill="black"/>
<path opacity="0.01" d="M64.3275 46.2319C64.8711 46.4861 65.4288 46.7645 65.9999 47.0681C66.9407 50.4295 67.9156 53.7742 68.9265 57.1022C69.8037 56.2518 70.7795 56.1122 71.8532 56.6841C72.2621 58.5312 73.0982 60.0639 74.3616 61.2831C74.5489 63.1954 75.1067 65.0066 76.034 66.7183C75.8811 68.1265 75.3232 68.2652 74.3616 67.1363C74.5084 67.6331 74.621 68.0818 74.6993 68.4826C73.2242 68.7153 71.727 68.9039 70.2109 69.0503C69.5435 68.4973 68.9759 67.8593 68.5083 67.1364C69.1222 66.1262 69.4006 65.0116 69.3446 63.7917C69.0661 63.7917 68.7868 63.7917 68.5083 63.7917C68.2224 63.091 67.6655 62.8117 66.836 62.9555C66.4538 61.0766 65.6177 59.4042 64.3275 57.9384C64.6059 57.3807 64.8852 56.8237 65.1636 56.266C63.993 54.1463 63.1568 51.9162 62.6551 49.5766C62.3683 47.9185 62.9261 46.803 64.3275 46.2319ZM71.0171 62.5374C69.9167 62.0958 69.3588 62.514 69.3446 63.7917C70.0044 63.555 70.5622 63.1369 71.0171 62.5374ZM72.6894 65.8819C73.1443 66.4814 73.7018 66.8997 74.3616 67.1363C74.3474 65.8587 73.7898 65.4404 72.6894 65.8819Z" fill="#1B1B1B"/>
<path fill-rule="evenodd" clip-rule="evenodd" d="M89.9931 2.2644C91.5099 2.26439 94.2636 2.26442 87.4307 4.56398C87.1803 7.2066 85.7575 8.48764 83.1602 8.40743V10.9697L89.9931 10.5427C91.0991 13.4687 92.523 16.1738 94.2636 18.6567C91.0504 18.7864 87.9194 19.3561 84.8685 20.3649C83.1747 20.0958 82.0362 19.2417 81.452 17.8026C83.3986 16.764 85.1068 15.4829 86.5766 13.9592C85.643 11.2944 84.362 11.1518 82.7332 13.5322C82.3208 12.7225 82.1789 11.8683 82.3061 10.9699C81.1496 11.1058 79.9769 10.9596 78.8896 10.5429C81.6783 8.61351 84.2406 6.33549 86.5766 3.70993C89.4747 1.93679 86.6279 2.48471 89.9931 2.2644Z" fill="#E9B191"/>
<path fill-rule="evenodd" clip-rule="evenodd" d="M86.5716 3.70991C84.2356 6.33547 81.6731 8.61329 78.8845 10.5428C79.9717 10.9597 81.1444 11.1058 82.3009 10.9699C82.1736 11.8684 82.3155 12.7224 82.728 13.5321C84.3568 11.1517 85.6378 11.2943 86.5714 13.9592C85.1014 15.4829 83.3933 16.7641 81.4468 17.8027C81.6338 16.7991 81.3496 15.945 80.5928 15.2404C79.4381 16.1098 78.5838 17.2484 78.0304 18.6568C76.6101 17.4824 75.4707 17.7668 74.614 19.5109C73.4755 17.233 72.336 17.233 71.1976 19.5109C69.9207 18.4818 68.7822 18.4818 67.7812 19.5109C66.9339 19.364 66.3652 19.6492 66.0731 20.365C64.7561 21.0491 63.3329 21.3335 61.8024 21.219C62.1603 18.8062 61.3064 16.9562 59.2402 15.6674C61.1987 13.9908 63.4765 12.9941 66.0731 12.678L67.7814 9.26156C69.0437 8.4519 69.898 7.31338 70.3437 5.84525C70.114 7.49277 70.541 8.91574 71.6249 10.1157C73.5928 8.16835 74.874 5.89128 75.4685 3.28278H79.7389C79.8064 2.06139 79.5215 1.77618 78.8845 0.720518C79.7385 0.720518 81.8742 0.720518 81.8742 0.720518H84.0519C84.1962 1.4866 84.4381 -0.221557 84.8635 0.720518C85.9598 0.720518 88.2799 1.13701 88.2799 1.57457C89.0817 1.57457 90.2958 2.3511 86.5716 3.70991Z" fill="#F0B694"/>
<path fill-rule="evenodd" clip-rule="evenodd" d="M81.4512 17.8028C82.0354 19.2421 83.1738 20.0962 84.8675 20.3652C87.9183 19.3565 91.0496 18.7868 94.2627 18.6569V19.5111V20.3651C92.8295 22.2169 91.1212 22.502 89.1379 21.2192C85.7608 21.6146 82.4555 22.4772 79.3158 23.7814C76.3769 22.7658 73.3875 21.9118 70.3477 21.2192C68.5371 22.3911 67.6831 21.8213 67.7856 19.5109C68.7867 18.4818 69.9251 18.4818 71.202 19.5109C72.3405 17.233 73.4798 17.233 74.6182 19.5109C75.4748 17.7669 76.6143 17.4824 78.0346 18.6568C78.588 17.2484 79.4423 16.11 80.597 15.2405C81.3537 15.9451 81.6383 16.7992 81.4512 17.8028Z" fill="#F4B996"/>
<path d="M94.6639 26.9458C94.6639 26.9458 91.4353 33.2223 85.3591 38.6258C78.9037 44.3665 69.2674 49.2547 58.0412 49.2547C36.2482 49.2547 22.708 28.2354 22.708 28.2354C22.708 28.2354 34.4429 25.5273 56.2358 25.5273C78.0288 25.5273 94.6639 26.9458 94.6639 26.9458Z" fill="#482520"/>
<path d="M29.3061 27.3817L29.3429 27.3271C29.4298 27.2193 29.6184 27.0812 29.8757 26.9265C32.1237 26.2503 34.0026 25.6401 34.9189 25.5275C39.1296 25.0102 50.4778 22.9212 54.2064 22.9212L54.5452 22.8517C57.2136 25.4062 62.18 22.902 66.2472 21.9048C68.719 22.0282 88.0264 26.2662 89.8316 26.9265C90.1831 27.3271 89.8316 30.313 86.833 31.9381C85.427 32.7 66.5721 35.4721 57.3152 35.0758C47.482 34.6548 34.0243 34.3067 30.6451 31.9381C29.3061 30.9995 26.4301 28.4517 26.3828 27.3271C26.3828 27.3271 28.9582 27.4485 29.3061 27.3817Z" fill="#F9F9F9"/>
<path d="M31.3125 37.084C33.81 35.2876 35.551 34.9398 39.5854 34.9575C43.9261 35.0552 51.6201 34.7908 59.2093 35.3994C84.2712 33.174 85.3908 35.2649 86.8547 37.7722C86.3877 38.1258 45.3487 47.676 35.5843 41.0286C34.0166 39.7847 32.6542 38.3662 31.3125 37.084C29.6377 38.0658 33.4945 36.3765 31.3125 37.084Z" fill="#F9F9F9"/>
<path opacity="0.02" fill-rule="evenodd" clip-rule="evenodd" d="M59.1828 4.5271C59.9155 4.41754 60.4733 4.69605 60.8556 5.36353C60.5043 6.89078 60.5043 8.56351 60.8556 10.3818C56.0806 9.49185 55.5228 7.54058 59.1828 4.5271Z" fill="#222222"/>
<path opacity="0.01" fill-rule="evenodd" clip-rule="evenodd" d="M54.1648 8.70898C55.7013 8.82524 55.9798 9.38317 55.0011 10.3818C54.3337 9.99959 54.0552 9.44168 54.1648 8.70898Z" fill="black"/>
<path opacity="0.01" fill-rule="evenodd" clip-rule="evenodd" d="M92.6383 16.2368C94.0401 16.8081 94.5979 17.9238 94.3111 19.5823C93.4746 19.5823 92.6382 19.5823 91.802 19.5823C91.7459 18.362 92.0243 17.2471 92.6383 16.2368Z" fill="#0A0A0A"/>
<path opacity="0.01" fill-rule="evenodd" clip-rule="evenodd" d="M98.4931 18.7461C98.7615 20.0408 99.5979 20.5987 101.002 20.4189C100.724 20.9767 100.444 21.5338 100.166 22.0916C99.0509 22.3701 99.0509 22.6495 100.166 22.928C100.133 23.8339 99.8538 24.6702 99.3294 25.4371C100.259 26.077 100.817 26.9134 101.002 27.9463C98.5038 27.5716 97.6675 26.317 98.4931 24.1826C98.054 23.6038 97.4961 23.1856 96.8203 22.928C95.9638 24.0597 94.8489 24.6175 93.4747 24.6008C93.2556 23.3646 93.5341 22.2498 94.3111 21.2553C94.8012 21.43 95.2194 21.7094 95.5658 22.0916C96.4289 20.8144 97.4049 19.6995 98.4931 18.7461Z" fill="#050505"/>
<path opacity="0.01" fill-rule="evenodd" clip-rule="evenodd" d="M65.0375 46.3471C63.6356 46.9183 63.0778 48.034 63.3647 49.6926C62.2381 50.2538 61.262 50.2538 60.4372 49.6926C60.1771 47.973 59.7589 46.3002 59.1826 44.6743C59.4402 43.9984 59.8585 43.4406 60.4372 43.0015C61.2737 44.1163 62.11 44.1163 62.9463 43.0015C63.8622 43.9993 64.5591 45.115 65.0375 46.3471Z" fill="black"/>
<path opacity="0.01" fill-rule="evenodd" clip-rule="evenodd" d="M56.6738 44.6738C57.7887 45.2317 57.7887 45.2317 56.6738 44.6738Z" fill="black"/>
<path opacity="0.01" fill-rule="evenodd" clip-rule="evenodd" d="M57.5099 57.2197C55.4901 57.8227 53.8173 58.9376 52.4916 60.5652C50.2735 58.5571 50.552 56.8843 53.328 55.5469C54.2363 55.4466 54.7942 54.8887 55.0008 53.8741C54.9648 53.108 54.6863 52.5502 54.1643 52.2014C54.8677 50.6298 55.1471 48.957 55.0008 47.183C56.1065 47.3252 57.0826 47.0467 57.9282 46.3467C58.6559 46.8553 59.0741 47.552 59.1828 48.4376C58.5228 49.7976 57.6865 51.0522 56.6736 52.2014C56.8777 53.916 57.1561 55.5888 57.5099 57.2197Z" fill="#121212"/>
<path opacity="0.01" fill-rule="evenodd" clip-rule="evenodd" d="M54.1649 52.2017C54.2209 53.422 53.9424 54.5368 53.3285 55.5472C52.4921 55.5472 51.6557 55.5472 50.8194 55.5472C50.8093 53.3375 51.9241 52.2225 54.1649 52.2017Z" fill="black"/>
<path opacity="0.01" d="M65.0379 46.3467C65.5816 46.601 66.1395 46.8794 66.7107 47.183C67.6517 50.5453 68.6269 53.8909 69.6381 57.2197C70.5155 56.3691 71.4915 56.2295 72.5655 56.8015C72.9745 58.649 73.8108 60.1822 75.0746 61.4017C75.2619 63.3145 75.8198 65.1261 76.7474 66.8383C76.5944 68.2468 76.0364 68.3855 75.0746 67.2564C75.2214 67.7532 75.334 68.2021 75.4123 68.6029C73.9369 68.8357 72.4392 69.0244 70.9228 69.1708C70.2552 68.6177 69.6875 67.9795 69.2198 67.2564C69.8338 66.246 70.1123 65.1311 70.0562 63.9108C69.7777 63.9108 69.4983 63.9108 69.2198 63.9108C68.9338 63.21 68.3767 62.9306 67.547 63.0745C67.1647 61.1951 66.3285 59.5223 65.0379 58.0561C65.3164 57.4982 65.5958 56.9412 65.8742 56.3833C64.7033 54.263 63.8669 52.0324 63.3651 49.6922C63.0782 48.0336 63.6361 46.9179 65.0379 46.3467ZM71.7292 62.6562C70.6285 62.2146 70.0705 62.6328 70.0562 63.9108C70.7162 63.6742 71.2742 63.2559 71.7292 62.6562ZM73.4019 66.0016C73.8569 66.6013 74.4146 67.0197 75.0746 67.2564C75.0603 65.9784 74.5026 65.5599 73.4019 66.0016Z" fill="#1B1B1B"/>
<path opacity="0.01" fill-rule="evenodd" clip-rule="evenodd" d="M62.528 57.22C61.5453 57.0368 60.7089 57.3153 60.0189 58.0563C61.1337 59.1712 61.1337 60.2871 60.0189 61.402C60.4011 62.0694 60.959 62.3479 61.6917 62.2383C59.5605 64.4238 57.6084 64.2841 55.8369 61.8201C56.4826 60.7989 57.319 59.9625 58.3461 59.311C57.7171 58.7497 57.4378 58.0531 57.5096 57.22C59.2752 56.1812 60.9481 56.1812 62.528 57.22Z" fill="#030303"/>
<path opacity="0.01" fill-rule="evenodd" clip-rule="evenodd" d="M75.9105 61.4015C75.632 61.4015 75.3526 61.4015 75.0742 61.4015C75.3527 59.1709 75.6321 59.1709 75.9105 61.4015Z" fill="black"/>
<path opacity="0.01" fill-rule="evenodd" clip-rule="evenodd" d="M75.9102 61.4017C76.8929 61.2185 77.7294 61.497 78.4194 62.238C77.1213 63.3236 76.2849 63.0452 75.9102 61.4017Z" fill="black"/>
<path opacity="0.01" fill-rule="evenodd" clip-rule="evenodd" d="M62.5287 65.5835C63.1217 66.3396 63.9581 66.6181 65.0378 66.4199C65.0378 67.2562 65.0378 68.0927 65.0378 68.929C64.0166 68.4874 63.0414 67.9295 62.1105 67.2562C61.5317 66.4726 61.6714 65.9155 62.5287 65.5835Z" fill="black"/>
<path opacity="0.012" d="M67.547 63.0747C68.3767 62.9308 68.9337 63.2101 69.2198 63.9111C68.2278 65.1331 68.2278 66.2487 69.2198 67.2566C69.6874 67.9798 70.2551 68.618 70.9228 69.1711C68.989 69.3578 67.025 69.4756 65.0378 69.5279C65.0378 69.3284 65.0378 69.129 65.0378 68.9294C65.0378 68.0931 65.0378 67.2566 65.0378 66.4203C63.958 66.6185 63.1216 66.34 62.5287 65.5839C63.7448 64.1094 63.4654 62.9936 61.6923 62.2383C60.9596 62.3479 60.4018 62.0694 60.0195 61.402C61.1344 60.2871 61.1344 59.1713 60.0195 58.0564C60.7095 57.3154 61.5459 57.0368 62.5287 57.22C63.9254 59.4498 65.5982 61.4011 67.547 63.0747Z" fill="#3D3D3D"/>
<path d="M49.4362 53.3901C49.3705 53.4027 49.2901 53.4085 49.207 53.3918C49.2834 53.3912 49.3598 53.3908 49.4362 53.3901Z" fill="#9B6F5D"/>
<path d="M48.7428 53.395C48.6887 53.4032 48.6267 53.406 48.5625 53.3959C48.6226 53.3956 48.6828 53.3953 48.7428 53.395Z" fill="#9B6F5D"/>
<path d="M34.3733 23.7256C34.1559 23.831 33.9379 23.9328 33.7188 24.0302C33.9368 23.9262 34.1549 23.8237 34.3733 23.7256Z" fill="#9B6F5D"/>
<path d="M48.6493 56.192L48.7084 56.1724C48.7285 56.1822 48.7487 56.1918 48.7686 56.2013C49.3395 56.248 49.8953 56.3292 50.4415 56.4313C51.2942 56.2907 52.0736 55.8547 53.0586 55.8884C53.3307 55.7544 53.6413 55.6306 53.9833 55.5177C56.4898 55.4336 58.9891 55.3052 61.5561 55.3052C62.8714 55.3052 64.177 55.6454 65.4779 55.8C65.4805 55.8012 65.4829 55.8024 65.4854 55.8037L65.4868 55.8011C65.6476 55.8202 65.8084 55.8363 65.9692 55.8486L66.1297 55.9276C66.3248 56.0186 66.4598 56.2143 66.4598 56.4411C66.4598 56.6678 66.3249 56.8636 66.1297 56.9546L65.6911 57.1706C64.5419 59.3153 60.2318 58.997 58.0949 58.997C57.3712 58.997 56.6736 58.9306 55.9915 58.8239C53.267 58.8879 50.4136 58.7582 48.3828 57.3897L48.3181 57.5172L47.8649 57.2941C47.8137 57.2935 47.7622 57.2931 47.7107 57.2931C47.7107 57.2931 47.1338 57.2931 47.1338 56.725C47.1338 56.157 47.7107 56.1571 47.7107 56.1571C47.7899 56.1571 47.8687 56.1578 47.9473 56.1593C47.9643 56.1578 47.9816 56.1571 47.9991 56.1571H48.5761V56.1867C48.6006 56.1883 48.6248 56.1901 48.6493 56.192Z" fill="#DEA889"/>
<path d="M46.5237 55.901C46.7855 55.901 47.0475 55.901 47.3094 55.901C52.2338 53.9745 59.3431 55.0098 64.523 55.0582C65.1681 55.27 65.8623 55.3422 66.5422 55.3422L66.6393 55.4152L66.6548 55.3695L67.5044 55.6482C67.6516 55.6928 67.7787 55.7825 67.8691 55.901C67.5806 55.901 67.2922 55.901 67.0037 55.901C59.9576 55.9016 52.8889 56.1465 45.8223 56.181L46.5237 55.901Z" fill="#95725D"/>
<path d="M82.1259 40.6588C82.9591 42.2611 75.0793 43.2982 66.4262 43.3171C53.343 43.2969 37.0797 43.6054 38.1132 42.1149C28.8305 36.6569 22.6436 28.4757 22.6436 28.4757C23.0794 28.7554 30.8146 34.0337 31.2611 34.2878C32.1803 34.8111 34.7238 37.0078 36.7049 37.5685C40.1188 38.5348 44.1958 38.6501 45.8868 39.1264C51.5014 40.7078 50.8297 40.6282 56.7518 40.4852C59.9913 40.4069 63.2322 39.7388 66.4262 39.7342C69.1126 39.741 72.5097 40.4764 76.1859 39.6935C78.8505 39.1259 82.6494 37.2643 85.7147 35.157C90.8389 31.6341 94.8385 27.4243 94.8385 27.4243C94.8385 27.4243 93.4143 27.6499 94.2475 29.2522L82.1259 40.6588Z" fill="#AF7060"/>
<path d="M95.0179 26.9477C95.0179 29.9558 86.4053 39.0911 80.3099 43.843C77.0056 45.5754 75.3323 46.7512 72.0883 48.0156C69.1053 49.1784 60.4636 48.1268 57.5535 48.1268C54.895 48.1268 49.6873 49.4148 46.8325 48.7666C42.0129 47.6722 38.2681 44.2441 34.7843 41.7732C30.0591 38.4217 21.9912 30.327 21.9912 27.7693C21.9912 26.7695 34.3732 39.6452 40.6091 39.4063C45.2004 39.6291 52.6608 41.1856 56.8748 41.1856C62.3502 41.1856 72.2704 39.8937 76.1106 40.3414C88.9862 37.9735 94.7602 25.7791 94.7602 26.9479L95.0179 26.9477Z" fill="#DC8D79"/>
<path d="M61.6597 49.1109C58.2059 49.029 54.8538 49.5603 51.4599 49.6408C48.3862 49.6408 43.8433 49.7427 41.9902 46.5762C43.0538 47.1875 44.0365 47.9533 45.2314 48.1248C47.1821 48.9163 49.3377 48.5811 51.4599 48.5811C53.0202 48.6402 55.1651 48.1938 56.6911 47.8004C58.3032 47.385 60.1293 48.1092 61.6597 48.0512C61.808 48.0512 61.9543 48.052 62.0988 48.0536C64.4452 48.6454 66.9609 48.5811 69.431 48.5811C69.9195 48.5695 70.3776 48.4934 70.8113 48.3659C67.756 49.703 65.0605 49.1109 61.6597 49.1109Z" fill="#AF7060"/>
<path d="M57.8047 21.6845C57.8644 21.4384 57.9256 21.1926 57.9854 20.947C58.0895 20.9889 58.197 21.0211 58.3087 21.0415C59.3034 21.2231 60.1469 20.8298 61.0769 20.7705L61.5097 20.5003C62.8843 20.5456 63.6855 19.8899 64.9033 19.4861C66.6263 18.706 70.5724 16.5178 72.5395 17.3775C74.0912 18.0556 77.0828 19.2873 78.6694 20.0412C81.7628 21.5109 95.0511 26.2018 95.1163 26.629C92.1615 26.5373 81.5025 21.5686 78.8342 21.5686C77.6339 20.9547 76.3967 20.5319 75.1538 20.0236C74.1233 19.4804 73.1709 18.9267 72.1149 18.3517C70.8263 17.6499 66.5524 19.8401 65.3702 20.4387C65.3383 20.4513 65.3063 20.4638 65.2744 20.4763C64.6718 20.6606 64.1501 20.8921 63.6217 21.0934C63.3205 21.1978 63.0177 21.2971 62.7114 21.3898C62.4057 21.4674 62.0834 21.5234 61.7308 21.5454C61.7005 21.6041 61.6601 21.6502 61.6154 21.6863C61.4146 21.7339 61.2115 21.7781 61.0057 21.8187C60.535 21.8357 60.0724 21.9451 59.5985 22.0283C59.2698 22.0615 58.9328 22.0845 58.5861 22.0959C58.3182 21.982 58.0586 21.8422 57.8047 21.6845Z" fill="#AF7060"/>
<path d="M96.8736 27.0001C93.6276 27.3251 81.0838 27.3258 78.0294 26.9396C73.0854 26.3144 70.7937 28.6188 60.2022 28.219C58.2848 28.1466 57.1699 28.3436 55.7134 28.2625C44.9209 27.661 45.1339 26.6673 41.2034 27.6865C35.549 29.1528 23.4586 27.6258 20.3727 27.7209C19.6234 27.744 32.7429 24.3973 34.3242 23.6387C38.011 22.2654 42.5022 18.6561 47.2861 18.1827C51.3976 17.7758 54.4845 21.5921 58.5665 21.5921C62.4547 21.5921 67.8965 17.8791 71.434 17.9867C74.542 18.0812 77.613 21.0721 79.9969 21.677C82.305 22.2628 96.8736 27.0001 96.8736 27.0001Z" fill="#C9816E"/>
<path d="M58.719 22.0958C58.3936 22.0844 58.0774 22.0615 57.7691 22.0282C57.3245 21.9451 56.8905 21.8356 56.4488 21.8187C56.2558 21.7781 56.0652 21.7339 55.8768 21.6863C55.8348 21.6501 55.797 21.6041 55.7685 21.5454C55.4378 21.5233 55.1355 21.4673 54.8486 21.3897C54.5612 21.297 54.2771 21.1977 53.9945 21.0933C53.4987 20.892 53.0091 20.6607 52.4438 20.4763C52.4139 20.4638 52.3838 20.4512 52.3538 20.4387C51.2446 19.8401 47.2347 17.6499 46.0258 18.3517C45.0351 18.9268 44.1415 19.4805 43.1746 20.0236C35.8495 24.0461 22.6779 26.8343 20.626 27.4634C21.1129 27.2245 34.5835 23.0569 34.9895 22.7743C37.1905 21.9746 39.3757 20.8055 41.43 19.7652C42.9187 19.0113 44.1716 18.0556 45.6274 17.3775C47.473 16.5178 51.1754 18.7059 52.792 19.4861C53.9345 19.8898 54.6863 20.5456 55.976 20.5003L56.3821 20.7705C57.2546 20.8298 58.0459 21.2232 58.9792 21.0416C59.084 21.0211 59.1848 20.9889 59.2824 20.947C59.3386 21.1928 59.3962 21.4384 59.452 21.6846C59.2138 21.8422 58.9704 21.9818 58.719 22.0958Z" fill="#AF7060"/>
<path d="M77.1263 27.8927C75.9361 27.8264 71.5577 27.4861 69.592 28.137C68.699 28.1236 67.8879 28.752 67.0258 28.9205C64.1902 29.4746 60.9535 29.4617 58.058 29.4617C54.8611 29.4617 51.3827 29.4218 48.3568 28.6808C48.291 28.6647 42.0797 28.2361 41.1429 28.4413C35.3103 29.7187 31.7992 28.9222 29.1639 28.7888C28.9711 28.1298 21.3423 28.1203 21.2441 27.3802C21.3991 27.361 32.8809 28.7961 37.075 27.4397C41.6919 26.819 44.0248 26.106 44.8372 25.9472C45.5996 26.0225 48.5127 27.2195 49.0692 27.3672C51.9945 28.1437 55.4329 28.1198 58.5312 28.1198C61.3255 28.1198 64.0661 28.4686 66.7865 27.8943C66.8068 27.8901 66.8272 27.8855 66.8473 27.8808C66.9539 27.8804 67.0602 27.8802 67.1664 27.8802C70.227 27.8127 76.9432 25.2451 76.9432 25.2451C77.4286 25.4178 79.4314 25.9062 79.9136 26.1231C80.1777 26.2757 96.4312 26.966 96.7339 27.14C96.791 27.1729 80.5745 27.6167 80.4387 27.6167L77.1263 27.8927Z" fill="#AF7060"/>
</svg>
