<svg xmlns="http://www.w3.org/2000/svg" fill="none" viewBox="201.31 328.8 113.92 70.94">
<path d="M215.311 339.792C236.819 329.836 257.463 329.509 273.54 328.86C290.067 328.192 316.024 332.784 315.209 354.33C315.768 413.395 223.591 405.967 207.324 381.773C202.139 374.061 193.803 349.748 215.311 339.792Z" fill="#E1A585"/>
<path d="M295.217 354.842C295.217 354.842 291.988 361.119 285.912 366.522C279.456 372.263 269.82 377.151 258.594 377.151C236.801 377.151 223.261 356.132 223.261 356.132C223.261 356.132 234.996 353.424 256.789 353.424C278.582 353.424 295.217 354.842 295.217 354.842Z" fill="#482520"/>
<path d="M256.549 365.671C256.581 365.702 256.613 365.736 256.644 365.77C256.644 365.74 256.644 365.721 256.644 365.721C256.644 365.706 256.646 365.691 256.648 365.677C256.615 365.675 256.582 365.673 256.549 365.671ZM237.852 369.016C237.831 368.961 237.831 368.916 237.831 368.916C237.905 365.347 243.138 365.195 246.041 364.238C248.764 363.676 252.987 363.425 255.431 365.03C256.43 365.024 258.28 364.726 259.671 364.7C261.872 363.83 265.361 363.262 267.219 364.032C271.073 363.954 276.136 364.639 278.072 367.784C280.775 372.277 275.107 373.754 271.113 374.392C267.993 375.647 261.217 375.012 257.694 375.005C253.474 374.315 249.293 374.507 245.142 373.658C241.771 373.271 239.388 371.964 237.869 369.449L237.831 369.116C237.831 369.116 237.831 369.071 237.852 369.016Z" fill="#B65E50"/>
<path d="M261.202 364.705C263.234 364.063 265.587 363.95 267.114 364.582C270.714 364.633 275.696 364.99 277.498 368.047C280.025 372.213 274.438 373.253 270.945 373.849C269.863 374.311 268.364 373.96 267.167 374.042C264.013 374.258 260.927 374.462 257.759 374.469C253.563 373.765 249.34 373.956 245.208 373.089C242.046 372.773 239.853 371.514 238.444 369.181L238.483 369.115C238.483 369.115 238.483 369.07 238.462 369.015C238.483 368.96 238.483 368.915 238.483 368.915C238.391 365.79 243.779 365.588 246.198 364.783C250.784 363.83 253.548 364.718 256.417 367.236L256.683 367.626C256.726 367.749 256.768 367.869 256.799 367.991C256.676 368.402 256.711 368.783 256.916 369.189L256.755 369.252L256.99 369.626C257.048 369.728 257.165 369.784 257.31 369.784C257.51 369.784 257.541 369.702 257.541 369.536L257.55 368.882C257.549 368.826 257.555 368.76 257.551 368.701C258.422 367.556 258.537 366.18 260.576 365.336L261.055 365.141C261.177 365.093 261.192 365.094 261.192 364.975C261.192 364.914 261.239 364.753 261.202 364.705Z" fill="#C36556"/>
<path d="M258.373 366.388C258.373 366.388 258.05 366.522 257.888 366.254C257.726 365.986 258.05 365.852 258.05 365.852C258.308 365.748 258.562 365.649 258.812 365.556C258.771 365.354 259.015 365.253 259.015 365.253L259.447 365.078C260.411 364.28 265.494 363.304 266.768 364.223H267.377C267.577 364.223 267.739 364.357 267.739 364.523C267.739 364.688 267.577 364.822 267.377 364.822H266.653C263.341 364.822 261.149 365.217 258.373 366.388Z" fill="#B65E50"/>
<path d="M230.353 354.171L230.389 354.117C230.473 354.009 230.655 353.871 230.904 353.716C233.076 353.04 234.891 352.43 235.777 352.317C239.846 351.8 250.812 349.711 254.415 349.711L254.742 349.641C257.321 352.196 262.12 349.692 266.05 348.694C268.438 348.818 287.095 353.056 288.84 353.716C289.179 354.117 288.84 357.103 285.942 358.728C284.584 359.49 266.364 362.262 257.419 361.865C247.917 361.444 234.912 361.096 231.647 358.728C230.353 357.789 227.574 355.241 227.528 354.117C227.528 354.117 230.017 354.238 230.353 354.171Z" fill="#F9F9F9"/>
<path d="M282.932 358.646L283.051 358.814C282.995 358.827 282.94 358.84 282.885 358.854C282.9 358.784 282.916 358.715 282.932 358.646Z" fill="#F9F9F9"/>
<path d="M276.076 359.32C276.08 359.348 276.082 359.379 276.077 359.412C276.077 359.372 276.077 359.347 276.077 359.347L275.985 359.348C276.014 359.246 276.041 359.145 276.067 359.045L276.076 359.32Z" fill="#F9F9F9"/>
<path opacity="0.02" fill-rule="evenodd" clip-rule="evenodd" d="M259.735 332.424C260.467 332.314 261.025 332.593 261.407 333.26C261.056 334.787 261.056 336.46 261.407 338.278C256.632 337.388 256.075 335.437 259.735 332.424Z" fill="#222222"/>
<path opacity="0.01" fill-rule="evenodd" clip-rule="evenodd" d="M254.717 336.605C256.253 336.722 256.532 337.28 255.553 338.278C254.885 337.896 254.607 337.338 254.717 336.605Z" fill="black"/>
<path opacity="0.01" fill-rule="evenodd" clip-rule="evenodd" d="M293.191 344.133C294.593 344.705 295.151 345.82 294.864 347.479C294.027 347.479 293.191 347.479 292.355 347.479C292.299 346.258 292.577 345.144 293.191 344.133Z" fill="#0A0A0A"/>
<path opacity="0.01" fill-rule="evenodd" clip-rule="evenodd" d="M299.045 346.643C299.313 347.937 300.15 348.495 301.554 348.315C301.275 348.873 300.996 349.43 300.718 349.988C299.603 350.267 299.603 350.546 300.718 350.825C300.685 351.73 300.405 352.567 299.881 353.334C300.811 353.973 301.369 354.81 301.554 355.843C299.056 355.468 298.219 354.213 299.045 352.079C298.606 351.5 298.048 351.082 297.372 350.825C296.516 351.956 295.401 352.514 294.026 352.497C293.807 351.261 294.086 350.146 294.863 349.152C295.353 349.327 295.771 349.606 296.117 349.988C296.981 348.711 297.957 347.596 299.045 346.643Z" fill="#050505"/>
<path opacity="0.01" fill-rule="evenodd" clip-rule="evenodd" d="M265.589 374.244C264.187 374.815 263.63 375.93 263.916 377.589C262.79 378.15 261.814 378.15 260.989 377.589C260.729 375.869 260.311 374.197 259.734 372.571C259.992 371.895 260.41 371.337 260.989 370.898C261.825 372.013 262.662 372.013 263.498 370.898C264.414 371.896 265.111 373.011 265.589 374.244Z" fill="black"/>
<path opacity="0.01" fill-rule="evenodd" clip-rule="evenodd" d="M257.226 372.57C258.36 373.138 258.36 373.138 257.226 372.57V372.57Z" fill="black"/>
<path opacity="0.01" fill-rule="evenodd" clip-rule="evenodd" d="M258.062 385.116C256.042 385.719 254.369 386.834 253.043 388.462C250.825 386.454 251.104 384.781 253.88 383.443C254.788 383.343 255.346 382.785 255.553 381.771C255.517 381.004 255.238 380.447 254.716 380.098C255.419 378.526 255.699 376.854 255.553 375.08C256.658 375.222 257.634 374.943 258.48 374.243C259.208 374.752 259.626 375.448 259.735 376.334C259.075 377.694 258.238 378.949 257.225 380.098C257.429 381.813 257.708 383.485 258.062 385.116Z" fill="#121212"/>
<path opacity="0.01" fill-rule="evenodd" clip-rule="evenodd" d="M254.716 380.098C254.772 381.318 254.493 382.433 253.879 383.444C253.043 383.444 252.206 383.444 251.37 383.444C251.36 381.234 252.475 380.119 254.716 380.098Z" fill="black"/>
<path opacity="0.01" d="M265.59 374.243C266.133 374.497 266.691 374.776 267.263 375.08C268.203 378.442 269.179 381.787 270.19 385.116C271.067 384.266 272.043 384.126 273.117 384.698C273.526 386.546 274.363 388.079 275.626 389.298C275.814 391.211 276.372 393.023 277.299 394.735C277.146 396.143 276.588 396.282 275.626 395.153C275.773 395.65 275.886 396.099 275.964 396.499C274.489 396.732 272.991 396.921 271.475 397.067C270.807 396.514 270.239 395.876 269.772 395.153C270.386 394.142 270.664 393.028 270.608 391.807C270.33 391.807 270.05 391.807 269.772 391.807C269.486 391.106 268.928 390.827 268.099 390.971C267.717 389.092 266.88 387.419 265.59 385.953C265.868 385.395 266.148 384.838 266.426 384.28C265.255 382.16 264.419 379.929 263.917 377.589C263.63 375.93 264.188 374.814 265.59 374.243ZM272.281 390.553C271.18 390.111 270.622 390.529 270.608 391.807C271.268 391.571 271.826 391.152 272.281 390.553ZM273.954 393.898C274.409 394.498 274.966 394.916 275.626 395.153C275.612 393.875 275.054 393.456 273.954 393.898Z" fill="#1B1B1B"/>
<path opacity="0.01" fill-rule="evenodd" clip-rule="evenodd" d="M263.08 385.116C262.097 384.933 261.261 385.212 260.571 385.953C261.685 387.068 261.685 388.184 260.571 389.298C260.953 389.966 261.511 390.244 262.243 390.135C260.112 392.32 258.16 392.181 256.389 389.717C257.034 388.695 257.871 387.859 258.898 387.207C258.269 386.646 257.99 385.95 258.061 385.116C259.827 384.078 261.5 384.078 263.08 385.116Z" fill="#030303"/>
<path opacity="0.01" fill-rule="evenodd" clip-rule="evenodd" d="M276.462 389.298C276.184 389.298 275.904 389.298 275.626 389.298C275.904 387.068 276.184 387.068 276.462 389.298Z" fill="black"/>
<path opacity="0.01" fill-rule="evenodd" clip-rule="evenodd" d="M276.462 389.298C277.445 389.115 278.281 389.393 278.971 390.135C277.673 391.22 276.837 390.942 276.462 389.298Z" fill="black"/>
<path opacity="0.01" fill-rule="evenodd" clip-rule="evenodd" d="M263.08 393.48C263.673 394.236 264.51 394.515 265.59 394.316C265.59 395.153 265.59 395.989 265.59 396.825C264.568 396.384 263.593 395.826 262.662 395.153C262.083 394.369 262.223 393.812 263.08 393.48Z" fill="black"/>
<path opacity="0.012" d="M268.099 390.971C268.928 390.827 269.485 391.107 269.772 391.808C268.78 393.03 268.78 394.145 269.772 395.153C270.239 395.876 270.807 396.515 271.475 397.068C269.541 397.254 267.577 397.372 265.59 397.424C265.59 397.225 265.59 397.025 265.59 396.826C265.59 395.99 265.59 395.153 265.59 394.317C264.51 394.515 263.673 394.237 263.08 393.48C264.297 392.006 264.017 390.89 262.244 390.135C261.511 390.244 260.954 389.966 260.571 389.298C261.686 388.184 261.686 387.068 260.571 385.953C261.261 385.212 262.098 384.933 263.08 385.117C264.477 387.346 266.15 389.298 268.099 390.971Z" fill="#3D3D3D"/>
<path d="M249.997 381.287C249.929 381.3 249.845 381.306 249.759 381.288C249.838 381.288 249.918 381.287 249.997 381.287Z" fill="#9B6F5D"/>
<path d="M249.313 381.292C249.254 381.301 249.185 381.304 249.114 381.292C249.181 381.292 249.247 381.292 249.313 381.292Z" fill="#9B6F5D"/>
<path d="M234.931 351.622C234.712 351.728 234.492 351.831 234.271 351.93C234.491 351.825 234.711 351.721 234.931 351.622Z" fill="#9B6F5D"/>
<path d="M249.201 386.41L249.26 386.39C249.28 386.4 249.3 386.41 249.32 386.419C249.891 386.466 250.447 386.547 250.993 386.649C251.846 386.508 252.625 386.072 253.61 386.106C253.882 385.972 254.193 385.848 254.535 385.736C257.041 385.651 259.541 385.523 262.108 385.523C263.423 385.523 264.729 385.863 266.03 386.018C266.032 386.019 266.035 386.02 266.037 386.021L266.039 386.019C266.199 386.038 266.36 386.054 266.521 386.066L266.681 386.145C266.877 386.236 267.012 386.432 267.012 386.659C267.012 386.886 266.877 387.081 266.681 387.172L266.243 387.388C265.094 389.533 260.784 389.215 258.647 389.215C257.923 389.215 257.225 389.148 256.543 389.042C253.819 389.106 250.965 388.976 248.935 387.607L248.87 387.735L248.417 387.512C248.365 387.511 248.314 387.511 248.262 387.511C248.262 387.511 247.686 387.511 247.686 386.943C247.686 386.375 248.262 386.375 248.262 386.375C248.342 386.375 248.42 386.376 248.499 386.377C248.516 386.376 248.533 386.375 248.551 386.375H249.128V386.404C249.152 386.406 249.177 386.408 249.201 386.41Z" fill="#D1997B"/>
<path d="M247.075 386.119C247.337 386.119 247.599 386.119 247.861 386.119C252.786 384.192 259.895 385.228 265.075 385.276C265.72 385.488 266.414 385.56 267.094 385.56L267.191 385.633L267.207 385.587L268.056 385.866C268.203 385.911 268.33 386 268.421 386.119C268.132 386.119 267.844 386.119 267.555 386.119C260.509 386.119 253.441 386.364 246.374 386.399L247.075 386.119Z" fill="#7F5D4B"/>
<path d="M258.356 349.581C258.416 349.335 258.477 349.089 258.537 348.843C258.641 348.885 258.749 348.918 258.86 348.938C259.855 349.12 260.699 348.726 261.629 348.667L262.061 348.397C263.436 348.442 264.237 347.786 265.455 347.383C267.178 346.602 271.124 344.414 273.091 345.274C274.643 345.952 277.635 347.184 279.221 347.938C282.315 349.407 295.603 354.098 295.668 354.525C292.713 354.434 282.054 349.465 279.386 349.465C278.186 348.851 276.948 348.428 275.706 347.92C274.675 347.377 273.723 346.823 272.667 346.248C271.378 345.546 267.104 347.737 265.922 348.335C265.89 348.348 265.858 348.36 265.826 348.373C265.224 348.557 264.702 348.789 264.173 348.99C263.872 349.094 263.569 349.194 263.263 349.286C262.957 349.364 262.635 349.42 262.283 349.442C262.252 349.501 262.212 349.547 262.167 349.583C261.966 349.63 261.763 349.675 261.557 349.715C261.087 349.732 260.624 349.842 260.15 349.925C259.822 349.958 259.485 349.981 259.138 349.992C258.87 349.878 258.61 349.739 258.356 349.581Z" fill="#994F43"/>
<path d="M297.425 354.897C294.179 355.222 281.636 355.222 278.581 354.836C273.637 354.211 271.346 356.515 260.754 356.116C258.837 356.043 257.722 356.24 256.265 356.159C245.473 355.558 245.686 354.564 241.755 355.583C236.101 357.049 224.01 355.522 220.924 355.617C220.175 355.641 233.295 352.294 234.876 351.535C238.563 350.162 243.054 346.553 247.838 346.079C251.949 345.672 255.036 349.489 259.118 349.489C263.006 349.489 268.448 345.776 271.986 345.883C275.094 345.978 278.165 348.969 280.549 349.574C282.857 350.159 297.425 354.897 297.425 354.897Z" fill="#CD6B5B"/>
<path d="M259.274 349.992C258.948 349.981 258.632 349.958 258.324 349.925C257.879 349.842 257.445 349.732 257.003 349.715C256.81 349.675 256.62 349.63 256.431 349.583C256.39 349.547 256.352 349.501 256.323 349.442C255.992 349.42 255.69 349.364 255.403 349.286C255.116 349.194 254.832 349.094 254.549 348.99C254.053 348.789 253.564 348.557 252.998 348.373C252.969 348.36 252.938 348.348 252.908 348.335C251.799 347.737 247.789 345.546 246.581 346.248C245.59 346.823 244.696 347.377 243.729 347.92C236.404 351.943 223.233 354.731 221.181 355.36C221.668 355.121 235.138 350.953 235.544 350.671C237.745 349.871 239.93 348.702 241.985 347.662C243.473 346.908 244.726 345.952 246.182 345.274C248.028 344.414 251.73 346.602 253.347 347.383C254.489 347.786 255.241 348.442 256.531 348.397L256.937 348.667C257.809 348.726 258.601 349.12 259.534 348.938C259.639 348.918 259.739 348.885 259.837 348.844C259.893 349.089 259.951 349.335 260.007 349.581C259.768 349.739 259.525 349.878 259.274 349.992Z" fill="#994F43"/>
<path d="M277.678 355.789C276.488 355.723 272.109 355.383 270.144 356.034C269.251 356.02 268.44 356.648 267.578 356.817C264.742 357.371 261.505 357.358 258.61 357.358C255.413 357.358 251.934 357.318 248.909 356.577C248.843 356.561 242.631 356.133 241.695 356.338C235.862 357.615 232.351 356.819 229.716 356.685C229.523 356.026 221.894 356.017 221.796 355.277C221.951 355.257 233.433 356.693 237.627 355.336C242.244 354.715 244.577 354.002 245.389 353.844C246.151 353.919 249.064 355.116 249.621 355.264C252.546 356.04 255.985 356.016 259.083 356.016C261.877 356.016 264.618 356.365 267.338 355.791C267.359 355.787 267.379 355.782 267.399 355.777C267.506 355.777 267.612 355.777 267.718 355.777C270.779 355.709 277.495 353.142 277.495 353.142C277.98 353.314 279.983 353.803 280.465 354.02C280.729 354.172 296.983 354.862 297.286 355.037C297.343 355.069 281.126 355.513 280.99 355.513L277.678 355.789Z" fill="#994F43"/>
<path d="M256.835 377.144C256.649 376.943 256.49 376.707 256.358 376.447C256.311 376.556 256.26 376.654 256.207 376.739C255.909 377.213 255.402 377.71 254.849 377.957C254.509 377.99 254.154 378.024 253.789 378.059C253.573 377.988 253.366 377.852 253.179 377.632L253.275 377.818C253.275 377.818 252.852 377.815 252.851 377.479C252.851 377.424 252.863 377.379 252.882 377.34C251.951 376.635 251.54 375.579 251.468 374.516C250.481 376.827 246.766 377.833 246.639 374.4C246.479 374.351 246.399 374.224 246.399 374.224C245.001 371.912 247.963 367.667 251.026 370.293C251.467 370.671 251.323 372.192 251.573 373.048C251.615 372.849 251.667 372.656 251.728 372.472C251.944 371.821 251.183 370.454 252.198 370.03C252.856 369.755 254.19 370.219 254.962 370.225C255.698 370.265 256.181 370.825 256.467 371.61C257.248 370.209 258.778 369.597 261.001 371.374C261.011 371.552 261.024 371.758 261.038 371.984C260.987 373.002 260.932 374.269 260.916 375.627C260.731 376.538 260.37 377.322 259.701 377.702C258.964 377.71 258.257 377.723 257.594 377.749C257.366 377.676 257.124 377.581 256.867 377.463L256.835 377.144Z" fill="#F9F9F9"/>
<path d="M238.218 371.858C239.265 370.417 237.593 369.531 242.46 369.641C245.951 369.719 252.143 369.421 258.246 369.996C277.042 369.645 279.31 369.746 280.477 372.247C280.1 372.603 239.672 375.481 239.214 375.729C237.958 374.492 236.868 373.08 235.794 371.803C237.553 371.086 236.84 370.787 238.218 371.858Z" fill="#F9F9F9"/>
<path d="M241.033 373.659L241.311 373.22C241.379 373.107 241.525 373.03 241.694 373.031C241.928 373.033 242.118 373.184 242.118 373.37C242.118 373.426 242.1 373.479 242.069 373.525L241.924 373.756C242.162 375.869 244.757 377.46 246.383 374.846L246.64 374.235C246.693 374.099 246.854 374 247.045 374.002C247.276 374.003 247.465 374.152 247.469 374.335L247.48 374.82C248.431 376.586 249.846 377.079 251.199 374.856L251.477 374.417C251.544 374.304 251.69 374.227 251.859 374.228C252.093 374.23 252.283 374.382 252.283 374.567L252.283 375.005C253.074 376.555 254.598 377.941 255.659 375.476L255.672 375.034C255.676 374.852 255.864 374.707 256.095 374.708C256.264 374.71 256.41 374.789 256.478 374.903L256.756 375.346C258.281 376.598 260.474 378.122 260.471 375.078L260.471 374.407C260.47 374.221 260.66 374.073 260.894 374.074C260.913 374.075 260.931 374.076 260.949 374.078C260.914 375.199 260.896 376.44 260.926 377.691C259.592 377.701 258.329 377.712 257.203 377.766C254.235 377.91 246.842 379.06 244.092 377.918C242.491 377.254 241.211 376.017 240.08 374.618C240.462 374.357 240.795 374.036 241.033 373.659Z" fill="#F9F9F9"/>
<path d="M261.242 377.079C261.054 376.88 260.894 376.645 260.76 376.385C260.713 376.494 260.663 376.592 260.61 376.678C260.578 376.731 260.542 376.785 260.504 376.838C260.817 375.234 260.988 373.034 260.908 371.412C261.7 370.104 263.199 369.579 265.362 371.284C265.466 372.89 265.861 376.704 264.052 377.653C263.366 377.669 262.684 377.677 262.015 377.683C261.784 377.611 261.539 377.516 261.277 377.398L261.242 377.079Z" fill="#F9F9F9"/>
<path d="M260.799 374.759C260.826 374.783 260.85 374.81 260.868 374.84L261.15 375.282C262.684 376.524 264.889 378.036 264.862 374.991L264.856 374.32C264.855 374.134 265.043 373.985 265.277 373.985C265.446 373.985 265.592 374.064 265.661 374.178L265.921 374.584C267.774 376.006 270.533 377.666 270.501 374.106L270.495 373.435C270.493 373.25 270.682 373.1 270.915 373.1C271.149 373.101 271.34 373.251 271.342 373.436L271.346 373.849C271.897 374.807 272.515 375.761 273.681 376.245C270.037 377.71 264.715 377.658 260.307 377.696C260.519 376.92 260.69 375.863 260.799 374.759Z" fill="#F9F9F9"/>
<path d="M277.928 372.667C277.941 372.666 277.956 372.666 277.97 372.666C278.398 372.666 278.401 373.005 278.401 373.005L278.357 373.079C278.392 373.137 278.425 373.194 278.456 373.25C278.415 373.282 278.374 373.314 278.333 373.347C278.245 373.105 278.11 372.874 277.928 372.667Z" fill="#F9F9F9"/>
<path d="M271.514 376.904C271.366 376.904 271.27 376.864 271.207 376.811C271.14 376.761 271.088 376.685 271.087 376.568C271.087 376.562 271.087 376.556 271.087 376.55C271.09 376.14 270.889 375.585 270.694 374.992C270.587 375.309 270.392 375.605 270.095 375.864C270.129 375.89 270.162 375.925 270.19 375.969C270.382 376.269 270.005 376.419 270.005 376.419C263.899 378.835 265.994 371.884 266.428 369.787C268 370.149 269.639 371.466 270.385 372.871C270.456 372.571 270.611 372.301 270.889 372.08C271.68 371.45 276.891 371.122 277.693 371.421C277.841 371.64 277.974 371.851 278.091 372.053C278.978 371.201 279.908 371.131 280.713 371.479C278.464 373.135 276.466 375.1 273.762 376.212C273.075 376.494 272.328 376.721 271.537 376.904L271.514 376.904Z" fill="#F9F9F9"/>
<path d="M282.677 372.132C283.51 374.149 275.63 375.456 266.977 375.479C253.894 375.454 237.63 375.842 238.664 373.965C229.381 367.092 223.194 356.789 223.194 356.789C223.63 357.141 231.365 363.788 231.812 364.108C232.731 364.767 235.275 367.534 237.256 368.24C240.67 369.457 244.747 369.602 246.438 370.202C252.052 372.193 251.38 372.093 257.303 371.913C260.542 371.814 263.783 370.973 266.977 370.967C269.663 370.976 273.06 371.902 276.737 370.916C279.401 370.201 283.2 367.857 286.265 365.203C291.39 360.766 295.389 355.465 295.389 355.465C295.389 355.465 293.965 355.749 294.798 357.767L282.677 372.132Z" fill="#994F43"/>
<path d="M295.57 354.865C295.57 358.653 285.023 371.074 278.927 377.059C275.623 379.24 275.884 379.804 272.64 381.397C269.657 382.861 261.015 381.537 258.105 381.537C255.447 381.537 250.239 383.159 247.384 382.342C242.565 380.964 240.367 376.647 236.884 373.535C232.158 369.314 222.543 359.12 222.543 355.899C222.543 354.64 236.472 370.855 242.708 370.554C247.3 370.835 253.213 372.795 257.427 372.795C262.902 372.795 271.662 371.168 275.502 371.732C288.377 368.75 295.312 353.393 295.312 354.865L295.57 354.865Z" fill="#D97E67"/>
<path d="M262.21 382.776C258.757 382.673 255.405 383.342 252.011 383.443C248.937 383.443 244.394 383.572 242.541 379.584C243.605 380.354 244.587 381.318 245.782 381.534C247.733 382.531 249.889 382.109 252.011 382.109C253.571 382.183 255.716 381.621 257.242 381.126C258.854 380.602 260.68 381.514 262.21 381.441C262.359 381.441 262.505 381.442 262.65 381.444C264.996 382.19 267.512 382.109 269.982 382.109C270.47 382.094 270.928 381.998 271.362 381.838C268.307 383.522 265.611 382.776 262.21 382.776Z" fill="#994F43"/>
</svg>