<svg xmlns="http://www.w3.org/2000/svg" fill="none" viewBox="204.55 328.56 113.92 70.94">
<path d="M218.551 339.554C240.059 329.598 260.702 329.271 276.78 328.622C293.306 327.955 319.263 332.547 318.448 354.093C319.008 413.157 226.831 405.729 210.564 381.535C205.379 373.824 197.043 349.511 218.551 339.554Z" fill="#E1A585"/>
<path d="M301.398 354.794C301.398 354.794 297.947 360.95 291.453 366.25C284.554 371.881 274.255 376.675 262.257 376.675C238.966 376.675 224.495 356.059 224.495 356.059C224.495 356.059 237.037 353.402 260.328 353.402C283.619 353.402 301.398 354.794 301.398 354.794Z" fill="#482520"/>
<path opacity="0.02" fill-rule="evenodd" clip-rule="evenodd" d="M263.477 332.804C264.26 332.697 264.857 332.97 265.265 333.625C264.89 335.123 264.89 336.764 265.265 338.547C260.162 337.674 259.566 335.76 263.477 332.804Z" fill="#222222"/>
<path opacity="0.01" fill-rule="evenodd" clip-rule="evenodd" d="M258.115 336.906C259.757 337.02 260.054 337.568 259.008 338.547C258.295 338.172 257.998 337.625 258.115 336.906Z" fill="black"/>
<path opacity="0.01" fill-rule="evenodd" clip-rule="evenodd" d="M269.735 373.824C268.237 374.384 267.641 375.478 267.947 377.105C266.743 377.656 265.7 377.656 264.818 377.105C264.54 375.418 264.093 373.778 263.478 372.183C263.753 371.52 264.2 370.973 264.818 370.542C265.712 371.636 266.606 371.636 267.5 370.542C268.479 371.521 269.224 372.615 269.735 373.824Z" fill="black"/>
<path opacity="0.01" fill-rule="evenodd" clip-rule="evenodd" d="M260.796 372.183C261.987 372.73 261.987 372.73 260.796 372.183V372.183Z" fill="black"/>
<path opacity="0.01" fill-rule="evenodd" clip-rule="evenodd" d="M261.69 384.488C259.531 385.08 257.743 386.173 256.327 387.77C253.956 385.8 254.254 384.159 257.22 382.847C258.191 382.749 258.787 382.202 259.008 381.207C258.97 380.455 258.672 379.908 258.114 379.566C258.866 378.024 259.165 376.384 259.008 374.644C260.19 374.783 261.233 374.51 262.137 373.823C262.915 374.322 263.362 375.005 263.478 375.874C262.772 377.208 261.879 378.439 260.796 379.566C261.014 381.248 261.312 382.888 261.69 384.488Z" fill="#121212"/>
<path d="M235.214 354.48L235.249 354.426C235.334 354.318 235.516 354.18 235.764 354.025C237.937 353.349 239.752 352.739 240.638 352.626C244.707 352.109 255.673 350.02 259.275 350.02L259.603 349.951C262.181 352.505 266.98 350.001 270.911 349.004C273.299 349.127 291.956 353.365 293.701 354.025C294.04 354.426 293.701 357.412 290.803 359.037C289.444 359.799 271.225 362.571 262.28 362.175C252.778 361.754 239.773 361.405 236.508 359.037C235.214 358.098 232.435 355.551 232.389 354.426C232.389 354.426 234.878 354.547 235.214 354.48Z" fill="#F9F9F9"/>
<path d="M287.793 358.955L287.912 359.123C287.856 359.136 287.801 359.149 287.746 359.163C287.761 359.094 287.776 359.024 287.793 358.955Z" fill="#F9F9F9"/>
<path d="M280.936 359.629C280.941 359.658 280.942 359.689 280.938 359.721C280.938 359.681 280.937 359.657 280.937 359.657L280.846 359.657C280.875 359.555 280.902 359.454 280.928 359.354L280.936 359.629Z" fill="#F9F9F9"/>
<path d="M261.403 373.7C261.217 373.499 261.059 373.263 260.927 373.002C260.879 373.111 260.829 373.209 260.775 373.294C260.478 373.769 259.97 374.266 259.418 374.513C259.078 374.545 258.723 374.58 258.357 374.614C258.141 374.544 257.935 374.407 257.747 374.188L257.844 374.374C257.844 374.374 257.42 374.37 257.42 374.035C257.42 373.98 257.431 373.934 257.45 373.896C256.52 373.191 256.108 372.134 256.036 371.071C255.05 373.383 251.335 374.388 251.208 370.956C251.048 370.907 250.968 370.779 250.968 370.779C249.569 368.468 252.532 364.223 255.595 366.849C256.035 367.226 255.891 368.747 256.142 369.604C256.184 369.405 256.236 369.212 256.297 369.028C256.513 368.376 255.752 367.009 256.766 366.586C257.425 366.311 258.758 366.775 259.53 366.781C260.267 366.821 260.75 367.381 261.035 368.166C261.816 366.765 263.347 366.153 265.569 367.93C265.579 368.108 265.593 368.313 265.607 368.539C265.555 369.557 265.5 370.824 265.485 372.182C265.299 373.094 264.939 373.878 264.269 374.257C263.532 374.266 262.826 374.279 262.162 374.305C261.935 374.231 261.693 374.137 261.436 374.019L261.403 373.7Z" fill="#F9F9F9"/>
<path d="M240.363 367.359C242.38 365.552 243.782 365.196 247.028 365.196C250.52 365.275 256.711 364.977 262.814 365.552C281.61 365.201 283.879 365.302 285.046 367.803C284.668 368.158 251.609 377.888 243.782 371.284C242.526 370.047 241.437 368.635 240.363 367.359C242.121 366.642 239.011 368.348 240.363 367.359Z" fill="#F9F9F9"/>
<path d="M245.602 370.214L245.88 369.776C245.948 369.663 246.093 369.585 246.262 369.587C246.496 369.588 246.686 369.74 246.686 369.925C246.686 369.982 246.669 370.035 246.638 370.081L246.492 370.311C246.73 372.425 249.326 374.016 250.952 371.402L251.209 370.791C251.262 370.654 251.423 370.556 251.613 370.557C251.845 370.559 252.033 370.708 252.037 370.891L252.049 371.375C253 373.142 254.414 373.635 255.767 371.412L256.045 370.973C256.113 370.86 256.259 370.782 256.428 370.784C256.662 370.786 256.851 370.937 256.852 371.123L256.852 371.561C257.642 373.111 259.166 374.496 260.227 372.032L260.24 371.589C260.245 371.407 260.432 371.262 260.663 371.264C260.832 371.265 260.978 371.345 261.046 371.459L261.325 371.902C262.85 373.154 265.043 374.678 265.04 371.633L265.039 370.962C265.039 370.777 265.228 370.628 265.462 370.63C265.481 370.63 265.5 370.631 265.518 370.633C265.482 371.754 265.465 372.996 265.495 374.247C264.161 374.256 262.897 374.267 261.772 374.322C258.803 374.465 251.411 375.616 248.66 374.474C247.06 373.81 245.779 372.572 244.649 371.174C245.031 370.912 245.363 370.591 245.602 370.214Z" fill="#F9F9F9"/>
<path d="M265.81 373.635C265.623 373.435 265.462 373.201 265.328 372.94C265.281 373.05 265.232 373.148 265.179 373.234C265.146 373.287 265.111 373.341 265.073 373.394C265.385 371.79 265.556 369.589 265.476 367.968C266.269 366.659 267.767 366.134 269.93 367.84C270.034 369.446 270.43 373.26 268.62 374.209C267.934 374.224 267.252 374.233 266.583 374.238C266.352 374.166 266.107 374.072 265.845 373.954L265.81 373.635Z" fill="#F9F9F9"/>
<path d="M265.367 371.315C265.395 371.339 265.418 371.366 265.436 371.396L265.718 371.837C267.253 373.08 269.458 374.591 269.431 371.547L269.425 370.875C269.423 370.69 269.611 370.54 269.845 370.541C270.014 370.541 270.161 370.62 270.23 370.733L270.489 371.139C272.343 372.561 275.101 374.222 275.069 370.662L275.063 369.991C275.062 369.805 275.25 369.655 275.484 369.656C275.718 369.656 275.909 369.807 275.91 369.992L275.914 370.405C276.465 371.363 277.083 372.317 278.249 372.801C274.605 374.266 269.283 374.214 264.876 374.251C265.087 373.475 265.259 372.418 265.367 371.315Z" fill="#F9F9F9"/>
<path d="M282.497 369.222C282.51 369.222 282.525 369.221 282.539 369.221C282.967 369.222 282.97 369.561 282.97 369.561L282.925 369.635C282.961 369.692 282.994 369.749 283.025 369.806C282.984 369.838 282.943 369.87 282.902 369.902C282.814 369.66 282.679 369.429 282.497 369.222Z" fill="#F9F9F9"/>
<path d="M276.082 373.46C275.935 373.46 275.839 373.419 275.776 373.366C275.708 373.316 275.657 373.24 275.656 373.124C275.656 373.118 275.656 373.112 275.656 373.106C275.659 372.695 275.458 372.14 275.263 371.547C275.155 371.865 274.961 372.16 274.664 372.419C274.698 372.446 274.73 372.48 274.759 372.525C274.951 372.825 274.573 372.975 274.573 372.975C268.468 375.391 269.085 368.488 269.519 366.39C271.092 366.752 274.208 368.021 274.953 369.427C275.025 369.127 275.18 368.857 275.457 368.636C276.248 368.006 281.46 367.678 282.262 367.977C282.41 368.196 282.542 368.406 282.659 368.609C283.547 367.757 284.477 367.686 285.281 368.035C283.033 369.69 281.034 371.656 278.33 372.768C277.644 373.05 276.897 373.277 276.106 373.46L276.082 373.46Z" fill="#F9F9F9"/>
<path opacity="0.01" d="M269.735 373.824C270.316 374.073 270.912 374.346 271.523 374.644C272.529 377.942 273.571 381.224 274.651 384.489C275.589 383.654 276.632 383.517 277.78 384.078C278.217 385.891 279.111 387.394 280.462 388.591C280.662 390.467 281.258 392.244 282.25 393.923C282.086 395.305 281.49 395.441 280.462 394.333C280.619 394.821 280.739 395.261 280.823 395.654C279.246 395.882 277.645 396.067 276.025 396.211C275.311 395.668 274.704 395.042 274.204 394.333C274.861 393.342 275.158 392.249 275.098 391.052C274.801 391.052 274.502 391.052 274.204 391.052C273.899 390.364 273.303 390.09 272.417 390.231C272.008 388.388 271.114 386.747 269.735 385.309C270.033 384.762 270.331 384.215 270.629 383.668C269.377 381.589 268.484 379.401 267.947 377.105C267.641 375.478 268.237 374.384 269.735 373.824ZM276.886 389.821C275.71 389.388 275.114 389.798 275.098 391.052C275.804 390.819 276.4 390.409 276.886 389.821ZM278.674 393.102C279.16 393.691 279.756 394.101 280.462 394.333C280.447 393.08 279.85 392.669 278.674 393.102Z" fill="#1B1B1B"/>
<path d="M236.962 351.635C236.73 351.739 236.497 351.839 236.263 351.934C236.496 351.832 236.729 351.732 236.962 351.635Z" fill="#9B6F5D"/>
<path opacity="0.01" fill-rule="evenodd" clip-rule="evenodd" d="M298.287 343.896C299.689 344.467 300.246 345.582 299.959 347.241C299.123 347.241 298.287 347.241 297.45 347.241C297.394 346.021 297.673 344.906 298.287 343.896Z" fill="#0A0A0A"/>
<path opacity="0.01" fill-rule="evenodd" clip-rule="evenodd" d="M304.141 346.405C304.409 347.699 305.245 348.257 306.65 348.078C306.371 348.635 306.092 349.192 305.813 349.75C304.698 350.029 304.698 350.308 305.813 350.587C305.781 351.493 305.501 352.329 304.977 353.096C305.907 353.736 306.465 354.572 306.65 355.605C304.151 355.23 303.315 353.976 304.141 351.841C303.701 351.262 303.144 350.844 302.468 350.587C301.611 351.718 300.496 352.276 299.122 352.259C298.903 351.023 299.182 349.908 299.959 348.914C300.449 349.089 300.867 349.368 301.213 349.75C302.076 348.473 303.052 347.358 304.141 346.405Z" fill="#050505"/>
<path opacity="0.01" fill-rule="evenodd" clip-rule="evenodd" d="M257.956 379.86C258.012 381.081 257.733 382.195 257.119 383.206C256.283 383.206 255.447 383.206 254.61 383.206C254.6 380.996 255.715 379.881 257.956 379.86Z" fill="black"/>
<path opacity="0.01" fill-rule="evenodd" clip-rule="evenodd" d="M266.319 384.879C265.336 384.696 264.5 384.974 263.81 385.715C264.925 386.83 264.925 387.946 263.81 389.061C264.192 389.728 264.75 390.007 265.483 389.897C263.352 392.082 261.399 391.943 259.628 389.479C260.274 388.458 261.11 387.621 262.137 386.97C261.508 386.408 261.229 385.712 261.301 384.879C263.066 383.84 264.739 383.84 266.319 384.879Z" fill="#030303"/>
<path opacity="0.01" fill-rule="evenodd" clip-rule="evenodd" d="M279.702 389.06C279.423 389.06 279.144 389.06 278.865 389.06C279.144 386.83 279.423 386.83 279.702 389.06Z" fill="black"/>
<path opacity="0.01" fill-rule="evenodd" clip-rule="evenodd" d="M279.701 389.06C280.684 388.877 281.52 389.156 282.21 389.897C280.912 390.982 280.076 390.704 279.701 389.06Z" fill="black"/>
<path opacity="0.01" fill-rule="evenodd" clip-rule="evenodd" d="M266.32 393.242C266.913 393.998 267.749 394.277 268.829 394.079C268.829 394.915 268.829 395.751 268.829 396.588C267.808 396.146 266.832 395.588 265.902 394.915C265.323 394.131 265.462 393.574 266.32 393.242Z" fill="black"/>
<path opacity="0.012" d="M271.338 390.733C272.168 390.59 272.725 390.869 273.011 391.57C272.019 392.792 272.019 393.907 273.011 394.915C273.478 395.638 274.046 396.277 274.714 396.83C272.78 397.016 270.816 397.134 268.829 397.187C268.829 396.987 268.829 396.788 268.829 396.588C268.829 395.752 268.829 394.915 268.829 394.079C267.749 394.277 266.913 393.999 266.32 393.243C267.536 391.768 267.256 390.652 265.483 389.897C264.751 390.007 264.193 389.728 263.811 389.061C264.925 387.946 264.925 386.83 263.811 385.715C264.501 384.974 265.337 384.696 266.32 384.879C267.716 387.108 269.389 389.06 271.338 390.733Z" fill="#3D3D3D"/>
<path d="M253.227 381.049C253.161 381.061 253.081 381.067 252.998 381.051C253.074 381.05 253.151 381.05 253.227 381.049Z" fill="#9B6F5D"/>
<path d="M252.534 381.054C252.48 381.062 252.418 381.065 252.354 381.055C252.414 381.054 252.474 381.054 252.534 381.054Z" fill="#9B6F5D"/>
<path d="M252.44 385.243L252.499 385.224C252.52 385.233 252.54 385.243 252.56 385.253C253.13 385.299 253.686 385.38 254.232 385.483C255.085 385.342 255.865 384.906 256.85 384.94C257.122 384.806 257.432 384.682 257.774 384.569C260.281 384.485 262.78 384.356 265.347 384.356C266.662 384.356 267.968 384.697 269.269 384.851C269.271 384.852 269.274 384.854 269.276 384.855L269.278 384.852C269.439 384.871 269.599 384.888 269.76 384.9L269.921 384.979C270.116 385.07 270.251 385.266 270.251 385.492C270.251 385.719 270.116 385.915 269.921 386.006L269.482 386.222C268.333 388.367 264.023 388.048 261.886 388.048C261.162 388.048 260.465 387.982 259.783 387.875C257.058 387.939 254.205 387.81 252.174 386.441L252.109 386.568L251.656 386.345C251.605 386.345 251.553 386.344 251.502 386.344C251.502 386.344 250.925 386.344 250.925 385.776C250.925 385.208 251.502 385.208 251.502 385.208C251.581 385.208 251.66 385.209 251.738 385.211C251.755 385.209 251.773 385.208 251.79 385.208H252.367V385.238C252.392 385.24 252.416 385.241 252.44 385.243Z" fill="#D1997B"/>
<path d="M250.315 384.952C250.577 384.952 250.838 384.952 251.1 384.952C256.025 383.026 263.134 384.061 268.314 384.109C268.959 384.321 269.653 384.393 270.333 384.393L270.43 384.466L270.446 384.421L271.295 384.699C271.443 384.744 271.57 384.834 271.66 384.952C271.372 384.952 271.083 384.952 270.795 384.952C263.749 384.953 256.68 385.198 249.613 385.232L250.315 384.952Z" fill="#7F5D4B"/>
<path d="M261.592 374.297C261.402 374.07 261.238 373.803 261.1 373.505C261.055 373.632 261.006 373.747 260.955 373.846C260.668 374.401 260.172 374.987 259.625 375.286C259.286 375.332 258.932 375.381 258.568 375.43C258.35 375.355 258.14 375.203 257.948 374.954L258.049 375.166C258.049 375.166 257.625 375.174 257.617 374.787C257.616 374.724 257.626 374.67 257.644 374.626C256.698 373.837 256.263 372.63 256.167 371.406C255.233 374.097 251.542 375.352 251.338 371.399C251.176 371.347 251.093 371.202 251.093 371.202C249.643 368.573 252.51 363.603 255.631 366.551C256.08 366.975 255.97 368.732 256.24 369.712C256.277 369.481 256.325 369.258 256.382 369.044C256.583 368.288 255.792 366.732 256.796 366.217C257.448 365.883 258.792 366.383 259.564 366.37C260.301 366.398 260.796 367.03 261.099 367.927C261.849 366.292 263.365 365.547 265.627 367.538C265.641 367.743 265.659 367.979 265.678 368.239C265.65 369.414 265.623 370.876 265.638 372.442C265.474 373.498 265.131 374.411 264.47 374.865C263.733 374.894 263.027 374.928 262.364 374.975C262.135 374.896 261.892 374.793 261.632 374.664L261.592 374.297Z" fill="#F9F9F9"/>
<path d="M246.846 368.044C247.71 366.357 249.087 364.628 250.445 365.294C250.68 365.409 251.301 370.229 251.322 370.767C251.411 375.13 246.879 375.018 246.296 371.296C245.981 371.716 245.607 372.099 245.222 372.396C244.129 371.003 243.173 369.403 242.233 367.96C243.718 367.088 245.651 366.846 246.846 368.044Z" fill="#F9F9F9"/>
<path d="M245.716 370.69L245.984 370.177C246.049 370.045 246.193 369.952 246.363 369.949C246.596 369.945 246.79 370.115 246.794 370.328C246.795 370.393 246.779 370.455 246.749 370.509L246.609 370.778C246.894 373.208 249.525 374.975 251.091 371.919L251.335 371.209C251.385 371.05 251.543 370.932 251.734 370.929C251.966 370.925 252.157 371.092 252.165 371.302L252.188 371.861C253.178 373.872 254.603 374.404 255.906 371.806L256.174 371.293C256.239 371.161 256.383 371.068 256.552 371.065C256.786 371.061 256.979 371.231 256.984 371.445L256.994 371.95C257.819 373.716 259.374 375.273 260.379 372.405L260.382 371.894C260.382 371.684 260.567 371.512 260.797 371.509C260.967 371.506 261.114 371.594 261.185 371.723L261.473 372.227C263.026 373.63 265.253 375.33 265.181 371.821L265.165 371.047C265.161 370.834 265.347 370.657 265.581 370.653C265.6 370.653 265.618 370.654 265.637 370.656C265.626 371.949 265.636 373.38 265.695 374.821C264.362 374.867 263.098 374.913 261.974 375.005C259.01 375.247 251.645 376.765 248.87 375.52C247.255 374.796 245.947 373.403 244.785 371.821C245.161 371.509 245.486 371.13 245.716 370.69Z" fill="#F9F9F9"/>
<path d="M287.998 370.103C288.889 371.891 280.467 373.048 271.219 373.069C257.237 373.046 239.855 373.391 240.96 371.728C231.039 365.638 224.427 356.51 224.427 356.51C224.893 356.822 233.16 362.711 233.637 362.995C234.619 363.579 237.338 366.03 239.455 366.655C243.103 367.733 247.461 367.862 249.268 368.393C255.268 370.158 254.551 370.069 260.88 369.909C264.342 369.822 267.806 369.077 271.219 369.072C274.09 369.079 277.721 369.9 281.65 369.026C284.498 368.393 288.558 366.316 291.834 363.965C297.31 360.034 301.585 355.337 301.585 355.337C301.585 355.337 300.063 355.589 300.953 357.377L287.998 370.103Z" fill="#994F43"/>
<path d="M301.777 354.806C301.777 358.162 290.505 369.167 283.99 374.468C280.459 376.401 280.738 376.901 277.271 378.311C274.082 379.609 264.847 378.435 261.737 378.435C258.895 378.435 253.33 379.872 250.279 379.149C245.128 377.928 242.779 374.103 239.056 371.347C234.006 367.607 223.729 358.576 223.729 355.723C223.729 354.607 238.616 368.973 245.281 368.706C250.188 368.955 256.507 370.691 261.011 370.691C266.863 370.691 276.225 369.25 280.329 369.749C294.09 367.107 301.501 353.502 301.501 354.806L301.777 354.806Z" fill="#D97E67"/>
<path d="M266.124 379.533C262.433 379.442 258.85 380.034 255.223 380.124C251.938 380.124 247.083 380.238 245.103 376.705C246.239 377.387 247.289 378.242 248.567 378.433C250.651 379.316 252.955 378.942 255.223 378.942C256.891 379.008 259.183 378.51 260.814 378.071C262.537 377.608 264.489 378.415 266.124 378.351C266.283 378.351 266.439 378.352 266.594 378.353C269.101 379.014 271.79 378.942 274.43 378.942C274.952 378.929 275.441 378.844 275.905 378.702C272.64 380.194 269.759 379.533 266.124 379.533Z" fill="#994F43"/>
<path d="M262.004 349.633C262.068 349.392 262.133 349.151 262.197 348.91C262.308 348.951 262.423 348.983 262.543 349.003C263.606 349.181 264.507 348.795 265.501 348.737L265.964 348.472C267.433 348.516 268.289 347.873 269.591 347.477C271.432 346.712 275.649 344.566 277.752 345.409C279.41 346.074 282.607 347.282 284.303 348.022C287.609 349.463 301.811 354.064 301.881 354.483C298.723 354.393 287.331 349.52 284.479 349.52C283.196 348.918 281.874 348.503 280.546 348.004C279.444 347.472 278.427 346.928 277.298 346.364C275.921 345.676 271.353 347.824 270.09 348.411C270.055 348.424 270.021 348.436 269.987 348.448C269.343 348.629 268.786 348.856 268.221 349.054C267.899 349.156 267.575 349.253 267.248 349.344C266.921 349.42 266.577 349.475 266.2 349.497C266.168 349.555 266.124 349.6 266.077 349.635C265.862 349.682 265.645 349.725 265.425 349.765C264.922 349.782 264.428 349.889 263.921 349.971C263.57 350.003 263.21 350.026 262.839 350.037C262.553 349.925 262.275 349.788 262.004 349.633Z" fill="#994F43"/>
<path d="M303.759 354.848C300.29 355.166 286.884 355.167 283.619 354.788C278.335 354.175 275.886 356.435 264.567 356.043C262.517 355.972 261.326 356.165 259.769 356.086C248.235 355.496 248.462 354.521 244.262 355.521C238.218 356.959 225.297 355.461 221.999 355.555C221.198 355.577 235.219 352.295 236.909 351.55C240.85 350.204 245.65 346.663 250.762 346.199C255.157 345.8 258.456 349.543 262.818 349.543C266.974 349.543 272.79 345.901 276.57 346.007C279.892 346.099 283.174 349.033 285.722 349.626C288.189 350.201 303.759 354.848 303.759 354.848Z" fill="#CD6B5B"/>
<path d="M262.982 350.037C262.634 350.026 262.297 350.003 261.967 349.971C261.492 349.889 261.028 349.782 260.556 349.765C260.35 349.725 260.146 349.682 259.945 349.635C259.9 349.6 259.859 349.555 259.829 349.497C259.475 349.475 259.152 349.42 258.846 349.344C258.539 349.253 258.235 349.156 257.933 349.054C257.403 348.856 256.88 348.629 256.276 348.448C256.244 348.436 256.212 348.424 256.179 348.411C254.994 347.824 250.708 345.676 249.417 346.364C248.358 346.929 247.403 347.472 246.369 348.004C238.541 351.95 224.463 354.685 222.271 355.302C222.791 355.067 237.188 350.98 237.621 350.702C239.974 349.918 242.309 348.771 244.505 347.751C246.096 347.011 247.435 346.074 248.991 345.409C250.963 344.566 254.92 346.712 256.648 347.477C257.869 347.873 258.672 348.516 260.051 348.472L260.485 348.737C261.417 348.795 262.263 349.181 263.26 349.003C263.372 348.983 263.48 348.951 263.584 348.91C263.644 349.151 263.706 349.392 263.766 349.634C263.511 349.788 263.251 349.925 262.982 350.037Z" fill="#994F43"/>
<path d="M282.655 355.723C281.382 355.658 276.703 355.324 274.602 355.963C273.648 355.949 272.781 356.566 271.86 356.731C268.829 357.275 265.37 357.262 262.275 357.262C258.859 357.262 255.141 357.223 251.907 356.496C251.837 356.48 245.199 356.06 244.197 356.261C237.964 357.514 234.211 356.733 231.395 356.602C231.189 355.955 223.036 355.946 222.931 355.22C223.096 355.201 235.367 356.609 239.85 355.279C244.784 354.67 247.277 353.97 248.146 353.815C248.961 353.888 252.074 355.063 252.669 355.207C255.795 355.969 259.47 355.946 262.781 355.946C265.767 355.946 268.696 356.288 271.604 355.724C271.626 355.72 271.647 355.716 271.669 355.711C271.783 355.711 271.896 355.711 272.01 355.711C275.281 355.644 282.459 353.126 282.459 353.126C282.978 353.295 285.118 353.774 285.633 353.987C285.916 354.137 303.287 354.814 303.61 354.985C303.671 355.017 286.34 355.452 286.195 355.452L282.655 355.723Z" fill="#994F43"/>
</svg>