<svg xmlns="http://www.w3.org/2000/svg" fill="none" viewBox="207.55 331.56 113.92 70.94">
<path d="M294.642 358.258C294.642 361.249 284.251 366.994 269.489 366.994C254.728 366.994 234.039 362.234 234.039 359.242C234.039 356.251 254.728 356.162 269.489 356.162C284.251 356.162 294.642 355.267 294.642 358.258Z" fill="#482520"/>
<path d="M239.903 357.498L239.933 357.463C240.003 357.394 240.156 357.305 240.365 357.206C242.189 356.772 243.713 356.38 244.457 356.307C247.873 355.975 257.08 354.633 260.105 354.633L260.38 354.589C262.545 356.229 266.575 354.621 269.875 353.98C271.88 354.06 287.545 356.782 289.009 357.206C289.294 357.463 289.009 359.381 286.576 360.425C285.436 360.914 270.138 362.695 262.628 362.44C254.65 362.17 243.731 361.946 240.989 360.425C239.903 359.822 237.57 358.186 237.531 357.463C237.531 357.463 239.621 357.541 239.903 357.498Z" fill="#F9F9F9"/>
<path opacity="0.02" fill-rule="evenodd" clip-rule="evenodd" d="M265.697 335.018C266.43 334.909 266.988 335.187 267.37 335.855C267.019 337.382 267.019 339.055 267.37 340.873C262.595 339.983 262.037 338.032 265.697 335.018Z" fill="#222222"/>
<path opacity="0.01" fill-rule="evenodd" clip-rule="evenodd" d="M260.679 339.2C262.216 339.316 262.494 339.874 261.516 340.873C260.848 340.491 260.57 339.933 260.679 339.2Z" fill="black"/>
<path opacity="0.01" fill-rule="evenodd" clip-rule="evenodd" d="M299.153 346.728C300.555 347.299 301.113 348.415 300.826 350.074C299.989 350.074 299.153 350.074 298.317 350.074C298.261 348.853 298.539 347.738 299.153 346.728Z" fill="#0A0A0A"/>
<path opacity="0.01" fill-rule="evenodd" clip-rule="evenodd" d="M305.008 349.237C305.276 350.532 306.113 351.09 307.517 350.91C307.238 351.468 306.959 352.025 306.68 352.583C305.566 352.861 305.566 353.141 306.68 353.419C306.648 354.325 306.368 355.161 305.844 355.928C306.774 356.568 307.332 357.405 307.517 358.437C305.018 358.063 304.182 356.808 305.008 354.674C304.569 354.095 304.011 353.677 303.335 353.419C302.478 354.551 301.363 355.109 299.989 355.092C299.77 353.856 300.049 352.741 300.826 351.746C301.316 351.921 301.734 352.201 302.08 352.583C302.943 351.306 303.92 350.191 305.008 349.237Z" fill="#050505"/>
<path opacity="0.01" fill-rule="evenodd" clip-rule="evenodd" d="M271.552 376.838C270.15 377.41 269.592 378.525 269.879 380.184C268.753 380.745 267.777 380.745 266.952 380.184C266.692 378.464 266.274 376.791 265.697 375.165C265.955 374.49 266.373 373.932 266.952 373.493C267.788 374.608 268.625 374.608 269.461 373.493C270.377 374.49 271.074 375.606 271.552 376.838Z" fill="black"/>
<path opacity="0.01" fill-rule="evenodd" clip-rule="evenodd" d="M263.188 375.165C264.303 375.723 264.303 375.723 263.188 375.165V375.165Z" fill="black"/>
<path opacity="0.01" fill-rule="evenodd" clip-rule="evenodd" d="M264.025 387.711C262.005 388.314 260.332 389.429 259.006 391.056C256.788 389.048 257.067 387.376 259.843 386.038C260.751 385.938 261.309 385.38 261.515 384.365C261.479 383.599 261.201 383.041 260.679 382.693C261.382 381.121 261.662 379.448 261.515 377.674C262.621 377.816 263.597 377.538 264.443 376.838C265.171 377.346 265.589 378.043 265.697 378.929C265.037 380.289 264.201 381.543 263.188 382.693C263.392 384.407 263.671 386.08 264.025 387.711Z" fill="#121212"/>
<path opacity="0.01" fill-rule="evenodd" clip-rule="evenodd" d="M260.679 382.693C260.736 383.913 260.457 385.028 259.843 386.038C259.007 386.038 258.17 386.038 257.334 386.038C257.324 383.829 258.439 382.714 260.679 382.693Z" fill="black"/>
<path opacity="0.01" d="M271.552 376.838C272.095 377.092 272.653 377.371 273.224 377.674C274.165 381.037 275.141 384.382 276.152 387.711C277.029 386.86 278.005 386.721 279.079 387.293C279.488 389.14 280.324 390.673 281.588 391.893C281.776 393.806 282.333 395.617 283.261 397.329C283.108 398.738 282.55 398.877 281.588 397.748C281.735 398.244 281.848 398.693 281.926 399.094C280.451 399.327 278.953 399.516 277.436 399.662C276.769 399.109 276.201 398.471 275.733 397.748C276.347 396.737 276.626 395.622 276.57 394.402C276.291 394.402 276.012 394.402 275.733 394.402C275.447 393.701 274.89 393.422 274.061 393.566C273.678 391.686 272.842 390.014 271.552 388.547C271.83 387.989 272.109 387.432 272.388 386.875C271.217 384.754 270.381 382.524 269.879 380.183C269.592 378.525 270.15 377.409 271.552 376.838ZM278.243 393.147C277.142 392.706 276.584 393.124 276.57 394.402C277.23 394.165 277.788 393.747 278.243 393.147ZM279.916 396.493C280.371 397.092 280.928 397.511 281.588 397.748C281.574 396.47 281.016 396.051 279.916 396.493Z" fill="#1B1B1B"/>
<path opacity="0.01" fill-rule="evenodd" clip-rule="evenodd" d="M269.043 387.711C268.06 387.528 267.224 387.807 266.534 388.548C267.648 389.662 267.648 390.778 266.534 391.893C266.916 392.561 267.474 392.839 268.206 392.73C266.075 394.915 264.123 394.775 262.352 392.311C262.997 391.29 263.834 390.454 264.861 389.802C264.232 389.241 263.952 388.544 264.024 387.711C265.79 386.672 267.463 386.672 269.043 387.711Z" fill="#030303"/>
<path opacity="0.01" fill-rule="evenodd" clip-rule="evenodd" d="M282.425 391.893C282.147 391.893 281.867 391.893 281.589 391.893C281.867 389.662 282.147 389.662 282.425 391.893Z" fill="black"/>
<path opacity="0.01" fill-rule="evenodd" clip-rule="evenodd" d="M282.425 391.893C283.408 391.71 284.244 391.988 284.934 392.729C283.636 393.815 282.8 393.536 282.425 391.893Z" fill="black"/>
<path opacity="0.01" fill-rule="evenodd" clip-rule="evenodd" d="M269.043 396.075C269.636 396.831 270.473 397.109 271.552 396.911C271.552 397.747 271.552 398.584 271.552 399.42C270.531 398.979 269.556 398.421 268.625 397.747C268.046 396.964 268.186 396.407 269.043 396.075Z" fill="black"/>
<path opacity="0.012" d="M274.062 393.566C274.891 393.422 275.448 393.701 275.734 394.402C274.742 395.624 274.742 396.74 275.734 397.748C276.202 398.471 276.77 399.109 277.437 399.662C275.504 399.849 273.54 399.967 271.552 400.019C271.552 399.82 271.552 399.62 271.552 399.421C271.552 398.584 271.552 397.748 271.552 396.912C270.473 397.11 269.636 396.831 269.043 396.075C270.259 394.601 269.98 393.485 268.207 392.73C267.474 392.839 266.916 392.561 266.534 391.893C267.649 390.778 267.649 389.662 266.534 388.548C267.224 387.807 268.061 387.528 269.043 387.711C270.44 389.941 272.113 391.892 274.062 393.566Z" fill="#3D3D3D"/>
<path d="M255.951 383.881C255.885 383.894 255.805 383.9 255.722 383.883C255.798 383.882 255.874 383.882 255.951 383.881Z" fill="#9B6F5D"/>
<path d="M255.257 383.886C255.203 383.894 255.141 383.897 255.077 383.887C255.137 383.887 255.197 383.887 255.257 383.886Z" fill="#9B6F5D"/>
<path d="M240.888 354.217C240.671 354.322 240.453 354.424 240.233 354.521C240.451 354.417 240.67 354.315 240.888 354.217Z" fill="#9B6F5D"/>
<path d="M255.01 376.748L255.069 376.737C255.089 376.743 255.109 376.748 255.129 376.754C255.7 376.78 256.256 376.827 256.802 376.885C257.655 376.805 258.434 376.555 259.419 376.575C259.691 376.498 260.002 376.427 260.344 376.362C262.85 376.314 265.349 376.241 267.916 376.241C269.232 376.241 270.537 376.435 271.838 376.524C271.841 376.525 271.843 376.525 271.846 376.526L271.847 376.525C272.008 376.535 272.169 376.545 272.33 376.552L272.49 376.597C272.685 376.649 272.82 376.761 272.82 376.891C272.82 377.021 272.685 377.133 272.49 377.185L272.051 377.308C270.902 378.536 266.592 378.354 264.455 378.354C263.732 378.354 263.034 378.316 262.352 378.255C259.627 378.291 256.774 378.217 254.743 377.434L254.678 377.507L254.225 377.379C254.174 377.379 254.123 377.379 254.071 377.379C254.071 377.379 253.494 377.379 253.494 377.053C253.494 376.728 254.071 376.728 254.071 376.728C254.15 376.728 254.229 376.729 254.308 376.73C254.325 376.729 254.342 376.728 254.359 376.728H254.936V376.745C254.961 376.746 254.985 376.747 255.01 376.748Z" fill="#D1997B"/>
<path d="M252.884 376.582C253.146 376.582 253.408 376.582 253.67 376.582C258.594 375.479 265.703 376.071 270.883 376.099C271.528 376.22 272.223 376.262 272.903 376.262L273 376.304L273.015 376.277L273.865 376.437C274.012 376.462 274.139 376.514 274.229 376.582C273.941 376.582 273.653 376.582 273.364 376.582C266.318 376.582 259.249 376.722 252.183 376.742L252.884 376.582Z" fill="#7F5D4B"/>
<path d="M263.23 352.176C263.279 351.93 263.329 351.684 263.378 351.438C263.462 351.48 263.55 351.512 263.641 351.533C264.45 351.714 265.137 351.321 265.894 351.262L266.246 350.991C267.365 351.037 268.017 350.381 269.009 349.977C270.411 349.197 273.623 347.009 275.224 347.869C276.487 348.547 278.922 349.779 280.214 350.532C282.732 352.002 293.548 356.693 293.601 357.12C291.196 357.029 282.52 352.06 280.348 352.06C279.371 351.446 278.364 351.023 277.352 350.515C276.513 349.972 275.738 349.418 274.879 348.843C273.83 348.141 270.351 350.331 269.389 350.93C269.363 350.943 269.337 350.955 269.311 350.968C268.82 351.152 268.396 351.383 267.965 351.585C267.72 351.689 267.474 351.788 267.224 351.881C266.976 351.959 266.713 352.015 266.426 352.037C266.402 352.095 266.369 352.141 266.332 352.178C266.169 352.225 266.004 352.269 265.836 352.31C265.453 352.327 265.076 352.436 264.691 352.52C264.423 352.553 264.149 352.576 263.866 352.587C263.648 352.473 263.437 352.333 263.23 352.176Z" fill="#994F43"/>
<path d="M295.032 357.491C292.39 357.816 282.179 357.817 279.693 357.431C275.669 356.806 273.803 359.11 265.182 358.71C263.621 358.638 262.714 358.835 261.528 358.754C252.743 358.152 252.917 357.158 249.717 358.178C245.115 359.644 235.273 358.117 232.761 358.212C232.152 358.235 242.831 354.888 244.118 354.13C247.119 352.757 250.774 349.147 254.668 348.674C258.015 348.267 260.528 352.083 263.85 352.083C267.015 352.083 271.445 348.37 274.324 348.478C276.854 348.572 279.354 351.563 281.294 352.168C283.173 352.754 295.032 357.491 295.032 357.491Z" fill="#CD6B5B"/>
<path d="M263.975 352.587C263.71 352.576 263.453 352.553 263.202 352.519C262.84 352.436 262.486 352.327 262.127 352.31C261.97 352.269 261.815 352.225 261.661 352.178C261.627 352.141 261.596 352.095 261.573 352.037C261.304 352.014 261.058 351.959 260.824 351.881C260.59 351.788 260.359 351.689 260.129 351.585C259.726 351.383 259.327 351.152 258.867 350.968C258.843 350.955 258.818 350.942 258.794 350.93C257.891 350.331 254.627 348.141 253.643 348.843C252.836 349.418 252.109 349.972 251.322 350.515C245.359 354.537 234.638 357.326 232.968 357.955C233.364 357.716 244.329 353.548 244.659 353.266C246.451 352.466 248.23 351.297 249.902 350.256C251.114 349.503 252.133 348.547 253.318 347.869C254.821 347.009 257.834 349.197 259.15 349.977C260.08 350.381 260.692 351.037 261.742 350.991L262.073 351.262C262.783 351.321 263.427 351.714 264.187 351.533C264.272 351.512 264.354 351.48 264.433 351.438C264.479 351.684 264.526 351.93 264.571 352.176C264.377 352.333 264.179 352.473 263.975 352.587Z" fill="#994F43"/>
<path d="M278.958 358.384C277.989 358.318 274.425 357.977 272.825 358.628C272.098 358.615 271.438 359.243 270.736 359.412C268.428 359.966 265.793 359.953 263.436 359.953C260.834 359.953 258.003 359.913 255.54 359.172C255.486 359.156 250.43 358.727 249.668 358.933C244.92 360.21 242.062 359.413 239.917 359.28C239.76 358.621 233.551 358.612 233.471 357.871C233.597 357.852 242.943 359.287 246.357 357.931C250.115 357.31 252.014 356.597 252.675 356.438C253.296 356.514 255.667 357.711 256.12 357.858C258.501 358.635 261.3 358.611 263.822 358.611C266.096 358.611 268.327 358.96 270.541 358.386C270.558 358.381 270.574 358.377 270.591 358.372C270.678 358.372 270.764 358.371 270.851 358.371C273.342 358.304 278.809 355.736 278.809 355.736C279.204 355.909 280.834 356.397 281.226 356.614C281.441 356.767 294.671 357.457 294.918 357.631C294.964 357.664 281.764 358.108 281.654 358.108L278.958 358.384Z" fill="#994F43"/>
<path d="M282.684 364.782C283.363 366.276 276.949 367.242 269.905 367.26C259.256 367.241 246.018 367.529 246.859 366.139C239.303 361.052 233.694 358.491 233.694 358.491C234.049 358.752 243.642 361.52 245.255 362.043C248.033 362.943 251.81 362.91 253.186 363.354C257.757 364.828 257.21 364.754 262.03 364.62C264.667 364.547 267.305 363.925 269.905 363.92C272.092 363.927 274.857 364.612 277.849 363.882C278.896 363.627 282.44 362.677 285.471 361.472C288.719 360.18 291.429 358.637 291.429 358.637C291.429 358.637 293.361 356.737 294.04 358.23L282.684 364.782Z" fill="#994F43"/>
<path d="M274.514 371.639C272.086 372.723 265.052 371.743 262.683 371.743C260.519 371.743 255.96 373.317 253.636 372.712C245.081 370.256 241.111 368.783 240.087 367.595C237.058 362.602 233.851 360.31 233.851 358.536C233.851 357.605 243.815 363.838 248.891 363.615C252.628 363.823 258.7 365.273 262.131 365.273C266.587 365.273 274.662 364.069 277.788 364.486C288.269 362.28 294.572 356.963 294.572 358.052C294.572 358.052 293.871 363.709 289.408 365.752C288.747 366.055 286.71 367.289 285.828 367.595C281.805 368.986 276.68 370.673 274.514 371.639Z" fill="#D97E67"/>
<path d="M266.025 372.66C263.213 372.584 260.485 373.079 257.722 373.154C255.22 373.154 241.619 370.773 240.11 367.822C240.976 368.391 251.68 371.581 252.652 371.741C254.24 372.479 255.995 372.166 257.722 372.166C258.992 372.221 260.738 371.805 261.98 371.439C263.292 371.051 264.779 371.726 266.025 371.672C266.145 371.672 266.264 371.673 266.382 371.675C267.332 371.949 272.613 371.543 276.995 370.443C281.425 369.331 284.957 367.524 285.968 367.524C286.365 367.513 278.072 371.466 278.426 371.347C275.939 372.593 268.793 372.66 266.025 372.66Z" fill="#994F43"/>
<path d="M221.551 342.554C243.059 332.598 263.702 332.271 279.78 331.622C296.306 330.955 322.263 335.547 321.448 357.093C322.008 416.157 229.831 408.729 213.564 384.535C208.379 376.824 200.043 352.511 221.551 342.554Z" fill="#E1A585"/>
<path d="M300.926 356.402C300.926 356.402 300.947 360.754 294.453 363.81C287.554 367.056 277.255 369.82 265.257 369.82C241.966 369.82 234.646 358.639 234.646 358.639C234.646 358.639 240.036 356.402 263.328 356.402C286.619 356.402 300.926 356.402 300.926 356.402Z" fill="#482520"/>
<path opacity="0.02" fill-rule="evenodd" clip-rule="evenodd" d="M266.477 335.804C267.26 335.697 267.857 335.97 268.265 336.625C267.89 338.123 267.89 339.764 268.265 341.547C263.162 340.674 262.566 338.76 266.477 335.804Z" fill="#222222"/>
<path opacity="0.01" fill-rule="evenodd" clip-rule="evenodd" d="M261.115 339.906C262.757 340.02 263.054 340.568 262.008 341.547C261.295 341.172 260.998 340.625 261.115 339.906Z" fill="black"/>
<path opacity="0.01" fill-rule="evenodd" clip-rule="evenodd" d="M272.735 376.824C271.237 377.384 270.641 378.478 270.947 380.105C269.743 380.656 268.7 380.656 267.818 380.105C267.54 378.418 267.093 376.778 266.478 375.183C266.753 374.52 267.2 373.973 267.818 373.542C268.712 374.636 269.606 374.636 270.5 373.542C271.479 374.521 272.224 375.615 272.735 376.824Z" fill="black"/>
<path opacity="0.01" fill-rule="evenodd" clip-rule="evenodd" d="M263.796 375.183C264.987 375.73 264.987 375.73 263.796 375.183V375.183Z" fill="black"/>
<path opacity="0.01" fill-rule="evenodd" clip-rule="evenodd" d="M264.69 387.488C262.531 388.08 260.743 389.173 259.327 390.77C256.956 388.8 257.254 387.159 260.22 385.847C261.191 385.749 261.787 385.202 262.008 384.207C261.97 383.455 261.672 382.908 261.114 382.566C261.866 381.024 262.165 379.384 262.008 377.644C263.19 377.783 264.233 377.51 265.137 376.823C265.915 377.322 266.362 378.005 266.478 378.874C265.772 380.208 264.879 381.439 263.796 382.566C264.014 384.248 264.312 385.888 264.69 387.488Z" fill="#121212"/>
<path d="M238.386 356.095L238.421 356.04C238.505 355.932 238.688 355.794 238.936 355.64C241.109 354.963 242.924 354.353 243.81 354.241C247.878 353.723 258.844 351.634 262.447 351.634L262.775 351.565C265.353 354.119 270.152 351.615 274.083 350.618C276.471 350.741 295.128 354.979 296.872 355.64C297.212 356.04 296.872 359.026 293.975 360.651C292.616 361.413 274.397 364.185 265.451 363.789C255.949 363.368 242.945 363.02 239.68 360.651C238.386 359.713 235.607 357.165 235.561 356.04C235.561 356.04 238.05 356.162 238.386 356.095Z" fill="#F9F9F9"/>
<path d="M290.965 360.57L291.084 360.738C291.028 360.75 290.973 360.763 290.917 360.777C290.933 360.708 290.948 360.639 290.965 360.57Z" fill="#F9F9F9"/>
<path d="M284.108 361.244C284.113 361.272 284.114 361.303 284.11 361.335C284.109 361.295 284.109 361.271 284.109 361.271L284.018 361.272C284.047 361.169 284.074 361.068 284.1 360.969L284.108 361.244Z" fill="#F9F9F9"/>
<path opacity="0.01" d="M272.735 376.824C273.316 377.073 273.912 377.346 274.523 377.644C275.529 380.942 276.571 384.224 277.651 387.489C278.589 386.654 279.632 386.517 280.78 387.078C281.217 388.891 282.111 390.394 283.462 391.591C283.662 393.467 284.258 395.244 285.25 396.923C285.086 398.305 284.49 398.441 283.462 397.333C283.619 397.821 283.739 398.261 283.823 398.654C282.246 398.882 280.645 399.067 279.025 399.211C278.311 398.668 277.704 398.042 277.204 397.333C277.861 396.342 278.158 395.249 278.098 394.052C277.801 394.052 277.502 394.052 277.204 394.052C276.899 393.364 276.303 393.09 275.417 393.231C275.008 391.388 274.114 389.747 272.735 388.309C273.033 387.762 273.331 387.215 273.629 386.668C272.377 384.589 271.484 382.401 270.947 380.105C270.641 378.478 271.237 377.384 272.735 376.824ZM279.886 392.821C278.71 392.388 278.114 392.798 278.098 394.052C278.804 393.819 279.4 393.409 279.886 392.821ZM281.674 396.102C282.16 396.691 282.756 397.101 283.462 397.333C283.447 396.08 282.85 395.669 281.674 396.102Z" fill="#1B1B1B"/>
<path d="M239.962 354.635C239.73 354.739 239.497 354.839 239.263 354.934C239.496 354.832 239.729 354.732 239.962 354.635Z" fill="#9B6F5D"/>
<path opacity="0.01" fill-rule="evenodd" clip-rule="evenodd" d="M301.287 346.896C302.689 347.467 303.246 348.582 302.959 350.241C302.123 350.241 301.287 350.241 300.45 350.241C300.394 349.021 300.673 347.906 301.287 346.896Z" fill="#0A0A0A"/>
<path opacity="0.01" fill-rule="evenodd" clip-rule="evenodd" d="M307.141 349.405C307.409 350.699 308.245 351.257 309.65 351.078C309.371 351.635 309.092 352.192 308.813 352.75C307.698 353.029 307.698 353.308 308.813 353.587C308.781 354.493 308.501 355.329 307.977 356.096C308.907 356.736 309.465 357.572 309.65 358.605C307.151 358.23 306.315 356.976 307.141 354.841C306.701 354.262 306.144 353.844 305.468 353.587C304.611 354.718 303.496 355.276 302.122 355.259C301.903 354.023 302.182 352.908 302.959 351.914C303.449 352.089 303.867 352.368 304.213 352.75C305.076 351.473 306.052 350.358 307.141 349.405Z" fill="#050505"/>
<path opacity="0.01" fill-rule="evenodd" clip-rule="evenodd" d="M260.956 382.86C261.012 384.081 260.733 385.195 260.119 386.206C259.283 386.206 258.447 386.206 257.61 386.206C257.6 383.996 258.715 382.881 260.956 382.86Z" fill="black"/>
<path opacity="0.01" fill-rule="evenodd" clip-rule="evenodd" d="M269.319 387.879C268.336 387.696 267.5 387.974 266.81 388.715C267.925 389.83 267.925 390.946 266.81 392.061C267.192 392.728 267.75 393.007 268.483 392.897C266.352 395.082 264.399 394.943 262.628 392.479C263.274 391.458 264.11 390.621 265.137 389.97C264.508 389.408 264.229 388.712 264.301 387.879C266.066 386.84 267.739 386.84 269.319 387.879Z" fill="#030303"/>
<path opacity="0.01" fill-rule="evenodd" clip-rule="evenodd" d="M282.702 392.06C282.423 392.06 282.144 392.06 281.865 392.06C282.144 389.83 282.423 389.83 282.702 392.06Z" fill="black"/>
<path opacity="0.01" fill-rule="evenodd" clip-rule="evenodd" d="M282.701 392.06C283.684 391.877 284.52 392.156 285.21 392.897C283.912 393.982 283.076 393.704 282.701 392.06Z" fill="black"/>
<path opacity="0.01" fill-rule="evenodd" clip-rule="evenodd" d="M269.32 396.242C269.913 396.998 270.749 397.277 271.829 397.079C271.829 397.915 271.829 398.751 271.829 399.588C270.808 399.146 269.832 398.588 268.902 397.915C268.323 397.131 268.462 396.574 269.32 396.242Z" fill="black"/>
<path opacity="0.012" d="M274.338 393.733C275.168 393.59 275.725 393.869 276.011 394.57C275.019 395.792 275.019 396.907 276.011 397.915C276.478 398.638 277.046 399.277 277.714 399.83C275.78 400.016 273.816 400.134 271.829 400.187C271.829 399.987 271.829 399.788 271.829 399.588C271.829 398.752 271.829 397.915 271.829 397.079C270.749 397.277 269.913 396.999 269.32 396.243C270.536 394.768 270.256 393.652 268.483 392.897C267.751 393.007 267.193 392.728 266.811 392.061C267.925 390.946 267.925 389.83 266.811 388.715C267.501 387.974 268.337 387.696 269.32 387.879C270.716 390.108 272.389 392.06 274.338 393.733Z" fill="#3D3D3D"/>
<path d="M256.227 384.049C256.161 384.061 256.081 384.067 255.998 384.051C256.074 384.05 256.151 384.05 256.227 384.049Z" fill="#9B6F5D"/>
<path d="M255.534 384.054C255.48 384.062 255.418 384.065 255.354 384.055C255.414 384.054 255.474 384.054 255.534 384.054Z" fill="#9B6F5D"/>
<path d="M257.313 383.682L257.372 383.663C257.393 383.672 257.413 383.682 257.433 383.691C258.004 383.738 258.559 383.819 259.106 383.921C259.958 383.781 260.738 383.345 261.723 383.378C261.995 383.245 262.305 383.121 262.647 383.008C265.154 382.924 267.653 382.795 270.22 382.795C271.535 382.795 272.841 383.136 274.142 383.29C274.145 383.291 274.147 383.293 274.149 383.294L274.151 383.291C274.312 383.31 274.472 383.326 274.633 383.339L274.794 383.418C274.989 383.509 275.124 383.704 275.124 383.931C275.124 384.158 274.989 384.354 274.794 384.445L274.355 384.661C273.206 386.805 268.896 386.487 266.759 386.487C266.035 386.487 265.338 386.421 264.656 386.314C261.931 386.378 259.078 386.248 257.047 384.88L256.982 385.007L256.529 384.784C256.478 384.784 256.426 384.783 256.375 384.783C256.375 384.783 255.798 384.783 255.798 384.215C255.798 383.647 256.375 383.647 256.375 383.647C256.454 383.647 256.533 383.648 256.611 383.649C256.628 383.648 256.646 383.647 256.663 383.647H257.24V383.677C257.265 383.678 257.289 383.68 257.313 383.682Z" fill="#D1997B"/>
<path d="M255.188 383.391C255.45 383.391 255.712 383.391 255.973 383.391C260.898 381.465 268.007 382.5 273.187 382.548C273.832 382.76 274.526 382.832 275.206 382.832L275.303 382.905L275.319 382.86L276.168 383.138C276.316 383.183 276.443 383.273 276.533 383.391C276.245 383.391 275.956 383.391 275.668 383.391C268.622 383.392 261.553 383.637 254.486 383.671L255.188 383.391Z" fill="#7F5D4B"/>
<path d="M292.81 364.146C293.7 365.413 283.508 366.233 274.26 366.248C260.277 366.232 242.896 366.476 244.001 365.298C234.08 360.981 231.554 357.334 231.554 357.334C232.02 357.555 236.2 358.907 236.677 359.108C237.66 359.522 240.084 361.469 242.201 361.913C246.161 363.415 246.885 363.575 248.588 363.765C254.911 364.467 257.355 363.528 263.684 363.415C267.146 363.353 270.847 363.419 274.26 363.415C277.457 364.146 281.316 364.765 285.245 364.146C288.092 363.697 291.599 361.462 294.875 359.795C300.351 357.009 298.68 357.334 298.68 357.334C298.68 357.334 300.648 356.067 301.539 357.334L292.81 364.146Z" fill="#994F43"/>
<path d="M301.539 357.681C301.539 360.74 293.505 365.175 286.99 370.008C283.459 371.77 283.738 372.226 280.271 373.512C277.082 374.695 267.847 373.625 264.736 373.625C261.895 373.625 256.33 374.935 253.278 374.276C248.128 373.163 245.779 369.676 242.056 367.163C237.006 363.754 232.443 360.282 232.443 357.681C232.443 356.664 241.878 364.998 248.543 364.755C253.45 364.982 260.842 364.433 265.345 364.433C271.197 364.433 279.225 365.251 283.329 365.706C297.09 363.298 294.832 359.782 299.784 356.354L301.539 357.681Z" fill="#D97E67"/>
<path d="M269.124 374.626C265.433 374.542 261.85 375.083 258.223 375.165C254.938 375.165 250.083 375.268 248.103 372.048C249.239 372.669 250.289 373.448 251.567 373.623C253.651 374.428 255.955 374.087 258.223 374.087C259.891 374.147 262.183 373.693 263.814 373.293C265.537 372.87 267.489 373.607 269.124 373.548C269.283 373.548 269.439 373.549 269.594 373.55C272.101 374.152 274.79 374.087 277.43 374.087C277.952 374.075 278.441 373.998 278.905 373.868C275.64 375.228 272.759 374.626 269.124 374.626Z" fill="#994F43"/>
<path d="M265.004 352.633C265.068 352.392 265.133 352.151 265.197 351.91C265.308 351.951 265.423 351.983 265.543 352.003C266.606 352.181 267.507 351.795 268.501 351.737L268.964 351.472C270.433 351.516 271.289 350.873 272.591 350.477C274.432 349.712 278.649 347.566 280.752 348.409C282.41 349.074 285.607 350.282 287.303 351.022C290.609 352.463 304.811 357.064 304.881 357.483C301.723 357.393 290.331 352.52 287.479 352.52C286.196 351.918 284.874 351.503 283.546 351.004C282.444 350.472 281.427 349.928 280.298 349.364C278.921 348.676 274.353 350.824 273.09 351.411C273.055 351.424 273.021 351.436 272.987 351.448C272.343 351.629 271.786 351.856 271.221 352.054C270.899 352.156 270.575 352.253 270.248 352.344C269.921 352.42 269.577 352.475 269.2 352.497C269.168 352.555 269.124 352.6 269.077 352.635C268.862 352.682 268.645 352.725 268.425 352.765C267.922 352.782 267.428 352.889 266.921 352.971C266.57 353.003 266.21 353.026 265.839 353.037C265.553 352.925 265.275 352.788 265.004 352.633Z" fill="#994F43"/>
<path d="M304.355 357.788C300.886 358.107 289.884 358.167 286.619 357.788C281.335 357.175 278.886 359.435 267.567 359.043C265.517 358.972 264.326 359.165 262.769 359.086C251.235 358.496 251.462 357.521 247.262 358.521C241.219 359.959 230.364 358.427 227.066 358.521C226.265 358.543 238.22 355.295 239.909 354.55C243.85 353.204 248.65 349.663 253.763 349.199C258.157 348.8 261.456 352.543 265.818 352.543C269.974 352.543 275.79 348.901 279.571 349.007C282.892 349.099 286.174 352.033 288.722 352.626C291.189 353.201 304.355 357.788 304.355 357.788Z" fill="#CD6B5B"/>
<path d="M265.982 353.037C265.634 353.026 265.297 353.003 264.967 352.971C264.492 352.889 264.028 352.782 263.556 352.765C263.35 352.725 263.146 352.682 262.945 352.635C262.9 352.6 262.859 352.555 262.829 352.497C262.475 352.475 262.152 352.42 261.846 352.344C261.539 352.253 261.235 352.156 260.933 352.054C260.403 351.856 259.88 351.629 259.276 351.448C259.244 351.436 259.212 351.424 259.179 351.411C257.994 350.824 253.708 348.676 252.417 349.364C251.358 349.929 250.403 350.472 249.369 351.004C241.541 354.95 227.463 357.685 225.271 358.302C225.791 358.067 240.188 353.98 240.621 353.702C242.974 352.918 245.309 351.771 247.505 350.751C249.096 350.011 250.435 349.074 251.991 348.409C253.963 347.566 257.92 349.712 259.648 350.477C260.869 350.873 261.672 351.516 263.051 351.472L263.485 351.737C264.417 351.795 265.263 352.181 266.26 352.003C266.372 351.983 266.48 351.951 266.584 351.91C266.644 352.151 266.706 352.392 266.766 352.634C266.511 352.788 266.251 352.925 265.982 353.037Z" fill="#994F43"/>
<path d="M285.654 358.723C284.382 358.658 279.703 358.324 277.602 358.963C276.648 358.949 275.781 359.566 274.86 359.731C271.829 360.275 268.37 360.262 265.275 360.262C261.859 360.262 258.141 360.223 254.907 359.496C254.837 359.48 248.199 359.06 247.197 359.261C240.964 360.514 237.211 359.733 234.395 359.602C234.189 358.955 232.932 359.178 232.827 358.452C232.992 358.433 238.367 359.609 242.85 358.279C247.784 357.67 250.277 356.97 251.146 356.815C251.96 356.888 255.074 358.063 255.669 358.207C258.795 358.969 262.47 358.946 265.781 358.946C268.767 358.946 271.696 359.288 274.604 358.724C274.626 358.72 274.647 358.716 274.669 358.711C274.783 358.711 274.896 358.711 275.01 358.711C278.281 358.644 285.459 356.126 285.459 356.126C285.978 356.295 288.118 356.774 288.633 356.987C288.916 357.137 306.287 357.814 306.61 357.985C306.671 358.017 289.34 358.452 289.195 358.452L285.654 358.723Z" fill="#994F43"/>
</svg>