<svg xmlns="http://www.w3.org/2000/svg" fill="none" viewBox="203.91 329.67 113.92 70.94">
<path d="M217.917 340.661C239.425 330.705 260.068 330.378 276.146 329.729C292.672 329.062 318.63 333.654 317.814 355.2C318.374 414.264 226.197 406.836 209.93 382.642C204.745 374.931 196.409 350.618 217.917 340.661Z" fill="#E1A585"/>
<path d="M295.168 353.536C295.168 353.536 295.477 359.592 289.401 364.995C286.599 367.486 284.968 373.575 281.098 375.415C276.051 377.816 267.553 375.182 261.198 375.182C256.517 375.182 251.002 377.99 247.311 376.499C233.819 371.049 226.996 352.334 226.996 352.334C226.996 352.334 237.6 351.455 259.393 351.455C281.186 351.455 295.168 350.751 295.168 350.751L295.168 353.536Z" fill="#482520"/>
<path d="M266.515 376.286H265.949C265.492 376.282 264.95 376.086 264.383 375.789C260.262 374.72 255.246 376.286 250.828 376.286C250.555 376.283 250.281 376.28 250.008 376.277L249.335 376.038C249.335 376.038 249.33 376.037 249.323 376.033C244.7 375.541 244.12 371.004 246.005 368.209C248.297 364.808 251.626 360.805 256.401 359.032C262.678 356.704 264.836 358.348 270.256 360.358C273.066 364.262 277.467 366.003 277.467 370.889C277.382 375.456 271.902 376.039 266.974 376.072C266.86 376.287 266.515 376.286 266.515 376.286ZM259.381 372.306C261.584 371.515 262.368 373.788 264.002 374.935C264.514 375.037 265.014 375.174 265.498 375.353C269.979 375.293 276.59 375.487 276.478 370.889C276.478 366.142 271.94 364.737 269.557 360.877C264.489 358.998 262.723 357.507 256.843 359.688C252.265 361.383 249.083 365.283 246.889 368.537C245.259 370.955 245.55 375.377 250.121 375.343C250.121 375.343 250.466 375.343 250.58 375.557C250.663 375.556 250.745 375.554 250.828 375.553C251.236 375.553 251.649 375.54 252.067 375.517C254.858 375.159 258.592 373.478 259.381 372.306Z" fill="#B65E50"/>
<path d="M252.005 375.573C251.587 375.597 251.169 375.607 250.761 375.607C250.679 375.608 250.595 375.609 250.512 375.61C250.399 375.397 250.051 375.395 250.051 375.395C245.48 375.429 245.161 370.965 246.791 368.547C248.985 365.293 252.225 361.316 256.803 359.62C262.683 357.44 264.559 358.945 269.626 360.825C272.01 364.685 276.571 366.165 276.571 370.912C276.683 375.51 270.014 375.361 265.533 375.421C265.049 375.242 264.539 375.107 264.027 375.006C262.393 373.859 261.559 371.586 259.356 372.377C258.567 373.548 254.796 375.216 252.005 375.573Z" fill="#C36556"/>
<path d="M260.785 369.48C260.775 369.592 260.757 369.697 260.733 369.794C260.456 368.327 260.456 366.91 260.713 365.319C261.003 363.528 262.362 362.059 262.579 360.489C263.581 363.039 261.537 367.806 260.785 369.48Z" fill="#B65E50"/>
<path d="M263.069 371.229C263.078 371.251 263.09 371.276 263.105 371.302C263.396 371.977 263.75 372.613 264.219 373.176C264.211 373.217 264.196 373.257 264.174 373.293C263.99 373.602 263.555 373.754 263.028 373.82C262.974 373.902 262.879 373.974 262.711 373.974C262.573 373.974 262.484 373.925 262.427 373.861C261.52 373.882 260.523 373.753 260.059 373.753C259.733 373.747 259.4 373.674 259.106 373.532H258.511C258.297 373.532 258.124 373.359 258.124 373.145C258.124 373.127 258.126 373.109 258.128 373.091C258.032 373.111 257.914 373.095 257.795 372.977C257.522 372.703 257.795 372.43 257.795 372.43L258.117 372.136C258.455 371.967 258.785 371.721 259.09 371.419C259.304 370.888 259.473 370.373 259.633 369.86C260.386 368.875 260.978 367.716 261.413 366.359C262.054 367.873 262.394 369.565 263.012 371.08C263.03 371.131 263.049 371.18 263.069 371.229ZM262.571 371.829C262.672 372.278 262.815 372.715 263.027 373.135C263.21 373.109 263.359 373.066 263.459 372.997C263.875 372.713 263.018 372.287 262.571 371.829Z" fill="#AD594C"/>
<path d="M233.43 353.082L233.466 353.027C233.55 352.919 233.732 352.781 233.981 352.627C236.153 351.95 237.969 351.34 238.854 351.228C242.923 350.71 253.889 348.621 257.492 348.621L257.819 348.552C260.398 351.106 265.197 348.602 269.127 347.605C271.516 347.728 290.173 351.966 291.917 352.627C292.257 353.027 291.917 356.013 289.019 357.638C287.661 358.4 269.441 361.172 260.496 360.776C250.994 360.355 237.99 360.007 234.724 357.638C233.43 356.7 230.651 354.152 230.605 353.027C230.605 353.027 233.094 353.149 233.43 353.082Z" fill="#F9F9F9"/>
<path d="M286.009 357.557L286.129 357.725C286.073 357.737 286.017 357.75 285.962 357.764C285.977 357.695 285.993 357.626 286.009 357.557Z" fill="#F9F9F9"/>
<path d="M279.153 358.231C279.157 358.259 279.159 358.29 279.154 358.322C279.154 358.282 279.154 358.258 279.154 358.258L279.062 358.259C279.092 358.156 279.119 358.055 279.144 357.956L279.153 358.231Z" fill="#F9F9F9"/>
<path d="M259.574 380.035C259.42 379.835 259.288 379.599 259.178 379.339C259.138 379.448 259.096 379.547 259.051 379.632C258.801 380.108 258.375 380.606 257.913 380.855C257.629 380.889 257.332 380.925 257.026 380.96C256.846 380.891 256.674 380.755 256.518 380.536L256.598 380.722C256.598 380.722 256.245 380.72 256.246 380.385C256.246 380.33 256.255 380.284 256.271 380.246C255.497 379.544 255.157 378.489 255.101 377.426C254.268 379.742 251.161 380.761 251.068 377.329C250.935 377.281 250.868 377.154 250.868 377.154C249.709 374.847 252.199 370.592 254.747 373.206C255.114 373.582 254.988 375.103 255.195 375.959C255.23 375.759 255.274 375.566 255.326 375.382C255.509 374.73 254.878 373.366 255.727 372.939C256.278 372.661 257.39 373.12 258.035 373.124C258.65 373.161 259.052 373.719 259.287 374.503C259.945 373.099 261.225 372.481 263.075 374.25C263.083 374.428 263.094 374.633 263.104 374.859C263.058 375.878 263.007 377.145 262.989 378.502C262.831 379.415 262.527 380.2 261.966 380.582C261.35 380.593 260.76 380.609 260.206 380.637C260.016 380.565 259.814 380.471 259.6 380.354L259.574 380.035Z" fill="#F9F9F9"/>
<path d="M244.047 373.818C244.927 372.374 243.533 371.494 247.598 371.585C250.514 371.651 255.687 371.33 260.783 371.882C276.485 371.462 278.379 371.555 279.345 374.051C279.028 374.408 245.247 377.436 244.864 377.685C243.82 376.453 242.915 375.045 242.022 373.773C243.494 373.049 242.899 372.753 244.047 373.818Z" fill="#F9F9F9"/>
<path d="M246.388 376.608L246.622 376.169C246.679 376.055 246.801 375.977 246.942 375.978C247.137 375.979 247.295 376.13 247.295 376.315C247.295 376.372 247.28 376.425 247.254 376.471L247.131 376.702C247.322 378.815 249.484 380.396 250.852 377.776L251.069 377.164C251.114 377.027 251.249 376.928 251.408 376.929C251.602 376.93 251.758 377.078 251.761 377.261L251.769 377.745C252.557 379.508 253.736 379.996 254.875 377.768L255.108 377.328C255.165 377.215 255.288 377.137 255.429 377.138C255.624 377.138 255.782 377.289 255.782 377.475L255.78 377.913C256.435 379.46 257.703 380.84 258.598 378.372L258.61 377.929C258.615 377.747 258.772 377.601 258.965 377.602C259.106 377.603 259.228 377.682 259.284 377.796L259.515 378.238C260.784 379.484 262.611 380.999 262.619 377.955L262.621 377.284C262.622 377.099 262.781 376.949 262.976 376.95C262.992 376.95 263.007 376.951 263.022 376.953C262.989 378.074 262.969 379.316 262.99 380.567C261.875 380.581 260.82 380.597 259.879 380.655C257.399 380.81 251.22 381.988 248.927 380.856C247.592 380.198 246.527 378.966 245.588 377.571C245.908 377.309 246.187 376.986 246.388 376.608Z" fill="#F9F9F9"/>
<path d="M263.256 379.954C263.1 379.755 262.967 379.521 262.856 379.261C262.816 379.371 262.774 379.469 262.73 379.555C262.702 379.608 262.672 379.662 262.641 379.716C262.907 378.11 263.059 375.909 262.998 374.288C263.665 372.977 264.918 372.446 266.719 374.144C266.8 375.749 267.116 379.561 265.601 380.517C265.028 380.535 264.458 380.546 263.899 380.554C263.707 380.483 263.502 380.39 263.284 380.273L263.256 379.954Z" fill="#F9F9F9"/>
<path d="M262.894 377.635C262.917 377.659 262.937 377.687 262.951 377.716L263.186 378.157C264.463 379.393 266.299 380.896 266.288 377.852L266.285 377.181C266.284 376.996 266.442 376.845 266.638 376.845C266.779 376.844 266.901 376.923 266.958 377.036L267.173 377.441C268.716 378.856 271.014 380.506 271.001 376.946L270.998 376.275C270.998 376.09 271.156 375.94 271.351 375.939C271.546 375.939 271.705 376.088 271.706 376.274L271.707 376.686C272.164 377.642 272.677 378.594 273.649 379.073C270.6 380.552 266.155 380.52 262.473 380.573C262.653 379.797 262.799 378.739 262.894 377.635Z" fill="#F9F9F9"/>
<path d="M277.21 375.48C277.221 375.479 277.233 375.478 277.246 375.478C277.603 375.478 277.604 375.816 277.604 375.816L277.567 375.891C277.596 375.948 277.623 376.005 277.649 376.061C277.615 376.093 277.58 376.126 277.546 376.158C277.474 375.916 277.361 375.686 277.21 375.48Z" fill="#F9F9F9"/>
<path d="M271.836 379.741C271.714 379.741 271.633 379.701 271.581 379.648C271.525 379.599 271.482 379.523 271.481 379.406C271.481 379.4 271.481 379.394 271.482 379.388C271.485 378.978 271.32 378.423 271.159 377.831C271.068 378.149 270.904 378.445 270.655 378.705C270.684 378.732 270.711 378.766 270.734 378.81C270.894 379.11 270.578 379.261 270.578 379.261C265.469 381.7 267.245 374.741 267.614 372.643C268.927 372.999 270.291 374.31 270.908 375.712C270.969 375.412 271.1 375.141 271.332 374.919C271.995 374.286 276.35 373.939 277.018 374.235C277.141 374.453 277.251 374.664 277.348 374.865C278.093 374.01 278.87 373.936 279.541 374.282C277.656 375.946 275.98 377.919 273.717 379.04C273.142 379.325 272.517 379.555 271.856 379.741L271.836 379.741Z" fill="#F9F9F9"/>
<path d="M285.532 356.677L285.64 356.83C285.59 356.841 285.539 356.853 285.489 356.865C285.503 356.803 285.517 356.74 285.532 356.677Z" fill="#F9F9F9"/>
<path d="M278.678 357.339C278.682 357.366 278.684 357.395 278.679 357.426C278.679 357.388 278.679 357.365 278.679 357.365L278.592 357.365C278.619 357.268 278.645 357.171 278.67 357.076L278.678 357.339Z" fill="#F9F9F9"/>
<path opacity="0.02" fill-rule="evenodd" clip-rule="evenodd" d="M262.34 330.455C263.073 330.345 263.631 330.624 264.013 331.291C263.662 332.819 263.662 334.491 264.013 336.31C259.238 335.42 258.68 333.468 262.34 330.455Z" fill="#222222"/>
<path opacity="0.01" fill-rule="evenodd" clip-rule="evenodd" d="M257.322 334.637C258.859 334.753 259.137 335.311 258.158 336.31C257.491 335.927 257.212 335.369 257.322 334.637Z" fill="black"/>
<path opacity="0.01" fill-rule="evenodd" clip-rule="evenodd" d="M295.796 342.164C297.198 342.735 297.756 343.851 297.469 345.51C296.633 345.51 295.796 345.51 294.96 345.51C294.904 344.289 295.182 343.174 295.796 342.164Z" fill="#0A0A0A"/>
<path opacity="0.01" fill-rule="evenodd" clip-rule="evenodd" d="M301.65 344.673C301.919 345.968 302.755 346.526 304.159 346.346C303.881 346.904 303.602 347.461 303.323 348.019C302.208 348.297 302.208 348.577 303.323 348.855C303.29 349.761 303.011 350.597 302.487 351.364C303.417 352.004 303.974 352.841 304.159 353.874C301.661 353.499 300.825 352.244 301.65 350.11C301.211 349.531 300.653 349.113 299.978 348.855C299.121 349.987 298.006 350.545 296.632 350.528C296.413 349.292 296.691 348.177 297.468 347.182C297.958 347.357 298.377 347.637 298.723 348.019C299.586 346.742 300.562 345.627 301.65 344.673Z" fill="#050505"/>
<path opacity="0.01" fill-rule="evenodd" clip-rule="evenodd" d="M268.195 372.274C266.793 372.846 266.235 373.961 266.522 375.62C265.395 376.181 264.419 376.181 263.594 375.62C263.334 373.9 262.916 372.227 262.34 370.602C262.597 369.926 263.016 369.368 263.594 368.929C264.431 370.044 265.267 370.044 266.104 368.929C267.019 369.926 267.716 371.042 268.195 372.274Z" fill="black"/>
<path opacity="0.01" fill-rule="evenodd" clip-rule="evenodd" d="M259.831 370.602C260.946 371.159 260.946 371.159 259.831 370.602V370.602Z" fill="black"/>
<path opacity="0.01" fill-rule="evenodd" clip-rule="evenodd" d="M260.667 383.147C258.647 383.75 256.974 384.865 255.649 386.493C253.431 384.485 253.709 382.812 256.485 381.475C257.393 381.374 257.951 380.816 258.158 379.802C258.122 379.036 257.843 378.478 257.322 378.129C258.025 376.558 258.304 374.885 258.158 373.111C259.264 373.253 260.24 372.974 261.085 372.274C261.813 372.783 262.231 373.48 262.34 374.365C261.68 375.725 260.844 376.98 259.831 378.129C260.035 379.844 260.313 381.516 260.667 383.147Z" fill="#121212"/>
<path opacity="0.01" fill-rule="evenodd" clip-rule="evenodd" d="M257.322 378.129C257.378 379.349 257.1 380.464 256.486 381.474C255.649 381.474 254.813 381.474 253.977 381.474C253.967 379.265 255.081 378.15 257.322 378.129Z" fill="black"/>
<path opacity="0.01" d="M268.195 372.274C268.739 372.529 269.297 372.807 269.868 373.111C270.809 376.473 271.784 379.819 272.795 383.147C273.673 382.297 274.649 382.157 275.723 382.729C276.132 384.577 276.968 386.11 278.232 387.329C278.419 389.242 278.977 391.054 279.905 392.766C279.752 394.175 279.194 394.313 278.232 393.184C278.379 393.681 278.491 394.13 278.57 394.531C277.094 394.763 275.596 394.952 274.08 395.099C273.412 394.545 272.845 393.907 272.377 393.184C272.991 392.174 273.27 391.059 273.213 389.839C272.935 389.839 272.656 389.839 272.377 389.839C272.091 389.138 271.534 388.858 270.704 389.002C270.322 387.123 269.486 385.45 268.195 383.984C268.474 383.426 268.753 382.869 269.031 382.311C267.861 380.191 267.024 377.96 266.522 375.62C266.235 373.961 266.793 372.846 268.195 372.274ZM274.886 388.584C273.786 388.142 273.228 388.561 273.213 389.839C273.873 389.602 274.431 389.184 274.886 388.584ZM276.559 391.929C277.014 392.529 277.572 392.947 278.232 393.184C278.218 391.906 277.66 391.488 276.559 391.929Z" fill="#1B1B1B"/>
<path opacity="0.01" fill-rule="evenodd" clip-rule="evenodd" d="M265.685 383.147C264.703 382.964 263.866 383.243 263.176 383.984C264.291 385.098 264.291 386.214 263.176 387.329C263.558 387.997 264.116 388.275 264.849 388.166C262.718 390.351 260.766 390.211 258.994 387.747C259.64 386.726 260.476 385.89 261.503 385.238C260.874 384.677 260.595 383.98 260.667 383.147C262.432 382.108 264.105 382.108 265.685 383.147Z" fill="#030303"/>
<path opacity="0.01" fill-rule="evenodd" clip-rule="evenodd" d="M279.068 387.329C278.789 387.329 278.51 387.329 278.231 387.329C278.51 385.099 278.789 385.099 279.068 387.329Z" fill="black"/>
<path opacity="0.01" fill-rule="evenodd" clip-rule="evenodd" d="M279.068 387.329C280.051 387.146 280.888 387.425 281.578 388.166C280.28 389.251 279.443 388.973 279.068 387.329Z" fill="black"/>
<path opacity="0.01" fill-rule="evenodd" clip-rule="evenodd" d="M265.686 391.511C266.279 392.267 267.115 392.546 268.195 392.348C268.195 393.184 268.195 394.02 268.195 394.857C267.174 394.415 266.199 393.857 265.268 393.184C264.689 392.4 264.829 391.843 265.686 391.511Z" fill="black"/>
<path opacity="0.012" d="M270.703 389.002C271.533 388.858 272.09 389.137 272.376 389.838C271.384 391.06 271.384 392.176 272.376 393.184C272.844 393.907 273.411 394.545 274.079 395.098C272.145 395.285 270.181 395.403 268.194 395.455C268.194 395.256 268.194 395.056 268.194 394.857C268.194 394.02 268.194 393.184 268.194 392.348C267.114 392.546 266.278 392.267 265.685 391.511C266.901 390.037 266.622 388.921 264.849 388.166C264.116 388.275 263.558 387.997 263.176 387.329C264.291 386.214 264.291 385.099 263.176 383.984C263.866 383.243 264.702 382.964 265.685 383.147C267.082 385.377 268.754 387.328 270.703 389.002Z" fill="#3D3D3D"/>
<path d="M252.593 379.318C252.528 379.33 252.447 379.336 252.364 379.32C252.441 379.319 252.517 379.319 252.593 379.318Z" fill="#9B6F5D"/>
<path d="M251.899 379.322C251.845 379.33 251.783 379.333 251.719 379.323C251.779 379.323 251.839 379.323 251.899 379.322Z" fill="#9B6F5D"/>
<path d="M237.531 349.653C237.313 349.759 237.095 349.861 236.876 349.958C237.094 349.854 237.312 349.751 237.531 349.653Z" fill="#9B6F5D"/>
<path d="M252.027 389.967L252.086 389.947C252.106 389.957 252.127 389.967 252.146 389.976C252.717 390.023 253.273 390.104 253.819 390.206C254.672 390.066 255.452 389.63 256.437 389.663C256.709 389.529 257.019 389.405 257.361 389.293C259.868 389.208 262.367 389.08 264.934 389.08C266.249 389.08 267.555 389.42 268.856 389.575C268.858 389.576 268.861 389.577 268.863 389.579L268.865 389.576C269.026 389.595 269.186 389.611 269.347 389.623L269.508 389.702C269.703 389.794 269.838 389.989 269.838 390.216C269.838 390.443 269.703 390.638 269.508 390.73L269.069 390.946C267.92 393.09 263.61 392.772 261.473 392.772C260.749 392.772 260.051 392.706 259.369 392.599C256.645 392.663 253.792 392.533 251.761 391.165L251.696 391.292L251.243 391.069C251.192 391.068 251.14 391.068 251.089 391.068C251.089 391.068 250.512 391.068 250.512 390.5C250.512 389.932 251.089 389.932 251.089 389.932C251.168 389.932 251.247 389.933 251.325 389.934C251.342 389.933 251.36 389.932 251.377 389.932H251.954V389.962C251.979 389.963 252.003 389.965 252.027 389.967Z" fill="#D1997B"/>
<path d="M249.903 389.676C250.164 389.676 250.426 389.676 250.688 389.676C255.613 387.749 262.722 388.785 267.902 388.833C268.547 389.045 269.241 389.117 269.921 389.117L270.018 389.19L270.034 389.144L270.883 389.423C271.03 389.468 271.158 389.557 271.248 389.676C270.959 389.676 270.671 389.676 270.383 389.676C263.337 389.677 256.268 389.921 249.201 389.956L249.903 389.676Z" fill="#7F5D4B"/>
<path d="M260.962 347.612C261.022 347.366 261.083 347.12 261.143 346.874C261.247 346.916 261.354 346.948 261.466 346.969C262.461 347.15 263.304 346.757 264.234 346.698L264.667 346.427C266.042 346.473 266.843 345.817 268.061 345.413C269.784 344.633 273.73 342.445 275.697 343.305C277.248 343.983 280.24 345.215 281.827 345.968C284.92 347.438 299.535 350.139 299.6 350.567C296.645 350.475 284.66 347.496 281.991 347.496C280.791 346.882 279.554 346.459 278.311 345.951C277.281 345.408 276.328 344.854 275.272 344.279C273.984 343.577 269.71 345.767 268.527 346.366C268.496 346.379 268.464 346.391 268.432 346.404C267.829 346.588 267.307 346.819 266.779 347.021C266.478 347.125 266.175 347.224 265.869 347.317C265.563 347.395 265.241 347.451 264.888 347.473C264.858 347.531 264.817 347.577 264.773 347.614C264.572 347.661 264.369 347.705 264.163 347.746C263.692 347.763 263.23 347.872 262.756 347.956C262.427 347.989 262.09 348.012 261.743 348.023C261.475 347.909 261.216 347.769 260.962 347.612Z" fill="#994F43"/>
<path d="M300.914 350.938C297.669 351.263 284.24 353.253 281.186 352.867C276.242 352.242 273.95 354.546 263.359 354.146C261.441 354.074 260.327 354.271 258.87 354.19C248.077 353.588 248.29 352.595 244.36 353.614C238.706 355.08 226.394 351.121 223.308 351.216C222.559 351.24 235.678 349.44 237.26 348.682C242.052 347.972 245.659 344.583 250.443 344.11C254.554 343.703 257.641 347.519 261.723 347.519C265.611 347.519 271.053 343.806 274.591 343.914C277.699 344.008 280.327 346.336 282.711 346.941C290.546 349.295 300.914 350.938 300.914 350.938Z" fill="#CD6B5B"/>
<path d="M261.876 348.023C261.551 348.012 261.235 347.989 260.926 347.955C260.482 347.872 260.048 347.763 259.606 347.746C259.413 347.705 259.222 347.661 259.034 347.614C258.992 347.577 258.954 347.531 258.926 347.473C258.595 347.451 258.293 347.395 258.006 347.317C257.718 347.224 257.434 347.125 257.152 347.021C256.656 346.819 256.166 346.588 255.601 346.404C255.571 346.391 255.541 346.378 255.511 346.366C254.402 345.767 250.392 343.577 249.183 344.279C248.192 344.854 247.299 345.408 246.332 345.951C239.007 349.973 225.835 350.772 223.783 351.401C224.27 351.162 237.741 348.984 238.147 348.702C240.348 347.902 242.533 346.733 244.587 345.692C246.076 344.939 247.329 343.983 248.785 343.305C250.63 342.445 254.333 344.633 255.949 345.413C257.092 345.817 257.844 346.473 259.133 346.428L259.539 346.698C260.412 346.757 261.203 347.15 262.136 346.969C262.241 346.948 262.342 346.916 262.44 346.874C262.496 347.12 262.553 347.366 262.609 347.612C262.371 347.769 262.128 347.909 261.876 348.023Z" fill="#994F43"/>
<path d="M280.284 353.82C279.093 353.754 274.715 353.413 272.749 354.064C271.856 354.051 271.045 354.679 270.183 354.848C267.347 355.402 264.111 355.389 261.215 355.389C258.018 355.389 254.54 355.349 251.514 354.608C251.448 354.592 245.237 354.163 244.3 354.369C238.468 355.646 234.956 354.186 232.321 354.053C232.128 353.394 224.5 351.837 224.401 351.097C224.556 351.078 236.038 354.281 240.232 352.925C244.849 352.304 247.182 352.033 247.994 351.874C248.757 351.95 251.67 353.147 252.226 353.294C255.152 354.071 258.59 354.047 261.688 354.047C264.483 354.047 267.223 354.396 269.944 353.822C269.964 353.817 269.984 353.813 270.005 353.808C270.111 353.808 270.217 353.807 270.324 353.807C273.384 353.74 280.1 351.172 280.1 351.172C280.586 351.345 282.589 351.833 283.071 352.05C283.335 352.203 300.031 350.683 300.333 350.857C300.39 350.89 289.7 352.66 289.565 352.66L280.284 353.82Z" fill="#994F43"/>
<path d="M285.283 373.435C286.116 375.786 278.237 377.308 269.583 377.335C256.5 377.306 240.237 377.758 241.27 375.572C239.57 374.105 236.426 370.548 234.953 368.724C228.381 360.59 225.801 352.142 225.801 352.142C226.237 352.552 233.972 363.716 234.418 364.089C235.338 364.856 237.881 368.521 239.862 369.344C243.276 370.761 245.363 373.141 247.054 373.84C252.669 376.16 254.871 374.275 260.793 374.065C264.033 373.95 270.59 374.517 273.784 374.511C276.47 374.521 276.33 373.831 280.006 372.682C282.671 371.85 285.143 367.929 288.209 364.838C293.333 359.669 294.68 351.125 294.68 351.125C294.68 351.125 296.572 349.615 297.405 351.965C297.405 351.965 293.14 362.626 291.022 366.377C290.024 368.145 285.283 373.435 285.283 373.435Z" fill="#994F43"/>
<path d="M297.292 350.689C297.292 355.103 287.629 372.204 281.534 379.175C278.229 381.717 278.49 382.373 275.246 384.228C272.263 385.934 263.622 384.391 260.711 384.391C258.053 384.391 252.845 386.281 249.99 385.33C245.171 383.725 242.973 378.695 239.49 375.07C235.363 370.777 227.286 356.703 225.362 351.84C225.082 351.134 227.36 352.896 227.36 352.421C227.36 350.954 241.289 375.928 247.525 375.577C252.116 375.904 256.04 375.093 260.254 375.093C265.729 375.093 272.057 375.629 275.897 376.286C288.773 372.812 295.929 349.764 295.929 351.479L297.292 350.689Z" fill="#D97E67"/>
<path d="M264.817 385.835C261.363 385.715 258.011 386.495 254.617 386.613C251.543 386.613 247.001 386.762 245.147 382.117C246.211 383.014 247.194 384.137 248.389 384.389C250.339 385.55 252.495 385.058 254.617 385.058C256.177 385.145 258.322 384.49 259.848 383.913C261.46 383.303 263.287 384.366 264.817 384.281C264.965 384.281 265.112 384.282 265.256 384.284C267.602 385.152 270.118 385.058 272.588 385.058C273.077 385.041 273.535 384.929 273.969 384.742C270.913 386.704 268.218 385.835 264.817 385.835Z" fill="#994F43"/>
<path d="M259.937 358.072C259.909 358.018 259.893 357.957 259.893 357.892L259.893 357.886C259.951 358.013 259.999 358.141 260.036 358.27L259.937 358.072Z" fill="#C36556"/>
</svg>