<svg xmlns="http://www.w3.org/2000/svg" fill="none" viewBox="204.06 328.8 113.89 70.92">
<path d="M218.063 339.79C239.565 329.836 260.203 329.508 276.277 328.86C292.799 328.193 318.75 332.783 317.935 354.324C318.494 413.373 226.341 405.947 210.078 381.76C204.894 374.05 196.56 349.743 218.063 339.79Z" fill="#E1A585"/>
<path opacity="0.02" fill-rule="evenodd" clip-rule="evenodd" d="M262.469 332.423C263.199 332.313 263.755 332.591 264.137 333.257C263.786 334.779 263.786 336.447 264.137 338.26C259.376 337.373 258.82 335.427 262.469 332.423Z" fill="#222222"/>
<path opacity="0.01" fill-rule="evenodd" clip-rule="evenodd" d="M257.458 336.604C259.005 336.721 259.286 337.282 258.3 338.288C257.628 337.903 257.348 337.341 257.458 336.604Z" fill="black"/>
<path opacity="0.01" fill-rule="evenodd" clip-rule="evenodd" d="M295.917 344.129C297.311 344.698 297.866 345.807 297.581 347.457C296.749 347.457 295.917 347.457 295.085 347.457C295.029 346.243 295.306 345.134 295.917 344.129Z" fill="#0A0A0A"/>
<path opacity="0.01" fill-rule="evenodd" clip-rule="evenodd" d="M301.775 346.638C302.043 347.932 302.88 348.49 304.283 348.31C304.005 348.868 303.726 349.425 303.447 349.982C302.333 350.261 302.333 350.54 303.447 350.819C303.415 351.724 303.135 352.56 302.611 353.327C303.541 353.967 304.099 354.803 304.283 355.836C301.786 355.461 300.95 354.207 301.775 352.073C301.336 351.494 300.778 351.076 300.103 350.819C299.246 351.95 298.132 352.508 296.758 352.491C296.539 351.255 296.817 350.14 297.594 349.146C298.084 349.321 298.502 349.6 298.848 349.982C299.711 348.705 300.687 347.591 301.775 346.638Z" fill="#050505"/>
<path opacity="0.01" fill-rule="evenodd" clip-rule="evenodd" d="M268.312 374.223C266.914 374.792 266.358 375.905 266.644 377.558C265.521 378.118 264.548 378.118 263.726 377.558C263.466 375.844 263.049 374.176 262.475 372.555C262.731 371.881 263.148 371.325 263.726 370.887C264.559 371.999 265.393 371.999 266.227 370.887C267.14 371.882 267.835 372.995 268.312 374.223Z" fill="black"/>
<path opacity="0.01" fill-rule="evenodd" clip-rule="evenodd" d="M259.966 372.559C261.09 373.122 261.09 373.122 259.966 372.559V372.559Z" fill="black"/>
<path opacity="0.01" fill-rule="evenodd" clip-rule="evenodd" d="M260.802 385.102C258.783 385.705 257.111 386.82 255.785 388.447C253.568 386.439 253.846 384.767 256.621 383.43C257.529 383.33 258.087 382.772 258.294 381.758C258.258 380.992 257.979 380.434 257.457 380.085C258.161 378.514 258.44 376.842 258.294 375.068C259.399 375.21 260.375 374.932 261.22 374.232C261.948 374.74 262.366 375.437 262.475 376.322C261.815 377.682 260.979 378.936 259.966 380.085C260.17 381.799 260.449 383.472 260.802 385.102Z" fill="#121212"/>
<path opacity="0.01" fill-rule="evenodd" clip-rule="evenodd" d="M257.44 380.085C257.495 381.299 257.218 382.407 256.608 383.412C255.776 383.412 254.944 383.412 254.112 383.412C254.102 381.215 255.211 380.106 257.44 380.085Z" fill="black"/>
<path opacity="0.01" d="M268.328 374.232C268.871 374.486 269.429 374.765 270 375.068C270.941 378.429 271.916 381.774 272.927 385.102C273.804 384.252 274.78 384.112 275.853 384.684C276.262 386.531 277.098 388.064 278.362 389.283C278.549 391.195 279.107 393.007 280.034 394.718C279.881 396.126 279.323 396.265 278.362 395.136C278.508 395.633 278.621 396.082 278.699 396.483C277.224 396.715 275.727 396.904 274.211 397.05C273.543 396.497 272.976 395.859 272.508 395.136C273.122 394.126 273.401 393.012 273.345 391.792C273.066 391.792 272.787 391.792 272.508 391.792C272.222 391.091 271.665 390.812 270.836 390.956C270.454 389.077 269.618 387.404 268.327 385.938C268.606 385.381 268.885 384.824 269.164 384.266C267.993 382.146 267.157 379.916 266.655 377.577C266.368 375.919 266.926 374.803 268.328 374.232ZM275.017 390.537C273.917 390.096 273.359 390.514 273.345 391.792C274.004 391.555 274.562 391.137 275.017 390.537ZM276.689 393.882C277.144 394.481 277.702 394.9 278.362 395.136C278.347 393.859 277.79 393.44 276.689 393.882Z" fill="#1B1B1B"/>
<path opacity="0.01" fill-rule="evenodd" clip-rule="evenodd" d="M265.819 385.102C264.837 384.919 264.001 385.197 263.311 385.938C264.425 387.053 264.425 388.168 263.311 389.283C263.693 389.95 264.251 390.229 264.983 390.119C262.853 392.304 260.901 392.164 259.13 389.701C259.775 388.68 260.612 387.844 261.638 387.193C261.01 386.631 260.73 385.935 260.802 385.102C262.567 384.064 264.24 384.064 265.819 385.102Z" fill="#030303"/>
<path opacity="0.01" fill-rule="evenodd" clip-rule="evenodd" d="M279.203 389.295C278.923 389.295 278.642 389.295 278.361 389.295C278.642 387.049 278.923 387.049 279.203 389.295Z" fill="black"/>
<path opacity="0.01" fill-rule="evenodd" clip-rule="evenodd" d="M279.198 389.283C280.185 389.099 281.025 389.379 281.718 390.123C280.415 391.214 279.575 390.934 279.198 389.283Z" fill="black"/>
<path opacity="0.01" fill-rule="evenodd" clip-rule="evenodd" d="M265.816 393.463C266.405 394.215 267.237 394.492 268.311 394.295C268.311 395.127 268.311 395.959 268.311 396.791C267.295 396.351 266.325 395.797 265.4 395.127C264.824 394.348 264.963 393.794 265.816 393.463Z" fill="black"/>
<path opacity="0.012" d="M270.836 390.956C271.666 390.812 272.222 391.091 272.509 391.792C271.517 393.013 271.517 394.129 272.509 395.136C272.976 395.859 273.544 396.497 274.211 397.05C272.278 397.237 270.314 397.355 268.328 397.407C268.328 397.208 268.328 397.008 268.328 396.809C268.328 395.973 268.328 395.136 268.328 394.3C267.248 394.498 266.412 394.22 265.819 393.464C267.035 391.99 266.756 390.874 264.983 390.119C264.25 390.229 263.693 389.951 263.311 389.283C264.425 388.169 264.425 387.053 263.311 385.938C264 385.198 264.837 384.919 265.819 385.102C267.215 387.332 268.888 389.282 270.836 390.956Z" fill="#3D3D3D"/>
<path d="M251.686 380.247L251.745 380.227C251.765 380.237 251.785 380.247 251.805 380.256C252.376 380.303 252.932 380.384 253.478 380.486C254.33 380.346 255.109 379.91 256.094 379.943C256.366 379.809 256.677 379.686 257.019 379.573C259.524 379.489 262.023 379.36 264.59 379.36C265.904 379.36 267.21 379.7 268.51 379.855C268.513 379.856 268.515 379.858 268.518 379.859L268.519 379.856C268.68 379.875 268.841 379.891 269.001 379.904L269.162 379.983C269.357 380.074 269.492 380.269 269.492 380.496C269.492 380.723 269.357 380.918 269.162 381.009L268.723 381.225C267.575 383.369 263.266 383.051 261.129 383.051C260.406 383.051 259.708 382.985 259.026 382.878C256.303 382.942 253.45 382.813 251.42 381.444L251.355 381.572L250.902 381.349C250.851 381.348 250.799 381.348 250.748 381.348C250.748 381.348 250.171 381.348 250.171 380.78C250.171 380.212 250.748 380.212 250.748 380.212C250.827 380.212 250.906 380.213 250.984 380.214C251.001 380.213 251.019 380.212 251.036 380.212H251.613V380.242C251.637 380.243 251.662 380.245 251.686 380.247Z" fill="#D1997B"/>
<path d="M249.561 379.956C249.822 379.956 250.084 379.956 250.346 379.956C255.269 378.03 262.377 379.065 267.555 379.114C268.2 379.325 268.894 379.398 269.574 379.398L269.671 379.471L269.687 379.425L270.536 379.704C270.683 379.748 270.81 379.838 270.901 379.956C270.612 379.956 270.324 379.956 270.035 379.956C262.991 379.957 255.924 380.202 248.859 380.236L249.561 379.956Z" fill="#7F5D4B"/>
<path d="M252.741 381.273C252.673 381.287 252.589 381.293 252.502 381.275C252.582 381.275 252.662 381.274 252.741 381.273Z" fill="#9B6F5D"/>
<path d="M252.022 381.278C251.973 381.286 251.915 381.288 251.856 381.279C251.912 381.279 251.967 381.279 252.022 381.278Z" fill="#9B6F5D"/>
<path d="M237.689 351.616C237.466 351.724 237.242 351.829 237.018 351.929C237.241 351.822 237.465 351.717 237.689 351.616Z" fill="#9B6F5D"/>
<path d="M261.097 350.349C261.156 350.103 261.218 349.858 261.277 349.612C261.381 349.654 261.489 349.686 261.601 349.707C262.595 349.888 263.438 349.495 264.368 349.436L264.801 349.165C266.175 349.211 266.976 348.555 268.194 348.152C269.916 347.372 273.861 345.184 275.828 346.043C277.379 346.721 278.714 347.677 280.3 348.431C283.393 349.9 290.951 352.327 291.016 352.755C288.062 352.663 284.788 350.234 282.121 350.234C280.921 349.62 279.684 349.197 278.441 348.689C277.411 348.146 276.459 347.592 275.403 347.017C274.115 346.316 269.842 348.505 268.66 349.104C268.628 349.116 268.596 349.129 268.564 349.141C267.962 349.326 267.441 349.557 266.912 349.758C266.611 349.863 266.308 349.962 266.002 350.055C265.696 350.132 265.374 350.188 265.022 350.21C264.992 350.269 264.951 350.315 264.906 350.351C264.706 350.399 264.503 350.443 264.297 350.483C263.826 350.5 263.364 350.61 262.89 350.693C262.561 350.726 262.225 350.749 261.878 350.761C261.61 350.647 261.351 350.507 261.097 350.349Z" fill="#994F43"/>
<path d="M297.607 355.296C297.607 357.333 279.621 356.877 263.487 356.877C247.353 356.877 228.178 357.484 228.178 355.447C228.178 354.524 231.945 354.41 237.615 352.298C241.301 350.925 245.791 347.317 250.574 346.843C254.685 346.437 257.771 350.252 261.852 350.252C265.739 350.252 271.179 346.54 274.716 346.647C277.823 346.742 280.893 349.732 283.277 350.337C285.584 350.922 288.47 352.06 290.805 352.748C294.708 353.896 297.607 354.598 297.607 355.296Z" fill="#CD6B5B"/>
<path d="M297.414 355.452C297.414 358.443 290.318 363.15 282.309 367.048C278.769 368.771 279.64 369.216 276.165 370.474C272.969 371.63 263.711 370.584 260.594 370.584C257.746 370.584 252.167 371.865 249.108 371.221C243.945 370.132 240.704 366.171 236.971 363.714C231.909 360.38 227.192 358.297 227.192 355.753C227.192 354.759 228.16 355.976 229.34 355.877C232.633 355.601 239.601 356.319 247.352 356.668C252.27 356.89 258.309 357.334 262.824 357.334C268.69 357.334 276.891 354.669 281.005 355.115C284.745 355.519 291.777 356.167 295.379 356.031C297.392 355.956 297.414 354.289 297.414 355.452Z" fill="#D97E67"/>
<path d="M264.991 371.563C261.291 371.481 257.7 372.01 254.064 372.09C250.771 372.09 245.904 372.191 243.919 369.042C245.058 369.65 246.111 370.412 247.391 370.582C249.481 371.369 251.791 371.036 254.064 371.036C255.736 371.095 258.033 370.651 259.668 370.26C261.395 369.846 263.352 370.567 264.991 370.509C265.15 370.509 265.307 370.51 265.462 370.511C267.975 371.1 270.67 371.036 273.317 371.036C273.84 371.024 274.331 370.949 274.796 370.822C271.522 372.152 268.634 371.563 264.991 371.563Z" fill="#994F43"/>
<path d="M262.007 350.761C261.682 350.749 261.366 350.726 261.057 350.693C260.613 350.61 260.179 350.5 259.737 350.483C259.544 350.443 259.354 350.399 259.166 350.351C259.124 350.315 259.086 350.269 259.057 350.21C258.727 350.188 258.424 350.132 258.138 350.055C257.85 349.962 257.566 349.863 257.284 349.758C256.788 349.557 256.299 349.326 255.733 349.141C255.703 349.129 255.673 349.116 255.643 349.104C254.534 348.505 250.526 346.316 249.317 347.017C248.326 347.592 247.433 348.146 246.467 348.689C239.143 352.71 232.566 353.697 230.515 354.326C231.002 354.087 237.878 351.721 238.283 351.439C240.484 350.639 242.669 349.471 244.722 348.431C246.211 347.677 247.463 346.721 248.919 346.043C250.764 345.184 254.465 347.371 256.081 348.151C257.224 348.555 257.975 349.211 259.265 349.165L259.671 349.436C260.543 349.495 261.334 349.888 262.267 349.707C262.372 349.686 262.473 349.654 262.57 349.612C262.626 349.858 262.684 350.103 262.74 350.349C262.502 350.507 262.258 350.647 262.007 350.761Z" fill="#994F43"/>
<path d="M283.724 356.28C282.534 356.214 274.845 356.15 272.88 356.8C271.987 356.787 271.176 357.415 270.314 357.584C267.479 358.138 264.244 358.125 261.349 358.125C258.153 358.125 254.675 358.085 251.65 357.344C250.662 357.102 231.114 356.232 228.449 356.232C228.449 356.232 227.55 356.424 227.55 355.897C227.55 355.562 228.138 355.248 228.292 355.204C231.104 355.389 242.699 355.258 245.077 354.685C245.618 354.555 246.546 354.512 247.358 354.353C248.12 354.429 251.806 355.883 252.362 356.031C255.287 356.807 258.724 356.783 261.822 356.783C264.615 356.783 267.355 357.132 270.075 356.558C270.095 356.553 270.116 356.549 270.136 356.544C270.242 356.544 270.349 356.544 270.455 356.544C273.515 356.476 280.229 353.909 280.229 353.909C280.715 354.082 282.717 354.57 283.199 354.787C283.463 354.94 287 355.158 290.503 355.28C294.37 355.414 298.238 355.453 298.54 355.627C298.597 355.659 288.537 356.743 288.604 356.769C288.111 356.763 284.213 356.28 283.724 356.28Z" fill="#994F43"/>
<path d="M282.093 366.951L281.792 367.712C280.21 368.502 278.381 370.11 276.801 370.435C278.625 369.438 280.118 367.782 281.821 366.466C282.093 366.608 282.093 366.951 282.093 366.951Z" fill="#C95F60"/>
<path d="M299.585 355.68L299.038 355.953C298.623 356.15 298.159 356.274 297.699 356.284C294.989 356.284 292.251 356.184 289.534 356.104C290.088 356.054 290.586 356.008 290.948 356.004C292.575 355.462 294.254 356.042 295.91 355.723C297.192 355.475 298.527 355.268 299.851 354.992C300.044 355.45 299.585 355.68 299.585 355.68Z" fill="#9D4A4B"/>
</svg>