<svg xmlns="http://www.w3.org/2000/svg" fill="none" viewBox="205.05 327.49 113.92 70.94">
<path d="M219.053 338.487C240.561 328.531 261.204 328.203 277.282 327.554C293.808 326.887 319.765 331.479 318.95 353.025C319.51 412.09 227.333 404.661 211.066 380.468C205.881 372.756 197.545 348.443 219.053 338.487Z" fill="#E1A585"/>
<path opacity="0.02" fill-rule="evenodd" clip-rule="evenodd" d="M263.476 331.118C264.208 331.009 264.766 331.287 265.149 331.955C264.797 333.482 264.797 335.155 265.149 336.973C260.374 336.083 259.816 334.132 263.476 331.118Z" fill="#222222"/>
<path opacity="0.01" fill-rule="evenodd" clip-rule="evenodd" d="M258.458 335.3C259.994 335.417 260.273 335.974 259.294 336.973C258.627 336.591 258.348 336.033 258.458 335.3Z" fill="black"/>
<path opacity="0.01" fill-rule="evenodd" clip-rule="evenodd" d="M296.931 342.828C298.333 343.399 298.891 344.515 298.604 346.174C297.768 346.174 296.931 346.174 296.095 346.174C296.039 344.953 296.317 343.838 296.931 342.828Z" fill="#0A0A0A"/>
<path opacity="0.01" fill-rule="evenodd" clip-rule="evenodd" d="M302.474 345.341C302.742 346.636 303.578 347.194 304.983 347.014C304.704 347.572 304.425 348.129 304.146 348.687C303.031 348.965 303.031 349.245 304.146 349.523C304.114 350.429 303.834 351.265 303.31 352.032C304.24 352.672 304.798 353.509 304.983 354.542C302.484 354.167 301.648 352.912 302.474 350.778C302.034 350.199 301.477 349.781 300.801 349.523C299.944 350.655 298.829 351.213 297.455 351.196C297.236 349.96 297.515 348.845 298.292 347.85C298.782 348.025 299.2 348.305 299.546 348.687C300.409 347.41 301.385 346.295 302.474 345.341Z" fill="#050505"/>
<path opacity="0.01" fill-rule="evenodd" clip-rule="evenodd" d="M269.33 372.938C267.929 373.51 267.371 374.625 267.658 376.284C266.531 376.845 265.555 376.845 264.73 376.284C264.47 374.564 264.052 372.891 263.476 371.266C263.733 370.59 264.151 370.032 264.73 369.593C265.567 370.708 266.403 370.708 267.239 369.593C268.155 370.591 268.852 371.706 269.33 372.938Z" fill="black"/>
<path opacity="0.01" fill-rule="evenodd" clip-rule="evenodd" d="M260.967 371.265C262.082 371.823 262.082 371.823 260.967 371.265V371.265Z" fill="black"/>
<path opacity="0.01" fill-rule="evenodd" clip-rule="evenodd" d="M261.803 383.811C259.783 384.414 258.11 385.529 256.785 387.157C254.566 385.148 254.845 383.476 257.621 382.138C258.529 382.038 259.087 381.48 259.294 380.465C259.258 379.699 258.979 379.142 258.457 378.793C259.161 377.221 259.44 375.548 259.294 373.774C260.399 373.917 261.376 373.638 262.221 372.938C262.949 373.447 263.367 374.143 263.476 375.029C262.816 376.389 261.979 377.643 260.967 378.793C261.171 380.507 261.449 382.18 261.803 383.811Z" fill="#121212"/>
<path opacity="0.01" fill-rule="evenodd" clip-rule="evenodd" d="M258.458 378.793C258.514 380.013 258.235 381.128 257.621 382.138C256.785 382.138 255.949 382.138 255.112 382.138C255.102 379.929 256.217 378.814 258.458 378.793Z" fill="black"/>
<path opacity="0.01" d="M269.331 372.938C269.875 373.192 270.432 373.471 271.004 373.774C271.945 377.137 272.92 380.482 273.931 383.811C274.808 382.96 275.785 382.821 276.858 383.393C277.267 385.24 278.104 386.773 279.368 387.993C279.555 389.906 280.113 391.717 281.04 393.43C280.887 394.838 280.329 394.977 279.368 393.848C279.514 394.345 279.627 394.793 279.705 395.194C278.23 395.427 276.732 395.616 275.216 395.762C274.548 395.209 273.98 394.571 273.513 393.848C274.127 392.837 274.405 391.722 274.349 390.502C274.071 390.502 273.791 390.502 273.513 390.502C273.227 389.801 272.67 389.522 271.84 389.666C271.458 387.786 270.621 386.114 269.331 384.647C269.609 384.09 269.889 383.532 270.167 382.975C268.996 380.854 268.16 378.624 267.658 376.284C267.371 374.625 267.929 373.509 269.331 372.938ZM276.022 389.248C274.921 388.806 274.363 389.224 274.349 390.502C275.009 390.265 275.567 389.847 276.022 389.248ZM277.695 392.593C278.15 393.193 278.708 393.611 279.368 393.848C279.353 392.57 278.796 392.151 277.695 392.593Z" fill="#1B1B1B"/>
<path opacity="0.01" fill-rule="evenodd" clip-rule="evenodd" d="M266.821 383.811C265.838 383.628 265.002 383.907 264.312 384.648C265.427 385.763 265.427 386.878 264.312 387.993C264.694 388.661 265.252 388.939 265.985 388.83C263.853 391.015 261.901 390.875 260.13 388.411C260.776 387.39 261.612 386.554 262.639 385.902C262.01 385.341 261.731 384.644 261.803 383.811C263.568 382.773 265.241 382.773 266.821 383.811Z" fill="#030303"/>
<path opacity="0.01" fill-rule="evenodd" clip-rule="evenodd" d="M280.203 387.993C279.925 387.993 279.646 387.993 279.367 387.993C279.646 385.762 279.925 385.762 280.203 387.993Z" fill="black"/>
<path opacity="0.01" fill-rule="evenodd" clip-rule="evenodd" d="M280.203 387.993C281.186 387.81 282.022 388.088 282.712 388.829C281.414 389.915 280.578 389.636 280.203 387.993Z" fill="black"/>
<path opacity="0.01" fill-rule="evenodd" clip-rule="evenodd" d="M266.822 392.175C267.415 392.931 268.251 393.209 269.331 393.011C269.331 393.848 269.331 394.684 269.331 395.52C268.31 395.079 267.334 394.521 266.403 393.848C265.825 393.064 265.964 392.507 266.822 392.175Z" fill="black"/>
<path opacity="0.012" d="M271.84 389.666C272.67 389.522 273.227 389.801 273.513 390.502C272.521 391.724 272.521 392.84 273.513 393.848C273.98 394.571 274.548 395.209 275.216 395.762C273.282 395.949 271.318 396.067 269.331 396.119C269.331 395.92 269.331 395.72 269.331 395.521C269.331 394.684 269.331 393.848 269.331 393.012C268.251 393.21 267.415 392.931 266.822 392.175C268.038 390.701 267.758 389.585 265.985 388.83C265.253 388.939 264.695 388.661 264.312 387.993C265.427 386.878 265.427 385.763 264.312 384.648C265.002 383.907 265.839 383.628 266.822 383.811C268.218 386.041 269.891 387.992 271.84 389.666Z" fill="#3D3D3D"/>
<path d="M253.729 379.981C253.663 379.994 253.583 380 253.5 379.983C253.576 379.983 253.653 379.982 253.729 379.981Z" fill="#9B6F5D"/>
<path d="M253.036 379.986C252.982 379.995 252.92 379.997 252.855 379.987C252.916 379.987 252.976 379.987 253.036 379.986Z" fill="#9B6F5D"/>
<path d="M238.666 350.317C238.449 350.422 238.231 350.524 238.012 350.621C238.23 350.518 238.448 350.415 238.666 350.317Z" fill="#9B6F5D"/>
<path d="M256.229 388.032L256.275 388.012C256.291 388.022 256.307 388.032 256.323 388.041C256.773 388.088 257.212 388.169 257.643 388.271C258.317 388.13 258.932 387.695 259.709 387.728C259.924 387.594 260.169 387.47 260.439 387.358C262.418 387.273 264.391 387.145 266.418 387.145C267.456 387.145 268.487 387.485 269.514 387.64C269.516 387.641 269.518 387.642 269.52 387.644L269.521 387.641C269.648 387.66 269.775 387.676 269.901 387.688L270.028 387.767C270.182 387.858 270.289 388.054 270.289 388.281C270.289 388.508 270.182 388.703 270.028 388.794L269.682 389.01C268.775 391.155 265.372 390.837 263.685 390.837C263.114 390.837 262.563 390.77 262.025 390.664C259.874 390.728 257.621 390.598 256.018 389.229L255.967 389.357L255.609 389.134C255.569 389.133 255.528 389.133 255.488 389.133C255.488 389.133 255.032 389.133 255.032 388.565C255.032 387.997 255.488 387.997 255.488 387.997C255.55 387.997 255.612 387.998 255.674 387.999C255.688 387.998 255.702 387.997 255.715 387.997H256.171V388.027C256.19 388.028 256.209 388.03 256.229 388.032Z" fill="#D1997B"/>
<path d="M254.551 387.741C254.758 387.741 254.964 387.741 255.171 387.741C259.059 385.814 264.671 386.85 268.76 386.898C269.269 387.11 269.817 387.182 270.354 387.182L270.431 387.255L270.443 387.209L271.114 387.488C271.23 387.533 271.33 387.622 271.402 387.741C271.174 387.741 270.946 387.741 270.718 387.741C265.156 387.741 259.576 387.986 253.997 388.021L254.551 387.741Z" fill="#7F5D4B"/>
<path d="M273.551 364.325C273.551 372.283 268.543 378.733 262.365 378.733C256.187 378.733 251.179 372.283 251.179 364.325C251.179 356.367 256.187 349.917 262.365 349.917C268.543 349.917 273.551 356.367 273.551 364.325Z" fill="#482520"/>
<path d="M272.568 371.694C272.568 372.624 273.276 371.868 273.009 368.839C272.772 366.164 272.596 358.031 271.843 356.575C271.121 355.178 266.787 351.896 263.348 351.896C262.694 351.896 259.791 351.802 257.293 352.954C255.85 353.62 254.378 355.581 253.975 355.948C252.086 357.667 250.952 366.739 251.568 368.151C251.686 368.422 250.687 368.454 250.687 366.195C250.687 364.736 249.679 356.954 250.836 353.643C252.196 349.75 254.314 347.332 256.8 345.58C258.717 344.229 260.707 349.036 262.365 349.036C262.824 349.036 265.935 344.273 267.958 345.864C269.846 347.349 271.889 349.386 272.955 351.715C275.206 356.634 273.305 365.465 273.305 367.735L272.568 371.694Z" fill="#CD6B5B"/>
<path d="M273.551 366.195C273.551 367.235 273.639 367.047 273.65 368.839C273.665 371.597 273.988 374.879 273.026 377.553C272.434 379.199 270.484 382.32 269.62 382.486C267.477 382.899 263.717 382.253 263.717 382.253C263.717 382.253 260.641 382.907 259.037 382.769C258.004 382.68 255.498 381.584 254.531 380.247C252.682 377.69 251.643 373.536 251.123 369.97C250.811 367.828 250.687 365.898 250.687 364.655C250.687 361.621 252.059 370.013 255.408 372.376C257.968 374.182 259.199 375.214 262.733 375.214C266.316 375.214 268.318 372.323 270.39 371.353C270.789 371.166 273.551 366.195 273.551 366.195Z" fill="#D97E67"/>
<path d="M266.914 346.287C266.051 346.238 262.402 349.961 262.365 349.944C262.003 349.782 259.308 346.953 258.073 346.465C256.012 345.651 252.92 350.924 252.898 350.976C252.177 351.573 251.548 352.259 251.051 353.001C250.692 352.785 250.842 352.382 250.842 352.382L251.118 351.655C251.423 351.245 251.682 350.801 251.856 350.335C253.172 348.559 255.416 344.397 258.544 345.449C260.188 346.002 261.168 347.504 262.365 348.588C263.469 347.572 265.301 345.231 266.914 345.187C269.317 345.122 271.979 348.533 272.599 350.287C273.201 350.803 272.837 351.607 272.837 351.607C272.041 350.853 268.648 346.385 266.914 346.287Z" fill="#994F43"/>
<path d="M265.332 382.65C263.502 382.592 261.725 382.967 259.927 383.024C258.298 383.024 255.89 383.096 254.908 380.857C255.472 381.29 255.993 381.831 256.626 381.952C257.66 382.512 258.802 382.275 259.927 382.275C260.754 382.317 261.89 382.001 262.699 381.723C263.553 381.429 264.521 381.941 265.332 381.9C265.411 381.9 265.488 381.901 265.565 381.902C266.808 382.321 268.141 382.275 269.45 382.275C269.709 382.267 269.952 382.213 270.182 382.123C268.563 383.068 267.134 382.65 265.332 382.65Z" fill="#994F43"/>
<path d="M271.891 369.956C270.077 372.403 266.932 374.531 263.847 375.651C263.844 375.705 263.832 375.764 263.808 375.828C263.614 376.35 263.031 376.176 263.031 376.176C259.852 375.228 255.856 373.997 253.863 371.34L253.579 370.84C253.579 370.84 253.532 370.756 253.516 370.64C255.394 372.66 258.144 374.139 260.972 374.377C261.527 374.562 262.078 374.731 262.61 374.891C263.751 374.544 264.934 374.034 266.063 373.403C268.302 372.341 271.674 369.004 272.963 366.961C273.047 366.952 271.891 369.956 271.891 369.956Z" fill="#994F43"/>
<path d="M264.7 353.106C263.064 353.106 260.386 352.612 258.941 352.871C258.507 352.949 258.09 353.159 257.692 353.448C256.042 353.997 254.603 355.065 253.489 356.801C253.432 356.858 253.376 356.916 253.321 356.976C253.118 356.642 253.448 356.347 253.448 356.347C254.93 355.098 256.359 352.212 258.659 351.801C260.286 351.51 262.945 352.006 264.7 352.006C268.378 352.047 269.797 354.706 272.265 356.787L272.315 356.956C271.524 356.394 270.691 355.935 270.104 355.644C269.733 355.46 269.36 355.283 268.987 355.114C267.81 353.986 266.515 353.091 264.7 353.106Z" fill="#994F43"/>
</svg>