<svg xmlns="http://www.w3.org/2000/svg" fill="none" viewBox="204.76 328.9 113.92 70.94">
<path d="M218.76 388.846C197.252 378.89 205.588 354.577 210.773 346.865C227.04 322.672 319.217 315.244 318.657 374.308C319.472 395.854 293.515 400.446 276.989 399.779C260.911 399.13 240.268 398.802 218.76 388.846Z" fill="#E1A585"/>
<path d="M298.664 354.946C298.664 354.946 295.435 361.222 289.359 366.626C282.904 372.367 273.267 377.255 262.041 377.255C240.248 377.255 226.708 356.235 226.708 356.235C226.708 356.235 238.443 353.527 260.236 353.527C282.029 353.527 298.664 354.946 298.664 354.946Z" fill="#482520"/>
<path d="M233.306 355.382L233.343 355.327C233.43 355.219 233.618 355.081 233.876 354.927C236.124 354.25 238.003 353.64 238.919 353.528C243.13 353.01 254.478 350.921 258.206 350.921L258.545 350.852C261.214 353.406 266.18 350.902 270.247 349.905C272.719 350.028 292.026 354.266 293.832 354.927C294.183 355.327 293.832 358.313 290.833 359.938C289.427 360.7 270.572 363.472 261.315 363.076C251.482 362.655 238.024 362.307 234.645 359.938C233.306 359 230.43 356.452 230.383 355.327C230.383 355.327 232.958 355.449 233.306 355.382Z" fill="#F9F9F9"/>
<path d="M235.313 365.084C237.81 363.288 239.552 362.94 243.586 362.957C247.927 363.055 255.621 362.791 263.21 363.399C288.272 361.174 289.391 363.265 290.855 365.772C290.388 366.126 249.349 375.676 239.585 369.029C238.017 367.785 236.655 366.366 235.313 365.084C237.495 364.376 233.638 366.066 235.313 365.084Z" fill="#F9F9F9"/>
<path opacity="0.02" fill-rule="evenodd" clip-rule="evenodd" d="M263.183 332.527C263.916 332.418 264.473 332.696 264.856 333.364C264.504 334.891 264.504 336.564 264.856 338.382C260.081 337.492 259.523 335.541 263.183 332.527Z" fill="#222222"/>
<path opacity="0.01" fill-rule="evenodd" clip-rule="evenodd" d="M258.165 336.709C259.701 336.825 259.98 337.383 259.001 338.382C258.334 338 258.055 337.442 258.165 336.709Z" fill="black"/>
<path opacity="0.01" fill-rule="evenodd" clip-rule="evenodd" d="M296.638 344.237C298.04 344.808 298.598 345.924 298.311 347.582C297.475 347.582 296.638 347.582 295.802 347.582C295.746 346.362 296.024 345.247 296.638 344.237Z" fill="#0A0A0A"/>
<path opacity="0.01" fill-rule="evenodd" clip-rule="evenodd" d="M302.493 346.746C302.762 348.041 303.598 348.599 305.002 348.419C304.724 348.977 304.444 349.534 304.166 350.092C303.051 350.37 303.051 350.65 304.166 350.928C304.133 351.834 303.854 352.67 303.329 353.437C304.259 354.077 304.817 354.913 305.002 355.946C302.504 355.572 301.668 354.317 302.493 352.183C302.054 351.604 301.496 351.186 300.82 350.928C299.964 352.06 298.849 352.618 297.475 352.601C297.256 351.365 297.534 350.25 298.311 349.255C298.801 349.43 299.219 349.709 299.566 350.092C300.429 348.814 301.405 347.7 302.493 346.746Z" fill="#050505"/>
<path opacity="0.01" fill-rule="evenodd" clip-rule="evenodd" d="M269.037 374.347C267.636 374.918 267.078 376.034 267.365 377.693C266.238 378.254 265.262 378.254 264.437 377.693C264.177 375.973 263.759 374.3 263.183 372.674C263.44 371.998 263.858 371.441 264.437 371.001C265.274 372.116 266.11 372.116 266.946 371.001C267.862 371.999 268.559 373.115 269.037 374.347Z" fill="black"/>
<path opacity="0.01" fill-rule="evenodd" clip-rule="evenodd" d="M260.674 372.674C261.789 373.232 261.789 373.232 260.674 372.674V372.674Z" fill="black"/>
<path opacity="0.01" fill-rule="evenodd" clip-rule="evenodd" d="M261.51 385.22C259.49 385.823 257.817 386.938 256.492 388.565C254.273 386.557 254.552 384.884 257.328 383.547C258.236 383.447 258.794 382.889 259.001 381.874C258.965 381.108 258.686 380.55 258.164 380.201C258.868 378.63 259.147 376.957 259.001 375.183C260.106 375.325 261.083 375.047 261.928 374.347C262.656 374.855 263.074 375.552 263.183 376.438C262.523 377.798 261.686 379.052 260.674 380.201C260.878 381.916 261.156 383.589 261.51 385.22Z" fill="#121212"/>
<path opacity="0.01" fill-rule="evenodd" clip-rule="evenodd" d="M258.165 380.202C258.221 381.422 257.942 382.537 257.328 383.547C256.492 383.547 255.656 383.547 254.819 383.547C254.809 381.337 255.924 380.223 258.165 380.202Z" fill="black"/>
<path opacity="0.01" d="M269.038 374.347C269.582 374.601 270.139 374.879 270.711 375.183C271.652 378.545 272.627 381.891 273.638 385.22C274.515 384.369 275.492 384.229 276.565 384.801C276.975 386.649 277.811 388.182 279.075 389.402C279.262 391.314 279.82 393.126 280.747 394.838C280.594 396.247 280.036 396.385 279.075 395.256C279.221 395.753 279.334 396.202 279.412 396.603C277.937 396.836 276.439 397.024 274.923 397.171C274.255 396.618 273.687 395.98 273.22 395.256C273.834 394.246 274.112 393.131 274.056 391.911C273.778 391.911 273.498 391.911 273.22 391.911C272.934 391.21 272.377 390.931 271.547 391.074C271.165 389.195 270.328 387.522 269.038 386.056C269.316 385.498 269.596 384.941 269.874 384.383C268.703 382.263 267.867 380.032 267.365 377.692C267.078 376.034 267.636 374.918 269.038 374.347ZM275.729 390.656C274.628 390.215 274.07 390.633 274.056 391.911C274.716 391.674 275.274 391.256 275.729 390.656ZM277.402 394.002C277.857 394.601 278.415 395.02 279.075 395.256C279.06 393.978 278.503 393.56 277.402 394.002Z" fill="#1B1B1B"/>
<path opacity="0.01" fill-rule="evenodd" clip-rule="evenodd" d="M266.528 385.22C265.545 385.037 264.709 385.315 264.019 386.056C265.134 387.171 265.134 388.287 264.019 389.402C264.401 390.069 264.959 390.348 265.692 390.238C263.561 392.424 261.608 392.284 259.837 389.82C260.483 388.799 261.319 387.963 262.346 387.311C261.717 386.75 261.438 386.053 261.51 385.22C263.275 384.181 264.948 384.181 266.528 385.22Z" fill="#030303"/>
<path opacity="0.01" fill-rule="evenodd" clip-rule="evenodd" d="M279.911 389.402C279.632 389.402 279.353 389.402 279.074 389.402C279.353 387.171 279.632 387.171 279.911 389.402Z" fill="black"/>
<path opacity="0.01" fill-rule="evenodd" clip-rule="evenodd" d="M279.91 389.402C280.893 389.218 281.729 389.497 282.419 390.238C281.121 391.324 280.285 391.045 279.91 389.402Z" fill="black"/>
<path opacity="0.01" fill-rule="evenodd" clip-rule="evenodd" d="M266.529 393.583C267.122 394.34 267.958 394.618 269.038 394.42C269.038 395.256 269.038 396.093 269.038 396.929C268.017 396.487 267.041 395.93 266.111 395.256C265.532 394.473 265.671 393.916 266.529 393.583Z" fill="black"/>
<path opacity="0.012" d="M271.547 391.075C272.377 390.931 272.934 391.21 273.22 391.911C272.228 393.133 272.228 394.249 273.22 395.257C273.687 395.98 274.255 396.618 274.923 397.171C272.989 397.358 271.025 397.476 269.038 397.528C269.038 397.328 269.038 397.129 269.038 396.929C269.038 396.093 269.038 395.257 269.038 394.42C267.958 394.619 267.122 394.34 266.529 393.584C267.745 392.109 267.465 390.994 265.692 390.238C264.96 390.348 264.402 390.069 264.02 389.402C265.134 388.287 265.134 387.171 264.02 386.056C264.71 385.315 265.546 385.037 266.529 385.22C267.925 387.45 269.598 389.401 271.547 391.075Z" fill="#3D3D3D"/>
<path d="M253.436 381.39C253.37 381.403 253.29 381.408 253.207 381.392C253.283 381.391 253.36 381.391 253.436 381.39Z" fill="#9B6F5D"/>
<path d="M252.743 381.395C252.689 381.403 252.627 381.406 252.562 381.396C252.623 381.396 252.683 381.395 252.743 381.395Z" fill="#9B6F5D"/>
<path d="M238.373 351.726C238.156 351.831 237.938 351.933 237.719 352.03C237.937 351.926 238.155 351.824 238.373 351.726Z" fill="#9B6F5D"/>
<path d="M252.649 384.192L252.708 384.172C252.729 384.182 252.749 384.192 252.769 384.201C253.339 384.248 253.895 384.329 254.441 384.431C255.294 384.291 256.074 383.855 257.059 383.888C257.331 383.754 257.641 383.631 257.983 383.518C260.49 383.434 262.989 383.305 265.556 383.305C266.871 383.305 268.177 383.645 269.478 383.8C269.48 383.801 269.483 383.802 269.485 383.804L269.487 383.801C269.648 383.82 269.808 383.836 269.969 383.849L270.13 383.928C270.325 384.019 270.46 384.214 270.46 384.441C270.46 384.668 270.325 384.864 270.13 384.955L269.691 385.171C268.542 387.315 264.232 386.997 262.095 386.997C261.371 386.997 260.674 386.931 259.992 386.824C257.267 386.888 254.414 386.758 252.383 385.39L252.318 385.517L251.865 385.294C251.814 385.293 251.762 385.293 251.711 385.293C251.711 385.293 251.134 385.293 251.134 384.725C251.134 384.157 251.711 384.157 251.711 384.157C251.79 384.157 251.869 384.158 251.947 384.159C251.964 384.158 251.982 384.157 251.999 384.157H252.576V384.187C252.601 384.188 252.625 384.19 252.649 384.192Z" fill="#D1997B"/>
<path d="M250.524 383.901C250.786 383.901 251.047 383.901 251.309 383.901C256.234 381.974 263.343 383.01 268.523 383.058C269.168 383.27 269.862 383.342 270.542 383.342L270.639 383.415L270.655 383.369L271.504 383.648C271.652 383.693 271.779 383.783 271.869 383.901C271.581 383.901 271.292 383.901 271.004 383.901C263.958 383.902 256.889 384.147 249.822 384.181L250.524 383.901Z" fill="#7F5D4B"/>
<path d="M286.126 368.659C286.959 370.261 279.079 371.298 270.426 371.317C257.343 371.297 241.08 371.605 242.113 370.115C232.83 364.657 226.644 356.476 226.644 356.476C227.079 356.755 234.815 362.034 235.261 362.288C236.18 362.811 238.724 365.008 240.705 365.569C244.119 366.535 248.196 366.65 249.887 367.126C255.501 368.708 254.83 368.628 260.752 368.485C263.991 368.407 267.232 367.739 270.426 367.734C273.113 367.741 276.51 368.476 280.186 367.693C282.851 367.126 286.649 365.264 289.715 363.157C294.839 359.634 298.838 355.424 298.838 355.424C298.838 355.424 297.414 355.65 298.247 357.252L286.126 368.659Z" fill="#994F43"/>
<path d="M299.018 354.948C299.018 357.956 290.405 367.091 284.31 371.843C281.006 373.575 279.332 374.751 276.088 376.016C273.105 377.178 264.464 376.127 261.553 376.127C258.895 376.127 253.687 377.415 250.832 376.767C246.013 375.672 242.268 372.244 238.784 369.773C234.059 366.422 225.991 358.327 225.991 355.769C225.991 354.77 238.373 367.645 244.609 367.406C249.2 367.629 256.661 369.186 260.875 369.186C266.35 369.186 276.27 367.894 280.111 368.341C292.986 365.974 298.76 353.779 298.76 354.948L299.018 354.948Z" fill="#D97E67"/>
<path d="M265.66 377.111C262.206 377.029 258.854 377.56 255.46 377.641C252.386 377.641 247.843 377.743 245.99 374.576C247.054 375.188 248.036 375.953 249.231 376.125C251.182 376.916 253.338 376.581 255.46 376.581C257.02 376.64 259.165 376.194 260.691 375.8C262.303 375.385 264.129 376.109 265.66 376.051C265.808 376.051 265.954 376.052 266.099 376.054C268.445 376.645 270.961 376.581 273.431 376.581C273.919 376.569 274.378 376.493 274.811 376.366C271.756 377.703 269.06 377.111 265.66 377.111Z" fill="#994F43"/>
<path d="M261.805 349.685C261.864 349.438 261.926 349.193 261.985 348.947C262.089 348.989 262.197 349.021 262.309 349.041C263.303 349.223 264.147 348.83 265.077 348.771L265.51 348.5C266.884 348.546 267.686 347.89 268.903 347.486C270.626 346.706 274.572 344.518 276.54 345.377C278.091 346.056 281.083 347.287 282.669 348.041C285.763 349.511 299.051 354.202 299.116 354.629C296.161 354.537 285.502 349.569 282.834 349.569C281.634 348.955 280.397 348.532 279.154 348.024C278.123 347.48 277.171 346.927 276.115 346.352C274.826 345.65 270.552 347.84 269.37 348.439C269.338 348.451 269.306 348.464 269.274 348.476C268.672 348.661 268.15 348.892 267.622 349.093C267.32 349.198 267.018 349.297 266.711 349.39C266.406 349.467 266.083 349.523 265.731 349.545C265.701 349.604 265.66 349.65 265.615 349.686C265.415 349.734 265.211 349.778 265.006 349.819C264.535 349.836 264.072 349.945 263.599 350.028C263.27 350.061 262.933 350.084 262.586 350.096C262.318 349.982 262.059 349.842 261.805 349.685Z" fill="#994F43"/>
<path d="M300.874 355C297.628 355.325 285.084 355.326 282.029 354.94C277.085 354.314 274.794 356.619 264.202 356.219C262.285 356.147 261.17 356.344 259.713 356.262C248.921 355.661 249.134 354.667 245.203 355.687C239.549 357.153 227.459 355.626 224.373 355.721C223.623 355.744 236.743 352.397 238.324 351.639C242.011 350.265 246.502 346.656 251.286 346.183C255.398 345.776 258.484 349.592 262.566 349.592C266.455 349.592 271.897 345.879 275.434 345.987C278.542 346.081 281.613 349.072 283.997 349.677C286.305 350.263 300.874 355 300.874 355Z" fill="#CD6B5B"/>
<path d="M262.719 350.096C262.394 350.084 262.077 350.061 261.769 350.028C261.324 349.945 260.89 349.836 260.449 349.819C260.256 349.778 260.065 349.734 259.877 349.686C259.835 349.65 259.797 349.604 259.769 349.545C259.438 349.523 259.135 349.467 258.849 349.39C258.561 349.297 258.277 349.198 257.995 349.093C257.499 348.892 257.009 348.661 256.444 348.476C256.414 348.464 256.384 348.451 256.354 348.439C255.245 347.84 251.235 345.65 250.026 346.352C249.035 346.927 248.142 347.48 247.175 348.024C239.849 352.046 226.678 354.834 224.626 355.463C225.113 355.225 238.584 351.057 238.989 350.774C241.191 349.975 243.376 348.806 245.43 347.765C246.919 347.011 248.172 346.056 249.627 345.377C251.473 344.518 255.175 346.706 256.792 347.486C257.935 347.89 258.686 348.546 259.976 348.5L260.382 348.771C261.255 348.83 262.046 349.223 262.979 349.042C263.084 349.021 263.185 348.989 263.282 348.947C263.339 349.193 263.396 349.438 263.452 349.685C263.214 349.842 262.97 349.982 262.719 350.096Z" fill="#994F43"/>
<path d="M281.126 355.893C279.936 355.826 275.558 355.486 273.592 356.137C272.699 356.124 271.888 356.752 271.026 356.92C268.19 357.475 264.954 357.462 262.058 357.462C258.861 357.462 255.383 357.422 252.357 356.681C252.291 356.665 246.08 356.236 245.143 356.441C239.31 357.719 235.799 356.922 233.164 356.789C232.971 356.13 225.342 356.12 225.244 355.38C225.399 355.361 236.881 356.796 241.075 355.44C245.692 354.819 248.025 354.106 248.837 353.947C249.6 354.022 252.513 355.219 253.069 355.367C255.995 356.144 259.433 356.12 262.531 356.12C265.325 356.12 268.066 356.469 270.787 355.894C270.807 355.89 270.827 355.885 270.847 355.881C270.954 355.88 271.06 355.88 271.166 355.88C274.227 355.813 280.943 353.245 280.943 353.245C281.429 353.418 283.431 353.906 283.914 354.123C284.178 354.276 300.431 354.966 300.734 355.14C300.791 355.173 284.574 355.617 284.439 355.617L281.126 355.893Z" fill="#994F43"/>
</svg>