<svg xmlns="http://www.w3.org/2000/svg" fill="none" viewBox="405.42 320.49 54.72 66.57">
<path d="M446.288 363.846C438.406 369.653 441.601 364.795 427.894 364.795C422.687 364.795 417.866 363.98 413.479 362.67C414.353 360.882 415.148 359.029 416.261 357.441C418.965 353.58 418.882 348.727 418.959 344.264C418.987 342.616 424.468 342.493 424.592 340.794C424.955 340.793 425.321 340.793 425.69 340.793C442.761 340.793 449.13 339.019 451.502 337.748C448.552 340.443 441.972 346.673 441.88 348.689C439.73 360.675 447.233 357.582 446.288 363.846Z" fill="#482520"/>
<path d="M438.03 362.017C433.74 360.99 428.943 359.987 424.613 359.017C421.829 358.317 418.849 355.764 420.186 353.831C420.865 353.281 421.662 352.733 422.549 352.366C422.841 352.272 423.159 352.184 423.505 352.103C423.778 352.083 424.051 352.065 424.323 352.048C427.384 352.539 430.818 352.609 433.897 353.347C434.903 353.588 436.24 353.839 437.521 354.143C437.683 354.224 437.837 354.31 437.982 354.4C438.965 354.664 442.378 358.284 443.169 358.775C443.081 359.249 444.016 361.688 443.997 362.176C442.506 361.132 437.346 355.272 435.039 354.689C434.694 354.529 434.315 354.388 433.882 354.284C431.656 353.751 426.51 352.045 423.616 353.017C423.5 353 423.362 352.951 423.389 352.811C423.433 352.575 423.855 352.552 423.855 352.552C424.069 352.541 424.281 352.532 424.489 352.526C424.484 352.518 424.48 352.511 424.477 352.503C424.173 352.522 423.869 352.54 423.565 352.561C417.747 353.907 421.939 357.873 425.07 358.574C429.37 359.655 434.146 360.535 438.487 361.574C439.402 361.793 440.363 361.971 441.348 362.124C441.414 362.311 441.484 362.498 441.558 362.686C440.348 362.502 439.163 362.288 438.03 362.017ZM426.935 352.526C426.824 352.533 426.716 352.542 426.612 352.552C426.807 352.562 426.999 352.575 427.189 352.59L426.935 352.526Z" fill="#B65E50"/>
<path d="M438.494 361.62C434.153 360.58 429.287 359.656 424.987 358.575C421.856 357.874 417.686 353.882 423.503 352.535C423.808 352.515 424.114 352.495 424.418 352.477C424.421 352.485 424.544 352.545 424.549 352.552C424.341 352.558 424.131 352.566 423.916 352.577C423.916 352.577 423.496 352.599 423.452 352.835C423.426 352.975 423.437 352.976 423.553 352.993C426.447 352.021 431.619 353.713 433.845 354.247C434.278 354.35 434.663 354.489 435.008 354.65C437.278 355.223 438.98 355.937 440.479 356.959C448.569 364.832 440.718 360.37 441.363 362.167C440.374 362.015 439.41 361.839 438.494 361.62Z" fill="#C36556"/>
<path d="M458.58 339.283C457.751 341.791 423.704 341.507 422.107 343.779C421.463 344.695 424.274 350.638 428.987 354.796C431.823 357.297 436.832 358.343 438.011 359.54C442.203 363.793 450.691 364.125 449.13 367.124C447.913 369.46 442.023 369.377 438.748 372.322C435.985 374.806 435.35 377.018 435.492 378.915C435.707 381.813 435.755 384.519 435.655 387.043C413.891 378.796 398.267 366.26 408.783 343.123C416.419 326.322 433.375 320.805 453.602 320.493C454.356 320.707 455.517 320.911 456.277 321.104C456.287 329.211 460.769 332.658 458.58 339.283Z" fill="#E1A585"/>
<path d="M449.055 368.618C448.881 369.217 448.895 370.207 448.895 370.207C444.384 372.28 439.698 371.543 437.624 374.945C434.596 379.024 435.018 382.957 435.718 387.067C435.191 386.868 434.667 386.666 434.148 386.461C434.165 384.497 434.148 383.187 434.223 383.135C433.914 382.03 433.727 380.993 433.649 380.019C433.922 377.424 434.496 374.965 435.859 373.309C438.803 369.732 449.282 367.838 449.055 368.618Z" fill="#7F5D4B"/>
<path d="M428.467 341.362L428.498 341.321C428.578 341.239 428.784 341.123 429.078 340.986C431.879 340.217 434.204 339.545 435.403 339.336C437.676 338.938 441.5 338.188 445.561 337.403C445.311 339.045 445.41 340.723 445.887 342.42C445.966 342.701 446.054 342.98 446.153 343.257C446.034 343.24 445.933 343.22 445.856 343.197C445.458 343.08 445.326 342.512 445.128 342.703C444.829 342.993 443.652 344.855 442.807 344.974C441.268 345.191 437.496 344.056 436.856 343.334C435.968 343.883 434.825 344.852 432.554 344.631C431.922 344.569 431.971 344.139 431.306 344.116C429.787 344.064 428.42 344.913 427.554 344.005C426.932 343.352 428.581 342.35 428.124 341.639C428.124 341.639 428.021 341.457 428.467 341.362Z" fill="#F9F9F9"/>
<path d="M446.718 344.781C446.473 344.747 446.039 344.718 445.643 344.667C445.378 343.299 444.922 342.008 444.237 340.856C444.035 340.186 443.803 339.524 443.544 338.871C445.197 338.347 446.955 337.795 448.496 337.349C448.455 339.716 448.897 341.983 449.741 344.13C448.885 344.6 447.745 344.912 446.718 344.781Z" fill="#F9F9F9"/>
<path d="M445.018 340.283C444.71 341.2 445.236 342.156 445.234 343.076C444.979 342.295 444.65 341.55 444.237 340.856C444.035 340.186 443.803 339.524 443.544 338.871C445.197 338.347 446.955 337.795 448.496 337.349C448.473 338.666 448.6 339.953 448.863 341.205C447.56 339.616 445.695 338.039 445.018 340.283Z" fill="#F9F9F9"/>
<path d="M449.468 337.265L449.619 337.185C450.476 337.789 451.314 337.715 452.134 337.354C452.627 338.397 453.109 339.443 453.522 340.514C453.946 341.613 454.316 342.726 454.686 343.845C454.381 343.829 454.04 343.796 453.924 343.622C453.415 344.615 451.019 345.078 449.807 344.635C449.462 342.407 448.693 340.126 447.606 337.876C448.361 337.582 449.013 337.359 449.468 337.265Z" fill="#F9F9F9"/>
<path d="M454.03 342.897C453.958 342.842 453.928 342.764 453.928 342.764L453.807 342.452C453.251 341.02 452.305 338.145 450.194 338.578C448.929 338.23 448.671 339.263 448.724 340.507C448.404 339.629 448.03 338.751 447.607 337.877C448.362 337.582 449.014 337.359 449.469 337.265L449.62 337.186C450.477 337.789 451.315 337.716 452.135 337.354C452.628 338.398 453.11 339.444 453.523 340.514C453.716 341.014 453.898 341.518 454.073 342.023C454.046 342.316 454.029 342.611 454.03 342.897Z" fill="#F9F9F9"/>
<path d="M451.502 337.747C452.356 336.967 452.905 336.483 452.905 336.483C452.905 336.483 452.827 337.037 451.502 337.747Z" fill="#482520"/>
<path d="M444.804 360.009C437.609 358.254 436.254 357.686 436.254 357.686C436.254 357.686 444.404 359.152 444.487 359.177C445.067 359.349 445.242 359.496 445.775 359.659C446.307 359.821 447.314 361.988 447.284 362.148C446.695 361.887 446.437 360.407 444.804 360.009Z" fill="#994F43"/>
<path d="M447.474 338.783C449.962 338.866 454.159 339.024 455.977 339.471C456.33 339.743 457.541 343.344 454.521 344.445C453.106 344.961 449.755 346.049 440.466 346.77C422.829 348.139 421.723 345.664 421.604 343.756C431.792 339.991 439.515 340.096 447.474 338.783Z" fill="#F9F9F9"/>
<path d="M445.426 360.817L445.408 360.837C445.367 360.875 445.288 360.918 445.182 360.963C444.318 361.072 443.592 361.182 443.254 361.159C441.704 361.05 437.462 361.048 436.13 360.761L436.003 360.763C435.28 359.491 433.28 360.154 431.738 360.257C430.866 360.015 429.398 359.596 428.813 359.181C428.723 358.987 428.773 356.673 429.991 356.225C430.562 356.015 431.93 355.409 435.287 355.868C439.074 356.385 444.162 357.549 445.155 358.799C445.549 359.294 446.55 360.591 446.466 361.065C446.466 361.065 445.557 360.816 445.426 360.817Z" fill="#F9F9F9"/>
<path d="M424.443 343.515C424.395 342.747 422.67 343.177 422.67 343.177C425.36 342.534 443.74 337.235 445.799 335.037C447.327 334.85 456.969 331.05 458.467 332.97C458.89 333.512 460.043 335.881 459.594 336.958C459.272 337.583 460.024 339.31 457.142 341.112C455.492 342.143 450.651 341.975 450.138 341.97C447.696 341.948 443.716 342.525 443.563 342.25C443.563 342.25 424.457 343.727 424.443 343.515Z" fill="#CD6B5B"/>
<path d="M421.199 343.469C421.98 343.423 428.187 353.264 431.29 355.088C435.418 357.514 441.498 359.045 445.015 359.567C447.485 359.934 449.748 365.336 449.909 365.321C450.003 365.313 449.995 368.405 448.677 369.576C447.737 370.41 445.567 369.426 442.654 369.466C440.314 369.498 429.268 359.553 428.72 359.026C423.375 353.884 421.889 343.837 421.199 343.469Z" fill="#D97E67"/>
<path d="M438.821 366.637L430.681 362.126C429.132 361.253 428.655 358.518 427.204 357.591C425.58 355.912 422.182 348.08 422.182 348.08C422.182 348.08 426.198 354.485 429.815 358.571C433.706 362.968 438.808 366.497 438.821 366.637Z" fill="#994F43"/>
<path d="M422.667 343.85L422.191 342.942C424.21 342.913 445.245 335.385 446.728 333.856C462.559 327.987 459.742 333.879 460.145 337.069C459.623 337.41 457.972 333.248 457.551 333.749C456.188 332.637 447.357 334.916 444.527 336.313C438.085 339.491 426.93 341.418 423.956 343.151C442.94 342.222 452.787 339.874 455.852 341.541C454.867 341.728 451.331 342.446 448.418 342.706C445.635 342.954 428.571 343.32 427.734 343.744C427.734 343.744 423.446 343.802 422.667 343.85Z" fill="#994F43"/>
</svg>