<svg xmlns="http://www.w3.org/2000/svg" fill="none" viewBox="405.42 320.49 54.72 66.58">
<path d="M445.404 363.552C436.838 369.028 440.311 364.446 425.414 364.446C419.755 364.446 414.515 363.678 409.747 362.443C410.697 360.756 411.562 359.009 412.771 357.511C415.71 353.87 415.619 349.294 415.703 345.085C415.734 343.532 421.69 343.416 421.825 341.814C422.22 341.813 422.618 341.812 423.018 341.812C441.572 341.812 448.493 340.139 451.071 338.94C447.865 341.482 439.47 342.38 435.637 349.88C435.789 357.139 446.432 357.645 445.404 363.552Z" fill="#482520"/>
<path opacity="0.01" d="M428.136 372.166L427.98 370.295V347.252L428.337 343.326L428.282 342.971L428.369 342.622V339.864L428.506 338.366L428.539 338.168L429.833 337.462L432.325 336.216L433.267 335.902L436.23 335.161L438.103 335.017L438.731 334.808H439.393L440.559 334.516L440.976 334.457H447.228L448.005 334.651H448.783L449.203 334.546L449.866 334.636L450.337 334.263L452.671 333.679L452.799 333.456C454.88 333.764 457.398 334.319 459.591 334.79C459.591 334.79 459.481 351.161 458.833 353.569C455.077 367.521 447.856 366.934 447.991 369.475C443.086 371.487 435.013 371.143 430.199 374.611C429.703 373.649 429.016 372.834 428.136 372.166Z" fill="#121212"/>
<path d="M438.035 362.024C433.744 360.996 428.947 359.993 424.616 359.023C421.831 358.323 418.851 355.769 420.188 353.836C420.867 353.286 421.664 352.738 422.552 352.371C422.843 352.276 423.161 352.189 423.507 352.108C423.781 352.088 424.053 352.07 424.325 352.053C427.387 352.544 430.821 352.614 433.901 353.352C434.907 353.593 436.245 353.844 437.526 354.148C437.687 354.229 437.841 354.315 437.986 354.406C438.97 354.669 442.383 358.29 443.175 358.781C443.087 359.255 444.021 361.694 444.002 362.182C442.512 361.139 437.35 355.278 435.043 354.695C434.698 354.534 434.319 354.393 433.886 354.29C431.66 353.756 426.513 352.05 423.619 353.022C423.502 353.005 423.365 352.956 423.391 352.816C423.436 352.58 423.857 352.557 423.857 352.557C424.072 352.546 424.283 352.537 424.492 352.531C424.487 352.523 424.483 352.516 424.48 352.508C424.176 352.526 423.872 352.545 423.567 352.566C417.749 353.913 421.942 357.879 425.073 358.58C429.374 359.661 434.15 360.541 438.492 361.581C439.407 361.8 440.368 361.977 441.353 362.131C441.42 362.317 441.49 362.505 441.563 362.692C440.353 362.508 439.168 362.295 438.035 362.024ZM426.938 352.53C426.827 352.538 426.719 352.547 426.615 352.556C426.81 352.567 427.002 352.58 427.192 352.595L426.938 352.53Z" fill="#B65E50"/>
<path d="M438.499 361.626C434.157 360.586 429.29 359.662 424.989 358.581C421.858 357.88 417.687 353.887 423.506 352.54C423.81 352.52 424.116 352.5 424.42 352.482C424.423 352.49 424.547 352.55 424.552 352.557C424.343 352.563 424.133 352.571 423.919 352.582C423.919 352.582 423.499 352.604 423.454 352.84C423.428 352.98 423.439 352.981 423.555 352.998C426.45 352.026 431.622 353.719 433.849 354.252C434.282 354.356 434.667 354.494 435.012 354.655C437.283 355.229 438.985 355.943 440.484 356.964C448.575 364.839 440.723 360.376 441.369 362.174C440.379 362.022 439.415 361.845 438.499 361.626Z" fill="#C36556"/>
<path d="M458.588 339.286C457.759 341.794 420.285 342.132 418.688 344.405C418.044 345.321 420.855 350.954 425.569 355.113C428.405 357.614 436.836 358.349 438.016 359.546C442.208 363.799 446.343 361.954 444.782 364.953C443.565 367.29 442.029 369.384 438.753 372.33C435.99 374.815 435.355 377.026 435.496 378.924C435.712 381.823 435.76 384.529 435.659 387.053C413.892 378.805 398.266 366.267 408.783 343.127C416.42 326.323 433.379 320.805 453.61 320.493C454.364 320.707 455.525 320.911 456.285 321.104C456.294 329.212 460.777 332.659 458.588 339.286Z" fill="#E1A585"/>
<path d="M445.169 367.104C440.656 369.177 439.703 371.55 437.628 374.953C434.6 379.033 435.022 382.967 435.722 387.077C435.195 386.878 434.671 386.676 434.152 386.471C434.169 384.506 434.152 383.196 434.227 383.144C433.918 382.039 433.731 381.002 433.653 380.028C433.926 377.433 434.5 374.973 435.863 373.317C438.808 369.74 443.378 365.046 443.151 365.826L445.169 367.104Z" fill="#7F5D4B"/>
<path d="M441.211 357.7C441.097 357.658 441.055 357.573 441.055 357.573C440.357 356.093 443.05 353.831 444.977 355.401C444.881 355.706 444.792 356.012 444.708 356.319C444.491 357.123 444.317 357.926 444.186 358.728C442.88 359.528 440.868 359.458 441.211 357.7Z" fill="#F9F9F9"/>
<path d="M438.303 355.507C439.196 354.698 440.482 353.916 441.411 354.396C441.572 354.479 441.351 357.079 441.29 357.365C440.734 359.675 437.331 359.189 437.423 357.17C437.126 357.362 436.789 357.529 436.456 357.649C435.83 356.811 435.338 355.877 434.836 355.027C436.08 354.708 437.573 354.762 438.303 355.507Z" fill="#F9F9F9"/>
<path d="M437.073 356.796L437.348 356.551C437.416 356.487 437.538 356.452 437.666 356.466C437.843 356.486 437.965 356.594 437.938 356.707C437.929 356.741 437.908 356.772 437.878 356.798L437.733 356.927C437.601 358.236 439.333 359.415 440.952 357.951L441.237 357.599C441.297 357.52 441.434 357.473 441.578 357.489C441.753 357.509 441.874 357.615 441.85 357.727L441.787 358.024C442.199 359.06 443.046 359.5 444.195 358.678C444.187 358.723 444.18 358.768 444.173 358.814C443.831 359.34 443.541 359.867 443.3 360.393C441.443 360.281 439.669 360.076 438.761 359.641C437.646 359.107 436.859 358.249 436.209 357.305C436.537 357.176 436.836 357.007 437.073 356.796Z" fill="#F9F9F9"/>
<path d="M428.47 341.365L428.5 341.325C428.58 341.243 428.786 341.127 429.08 340.989C431.881 340.22 434.207 339.548 435.406 339.339C437.68 338.941 441.504 338.191 445.565 337.406C445.316 339.048 445.414 340.727 445.892 342.424C445.97 342.704 446.059 342.983 446.157 343.261C446.039 343.244 445.938 343.224 445.861 343.201C445.462 343.083 445.331 342.515 445.133 342.707C444.834 342.997 443.657 344.859 442.811 344.978C441.272 345.195 437.499 344.06 436.86 343.338C435.971 343.887 434.828 344.856 432.557 344.635C431.925 344.573 431.974 344.143 431.308 344.12C429.79 344.068 428.422 344.917 427.556 344.009C426.934 343.356 428.584 342.353 428.126 341.642C428.126 341.642 428.023 341.46 428.47 341.365Z" fill="#F9F9F9"/>
<path d="M445.798 342.836C445.461 342.611 445.079 342.365 444.657 342.127C443.486 340.189 441.109 337.092 438.184 340.92C438.176 340.937 438.164 340.955 438.144 340.974C437.737 341.525 437.671 341.984 437.791 342.461C437.683 342.454 437.565 342.456 437.446 342.469C437.177 342.5 436.976 342.581 436.912 342.671L436.642 343.026L436.841 343.037C436.783 343.098 436.733 343.158 436.69 343.217C436.248 342.428 436.194 341.76 436.809 340.92C436.057 339.5 434.585 340.624 433.747 341.905C433.574 341.927 433.43 341.971 433.337 342.024L432.614 342.435L432.892 342.489C432.021 343.134 432.206 343.801 432.589 344.49C432.135 344.49 432.038 344.319 432.038 344.319L431.863 344.011C431.577 343.456 431.573 342.425 432.023 341.526C428.205 340.957 428.732 342.804 427.93 343.858L428.094 344.112C428.094 344.112 428.225 344.343 427.551 344.42C427.469 344.43 427.394 344.435 427.327 344.436C426.976 344.533 426.587 344.458 426.587 344.458C424.226 344.002 423.987 343.141 422.953 342.559C428.699 341.314 433.215 339.721 435.406 339.338C437.68 338.941 441.504 338.19 445.566 337.406C445.316 339.048 445.415 340.726 445.892 342.423C445.927 342.549 445.965 342.674 446.004 342.8C445.945 342.815 445.877 342.828 445.798 342.836Z" fill="#F9F9F9"/>
<path d="M446.724 344.785C446.478 344.751 446.044 344.722 445.648 344.671C445.383 343.302 444.927 342.012 444.242 340.859C444.04 340.189 443.808 339.527 443.549 338.874C445.202 338.35 446.961 337.797 448.502 337.351C448.461 339.719 448.903 341.986 449.747 344.133C448.89 344.603 447.75 344.916 446.724 344.785Z" fill="#F9F9F9"/>
<path d="M445.023 340.286C444.715 341.203 445.242 342.159 445.239 343.079C444.984 342.298 444.655 341.553 444.242 340.859C444.04 340.189 443.808 339.527 443.549 338.874C445.202 338.35 446.961 337.797 448.502 337.351C448.479 338.669 448.606 339.956 448.868 341.208C447.565 339.619 445.701 338.041 445.023 340.286Z" fill="#F9F9F9"/>
<path d="M449.472 337.267L449.623 337.188C450.48 337.791 451.318 337.718 452.138 337.356C452.632 338.4 453.114 339.446 453.527 340.517C453.951 341.616 454.321 342.73 454.691 343.848C454.386 343.833 454.045 343.799 453.929 343.625C453.42 344.619 451.023 345.082 449.811 344.639C449.467 342.41 448.697 340.128 447.61 337.879C448.365 337.584 449.018 337.361 449.472 337.267Z" fill="#F9F9F9"/>
<path d="M454.036 342.9C453.963 342.844 453.934 342.767 453.934 342.767L453.813 342.455C453.257 341.023 452.311 338.147 450.2 338.581C448.934 338.232 448.676 339.265 448.729 340.51C448.409 339.631 448.035 338.753 447.612 337.879C448.367 337.584 449.019 337.361 449.474 337.267L449.625 337.188C450.482 337.791 451.32 337.718 452.14 337.356C452.633 338.4 453.116 339.446 453.529 340.517C453.721 341.017 453.903 341.52 454.079 342.026C454.052 342.319 454.035 342.613 454.036 342.9Z" fill="#F9F9F9"/>
<path d="M446.203 339.736C448.899 339.872 453.444 340.116 455.406 340.594C455.784 340.868 457.026 344.428 453.732 345.444C452.188 345.921 448.535 346.917 438.454 347.427C419.311 348.394 418.16 345.941 418.068 344.065C429.183 340.587 437.551 340.855 446.203 339.736Z" fill="#F9F9F9"/>
<path d="M445.548 357.683L445.524 357.711C445.47 357.765 445.366 357.827 445.227 357.892C444.103 358.063 443.158 358.232 442.72 358.206C440.709 358.088 435.201 358.177 433.478 357.805L433.313 357.812C432.402 356.053 429.791 357.021 427.785 357.198C426.658 356.879 424.761 356.327 424.01 355.761C423.898 355.492 424.013 352.267 425.604 351.616C426.35 351.311 428.139 350.437 432.488 351.004C437.396 351.643 443.977 353.155 445.24 354.876C445.74 355.558 447.012 357.344 446.892 358.006C446.892 358.006 445.717 357.678 445.548 357.683Z" fill="#F9F9F9"/>
<path d="M451.509 337.75C452.363 336.97 452.912 336.486 452.912 336.486C452.912 336.486 452.834 337.04 451.509 337.75Z" fill="#482520"/>
<path d="M419.379 343.683C419.314 342.96 417.346 343.39 417.346 343.39C420.416 342.745 441.377 337.487 443.704 335.386C445.449 335.188 456.433 331.467 458.172 333.257C458.663 333.762 460.012 335.979 459.513 337.001C459.153 337.595 460.036 339.213 456.761 340.953C454.887 341.948 449.345 341.859 448.758 341.862C445.965 341.875 441.418 342.476 441.239 342.219C441.239 342.219 419.398 343.883 419.379 343.683Z" fill="#CD6B5B"/>
<path d="M417.351 344.025L416.795 343.175C419.104 343.119 443.075 335.722 444.752 334.259C462.788 328.5 459.642 334.096 460.145 337.098C459.552 337.427 457.609 333.526 457.134 334.004C455.56 332.976 445.485 335.25 442.265 336.607C434.935 339.696 422.197 341.67 418.816 343.348C440.525 342.201 451.762 339.848 455.291 341.376C454.166 341.566 450.129 342.294 446.8 342.58C443.618 342.854 424.099 343.441 423.147 343.852C423.147 343.852 418.242 343.968 417.351 344.025Z" fill="#994F43"/>
<path d="M417.388 344.093C418.267 343.995 425.894 352.827 429.514 354.328C434.328 356.325 441.291 357.345 445.297 357.592C450.701 357.766 449.129 367.455 443.898 367.072C441.256 367.264 427.509 358.671 426.857 358.212C420.498 353.744 418.19 344.392 417.388 344.093Z" fill="#D97E67"/>
<path d="M438.742 364.675L429.265 360.994C427.461 360.28 426.75 357.739 425.053 356.967C423.114 355.499 418.785 348.365 418.785 348.365C418.785 348.365 423.723 354.114 428.065 357.709C432.735 361.577 438.719 364.545 438.742 364.675Z" fill="#994F43"/>
<path d="M445.938 358.351C438.645 357.058 437.256 356.578 437.256 356.578C437.256 356.578 445.484 357.521 445.569 357.541C446.158 357.675 446.343 357.811 446.885 357.94C447.427 358.068 448.57 360.166 448.55 360.328C447.945 360.104 447.594 358.644 445.938 358.351Z" fill="#994F43"/>
<path d="M454.815 320.539C455.402 320.686 455.99 320.828 456.58 320.962C456.363 324.294 457.327 327.421 457.327 327.421C457.327 327.421 455.112 323.975 454.815 320.539Z" fill="#7F5D4B"/>
</svg>