<svg xmlns="http://www.w3.org/2000/svg" fill="none" viewBox="404.24 322.9 54.72 66.08">
<path d="M444.344 361.432C441.02 364.389 438.77 365.53 435.832 365.942C435.695 365.716 435.533 365.498 435.342 365.289C434.865 364.401 434.22 363.617 433.448 362.981C432.27 359.68 422.525 357.339 420.996 354.176C419.889 351.885 425.959 349.182 425.779 347.037C426.474 347.032 427.18 347.03 427.897 347.03C449.643 347.03 450.138 342.779 450.138 342.779C450.138 342.779 450.799 344.226 450.702 346.79C450.489 352.437 448.514 357.724 444.344 361.432Z" fill="#482520"/>
<path opacity="0.01" d="M427.733 373.048L427.578 371.191V348.315L427.932 344.417L427.878 344.065L427.964 343.719V340.981L428.099 339.493L428.132 339.296L429.417 338.596L431.891 337.359L432.826 337.047L435.768 336.311L437.628 336.168L438.251 335.961H438.908L440.066 335.671L440.479 335.612H446.686L447.458 335.805H448.23L448.647 335.701L449.305 335.791L449.773 335.42L452.09 334.84L452.217 334.619C454.283 334.925 456.783 335.476 458.96 335.943C458.96 335.943 458.851 352.195 458.207 354.586C454.478 368.438 447.31 367.855 447.444 370.377C442.574 372.375 434.56 372.033 429.781 375.476C429.288 374.521 428.606 373.712 427.733 373.048Z" fill="#121212"/>
<path d="M456.452 342.982C455.634 345.456 425.168 350.321 423.592 352.562C422.634 353.926 433.239 354.861 437.11 356.605C442.824 359.181 448.659 359.253 447.053 362.339C446.386 363.619 446.042 366.058 443.843 367.687C442.086 368.99 438.545 372.737 437.11 374.028C434.384 376.478 433.759 378.66 433.898 380.532C434.111 383.39 434.158 386.059 434.059 388.549C412.591 380.414 397.179 368.048 407.551 345.226C415.084 328.653 431.81 323.21 451.763 322.903C452.506 323.114 453.253 323.315 454.003 323.505C454.012 331.502 458.831 334.902 456.672 341.438L456.452 342.982Z" fill="#E1A585"/>
<path d="M445.823 365.866C441.814 368.352 438.047 373.039 436 376.395C433.014 380.419 433.569 384.927 434.259 388.981C433.739 388.784 433.159 388.554 432.646 388.352C432.663 386.414 432.572 384.525 432.646 384.473C432.341 383.383 432.156 382.361 432.08 381.4C432.349 378.84 432.915 376.414 434.259 374.781C435.166 373.68 437.467 371.891 439.141 370.218C442.829 366.531 446.45 362.657 446.45 362.657L445.823 365.866Z" fill="#7F5D4B"/>
<path d="M454.948 333.26C455.207 330.658 454.292 326.971 453.998 323.56C454.58 323.706 455.164 323.846 455.75 323.98C455.534 327.288 455.264 330.571 455.034 333.836C454.937 333.524 454.948 333.26 454.948 333.26Z" fill="#7F5D4B"/>
<path opacity="0.01" fill-rule="evenodd" clip-rule="evenodd" d="M421.052 344.309C418.973 345.117 417.002 346.149 415.129 347.407C414.5 346.763 413.981 346.048 413.557 345.26C414.834 344.381 416.243 343.743 417.776 343.344C418.871 342.46 418.904 341.627 417.874 340.847C417.186 337.089 418.639 335.341 422.225 335.603C422.592 335.963 422.849 336.39 423.003 336.884C422.132 337.961 421.261 339.038 420.389 340.114C420.402 341.472 420.62 342.871 421.052 344.309Z" fill="#0F0F0F"/>
<path opacity="0.01" fill-rule="evenodd" clip-rule="evenodd" d="M417.875 340.847C416.773 342.521 415.38 342.743 413.705 341.514C415.019 340.773 416.403 340.551 417.875 340.847Z" fill="black"/>
<path opacity="0.01" fill-rule="evenodd" clip-rule="evenodd" d="M438.064 354.16C438.108 353.051 437.575 352.473 436.475 352.429C436.652 351.292 436.556 350.176 436.193 349.083C435.804 350.115 435.095 350.643 434.059 350.665C434.215 351.748 433.901 352.569 433.132 353.129C433.269 352.404 433.018 351.838 432.371 351.431C431.608 352.089 431.302 352.91 431.445 353.895C430.788 352.893 430.278 351.76 429.922 350.5C429.437 346.623 428.479 342.973 427.041 339.547C426.087 338.735 424.997 338.413 423.764 338.582C423.14 331.742 425.382 330.998 430.482 336.35C431.144 339.289 432.143 342.107 433.462 344.806C434.667 343.88 435.615 344.196 436.324 345.754C437.451 348.274 438.594 350.821 439.751 353.394C439.345 354.043 438.787 354.298 438.064 354.16ZM433.132 353.129C432.567 353.384 432.01 353.64 431.445 353.895C431.302 352.91 431.608 352.089 432.371 351.431C433.018 351.838 433.269 352.404 433.132 353.129ZM438.064 354.16C438.108 353.051 437.575 352.473 436.475 352.429C436.715 353.272 437.247 353.85 438.064 354.16Z" fill="#171717"/>
<path opacity="0.01" fill-rule="evenodd" clip-rule="evenodd" d="M421.052 344.309C421.879 344.342 422.707 344.375 423.534 344.408C422.291 345.463 422.536 346.167 424.279 346.522C422.997 347.935 423.231 348.917 424.991 349.469C423.244 350.492 421.448 350.42 419.613 349.253C420.26 347.769 420.74 346.121 421.052 344.309Z" fill="black"/>
<path opacity="0.01" fill-rule="evenodd" clip-rule="evenodd" d="M439.056 350.032C439.834 348.999 440.661 349.032 441.538 350.131C440.742 350.984 439.914 350.951 439.056 350.032Z" fill="black"/>
<path opacity="0.012" fill-rule="evenodd" clip-rule="evenodd" d="M423.534 344.409C424.634 344.453 425.743 344.497 426.843 344.541C427.519 346.721 428.543 348.707 429.922 350.5C430.278 351.76 430.789 352.893 431.445 353.895C432.01 353.64 432.567 353.384 433.133 353.129C433.901 352.569 434.215 351.748 434.059 350.665C435.096 350.642 435.804 350.115 436.193 349.083C436.556 350.176 436.653 351.292 436.475 352.429C436.715 353.272 437.248 353.85 438.064 354.16C438.061 355.063 438.301 355.906 438.792 356.69C438.085 357.401 437.247 357.645 436.278 357.423C436.046 355.111 434.978 354.235 433.067 354.794C433.713 356.693 433.917 358.646 433.664 360.653C432.836 360.62 432.009 360.587 431.182 360.554C430.376 359.965 429.571 359.378 428.766 358.79C428.777 358.512 428.788 358.234 428.798 357.957C428.634 355.422 427.61 353.436 425.72 351.999C425.961 350.932 425.712 350.088 424.991 349.468C423.231 348.917 422.997 347.935 424.279 346.522C422.536 346.167 422.291 345.463 423.534 344.409ZM433.133 353.129C432.567 353.384 432.01 353.64 431.445 353.895C431.302 352.91 431.608 352.089 432.371 351.431C433.018 351.838 433.269 352.404 433.133 353.129Z" fill="#3D3D3D"/>
<path opacity="0.01" fill-rule="evenodd" clip-rule="evenodd" d="M425.72 351.999C427.61 353.436 428.634 355.422 428.799 357.957C426.579 358.146 426.568 358.424 428.766 358.79C429.571 359.378 430.377 359.965 431.182 360.554C432.009 360.587 432.837 360.62 433.664 360.653C433.455 361.967 433.118 363.343 432.672 364.782C431.195 365.246 429.921 366.029 428.85 367.129C426.857 366.404 425.812 364.974 425.706 362.835C425.07 364.038 424.08 364.554 422.744 364.384C422.777 363.552 422.81 362.719 422.843 361.887C423.67 361.92 424.498 361.953 425.325 361.987C425.208 359.694 425.837 357.635 427.226 355.81C426.429 354.805 425.64 353.8 424.86 352.798C424.979 352.297 425.271 352.031 425.72 351.999ZM431.182 360.554C431.312 362.303 430.559 363.94 428.916 365.465C426.158 362.497 426.919 360.86 431.182 360.554Z" fill="black"/>
<path opacity="0.01" fill-rule="evenodd" clip-rule="evenodd" d="M436.278 357.423C435.117 358.286 434.246 359.363 433.664 360.653C433.918 358.646 433.713 356.693 433.067 354.794C434.979 354.235 436.046 355.112 436.278 357.423Z" fill="black"/>
<path d="M448.071 348.153L448.234 348.108C448.938 348.876 449.766 348.983 450.638 348.806C450.894 349.923 452.138 349.527 452.311 350.653C452.488 351.809 452.342 355.897 450.638 355.798C442.903 353.693 433.332 355.344 426.13 352.143C426.269 349.909 446.712 350.764 446.135 348.351C446.93 348.226 447.61 348.148 448.071 348.153Z" fill="#F9F9F9"/>
<path d="M422.108 352.555C422.145 351.798 439.451 346.411 441.276 344.13C442.833 344.06 449.371 340.943 451.207 342.5C455.66 342.844 457.684 343.471 456.246 345.623C455.627 346.55 455.053 349.063 453.362 350.014C451.463 351.081 448.819 351.554 445.34 351.449C441.648 351.338 434.281 352.402 434.181 352.174C434.181 352.174 422.071 353.313 422.108 352.555Z" fill="#CD6B5B"/>
<path d="M419.723 352.166C421.431 352.263 427.031 349.649 433.966 346.768C434.762 346.437 445.61 341.543 448.94 340.464C453.195 339.35 456.416 342.49 456.604 342.711C455.999 343.007 456.529 343.609 456.014 344.068C455.164 343.31 449.39 342.059 443.7 344.28C440.437 345.553 436.769 347.837 435.594 348.26C434.661 348.864 425.256 351.654 424.176 352.121C424.419 352.099 426.786 352.402 433.217 351.774C438.736 351.236 446.131 349.721 452.836 350.477C451.75 350.586 450.612 351.516 449.449 351.625C449.449 351.625 442.135 352.235 438.959 352.271C425.836 354.512 419.723 352.166 419.723 352.166Z" fill="#994F43"/>
<path d="M429.084 356.995C428.657 356.628 421.981 352.53 421.392 352.25C432.697 353.079 435.545 356.032 441.708 356.644C441.708 356.644 448.836 355.413 449.509 355.299C456.1 357.854 450.262 367.034 444.869 367.471C442.817 367.637 439.665 364.344 435.358 360.95C432.987 359.082 430.625 358.318 429.084 356.995Z" fill="#D97E67"/>
<path d="M425.858 354.881C430.092 355.37 434.956 359.363 436.428 362.207L436.73 362.425C436.73 362.425 436.913 362.594 436.973 362.823L435.807 361.767C434.476 361.098 433.188 360.397 431.925 359.677C430.413 358.323 428.505 357.075 426.731 356.606C426.072 356.21 424.09 354.073 423.426 353.681C423.613 353.048 425.858 354.881 425.858 354.881Z" fill="#994F43"/>
</svg>