<svg xmlns="http://www.w3.org/2000/svg" fill="none" viewBox="403.33 319.96 54.66 67.11">
<path d="M456.906 338.901C456.071 341.429 447.704 349.782 446.094 352.072C443.668 355.524 449.83 358.323 447.076 363.612C445.85 365.967 440.217 369.235 436.915 372.204C434.131 374.708 433.491 376.937 433.634 378.85C433.851 381.771 433.899 384.498 433.798 387.043C411.86 378.73 396.111 366.093 406.711 342.771C414.408 325.836 431.5 320.275 451.889 319.96C452.649 320.176 453.412 320.382 454.178 320.576C454.188 328.748 459.113 332.222 456.906 338.901Z" fill="#E1A585"/>
<path d="M448.095 365.148L447.144 367.329C442.597 369.418 437.874 371.418 435.782 374.847C432.731 378.959 433.156 382.924 433.861 387.067C433.33 386.866 432.802 386.662 432.279 386.456C432.296 384.476 432.279 383.155 432.355 383.103C432.044 381.989 431.854 380.944 431.776 379.962C432.051 377.346 432.63 374.867 434.003 373.199C436.972 369.593 443.129 367.802 446.901 365.155C447.253 364.907 447.606 364.659 447.959 364.412C448.109 364.793 448.095 365.148 448.095 365.148Z" fill="#7F5D4B"/>
<path d="M455.144 330.544C455.41 327.885 454.475 324.118 454.174 320.632C454.769 320.781 455.366 320.924 455.964 321.061C455.744 324.441 455.468 327.797 455.233 331.132C455.133 330.814 455.144 330.544 455.144 330.544Z" fill="#7F5D4B"/>
<path d="M439.441 350.999C437.557 351.888 435.797 352.463 434.705 352.419C434.705 352.419 433.936 352.388 433.967 351.614C433.997 350.841 434.766 350.871 434.766 350.871C438.12 351.006 445.255 346.012 446.985 343.338C448.273 343.268 455.834 336.817 456.901 338.86C457.202 339.436 457.748 340.979 456.56 343.178C456.047 344.125 453.187 348.528 451.789 349.499C448.553 351.747 445.048 351.671 440.904 351.505L440.135 351.474C440.135 351.474 439.602 351.452 439.441 350.999Z" fill="#CD6B5B"/>
<path d="M434.065 355.342C433.732 355.006 431.611 352.855 431.164 352.617C435.028 351.546 440.173 351.862 444.735 352.045C444.735 352.045 445.155 352.062 445.644 351.901C451.05 353.861 451.311 364.949 447.368 365.759C445.868 366.067 442.219 361.94 438.879 358.853C437.041 357.154 435.265 356.555 434.065 355.342Z" fill="#D97E67"/>
<path d="M435.037 352.738C435.037 352.738 434.506 352.979 434.16 352.577C432.908 353.117 431.851 353.453 431.198 353.441C431.198 353.441 430.429 353.41 430.46 352.636C430.491 351.863 431.26 351.893 431.26 351.893C432.941 352.019 442.81 346.227 444.186 344.807C446.76 343.667 456.06 334.725 457.983 337.723C457.517 338.025 457.085 338.415 456.689 338.885C455.658 337.664 447.518 344.913 445.036 346.098C443.986 347 441.187 349.208 438.552 350.72C440.712 350.454 445.959 350.464 448.412 351.745C447.575 351.856 446.224 352.131 445.328 352.241C445.328 352.241 443.311 352.189 440.865 352.226C438.527 352.261 435.773 352.377 435.037 352.738Z" fill="#994F43"/>
<path d="M431.585 353.457C434.723 353.651 438.503 357.298 439.73 360.033L439.963 360.229C439.963 360.229 440.107 360.385 440.162 360.609L439.251 359.637C438.239 359.062 437.256 358.451 436.29 357.821C435.11 356.574 433.643 355.462 432.315 355.117C431.81 354.768 431.304 354.419 430.796 354.074C430.901 353.43 431.585 353.457 431.585 353.457Z" fill="#994F43"/>
<path opacity="0.01" fill-rule="evenodd" clip-rule="evenodd" d="M420.507 341.835C418.383 342.661 416.368 343.716 414.454 345C413.812 344.343 413.282 343.612 412.848 342.806C414.153 341.909 415.593 341.257 417.159 340.849C418.279 339.945 418.312 339.094 417.26 338.298C416.556 334.457 418.041 332.671 421.706 332.938C422.081 333.306 422.343 333.742 422.501 334.248C421.611 335.348 420.72 336.449 419.83 337.549C419.843 338.936 420.066 340.365 420.507 341.835Z" fill="#0F0F0F"/>
<path opacity="0.01" fill-rule="evenodd" clip-rule="evenodd" d="M417.266 338.298C416.138 340.011 414.713 340.238 412.999 338.98C414.343 338.222 415.76 337.994 417.266 338.298Z" fill="black"/>
<path opacity="0.01" fill-rule="evenodd" clip-rule="evenodd" d="M437.891 351.902C437.936 350.768 437.392 350.178 436.268 350.133C436.449 348.971 436.351 347.83 435.98 346.714C435.582 347.768 434.858 348.307 433.799 348.33C433.958 349.437 433.637 350.275 432.852 350.848C432.992 350.107 432.735 349.529 432.074 349.113C431.294 349.785 430.981 350.624 431.128 351.631C430.457 350.607 429.936 349.449 429.572 348.161C429.076 344.2 428.098 340.469 426.627 336.969C425.652 336.139 424.539 335.81 423.279 335.983C422.641 328.993 424.932 328.233 430.143 333.702C430.821 336.705 431.841 339.585 433.189 342.343C434.42 341.397 435.39 341.72 436.114 343.312C437.266 345.887 438.433 348.489 439.616 351.119C439.2 351.782 438.631 352.043 437.891 351.902ZM432.852 350.848C432.275 351.109 431.706 351.37 431.128 351.631C430.981 350.624 431.294 349.785 432.074 349.113C432.735 349.529 432.992 350.107 432.852 350.848ZM437.891 351.902C437.936 350.768 437.392 350.178 436.268 350.133C436.513 350.995 437.057 351.585 437.891 351.902Z" fill="#171717"/>
<path opacity="0.01" fill-rule="evenodd" clip-rule="evenodd" d="M420.508 341.835C421.354 341.869 422.2 341.903 423.047 341.937C421.775 343.016 422.026 343.736 423.809 344.1C422.497 345.545 422.737 346.549 424.537 347.113C422.75 348.16 420.913 348.086 419.036 346.893C419.698 345.375 420.188 343.689 420.508 341.835Z" fill="black"/>
<path opacity="0.01" fill-rule="evenodd" clip-rule="evenodd" d="M438.904 347.682C439.698 346.628 440.543 346.662 441.437 347.783C440.624 348.654 439.78 348.62 438.904 347.682Z" fill="black"/>
<path opacity="0.012" fill-rule="evenodd" clip-rule="evenodd" d="M423.043 341.937C424.168 341.982 425.3 342.027 426.425 342.072C427.116 344.3 428.162 346.33 429.571 348.161C429.935 349.449 430.457 350.607 431.127 351.631C431.705 351.37 432.274 351.109 432.852 350.848C433.637 350.276 433.958 349.437 433.798 348.33C434.858 348.307 435.582 347.768 435.979 346.714C436.35 347.83 436.449 348.971 436.267 350.133C436.513 350.995 437.057 351.585 437.891 351.902C437.888 352.824 438.134 353.686 438.635 354.487C437.912 355.213 437.056 355.462 436.066 355.236C435.829 352.874 434.738 351.978 432.785 352.549C433.445 354.49 433.654 356.486 433.395 358.537C432.549 358.503 431.704 358.469 430.858 358.435C430.035 357.834 429.212 357.234 428.389 356.632C428.4 356.349 428.412 356.065 428.423 355.782C428.254 353.191 427.209 351.162 425.277 349.693C425.523 348.603 425.269 347.741 424.532 347.107C422.734 346.544 422.494 345.54 423.804 344.097C422.024 343.734 421.773 343.015 423.043 341.937ZM432.852 350.848C432.274 351.109 431.705 351.37 431.127 351.631C430.981 350.624 431.294 349.785 432.074 349.113C432.735 349.529 432.991 350.107 432.852 350.848Z" fill="#3D3D3D"/>
<path opacity="0.01" fill-rule="evenodd" clip-rule="evenodd" d="M425.276 349.693C427.208 351.162 428.254 353.191 428.422 355.782C426.154 355.975 426.143 356.259 428.389 356.632C429.212 357.234 430.035 357.834 430.858 358.435C431.703 358.469 432.549 358.503 433.394 358.537C433.18 359.879 432.837 361.285 432.38 362.756C430.871 363.23 429.57 364.03 428.475 365.155C426.438 364.414 425.37 362.952 425.262 360.767C424.612 361.996 423.6 362.523 422.235 362.349C422.269 361.499 422.303 360.648 422.336 359.798C423.182 359.832 424.027 359.866 424.873 359.899C424.754 357.557 425.396 355.453 426.816 353.588C426.001 352.56 425.195 351.534 424.397 350.51C424.519 349.997 424.818 349.726 425.276 349.693ZM430.858 358.435C430.991 360.222 430.221 361.896 428.542 363.454C425.724 360.421 426.502 358.748 430.858 358.435Z" fill="black"/>
<path opacity="0.01" fill-rule="evenodd" clip-rule="evenodd" d="M436.069 355.239C434.882 356.121 433.99 357.223 433.396 358.544C433.655 356.49 433.446 354.492 432.785 352.55C434.74 351.978 435.832 352.875 436.069 355.239Z" fill="black"/>
</svg>