<svg xmlns="http://www.w3.org/2000/svg" fill="none" viewBox="314.93 328.25 82.08 71.92">
<path d="M393.921 357.997C392.302 365.979 388.691 380.004 385.739 387.562C385.225 388.879 384.827 390.378 384.497 391.97C368.94 400.065 347.82 402.955 331.851 397.012C318.569 384.956 310.705 361.217 317.317 345.526C317.918 344.1 318.619 342.78 319.41 341.559C327.17 336.968 335.288 332.264 344.168 329.103C347.05 329.013 350.046 328.703 353.121 328.268C364.643 328.533 376.276 331.295 384.045 334.159C386.458 334.992 388.715 336.014 390.847 337.191C392.658 338.977 394.525 340.691 396.576 342.083C396.079 346.821 395.497 351.692 393.921 357.997Z" fill="#E1A585"/>
<path d="M396.746 350.518C394.29 363.052 387.891 378.719 385.405 391.268C385.405 391.268 386.793 377.716 389.086 371.005C391.839 362.745 392.68 354.226 395.374 345.851C395.374 344.392 395.507 342.931 395.709 341.468C396.135 341.783 396.569 342.085 397.011 342.371C396.872 345.08 396.757 347.795 396.746 350.518Z" fill="#7F5D4B"/>
<path d="M379.428 372.505C373.073 378.157 375.65 377.084 364.598 377.084C343.143 377.084 329.813 356.392 329.813 356.392C329.813 356.392 341.366 353.726 362.82 353.726C384.275 353.726 384.763 349.532 384.763 349.532C384.763 349.532 385.415 350.959 385.32 353.488C385.109 359.06 383.542 368.846 379.428 372.505Z" fill="#482520"/>
<path d="M339.082 355.804L339.118 355.756C339.202 355.662 339.384 355.541 339.633 355.406C341.805 354.815 343.62 354.281 344.506 354.183C348.575 353.73 359.541 351.904 363.144 351.904L363.471 351.843C366.05 354.077 370.849 351.887 374.779 351.015C377.167 351.123 381.195 351.326 382.94 351.904C383.279 352.254 384.441 356.902 381.543 358.323C380.185 358.99 376.986 360.792 368.053 361.324C357.974 361.925 344.173 361.793 340.908 359.722C339.614 358.901 336.303 356.74 336.257 355.756C336.257 355.756 338.746 355.862 339.082 355.804Z" fill="#F9F9F9"/>
<path d="M370.556 365.303C373.87 366.858 385.409 370.025 377.018 373.664C371.982 373.732 366.965 375.145 361.847 375.145C356.75 375.145 351.195 375.347 346.117 375.44C345.397 375.43 344.584 375.304 343.745 375.082C343.584 374.774 343.416 374.467 343.241 374.162C344.288 374.505 345.306 374.693 346.117 374.678C351.276 374.748 356.69 374.384 361.847 374.384C366.859 374.384 371.907 372.833 376.823 372.923C381.693 370.638 377.477 368.662 373.716 367.278C373.742 367.334 373.759 367.403 373.743 367.478C373.082 367.247 372.412 367.02 371.775 366.744C371.337 366.744 370.545 366.65 369.584 366.548C366.75 365.732 363.157 365.255 361.672 366.905C361.773 366.95 361.873 366.995 361.973 367.04C361.546 367.34 361.28 367.75 361.243 368.299L360.674 368.044C357.662 366.692 355.089 366.077 351.801 366.028C351.314 365.92 350.815 365.851 350.301 365.851C347.656 365.851 341.078 365.198 339.275 367.494C339.148 367.509 338.969 367.487 338.856 367.285C338.667 366.944 339.046 366.774 339.046 366.774C339.239 366.687 339.432 366.605 339.624 366.528C339.613 366.52 339.602 366.511 339.591 366.501C339.319 366.627 339.048 366.753 338.778 366.882C338.663 366.984 338.557 367.087 338.46 367.191C338.258 367.02 338.046 366.859 337.826 366.71C337.961 366.563 338.109 366.417 338.271 366.271C338.512 366.153 338.754 366.037 338.997 365.924C342.396 365.591 345.736 364.553 349.394 364.553C350.589 364.553 352.11 364.458 353.629 364.454C353.863 364.513 354.094 364.58 354.321 364.657C355.67 364.701 357.102 365.082 358.489 365.582C361.896 364.339 367.395 363.932 370.556 365.303ZM341.955 365.72C341.855 365.767 341.762 365.815 341.672 365.863C341.868 365.813 342.065 365.768 342.261 365.726L341.955 365.72ZM367.765 365.324C368.289 365.416 368.81 365.528 369.317 365.657C368.839 365.511 368.317 365.401 367.765 365.324Z" fill="#B65E50"/>
<path d="M369.664 366.522C370.625 366.624 371.419 366.723 371.857 366.723C372.494 367 373.165 367.233 373.826 367.463C373.842 367.388 373.825 367.318 373.799 367.262C377.56 368.646 381.777 370.65 376.907 372.935C371.991 372.845 366.911 374.444 361.898 374.444C356.741 374.444 351.197 374.777 346.039 374.707C345.257 374.721 344.283 374.545 343.276 374.223C342.422 372.721 341.43 371.255 340.558 369.877C340.505 369.793 340.43 369.683 340.337 369.554C339.862 368.625 339.203 367.806 338.406 367.146C338.495 367.053 338.591 366.96 338.695 366.868C338.965 366.739 339.237 366.61 339.508 366.485C339.519 366.494 339.696 366.536 339.707 366.545C339.515 366.622 339.322 366.702 339.129 366.789C339.129 366.789 338.75 366.957 338.94 367.298C339.052 367.5 339.064 367.498 339.191 367.482C340.994 365.186 347.584 365.812 350.228 365.812C350.743 365.812 351.245 365.876 351.732 365.983C355.02 366.033 357.722 366.638 360.733 367.99L361.175 368.344C361.211 367.795 361.485 367.393 361.912 367.093C361.812 367.048 361.83 366.894 361.729 366.849C363.215 365.199 366.829 365.706 369.664 366.522Z" fill="#C36556"/>
<path d="M376.327 374.049L376.301 374.071C376.24 374.116 376.109 374.171 375.931 374.231C374.383 374.472 373.088 374.692 372.46 374.721C369.57 374.852 361.772 375.501 359.219 375.421L358.986 375.444C357.193 374.295 353.76 375.259 350.961 375.598C349.271 375.492 346.42 375.303 345.193 374.982C344.957 374.804 344.206 372.507 346.28 371.877C347.253 371.582 349.547 370.772 355.884 370.71C363.035 370.64 372.811 371.01 375.093 372.094C375.998 372.524 378.311 373.653 378.328 374.135C378.328 374.135 376.566 374.028 376.327 374.049Z" fill="#F9F9F9"/>
<path d="M351.473 384.706L351.531 384.687C351.551 384.696 351.57 384.706 351.59 384.715C352.146 384.76 352.689 384.84 353.221 384.939C354.053 384.802 354.813 384.377 355.774 384.41C356.039 384.279 356.342 384.158 356.675 384.048C359.12 383.966 361.558 383.841 364.061 383.841C365.344 383.841 366.617 384.173 367.886 384.323C367.889 384.325 367.891 384.326 367.894 384.327L367.895 384.325C368.052 384.343 368.209 384.359 368.365 384.371L368.522 384.448C368.712 384.537 368.844 384.728 368.844 384.949C368.844 385.17 368.712 385.361 368.522 385.45L368.094 385.66C366.974 387.752 362.77 387.441 360.686 387.441C359.98 387.441 359.299 387.377 358.634 387.273C355.977 387.335 353.194 387.209 351.213 385.874L351.15 385.998L350.708 385.78C350.658 385.78 350.608 385.779 350.558 385.779C350.558 385.779 349.995 385.779 349.995 385.226C349.995 384.672 350.558 384.672 350.558 384.672C350.635 384.672 350.712 384.672 350.788 384.674C350.805 384.672 350.822 384.672 350.839 384.672H351.402V384.701C351.426 384.702 351.45 384.704 351.473 384.706Z" fill="#D1997B"/>
<path d="M349.401 384.422C349.656 384.422 349.912 384.422 350.167 384.422C354.97 382.543 361.904 383.553 366.956 383.6C367.585 383.807 368.262 383.877 368.925 383.877L369.02 383.948L369.035 383.904L369.863 384.176C370.007 384.219 370.131 384.307 370.219 384.422C369.938 384.422 369.656 384.422 369.375 384.422C362.503 384.423 355.609 384.661 348.717 384.695L349.401 384.422Z" fill="#7F5D4B"/>
<path opacity="0.01" d="M344.168 329.104C344.816 328.873 345.468 328.651 346.124 328.437C348.429 328.264 350.772 328.214 353.121 328.268C350.046 328.703 347.05 329.013 344.168 329.104Z" fill="black"/>
<path opacity="0.01" fill-rule="evenodd" clip-rule="evenodd" d="M355.362 355.929C356.467 356.482 356.467 356.482 355.362 355.929V355.929Z" fill="black"/>
<path opacity="0.01" fill-rule="evenodd" clip-rule="evenodd" d="M356.191 368.362C353.916 368.846 351.982 369.952 350.389 371.677C348.032 368.737 348.861 367.079 352.876 366.704C353.933 365.781 353.933 364.952 352.876 364.217C352.009 360.671 353.252 358.461 356.606 357.586C357.737 358.492 358.014 359.597 357.435 360.902C356.588 361.61 355.897 362.439 355.362 363.389C355.565 365.088 355.841 366.746 356.191 368.362Z" fill="#101010"/>
<path opacity="0.01" fill-rule="evenodd" clip-rule="evenodd" d="M374.427 372.507C374.467 374.661 375.296 376.457 376.914 377.894C376.207 379.327 375.378 379.465 374.427 378.309C374.427 377.204 373.874 376.651 372.769 376.651C372.902 375.243 372.764 373.861 372.355 372.507C372.124 373.266 371.71 373.818 371.111 374.164C370.18 373.123 369.629 373.398 369.454 374.993C368.715 375.499 367.886 375.775 366.967 375.822C365.144 374.849 363.486 375.263 361.993 377.065C363.798 378.535 365.317 380.33 366.552 382.453C366.828 381.9 367.105 381.348 367.381 380.796C367.746 382.102 368.436 383.208 369.453 384.111C368.838 384.676 368.286 385.229 367.796 385.769C368.625 385.769 369.453 385.769 370.282 385.769C369.387 387.05 369.387 388.293 370.282 389.499C368.798 390.936 367.141 392.179 365.309 393.229C363.451 392.788 362.208 391.683 361.579 389.913C360.242 390.843 359.274 390.429 358.678 388.67C361.388 387.406 362.217 385.472 361.164 382.868C361.789 381.635 362.479 381.497 363.236 382.453C363.843 380.625 363.29 379.244 361.579 378.309C361.085 377.149 361.224 376.044 361.993 374.993C361.699 374.146 361.146 373.593 360.335 373.336C359.609 373.444 359.056 373.168 358.677 372.507C359.782 371.402 359.782 370.296 358.677 369.191C359.762 368.258 360.867 368.258 361.993 369.191C363.019 369.448 363.019 369.863 361.993 370.434C363.694 371.205 364.937 372.449 365.723 374.164C365.864 372.106 365.173 370.311 363.651 368.777C365.746 367.686 365.746 366.718 363.651 365.876C363.109 364.537 362.694 363.155 362.408 361.731C361.249 361.274 360.143 360.998 359.092 360.902C358.834 359.198 358.42 357.54 357.849 355.929C358.104 355.259 358.518 354.706 359.092 354.271C359.921 355.376 360.75 355.376 361.579 354.271C363.375 356.067 365.17 357.863 366.966 359.659C366.534 360.124 366.258 360.677 366.138 361.317C367.62 363.433 368.587 365.781 369.039 368.362C369.908 367.519 370.875 367.381 371.94 367.948C372.345 369.779 373.175 371.298 374.427 372.507ZM371.111 374.164C370.558 374.44 370.006 374.717 369.454 374.993C369.629 373.398 370.18 373.123 371.111 374.164ZM369.454 374.993C369.073 378.744 368.244 379.02 366.967 375.822C367.886 375.775 368.715 375.499 369.454 374.993ZM374.427 378.309C374.427 377.204 373.874 376.651 372.769 376.651C373.045 377.48 373.598 378.033 374.427 378.309ZM367.796 385.769C367.724 386.594 368.001 387.285 368.625 387.841C367.167 388.676 366.199 389.92 365.723 391.571C365.497 390.055 364.806 388.811 363.651 387.841C364.577 386.273 365.959 385.582 367.796 385.769Z" fill="#161616"/>
<path opacity="0.01" fill-rule="evenodd" clip-rule="evenodd" d="M352.876 364.218C352.129 366.064 350.748 366.893 348.731 366.704C348.731 365.876 348.731 365.047 348.731 364.218C350.273 363.744 351.655 363.744 352.876 364.218Z" fill="black"/>
<path opacity="0.01" fill-rule="evenodd" clip-rule="evenodd" d="M361.993 369.191C360.868 368.258 359.762 368.258 358.678 369.191C359.782 370.296 359.782 371.402 358.678 372.507C359.056 373.168 359.609 373.444 360.335 373.335C358.223 375.501 356.289 375.363 354.533 372.921C355.173 371.909 356.002 371.08 357.02 370.434C356.397 369.878 356.12 369.188 356.191 368.362C358.52 366.971 360.454 367.247 361.993 369.191Z" fill="#030303"/>
<path opacity="0.01" fill-rule="evenodd" clip-rule="evenodd" d="M375.256 372.507C374.98 372.507 374.703 372.507 374.427 372.507C374.703 370.296 374.98 370.296 375.256 372.507Z" fill="black"/>
<path opacity="0.01" fill-rule="evenodd" clip-rule="evenodd" d="M375.256 372.506C376.481 372.289 377.586 372.565 378.571 373.335C378.019 373.611 377.466 373.888 376.914 374.164C375.908 373.959 375.355 373.406 375.256 372.506Z" fill="black"/>
<path opacity="0.012" fill-rule="evenodd" clip-rule="evenodd" d="M369.453 374.993C369.073 378.744 368.244 379.02 366.967 375.822C367.886 375.775 368.715 375.499 369.453 374.993Z" fill="#484848"/>
<path opacity="0.016" fill-rule="evenodd" clip-rule="evenodd" d="M372.769 376.651C373.045 377.48 373.598 378.033 374.426 378.309C374.872 379.649 375.148 381.031 375.255 382.453C373.638 382.679 372.395 382.127 371.525 380.795C371.367 382.626 370.953 384.283 370.282 385.769C370.411 383.642 370.134 381.57 369.453 379.552C369.876 378.038 370.567 377.9 371.525 379.138C371.718 378.112 372.132 377.283 372.769 376.651Z" fill="#1E1E1E"/>
<path d="M366.765 372.412C367.413 372.163 374.866 370.115 375.599 369.795C376.976 369.391 380.222 370.511 381.134 368.854C382.775 365.873 386.5 349.713 386.932 349.126C388.37 347.166 382.904 371.842 380.566 374.696C378.976 376.636 375.482 377.364 374.551 378.181C372.123 379.878 368.523 380.186 366.366 380.314C362.239 380.559 354.221 381.07 350.966 380.08C345.549 378.434 340.745 372.634 338.219 370.557C338.088 370.449 329.357 356.939 328.945 356.399C328.628 355.985 330.159 356.429 330.159 356.429C330.159 356.429 342.261 370.879 343.022 370.832C343.022 370.832 345.838 371.36 350.598 370.676C350.598 370.676 363.145 373.578 366.765 372.412Z" fill="#D97E67"/>
<path d="M352.7 380.674C349.739 380.667 348.099 379.584 347.656 379.303C344.846 377.517 338.074 370.267 337.591 369.923C339.046 369.9 346.02 378.471 351.472 379.805C356.062 379.833 358.258 380.318 362.859 380.462C362.681 380.502 355.964 380.674 352.7 380.674Z" fill="#994F43"/>
<path d="M376.581 377.96C373.252 379.227 369.293 380.768 368.887 380.211C369.207 380.078 371.584 379.342 371.897 379.182C374.369 378.522 379.23 375.592 379.984 375.339C378.522 376.382 378.816 377.11 376.581 377.96Z" fill="#994F43"/>
<path d="M333.11 356.037C331.231 356.189 330.468 356.222 328.345 356.228C334.66 354.766 341.671 351.965 346.365 350.164C349.036 349.279 351.607 348.069 354.062 346.836C355.475 346.314 356.931 345.938 358.594 346.227C361.699 346.767 365.825 349.166 369.233 348.473C371.78 347.954 375.227 346.287 377.7 345.356C378.033 345.321 378.367 345.304 378.699 345.302C380.755 346.334 383.007 347.144 385.363 347.724C386.097 348.447 387.762 347.995 387.641 348.771C387.492 349.721 385.766 353.141 383.962 353.724C380.927 354.705 372.267 355.78 368.088 355.768C364.756 356.194 360.347 355.201 357.842 355.267C353.993 355.368 352.235 356.37 347.046 356.37C342.961 356.37 341.576 356.837 337.524 356.92L333.11 356.037Z" fill="#CD6B5B"/>
<path d="M357.341 345.353C358.735 345.491 365.752 347.445 367.075 347.949L367.697 348.188C370.511 347.002 373.315 345.759 376.173 344.659L376.482 344.495C376.73 344.301 377.011 344.249 377.256 344.256C377.498 344.241 377.778 344.282 378.033 344.462C380.532 345.626 382.992 346.797 385.609 347.799L386.495 348.068C386.495 348.068 387.314 348.319 387.246 348.93C383.905 348.104 380.856 346.954 377.354 345.463C374.677 346.278 370.986 349.16 368.224 349.352C364.627 349.603 360.78 347.03 357.446 346.53C355.542 346.245 353.584 347.483 351.862 347.923C347.415 349.627 339.077 354.175 333.406 354.963C333.553 354.817 354.217 344.393 357.341 345.353Z" fill="#994F43"/>
<path d="M349.481 371.011C342.728 371.662 342.044 370.744 342.044 370.744C342.044 370.744 348.766 370.593 348.837 370.601C360.39 371.849 360.803 373.111 368.315 372.051C369.941 371.583 375.493 369.556 375.511 369.554C375.975 369.732 383.547 369.847 381.585 370.212C380.911 370.338 377.614 370.612 375.531 370.917C375.531 370.917 369.268 373.069 367.463 373.265C360.127 374.062 349.481 371.011 349.481 371.011Z" fill="#994F43"/>
<path d="M379.426 354.485C377.762 355.188 368.913 356.286 367.169 356.788C359.48 357.914 354.483 355.417 354.483 355.417C342.728 359.011 329.015 356.493 328.166 356.351C327.977 356.319 334.101 356.033 335.272 355.975C339.247 355.779 344.759 356.615 346.752 355.739C348.363 355.515 354.651 354.41 354.722 354.418C358.364 354.453 363.545 355.221 367.567 355.271C371.754 355.322 370.956 354.644 374.788 354.103C376.414 353.635 380.789 352.491 380.807 352.489C381.054 352.583 383.155 354.044 384.483 353.319C386.308 352.324 387.162 350.208 387.162 350.208C387.162 350.208 387.132 354.053 383.181 355.323L379.426 354.485Z" fill="#994F43"/>
</svg>