<svg xmlns="http://www.w3.org/2000/svg" fill="none" viewBox="315.08 327.05 82.08 71.92">
<path d="M394.074 356.803C392.455 364.785 388.844 378.81 385.892 386.368C385.378 387.684 384.98 389.184 384.651 390.775C369.094 398.87 347.973 401.76 332.004 395.818C318.722 383.761 310.859 360.023 317.47 344.332C318.071 342.906 318.773 341.585 319.564 340.365C327.324 335.774 335.441 331.07 344.322 327.909C347.204 327.818 350.199 327.508 353.274 327.074C364.796 327.339 376.43 330.1 384.199 332.965C386.612 333.798 388.868 334.82 391.001 335.996C392.811 337.782 394.678 339.497 396.73 340.889C396.232 345.627 395.651 350.497 394.074 356.803Z" fill="#E1A585"/>
<path d="M396.899 349.324C394.443 361.858 388.045 377.525 385.559 390.074C385.559 390.074 386.946 376.522 389.239 369.81C391.992 361.551 392.834 353.032 395.527 344.656C395.527 343.198 395.66 341.736 395.862 340.274C396.288 340.589 396.722 340.89 397.164 341.177C397.025 343.886 396.91 346.601 396.899 349.324Z" fill="#7F5D4B"/>
<path d="M379.119 369.693C372.406 374.778 375.128 373.813 363.453 373.813C340.79 373.813 326.709 355.198 326.709 355.198C326.709 355.198 338.912 352.799 361.576 352.799C384.239 352.799 384.755 349.026 384.755 349.026C384.755 349.026 385.443 350.31 385.342 352.586C385.12 357.598 383.465 366.402 379.119 369.693Z" fill="#482520"/>
<path d="M370.405 363.804C373.719 365.359 385.258 368.526 376.867 372.165C371.831 372.233 366.814 373.646 361.696 373.646C356.599 373.646 351.044 373.848 345.966 373.941C342.626 373.895 337.279 371.358 336.655 368.25C336.762 367.268 336.983 366.249 337.468 365.449C337.653 365.223 337.87 364.997 338.12 364.772C338.362 364.653 338.603 364.538 338.846 364.425C342.245 364.092 345.585 363.054 349.243 363.054C350.438 363.054 351.959 362.959 353.478 362.955C353.712 363.014 353.943 363.081 354.17 363.158C355.519 363.202 356.951 363.583 358.338 364.083C361.745 362.84 367.244 362.433 370.405 363.804ZM361.521 365.406C361.622 365.451 361.722 365.496 361.822 365.541C361.395 365.841 361.129 366.251 361.092 366.8L360.523 366.545C357.511 365.193 354.938 364.578 351.65 364.529C351.163 364.421 350.664 364.352 350.15 364.352C347.505 364.352 340.927 363.699 339.124 365.995C338.997 366.01 338.818 365.988 338.705 365.786C338.516 365.445 338.895 365.275 338.895 365.275C339.088 365.188 339.281 365.106 339.473 365.029C339.462 365.021 339.451 365.012 339.44 365.002C339.168 365.128 338.897 365.254 338.627 365.383C334.407 369.161 342.295 373.246 345.966 373.179C351.125 373.249 356.539 372.885 361.696 372.885C366.708 372.885 371.756 371.334 376.672 371.424C381.542 369.139 377.326 367.163 373.565 365.779C373.591 365.835 373.608 365.904 373.592 365.979C372.931 365.748 372.261 365.521 371.624 365.245C371.186 365.245 370.394 365.151 369.433 365.049C366.599 364.233 363.007 363.756 361.521 365.406ZM341.804 364.221C341.704 364.268 341.611 364.316 341.521 364.364C341.717 364.314 341.914 364.269 342.11 364.227L341.804 364.221ZM367.614 363.825C368.139 363.917 368.659 364.029 369.166 364.158C368.688 364.012 368.166 363.902 367.614 363.825Z" fill="#B65E50"/>
<path d="M369.512 365.023C370.474 365.125 371.268 365.224 371.705 365.224C372.342 365.501 373.014 365.734 373.675 365.964C373.691 365.889 373.674 365.819 373.647 365.763C377.409 367.147 381.625 369.151 376.755 371.436C371.839 371.346 366.759 372.945 361.747 372.945C356.59 372.945 351.046 373.278 345.887 373.208C342.216 373.275 334.323 369.147 338.543 365.368C338.813 365.24 339.085 365.111 339.357 364.986C339.367 364.995 339.544 365.037 339.556 365.046C339.363 365.123 339.171 365.203 338.978 365.29C338.978 365.29 338.599 365.458 338.789 365.799C338.901 366.001 338.913 365.998 339.04 365.983C340.843 363.687 347.432 364.313 350.077 364.313C350.592 364.313 351.094 364.377 351.581 364.484C354.869 364.534 357.57 365.139 360.582 366.491L361.023 366.845C361.06 366.296 361.334 365.894 361.76 365.594C361.661 365.549 361.679 365.395 361.578 365.35C363.063 363.7 366.678 364.207 369.512 365.023Z" fill="#C36556"/>
<path d="M335.125 355.05L335.164 355.004C335.255 354.913 335.452 354.797 335.722 354.667C338.076 354.099 340.043 353.586 341.003 353.492C345.412 353.057 357.295 351.301 361.199 351.301L361.554 351.243C364.348 353.39 369.548 351.285 373.807 350.447C376.395 350.551 380.76 350.746 382.65 351.301C383.018 351.638 384.277 356.106 381.137 357.471C379.664 358.112 376.199 359.844 366.519 360.356C355.597 360.933 340.642 360.806 337.104 358.816C335.702 358.027 332.114 355.949 332.064 355.004C332.064 355.004 334.761 355.106 335.125 355.05Z" fill="#F9F9F9"/>
<path d="M379.446 367.02L379.413 367.047C379.336 367.101 379.169 367.171 378.94 367.249C376.939 367.604 375.267 367.923 374.451 367.987C370.699 368.284 371.773 370.635 368.448 370.672L356.963 369.499C354.569 368.27 350.154 369.55 346.533 370.081C344.328 370.045 340.609 369.972 338.996 369.666C338.68 369.472 337.579 366.871 340.244 366.042C341.494 365.654 344.434 364.607 352.675 364.216C361.973 363.773 374.71 363.705 377.736 364.836C378.935 365.284 382.005 366.465 382.053 367.017C382.053 367.017 379.756 366.983 379.446 367.02Z" fill="#F9F9F9"/>
<path d="M351.627 381.379L351.684 381.359C351.704 381.369 351.723 381.378 351.743 381.388C352.3 381.433 352.842 381.512 353.375 381.612C354.206 381.475 354.966 381.05 355.927 381.082C356.192 380.952 356.495 380.831 356.829 380.721C359.273 380.639 361.711 380.514 364.215 380.514C365.497 380.514 366.771 380.846 368.04 380.996C368.042 380.998 368.044 380.999 368.047 381L368.048 380.997C368.205 381.016 368.362 381.032 368.519 381.044L368.675 381.121C368.866 381.21 368.997 381.4 368.997 381.622C368.997 381.843 368.866 382.034 368.675 382.122L368.248 382.333C367.127 384.425 362.923 384.114 360.839 384.114C360.133 384.114 359.453 384.049 358.787 383.945C356.13 384.008 353.347 383.881 351.367 382.547L351.303 382.671L350.862 382.453C350.811 382.453 350.761 382.452 350.711 382.452C350.711 382.452 350.148 382.452 350.148 381.898C350.148 381.344 350.711 381.344 350.711 381.344C350.788 381.344 350.865 381.345 350.942 381.347C350.958 381.345 350.975 381.344 350.992 381.344H351.555V381.373C351.579 381.375 351.603 381.377 351.627 381.379Z" fill="#D1997B"/>
<path d="M349.554 381.095C349.81 381.095 350.065 381.095 350.32 381.095C355.123 379.216 362.057 380.226 367.109 380.273C367.738 380.479 368.415 380.55 369.078 380.55L369.173 380.621L369.188 380.577L370.017 380.848C370.16 380.892 370.284 380.979 370.372 381.095C370.091 381.095 369.81 381.095 369.528 381.095C362.656 381.095 355.762 381.334 348.87 381.368L349.554 381.095Z" fill="#7F5D4B"/>
<path opacity="0.01" d="M344.321 327.909C344.969 327.679 345.621 327.457 346.277 327.243C348.582 327.07 350.926 327.02 353.274 327.074C350.199 327.509 347.203 327.818 344.321 327.909Z" fill="black"/>
<path opacity="0.01" fill-rule="evenodd" clip-rule="evenodd" d="M355.516 354.734C356.621 355.287 356.621 355.287 355.516 354.734V354.734Z" fill="black"/>
<path opacity="0.01" fill-rule="evenodd" clip-rule="evenodd" d="M356.345 367.168C354.069 367.652 352.136 368.757 350.543 370.483C348.185 367.542 349.014 365.884 353.029 365.51C354.087 364.586 354.087 363.757 353.029 363.023C352.162 359.476 353.405 357.266 356.759 356.392C357.891 357.298 358.167 358.403 357.588 359.708C356.741 360.416 356.05 361.244 355.516 362.194C355.718 363.894 355.994 365.551 356.345 367.168Z" fill="#101010"/>
<path opacity="0.01" fill-rule="evenodd" clip-rule="evenodd" d="M374.58 371.312C374.621 373.466 375.45 375.263 377.067 376.7C376.361 378.132 375.532 378.271 374.58 377.115C374.58 376.01 374.027 375.457 372.922 375.457C373.055 374.048 372.917 372.667 372.508 371.312C372.278 372.071 371.863 372.624 371.265 372.97C370.334 371.928 369.782 372.204 369.607 373.799C368.868 374.305 368.039 374.581 367.12 374.628C365.297 373.655 363.64 374.069 362.147 375.871C363.951 377.341 365.471 379.136 366.706 381.259C366.982 380.706 367.259 380.154 367.535 379.601C367.899 380.907 368.59 382.013 369.607 382.917C368.991 383.482 368.439 384.035 367.949 384.575C368.778 384.575 369.607 384.575 370.436 384.575C369.54 385.855 369.54 387.099 370.436 388.305C368.952 389.742 367.294 390.985 365.462 392.034C363.605 391.594 362.361 390.489 361.732 388.719C360.395 389.649 359.428 389.234 358.831 387.476C361.541 386.212 362.37 384.278 361.318 381.673C361.942 380.441 362.632 380.303 363.39 381.259C363.996 379.43 363.444 378.05 361.732 377.115C361.239 375.955 361.377 374.85 362.146 373.799C361.852 372.952 361.299 372.399 360.489 372.141C359.762 372.25 359.209 371.974 358.831 371.312C359.936 370.207 359.936 369.102 358.831 367.997C359.915 367.063 361.021 367.063 362.146 367.997C363.173 368.254 363.173 368.668 362.146 369.24C363.847 370.011 365.091 371.254 365.876 372.97C366.017 370.912 365.326 369.117 363.804 367.582C365.9 366.491 365.9 365.524 363.804 364.681C363.262 363.342 362.848 361.961 362.561 360.537C361.402 360.08 360.296 359.804 359.245 359.708C358.987 358.004 358.573 356.346 358.002 354.734C358.257 354.065 358.672 353.512 359.245 353.077C360.074 354.182 360.903 354.182 361.732 353.077C363.528 354.873 365.323 356.668 367.12 358.464C366.687 358.93 366.411 359.482 366.291 360.122C367.773 362.238 368.74 364.587 369.192 367.168C370.061 366.325 371.029 366.186 372.093 366.753C372.498 368.584 373.328 370.104 374.58 371.312ZM371.265 372.97C370.712 373.246 370.16 373.523 369.607 373.799C369.782 372.204 370.334 371.928 371.265 372.97ZM369.607 373.799C369.226 377.55 368.398 377.826 367.12 374.628C368.039 374.581 368.868 374.305 369.607 373.799ZM374.58 377.115C374.58 376.01 374.027 375.457 372.922 375.457C373.198 376.286 373.751 376.838 374.58 377.115ZM367.949 384.575C367.878 385.4 368.155 386.09 368.778 386.646C367.32 387.482 366.353 388.725 365.877 390.376C365.651 388.86 364.959 387.617 363.805 386.646C364.731 385.078 366.112 384.388 367.949 384.575Z" fill="#161616"/>
<path opacity="0.01" fill-rule="evenodd" clip-rule="evenodd" d="M353.029 363.023C352.282 364.869 350.901 365.698 348.885 365.51C348.885 364.681 348.885 363.852 348.885 363.023C350.426 362.55 351.808 362.55 353.029 363.023Z" fill="black"/>
<path opacity="0.01" fill-rule="evenodd" clip-rule="evenodd" d="M362.147 367.997C361.021 367.063 359.915 367.063 358.831 367.997C359.936 369.102 359.936 370.207 358.831 371.312C359.21 371.974 359.763 372.25 360.489 372.141C358.377 374.307 356.442 374.169 354.687 371.727C355.326 370.715 356.155 369.886 357.173 369.24C356.55 368.684 356.273 367.993 356.344 367.168C358.674 365.777 360.607 366.053 362.147 367.997Z" fill="#030303"/>
<path opacity="0.01" fill-rule="evenodd" clip-rule="evenodd" d="M375.409 371.312C375.133 371.312 374.856 371.312 374.58 371.312C374.856 369.102 375.133 369.102 375.409 371.312Z" fill="black"/>
<path opacity="0.01" fill-rule="evenodd" clip-rule="evenodd" d="M375.409 371.312C376.634 371.095 377.739 371.371 378.725 372.141C378.172 372.417 377.62 372.694 377.067 372.97C376.061 372.765 375.509 372.212 375.409 371.312Z" fill="black"/>
<path opacity="0.012" fill-rule="evenodd" clip-rule="evenodd" d="M369.607 373.799C369.226 377.55 368.397 377.825 367.12 374.628C368.039 374.58 368.868 374.304 369.607 373.799Z" fill="#484848"/>
<path opacity="0.016" fill-rule="evenodd" clip-rule="evenodd" d="M372.922 375.457C373.198 376.285 373.751 376.838 374.58 377.114C375.026 378.455 375.302 379.836 375.409 381.259C373.791 381.485 372.548 380.933 371.679 379.601C371.52 381.431 371.106 383.089 370.435 384.574C370.565 382.447 370.288 380.375 369.606 378.358C370.029 376.844 370.72 376.706 371.679 377.943C371.871 376.918 372.285 376.089 372.922 375.457Z" fill="#1E1E1E"/>
<path d="M365.741 369.61C366.425 369.386 374.298 367.544 375.073 367.255C376.527 366.892 379.956 367.899 380.919 366.409C382.653 363.727 386.588 349.19 387.044 348.661C388.563 346.898 382.789 369.097 380.32 371.664C378.641 373.41 374.949 374.065 373.965 374.8C371.401 376.327 367.598 376.603 365.319 376.718C360.96 376.939 352.49 377.398 349.052 376.508C343.33 375.027 338.255 369.81 335.587 367.941C335.448 367.844 326.226 355.69 325.79 355.205C325.455 354.832 327.072 355.231 327.072 355.231C327.072 355.231 339.856 368.231 340.66 368.188C340.66 368.188 343.635 368.664 348.664 368.048C348.664 368.048 361.917 370.658 365.741 369.61Z" fill="#D97E67"/>
<path d="M350.884 377.042C347.756 377.037 346.024 376.062 345.556 375.809C342.588 374.203 335.435 367.681 334.924 367.371C336.461 367.35 343.828 375.061 349.588 376.261C354.435 376.286 356.755 376.722 361.615 376.852C361.428 376.888 354.333 377.042 350.884 377.042Z" fill="#994F43"/>
<path d="M376.111 374.601C372.593 375.741 368.412 377.127 367.982 376.627C368.321 376.507 370.832 375.845 371.163 375.7C373.773 375.106 378.908 372.471 379.705 372.243C378.16 373.181 378.471 373.837 376.111 374.601Z" fill="#994F43"/>
<path d="M330.19 354.879C328.205 355.015 327.399 355.044 325.156 355.051C331.827 353.735 339.233 351.215 344.192 349.595C347.013 348.799 349.729 347.71 352.322 346.601C353.815 346.132 355.354 345.793 357.109 346.053C360.39 346.539 364.748 348.697 368.348 348.073C371.039 347.607 374.68 346.107 377.293 345.269C377.645 345.238 377.997 345.223 378.348 345.221C380.52 346.149 382.898 346.878 385.387 347.4C386.163 348.05 387.922 347.644 387.793 348.342C387.636 349.197 385.813 352.273 383.907 352.797C380.701 353.68 371.553 354.647 367.139 354.637C363.619 355.02 358.962 354.126 356.315 354.185C352.25 354.277 350.393 355.178 344.911 355.178C340.596 355.178 339.133 355.598 334.852 355.673L330.19 354.879Z" fill="#CD6B5B"/>
<path d="M355.786 345.267C357.259 345.392 364.671 347.149 366.069 347.603L366.726 347.817C369.699 346.751 372.66 345.632 375.679 344.642L376.005 344.495C376.267 344.32 376.564 344.274 376.824 344.28C377.079 344.267 377.374 344.304 377.644 344.465C380.284 345.513 382.883 346.566 385.647 347.468L386.583 347.709C386.583 347.709 387.448 347.935 387.376 348.485C383.847 347.742 380.627 346.708 376.927 345.366C374.099 346.099 370.2 348.691 367.283 348.865C363.483 349.09 359.419 346.776 355.897 346.326C353.886 346.069 351.817 347.183 349.998 347.579C345.301 349.112 336.493 353.203 330.503 353.912C330.658 353.781 352.487 344.404 355.786 345.267Z" fill="#994F43"/>
<path d="M347.484 368.35C340.35 368.936 339.628 368.11 339.628 368.11C339.628 368.11 346.729 367.973 346.804 367.98C359.007 369.103 359.444 370.239 367.379 369.285C369.097 368.864 374.961 367.04 374.981 367.039C375.471 367.199 383.47 367.303 381.396 367.631C380.685 367.744 377.202 367.99 375.002 368.265C375.002 368.265 368.386 370.201 366.479 370.377C358.73 371.094 347.484 368.35 347.484 368.35Z" fill="#994F43"/>
<path d="M379.116 353.482C377.358 354.115 368.011 355.103 366.168 355.555C358.046 356.567 352.768 354.321 352.768 354.321C340.35 357.554 325.865 355.289 324.968 355.161C324.768 355.133 331.238 354.875 332.475 354.823C336.674 354.646 342.496 355.399 344.601 354.61C346.303 354.409 352.945 353.415 353.02 353.422C356.867 353.454 362.341 354.145 366.589 354.189C371.011 354.235 370.169 353.626 374.217 353.139C375.935 352.718 380.556 351.688 380.575 351.686C380.836 351.771 383.055 353.086 384.458 352.434C386.386 351.538 387.287 349.635 387.287 349.635C387.287 349.635 387.256 353.094 383.083 354.237L379.116 353.482Z" fill="#994F43"/>
</svg>