<svg xmlns="http://www.w3.org/2000/svg" fill="none" viewBox="314.93 330.25 82.08 71.92">
<path d="M393.921 359.997C392.302 367.979 388.691 382.004 385.739 389.562C385.225 390.879 384.827 392.378 384.497 393.97C368.94 402.065 347.82 404.955 331.851 399.012C318.569 386.956 310.705 363.217 317.317 347.526C317.918 346.1 318.619 344.78 319.41 343.559C327.17 338.968 335.288 334.264 344.168 331.103C347.05 331.013 350.046 330.703 353.121 330.268C364.643 330.533 376.276 333.295 384.045 336.159C386.458 336.992 388.715 338.014 390.847 339.191C392.658 340.977 394.525 342.691 396.576 344.083C396.079 348.821 395.497 353.692 393.921 359.997Z" fill="#E1A585"/>
<path d="M396.746 352.518C394.29 365.052 387.891 380.719 385.405 393.268C385.405 393.268 386.793 379.716 389.086 373.005C391.839 364.745 392.68 356.226 395.374 347.851C395.374 346.392 395.507 344.931 395.709 343.468C396.135 343.783 396.569 344.085 397.011 344.371C396.872 347.08 396.757 349.795 396.746 352.518Z" fill="#7F5D4B"/>
<path d="M378.154 368.231C371.799 373.883 373.872 371.733 362.82 371.733C341.366 371.733 331.681 358.205 331.681 358.205C331.681 358.205 341.366 355.726 362.82 355.726C384.275 355.726 384.763 351.532 384.763 351.532C384.763 351.532 385.415 352.959 385.319 355.488C385.109 361.06 382.268 364.573 378.154 368.231Z" fill="#482520"/>
<path d="M352.106 381.809L352.164 381.79C352.183 381.8 352.203 381.809 352.222 381.818C352.779 381.864 353.321 381.943 353.854 382.043C354.686 381.906 355.446 381.48 356.406 381.513C356.672 381.383 356.975 381.262 357.308 381.152C359.753 381.07 362.191 380.944 364.694 380.944C365.977 380.944 367.25 381.276 368.519 381.427C368.521 381.428 368.524 381.429 368.526 381.431L368.528 381.428C368.685 381.447 368.841 381.462 368.998 381.475L369.155 381.552C369.345 381.64 369.477 381.831 369.477 382.052C369.477 382.273 369.345 382.464 369.155 382.553L368.727 382.764C367.606 384.855 363.403 384.545 361.318 384.545C360.613 384.545 359.932 384.48 359.267 384.376C356.61 384.439 353.827 384.312 351.846 382.977L351.783 383.102L351.341 382.884C351.291 382.883 351.241 382.883 351.191 382.883C351.191 382.883 350.628 382.883 350.628 382.329C350.628 381.775 351.191 381.775 351.191 381.775C351.268 381.775 351.345 381.776 351.421 381.777C351.438 381.776 351.455 381.775 351.472 381.775H352.034V381.804C352.058 381.806 352.082 381.808 352.106 381.809Z" fill="#D1997B"/>
<path d="M350.034 381.526C350.289 381.526 350.544 381.526 350.8 381.526C355.603 379.647 362.536 380.656 367.589 380.704C368.218 380.91 368.895 380.981 369.558 380.981L369.652 381.052L369.668 381.007L370.496 381.279C370.64 381.323 370.764 381.41 370.852 381.526C370.571 381.526 370.289 381.526 370.008 381.526C363.136 381.526 356.242 381.765 349.35 381.799L350.034 381.526Z" fill="#7F5D4B"/>
<path opacity="0.01" d="M344.168 331.104C344.816 330.873 345.468 330.651 346.124 330.437C348.429 330.264 350.772 330.214 353.121 330.268C350.046 330.703 347.05 331.013 344.168 331.104Z" fill="black"/>
<path opacity="0.01" fill-rule="evenodd" clip-rule="evenodd" d="M355.362 357.929C356.467 358.482 356.467 358.482 355.362 357.929V357.929Z" fill="black"/>
<path opacity="0.01" fill-rule="evenodd" clip-rule="evenodd" d="M356.191 370.362C353.916 370.846 351.982 371.952 350.389 373.677C348.032 370.737 348.861 369.079 352.876 368.704C353.933 367.781 353.933 366.952 352.876 366.217C352.009 362.671 353.252 360.461 356.606 359.586C357.737 360.492 358.014 361.597 357.435 362.902C356.588 363.61 355.897 364.439 355.362 365.389C355.565 367.088 355.841 368.746 356.191 370.362Z" fill="#101010"/>
<path opacity="0.01" fill-rule="evenodd" clip-rule="evenodd" d="M374.427 374.507C374.467 376.661 375.296 378.457 376.914 379.894C376.207 381.327 375.378 381.465 374.427 380.309C374.427 379.204 373.874 378.651 372.769 378.651C372.902 377.243 372.764 375.861 372.355 374.507C372.124 375.266 371.71 375.818 371.111 376.164C370.18 375.123 369.629 375.398 369.454 376.993C368.715 377.499 367.886 377.775 366.967 377.822C365.144 376.849 363.486 377.263 361.993 379.065C363.798 380.535 365.317 382.33 366.552 384.453C366.828 383.9 367.105 383.348 367.381 382.796C367.746 384.102 368.436 385.208 369.453 386.111C368.838 386.676 368.286 387.229 367.796 387.769C368.625 387.769 369.453 387.769 370.282 387.769C369.387 389.05 369.387 390.293 370.282 391.499C368.798 392.936 367.141 394.179 365.309 395.229C363.451 394.788 362.208 393.683 361.579 391.913C360.242 392.843 359.274 392.429 358.678 390.67C361.388 389.406 362.217 387.472 361.164 384.868C361.789 383.635 362.479 383.497 363.236 384.453C363.843 382.625 363.29 381.244 361.579 380.309C361.085 379.149 361.224 378.044 361.993 376.993C361.699 376.146 361.146 375.593 360.335 375.336C359.609 375.444 359.056 375.168 358.677 374.507C359.782 373.402 359.782 372.296 358.677 371.191C359.762 370.258 360.867 370.258 361.993 371.191C363.019 371.448 363.019 371.863 361.993 372.434C363.694 373.205 364.937 374.449 365.723 376.164C365.864 374.106 365.173 372.311 363.651 370.777C365.746 369.686 365.746 368.718 363.651 367.876C363.109 366.537 362.694 365.155 362.408 363.731C361.249 363.274 360.143 362.998 359.092 362.902C358.834 361.198 358.42 359.54 357.849 357.929C358.104 357.259 358.518 356.706 359.092 356.271C359.921 357.376 360.75 357.376 361.579 356.271C363.375 358.067 365.17 359.863 366.966 361.659C366.534 362.124 366.258 362.677 366.138 363.317C367.62 365.433 368.587 367.781 369.039 370.362C369.908 369.519 370.875 369.381 371.94 369.948C372.345 371.779 373.175 373.298 374.427 374.507ZM371.111 376.164C370.558 376.44 370.006 376.717 369.454 376.993C369.629 375.398 370.18 375.123 371.111 376.164ZM369.454 376.993C369.073 380.744 368.244 381.02 366.967 377.822C367.886 377.775 368.715 377.499 369.454 376.993ZM374.427 380.309C374.427 379.204 373.874 378.651 372.769 378.651C373.045 379.48 373.598 380.033 374.427 380.309ZM367.796 387.769C367.724 388.594 368.001 389.285 368.625 389.841C367.167 390.676 366.199 391.92 365.723 393.571C365.497 392.055 364.806 390.811 363.651 389.841C364.577 388.273 365.959 387.582 367.796 387.769Z" fill="#161616"/>
<path opacity="0.01" fill-rule="evenodd" clip-rule="evenodd" d="M352.876 366.218C352.129 368.064 350.748 368.893 348.731 368.704C348.731 367.876 348.731 367.047 348.731 366.218C350.273 365.744 351.655 365.744 352.876 366.218Z" fill="black"/>
<path opacity="0.01" fill-rule="evenodd" clip-rule="evenodd" d="M361.993 371.191C360.868 370.258 359.762 370.258 358.678 371.191C359.782 372.296 359.782 373.402 358.678 374.507C359.056 375.168 359.609 375.444 360.335 375.335C358.223 377.501 356.289 377.363 354.533 374.921C355.173 373.909 356.002 373.08 357.02 372.434C356.397 371.878 356.12 371.188 356.191 370.362C358.52 368.971 360.454 369.247 361.993 371.191Z" fill="#030303"/>
<path opacity="0.01" fill-rule="evenodd" clip-rule="evenodd" d="M375.256 374.507C374.98 374.507 374.703 374.507 374.427 374.507C374.703 372.296 374.98 372.296 375.256 374.507Z" fill="black"/>
<path opacity="0.01" fill-rule="evenodd" clip-rule="evenodd" d="M375.256 374.506C376.481 374.289 377.586 374.565 378.571 375.335C378.019 375.611 377.466 375.888 376.914 376.164C375.908 375.959 375.355 375.406 375.256 374.506Z" fill="black"/>
<path opacity="0.012" fill-rule="evenodd" clip-rule="evenodd" d="M369.453 376.993C369.073 380.744 368.244 381.02 366.967 377.822C367.886 377.775 368.715 377.499 369.453 376.993Z" fill="#484848"/>
<path opacity="0.016" fill-rule="evenodd" clip-rule="evenodd" d="M372.769 378.651C373.045 379.48 373.598 380.033 374.426 380.309C374.872 381.649 375.148 383.031 375.255 384.453C373.638 384.679 372.395 384.127 371.525 382.795C371.367 384.626 370.953 386.283 370.282 387.769C370.411 385.642 370.134 383.57 369.453 381.552C369.876 380.038 370.567 379.9 371.525 381.138C371.718 380.112 372.132 379.283 372.769 378.651Z" fill="#1E1E1E"/>
<path d="M354.837 364.469C369.175 357.676 372.582 363.884 379.156 362.46C384.611 362.46 383.873 357.683 385.076 356.043C386.513 354.085 386.141 365.372 383.806 368.224C382.218 370.163 378.889 371.528 377.959 372.344C375.533 374.04 370.102 372.835 367.04 373.176C361.286 373.817 357.88 375.544 352.762 374.78C344.914 372.5 335.566 367.707 331.118 359.433C331.118 359.433 330.595 359.397 331.118 358.477C336.74 359.349 340.735 366.497 354.837 364.469Z" fill="#D97E67"/>
<path d="M339.082 356.492L339.118 356.437C339.202 356.329 339.384 356.191 339.633 356.037C341.805 355.361 343.62 354.75 344.506 354.638C348.575 354.12 359.541 352.031 363.144 352.031L363.471 351.962C366.05 354.516 370.849 352.012 374.779 351.015C377.167 351.138 381.195 351.371 382.94 352.032C383.279 352.432 384.441 357.748 381.543 359.373C380.185 360.135 376.986 362.196 368.053 362.805C357.974 363.493 344.173 363.341 340.908 360.973C339.614 360.034 336.303 357.562 336.257 356.437C336.257 356.437 338.746 356.559 339.082 356.492Z" fill="#F9F9F9"/>
<path d="M333.11 358.037C331.231 358.189 330.468 358.222 328.345 358.228C334.66 356.766 341.671 353.965 346.365 352.164C349.036 351.279 351.607 350.069 354.062 348.836C355.475 348.314 356.931 347.938 358.594 348.227C361.699 348.767 365.825 351.166 369.233 350.473C371.78 349.954 375.227 348.287 377.7 347.356C378.033 347.321 378.367 347.304 378.699 347.302C380.755 348.334 383.007 349.144 385.363 349.724C386.097 350.447 387.762 349.995 387.641 350.771C387.492 351.721 385.766 355.141 383.962 355.724C380.927 356.705 372.267 357.78 368.088 357.768C364.756 358.194 360.347 357.201 357.842 357.267C353.993 357.368 352.235 358.37 347.046 358.37C342.961 358.37 341.576 358.837 337.524 358.92L333.11 358.037Z" fill="#CD6B5B"/>
<path d="M357.341 347.353C358.735 347.491 365.752 349.445 367.075 349.949L367.697 350.188C370.511 349.002 373.315 347.759 376.173 346.659L376.482 346.495C376.73 346.301 377.011 346.249 377.256 346.256C377.498 346.241 377.778 346.282 378.033 346.462C380.532 347.626 382.992 348.797 385.609 349.799L386.495 350.068C386.495 350.068 387.314 350.319 387.246 350.93C383.905 350.104 380.856 348.954 377.354 347.463C374.677 348.278 370.986 351.16 368.224 351.352C364.627 351.603 360.78 349.03 357.446 348.53C355.542 348.245 353.584 349.483 351.862 349.923C347.415 351.627 339.077 356.175 333.406 356.963C333.553 356.817 354.217 346.393 357.341 347.353Z" fill="#994F43"/>
<path d="M379.426 356.485C377.762 357.188 368.913 358.286 367.169 358.788C359.48 359.914 354.483 357.417 354.483 357.417C342.728 361.011 329.015 358.493 328.166 358.351C327.977 358.319 334.101 358.033 335.272 357.975C339.247 357.779 344.759 358.615 346.752 357.739C348.363 357.515 354.651 356.41 354.722 356.418C358.364 356.453 363.545 357.221 367.567 357.271C371.754 357.322 370.956 356.644 374.788 356.103C376.414 355.635 380.789 354.491 380.807 354.489C381.054 354.583 383.155 356.044 384.483 355.319C386.308 354.324 387.162 352.208 387.162 352.208C387.162 352.208 387.132 356.053 383.181 357.323L379.426 356.485Z" fill="#994F43"/>
<path d="M366.743 374.15L363.969 374.8C360.746 375.263 359.814 375.667 356.552 375.667C353.068 375.66 348.858 375.277 345.927 373.415C343.12 371.632 341.315 369.534 338.439 368.605C337.992 368.259 337.53 367.916 337.047 367.572C338.501 367.549 339.911 367.637 340.985 368.169C345.684 370.499 348.409 373.466 353.856 374.8C358.441 374.827 362.641 373.271 367.238 373.415C370.062 373.415 366.743 374.15 366.743 374.15Z" fill="#994F43"/>
<path d="M382.332 370.412L381.816 370.66C379.466 371.862 377.249 373.276 374.166 373.781C374.166 373.781 370.434 373.366 370.017 373.024C370.673 372.827 372.732 372.937 374.852 372.869C377.708 371.891 379.366 371.266 380.612 370.075C381.09 369.815 383.299 367.583 383.68 367.3C384.179 367.688 382.874 370.002 382.332 370.412Z" fill="#994F43"/>
</svg>