<svg xmlns="http://www.w3.org/2000/svg" fill="none" viewBox="315.25 327.47 82.08 71.9">
<path d="M394.24 357.195C392.621 365.178 389.01 379.202 386.058 386.761C385.544 388.077 385.146 389.577 384.817 391.168C369.26 399.263 348.139 402.153 332.17 396.21C318.888 384.154 311.025 360.415 317.636 344.725C318.237 343.298 318.939 341.978 319.73 340.757C327.49 336.166 335.607 331.462 344.488 328.302C347.37 328.211 350.365 327.901 353.44 327.466C364.962 327.732 376.596 330.493 384.365 333.357C386.778 334.191 389.034 335.212 391.167 336.389C392.977 338.175 394.844 339.89 396.896 341.281C396.398 346.019 395.817 350.89 394.24 357.195Z" fill="#E1A585"/>
<path d="M397.065 349.717C394.609 362.25 388.211 377.918 385.725 390.466C385.725 390.466 387.112 376.914 389.405 370.203C392.158 361.944 393 353.425 395.693 345.049C395.693 343.59 395.826 342.129 396.028 340.667C396.454 340.981 396.888 341.283 397.33 341.569C397.191 344.279 397.076 346.993 397.065 349.717Z" fill="#7F5D4B"/>
<path d="M377.072 373.9C370.717 379.552 373.729 376.303 362.677 376.303C355.146 376.303 348.658 379.719 343.747 375.609C337.642 370.499 327.893 353.869 327.893 353.869C327.893 353.869 339.445 352.944 360.9 352.944C382.354 352.944 382.843 348.75 382.843 348.75C382.843 348.75 383.494 350.178 383.399 352.707C383.188 358.279 381.186 370.242 377.072 373.9Z" fill="#482520"/>
<path d="M362.796 377.328L361.939 377.559C359.469 377.56 357.702 377.395 355.681 375.965C354.306 376.028 352.551 376.309 350.739 376.484C350.383 376.539 350.018 376.571 349.644 376.574C346.063 376.81 342.513 376.387 341.455 372.852C341.423 372.772 341.41 372.692 341.405 372.626C341.397 372.54 341.399 372.43 341.438 372.32C342.507 367.159 348.377 363.195 352.56 360.249C358.789 356.744 368.007 355.167 371.199 362.836C371.27 368.645 369.557 375.793 363.111 377.14C362.968 377.274 362.796 377.328 362.796 377.328Z" fill="#B65E50"/>
<path d="M360.711 367.31C360.662 367.349 357.566 370.747 354.721 372.859C352.79 374.293 350.749 374.712 350.726 374.72C348.046 374.911 346.628 375.412 344.329 374.285C343.964 374.106 343.191 372.927 342.856 372.726C342.839 372.674 342.823 372.621 342.808 372.568C343.669 367.874 349.602 363.966 353.345 361.324C358.606 358.348 366.953 356.537 369.835 363.074C369.751 368.596 368.241 376.091 360.929 376.054C360.076 376.059 359.381 375.915 358.608 375.392C356.709 374.106 360.669 367.512 360.711 367.31Z" fill="#C36556"/>
<path d="M359.467 372.926C359.468 372.95 359.471 372.977 359.476 373.006C359.531 373.728 359.656 374.433 359.911 375.108C359.89 375.144 359.864 375.176 359.831 375.203C359.561 375.431 359.108 375.432 358.595 375.324C358.519 375.383 358.407 375.42 358.252 375.366C358.123 375.322 358.056 375.247 358.023 375.169C357.172 374.898 356.286 374.457 355.854 374.308C355.553 374.197 355.266 374.023 355.039 373.796L354.485 373.605C354.286 373.536 354.181 373.319 354.25 373.121C354.256 373.103 354.263 373.087 354.271 373.071C354.175 373.059 354.07 373.006 353.998 372.858C353.831 372.515 354.174 372.349 354.174 372.349L354.567 372.179C354.936 372.131 355.322 372.007 355.704 371.825C356.073 371.399 356.396 370.975 356.709 370.549C357.727 369.874 358.65 368.985 359.491 367.863C359.601 369.478 359.373 371.162 359.461 372.77C359.462 372.823 359.464 372.875 359.467 372.926ZM358.81 373.325C358.76 373.775 358.753 374.228 358.815 374.687C358.993 374.722 359.146 374.729 359.261 374.698C359.74 374.566 359.079 373.895 358.81 373.325Z" fill="#AD594C"/>
<path d="M358.332 370.956C358.3 371.061 358.262 371.159 358.219 371.248C358.251 369.778 358.54 368.413 359.112 366.933C359.756 365.268 361.366 364.13 361.895 362.663C362.34 365.323 359.398 369.497 358.332 370.956Z" fill="#B65E50"/>
<path d="M349.552 388.277L349.609 388.258C349.629 388.267 349.648 388.277 349.668 388.286C350.225 388.332 350.767 388.411 351.299 388.51C352.131 388.373 352.891 387.948 353.852 387.981C354.117 387.85 354.42 387.729 354.754 387.619C357.198 387.537 359.636 387.412 362.139 387.412C363.422 387.412 364.695 387.744 365.964 387.895C365.967 387.896 365.969 387.897 365.972 387.898L365.973 387.896C366.13 387.914 366.287 387.93 366.444 387.942L366.6 388.019C366.791 388.108 366.922 388.299 366.922 388.52C366.922 388.741 366.791 388.932 366.6 389.021L366.172 389.231C365.052 391.323 360.848 391.013 358.764 391.013C358.058 391.013 357.378 390.948 356.712 390.844C354.055 390.906 351.272 390.78 349.292 389.445L349.228 389.569L348.786 389.352C348.736 389.351 348.686 389.351 348.636 389.351C348.636 389.351 348.073 389.351 348.073 388.797C348.073 388.243 348.636 388.243 348.636 388.243C348.713 388.243 348.79 388.244 348.867 388.245C348.883 388.244 348.9 388.243 348.917 388.243H349.48V388.272C349.504 388.273 349.528 388.275 349.552 388.277Z" fill="#D1997B"/>
<path d="M347.479 387.993C347.734 387.993 347.99 387.993 348.245 387.993C353.048 386.114 359.982 387.124 365.034 387.171C365.663 387.378 366.34 387.448 367.003 387.448L367.098 387.52L367.113 387.475L367.941 387.747C368.085 387.79 368.209 387.878 368.297 387.993C368.016 387.993 367.735 387.993 367.453 387.993C360.581 387.994 353.687 388.233 346.795 388.266L347.479 387.993Z" fill="#7F5D4B"/>
<path d="M334.863 355.04L334.9 354.993C334.988 354.898 335.177 354.778 335.437 354.642C337.7 354.051 339.592 353.517 340.514 353.419C344.753 352.967 356.179 351.14 359.933 351.14L360.274 351.079C362.961 353.313 367.961 351.123 372.056 350.251C374.544 350.359 378.741 350.563 380.559 351.14C380.912 351.49 382.123 356.139 379.103 357.56C377.688 358.226 374.356 360.028 365.048 360.561C354.547 361.162 340.168 361.029 336.766 358.958C335.417 358.138 331.968 355.976 331.92 354.993C331.92 354.993 334.513 355.099 334.863 355.04Z" fill="#F9F9F9"/>
<path d="M376.278 374.295L376.253 374.317C376.192 374.362 376.061 374.417 375.882 374.477C374.334 374.718 373.04 374.938 372.411 374.967C369.521 375.098 361.723 375.747 359.17 375.667L358.937 375.69C357.144 374.541 353.711 375.505 350.913 375.844C349.222 375.738 346.371 375.549 345.144 375.228C344.909 375.05 344.157 372.753 346.232 372.123C347.204 371.828 349.498 371.018 355.836 370.956C362.986 370.885 372.763 371.256 375.045 372.34C375.949 372.77 378.262 373.899 378.279 374.381C378.279 374.381 376.518 374.274 376.278 374.295Z" fill="#F9F9F9"/>
<path opacity="0.01" d="M342.247 328.322C342.895 328.092 343.547 327.87 344.203 327.656C346.508 327.483 348.851 327.433 351.2 327.487C348.125 327.922 345.129 328.232 342.247 328.322Z" fill="black"/>
<path opacity="0.01" fill-rule="evenodd" clip-rule="evenodd" d="M353.441 355.147C354.546 355.7 354.546 355.7 353.441 355.147V355.147Z" fill="black"/>
<path opacity="0.01" fill-rule="evenodd" clip-rule="evenodd" d="M354.27 367.581C351.995 368.065 350.061 369.17 348.468 370.896C346.111 367.955 346.94 366.298 350.955 365.923C352.013 364.999 352.013 364.171 350.955 363.436C350.088 359.889 351.331 357.68 354.685 356.805C355.816 357.711 356.093 358.816 355.514 360.121C354.667 360.829 353.976 361.657 353.442 362.607C353.644 364.307 353.92 365.964 354.27 367.581Z" fill="#101010"/>
<path opacity="0.01" fill-rule="evenodd" clip-rule="evenodd" d="M372.506 371.725C372.547 373.88 373.376 375.676 374.993 377.113C374.286 378.545 373.458 378.684 372.506 377.528C372.506 376.423 371.953 375.87 370.848 375.87C370.981 374.462 370.843 373.08 370.434 371.725C370.203 372.485 369.789 373.037 369.191 373.383C368.26 372.341 367.708 372.617 367.533 374.212C366.794 374.718 365.965 374.994 365.046 375.041C363.223 374.068 361.565 374.482 360.073 376.284C361.877 377.754 363.396 379.549 364.631 381.672C364.908 381.119 365.184 380.567 365.46 380.014C365.825 381.321 366.516 382.426 367.533 383.33C366.917 383.895 366.365 384.448 365.875 384.988C366.704 384.988 367.533 384.988 368.361 384.988C367.466 386.268 367.466 387.512 368.361 388.718C366.878 390.155 365.22 391.398 363.388 392.448C361.53 392.007 360.287 390.902 359.658 389.132C358.321 390.062 357.354 389.648 356.757 387.889C359.467 386.625 360.296 384.691 359.243 382.087C359.868 380.854 360.558 380.716 361.316 381.672C361.922 379.843 361.369 378.463 359.658 377.528C359.165 376.368 359.303 375.263 360.072 374.212C359.778 373.365 359.225 372.812 358.414 372.554C357.688 372.663 357.135 372.387 356.757 371.725C357.861 370.621 357.861 369.515 356.757 368.41C357.841 367.477 358.947 367.477 360.072 368.41C361.098 368.667 361.098 369.081 360.072 369.653C361.773 370.424 363.016 371.667 363.802 373.383C363.943 371.325 363.252 369.53 361.73 367.995C363.825 366.904 363.825 365.937 361.73 365.094C361.188 363.756 360.774 362.374 360.487 360.95C359.328 360.493 358.222 360.217 357.171 360.121C356.913 358.417 356.499 356.759 355.928 355.148C356.183 354.478 356.598 353.925 357.171 353.49C358 354.595 358.829 354.595 359.658 353.49C361.454 355.286 363.249 357.081 365.046 358.878C364.613 359.343 364.337 359.895 364.217 360.535C365.699 362.652 366.666 365 367.118 367.581C367.987 366.738 368.954 366.6 370.019 367.166C370.424 368.998 371.254 370.517 372.506 371.725ZM369.191 373.383C368.638 373.659 368.085 373.936 367.533 374.212C367.708 372.617 368.26 372.341 369.191 373.383ZM367.533 374.212C367.152 377.963 366.323 378.239 365.046 375.041C365.965 374.994 366.794 374.718 367.533 374.212ZM372.506 377.528C372.506 376.423 371.953 375.87 370.848 375.87C371.124 376.699 371.677 377.252 372.506 377.528ZM365.875 384.988C365.803 385.813 366.08 386.503 366.704 387.06C365.246 387.895 364.278 389.138 363.803 390.79C363.576 389.274 362.885 388.03 361.73 387.06C362.656 385.491 364.038 384.801 365.875 384.988Z" fill="#161616"/>
<path opacity="0.01" fill-rule="evenodd" clip-rule="evenodd" d="M350.955 363.436C350.208 365.282 348.827 366.111 346.811 365.923C346.811 365.094 346.811 364.265 346.811 363.436C348.352 362.963 349.734 362.963 350.955 363.436Z" fill="black"/>
<path opacity="0.01" fill-rule="evenodd" clip-rule="evenodd" d="M360.072 368.41C358.947 367.476 357.841 367.476 356.757 368.41C357.862 369.515 357.862 370.62 356.757 371.725C357.135 372.387 357.688 372.663 358.414 372.554C356.302 374.72 354.368 374.582 352.612 372.14C353.252 371.128 354.081 370.299 355.099 369.653C354.476 369.097 354.199 368.406 354.27 367.581C356.599 366.19 358.533 366.466 360.072 368.41Z" fill="#030303"/>
<path opacity="0.01" fill-rule="evenodd" clip-rule="evenodd" d="M373.335 371.725C373.059 371.725 372.782 371.725 372.506 371.725C372.782 369.515 373.059 369.515 373.335 371.725Z" fill="black"/>
<path opacity="0.01" fill-rule="evenodd" clip-rule="evenodd" d="M373.335 371.725C374.56 371.508 375.665 371.784 376.651 372.554C376.098 372.83 375.546 373.107 374.993 373.383C373.987 373.178 373.435 372.625 373.335 371.725Z" fill="black"/>
<path opacity="0.012" fill-rule="evenodd" clip-rule="evenodd" d="M367.533 374.212C367.152 377.963 366.323 378.239 365.046 375.041C365.965 374.994 366.794 374.718 367.533 374.212Z" fill="#484848"/>
<path opacity="0.016" fill-rule="evenodd" clip-rule="evenodd" d="M370.848 375.87C371.124 376.698 371.677 377.252 372.506 377.527C372.952 378.868 373.228 380.249 373.334 381.672C371.717 381.898 370.474 381.346 369.604 380.014C369.446 381.844 369.032 383.502 368.361 384.987C368.49 382.861 368.214 380.788 367.532 378.771C367.955 377.257 368.646 377.119 369.604 378.356C369.797 377.331 370.211 376.502 370.848 375.87Z" fill="#1E1E1E"/>
<path d="M335.998 352.514L336.033 352.46C336.114 352.354 336.291 352.218 336.533 352.066C338.643 351.4 340.406 350.799 341.266 350.689C345.218 350.179 355.868 348.123 359.368 348.123L359.686 348.054C362.19 350.569 366.851 348.104 370.668 347.122C370.948 347.137 371.226 347.154 371.501 347.174C369.961 349.317 368.939 351.855 368.646 354.806C368.591 355.359 368.356 359.124 368.499 359.634C367.644 359.953 366.064 360.03 364.858 359.713C363.975 359.481 362.999 358.607 362.946 358.438C361.018 359.993 354.569 359.553 354.258 357.816C352.922 358.78 350.482 359.434 348.796 358.828C348.293 358.639 347.041 358.334 346.725 357.993C346.506 357.757 346.624 356.91 346.425 357.156C346.126 357.529 344.687 360.047 344.091 360.083C343.005 360.15 340.943 357.89 340.783 356.737C340.004 357.392 338.909 358.616 337.501 357.927C337.109 357.736 337.296 357.117 336.868 356.977C335.893 356.656 334.693 357.67 334.452 356.21C334.279 355.159 335.718 353.968 335.674 352.861C335.674 352.861 335.672 352.58 335.998 352.514Z" fill="#F9F9F9"/>
<path d="M368.931 349.911C365.815 349.93 364.787 353.327 364.532 355.796C364.192 356.34 363.87 356.896 363.615 357.442C363.525 357.342 363.524 357.223 363.524 357.223L363.52 356.746C363.501 354.553 363.761 350.202 359.763 350.197C356.376 348.723 355.439 353.781 354.778 356.177C354.778 356.22 354.778 356.262 354.778 356.304C354.572 356.687 354.389 357.073 354.255 357.436C354.105 356.844 353.88 356.26 353.606 355.69C353.036 352.935 351.43 348.295 349.055 351.984C348.05 353.464 348.444 355.293 347.532 356.766L347.236 357.226C347.202 357.298 347.134 357.378 347 357.419C346.948 357.44 346.885 357.454 346.814 357.453C346.674 357.071 346.512 356.651 346.322 356.237C346.25 353.231 345.805 348.344 342.517 353.437C342.506 353.461 342.491 353.485 342.471 353.509C342.007 354.244 341.799 354.901 341.706 355.614C341.639 355.585 341.561 355.569 341.478 355.57C341.291 355.571 341.13 355.656 341.056 355.777L340.752 356.25L340.878 356.297C340.818 356.376 340.764 356.456 340.715 356.534C340.709 355.316 340.913 354.336 341.616 353.215C341.634 351.029 340.267 352.426 339.259 354.152C339.137 354.157 339.028 354.197 338.948 354.259L338.327 354.74L338.49 354.862C337.688 355.66 337.57 356.659 337.573 357.722C337.276 357.65 337.274 357.386 337.274 357.386L337.27 356.909C337.282 356.056 337.649 354.557 338.266 353.322C335.97 351.879 335.653 354.649 334.75 356.052L334.766 356.447C334.766 356.447 334.769 356.805 334.3 356.808C334.243 356.808 334.193 356.803 334.148 356.794C333.883 356.878 333.656 356.707 333.656 356.707C332.274 355.662 332.426 354.372 331.958 353.358C336.166 352.477 339.693 350.891 341.266 350.689C345.217 350.179 355.868 348.123 359.367 348.123L359.685 348.055C362.423 350.803 367.736 347.602 371.708 346.892C370.985 347.854 370.367 348.898 369.876 350.026C369.592 349.946 369.278 349.905 368.931 349.911Z" fill="#F9F9F9"/>
<path d="M364.17 380.887C363.946 380.679 363.748 380.428 363.576 380.147C363.535 380.275 363.49 380.391 363.44 380.493C363.163 381.059 362.658 381.672 362.077 382.007C361.708 382.078 361.322 382.153 360.925 382.229C360.681 382.171 360.44 382.038 360.212 381.808L360.337 382.009C360.337 382.009 359.872 382.048 359.837 381.669C359.832 381.607 359.839 381.554 359.856 381.509C358.764 380.805 358.204 379.653 358.016 378.458C357.172 381.171 353.202 382.683 352.71 378.816C352.53 378.777 352.429 378.641 352.429 378.641C350.658 376.169 353.471 371.071 357.098 373.73C357.62 374.112 357.618 375.846 357.981 376.789C358.007 376.559 358.044 376.336 358.092 376.122C358.262 375.364 357.287 373.896 358.356 373.314C359.05 372.937 360.56 373.327 361.406 373.255C362.218 373.226 362.805 373.81 363.199 374.668C363.805 373.253 365.067 372.429 367.045 373.317C367.303 374.622 367.635 375.901 368.036 377.151C368.195 377.688 368.345 378.235 368.486 378.791C368.374 379.828 368.058 380.736 367.37 381.228C366.563 381.312 365.789 381.398 365.065 381.494C364.808 381.434 364.533 381.352 364.239 381.244L364.17 380.887Z" fill="#F9F9F9"/>
<path d="M347.55 375.861C348.385 374.138 349.78 372.336 351.317 372.887C351.583 372.983 352.592 377.669 352.651 378.197C353.044 382.474 348.057 382.708 347.165 379.096C346.848 379.532 346.464 379.937 346.061 380.257C344.765 378.972 343.607 377.473 342.478 376.127C344.049 375.158 346.156 374.774 347.55 375.861Z" fill="#F9F9F9"/>
<path d="M346.488 378.544L346.748 378.02C346.811 377.885 346.963 377.783 347.148 377.768C347.405 377.746 347.628 377.898 347.648 378.108C347.653 378.171 347.64 378.233 347.61 378.289L347.474 378.563C347.952 380.929 350.961 382.465 352.476 379.345L352.695 378.629C352.739 378.469 352.906 378.341 353.115 378.324C353.369 378.303 353.591 378.452 353.613 378.658L353.676 379.205C354.9 381.106 356.501 381.52 357.757 378.87L358.016 378.346C358.079 378.211 358.231 378.109 358.416 378.093C358.673 378.072 358.897 378.224 358.916 378.434L358.961 378.929C359.987 380.601 361.8 382.013 362.711 379.12L362.679 378.619C362.665 378.412 362.856 378.229 363.11 378.208C363.295 378.192 363.464 378.268 363.55 378.39L363.901 378.862C365.701 380.123 368.262 381.625 367.946 378.183L367.877 377.425C367.866 377.305 367.924 377.192 368.024 377.114C368.028 377.126 368.032 377.139 368.036 377.151C368.199 377.699 368.351 378.258 368.495 378.826C368.554 379.566 368.626 380.328 368.713 381.091C367.252 381.237 365.867 381.377 364.639 381.553C361.399 382.015 353.412 384.063 350.279 383.05C348.456 382.461 346.925 381.192 345.542 379.725C345.934 379.391 346.265 378.994 346.488 378.544Z" fill="#F9F9F9"/>
<path d="M368.396 379.632C368.356 379.76 368.311 379.876 368.262 379.978C368.232 380.042 368.198 380.106 368.162 380.17C368.226 379.502 368.263 378.748 368.27 377.971C368.469 378.695 368.651 379.437 368.82 380.194C368.665 380.026 368.523 379.837 368.396 379.632Z" fill="#F9F9F9"/>
<path d="M368.034 381.159C368.18 380.304 368.258 379.164 368.27 377.971C368.544 378.971 368.787 380.003 369.007 381.062C368.679 381.095 368.354 381.127 368.034 381.159Z" fill="#F9F9F9"/>
<path d="M369.909 373.608C370.133 375.416 370.768 379.701 369.585 380.908C369.105 380.977 368.626 381.036 368.157 381.093C368.154 381.091 368.151 381.09 368.148 381.089C368.005 378.313 367.781 375.558 367.43 372.872C367.98 372.35 368.796 372.437 369.909 373.608Z" fill="#F9F9F9"/>
<path d="M369.906 377.838L369.839 377.079C369.82 376.869 369.938 376.686 370.103 376.669C370.222 376.657 370.332 376.735 370.391 376.859L370.612 377.299C372.047 378.77 374.142 380.444 373.786 376.42L373.719 375.661C373.7 375.452 373.818 375.268 373.983 375.251C374.147 375.234 374.295 375.391 374.314 375.6L374.355 376.066C374.832 377.109 375.356 378.143 376.221 378.603C374.101 380.289 370.97 380.756 368.148 381.094C368.115 380.449 368.078 379.806 368.035 379.164C369.085 380.139 370.153 380.631 369.906 377.838Z" fill="#F9F9F9"/>
<path d="M378.87 374.242C378.88 374.24 378.89 374.239 378.9 374.238C378.921 374.235 378.941 374.235 378.959 374.237C378.961 374.269 378.963 374.301 378.966 374.333C378.966 374.354 378.966 374.376 378.966 374.398C378.936 374.344 378.904 374.292 378.87 374.242Z" fill="#F9F9F9"/>
<path d="M374.76 379.509C374.657 379.52 374.585 379.481 374.536 379.426C374.484 379.374 374.44 379.292 374.429 379.16C374.428 379.154 374.428 379.147 374.427 379.14C374.391 378.676 374.197 378.063 374.005 377.407C373.959 377.774 373.85 378.122 373.665 378.437C373.692 378.465 373.718 378.501 373.742 378.549C373.905 378.875 373.654 379.072 373.654 379.072C369.59 382.257 370.41 374.24 370.518 371.835C371.657 372.129 372.933 373.497 373.588 375.031C373.61 374.687 373.694 374.369 373.868 374.099C374.365 373.328 377.997 372.571 378.589 372.85C378.709 373.079 378.819 373.301 378.918 373.514C378.931 373.787 378.947 374.059 378.965 374.332C378.968 374.662 378.975 374.991 378.988 375.32C378.176 376.546 377.324 377.709 376.275 378.56C375.819 378.93 375.315 379.242 374.777 379.508L374.76 379.509Z" fill="#F9F9F9"/>
<path d="M331.406 354.385C329.526 354.537 327.893 353.264 325.77 353.27C333.39 353.331 339.749 351.183 344.443 349.382C347.114 348.498 349.684 347.287 352.14 346.054C353.553 345.532 355.009 345.157 356.671 345.446C359.777 345.986 363.903 348.384 367.31 347.691C369.858 347.172 373.305 345.505 375.778 344.574C376.111 344.539 376.445 344.522 376.777 344.521C378.833 345.552 381.084 346.362 383.441 346.942C384.175 347.665 386.493 346.561 386.371 347.337C386.223 348.287 383.844 352.359 382.04 352.942C379.005 353.923 370.345 354.999 366.166 354.987C362.834 355.412 358.425 354.419 355.919 354.485C352.071 354.586 350.313 355.588 345.124 355.588C341.039 355.588 339.653 356.055 335.601 356.138L331.406 354.385Z" fill="#CD6B5B"/>
<path d="M355.42 344.571C356.814 344.71 363.83 346.664 365.153 347.168L365.776 347.407C368.59 346.221 371.393 344.978 374.251 343.878L374.56 343.714C374.808 343.52 375.089 343.468 375.335 343.474C375.577 343.46 375.856 343.501 376.111 343.681C378.611 344.845 380.418 345.362 383.034 346.365L385.227 346.851C385.227 346.851 385.393 347.103 385.324 347.714C381.984 346.887 378.935 346.173 375.433 344.682C372.756 345.497 369.064 348.378 366.303 348.571C362.706 348.822 358.858 346.249 355.525 345.749C353.621 345.464 351.662 346.701 349.94 347.141C345.493 348.846 337.591 352.305 331.92 353.094C332.067 352.947 352.296 343.612 355.42 344.571Z" fill="#994F43"/>
<path d="M364.843 375.169C365.49 374.883 372.944 372.525 373.677 372.156C375.054 371.692 377.864 372.98 378.776 371.073C380.417 367.641 384.578 349.038 385.009 348.361C386.448 346.105 380.546 374.295 378.208 377.581C376.619 379.815 373.559 380.87 372.628 381.811C370.2 383.765 366.601 384.118 364.443 384.266C360.317 384.548 352.298 385.136 349.044 383.997C343.627 382.101 340.128 375.207 337.602 372.816C337.471 372.692 328.306 354.744 327.893 354.123C327.576 353.647 329.76 354.375 329.76 354.375C329.76 354.375 340.774 372.752 341.535 372.697C341.535 372.697 343.916 373.958 348.676 373.17C348.676 373.17 361.223 376.511 364.843 375.169Z" fill="#D97E67"/>
<path d="M350.778 384.681C347.817 384.674 346.177 383.426 345.734 383.102C342.924 381.047 337.458 372.483 336.975 372.087C338.43 372.06 344.098 382.145 349.55 383.681C354.14 383.712 356.336 384.271 360.937 384.437C360.759 384.483 354.042 384.681 350.778 384.681Z" fill="#994F43"/>
<path d="M374.66 381.557C371.33 383.015 367.371 384.789 366.965 384.148C367.286 383.995 369.662 383.148 369.976 382.963C372.447 382.203 377.308 378.83 378.062 378.539C376.6 379.74 376.894 380.578 374.66 381.557Z" fill="#994F43"/>
<path d="M347.559 373.557C340.806 374.306 340.122 373.249 340.122 373.249C340.122 373.249 346.845 373.074 346.915 373.084C358.468 374.521 358.882 375.974 366.393 374.754C368.019 374.214 373.571 371.881 373.589 371.878C374.053 372.083 381.626 372.216 379.663 372.637C378.989 372.781 375.692 373.096 373.609 373.448C373.609 373.448 367.346 375.925 365.541 376.151C358.206 377.068 347.559 373.557 347.559 373.557Z" fill="#994F43"/>
<path d="M377.504 353.704C375.84 354.407 366.992 355.505 365.247 356.007C357.559 357.133 352.561 354.636 352.561 354.636C340.807 358.23 326.659 353.753 325.81 353.611C325.62 353.58 332.18 354.382 333.351 354.324C337.326 354.127 342.838 355.834 344.83 354.958C346.441 354.734 352.73 353.629 352.801 353.637C356.442 353.672 361.624 354.44 365.645 354.49C369.832 354.541 369.035 353.863 372.866 353.322C374.493 352.854 378.868 351.71 378.886 351.708C379.132 351.802 381.016 352.61 382.344 351.885C384.169 350.89 386.111 347.687 386.111 347.687C386.111 347.687 385.428 352.619 381.477 353.889L377.504 353.704Z" fill="#994F43"/>
</svg>