<svg xmlns="http://www.w3.org/2000/svg" fill="none" viewBox="314.74 327.85 82.01 71.86">
<path d="M393.657 357.581C392.04 365.557 388.432 379.569 385.482 387.121C384.969 388.436 384.571 389.935 384.242 391.525C368.698 399.612 347.596 402.5 331.641 396.562C318.371 384.516 310.514 360.798 317.12 345.121C317.72 343.696 318.421 342.377 319.211 341.157C326.964 336.57 335.075 331.87 343.948 328.713C346.827 328.622 349.82 328.312 352.893 327.878C364.405 328.143 376.028 330.902 383.79 333.764C386.201 334.596 388.455 335.617 390.586 336.793C392.395 338.577 394.261 340.291 396.31 341.681C395.813 346.415 395.232 351.281 393.657 357.581Z" fill="#E1A585"/>
<path d="M396.48 350.105C394.026 362.628 387.633 378.282 385.149 390.82C385.149 390.82 386.536 377.279 388.827 370.574C391.578 362.322 392.418 353.81 395.109 345.442C395.109 343.984 395.242 342.524 395.444 341.063C395.87 341.377 396.303 341.679 396.745 341.965C396.606 344.672 396.491 347.384 396.48 350.105Z" fill="#7F5D4B"/>
<path d="M350.063 378.675L350.12 378.656C350.14 378.665 350.159 378.675 350.179 378.684C350.735 378.729 351.277 378.808 351.809 378.908C352.64 378.771 353.4 378.346 354.359 378.379C354.625 378.248 354.927 378.128 355.26 378.018C357.703 377.936 360.139 377.811 362.64 377.811C363.922 377.811 365.194 378.142 366.462 378.293C366.464 378.294 366.467 378.295 366.469 378.296L366.47 378.294C366.627 378.312 366.784 378.328 366.94 378.34L367.097 378.417C367.287 378.506 367.418 378.697 367.418 378.917C367.418 379.138 367.287 379.329 367.097 379.418L366.669 379.628C365.55 381.718 361.35 381.408 359.267 381.408C358.562 381.408 357.882 381.343 357.218 381.239C354.563 381.302 351.782 381.175 349.803 379.842L349.74 379.966L349.298 379.749C349.248 379.748 349.198 379.748 349.148 379.748C349.148 379.748 348.586 379.748 348.586 379.194C348.586 378.641 349.148 378.641 349.148 378.641C349.225 378.641 349.302 378.641 349.379 378.643C349.395 378.641 349.412 378.641 349.429 378.641H349.991V378.67C350.015 378.671 350.039 378.673 350.063 378.675Z" fill="#D1997B"/>
<path d="M348 378.394C348.255 378.394 348.51 378.394 348.766 378.394C353.564 376.517 360.492 377.526 365.54 377.573C366.168 377.779 366.845 377.85 367.507 377.85L367.602 377.921L367.617 377.876L368.445 378.148C368.588 378.191 368.712 378.279 368.8 378.394C368.519 378.394 368.238 378.394 367.957 378.394C361.091 378.395 354.203 378.633 347.316 378.667L348 378.394Z" fill="#7F5D4B"/>
<path d="M327.81 360.701C332.68 361.432 337.384 360.346 342.14 359.662C351.172 359.637 360.392 361.909 368.883 358.194C371.026 357.566 381.649 359.466 382.852 357.827C384.289 355.869 381.767 363.767 379.431 366.618C377.843 368.557 374.939 370.755 374.009 371.571C371.583 373.266 369.282 373.09 366.22 373.431C360.466 374.072 353.506 373.938 348.387 373.174C340.539 370.894 333.508 365.156 326.12 361.951C326.12 361.951 324.879 361.834 325.402 360.913C325.445 360.838 325.491 360.772 325.54 360.714C326.289 360.759 327.048 360.747 327.809 360.7L327.81 360.701Z" fill="#D97E67"/>
<path d="M362.898 373.89L362.116 373.876C358.893 374.339 355.439 374.061 352.177 374.061C348.693 374.054 344.483 373.671 341.552 371.81C338.745 370.026 336.94 367.928 334.064 367C333.617 366.653 333.155 366.31 332.672 365.966C334.126 365.943 335.536 366.031 336.61 366.563C341.309 368.894 344.034 371.86 349.481 373.194C354.066 373.221 358.613 373.706 363.209 373.85C363.032 373.89 362.898 373.89 362.898 373.89Z" fill="#994F43"/>
<path d="M379.804 366.818C380.525 367.627 379.605 368.262 379.605 368.262L379.081 368.623C376.694 370.382 374.432 372.48 371.335 373.114C371.335 373.114 370.52 373.273 370.114 372.717C370.776 372.443 371.422 372.106 372.05 371.723C374.423 370.696 376.613 369.446 377.897 367.648C378.382 367.266 378.828 366.866 379.218 366.442C379.413 366.493 379.615 366.607 379.804 366.818Z" fill="#994F43"/>
<path d="M333.78 360.295C331.902 360.469 329.964 360.506 327.843 360.514C334.152 358.837 341.158 355.626 345.847 353.561C348.516 352.547 351.085 351.16 353.538 349.746C354.95 349.148 356.405 348.717 358.065 349.048C361.169 349.668 365.291 352.417 368.695 351.622C371.241 351.028 374.685 349.116 377.156 348.049C377.489 348.009 377.822 347.99 378.154 347.988C380.208 349.171 382.457 350.099 384.812 350.764C385.546 351.593 387.209 351.075 387.088 351.965C386.939 353.054 385.215 356.974 383.412 357.642C380.38 358.767 376.137 359.326 371.961 359.312C363.52 360.549 354.501 360.001 345.94 360.001C341.858 360.001 337.829 360.2 333.78 360.295Z" fill="#CD6B5B"/>
<path d="M356.815 348.045C358.208 348.204 365.218 350.444 366.54 351.022L367.162 351.296C369.973 349.937 372.775 348.511 375.63 347.25L375.939 347.062C376.186 346.84 376.467 346.78 376.713 346.788C376.954 346.771 377.233 346.818 377.489 347.024C379.986 348.359 382.444 349.701 385.058 350.85L385.944 351.158C385.944 351.158 386.762 351.446 386.694 352.147C383.356 351.199 380.31 349.882 376.81 348.172C374.136 349.107 370.448 352.41 367.688 352.63C364.094 352.918 360.25 349.969 356.919 349.396C355.017 349.068 353.06 350.487 351.34 350.992C346.897 352.946 338.566 358.159 332.9 359.063C333.047 358.895 353.693 346.946 356.815 348.045Z" fill="#994F43"/>
<path d="M377.047 359.316L373.001 359.066C371.339 359.769 362.792 359.983 361.049 360.485C353.367 361.61 344.552 360.292 344.552 360.292C334.277 363 322.34 360.484 321.492 360.342C321.303 360.311 328.01 360.613 329.18 360.555C333.152 360.359 338.659 360.312 340.649 359.437C342.259 359.213 343.215 358.767 344.585 358.11C344.651 358.108 344.72 358.109 344.791 358.117C352.218 358.189 361.157 358.862 368.661 357.803C370.286 357.335 374.951 355.897 374.97 355.896C375.554 356.12 377.865 356.989 378.673 357.145C383.269 358.031 387.137 357.836 377.047 359.316Z" fill="#994F43"/>
<path opacity="0.01" d="M343.947 328.709C344.595 328.479 345.246 328.256 345.901 328.043C348.205 327.87 350.546 327.82 352.892 327.874C349.82 328.308 346.827 328.618 343.947 328.709Z" fill="black"/>
<path opacity="0.01" fill-rule="evenodd" clip-rule="evenodd" d="M355.133 355.511C356.25 356.07 356.25 356.07 355.133 355.511V355.511Z" fill="black"/>
<path opacity="0.01" fill-rule="evenodd" clip-rule="evenodd" d="M355.961 367.933C353.687 368.417 351.755 369.522 350.163 371.246C347.808 368.307 348.636 366.651 352.648 366.277C353.705 365.354 353.705 364.526 352.648 363.792C351.782 360.248 353.024 358.041 356.375 357.167C357.505 358.072 357.782 359.176 357.203 360.48C356.356 361.187 355.667 362.015 355.132 362.964C355.334 364.662 355.61 366.318 355.961 367.933Z" fill="#101010"/>
<path opacity="0.01" fill-rule="evenodd" clip-rule="evenodd" d="M374.18 372.074C374.221 374.227 375.049 376.021 376.665 377.457C375.959 378.888 375.131 379.027 374.18 377.872C374.18 376.768 373.628 376.215 372.524 376.215C372.656 374.808 372.519 373.428 372.11 372.074C371.88 372.833 371.465 373.385 370.868 373.731C369.937 372.69 369.386 372.965 369.211 374.559C368.473 375.064 367.645 375.34 366.727 375.387C364.905 374.415 363.249 374.829 361.757 376.629C363.56 378.098 365.078 379.891 366.312 382.012C366.588 381.46 366.865 380.908 367.141 380.356C367.505 381.661 368.195 382.766 369.211 383.669C368.596 384.234 368.044 384.786 367.555 385.325C368.383 385.325 369.211 385.325 370.039 385.325C369.145 386.605 369.145 387.847 370.039 389.052C368.557 390.488 366.9 391.73 365.07 392.779C363.214 392.338 361.972 391.234 361.343 389.466C360.007 390.395 359.041 389.981 358.445 388.224C361.153 386.961 361.981 385.029 360.929 382.427C361.553 381.195 362.242 381.057 362.999 382.012C363.605 380.185 363.053 378.806 361.343 377.872C360.85 376.713 360.989 375.609 361.757 374.559C361.463 373.713 360.911 373.16 360.101 372.903C359.375 373.011 358.823 372.735 358.444 372.074C359.548 370.971 359.548 369.866 358.444 368.762C359.528 367.829 360.632 367.829 361.757 368.762C362.782 369.018 362.782 369.433 361.757 370.004C363.456 370.774 364.699 372.016 365.484 373.731C365.625 371.674 364.934 369.88 363.413 368.348C365.507 367.258 365.507 366.291 363.413 365.449C362.872 364.111 362.458 362.731 362.171 361.308C361.013 360.852 359.909 360.576 358.858 360.48C358.601 358.777 358.187 357.121 357.616 355.511C357.871 354.842 358.285 354.289 358.858 353.854C359.687 354.958 360.515 354.958 361.343 353.854C363.138 355.649 364.931 357.443 366.726 359.238C366.294 359.702 366.018 360.255 365.898 360.894C367.379 363.008 368.345 365.354 368.797 367.933C369.665 367.091 370.632 366.953 371.695 367.519C372.1 369.349 372.929 370.867 374.18 372.074ZM370.868 373.731C370.315 374.006 369.763 374.283 369.211 374.559C369.386 372.965 369.937 372.69 370.868 373.731ZM369.211 374.559C368.831 378.306 368.003 378.582 366.727 375.387C367.645 375.34 368.473 375.064 369.211 374.559ZM374.18 377.872C374.18 376.768 373.628 376.215 372.524 376.215C372.8 377.043 373.352 377.596 374.18 377.872ZM367.555 385.325C367.483 386.15 367.76 386.839 368.383 387.395C366.926 388.23 365.96 389.472 365.484 391.122C365.258 389.607 364.568 388.365 363.414 387.395C364.339 385.828 365.719 385.139 367.555 385.325Z" fill="#161616"/>
<path opacity="0.01" fill-rule="evenodd" clip-rule="evenodd" d="M352.623 363.791C351.881 365.624 350.51 366.447 348.507 366.26C348.507 365.437 348.507 364.614 348.507 363.791C350.038 363.32 351.411 363.32 352.623 363.791Z" fill="black"/>
<path opacity="0.01" fill-rule="evenodd" clip-rule="evenodd" d="M361.758 368.761C360.634 367.829 359.529 367.829 358.445 368.761C359.549 369.865 359.549 370.97 358.445 372.074C358.824 372.735 359.376 373.011 360.102 372.902C357.992 375.066 356.059 374.928 354.305 372.488C354.944 371.477 355.772 370.649 356.789 370.004C356.166 369.448 355.89 368.758 355.961 367.933C358.288 366.543 360.22 366.819 361.758 368.761Z" fill="#030303"/>
<path opacity="0.01" fill-rule="evenodd" clip-rule="evenodd" d="M375.001 372.06C374.728 372.06 374.454 372.06 374.181 372.06C374.454 369.871 374.728 369.871 375.001 372.06Z" fill="black"/>
<path opacity="0.01" fill-rule="evenodd" clip-rule="evenodd" d="M375.009 372.074C376.226 371.858 377.323 372.132 378.302 372.897C377.753 373.171 377.204 373.446 376.655 373.72C375.657 373.517 375.108 372.968 375.009 372.074Z" fill="black"/>
<path opacity="0.012" fill-rule="evenodd" clip-rule="evenodd" d="M372.524 376.215C371.888 376.847 371.474 377.675 371.282 378.7C370.324 377.463 369.634 377.601 369.211 379.114C369.892 381.13 370.169 383.2 370.039 385.325C369.211 385.325 368.383 385.325 367.555 385.325C368.044 384.786 368.596 384.233 369.211 383.669C368.195 382.766 367.505 381.661 367.141 380.356C366.865 380.908 366.588 381.46 366.313 382.012C365.079 379.891 363.561 378.098 361.758 376.629C363.249 374.829 364.906 374.415 366.727 375.387C368.003 378.582 368.831 378.306 369.211 374.559C369.764 374.283 370.315 374.006 370.868 373.731C371.466 373.384 371.88 372.833 372.11 372.074C372.519 373.427 372.656 374.808 372.524 376.215ZM366.727 375.387C368.003 378.582 368.831 378.306 369.211 374.559C368.473 375.064 367.645 375.34 366.727 375.387Z" fill="#484848"/>
<path opacity="0.016" fill-rule="evenodd" clip-rule="evenodd" d="M372.524 376.215C372.799 377.043 373.352 377.596 374.18 377.872C374.626 379.211 374.901 380.591 375.008 382.012C373.392 382.239 372.15 381.687 371.281 380.356C371.123 382.185 370.709 383.841 370.039 385.325C370.168 383.2 369.892 381.13 369.211 379.114C369.633 377.602 370.324 377.463 371.281 378.7C371.473 377.675 371.888 376.847 372.524 376.215Z" fill="#1E1E1E"/>
</svg>