<svg xmlns="http://www.w3.org/2000/svg" fill="none" viewBox="315.15 328.6 82.08 71.92">
<path d="M394.144 358.352C392.524 366.334 388.914 380.359 385.962 387.917C385.448 389.234 385.049 390.733 384.72 392.325C369.163 400.419 348.043 403.309 332.073 397.367C318.792 385.311 310.928 361.572 317.54 345.881C318.141 344.455 318.842 343.135 319.633 341.914C327.393 337.323 335.51 332.619 344.391 329.458C347.273 329.368 350.269 329.058 353.344 328.623C364.866 328.888 376.499 331.65 384.268 334.514C386.681 335.347 388.937 336.369 391.07 337.546C392.881 339.332 394.747 341.046 396.799 342.438C396.301 347.176 395.72 352.047 394.144 358.352Z" fill="#E1A585"/>
<path d="M396.969 350.873C394.513 363.407 388.114 379.074 385.628 391.623C385.628 391.623 387.016 378.071 389.309 371.36C392.062 363.1 392.903 354.581 395.596 346.206C395.596 344.747 395.729 343.286 395.932 341.823C396.358 342.138 396.791 342.44 397.234 342.726C397.095 345.435 396.98 348.15 396.969 350.873Z" fill="#7F5D4B"/>
<path opacity="0.01" d="M344.391 329.459C345.038 329.228 345.69 329.006 346.346 328.792C348.652 328.619 350.995 328.569 353.343 328.623C350.268 329.058 347.272 329.368 344.391 329.459Z" fill="black"/>
<path opacity="0.01" fill-rule="evenodd" clip-rule="evenodd" d="M355.585 356.284C356.69 356.837 356.69 356.837 355.585 356.284V356.284Z" fill="black"/>
<path opacity="0.01" fill-rule="evenodd" clip-rule="evenodd" d="M356.414 368.717C354.139 369.201 352.205 370.307 350.612 372.032C348.254 369.092 349.083 367.434 353.098 367.059C354.156 366.136 354.156 365.307 353.098 364.572C352.231 361.026 353.475 358.816 356.828 357.941C357.96 358.847 358.237 359.952 357.657 361.257C356.81 361.965 356.12 362.794 355.585 363.744C355.787 365.443 356.063 367.101 356.414 368.717Z" fill="#101010"/>
<path opacity="0.01" fill-rule="evenodd" clip-rule="evenodd" d="M374.65 372.861C374.69 375.016 375.519 376.812 377.136 378.249C376.43 379.682 375.601 379.82 374.65 378.664C374.65 377.559 374.097 377.006 372.992 377.006C373.124 375.598 372.987 374.216 372.577 372.862C372.347 373.621 371.932 374.173 371.334 374.519C370.403 373.477 369.851 373.753 369.676 375.348C368.938 375.854 368.109 376.13 367.19 376.177C365.367 375.204 363.709 375.618 362.216 377.42C364.021 378.89 365.54 380.685 366.775 382.808C367.051 382.255 367.328 381.703 367.604 381.15C367.969 382.457 368.659 383.563 369.676 384.466C369.06 385.031 368.508 385.584 368.018 386.124C368.847 386.124 369.676 386.124 370.505 386.124C369.61 387.404 369.61 388.648 370.505 389.854C369.021 391.291 367.363 392.534 365.531 393.584C363.674 393.143 362.43 392.038 361.801 390.268C360.464 391.198 359.497 390.784 358.9 389.025C361.611 387.761 362.44 385.827 361.387 383.223C362.011 381.99 362.702 381.852 363.459 382.808C364.066 380.98 363.513 379.599 361.801 378.664C361.308 377.504 361.447 376.399 362.216 375.348C361.921 374.501 361.369 373.948 360.558 373.691C359.832 373.799 359.279 373.523 358.9 372.862C360.005 371.757 360.005 370.651 358.9 369.546C359.984 368.613 361.09 368.613 362.216 369.546C363.242 369.803 363.242 370.218 362.216 370.789C363.917 371.56 365.16 372.804 365.946 374.519C366.087 372.461 365.395 370.666 363.874 369.132C365.969 368.041 365.969 367.073 363.874 366.23C363.331 364.892 362.917 363.51 362.63 362.086C361.471 361.629 360.366 361.353 359.315 361.257C359.057 359.553 358.642 357.895 358.071 356.284C358.327 355.614 358.741 355.061 359.315 354.626C360.144 355.731 360.972 355.731 361.801 354.626C363.597 356.422 365.393 358.217 367.189 360.014C366.756 360.479 366.48 361.032 366.36 361.672C367.842 363.788 368.81 366.136 369.261 368.717C370.131 367.874 371.098 367.736 372.162 368.303C372.568 370.134 373.397 371.653 374.65 372.861ZM371.334 374.519C370.781 374.795 370.229 375.072 369.676 375.348C369.851 373.753 370.403 373.477 371.334 374.519ZM369.676 375.348C369.296 379.099 368.467 379.375 367.19 376.177C368.109 376.13 368.938 375.854 369.676 375.348ZM374.65 378.664C374.65 377.559 374.097 377.006 372.992 377.006C373.268 377.835 373.821 378.388 374.65 378.664ZM368.018 386.124C367.947 386.949 368.224 387.639 368.847 388.196C367.389 389.031 366.422 390.275 365.946 391.926C365.72 390.41 365.029 389.166 363.874 388.196C364.8 386.627 366.182 385.937 368.018 386.124Z" fill="#161616"/>
<path opacity="0.01" fill-rule="evenodd" clip-rule="evenodd" d="M353.099 364.573C352.352 366.419 350.971 367.248 348.954 367.059C348.954 366.231 348.954 365.402 348.954 364.573C350.496 364.099 351.878 364.099 353.099 364.573Z" fill="black"/>
<path opacity="0.01" fill-rule="evenodd" clip-rule="evenodd" d="M362.216 369.546C361.09 368.613 359.984 368.613 358.9 369.546C360.005 370.651 360.005 371.757 358.9 372.862C359.279 373.523 359.832 373.799 360.558 373.69C358.446 375.856 356.511 375.718 354.756 373.276C355.396 372.264 356.225 371.435 357.243 370.789C356.619 370.233 356.342 369.543 356.414 368.717C358.743 367.326 360.677 367.602 362.216 369.546Z" fill="#030303"/>
<path opacity="0.01" fill-rule="evenodd" clip-rule="evenodd" d="M375.478 372.862C375.202 372.862 374.925 372.862 374.649 372.862C374.926 370.651 375.202 370.651 375.478 372.862Z" fill="black"/>
<path opacity="0.01" fill-rule="evenodd" clip-rule="evenodd" d="M375.479 372.861C376.704 372.644 377.808 372.92 378.794 373.69C378.241 373.966 377.689 374.243 377.136 374.519C376.131 374.314 375.578 373.761 375.479 372.861Z" fill="black"/>
<path opacity="0.012" fill-rule="evenodd" clip-rule="evenodd" d="M372.991 377.006C372.355 377.638 371.94 378.467 371.748 379.493C370.79 378.255 370.098 378.393 369.676 379.907C370.357 381.924 370.634 383.997 370.505 386.124C369.676 386.124 368.847 386.124 368.018 386.124C368.508 385.584 369.06 385.031 369.676 384.466C368.659 383.562 367.968 382.457 367.604 381.15C367.328 381.703 367.051 382.255 366.775 382.808C365.54 380.685 364.02 378.89 362.216 377.42C363.709 375.618 365.366 375.204 367.189 376.177C368.466 379.375 369.295 379.099 369.676 375.348C370.229 375.072 370.781 374.795 371.334 374.519C371.932 374.173 372.347 373.621 372.577 372.861C372.986 374.216 373.124 375.598 372.991 377.006ZM367.189 376.177C368.466 379.375 369.295 379.099 369.676 375.348C368.937 375.854 368.108 376.13 367.189 376.177Z" fill="#484848"/>
<path opacity="0.016" fill-rule="evenodd" clip-rule="evenodd" d="M372.991 377.006C373.267 377.835 373.82 378.388 374.649 378.664C375.095 380.004 375.371 381.386 375.478 382.808C373.861 383.034 372.618 382.482 371.748 381.15C371.59 382.981 371.175 384.638 370.505 386.124C370.634 383.997 370.357 381.925 369.676 379.907C370.098 378.393 370.79 378.255 371.748 379.493C371.94 378.467 372.355 377.638 372.991 377.006Z" fill="#1E1E1E"/>
<path d="M356.686 386.682L356.727 386.662C356.742 386.672 356.756 386.681 356.77 386.691C357.172 386.737 357.563 386.817 357.948 386.917C358.549 386.779 359.098 386.35 359.792 386.383C359.983 386.251 360.202 386.129 360.443 386.018C362.209 385.935 363.969 385.809 365.778 385.809C366.704 385.809 367.624 386.144 368.54 386.296C368.542 386.297 368.544 386.298 368.545 386.299L368.546 386.297C368.66 386.316 368.773 386.331 368.886 386.344L368.999 386.421C369.137 386.511 369.232 386.704 369.232 386.927C369.232 387.15 369.137 387.343 368.999 387.432L368.69 387.645C367.881 389.756 364.845 389.443 363.339 389.443C362.83 389.443 362.338 389.378 361.858 389.273C359.938 389.336 357.928 389.208 356.498 387.861L356.452 387.986L356.133 387.767C356.097 387.766 356.061 387.766 356.025 387.766C356.025 387.766 355.618 387.766 355.618 387.206C355.618 386.647 356.025 386.647 356.025 386.647C356.08 386.647 356.136 386.648 356.191 386.649C356.203 386.648 356.215 386.647 356.228 386.647H356.634V386.676C356.651 386.678 356.668 386.68 356.686 386.682Z" fill="#D1997B"/>
<path d="M354.884 386.395C355.068 386.395 355.253 386.395 355.437 386.395C358.906 384.499 363.914 385.518 367.563 385.565C368.017 385.774 368.506 385.845 368.985 385.845L369.054 385.917L369.064 385.872L369.663 386.146C369.767 386.19 369.856 386.278 369.92 386.395C369.717 386.395 369.513 386.395 369.31 386.395C364.347 386.396 359.368 386.637 354.39 386.671L354.884 386.395Z" fill="#7F5D4B"/>
<path d="M373.295 363.93C373.295 371.644 368.894 377.898 363.466 377.898C358.038 377.898 353.638 371.644 353.638 363.93C353.638 356.217 358.038 349.963 363.466 349.963C368.894 349.963 373.295 356.217 373.295 363.93Z" fill="#482520"/>
<path d="M372.431 371.074C372.431 371.976 373.054 371.243 372.818 368.306C372.611 365.714 372.456 357.829 371.794 356.418C371.16 355.064 367.352 351.883 364.33 351.883C363.756 351.883 361.205 351.791 359.01 352.908C357.742 353.554 356.449 355.455 356.095 355.811C354.435 357.477 353.439 366.271 353.98 367.64C354.084 367.902 353.206 367.934 353.206 365.743C353.206 364.33 352.321 356.785 353.337 353.576C354.532 349.803 356.393 347.458 358.577 345.76C360.262 344.451 362.01 349.111 363.466 349.111C363.87 349.111 366.603 344.494 368.381 346.036C370.04 347.475 371.835 349.45 372.771 351.707C374.749 356.476 373.079 365.036 373.079 367.236L372.431 371.074Z" fill="#CD6B5B"/>
<path d="M373.295 365.743C373.295 366.752 373.373 366.569 373.382 368.306C373.396 370.98 373.679 374.161 372.834 376.753C372.314 378.349 370.601 381.374 369.842 381.535C367.959 381.936 364.655 381.309 364.655 381.309C364.655 381.309 361.953 381.943 360.543 381.809C359.635 381.723 357.433 380.66 356.584 379.365C354.959 376.886 354.046 372.859 353.59 369.402C353.315 367.326 353.206 365.455 353.206 364.25C353.206 361.309 354.412 369.444 357.355 371.735C359.604 373.485 360.686 374.486 363.791 374.486C366.939 374.486 368.697 371.684 370.518 370.743C370.869 370.562 373.295 365.743 373.295 365.743Z" fill="#D97E67"/>
<path d="M367.463 346.445C366.705 346.398 363.499 350.006 363.467 349.99C363.149 349.833 360.781 347.09 359.696 346.618C357.884 345.829 355.168 350.94 355.148 350.991C354.515 351.569 353.962 352.234 353.525 352.953C353.21 352.744 353.342 352.354 353.342 352.354L353.585 351.648C353.853 351.252 354.08 350.821 354.233 350.369C355.389 348.648 357.361 344.613 360.109 345.633C361.553 346.168 362.415 347.625 363.466 348.676C364.437 347.691 366.046 345.421 367.463 345.379C369.575 345.316 371.914 348.623 372.459 350.323C372.987 350.823 372.667 351.603 372.667 351.603C371.968 350.872 368.987 346.54 367.463 346.445Z" fill="#994F43"/>
<path d="M366.074 381.694C364.465 381.638 362.905 382.002 361.324 382.057C359.893 382.057 357.778 382.127 356.915 379.957C357.41 380.376 357.868 380.9 358.424 381.018C359.332 381.56 360.336 381.331 361.324 381.331C362.051 381.371 363.05 381.065 363.76 380.796C364.511 380.511 365.361 381.007 366.074 380.968C366.143 380.968 366.211 380.968 366.278 380.969C367.371 381.375 368.542 381.331 369.692 381.331C369.92 381.323 370.133 381.271 370.335 381.183C368.912 382.1 367.657 381.694 366.074 381.694Z" fill="#994F43"/>
<path d="M371.836 369.389C370.243 371.761 367.479 373.824 364.769 374.91C364.766 374.962 364.756 375.019 364.735 375.081C364.564 375.586 364.052 375.418 364.052 375.418C361.259 374.499 357.748 373.306 355.997 370.73L355.747 370.246C355.747 370.246 355.706 370.164 355.691 370.052C357.341 372.01 359.758 373.444 362.243 373.674C362.73 373.853 363.214 374.017 363.682 374.172C364.684 373.837 365.724 373.341 366.716 372.73C368.683 371.7 371.646 368.466 372.778 366.485C372.852 366.477 371.836 369.389 371.836 369.389Z" fill="#994F43"/>
<path d="M365.519 353.055C364.082 353.055 361.728 352.577 360.459 352.828C360.077 352.904 359.711 353.107 359.361 353.387C357.912 353.919 356.647 354.954 355.668 356.637C355.618 356.693 355.569 356.749 355.521 356.806C355.343 356.483 355.633 356.197 355.633 356.197C356.934 354.986 358.191 352.189 360.211 351.79C361.641 351.508 363.977 351.989 365.519 351.989C368.751 352.029 369.997 354.607 372.165 356.623L372.209 356.787C371.515 356.242 370.783 355.798 370.267 355.516C369.941 355.338 369.613 355.166 369.285 355.002C368.251 353.909 367.114 353.04 365.519 353.055Z" fill="#994F43"/>
</svg>