<svg xmlns="http://www.w3.org/2000/svg" fill="none" viewBox="315.22 327.8 82.08 71.9">
<path d="M394.211 357.526C392.592 365.509 388.981 379.533 386.029 387.092C385.515 388.408 385.117 389.908 384.787 391.499C369.23 399.594 348.11 402.484 332.141 396.541C318.859 384.485 310.995 360.746 317.607 345.056C318.208 343.629 318.909 342.309 319.7 341.088C327.46 336.497 335.578 331.793 344.458 328.633C347.34 328.542 350.336 328.232 353.411 327.797C364.933 328.063 376.566 330.824 384.336 333.688C386.748 334.522 389.005 335.543 391.137 336.72C392.948 338.506 394.815 340.221 396.866 341.612C396.369 346.35 395.787 351.221 394.211 357.526Z" fill="#E1A585"/>
<path d="M397.036 350.048C394.58 362.581 388.181 378.249 385.695 390.797C385.695 390.797 387.083 377.245 389.376 370.534C392.129 362.275 392.971 353.756 395.664 345.38C395.664 343.922 395.797 342.46 395.999 340.998C396.425 341.312 396.859 341.614 397.301 341.9C397.162 344.61 397.047 347.324 397.036 350.048Z" fill="#7F5D4B"/>
<path d="M378.249 370.075C371.894 375.727 369.52 374.655 358.468 374.655C348.429 374.655 343.624 371.165 339.552 367.442C336.672 364.809 333.396 362.06 332.258 360.345C331.566 359.302 329.367 358.063 329.367 358.063C329.367 358.063 340.568 355.866 362.023 355.866C383.477 355.866 383.966 351.672 383.966 351.672C383.966 351.672 384.617 353.099 384.522 355.629C384.312 361.2 382.363 366.417 378.249 370.075Z" fill="#482520"/>
<path d="M352.144 380.426L352.202 380.407C352.221 380.417 352.241 380.426 352.261 380.436C352.817 380.481 353.359 380.56 353.892 380.66C354.724 380.523 355.484 380.097 356.444 380.13C356.71 380 357.013 379.879 357.346 379.769C359.791 379.687 362.229 379.562 364.732 379.562C366.015 379.562 367.288 379.893 368.557 380.044C368.56 380.045 368.562 380.046 368.564 380.048L368.566 380.045C368.723 380.064 368.879 380.079 369.036 380.092L369.193 380.169C369.383 380.257 369.515 380.448 369.515 380.669C369.515 380.891 369.383 381.081 369.193 381.17L368.765 381.381C367.644 383.472 363.441 383.162 361.356 383.162C360.651 383.162 359.97 383.097 359.305 382.993C356.648 383.056 353.865 382.929 351.884 381.594L351.821 381.719L351.379 381.501C351.329 381.501 351.279 381.5 351.229 381.5C351.229 381.5 350.666 381.5 350.666 380.946C350.666 380.392 351.229 380.392 351.229 380.392C351.306 380.392 351.383 380.393 351.459 380.394C351.476 380.393 351.493 380.392 351.51 380.392H352.073V380.421C352.096 380.423 352.12 380.425 352.144 380.426Z" fill="#D1997B"/>
<path d="M350.072 380.143C350.327 380.143 350.583 380.143 350.838 380.143C355.641 378.264 362.575 379.273 367.627 379.321C368.256 379.527 368.933 379.598 369.596 379.598L369.691 379.669L369.706 379.624L370.534 379.896C370.678 379.94 370.802 380.027 370.89 380.143C370.609 380.143 370.327 380.143 370.046 380.143C363.174 380.143 356.28 380.382 349.388 380.416L350.072 380.143Z" fill="#7F5D4B"/>
<path d="M337.33 356.548L337.367 356.5C337.454 356.406 337.644 356.285 337.903 356.15C340.167 355.559 342.058 355.025 342.981 354.927C347.22 354.474 358.646 352.648 362.4 352.648L362.741 352.587C365.427 354.821 370.428 352.631 374.522 351.759C377.011 351.867 381.208 352.07 383.025 352.648C383.379 352.998 384.589 357.646 381.57 359.067C380.155 359.734 376.823 361.536 367.515 362.068C357.013 362.669 342.635 362.537 339.232 360.466C337.884 359.645 334.434 357.484 334.387 356.5C334.387 356.5 336.98 356.606 337.33 356.548Z" fill="#F9F9F9"/>
<path d="M380.571 367.845L380.332 369.041C380.255 369.119 378.479 368.935 378.255 369.044C376.318 369.491 378.375 368.985 377.59 369.045C373.979 369.321 364.231 370.586 361.044 370.486L360.753 370.529C358.532 368.54 354.229 370.287 350.729 370.928C348.62 370.769 341.84 367.964 340.313 367.42C340.022 367.109 339.998 364.245 342.599 363.105C343.818 362.57 348.608 362.507 356.529 362.507C375.287 362.507 375.166 360.206 382.447 363.105C383.713 363.609 381.532 365.041 381.546 365.887C381.546 365.887 380.87 367.804 380.571 367.845Z" fill="#F9F9F9"/>
<path opacity="0.01" d="M343.37 331.244C344.018 331.014 344.67 330.791 345.326 330.578C347.631 330.405 349.975 330.355 352.323 330.409C349.248 330.843 346.252 331.153 343.37 331.244Z" fill="black"/>
<path opacity="0.01" fill-rule="evenodd" clip-rule="evenodd" d="M354.564 358.069C355.669 358.622 355.669 358.622 354.564 358.069V358.069Z" fill="black"/>
<path opacity="0.01" fill-rule="evenodd" clip-rule="evenodd" d="M355.394 370.503C353.118 370.987 351.184 372.092 349.591 373.818C347.234 370.877 348.063 369.219 352.078 368.845C353.136 367.921 353.136 367.092 352.078 366.358C351.211 362.811 352.454 360.601 355.808 359.727C356.939 360.633 357.216 361.738 356.637 363.043C355.79 363.75 355.099 364.579 354.565 365.529C354.767 367.229 355.043 368.886 355.394 370.503Z" fill="#101010"/>
<path opacity="0.01" fill-rule="evenodd" clip-rule="evenodd" d="M373.629 374.647C373.67 376.801 374.499 378.598 376.116 380.035C375.409 381.467 374.581 381.606 373.629 380.449C373.629 379.345 373.076 378.792 371.971 378.792C372.104 377.383 371.966 376.002 371.557 374.647C371.326 375.406 370.912 375.959 370.313 376.305C369.383 375.263 368.831 375.539 368.656 377.134C367.917 377.64 367.088 377.915 366.169 377.963C364.346 376.99 362.688 377.404 361.196 379.206C363 380.676 364.519 382.471 365.754 384.594C366.031 384.041 366.307 383.489 366.583 382.936C366.948 384.242 367.639 385.348 368.656 386.252C368.04 386.817 367.488 387.37 366.998 387.909C367.827 387.909 368.656 387.909 369.484 387.909C368.589 389.19 368.589 390.433 369.484 391.639C368.001 393.077 366.343 394.32 364.511 395.369C362.653 394.928 361.41 393.824 360.781 392.054C359.444 392.984 358.477 392.569 357.88 390.811C360.59 389.546 361.419 387.613 360.366 385.008C360.991 383.776 361.681 383.637 362.439 384.594C363.045 382.765 362.492 381.385 360.781 380.45C360.288 379.29 360.426 378.185 361.195 377.134C360.901 376.287 360.348 375.734 359.537 375.476C358.811 375.585 358.258 375.309 357.88 374.647C358.984 373.542 358.984 372.437 357.88 371.332C358.964 370.398 360.07 370.398 361.195 371.332C362.221 371.589 362.221 372.003 361.195 372.575C362.896 373.346 364.139 374.589 364.925 376.305C365.066 374.247 364.375 372.451 362.853 370.917C364.949 369.826 364.949 368.859 362.853 368.016C362.311 366.677 361.897 365.296 361.61 363.872C360.451 363.415 359.345 363.139 358.294 363.043C358.036 361.339 357.622 359.681 357.051 358.069C357.306 357.4 357.721 356.847 358.294 356.412C359.123 357.517 359.952 357.517 360.781 356.412C362.577 358.208 364.372 360.003 366.169 361.799C365.736 362.264 365.46 362.817 365.34 363.457C366.822 365.573 367.789 367.922 368.241 370.503C369.11 369.66 370.078 369.521 371.142 370.088C371.547 371.919 372.377 373.439 373.629 374.647ZM370.313 376.305C369.761 376.581 369.209 376.858 368.656 377.134C368.831 375.539 369.383 375.263 370.313 376.305ZM368.656 377.134C368.275 380.885 367.446 381.161 366.169 377.963C367.088 377.915 367.917 377.64 368.656 377.134ZM373.629 380.449C373.629 379.345 373.076 378.792 371.971 378.792C372.247 379.621 372.8 380.173 373.629 380.449ZM366.998 387.909C366.926 388.735 367.203 389.425 367.827 389.981C366.369 390.817 365.401 392.06 364.926 393.711C364.699 392.195 364.008 390.952 362.853 389.981C363.779 388.413 365.161 387.723 366.998 387.909Z" fill="#161616"/>
<path opacity="0.01" fill-rule="evenodd" clip-rule="evenodd" d="M352.078 366.358C351.331 368.204 349.95 369.033 347.934 368.845C347.934 368.016 347.934 367.187 347.934 366.358C349.475 365.885 350.857 365.885 352.078 366.358Z" fill="black"/>
<path opacity="0.01" fill-rule="evenodd" clip-rule="evenodd" d="M361.195 371.332C360.07 370.398 358.964 370.398 357.88 371.332C358.985 372.436 358.985 373.542 357.88 374.647C358.259 375.309 358.811 375.585 359.538 375.476C357.425 377.642 355.491 377.503 353.735 375.062C354.375 374.049 355.204 373.221 356.222 372.575C355.599 372.019 355.322 371.328 355.393 370.503C357.722 369.112 359.656 369.388 361.195 371.332Z" fill="#030303"/>
<path opacity="0.01" fill-rule="evenodd" clip-rule="evenodd" d="M374.458 374.647C374.182 374.647 373.905 374.647 373.629 374.647C373.905 372.437 374.182 372.437 374.458 374.647Z" fill="black"/>
<path opacity="0.01" fill-rule="evenodd" clip-rule="evenodd" d="M374.458 374.647C375.683 374.43 376.788 374.706 377.774 375.476C377.221 375.752 376.669 376.029 376.116 376.305C375.11 376.1 374.558 375.547 374.458 374.647Z" fill="black"/>
<path opacity="0.012" fill-rule="evenodd" clip-rule="evenodd" d="M368.656 377.134C368.275 380.885 367.446 381.16 366.169 377.963C367.088 377.915 367.917 377.639 368.656 377.134Z" fill="#484848"/>
<path opacity="0.016" fill-rule="evenodd" clip-rule="evenodd" d="M371.972 378.792C372.248 379.62 372.801 380.173 373.63 380.449C374.076 381.79 374.352 383.171 374.458 384.594C372.841 384.82 371.598 384.268 370.728 382.936C370.57 384.766 370.156 386.424 369.485 387.909C369.614 385.782 369.338 383.71 368.656 381.693C369.079 380.179 369.77 380.041 370.728 381.278C370.921 380.253 371.335 379.424 371.972 378.792Z" fill="#1E1E1E"/>
<path d="M332.312 358.178C330.432 358.33 329.669 358.362 327.546 358.369C333.861 356.906 340.872 354.106 345.566 352.305C348.237 351.42 350.808 350.21 353.263 348.976C354.676 348.455 356.132 348.079 357.795 348.368C360.901 348.908 365.026 351.307 368.434 350.613C370.981 350.095 374.428 348.427 376.901 347.496C377.235 347.462 377.568 347.444 377.9 347.443C379.956 348.475 382.208 349.284 384.564 349.864C385.299 350.588 386.964 350.136 386.842 350.912C386.693 351.862 384.968 355.281 383.164 355.864C380.128 356.845 371.468 357.921 367.289 357.909C363.958 358.335 359.548 357.341 357.043 357.407C353.194 357.509 351.437 358.51 346.247 358.51C342.162 358.51 340.777 358.977 336.725 359.061L332.312 358.178Z" fill="#CD6B5B"/>
<path d="M356.542 347.493C357.937 347.632 364.953 349.585 366.276 350.09L366.899 350.328C369.712 349.143 372.516 347.899 375.374 346.799L375.683 346.636C375.931 346.441 376.212 346.39 376.458 346.396C376.699 346.382 376.979 346.423 377.234 346.603C379.734 347.767 382.194 348.937 384.81 349.94L385.696 350.209C385.696 350.209 386.515 350.46 386.447 351.071C383.107 350.244 380.058 349.095 376.555 347.604C373.879 348.419 370.187 351.3 367.426 351.493C363.828 351.743 359.981 349.171 356.647 348.671C354.744 348.385 352.785 349.623 351.063 350.063C346.616 351.768 338.278 356.315 332.607 357.104C332.754 356.958 353.419 346.534 356.542 347.493Z" fill="#994F43"/>
<path d="M378.628 356.625C376.964 357.329 368.116 358.426 366.371 358.929C358.682 360.055 353.685 357.558 353.685 357.558C341.93 361.151 328.218 358.634 327.369 358.492C327.179 358.46 333.303 358.174 334.475 358.116C338.45 357.919 343.961 358.756 345.954 357.879C347.565 357.655 353.853 356.551 353.924 356.559C357.566 356.594 362.747 357.362 366.769 357.411C370.956 357.463 370.159 356.785 373.99 356.244C375.617 355.776 379.991 354.631 380.01 354.629C380.256 354.724 382.357 356.185 383.686 355.46C385.51 354.465 386.364 352.349 386.364 352.349C386.364 352.349 386.334 356.194 382.383 357.464L378.628 356.625Z" fill="#994F43"/>
<path d="M365.966 368.924C366.614 368.735 374.067 367.179 374.8 366.936C376.177 366.63 379.423 367.479 380.335 366.222C381.976 363.957 385.702 351.686 386.133 351.24C387.571 349.751 382.105 368.49 379.767 370.658C378.178 372.131 374.683 372.684 373.752 373.305C371.324 374.593 367.724 374.827 365.567 374.924C361.44 375.11 353.422 375.498 350.167 374.747C344.75 373.496 339.946 369.092 337.42 367.515C337.289 367.433 328.558 357.173 328.146 356.763C327.829 356.449 329.36 356.786 329.36 356.786C329.36 356.786 341.462 367.759 342.223 367.724C342.223 367.724 345.039 368.125 349.8 367.605C349.8 367.605 362.346 369.809 365.966 368.924Z" fill="#D97E67"/>
<path d="M351.901 375.198C348.94 375.193 347.3 374.37 346.857 374.156C344.047 372.801 337.276 367.295 336.792 367.034C338.247 367.016 345.222 373.525 350.674 374.538C355.263 374.559 357.459 374.927 362.06 375.037C361.882 375.067 355.165 375.198 351.901 375.198Z" fill="#994F43"/>
<path d="M375.783 373.137C372.453 374.099 368.494 375.269 368.088 374.847C368.409 374.746 370.785 374.187 371.099 374.065C373.57 373.563 378.431 371.339 379.185 371.146C377.723 371.938 378.017 372.492 375.783 373.137Z" fill="#994F43"/>
<path d="M348.682 367.86C341.929 368.354 341.245 367.657 341.245 367.657C341.245 367.657 347.968 367.542 348.039 367.548C359.591 368.496 360.005 369.454 367.516 368.65C369.142 368.294 374.694 366.754 374.712 366.753C375.176 366.888 382.749 366.976 380.786 367.253C380.112 367.348 376.815 367.556 374.732 367.788C374.732 367.788 368.469 369.422 366.664 369.571C359.329 370.176 348.682 367.86 348.682 367.86Z" fill="#994F43"/>
</svg>