<svg width="55" height="67" viewBox="0 0 55 67" fill="none" xmlns="http://www.w3.org/2000/svg">
<path d="M13.8579 43.3528C21.74 49.1599 18.5443 44.3014 32.2514 44.3014C37.4586 44.3014 42.28 43.4871 46.667 42.1773C45.793 40.3886 44.9975 38.5359 43.8848 36.9474C41.1804 33.0867 41.2637 28.2337 41.1866 23.7704C41.1581 22.1231 35.6776 22.0002 35.5538 20.3012C35.1902 20.3002 34.8241 20.2996 34.4557 20.2996C17.3843 20.2996 11.0159 18.5259 8.64385 17.2544C11.5932 19.9497 18.1737 26.1798 18.2655 28.1956C20.4155 40.1817 12.9122 37.089 13.8579 43.3528Z" fill="#482520"/>
<path d="M22.1152 41.524C26.4053 40.4965 31.2022 39.4937 35.5322 38.5239C38.3165 37.8243 41.2965 35.2707 39.9591 33.3375C39.2809 32.7879 38.4834 32.2396 37.5961 31.8725C37.3049 31.7784 36.987 31.6906 36.6409 31.61C36.3671 31.5899 36.0947 31.5716 35.8227 31.5547C32.7613 32.0461 29.3279 32.1162 26.2487 32.8537C25.2428 33.0946 23.9054 33.3458 22.6243 33.6495C22.4627 33.7311 22.3089 33.8169 22.1639 33.9072C21.1809 34.1709 17.7674 37.7905 16.9765 38.2821C17.0641 38.7557 16.1297 41.1945 16.1488 41.6827C17.6393 40.6393 22.7998 34.7791 25.1066 34.1963C25.4518 34.0355 25.8302 33.895 26.2635 33.7912C28.4898 33.258 33.6353 31.552 36.5295 32.5238C36.6457 32.507 36.783 32.4579 36.7567 32.3178C36.7121 32.0815 36.2907 32.0589 36.2907 32.0589C36.0761 32.0474 35.8648 32.0386 35.6565 32.0325C35.6612 32.0253 35.6652 32.0178 35.6684 32.0103C35.9723 32.0284 36.2763 32.047 36.5807 32.0675C42.3984 33.4142 38.2061 37.3799 35.0757 38.081C30.7753 39.1616 25.9997 40.0414 21.6588 41.081C20.7433 41.3003 19.7826 41.4775 18.7977 41.6311C18.7312 41.8177 18.6611 42.005 18.5875 42.1928C19.7973 42.0083 20.9825 41.7952 22.1152 41.524ZM33.2104 32.0323C33.322 32.0395 33.4296 32.0488 33.5336 32.0584C33.3388 32.0691 33.1464 32.0821 32.9561 32.0972L33.2104 32.0323Z" fill="#B65E50"/>
<path d="M21.6513 41.1265C25.9923 40.0869 30.8584 39.1624 35.1588 38.0818C38.2892 37.3807 42.4597 33.389 36.642 32.0423C36.3376 32.0218 36.0319 32.002 35.7279 31.9839C35.7248 31.9915 35.6011 32.0515 35.5964 32.0587C35.8046 32.0649 36.0148 32.0729 36.2294 32.0843C36.2294 32.0843 36.649 32.1056 36.6935 32.342C36.7199 32.4821 36.7088 32.4831 36.5925 32.4999C33.6983 31.528 28.5267 33.2203 26.3004 33.7535C25.8671 33.8573 25.4827 33.9957 25.1376 34.1565C22.8672 34.7301 21.1652 35.4442 19.6667 36.4657C11.5768 44.3387 19.4275 39.877 18.782 41.6742C19.7715 41.5221 20.7353 41.3459 21.6513 41.1265Z" fill="#C36556"/>
<path d="M1.56591 18.7901C2.39446 21.2981 36.4417 21.0139 38.0388 23.2863C38.6826 24.2022 35.872 30.145 31.1581 34.3031C28.3224 36.8043 23.3139 37.8501 22.1341 39.0473C17.9429 43.2997 9.45419 43.6316 11.0156 46.6306C12.2321 48.9669 18.1222 48.8836 21.3979 51.8289C24.1605 54.3131 24.795 56.5247 24.6538 58.4221C24.438 61.3203 24.3902 64.0257 24.4908 66.5502C46.2544 58.3027 61.8785 45.7667 51.363 22.63C43.7269 5.82886 26.7708 0.311826 6.54315 0C5.78917 0.214011 4.6285 0.417753 3.86859 0.610801C3.85895 8.71749 -0.622998 12.1645 1.56591 18.7901Z" fill="#F8BC99"/>
<path d="M11.0902 48.1249C11.2646 48.7239 11.2504 49.7138 11.2504 49.7138C15.7618 51.7865 20.4471 51.0496 22.522 54.4517C25.5494 58.5311 25.1276 62.4643 24.4278 66.574C24.9548 66.3746 25.4782 66.1727 25.9978 65.9681C25.9803 64.0037 25.9976 62.6938 25.9223 62.6419C26.2311 61.5364 26.4187 60.5001 26.4961 59.526C26.2238 56.931 25.6497 54.4716 24.2869 52.8162C21.3421 49.2393 10.8633 47.3453 11.0902 48.1249Z" fill="#95725D"/>
<path d="M31.6781 20.8685L31.6474 20.8282C31.5677 20.7463 31.3612 20.6299 31.0676 20.4926C28.2667 19.7234 25.9415 19.0518 24.7428 18.8424C22.469 18.4452 18.6456 17.6943 14.5849 16.9102C14.8346 18.5519 14.7358 20.2299 14.2588 21.9266C14.1799 22.2074 14.0912 22.4865 13.9929 22.764C14.1116 22.7469 14.2124 22.7272 14.2894 22.7043C14.6879 22.5865 14.8196 22.0184 15.0174 22.2099C15.3165 22.4996 16.4931 24.362 17.3383 24.4811C18.8777 24.698 22.6497 23.5626 23.2893 22.8406C24.1778 23.3902 25.3204 24.3591 27.591 24.1378C28.2234 24.0761 28.1745 23.6456 28.84 23.6227C30.3582 23.5706 31.7258 24.42 32.5911 23.5121C33.2137 22.8586 31.5641 21.8563 32.0214 21.1457C32.0214 21.1457 32.1247 20.9634 31.6781 20.8685Z" fill="#F9F9F9"/>
<path d="M13.4271 24.2879C13.6727 24.254 14.1069 24.2249 14.5027 24.1743C14.7673 22.8054 15.2233 21.5153 15.9086 20.3628C16.1106 19.6927 16.3421 19.0307 16.6016 18.3778C14.9488 17.854 13.1902 17.3015 11.6493 16.8555C11.6906 19.2229 11.2481 21.4898 10.4044 23.6366C11.2609 24.1065 12.4008 24.4192 13.4271 24.2879Z" fill="#F9F9F9"/>
<path d="M15.1273 19.7896C15.4359 20.7066 14.9091 21.6628 14.9114 22.5828C15.1661 21.8015 15.4958 21.0571 15.9086 20.3628C16.1106 19.6927 16.3421 19.0307 16.6016 18.3778C14.9488 17.854 13.1903 17.3015 11.6493 16.8555C11.6723 18.1731 11.5455 19.4595 11.283 20.7115C12.5859 19.1228 14.4502 17.5454 15.1273 19.7896Z" fill="#F9F9F9"/>
<path d="M10.6774 16.7714L10.5267 16.6919C9.66936 17.2957 8.83178 17.2223 8.01176 16.8606C7.51862 17.9041 7.03609 18.9501 6.62344 20.0206C6.19981 21.1197 5.82903 22.2333 5.45993 23.3516C5.76482 23.3363 6.10503 23.3028 6.22115 23.1289C6.7307 24.1219 9.12644 24.5848 10.3389 24.1418C10.6832 21.9135 11.4522 19.6324 12.5391 17.3831C11.7845 17.0887 11.132 16.8656 10.6774 16.7714Z" fill="#F9F9F9"/>
<path d="M6.11543 22.4041C6.1879 22.3484 6.21785 22.2711 6.21785 22.2711L6.33877 21.9593C6.89437 20.5269 7.84051 17.6518 9.95123 18.0853C11.2166 17.7365 11.4745 18.7699 11.4217 20.0142C11.7417 19.1359 12.1159 18.2573 12.5381 17.3836C11.7835 17.0893 11.1311 16.8661 10.6765 16.7719L10.5257 16.6924C9.66843 17.2962 8.83083 17.2228 8.01088 16.8611C7.51773 17.9046 7.03525 18.9506 6.62261 20.0211C6.42986 20.5212 6.24792 21.0244 6.07225 21.5297C6.09915 21.8233 6.1163 22.1175 6.11543 22.4041Z" fill="#F9F9F9"/>
<path d="M8.64355 17.2543C7.78995 16.4742 7.24048 15.9902 7.24048 15.9902C7.24048 15.9902 7.31834 16.5439 8.64355 17.2543Z" fill="#482520"/>
<path d="M15.3414 39.5158C22.5363 37.7605 23.8916 37.1929 23.8916 37.1929C23.8916 37.1929 15.7417 38.6585 15.6584 38.6836C15.0786 38.8557 14.9031 39.0033 14.3706 39.1658C13.8381 39.3282 12.8314 41.4951 12.8613 41.655C13.4506 41.3935 13.7082 39.9142 15.3414 39.5158Z" fill="#AF7060"/>
<path d="M12.6713 18.2896C10.1827 18.3732 5.98592 18.5308 4.16849 18.9782C3.81456 19.2496 2.6045 22.851 5.62354 23.9519C7.03908 24.4681 10.3901 25.5561 19.6788 26.277C37.3163 27.646 38.4217 25.1707 38.541 23.2626C28.3529 19.4975 20.6304 19.6026 12.6713 18.2896Z" fill="#F9F9F9"/>
<path d="M14.7192 40.3233L14.7373 40.3433C14.7781 40.3816 14.8579 40.4248 14.9637 40.4696C15.8277 40.5788 16.5538 40.6889 16.8912 40.6653C18.4419 40.5568 22.6837 40.5547 24.0154 40.2673L24.1427 40.2702C24.8655 38.9972 26.8652 39.6606 28.4079 39.7637C29.2796 39.5216 30.7475 39.103 31.3328 38.6879C31.4222 38.4934 31.3721 36.1798 30.1545 35.732C29.5836 35.5221 28.2156 34.9161 24.8587 35.3743C21.0711 35.8913 15.9835 37.0554 14.9901 38.3055C14.5964 38.8009 13.5955 40.098 13.68 40.5715C13.68 40.5715 14.589 40.3222 14.7192 40.3233Z" fill="#F9F9F9"/>
<path d="M35.7021 23.0215C35.7508 22.2543 37.4756 22.6839 37.4756 22.6839C34.7851 22.0406 16.4054 16.7414 14.3462 14.5441C12.8189 14.3566 3.17629 10.5566 1.67829 12.4769C1.2556 13.0187 0.102924 15.3881 0.551271 16.4647C0.873454 17.0899 0.121258 18.8166 3.00397 20.6184C4.65342 21.6494 9.4949 21.4818 10.0078 21.4771C12.4493 21.4546 16.4296 22.0316 16.583 21.7571C16.583 21.7571 35.6886 23.2337 35.7021 23.0215Z" fill="#C9816E"/>
<path d="M38.9463 22.9757C38.1655 22.9295 31.9587 32.7708 28.8552 34.5947C24.7271 37.0208 18.6476 38.5518 15.1301 39.074C12.6604 39.4406 10.3973 44.8431 10.2366 44.8283C10.1427 44.8197 10.15 47.912 11.4684 49.0825C12.4081 49.9168 14.5785 48.9332 17.4913 48.9731C19.8319 49.005 30.8776 39.0601 31.4259 38.5326C36.7706 33.391 38.2562 23.3439 38.9463 22.9757Z" fill="#DC8D79"/>
<path d="M21.3248 46.1437L29.4646 41.6326C31.0134 40.7596 31.4907 38.0244 32.9419 37.0977C34.5658 35.4184 37.9639 27.5869 37.9639 27.5869C37.9639 27.5869 33.947 33.9917 30.3303 38.0783C26.4391 42.475 21.3372 46.0043 21.3248 46.1437Z" fill="#AF7060"/>
<path d="M37.4785 23.3568L37.9541 22.4484C35.9352 22.4195 14.9004 14.8919 13.4172 13.3628C-2.41302 7.49361 0.403515 13.3858 0.000390021 16.5754C0.522417 16.9167 2.17362 12.7553 2.59422 13.2555C3.95744 12.1443 12.7884 14.4229 15.6184 15.8199C22.0606 18.9983 33.2151 20.9243 36.1896 22.6583C17.2059 21.7285 7.35879 19.3811 4.29306 21.0481C5.27844 21.2346 8.81462 21.953 11.7273 22.2128C14.5109 22.4611 31.5745 22.8265 32.4117 23.2505C32.4117 23.2505 36.6994 23.3089 37.4785 23.3568Z" fill="#AF7060"/>
</svg>
