<svg width="55" height="68" viewBox="0 0 55 68" fill="none" xmlns="http://www.w3.org/2000/svg">
<path d="M14.7404 44.035C23.3066 49.5112 19.8336 44.9295 34.7305 44.9295C40.3898 44.9295 45.6296 44.1617 50.3975 42.9265C49.4476 41.2397 48.583 39.4926 47.3738 37.9946C44.4347 34.3539 44.5251 29.7775 44.4413 25.5685C44.4104 24.0151 38.4542 23.8992 38.3196 22.297C37.9244 22.296 37.5265 22.2955 37.1262 22.2955C18.5729 22.2955 11.6516 20.6229 9.0737 19.4238C12.2791 21.9655 20.675 22.8636 24.5076 30.3637C24.3557 37.6229 13.7125 38.1282 14.7404 44.035Z" fill="#482520"/>
<path opacity="0.01" d="M32.0081 52.6491L32.1641 50.7779V27.7355L31.8072 23.8096L31.8624 23.4544L31.7752 23.1056V20.3477L31.639 18.849L31.606 18.6513L30.3118 17.9454L27.8196 16.6993L26.8775 16.3853L23.915 15.6446L22.0412 15.5005L21.4134 15.2912H20.7516L19.5854 14.9997L19.1688 14.9402H12.9169L12.1392 15.1346H11.3616L10.9413 15.0295L10.2785 15.1199L9.80786 14.7461L7.47326 14.1625L7.34582 13.9395C5.26469 14.2477 2.74643 14.8028 0.553955 15.2729C0.553955 15.2729 0.663251 31.6442 1.31168 34.0527C5.068 48.0049 12.2882 47.4177 12.1534 49.9583C17.0589 51.9704 25.1314 51.6265 29.9456 55.094C30.4415 54.1322 31.129 53.3173 32.0081 52.6491Z" fill="#121212"/>
<path d="M22.1095 42.5069C26.4003 41.4793 31.1979 40.4763 35.5285 39.5064C38.3132 38.8067 41.2937 36.2527 39.9562 34.3192C39.2779 33.7695 38.4802 33.2211 37.5927 32.854C37.3015 32.7598 36.9836 32.6721 36.6374 32.5914C36.3636 32.5714 36.0911 32.553 35.8191 32.5361C32.7573 33.0276 29.3233 33.0977 26.2436 33.8353C25.2376 34.0763 23.9 34.3275 22.6187 34.6313C22.457 34.7128 22.3032 34.7987 22.1582 34.8891C21.175 35.1527 17.761 38.7729 16.97 39.2646C17.0577 39.7383 16.1231 42.1774 16.1421 42.6657C17.6329 41.6221 22.7942 35.7611 25.1014 35.1782C25.4466 35.0173 25.8251 34.8768 26.2584 34.773C28.485 34.2398 33.6313 32.5334 36.526 33.5054C36.6423 33.4886 36.7796 33.4395 36.7532 33.2994C36.7087 33.063 36.2872 33.0404 36.2872 33.0404C36.0725 33.0289 35.8612 33.0202 35.6529 33.014C35.6576 33.0068 35.6615 32.9994 35.6647 32.9918C35.9687 33.0099 36.2728 33.0285 36.5773 33.049C42.3958 34.3959 38.2028 38.3622 35.072 39.0635C30.7709 40.1442 25.9946 41.0241 21.653 42.0639C20.7374 42.2832 19.7765 42.4604 18.7915 42.6141C18.725 42.8008 18.6549 42.988 18.5813 43.1758C19.7912 42.9914 20.9767 42.7782 22.1095 42.5069ZM33.2064 33.0139C33.318 33.021 33.4257 33.0303 33.5296 33.0399C33.3349 33.0507 33.1424 33.0637 32.9521 33.0788L33.2064 33.0139Z" fill="#B65E50"/>
<path d="M21.6456 42.1094C25.9873 41.0695 30.8542 40.1449 35.1552 39.0642C38.2861 38.3629 42.4572 34.3707 36.6386 33.0237C36.3341 33.0033 36.0284 32.9835 35.7244 32.9653C35.7213 32.9729 35.5975 33.0329 35.5929 33.0401C35.8011 33.0463 36.0113 33.0543 36.2259 33.0658C36.2259 33.0658 36.6457 33.0871 36.6901 33.3235C36.7165 33.4636 36.7054 33.4646 36.5891 33.4814C33.6945 32.5094 28.5221 34.202 26.2954 34.7352C25.8621 34.839 25.4776 34.9775 25.1324 35.1383C22.8617 35.712 21.1594 36.4262 19.6608 37.4478C11.5696 45.322 19.4215 40.8596 18.7759 42.6571C19.7656 42.505 20.7295 42.3288 21.6456 42.1094Z" fill="#C36556"/>
<path d="M1.55682 19.7696C2.38549 22.2779 39.8596 22.6158 41.457 24.8886C42.1008 25.8046 39.2898 31.4373 34.5752 35.5959C31.7391 38.0975 23.3081 38.8325 22.1281 40.0298C17.9364 44.2828 13.8012 42.4374 15.3629 45.4368C16.5795 47.7735 18.1157 49.8677 21.3919 52.8134C24.1549 55.2979 24.7895 57.5098 24.6482 59.4075C24.4324 62.3062 24.3846 65.012 24.4852 67.5369C46.2521 59.2882 61.8786 46.7502 51.3615 23.61C43.7243 6.80631 26.7656 1.28844 6.53481 0.976562C5.78072 1.19061 4.61987 1.39438 3.85985 1.58746C3.85021 9.69539 -0.632426 13.1429 1.55682 19.7696Z" fill="#F8BC99"/>
<path d="M14.9759 47.5871C19.4881 49.6602 20.4413 52.0337 22.5165 55.4364C25.5444 59.5164 25.1225 63.4502 24.4226 67.5606C24.9497 67.3611 25.4732 67.1591 25.9929 66.9546C25.9754 64.9898 25.9927 63.6798 25.9173 63.6278C26.2262 62.5222 26.4138 61.4857 26.4912 60.5115C26.2189 57.9161 25.6447 55.4563 24.2817 53.8007C21.3364 50.2232 16.7663 45.5293 16.9932 46.309L14.9759 47.5871Z" fill="#95725D"/>
<path d="M18.9334 38.1837C19.0475 38.141 19.0894 38.0568 19.0894 38.0568C19.7872 36.5767 17.0944 34.3144 15.168 35.8847C15.2633 36.1891 15.3527 36.4951 15.4361 36.8028C15.6539 37.6064 15.8276 38.4095 15.9582 39.2113C17.265 40.0119 19.2769 39.9418 18.9334 38.1837Z" fill="#F9F9F9"/>
<path d="M21.8418 35.9903C20.9482 35.1817 19.6628 34.3995 18.7336 34.879C18.5728 34.962 18.7931 37.5627 18.8542 37.8486C19.4106 40.158 22.8136 39.672 22.7213 37.6535C23.0187 37.8453 23.3552 38.0122 23.6882 38.1326C24.3141 37.2946 24.8063 36.3608 25.3086 35.5109C24.0641 35.1909 22.5717 35.2455 21.8418 35.9903Z" fill="#F9F9F9"/>
<path d="M23.0715 37.2793L22.7962 37.034C22.7281 36.9705 22.6061 36.9351 22.4782 36.9495C22.3012 36.9694 22.1798 37.0773 22.207 37.1903C22.2153 37.2247 22.2364 37.2556 22.2667 37.2814L22.4112 37.4101C22.5432 38.719 20.8116 39.8987 19.193 38.4347L18.9078 38.0828C18.8474 38.0037 18.7108 37.9566 18.5667 37.9728C18.3914 37.9926 18.2706 38.0986 18.2948 38.2105L18.3578 38.5071C17.9451 39.5434 17.0981 39.9836 15.9498 39.1609C15.9574 39.2064 15.9648 39.2518 15.972 39.2973C16.3137 39.8236 16.6035 40.35 16.8446 40.8763C18.7016 40.7649 20.4756 40.5598 21.3835 40.1247C22.4982 39.5904 23.2857 38.7323 23.9355 37.788C23.6075 37.6592 23.3081 37.4899 23.0715 37.2793Z" fill="#F9F9F9"/>
<path d="M31.675 21.8486L31.6443 21.8083C31.5646 21.7264 31.3581 21.61 31.0644 21.4726C28.263 20.7034 25.9375 20.0317 24.7387 19.8222C22.4645 19.4249 18.6405 18.674 14.5792 17.8896C14.8289 19.5316 14.7301 21.2099 14.253 22.9069C14.1741 23.1877 14.0854 23.4668 13.9871 23.7443C14.1058 23.7273 14.2066 23.7075 14.2836 23.6847C14.6822 23.5668 14.8139 22.9986 15.0118 23.1902C15.3109 23.4799 16.4877 25.3427 17.333 25.4618C18.8727 25.6786 22.6452 24.5431 23.2849 23.821C24.1736 24.3706 25.3163 25.3397 27.5873 25.1184C28.2198 25.0567 28.1709 24.6261 28.8364 24.6032C30.3549 24.5511 31.7227 25.4007 32.5881 24.4926C33.2109 23.839 31.561 22.8366 32.0184 22.1258C32.0184 22.1258 32.1217 21.9435 31.675 21.8486Z" fill="#F9F9F9"/>
<path d="M14.3464 23.3198C14.6837 23.0944 15.0657 22.848 15.4872 22.6104C16.6586 20.6723 19.0359 17.575 21.9603 21.4035C21.9683 21.4205 21.981 21.4387 22.0007 21.4571C22.4073 22.0084 22.4734 22.4676 22.3539 22.9445C22.4616 22.9369 22.5795 22.939 22.6986 22.9527C22.9676 22.9834 23.169 23.064 23.2327 23.1547L23.5027 23.5095L23.304 23.52C23.3617 23.5811 23.4111 23.641 23.4546 23.7001C23.8966 22.911 23.9509 22.2431 23.3358 21.4036C24.0877 19.9836 25.5595 21.1076 26.3975 22.3884C26.571 22.4108 26.7143 22.4542 26.8075 22.5072L27.5307 22.9186L27.2524 22.972C28.1236 23.6178 27.9389 24.2842 27.5559 24.9731C28.0094 24.9734 28.1063 24.8028 28.1063 24.8028L28.2815 24.494C28.5673 23.939 28.5716 22.9089 28.1219 22.0089C31.94 21.4405 31.4121 23.2874 32.2141 24.3417L32.0509 24.5952C32.0509 24.5952 31.9194 24.8269 32.5933 24.9037C32.6758 24.9131 32.7502 24.9179 32.8173 24.9191C33.1687 25.0163 33.5576 24.9415 33.5576 24.9415C35.9181 24.485 36.1575 23.6246 37.1914 23.0419C31.4456 21.7975 26.93 20.2047 24.7384 19.8217C22.4642 19.4244 18.6402 18.6735 14.5789 17.8892C14.8286 19.5312 14.7298 21.2094 14.2527 22.9064C14.2173 23.0323 14.18 23.1578 14.1407 23.283C14.1991 23.2985 14.2672 23.3114 14.3464 23.3198Z" fill="#F9F9F9"/>
<path d="M13.4208 25.2681C13.6664 25.2341 14.1007 25.2051 14.4965 25.1544C14.7612 23.7853 15.2172 22.495 15.9026 21.3424C16.1046 20.6722 16.3362 20.0101 16.5957 19.357C14.9427 18.8331 13.1838 18.2806 11.6427 17.8345C11.684 20.2022 11.2414 22.4695 10.3976 24.6167C11.2543 25.0866 12.3943 25.3993 13.4208 25.2681Z" fill="#F9F9F9"/>
<path d="M15.1212 20.7691C15.4299 21.6862 14.903 22.6425 14.9053 23.5627C15.1601 22.7812 15.4897 22.0368 15.9027 21.3424C16.1047 20.6722 16.3362 20.0101 16.5957 19.357C14.9427 18.8331 13.1839 18.2806 11.6427 17.8345C11.6657 19.1523 11.5388 20.4389 11.2763 21.6911C12.5795 20.1022 14.444 18.5245 15.1212 20.7691Z" fill="#F9F9F9"/>
<path d="M10.6722 17.7504L10.5215 17.6709C9.66404 18.2748 8.82633 18.2014 8.00619 17.8397C7.51297 18.8832 7.03036 19.9295 6.61766 21.0001C6.19396 22.0994 5.82312 23.2131 5.45397 24.3316C5.7589 24.3163 6.09916 24.2828 6.2153 24.1089C6.72493 25.1021 9.12103 25.565 10.3337 25.122C10.678 22.8933 11.4471 20.6119 12.5342 18.3622C11.7795 18.0678 11.1269 17.8446 10.6722 17.7504Z" fill="#F9F9F9"/>
<path d="M6.10859 23.3835C6.18107 23.3278 6.21102 23.2505 6.21102 23.2505L6.33196 22.9386C6.88765 21.506 7.83393 18.6305 9.94497 19.064C11.2105 18.7152 11.4684 19.7487 11.4157 20.9932C11.7358 20.1148 12.11 19.2361 12.5322 18.3623C11.7775 18.0678 11.1251 17.8446 10.6703 17.7504L10.5196 17.6709C9.66213 18.2748 8.82441 18.2014 8.00433 17.8397C7.51111 18.8833 7.02855 19.9295 6.61585 21.0001C6.42307 21.5003 6.2411 22.0036 6.0654 22.5089C6.09231 22.8026 6.10946 23.0968 6.10859 23.3835Z" fill="#F9F9F9"/>
<path d="M13.9414 20.2199C11.2457 20.3551 6.70008 20.5994 4.73889 21.0772C4.36053 21.3511 3.11857 24.9117 6.41205 25.9278C7.95627 26.4042 11.6093 27.4006 21.6908 27.91C40.8338 28.8773 41.9841 26.4243 42.0765 24.5489C30.9614 21.0709 22.5933 21.3389 13.9414 20.2199Z" fill="#F9F9F9"/>
<path d="M14.5959 38.1659L14.6198 38.194C14.6736 38.2484 14.7781 38.3103 14.9166 38.3749C16.0408 38.5458 16.986 38.7149 17.4237 38.6893C19.4349 38.5715 24.9429 38.66 26.6661 38.2881L26.8314 38.2949C27.7425 36.5363 30.3535 37.504 32.3589 37.6809C33.4857 37.3622 35.3828 36.8104 36.1338 36.2446C36.2457 35.9755 36.1308 32.7497 34.5401 32.0995C33.7943 31.7945 32.0048 30.9205 27.6556 31.4868C22.7484 32.1257 16.1672 33.6386 14.9042 35.3595C14.4037 36.0414 13.1319 37.8275 13.2518 38.4893C13.2518 38.4893 14.4267 38.1615 14.5959 38.1659Z" fill="#F9F9F9"/>
<path d="M8.63574 18.2335C7.78201 17.4533 7.23245 16.9692 7.23245 16.9692C7.23245 16.9692 7.31033 17.523 8.63574 18.2335Z" fill="#482520"/>
<path d="M40.7652 24.1663C40.8309 23.4437 42.7988 23.8732 42.7988 23.8732C39.7288 23.2285 18.7677 17.9705 16.4401 15.8693C14.695 15.6709 3.71146 11.9508 1.97255 13.7402C1.48188 14.2451 0.132234 16.4629 0.631244 17.4844C0.991768 18.0785 0.108724 19.696 3.38367 21.4359C5.25757 22.4315 10.7993 22.3423 11.3862 22.3452C14.18 22.3586 18.7268 22.9592 18.9058 22.7025C18.9058 22.7025 40.747 24.3663 40.7652 24.1663Z" fill="#C9816E"/>
<path d="M42.7937 24.5079L43.3496 23.6581C41.04 23.6021 17.0699 16.2053 15.3927 14.7424C-2.64387 8.98326 0.502329 14.5792 -0.000320377 17.5811C0.592538 17.9103 2.53586 14.0098 3.0106 14.4875C4.58481 13.459 14.6595 15.7331 17.8793 17.0906C25.2092 20.1791 37.9471 22.1537 41.328 23.831C19.6192 22.6846 8.38271 20.3312 4.85332 21.8596C5.97835 22.0494 10.0151 22.777 13.3444 23.0634C16.5261 23.3371 36.0453 23.924 36.9977 24.3357C36.9977 24.3357 41.9028 24.4517 42.7937 24.5079Z" fill="#AF7060"/>
<path d="M42.7568 24.5765C41.8778 24.4788 34.2507 33.3103 30.6309 34.8117C25.8162 36.8087 18.8534 37.8282 14.8475 38.0759C9.4433 38.2498 11.0154 47.9383 16.2467 47.5555C18.8884 47.7478 32.6356 39.1542 33.288 38.6958C39.647 34.2274 41.9543 24.8751 42.7568 24.5765Z" fill="#DC8D79"/>
<path d="M21.4028 45.1587L30.8795 41.4775C32.6836 40.7632 33.3941 38.2222 35.0912 37.4507C37.0307 35.9828 41.3594 28.8481 41.3594 28.8481C41.3594 28.8481 36.4211 34.5973 32.08 38.1925C27.4094 42.0605 21.4256 45.0284 21.4028 45.1587Z" fill="#AF7060"/>
<path d="M14.2064 38.8343C21.4997 37.5412 22.8887 37.061 22.8887 37.061C22.8887 37.061 14.6606 38.0042 14.5759 38.0239C13.9862 38.1586 13.8017 38.2948 13.2598 38.423C12.7179 38.5512 11.5749 40.6498 11.5945 40.8113C12.1994 40.5879 12.5508 39.1278 14.2064 38.8343Z" fill="#AF7060"/>
<path d="M5.3291 1.02246C4.74257 1.16987 4.15441 1.31093 3.56451 1.4457C3.78152 4.77733 2.81727 7.9047 2.81727 7.9047C2.81727 7.9047 5.03261 4.45843 5.3291 1.02246Z" fill="#95725D"/>
</svg>
