<svg width="55" height="67" viewBox="0 0 55 67" fill="none" xmlns="http://www.w3.org/2000/svg">
<path d="M14.6156 38.5294C17.94 41.4857 20.1897 42.6268 23.1284 43.0389C23.2648 42.8137 23.4272 42.5956 23.6177 42.386C24.0946 41.4982 24.7401 40.7145 25.5115 40.0777C26.6903 36.7769 36.4353 34.4359 37.9636 31.2733C39.0707 28.9823 33.0013 26.2793 33.1805 24.1343C32.4858 24.1296 31.7799 24.1272 31.0626 24.1272C9.31692 24.1272 8.82173 19.8765 8.82173 19.8765C8.82173 19.8765 8.1614 21.3229 8.25811 23.8867C8.47111 29.5338 10.4457 34.8212 14.6156 38.5294Z" fill="#482520"/>
<path opacity="0.01" d="M31.227 50.1456L31.3818 48.288V25.4121L31.0275 21.5146L31.0824 21.1619L30.9958 20.8157V18.0777L30.8605 16.5899L30.8278 16.3936L29.543 15.6928L27.0689 14.4557L26.1335 14.1439L23.1924 13.4087L21.3322 13.2656L20.7089 13.0578H20.0518L18.8942 12.7684L18.4805 12.7093H12.2738L11.5018 12.9023H10.7297L10.3126 12.798L9.65453 12.8877L9.18732 12.5167L6.86955 11.9372L6.74303 11.7158C4.67695 12.0219 2.17695 12.5729 0.000321599 13.0397C0.000321599 13.0397 0.108781 29.2926 0.752522 31.6836C4.48169 45.5349 11.6497 44.952 11.5158 47.4743C16.3859 49.4718 24.4 49.1304 29.1794 52.5728C29.6718 51.618 30.3543 50.809 31.227 50.1456Z" fill="#121212"/>
<path d="M2.5083 20.079C3.3256 22.5529 33.7921 27.4181 35.3676 29.6596C36.3261 31.0235 25.7211 31.9582 21.8505 33.7024C16.1355 36.2777 10.3007 36.3502 11.9073 39.4358C12.5741 40.7164 12.9179 43.1553 15.1165 44.7842C16.8744 46.0867 20.4147 49.8342 21.8505 51.1251C24.5756 53.5755 25.2013 55.757 25.062 57.6287C24.8491 60.4876 24.8021 63.1563 24.9013 65.6464C46.3694 57.511 61.7813 45.1452 51.4086 22.3227C43.8762 5.74973 27.1504 0.30758 7.19736 0C6.45363 0.211122 5.70681 0.412049 4.95726 0.602496C4.94774 8.59909 0.128551 11.9993 2.28773 18.535L2.5083 20.079Z" fill="#F8BC99"/>
<path d="M13.1371 42.9633C17.1462 45.449 20.9131 50.1357 22.9598 53.4917C25.9461 57.5157 25.391 62.0238 24.7007 66.0778C25.2206 65.8811 25.8014 65.6511 26.3139 65.4494C26.2967 63.5116 26.3882 61.6219 26.3139 61.5706C26.6185 60.4802 26.8035 59.4579 26.8799 58.4971C26.6113 55.9373 26.045 53.5113 24.7007 51.8785C23.7939 50.777 21.4932 48.9887 19.8193 47.3151C16.1311 43.6278 12.5099 39.7539 12.5099 39.7539L13.1371 42.9633Z" fill="#95725D"/>
<path d="M4.01237 10.3573C3.75261 7.75487 4.66757 4.06836 4.96191 0.657227C4.37963 0.803574 3.79567 0.943591 3.21003 1.07739C3.42548 4.38492 3.69567 7.66859 3.92562 10.9327C4.02282 10.621 4.01237 10.3573 4.01237 10.3573Z" fill="#95725D"/>
<path opacity="0.01" fill-rule="evenodd" clip-rule="evenodd" d="M37.908 21.4064C39.9866 22.2143 41.9582 23.2466 43.8309 24.5039C44.46 23.8601 44.9788 23.145 45.4033 22.3568C44.1256 21.4785 42.7167 20.8403 41.1844 20.4416C40.0887 19.5567 40.0558 18.7243 41.0856 17.9446C41.7739 14.1857 40.3209 12.4381 36.7349 12.6999C36.3678 13.0597 36.1114 13.4869 35.9569 13.9815C36.828 15.0579 37.6995 16.1351 38.5705 17.2115C38.5577 18.5692 38.34 19.9678 37.908 21.4064Z" fill="#0F0F0F"/>
<path opacity="0.01" fill-rule="evenodd" clip-rule="evenodd" d="M41.0854 17.9446C42.1874 19.6186 43.5799 19.8404 45.2549 18.6113C43.9412 17.8703 42.5569 17.6479 41.0854 17.9446Z" fill="black"/>
<path opacity="0.01" fill-rule="evenodd" clip-rule="evenodd" d="M20.8963 31.2573C20.8524 30.1478 21.3848 29.5705 22.4851 29.5264C22.3076 28.389 22.4042 27.2729 22.7671 26.1804C23.156 27.2119 23.8646 27.7398 24.9013 27.7624C24.7451 28.8449 25.0593 29.6659 25.8275 30.2262C25.6912 29.5014 25.9421 28.9354 26.5889 28.5286C27.3524 29.1857 27.6583 30.0071 27.515 30.9925C28.1715 29.9901 28.6818 28.8575 29.0381 27.597C29.5228 23.7203 30.4805 20.0697 31.9193 16.6443C32.8734 15.8317 33.9627 15.5104 35.1958 15.6795C35.8202 8.83941 33.5784 8.09551 28.4784 13.4473C27.8156 16.3858 26.817 19.2041 25.4983 21.9031C24.2932 20.9776 23.3446 21.2932 22.6355 22.8514C21.5087 25.3715 20.3665 27.9181 19.2086 30.4914C19.6154 31.1403 20.1726 31.3955 20.8963 31.2573ZM25.8275 30.2262C26.3927 30.4813 26.9496 30.7374 27.515 30.9925C27.6583 30.0071 27.3524 29.1857 26.5889 28.5286C25.9421 28.9354 25.6912 29.5014 25.8275 30.2262ZM20.8963 31.2573C20.8524 30.1478 21.3848 29.5705 22.4851 29.5264C22.2451 30.3696 21.7125 30.9471 20.8963 31.2573Z" fill="#171717"/>
<path opacity="0.01" fill-rule="evenodd" clip-rule="evenodd" d="M37.9081 21.4062C37.0809 21.4394 36.2534 21.4725 35.426 21.5056C36.6692 22.5604 36.4238 23.2646 34.681 23.6196C35.9633 25.0322 35.7287 26.0143 33.969 26.5658C35.7164 27.5888 37.5118 27.5169 39.3467 26.3505C38.6997 24.8666 38.2201 23.2185 37.9081 21.4062Z" fill="black"/>
<path opacity="0.01" fill-rule="evenodd" clip-rule="evenodd" d="M19.9043 27.1287C19.126 26.0962 18.2986 26.1293 17.4222 27.2281C18.2182 28.0816 19.0457 28.0485 19.9043 27.1287Z" fill="black"/>
<path opacity="0.012" fill-rule="evenodd" clip-rule="evenodd" d="M35.4261 21.5057C34.3258 21.5498 33.2172 21.5941 32.1167 21.6381C31.4407 23.8186 30.417 25.8044 29.0379 27.5968C28.6817 28.8573 28.1714 29.9899 27.5149 30.9923C26.9496 30.7373 26.3927 30.4812 25.8272 30.2262C25.0593 29.6659 24.745 28.8449 24.9011 27.7623C23.8643 27.7396 23.1558 27.2118 22.7669 26.1803C22.404 27.2728 22.3072 28.3888 22.4848 29.5263C22.2448 30.3696 21.7124 30.9469 20.8961 31.2572C20.8987 32.1599 20.6586 33.0031 20.1676 33.7873C20.8752 34.4977 21.7134 34.7417 22.6824 34.5203C22.9141 32.2085 23.9817 31.3321 25.8931 31.8908C25.2473 33.7899 25.0428 35.743 25.2962 37.7501C26.1235 37.717 26.9509 37.6839 27.7781 37.6508C28.5835 37.0625 29.3889 36.4751 30.1944 35.8867C30.1834 35.6096 30.1724 35.3315 30.1615 35.0543C30.3264 32.5194 31.3498 30.5334 33.2404 29.0957C32.9993 28.029 33.2477 27.1854 33.9689 26.5655C35.7287 26.014 35.9633 25.0317 34.681 23.6193C36.4238 23.2643 36.6694 22.5605 35.4261 21.5057ZM25.8272 30.2262C26.3927 30.4812 26.9496 30.7373 27.5149 30.9923C27.6582 30.0071 27.3523 29.1858 26.5887 28.5285C25.942 28.9354 25.6907 29.5014 25.8272 30.2262Z" fill="#3D3D3D"/>
<path opacity="0.01" fill-rule="evenodd" clip-rule="evenodd" d="M33.24 29.0957C31.3497 30.5335 30.3261 32.5194 30.1612 35.0543C32.3811 35.2431 32.3921 35.521 30.1941 35.8867C29.3887 36.475 28.5833 37.0624 27.7779 37.6508C26.9506 37.6839 26.1233 37.717 25.2959 37.7502C25.5054 39.064 25.8415 40.4401 26.2879 41.8787C27.7647 42.3431 29.0387 43.1257 30.1096 44.2267C32.1028 43.5016 33.1483 42.0711 33.2543 39.9326C33.8902 41.1351 34.8803 41.6515 36.2158 41.4813C36.1829 40.649 36.15 39.8166 36.117 38.9843C35.2898 39.0175 34.4622 39.0506 33.635 39.0837C33.7515 36.7915 33.1232 34.7325 31.7335 32.9074C32.5307 31.9019 33.3195 30.8974 34.1003 29.8949C33.981 29.3937 33.6888 29.1278 33.24 29.0957ZM27.7779 37.6508C27.648 39.3999 28.4009 41.0372 30.0439 42.5621C32.8019 39.5939 32.0408 37.9568 27.7779 37.6508Z" fill="black"/>
<path opacity="0.01" fill-rule="evenodd" clip-rule="evenodd" d="M22.682 34.5205C23.8431 35.3827 24.7143 36.4599 25.2957 37.7504C25.0423 35.7432 25.2469 33.7901 25.8926 31.8912C23.9812 31.3324 22.9137 32.2088 22.682 34.5205Z" fill="black"/>
<path d="M10.8893 25.2503L10.7262 25.2052C10.0229 25.9729 9.19494 26.0796 8.32276 25.903C8.06605 27.0198 6.82234 26.6237 6.64946 27.7497C6.472 28.9057 6.618 32.994 8.32284 32.8954C16.0578 30.7899 25.6289 32.441 32.8308 29.2402C32.6914 27.0058 12.2485 27.8607 12.825 25.4482C12.0306 25.3229 11.3503 25.2451 10.8893 25.2503Z" fill="#F9F9F9"/>
<path d="M36.8525 29.6525C36.8154 28.8953 19.5087 23.5076 17.6844 21.2266C16.1274 21.1575 9.58911 18.0398 7.7529 19.5975C3.29957 19.9409 1.27594 20.568 2.71363 22.7198C3.33334 23.6471 3.9068 26.1596 5.59842 27.1106C7.49706 28.178 10.1405 28.6513 13.6204 28.5461C17.3118 28.4346 24.6791 29.4992 24.7793 29.2709C24.7793 29.2709 36.8894 30.4096 36.8525 29.6525Z" fill="#C9816E"/>
<path d="M39.2373 29.2635C37.5293 29.3601 31.9285 26.746 24.9936 23.8649C24.1976 23.5342 13.3501 18.6404 10.0203 17.5612C5.76491 16.447 2.54394 19.5869 2.35567 19.8081C2.96049 20.1041 2.43116 20.7059 2.94558 21.1656C3.796 20.4068 9.57017 19.1563 15.2599 21.3767C18.5231 22.6501 22.191 24.9346 23.3662 25.3571C24.2988 25.9612 33.7039 28.7515 34.7835 29.2184C34.5411 29.1958 32.1742 29.4991 25.7428 28.8715C20.2238 28.3329 12.8294 26.8182 6.1236 27.5741C7.21006 27.6831 8.34783 28.6135 9.51117 28.7218C9.51117 28.7218 16.8249 29.3324 20.0014 29.3684C33.1235 31.6087 39.2373 29.2635 39.2373 29.2635Z" fill="#AF7060"/>
<path d="M29.8763 34.0921C30.3032 33.7254 36.9794 29.6272 37.5684 29.3477C26.2638 30.1766 23.4152 33.1297 17.2522 33.7409C17.2522 33.7409 10.1241 32.5106 9.45112 32.3959C2.86055 34.9514 8.6985 44.1308 14.0914 44.5682C16.1432 44.7346 19.2952 41.4408 23.6029 38.0472C25.9734 36.1797 28.3358 35.4152 29.8763 34.0921Z" fill="#DC8D79"/>
<path d="M33.1022 31.9778C28.8677 32.4668 24.0036 36.4604 22.5325 39.3043L22.2298 39.5216C22.2298 39.5216 22.0468 39.6908 21.9874 39.9198L23.1525 38.8637C24.4835 38.1953 25.7715 37.4937 27.0351 36.7744C28.5467 35.4196 30.4547 34.1722 32.2288 33.7029C32.8884 33.3069 34.8699 31.1702 35.5337 30.7784C35.3474 30.145 33.1022 31.9778 33.1022 31.9778Z" fill="#AF7060"/>
</svg>
