<svg width="55" height="67" viewBox="0 0 55 67" fill="none" xmlns="http://www.w3.org/2000/svg">
<path opacity="0.01" d="M32.011 51.7105L32.167 49.8396V26.8007L31.8101 22.8755L31.8654 22.5203L31.7782 22.1715V19.4141L31.642 17.9156L31.609 17.718L30.315 17.0121L27.8232 15.7662L26.8813 15.4523L23.9192 14.7117L22.0457 14.5676L21.4179 14.3584H20.7562L19.5903 14.0669L19.1737 14.0074H12.9228L12.1452 14.2018H11.3677L10.9475 14.0967L10.2848 14.1871L9.81422 13.8134L7.47998 13.2298L7.35256 13.0068C5.27175 13.3151 2.75388 13.87 0.561737 14.3401C0.561737 14.3401 0.670969 30.7089 1.3193 33.117C5.07505 47.067 12.2942 46.4799 12.1594 49.0201C17.0642 51.0319 25.1354 50.6881 29.9488 54.155C30.4447 53.1934 31.1321 52.3786 32.011 51.7105Z" fill="#121212"/>
<path d="M13.857 51.0552C21.739 58.5659 18.5433 52.282 32.2504 52.282C37.4576 52.282 42.279 51.2289 46.666 49.5348C45.792 47.2213 44.9964 44.8251 43.8838 42.7706C41.1794 37.7772 41.2627 31.5007 41.1856 25.7279C41.1571 23.5974 35.6767 23.4383 35.5529 21.2409C35.1892 21.2396 34.8231 21.2389 34.4547 21.2389C17.3833 21.2389 11.0149 18.9448 8.64291 17.3003C11.5923 20.7863 18.1727 28.8442 18.2645 31.4513C20.4146 46.9538 12.9113 42.9538 13.857 51.0552Z" fill="#482520"/>
<path d="M24.9627 41.5433C27.5245 41.2429 29.4112 36.9612 30.709 34.6576C30.709 34.6576 30.8503 34.4019 30.6744 34.1836C30.6758 34.1775 30.6772 34.1714 30.6785 34.1651C30.7557 33.7971 30.4427 33.6783 30.4427 33.6783C28.372 32.9283 24.5881 28.924 22.6712 27.2866C20.3268 25.3294 16.7608 23.3251 13.9928 23.8389C10.9111 24.4109 10.2639 26.8523 12.1555 30.4601C12.9623 32.125 15.7201 35.6544 17.0757 39.1047C18.274 42.1544 17.0948 45.0281 17.3854 45.3624C18.9353 47.1447 20.7789 44.3716 19.7879 42.8384C19.507 41.3252 22.883 41.3663 24.1957 41.1226L24.2772 41.1075C24.5188 41.2093 24.7453 41.3743 24.9627 41.5433ZM25.0723 40.7923C24.964 40.6914 24.847 40.6027 24.7249 40.5268C24.6807 40.422 24.6011 40.3437 24.5097 40.3114L24.1665 40.1812L24.157 40.2264C22.0199 38.6764 19.3925 38.3749 17.2831 36.6387C15.6249 34.2172 13.7886 31.731 12.1767 29.1394C11.6834 28.3763 11.1256 27.4598 11.3581 26.4818L11.4394 26.3717C11.4394 26.3717 11.5217 26.2229 11.4825 26.0553C12.0374 25.3055 12.9946 24.8149 14.1347 24.6033C16.7191 24.1237 20.1455 26.0634 22.3268 27.9097C24.3709 29.6041 27.8174 33.3073 30.0928 34.3318C28.9102 36.5402 27.2346 40.0462 25.0723 40.7923Z" fill="#B65E50"/>
<path d="M33.4609 34.5394C31.1855 33.5149 24.391 29.5327 22.3469 27.8382C20.1656 25.992 16.6701 24.0685 14.0857 24.5481C12.9457 24.7597 11.9789 25.2665 11.424 26.0163C11.4632 26.1839 11.3802 26.3344 11.3802 26.3344L11.2986 26.4452C11.0661 27.4233 11.6202 28.3527 12.1135 29.1159C13.7253 31.7074 15.579 34.2681 17.2372 36.6895C19.3466 38.4258 22.0482 38.7476 24.1853 40.2977L24.195 40.2524L24.5404 40.3814C24.6318 40.4136 24.7121 40.4915 24.7563 40.5963C24.8785 40.6721 24.9969 40.7599 25.1052 40.8609C27.2675 40.1148 32.2783 43.7457 33.4609 34.5394Z" fill="#C36556"/>
<path d="M27.2961 33.9154L27.128 33.7742C25.1334 32.0983 22.6541 30.6717 20.9433 28.5787C19.0661 27.8261 17.3725 26.4485 15.5221 25.4639C15.8812 25.833 16.2547 26.1853 16.6207 26.5891C20.0392 29.4468 24.0065 31.4421 27.4434 34.0986C27.4101 34.0065 27.3516 33.9499 27.2961 33.9154Z" fill="#B65E50"/>
<path d="M1.56498 18.836C2.39353 21.344 36.4406 21.0598 38.0378 23.3322C38.6816 24.2481 33.6938 39.6889 28.98 43.8469C26.1443 46.3481 19.8917 43.8053 18.7119 45.0024C14.5208 49.2548 12.5634 47.4096 14.1248 50.4086C15.3412 52.7449 12.523 51.4176 15.7987 54.3629C18.5613 56.847 24.794 56.5705 24.6528 58.4679C24.5444 59.9233 25.4504 61.5245 25.4243 62.8842C25.3984 64.2321 24.4398 65.3393 24.4898 66.596C46.2534 58.3486 61.8775 45.8125 51.362 22.6759C43.726 5.87475 26.7698 0.357724 6.54221 0.0458984C5.78823 0.259909 4.62757 0.463651 3.86766 0.656699C3.85802 8.76338 -0.623928 12.2103 1.56498 18.836Z" fill="#F8BC99"/>
<path d="M22.521 57.5279C25.5484 60.5875 25.1266 63.5373 24.4267 66.6196C24.9538 66.47 25.4773 66.3186 25.9969 66.1652C25.9794 64.6918 25.9966 63.7094 25.9213 63.6705C26.2301 62.8414 26.4177 62.0642 26.4951 61.3336C26.2228 59.3874 25.6487 57.5429 24.2859 56.3014C22.1946 54.3962 16.3037 53.1276 13.1459 52.7617C13.8682 53.4651 14.5775 54.1477 15.1566 54.9235C18.2625 55.4699 21.0489 55.7175 22.521 57.5279Z" fill="#95725D"/>
<path d="M31.6771 20.9145L31.6464 20.8741C31.5667 20.7922 31.3603 20.6758 31.0667 20.5385C28.2657 19.7693 25.9406 19.0978 24.7419 18.8883C22.4681 18.4911 18.6447 17.7402 14.584 16.9561C14.8337 18.5978 14.7349 20.2758 14.2579 21.9725C14.179 22.2533 14.0903 22.5324 13.992 22.8099C14.1107 22.7928 14.2115 22.7731 14.2885 22.7502C14.687 22.6324 14.8186 22.0643 15.0165 22.2559C15.3156 22.5455 16.4922 24.408 17.3374 24.527C18.8768 24.7439 22.6488 23.6085 23.2884 22.8865C24.1769 23.4361 25.3194 24.405 27.5901 24.1837C28.2224 24.122 28.1736 23.6915 28.839 23.6686C30.3573 23.6165 31.7248 24.466 32.5901 23.558C33.2128 22.9046 31.5631 21.9023 32.0204 21.1916C32.0204 21.1916 32.1237 21.0093 31.6771 20.9145Z" fill="#F9F9F9"/>
<path d="M14.3519 22.3859C14.6891 22.1605 15.0711 21.9141 15.4925 21.6766C16.6637 19.7387 19.0406 16.6419 21.9646 20.4698C21.9725 20.4868 21.9852 20.505 22.0049 20.5235C22.4116 21.0747 22.4776 21.5338 22.3582 22.0106C22.4658 22.003 22.5837 22.0051 22.7028 22.0188C22.9717 22.0494 23.1731 22.1301 23.2368 22.2207L23.5067 22.5756L23.308 22.586C23.3657 22.6472 23.4151 22.707 23.4587 22.7661C23.9006 21.9771 23.9549 21.3094 23.3398 20.47C24.0917 19.0502 25.5632 20.174 26.4011 21.4546C26.5746 21.477 26.7179 21.5204 26.811 21.5734L27.5341 21.9847L27.2558 22.0381C28.1269 22.6838 27.9423 23.3501 27.5593 24.039C28.0127 24.0392 28.1096 23.8686 28.1096 23.8686L28.2848 23.5598C28.5706 23.0049 28.5748 21.975 28.1252 21.0752C31.9428 20.5068 31.4148 22.3534 32.2167 23.4076L32.0537 23.6611C32.0537 23.6611 31.9222 23.8927 32.5959 23.9695C32.6785 23.979 32.7529 23.9837 32.8199 23.9849C33.1713 24.082 33.5601 24.0073 33.5601 24.0073C35.9202 23.5509 36.1596 22.6906 37.1934 22.108C31.4484 20.8638 26.9335 19.2712 24.7422 18.8883C22.4684 18.4911 18.645 17.7402 14.5843 16.9561C14.834 18.5978 14.7352 20.2758 14.2582 21.9725C14.2228 22.0984 14.1855 22.2239 14.1462 22.349C14.2046 22.3645 14.2726 22.3775 14.3519 22.3859Z" fill="#F9F9F9"/>
<path d="M13.4262 24.3338C13.6718 24.2999 14.106 24.2708 14.5018 24.2202C14.7664 22.8513 15.2224 21.5612 15.9077 20.4087C16.1097 19.7386 16.3411 19.0766 16.6006 18.4237C14.9478 17.8999 13.1893 17.3474 11.6484 16.9014C11.6897 19.2687 11.2472 21.5357 10.4034 23.6825C11.26 24.1523 12.3999 24.465 13.4262 24.3338Z" fill="#F9F9F9"/>
<path d="M15.1263 19.8355C15.435 20.7525 14.9082 21.7086 14.9105 22.6287C15.1652 21.8473 15.4948 21.103 15.9077 20.4087C16.1097 19.7386 16.3411 19.0766 16.6006 18.4237C14.9478 17.8999 13.1893 17.3474 11.6484 16.9014C11.6713 18.219 11.5445 19.5054 11.282 20.7573C12.585 19.1687 14.4492 17.5913 15.1263 19.8355Z" fill="#F9F9F9"/>
<path d="M10.6774 16.8173L10.5266 16.7378C9.66931 17.3416 8.83178 17.2682 8.01177 16.9065C7.51862 17.95 7.03609 18.996 6.62345 20.0665C6.19981 21.1656 5.82904 22.2791 5.45994 23.3975C5.76483 23.3821 6.10504 23.3487 6.22115 23.1748C6.73071 24.1678 9.12644 24.6307 10.3389 24.1877C10.6832 21.9594 11.4522 19.6783 12.5391 17.429C11.7845 17.1346 11.132 16.9115 10.6774 16.8173Z" fill="#F9F9F9"/>
<path d="M6.11641 22.4495C6.18888 22.3938 6.21883 22.3165 6.21883 22.3165L6.33975 22.0047C6.89535 20.5723 7.84149 17.6972 9.95221 18.1307C11.2175 17.7819 11.4754 18.8153 11.4227 20.0596C11.7427 19.1813 12.1169 18.3028 12.5391 17.4291C11.7845 17.1347 11.1321 16.9115 10.6774 16.8173L10.5267 16.7378C9.66936 17.3416 8.83181 17.2682 8.01186 16.9066C7.51872 17.95 7.03619 18.996 6.62354 20.0665C6.43079 20.5666 6.24891 21.0698 6.07323 21.5751C6.10013 21.8687 6.11729 22.1629 6.11641 22.4495Z" fill="#F9F9F9"/>
<path d="M12.4223 17.8066C9.93368 17.8903 5.73689 18.0479 3.91946 18.4953C3.56554 18.7667 2.35547 22.3681 5.37452 23.469C6.79006 23.9852 10.1411 25.0732 19.4297 25.7941C37.0673 27.1631 38.1727 24.6878 38.292 22.7797C28.1039 19.0146 20.3814 19.1197 12.4223 17.8066Z" fill="#F9F9F9"/>
<path d="M14.727 43.2569L14.7451 43.2769C14.7859 43.3152 14.8657 43.3584 14.9715 43.4032C15.8355 43.5124 16.5616 43.6225 16.899 43.5989C18.4497 43.4904 22.6915 43.4883 24.0233 43.2009L24.1505 43.2038C24.8733 41.9308 26.873 42.5942 28.4157 42.6973C29.2874 42.4552 30.7554 42.0366 31.3406 41.6215C31.43 41.427 31.3799 39.1134 30.1623 38.6656C29.5914 38.4557 28.2234 37.8497 24.8665 38.3079C21.0789 38.8249 15.9913 39.989 14.9979 41.2391C14.6042 41.7345 13.6033 43.0316 13.6878 43.5051C13.6878 43.5051 14.5968 43.2558 14.727 43.2569Z" fill="#F9F9F9"/>
<path d="M8.64258 17.3002C7.78898 16.5201 7.23945 16.0361 7.23945 16.0361C7.23945 16.0361 7.31737 16.5898 8.64258 17.3002Z" fill="#482520"/>
<path d="M38.1121 22.266C39.426 21.6469 39.5186 21.055 39.5186 21.055C38.5156 20.8109 35.2564 21.0945 31.0498 20.2327C24.1708 18.8235 15.3482 15.9534 14.0928 14.5899C12.5924 14.4025 3.11941 10.6025 1.64774 12.5228C1.23248 13.0646 0.100045 15.434 0.540507 16.5106C0.857029 17.1358 0.118083 18.8625 2.95011 20.6643C4.57055 21.6952 9.32691 21.5277 9.83077 21.523C12.2294 21.5005 16.1397 22.0775 16.2903 21.803C16.2903 21.803 34.3549 22.8011 34.3681 22.5889C34.3681 22.5889 37.5203 22.5448 38.1121 22.266Z" fill="#C9816E"/>
<path d="M39.1692 22.2065L40.1064 20.5803C31.7771 22.3458 14.6377 14.9378 13.1805 13.4087C-2.37138 7.53951 0.395657 13.4317 -0.000376664 16.6213C0.512475 16.9626 2.13458 12.8012 2.5478 13.3014C3.88706 12.1902 12.5628 14.4689 15.343 15.8658C21.6719 19.0442 32.2778 21.688 38.8431 21.2688C29.8297 24.4061 7.22866 19.427 4.21683 21.094C5.18489 21.2805 8.6589 21.9989 11.5204 22.2587C14.2551 22.507 31.0186 22.8724 31.8411 23.2964L39.1692 22.2065Z" fill="#AF7060"/>
<path d="M18.603 43.0535C18.6965 43.0137 18.7309 42.9353 18.7309 42.9353C19.3027 41.5562 17.0956 39.4482 15.5168 40.9113C15.5949 41.195 15.6682 41.4802 15.7365 41.7669C15.915 42.5156 16.0574 43.2639 16.1644 44.011C17.2355 44.757 18.8845 44.6917 18.603 43.0535Z" fill="#F9F9F9"/>
<path d="M20.9876 41.01C20.2552 40.2565 19.2016 39.5277 18.4401 39.9745C18.3082 40.0518 18.4888 42.475 18.5388 42.7415C18.9949 44.8933 21.7841 44.4405 21.7085 42.5597C21.9522 42.7384 22.2281 42.8939 22.501 43.006C23.0139 42.2252 23.4174 41.3551 23.8291 40.5633C22.809 40.2651 21.5859 40.316 20.9876 41.01Z" fill="#F9F9F9"/>
<path d="M21.995 42.2111L21.7693 41.9826C21.7135 41.9234 21.6135 41.8904 21.5086 41.9038C21.3635 41.9224 21.2641 42.0229 21.2864 42.1283C21.2932 42.1603 21.3105 42.1891 21.3354 42.2132L21.4537 42.3331C21.5619 43.5526 20.1426 44.6519 18.816 43.2878L18.5823 42.9599C18.5327 42.8861 18.4208 42.8422 18.3027 42.8574C18.159 42.8758 18.06 42.9746 18.0798 43.0788L18.1315 43.3552C17.7932 44.3208 17.099 44.731 16.1578 43.9644C16.164 44.0068 16.1701 44.0492 16.176 44.0915C16.456 44.5819 16.6936 45.0724 16.8912 45.5628C18.4132 45.4589 19.8673 45.2679 20.6114 44.8624C21.525 44.3646 22.1705 43.565 22.7031 42.6852C22.4343 42.5652 22.1888 42.4074 21.995 42.2111Z" fill="#F9F9F9"/>
<path d="M38.6055 21.998C37.8226 22.0005 32.1847 37.7784 29.1399 39.932C26.214 42.0014 19.8062 41.137 16.347 41.9787C13.9184 42.5696 12.1616 48.8711 12 48.8657C11.9056 48.8624 12.199 52.3776 13.6219 53.6155C14.6361 54.4977 16.7093 53.2265 19.6174 53.0665C21.9543 52.9379 32.0482 40.853 32.5461 40.2147C37.3997 33.9925 37.9514 22.4652 38.6055 21.998Z" fill="#DC8D79"/>
<path d="M30.8775 43.8778C36.2886 35.4186 38.292 24.6348 38.292 24.6348C38.292 24.6348 33.6316 36.3669 31.9916 40.0392C31.9409 40.1528 30.3059 42.6791 29.8213 43.2679C27.7344 45.8031 23.8957 49.5679 23.8962 49.6916L30.8775 43.8778Z" fill="#AF7060"/>
<path d="M20.9056 41.7976C27.5585 41.1901 29.8145 40.1147 29.8145 40.1147C29.8145 40.1147 16.919 41.4637 16.8383 41.4981C16.276 41.7345 16.1147 41.9147 15.5988 42.137C15.0828 42.3592 13.9206 44.5592 13.9652 44.7389C14.5286 44.4001 15.0075 43.0346 16.5992 42.4665L20.9056 41.7976Z" fill="#AF7060"/>
<path d="M5.33594 0.0917969C4.7495 0.239188 4.16143 0.380203 3.57161 0.514951C3.78859 3.84607 2.82449 6.97298 2.82449 6.97298C2.82449 6.97298 5.03949 3.52724 5.33594 0.0917969Z" fill="#95725D"/>
</svg>
