<svg width="55" height="68" viewBox="0 0 55 68" fill="none" xmlns="http://www.w3.org/2000/svg">
<path d="M1.07626 18.9404C1.91143 21.4684 10.2782 29.8212 11.8881 32.1118C14.314 35.5632 8.15264 38.3628 10.9063 43.6515C12.1324 46.0065 17.765 49.2747 21.067 52.2436C23.8517 54.7476 24.4912 56.9768 24.3487 58.8895C24.1312 61.8109 24.0831 64.5379 24.1845 67.0826C46.1222 58.7692 61.8713 46.1328 51.2717 22.811C43.5745 5.87552 26.4828 0.314309 6.09325 0C5.33324 0.21574 4.57014 0.421064 3.80418 0.615676C3.79447 8.78721 -1.13016 12.2618 1.07626 18.9404Z" fill="#F8BC99"/>
<path d="M9.88745 45.1872L10.8384 47.3683C15.3859 49.4576 20.1087 51.4575 22.2002 54.8868C25.2518 58.9989 24.8266 62.9635 24.1212 67.1061C24.6524 66.9051 25.1801 66.7015 25.7038 66.4953C25.6862 64.5152 25.7036 63.1949 25.6276 63.1425C25.9389 62.0282 26.128 60.9836 26.2061 60.0018C25.9316 57.386 25.3529 54.9069 23.9792 53.2383C21.0108 49.6328 14.8535 47.8418 11.0817 45.1943C10.729 44.9468 10.3763 44.699 10.0234 44.4517C9.87335 44.8327 9.88745 45.1872 9.88745 45.1872Z" fill="#95725D"/>
<path d="M2.83832 10.5836C2.57288 7.92431 3.50781 4.15714 3.80859 0.671387C3.21357 0.820936 2.61688 0.964016 2.01843 1.10074C2.23859 4.48063 2.51465 7.83614 2.74963 11.1717C2.84895 10.8532 2.83832 10.5836 2.83832 10.5836Z" fill="#95725D"/>
<path d="M18.5411 31.0388C20.4249 31.9271 22.1856 32.5024 23.2772 32.4586C23.2772 32.4586 24.0463 32.4277 24.0157 31.654C23.9851 30.8802 23.216 30.9109 23.216 30.9109C19.8627 31.0451 12.7276 26.0518 10.9971 23.378C9.70973 23.3073 2.14889 16.857 1.08141 18.8995C0.780241 19.4759 0.233985 21.0184 1.42276 23.2172C1.93518 24.1648 4.79505 28.5672 6.19379 29.539C9.42908 31.7867 12.9349 31.7101 17.0782 31.5441L17.8472 31.5132C17.8472 31.5132 18.3802 31.492 18.5411 31.0388Z" fill="#C9816E"/>
<path d="M23.9179 35.3815C24.2505 35.0453 26.3711 32.8948 26.8184 32.6567C22.9544 31.5859 17.8097 31.902 13.2474 32.0846C13.2474 32.0846 12.8273 32.1015 12.3383 31.9404C6.93196 33.9009 6.67159 44.9882 10.6142 45.7983C12.1143 46.1064 15.7632 41.9793 19.1036 38.8924C20.9418 37.1937 22.7177 36.5947 23.9179 35.3815Z" fill="#DC8D79"/>
<path d="M22.945 32.7774C22.945 32.7774 23.476 33.0183 23.8226 32.6164C25.0748 33.1565 26.1317 33.4923 26.784 33.4805C26.784 33.4805 27.5531 33.4496 27.5226 32.6759C27.4918 31.9021 26.7228 31.9327 26.7228 31.9327C25.0413 32.0589 15.172 26.267 13.7967 24.8463C11.2222 23.7062 1.92237 14.7643 -0.000344864 17.7623C0.465423 18.0648 0.89755 18.4544 1.2937 18.9241C2.32419 17.7039 10.464 24.953 12.9468 26.1376C13.9962 27.0396 16.7956 29.2478 19.4301 30.7596C17.2703 30.4934 12.0234 30.5037 9.57076 31.7842C10.4075 31.8956 11.7587 32.1702 12.6546 32.2808C12.6546 32.2808 14.6716 32.2285 17.1178 32.2654C19.4556 32.3006 22.2095 32.4162 22.945 32.7774Z" fill="#AF7060"/>
<path d="M26.3979 33.4961C23.2597 33.6905 19.4795 37.3375 18.2527 40.0726L18.0191 40.2685C18.0191 40.2685 17.8759 40.4246 17.8205 40.6489L18.731 39.6761C19.7437 39.1015 20.7265 38.4909 21.6923 37.8608C22.8729 36.614 24.3394 35.5018 25.6677 35.1566C26.1729 34.8073 26.6784 34.4588 27.1865 34.114C27.0819 33.4692 26.3979 33.4961 26.3979 33.4961Z" fill="#AF7060"/>
<path opacity="0.01" fill-rule="evenodd" clip-rule="evenodd" d="M37.4755 21.8748C39.5995 22.7004 41.6143 23.7552 43.528 25.04C44.1708 24.3822 44.7009 23.6514 45.1348 22.846C43.8291 21.9484 42.3894 21.2962 40.8236 20.8888C39.7039 19.9846 39.6703 19.134 40.7226 18.3372C41.426 14.4961 39.9411 12.7102 36.2767 12.9778C35.9016 13.3455 35.6396 13.782 35.4817 14.2874C36.3719 15.3874 37.2624 16.4881 38.1525 17.5881C38.1394 18.9756 37.9169 20.4047 37.4755 21.8748Z" fill="#0F0F0F"/>
<path opacity="0.01" fill-rule="evenodd" clip-rule="evenodd" d="M40.7167 18.3372C41.8444 20.0502 43.2693 20.2772 44.9834 19.0194C43.6391 18.2611 42.2225 18.0336 40.7167 18.3372Z" fill="black"/>
<path opacity="0.01" fill-rule="evenodd" clip-rule="evenodd" d="M20.091 31.9413C20.0462 30.8076 20.5902 30.2176 21.7146 30.1726C21.5331 29.0102 21.6319 27.8697 22.0028 26.7534C22.4001 27.8074 23.1243 28.3468 24.1836 28.3699C24.024 29.4761 24.3451 30.315 25.1301 30.8877C24.9908 30.147 25.2472 29.5686 25.9082 29.1529C26.6883 29.8244 27.0009 30.6638 26.8545 31.6707C27.5253 30.6464 28.0469 29.489 28.4109 28.2009C28.9062 24.2394 29.8848 20.509 31.3552 17.0086C32.3301 16.1782 33.4432 15.8499 34.7034 16.0227C35.3414 9.03298 33.0505 8.27281 27.8389 13.7417C27.1617 16.7445 26.1411 19.6245 24.7936 22.3825C23.5622 21.4367 22.5928 21.7592 21.8682 23.3515C20.7168 25.9268 19.5495 28.529 18.3664 31.1586C18.7821 31.8218 19.3515 32.0825 20.091 31.9413ZM25.1301 30.8877C25.7077 31.1483 26.2767 31.41 26.8545 31.6707C27.0009 30.6638 26.6883 29.8244 25.9082 29.1529C25.2472 29.5686 24.9908 30.147 25.1301 30.8877ZM20.091 31.9413C20.0462 30.8076 20.5902 30.2176 21.7146 30.1726C21.4693 31.0342 20.9251 31.6243 20.091 31.9413Z" fill="#171717"/>
<path opacity="0.01" fill-rule="evenodd" clip-rule="evenodd" d="M37.4747 21.875C36.6285 21.9089 35.782 21.9428 34.9357 21.9767C36.2074 23.0556 35.9563 23.776 34.1735 24.1391C35.4852 25.5842 35.2453 26.5888 33.4452 27.153C35.2327 28.1995 37.0693 28.126 38.9463 26.9328C38.2844 25.4148 37.7939 23.7289 37.4747 21.875Z" fill="black"/>
<path opacity="0.01" fill-rule="evenodd" clip-rule="evenodd" d="M19.0781 27.7211C18.2841 26.6677 17.4399 26.7014 16.5459 27.8224C17.358 28.6932 18.2022 28.6594 19.0781 27.7211Z" fill="black"/>
<path opacity="0.012" fill-rule="evenodd" clip-rule="evenodd" d="M34.9393 21.9764C33.8149 22.0215 32.6821 22.0667 31.5576 22.1117C30.8667 24.3399 29.8207 26.3691 28.4114 28.2008C28.0474 29.4889 27.5259 30.6462 26.855 31.6706C26.2774 31.4099 25.7083 31.1483 25.1305 30.8876C24.3458 30.3151 24.0246 29.4761 24.1841 28.3699C23.1246 28.3467 22.4006 27.8074 22.0032 26.7533C21.6324 27.8697 21.5335 29.0101 21.715 30.1725C21.4697 31.0343 20.9257 31.6241 20.0915 31.9413C20.0942 32.8637 19.8488 33.7253 19.347 34.5267C20.0701 35.2526 20.9267 35.502 21.9169 35.2757C22.1537 32.9134 23.2446 32.0178 25.1978 32.5887C24.5379 34.5294 24.3289 36.5252 24.5878 38.5762C25.4333 38.5423 26.2787 38.5085 27.1241 38.4747C27.9471 37.8735 28.7701 37.2733 29.5932 36.672C29.5819 36.3888 29.5707 36.1047 29.5596 35.8215C29.728 33.231 30.7739 31.2016 32.7058 29.7324C32.4594 28.6425 32.7133 27.7804 33.4503 27.1469C35.2485 26.5834 35.4883 25.5795 34.178 24.1363C35.9589 23.7735 36.2098 23.0543 34.9393 21.9764ZM25.1305 30.8876C25.7083 31.1483 26.2774 31.4099 26.855 31.6706C27.0014 30.6637 26.6889 29.8245 25.9086 29.1529C25.2477 29.5687 24.991 30.147 25.1305 30.8876Z" fill="#3D3D3D"/>
<path opacity="0.01" fill-rule="evenodd" clip-rule="evenodd" d="M32.7062 29.7324C30.7744 31.2017 29.7285 33.231 29.56 35.8214C31.8285 36.0143 31.8397 36.2983 29.5936 36.672C28.7706 37.2732 27.9476 37.8734 27.1245 38.4747C26.2792 38.5085 25.4337 38.5424 24.5883 38.5763C24.8023 39.9188 25.1458 41.325 25.602 42.7951C27.1111 43.2696 28.4129 44.0694 29.5072 45.1944C31.5441 44.4534 32.6124 42.9916 32.7207 40.8064C33.3706 42.0352 34.3824 42.5629 35.7471 42.389C35.7134 41.5384 35.6797 40.6879 35.646 39.8374C34.8007 39.8713 33.9551 39.9051 33.1098 39.939C33.2288 37.5966 32.5868 35.4925 31.1667 33.6275C31.9813 32.6 32.7873 31.5735 33.5852 30.5491C33.4633 30.037 33.1647 29.7652 32.7062 29.7324ZM27.1245 38.4747C26.9918 40.262 27.7612 41.9352 29.4401 43.4934C32.2585 40.4603 31.4807 38.7874 27.1245 38.4747Z" fill="black"/>
<path opacity="0.01" fill-rule="evenodd" clip-rule="evenodd" d="M21.913 35.279C23.1007 36.161 23.9919 37.2629 24.5867 38.5831C24.3275 36.5297 24.5368 34.5318 25.1973 32.5893C23.242 32.0177 22.15 32.9141 21.913 35.279Z" fill="black"/>
</svg>
