<svg width="55" height="67" viewBox="0 0 55 67" fill="none" xmlns="http://www.w3.org/2000/svg">
<path opacity="0.01" d="M31.6458 52.2115L31.8027 50.329V27.1458L31.4437 23.1961L31.4993 22.8386L31.4115 22.4877V19.713L31.2744 18.2051L31.2413 18.0062L29.9392 17.296L27.4318 16.0423L26.4839 15.7264L23.5033 14.9812L21.6181 14.8362L20.9864 14.6256H20.3206L19.1473 14.3323L18.7281 14.2724H12.4381L11.6557 14.468H10.8733L10.4505 14.3623L9.78361 14.4533L9.31008 14.0772L6.96123 13.49L6.83301 13.2656C4.73918 13.5758 2.20555 14.1342 -0.000309889 14.6073C-0.000309889 14.6073 0.109606 31.0785 0.761994 33.5016C4.54124 47.5389 11.8055 46.9482 11.6699 49.5043C16.6054 51.5286 24.7271 51.1827 29.5707 54.6713C30.0697 53.7037 30.7613 52.8838 31.6458 52.2115Z" fill="#121212"/>
<path d="M12.0361 44.5184C19.9674 50.3618 18.3166 44.5787 32.1094 44.5787C37.3492 44.5787 42.2008 43.7594 46.6152 42.4413C45.7357 40.6414 44.9352 38.7771 43.8156 37.1787C41.0943 33.2938 41.1781 28.4105 41.1005 23.9193C41.0719 22.2617 35.5571 22.138 35.4325 20.4283C35.0666 20.4273 34.6982 20.4268 34.3275 20.4268C22.862 20.4268 14.1274 16.8252 8.72756 15.9821C6.03706 15.5621 3.1122 15.7761 2.31844 15.3506C3.27437 18.5098 11.2372 26.1202 11.3296 28.1486C13.4931 40.2097 11.5315 37.3213 12.4832 43.6242L12.0361 44.5184Z" fill="#482520"/>
<path d="M6.99251 16.8522C10.2357 16.4953 12.2478 17.4339 15.0258 19.7323C17.1226 21.4673 20.1608 23.7246 21.6426 28.2103C22.2903 29.1319 21.5516 38.087 20.3644 39.2916C16.147 43.5706 9.16996 43.9046 10.7412 46.9224C11.9652 49.2733 17.8923 49.1895 21.1885 52.1532C23.9684 54.6529 24.6068 56.8783 24.4646 58.7876C24.2476 61.704 24.1995 64.4263 24.3007 66.9666C46.2005 58.6675 61.9223 46.053 51.341 22.7716C43.6572 5.86533 26.5949 0.313777 6.24071 0C5.48201 0.21535 4.31408 0.420367 3.54942 0.614623C3.53971 8.77204 -0.0760776 9.11097 2.12653 15.7781C2.12653 15.7781 3.74989 17.2091 6.99251 16.8522Z" fill="#F8BC99"/>
<path d="M10.8171 48.4257C10.9925 49.0285 10.9782 50.0246 10.9782 50.0246C15.5179 52.1103 20.2325 51.3688 22.3204 54.7922C25.3667 58.8971 24.9422 62.8549 24.238 66.9904C24.7684 66.7897 25.2951 66.5865 25.818 66.3807C25.8004 64.4039 25.8177 63.0859 25.7419 63.0336C26.0526 61.9212 26.2414 60.8784 26.3193 59.8983C26.0453 57.287 25.4676 54.8122 24.0963 53.1465C21.1331 49.5472 10.5888 47.6413 10.8171 48.4257Z" fill="#95725D"/>
<path d="M7.8252 19.0027C7.00265 18.251 6.47312 17.7847 6.47312 17.7847C6.47312 17.7847 6.5482 18.3182 7.8252 19.0027Z" fill="#482520"/>
<path d="M1.32742 13.5202C0.920111 14.0272 -1.02928 17.5821 1.74856 19.2682C3.33801 20.2331 6.71892 20.4921 7.21315 20.4877C7.70738 20.4833 14.4718 22.8777 14.6195 22.6208C14.6195 22.6208 17.274 25.2246 19.4474 27.9757C21.1552 30.1373 22.4943 32.6048 22.5 32.5174C22.5 32.5174 21.774 27.4198 19.6251 24.1621C18.0623 21.7927 15.3721 19.3949 12.0359 17.5337C12.0359 17.5337 2.77091 11.7231 1.32742 13.5202Z" fill="#C9816E"/>
<path d="M8.62418 14.3491C1.13792 8.85639 0.543206 13.7468 0.352548 16.7318C0.599414 17.0512 1.3803 13.1568 1.57922 13.6249C2.22389 12.585 6.40014 14.7175 7.73844 16.0248C8.75194 17.0143 14.4623 19.6626 18.4642 22.9466C18.9586 23.3523 21.9452 29.7878 22.2966 30.1876C22.3682 29.9981 21.7228 25.5838 18.9458 22.4258C15.0914 18.0425 8.71706 14.5385 8.62418 14.3491Z" fill="#AF7060"/>
<path d="M8.67787 20.3037C4.9776 19.7968 2.16423 19.0062 1.7404 19.4623C2.20639 19.6368 6.66163 20.7248 8.03906 20.968C8.59499 21.0662 12.1527 21.998 14.841 24.0027C16.4451 25.1989 20.2718 29.5499 21.4217 30.7938C21.4445 30.4062 19.1193 27.114 19.16 26.7403C15.8545 22.6382 11.8629 20.74 8.67787 20.3037Z" fill="#AF7060"/>
<path d="M18.3468 37.4973C14.3893 39.2758 13.5431 39.1273 10.3886 39.1699C6.04021 40.183 7.38863 45.994 8.37855 47.2805C9.0841 48.1974 10.7198 48.3898 13.2655 48.8048C15.3111 49.1381 19.8044 43.7164 20.2139 43.1238C20.799 42.2771 21.9095 40.642 22.233 39.4454C23.5131 34.7111 21.6555 29.5458 22.1793 29.3369C22.1793 29.3369 21.322 36.1602 18.3468 37.4973Z" fill="#DC8D79"/>
<path d="M13.1434 48.6276C13.1434 48.6276 19.2228 47.1091 21.9661 41.5665C23.2441 38.9846 22.6866 33.6929 22.6866 33.6929C22.6866 33.6929 23.2941 40.2379 19.5506 43.6654C15.5231 47.3531 13.1739 48.4963 13.1434 48.6276Z" fill="#AF7060"/>
<path d="M10.8501 39.2355C18.0941 38.596 17.947 38.4541 17.947 38.4541C17.947 38.4541 11.36 38.4758 11.2756 38.4877C10.6874 38.5684 10.496 38.6839 9.9553 38.7623C9.41451 38.8406 8.13032 40.7616 8.1369 40.9184C8.74681 40.7538 9.20565 39.3806 10.8501 39.2355Z" fill="#AF7060"/>
<path d="M5.02734 0.0463867C4.43724 0.1947 3.84548 0.336598 3.25198 0.472189C3.47032 3.82415 2.50018 6.97063 2.50018 6.97063C2.50018 6.97063 4.72904 3.50333 5.02734 0.0463867Z" fill="#95725D"/>
</svg>
