<svg width="55" height="66" viewBox="0 0 55 66" fill="none" xmlns="http://www.w3.org/2000/svg">
<path d="M14.6156 38.5293C17.94 41.4857 20.1897 42.6268 23.1285 43.0389C23.2648 42.8136 23.4273 42.5955 23.6178 42.386C24.0947 41.4982 24.7402 40.7145 25.5115 40.0777C26.6904 36.7769 36.4353 34.4359 37.9636 31.2732C39.0707 28.9823 33.0014 26.2793 33.1805 24.1343C32.4859 24.1296 31.7799 24.1272 31.0626 24.1272C9.31694 24.1272 8.8218 19.8765 8.8218 19.8765C8.8218 19.8765 8.16147 21.3229 8.25818 23.8867C8.47118 29.5338 10.4457 34.8211 14.6156 38.5293Z" fill="#482520"/>
<path opacity="0.01" d="M31.227 50.146L31.3818 48.2884V25.4125L31.0275 21.5151L31.0824 21.1624L30.9958 20.8161V18.0782L30.8606 16.5903L30.8278 16.394L29.543 15.6932L27.0689 14.4562L26.1335 14.1444L23.1925 13.4091L21.3322 13.266L20.7089 13.0582H20.0519L18.8942 12.7688L18.4805 12.7097H12.2739L11.5019 12.9027H10.7298L10.3126 12.7984L9.65455 12.8881L9.18734 12.5171L6.86962 11.9377L5.40378 6.05762C3.3377 6.36367 2.17697 12.5733 0.00034523 13.0401C0.00034523 13.0401 0.108803 29.293 0.752544 31.684C4.48171 45.5353 11.6497 44.9524 11.5158 47.4747C16.3859 49.4722 24.4 49.1308 29.1794 52.5732C29.6718 51.6184 30.3543 50.8093 31.227 50.146Z" fill="#121212"/>
<path d="M13.7265 25.2422C11.8973 25.4675 8.8138 25.8642 7.50772 26.4139C7.26759 26.7047 6.65277 30.3644 8.96459 31.2898C10.0485 31.7236 12.6042 32.6172 19.5114 32.806C32.6268 33.1646 33.2513 30.6336 33.1921 28.7243C25.3868 25.5518 19.6986 26.0972 13.7265 25.2422Z" fill="#F9F9F9"/>
<path d="M12.3336 37.7347L12.3527 37.7596C12.3956 37.8079 12.4782 37.8637 12.5871 37.9226C13.4644 38.0938 14.2026 38.2598 14.5423 38.2465C16.1031 38.1854 20.3862 38.3747 21.718 38.0873L21.8466 38.0965C22.5189 36.5896 24.5681 37.4823 26.1305 37.6768C26.9999 37.4233 28.4632 36.9834 29.0353 36.5079C29.1168 36.2767 28.9616 33.476 27.7119 32.8794C27.1259 32.5996 24.8847 32.5813 21.5158 32.9837C17.7146 33.4377 13.3657 32.6428 12.4191 34.1099C12.044 34.6912 11.1887 37.4113 11.2954 37.9878C11.2954 37.9878 12.202 37.7275 12.3336 37.7347Z" fill="#F9F9F9"/>
<path d="M2.50839 20.079C3.32569 22.5529 33.7921 27.4181 35.3676 29.6596C36.3262 31.0234 29.2466 36.1363 25.376 37.8805C19.6611 40.4557 10.3008 39.6313 11.9074 42.7169C12.5741 43.9975 12.146 44.8924 14.3445 46.5213C16.1024 47.8237 20.4148 49.8342 21.8505 51.1251C24.5756 53.5755 25.2014 55.757 25.062 57.6287C24.8492 60.4876 24.8021 63.1562 24.9013 65.6464C46.3694 57.511 61.7813 45.1452 51.4086 22.3227C43.8763 5.74973 27.1504 0.30758 7.1974 0C6.45367 0.211122 4.66359 0.759227 3.91404 0.949674C3.90452 8.94626 4.95734 12.3356 2.28777 18.5349L2.50839 20.079Z" fill="#F8BC99"/>
<path d="M12.9441 45.4723C16.9531 47.958 20.913 50.1356 22.9598 53.4916C25.946 57.5155 25.53 61.3953 24.8396 65.4492C25.3595 65.2525 25.8758 65.0533 26.3884 64.8516C26.3711 62.9138 26.3882 61.6217 26.3139 61.5705C26.6185 60.48 26.8035 59.4578 26.8799 58.497C26.6113 55.9372 26.045 53.5112 24.7007 51.8783C21.7959 48.35 12.8959 44 12.8959 44L12.9441 45.4723Z" fill="#95725D"/>
<path d="M4.01242 10.3573C3.75266 7.75487 4.66757 4.06835 4.96191 0.657227C4.37963 0.803574 3.79572 0.943591 3.21008 1.07739C3.42552 4.38492 3.69567 7.66858 3.92562 10.9327C4.02282 10.621 4.01242 10.3573 4.01242 10.3573Z" fill="#95725D"/>
<path d="M36.8525 29.6526C36.8154 28.8954 20.2062 22.9524 18.3819 20.6715C16.825 20.6023 9.58918 18.04 7.75296 19.5976C3.29964 19.9411 1.27601 20.5682 2.7137 22.7199C3.33341 23.6473 5.42907 26.6319 7.12069 27.5829C9.01933 28.6503 10.1405 28.6515 13.6204 28.5463C17.3119 28.4347 24.6791 29.4994 24.7793 29.2711C24.7793 29.2711 36.8894 30.4098 36.8525 29.6526Z" fill="#C9816E"/>
<path d="M37.7891 29.7518C35.4174 29.22 31.2021 34.4288 26.4741 35.9741C21.8862 37.4736 16.4487 36.5303 15.5283 36.4509C9.31987 35.9149 10.0771 44.1938 13.8302 44.8178C15.6444 45.1194 24.9643 45.4922 28.4589 38.7215C30.682 37.0591 37.2481 29.9848 37.7891 29.7518Z" fill="#DC8D79"/>
<path d="M39.2373 29.2635C37.5293 29.3601 31.9285 26.746 24.9936 23.8649C24.1976 23.5342 13.3501 18.6404 10.0203 17.5612C5.76494 16.447 2.54397 19.5869 2.3557 19.8081C2.96052 20.1041 2.43119 20.7059 2.94562 21.1656C3.79603 20.4068 9.57024 19.1563 15.26 21.3767C18.5231 22.6501 22.1911 24.9346 23.3662 25.3571C24.2988 25.9612 33.7039 28.7515 34.7835 29.2183C34.5411 29.1958 32.1743 29.4991 25.7429 28.8715C20.2239 28.3329 12.8295 26.8182 6.12368 27.5741C7.21013 27.6831 8.34785 28.6135 9.51119 28.7218C9.51119 28.7218 16.8249 29.3324 20.0014 29.3684C33.1235 31.6087 39.2373 29.2635 39.2373 29.2635Z" fill="#AF7060"/>
<path d="M25.7279 42.9915C29.5815 40.6401 31.9472 35.3237 31.6014 35.504C30.8026 35.6604 27.4013 40.4201 24.2754 42.4043C20.6609 44.6987 17.3228 44.2487 17.3228 44.2487C17.3228 44.2487 22.2842 45.0928 25.7279 42.9915Z" fill="#AF7060"/>
<path opacity="0.01" fill-rule="evenodd" clip-rule="evenodd" d="M37.9079 21.4064C39.9866 22.2143 41.9582 23.2465 43.8309 24.5039C44.4599 23.8601 44.9788 23.1449 45.4033 22.3568C44.1256 21.4785 42.7166 20.8402 41.1844 20.4416C40.0887 19.5567 40.0558 18.7243 41.0856 17.9445C41.7739 14.1857 40.3209 12.4381 36.7349 12.6999C36.3678 13.0597 36.1114 13.4869 35.9569 13.9815C36.828 15.0579 37.6994 16.1351 38.5705 17.2115C38.5577 18.5692 38.3399 19.9678 37.9079 21.4064Z" fill="#0F0F0F"/>
<path opacity="0.01" fill-rule="evenodd" clip-rule="evenodd" d="M41.0853 17.9446C42.1874 19.6186 43.5799 19.8404 45.2549 18.6113C43.9412 17.8703 42.5568 17.6479 41.0853 17.9446Z" fill="black"/>
<path opacity="0.01" fill-rule="evenodd" clip-rule="evenodd" d="M20.8963 31.2573C20.8524 30.1478 21.3848 29.5705 22.4851 29.5264C22.3075 28.389 22.4042 27.2729 22.7671 26.1804C23.156 27.2119 23.8646 27.7397 24.9013 27.7624C24.7451 28.8449 25.0594 29.6658 25.8275 30.2262C25.6912 29.5014 25.9422 28.9353 26.5889 28.5286C27.3524 29.1857 27.6583 30.0071 27.515 30.9925C28.1714 29.9901 28.6818 28.8575 29.038 27.5969C29.5227 23.7203 30.4805 20.0697 31.9193 16.6443C32.8734 15.8317 33.9627 15.5104 35.1958 15.6795C35.8202 8.83941 33.5783 8.09551 28.4784 13.4473C27.8156 16.3858 26.8169 19.2041 25.4982 21.9031C24.2932 20.9776 23.3445 21.2932 22.6354 22.8514C21.5087 25.3715 20.3664 27.9181 19.2086 30.4914C19.6154 31.1403 20.1725 31.3955 20.8963 31.2573ZM25.8275 30.2262C26.3927 30.4813 26.9496 30.7374 27.515 30.9925C27.6583 30.0071 27.3524 29.1857 26.5889 28.5286C25.9422 28.9353 25.6912 29.5014 25.8275 30.2262ZM20.8963 31.2573C20.8524 30.1478 21.3848 29.5705 22.4851 29.5264C22.2451 30.3696 21.7125 30.947 20.8963 31.2573Z" fill="#171717"/>
<path opacity="0.01" fill-rule="evenodd" clip-rule="evenodd" d="M37.9081 21.4062C37.0809 21.4394 36.2534 21.4725 35.426 21.5056C36.6692 22.5604 36.4238 23.2646 34.681 23.6196C35.9633 25.0322 35.7287 26.0143 33.969 26.5658C35.7164 27.5888 37.5118 27.5169 39.3467 26.3505C38.6997 24.8666 38.2202 23.2185 37.9081 21.4062Z" fill="black"/>
<path opacity="0.01" fill-rule="evenodd" clip-rule="evenodd" d="M19.9043 27.1287C19.126 26.0962 18.2986 26.1293 17.4222 27.2281C18.2182 28.0816 19.0457 28.0485 19.9043 27.1287Z" fill="black"/>
<path opacity="0.012" fill-rule="evenodd" clip-rule="evenodd" d="M35.4261 21.5057C34.3257 21.5498 33.2171 21.5941 32.1167 21.6381C31.4406 23.8185 30.417 25.8044 29.0379 27.5968C28.6817 28.8573 28.1713 29.9899 27.5148 30.9923C26.9496 30.7373 26.3926 30.4812 25.8272 30.2261C25.0593 29.6659 24.745 28.8448 24.9011 27.7623C23.8643 27.7396 23.1558 27.2118 22.7669 26.1803C22.4041 27.2728 22.3072 28.3888 22.4848 29.5263C22.2447 30.3696 21.7124 30.9469 20.8961 31.2572C20.8987 32.1599 20.6586 33.0031 20.1676 33.7873C20.8752 34.4977 21.7134 34.7417 22.6824 34.5203C22.9142 32.2085 23.9817 31.3321 25.8931 31.8908C25.2473 33.7899 25.0428 35.743 25.2962 37.7501C26.1235 37.717 26.9508 37.6839 27.7781 37.6508C28.5835 37.0625 29.3889 36.4751 30.1943 35.8867C30.1833 35.6095 30.1724 35.3315 30.1615 35.0543C30.3264 32.5194 31.3498 30.5334 33.2404 29.0957C32.9993 28.029 33.2477 27.1854 33.9689 26.5655C35.7287 26.014 35.9633 25.0317 34.681 23.6193C36.4238 23.2643 36.6694 22.5605 35.4261 21.5057ZM25.8272 30.2261C26.3926 30.4812 26.9496 30.7373 27.5148 30.9923C27.6581 30.007 27.3523 29.1857 26.5888 28.5285C25.942 28.9354 25.6907 29.5014 25.8272 30.2261Z" fill="#3D3D3D"/>
<path opacity="0.01" fill-rule="evenodd" clip-rule="evenodd" d="M33.2401 29.0957C31.3497 30.5335 30.3261 32.5194 30.1612 35.0543C32.3811 35.2431 32.3921 35.521 30.1941 35.8867C29.3887 36.475 28.5833 37.0624 27.7779 37.6508C26.9506 37.6839 26.1233 37.717 25.296 37.7502C25.5054 39.064 25.8415 40.4401 26.2879 41.8787C27.7647 42.3431 29.0387 43.1257 30.1096 44.2266C32.1028 43.5016 33.1483 42.0711 33.2543 39.9326C33.8902 41.1351 34.8803 41.6515 36.2158 41.4813C36.1829 40.6489 36.15 39.8166 36.117 38.9843C35.2898 39.0175 34.4623 39.0506 33.635 39.0837C33.7516 36.7915 33.1232 34.7325 31.7335 32.9074C32.5307 31.9019 33.3195 30.8974 34.1003 29.8949C33.981 29.3937 33.6888 29.1278 33.2401 29.0957ZM27.7779 37.6508C27.648 39.3999 28.4009 41.0372 30.0439 42.5621C32.8019 39.5939 32.0408 37.9568 27.7779 37.6508Z" fill="black"/>
<path opacity="0.01" fill-rule="evenodd" clip-rule="evenodd" d="M22.6821 34.5205C23.8431 35.3827 24.7143 36.4599 25.2957 37.7504C25.0424 35.7432 25.2469 33.7901 25.8926 31.8912C23.9812 31.3324 22.9138 32.2088 22.6821 34.5205Z" fill="black"/>
</svg>
