<svg xmlns="http://www.w3.org/2000/svg" fill="none" viewBox="141 323.03 82.08 71.92">
<path d="M144.09 352.784C145.709 360.766 149.32 374.791 152.272 382.349C152.786 383.665 153.184 385.165 153.513 386.756C169.07 394.851 190.191 397.741 206.16 391.799C219.442 379.742 227.305 356.004 220.694 340.313C220.093 338.887 219.391 337.566 218.601 336.346C210.84 331.755 202.723 327.05 193.842 323.89C190.961 323.799 187.965 323.489 184.89 323.055C173.368 323.32 161.734 326.081 153.965 328.946C151.552 329.779 149.296 330.8 147.163 331.977C145.353 333.763 143.486 335.478 141.434 336.87C141.932 341.608 142.513 346.478 144.09 352.784Z" fill="#E1A585"/>
<path d="M141.265 345.305C143.721 357.839 150.119 373.506 152.605 386.055C152.605 386.055 151.218 372.503 148.925 365.791C146.172 357.532 145.33 349.013 142.637 340.637C142.637 339.179 142.504 337.717 142.302 336.255C141.876 336.57 141.442 336.871 141 337.158C141.139 339.867 141.254 342.582 141.265 345.305Z" fill="#7F5D4B"/>
<path d="M158.583 367.292C164.938 372.943 162.361 371.871 173.413 371.871C194.867 371.871 208.197 351.178 208.197 351.178C208.197 351.178 196.645 348.512 175.19 348.512C153.736 348.512 153.247 344.318 153.247 344.318C153.247 344.318 152.596 345.745 152.691 348.275C152.901 353.846 154.469 363.633 158.583 367.292Z" fill="#482520"/>
<path d="M198.929 350.591L198.893 350.543C198.809 350.449 198.627 350.328 198.378 350.193C196.206 349.601 194.39 349.068 193.505 348.969C189.436 348.517 178.47 346.69 174.867 346.69L174.54 346.63C171.961 348.863 167.162 346.674 163.232 345.802C160.843 345.91 156.815 346.113 155.071 346.69C154.731 347.041 153.57 351.689 156.468 353.11C157.826 353.776 161.024 355.578 169.957 356.111C180.037 356.712 193.837 356.58 197.103 354.509C198.397 353.688 201.708 351.526 201.753 350.543C201.753 350.543 199.265 350.649 198.929 350.591Z" fill="#F9F9F9"/>
<path d="M167.454 360.09C164.141 361.644 152.602 364.812 160.993 368.451C166.029 368.519 171.046 369.932 176.164 369.932C181.261 369.932 186.816 370.134 191.894 370.226C192.613 370.217 193.426 370.091 194.265 369.869C194.426 369.561 194.595 369.254 194.769 368.949C193.722 369.291 192.705 369.479 191.894 369.465C186.735 369.534 181.321 369.17 176.164 369.17C171.152 369.17 166.104 367.62 161.188 367.709C156.318 365.425 160.534 363.449 164.295 362.065C164.269 362.12 164.252 362.189 164.268 362.264C164.929 362.034 165.599 361.807 166.236 361.531C166.673 361.531 167.466 361.437 168.427 361.334C171.261 360.518 174.853 360.042 176.339 361.691C176.238 361.737 176.137 361.782 176.038 361.826C176.465 362.127 176.731 362.536 176.768 363.086L177.337 362.83C180.349 361.478 182.922 360.864 186.21 360.814C186.697 360.707 187.195 360.638 187.71 360.638C190.355 360.638 196.933 359.985 198.736 362.281C198.863 362.296 199.042 362.274 199.155 362.072C199.344 361.731 198.965 361.561 198.965 361.561C198.772 361.474 198.579 361.392 198.387 361.315C198.398 361.306 198.409 361.297 198.42 361.288C198.691 361.413 198.963 361.539 199.233 361.668C199.348 361.771 199.453 361.874 199.551 361.977C199.753 361.806 199.965 361.646 200.185 361.496C200.05 361.35 199.902 361.203 199.739 361.057C199.498 360.939 199.257 360.824 199.014 360.711C195.615 360.377 192.275 359.34 188.617 359.34C187.422 359.34 185.901 359.245 184.382 359.24C184.148 359.299 183.917 359.367 183.69 359.444C182.341 359.488 180.909 359.868 179.522 360.369C176.115 359.126 170.615 358.719 167.454 360.09ZM196.056 360.507C196.155 360.553 196.249 360.602 196.339 360.649C196.142 360.6 195.946 360.554 195.75 360.512L196.056 360.507ZM170.246 360.111C169.721 360.203 169.201 360.315 168.694 360.444C169.172 360.297 169.694 360.188 170.246 360.111Z" fill="#B65E50"/>
<path d="M168.347 361.308C167.386 361.411 166.592 361.51 166.154 361.51C165.517 361.786 164.846 362.019 164.184 362.25C164.169 362.175 164.186 362.105 164.212 362.049C160.451 363.433 156.234 365.437 161.104 367.722C166.02 367.632 171.1 369.231 176.112 369.231C181.269 369.231 186.814 369.563 191.972 369.493C192.754 369.508 193.728 369.332 194.735 369.009C195.588 367.507 196.58 366.042 197.452 364.664C197.506 364.579 197.58 364.47 197.674 364.341C198.148 363.411 198.808 362.592 199.604 361.932C199.515 361.839 199.419 361.747 199.316 361.654C199.046 361.525 198.774 361.397 198.502 361.272C198.492 361.281 198.315 361.323 198.304 361.331C198.496 361.409 198.688 361.489 198.882 361.576C198.882 361.576 199.26 361.744 199.071 362.085C198.958 362.286 198.947 362.284 198.819 362.269C197.016 359.973 190.427 360.598 187.782 360.598C187.268 360.598 186.765 360.662 186.279 360.77C182.99 360.82 180.289 361.424 177.278 362.776L176.836 363.131C176.799 362.581 176.526 362.18 176.099 361.879C176.198 361.835 176.18 361.681 176.282 361.635C174.796 359.986 171.181 360.492 168.347 361.308Z" fill="#C36556"/>
<path d="M161.683 368.836L161.709 368.858C161.77 368.902 161.901 368.957 162.079 369.018C163.628 369.259 164.922 369.479 165.551 369.508C168.441 369.638 176.239 370.288 178.792 370.208L179.025 370.23C180.817 369.082 184.251 370.045 187.049 370.384C188.74 370.279 191.591 370.09 192.818 369.769C193.053 369.59 193.805 367.294 191.73 366.664C190.758 366.368 188.464 365.559 182.126 365.496C174.976 365.426 165.199 365.797 162.917 366.881C162.013 367.311 159.7 368.44 159.683 368.922C159.683 368.922 161.444 368.815 161.683 368.836Z" fill="#F9F9F9"/>
<path d="M186.537 379.492L186.48 379.473C186.46 379.483 186.441 379.492 186.421 379.501C185.864 379.547 185.322 379.626 184.79 379.726C183.958 379.589 183.198 379.163 182.237 379.196C181.972 379.066 181.669 378.945 181.335 378.835C178.891 378.753 176.453 378.627 173.949 378.627C172.667 378.627 171.393 378.959 170.124 379.11C170.122 379.111 170.12 379.112 170.117 379.114L170.116 379.111C169.959 379.13 169.802 379.145 169.645 379.158L169.489 379.235C169.298 379.323 169.167 379.514 169.167 379.735C169.167 379.956 169.298 380.147 169.489 380.236L169.916 380.447C171.037 382.538 175.241 382.228 177.325 382.228C178.031 382.228 178.711 382.163 179.377 382.059C182.034 382.122 184.817 381.995 186.797 380.66L186.861 380.785L187.303 380.567C187.353 380.566 187.403 380.566 187.453 380.566C187.453 380.566 188.016 380.566 188.016 380.012C188.016 379.458 187.453 379.458 187.453 379.458C187.376 379.458 187.299 379.459 187.222 379.46C187.206 379.459 187.189 379.458 187.172 379.458H186.609V379.487C186.585 379.489 186.561 379.491 186.537 379.492Z" fill="#D1997B"/>
<path d="M188.61 379.209C188.355 379.209 188.099 379.209 187.844 379.209C183.041 377.33 176.107 378.339 171.055 378.387C170.426 378.593 169.749 378.664 169.086 378.664L168.991 378.735L168.976 378.69L168.147 378.962C168.004 379.006 167.88 379.093 167.792 379.209C168.073 379.209 168.354 379.209 168.636 379.209C175.508 379.209 182.402 379.448 189.294 379.482L188.61 379.209Z" fill="#7F5D4B"/>
<path opacity="0.01" d="M193.843 323.89C193.195 323.66 192.543 323.437 191.887 323.224C189.582 323.051 187.238 323.001 184.89 323.055C187.965 323.489 190.961 323.799 193.843 323.89Z" fill="black"/>
<path opacity="0.01" fill-rule="evenodd" clip-rule="evenodd" d="M182.648 350.715C181.544 351.268 181.544 351.268 182.648 350.715V350.715Z" fill="black"/>
<path opacity="0.01" fill-rule="evenodd" clip-rule="evenodd" d="M181.819 363.149C184.095 363.633 186.029 364.738 187.622 366.464C189.979 363.523 189.15 361.865 185.135 361.491C184.077 360.567 184.077 359.738 185.135 359.004C186.002 355.457 184.759 353.247 181.405 352.373C180.273 353.279 179.997 354.384 180.576 355.689C181.423 356.396 182.114 357.225 182.648 358.175C182.446 359.875 182.17 361.532 181.819 363.149Z" fill="#101010"/>
<path opacity="0.01" fill-rule="evenodd" clip-rule="evenodd" d="M163.584 367.293C163.543 369.447 162.714 371.244 161.097 372.681C161.803 374.113 162.632 374.252 163.584 373.095C163.584 371.991 164.137 371.438 165.242 371.438C165.109 370.029 165.247 368.648 165.656 367.293C165.887 368.052 166.301 368.605 166.899 368.951C167.83 367.909 168.382 368.185 168.557 369.78C169.296 370.286 170.125 370.562 171.044 370.609C172.867 369.636 174.524 370.05 176.017 371.852C174.213 373.322 172.693 375.117 171.458 377.24C171.182 376.687 170.906 376.135 170.63 375.582C170.265 376.888 169.574 377.994 168.557 378.898C169.173 379.463 169.725 380.016 170.215 380.556C169.386 380.556 168.557 380.556 167.729 380.556C168.624 381.836 168.624 383.079 167.729 384.285C169.212 385.723 170.87 386.966 172.702 388.015C174.559 387.574 175.803 386.47 176.432 384.7C177.769 385.63 178.736 385.215 179.333 383.457C176.623 382.193 175.794 380.259 176.846 377.654C176.222 376.422 175.532 376.283 174.774 377.24C174.168 375.411 174.72 374.031 176.432 373.096C176.925 371.936 176.787 370.831 176.018 369.78C176.312 368.933 176.865 368.38 177.676 368.122C178.402 368.231 178.955 367.955 179.333 367.293C178.228 366.188 178.228 365.083 179.333 363.978C178.249 363.044 177.143 363.044 176.018 363.978C174.991 364.235 174.991 364.649 176.018 365.221C174.317 365.992 173.073 367.235 172.288 368.951C172.147 366.893 172.838 365.097 174.36 363.563C172.264 362.472 172.264 361.505 174.36 360.662C174.902 359.323 175.316 357.942 175.603 356.518C176.762 356.061 177.868 355.785 178.919 355.689C179.177 353.985 179.591 352.327 180.162 350.715C179.907 350.046 179.492 349.493 178.919 349.058C178.09 350.163 177.261 350.163 176.432 349.058C174.636 350.854 172.841 352.649 171.044 354.445C171.477 354.91 171.753 355.463 171.873 356.103C170.391 358.219 169.424 360.568 168.972 363.149C168.103 362.306 167.135 362.167 166.071 362.734C165.666 364.565 164.836 366.085 163.584 367.293ZM166.899 368.951C167.452 369.227 168.004 369.504 168.557 369.78C168.382 368.185 167.83 367.909 166.899 368.951ZM168.557 369.78C168.938 373.531 169.767 373.807 171.044 370.609C170.125 370.562 169.296 370.286 168.557 369.78ZM163.584 373.095C163.584 371.991 164.137 371.438 165.242 371.438C164.966 372.267 164.413 372.819 163.584 373.095ZM170.215 380.556C170.286 381.381 170.009 382.071 169.386 382.627C170.844 383.463 171.811 384.706 172.287 386.357C172.513 384.841 173.205 383.598 174.359 382.627C173.434 381.059 172.052 380.369 170.215 380.556Z" fill="#161616"/>
<path opacity="0.01" fill-rule="evenodd" clip-rule="evenodd" d="M185.135 359.004C185.882 360.85 187.263 361.679 189.279 361.491C189.279 360.662 189.279 359.833 189.279 359.004C187.738 358.531 186.356 358.531 185.135 359.004Z" fill="black"/>
<path opacity="0.01" fill-rule="evenodd" clip-rule="evenodd" d="M176.018 363.978C177.143 363.044 178.249 363.044 179.333 363.978C178.228 365.082 178.228 366.188 179.333 367.293C178.954 367.955 178.401 368.231 177.675 368.122C179.787 370.288 181.722 370.149 183.478 367.708C182.838 366.695 182.009 365.867 180.991 365.221C181.614 364.665 181.891 363.974 181.82 363.149C179.49 361.758 177.557 362.034 176.018 363.978Z" fill="#030303"/>
<path opacity="0.01" fill-rule="evenodd" clip-rule="evenodd" d="M162.755 367.293C163.031 367.293 163.308 367.293 163.584 367.293C163.308 365.083 163.031 365.083 162.755 367.293Z" fill="black"/>
<path opacity="0.01" fill-rule="evenodd" clip-rule="evenodd" d="M162.755 367.293C161.53 367.076 160.425 367.352 159.439 368.122C159.992 368.398 160.544 368.675 161.097 368.951C162.103 368.746 162.655 368.193 162.755 367.293Z" fill="black"/>
<path opacity="0.012" fill-rule="evenodd" clip-rule="evenodd" d="M168.557 369.78C168.938 373.531 169.767 373.806 171.044 370.609C170.125 370.561 169.296 370.285 168.557 369.78Z" fill="#484848"/>
<path opacity="0.016" fill-rule="evenodd" clip-rule="evenodd" d="M165.242 371.438C164.966 372.266 164.413 372.819 163.584 373.095C163.138 374.436 162.862 375.817 162.755 377.24C164.373 377.466 165.616 376.914 166.485 375.582C166.644 377.412 167.058 379.07 167.729 380.555C167.599 378.428 167.876 376.356 168.558 374.339C168.135 372.825 167.444 372.687 166.485 373.924C166.293 372.899 165.879 372.07 165.242 371.438Z" fill="#1E1E1E"/>
<path d="M171.245 367.199C170.598 366.95 163.145 364.902 162.412 364.581C161.035 364.178 157.789 365.297 156.877 363.641C155.236 360.659 151.51 344.5 151.079 343.912C149.641 341.952 155.107 366.628 157.445 369.482C159.034 371.423 162.529 372.151 163.46 372.968C165.888 374.665 169.488 374.972 171.645 375.1C175.772 375.345 183.79 375.856 187.045 374.867C192.462 373.22 197.266 367.421 199.792 365.344C199.923 365.236 208.653 351.725 209.066 351.186C209.383 350.772 207.852 351.216 207.852 351.216C207.852 351.216 195.75 365.666 194.989 365.619C194.989 365.619 192.173 366.147 187.412 365.462C187.412 365.462 174.866 368.364 171.245 367.199Z" fill="#D97E67"/>
<path d="M185.311 375.46C188.272 375.454 189.912 374.37 190.355 374.089C193.165 372.304 199.936 365.054 200.42 364.71C198.965 364.687 191.99 373.257 186.538 374.592C181.949 374.619 179.753 375.104 175.152 375.248C175.33 375.288 182.046 375.46 185.311 375.46Z" fill="#994F43"/>
<path d="M161.429 372.747C164.759 374.014 168.718 375.554 169.124 374.998C168.803 374.865 166.427 374.129 166.113 373.968C163.642 373.308 158.781 370.378 158.027 370.125C159.489 371.168 159.195 371.897 161.429 372.747Z" fill="#994F43"/>
<path d="M204.9 350.824C206.78 350.976 207.543 351.008 209.666 351.015C203.351 349.552 196.34 346.752 191.646 344.951C188.975 344.066 186.404 342.856 183.949 341.622C182.536 341.101 181.079 340.725 179.417 341.014C176.311 341.554 172.186 343.953 168.778 343.259C166.231 342.741 162.784 341.073 160.31 340.142C159.977 340.108 159.644 340.09 159.312 340.089C157.255 341.121 155.004 341.93 152.648 342.51C151.913 343.234 150.248 342.782 150.37 343.558C150.519 344.508 152.244 347.927 154.048 348.51C157.084 349.491 165.744 350.567 169.923 350.555C173.254 350.981 177.663 349.987 180.169 350.053C184.018 350.155 185.775 351.156 190.965 351.156C195.05 351.156 196.435 351.623 200.487 351.707L204.9 350.824Z" fill="#CD6B5B"/>
<path d="M180.669 340.139C179.275 340.278 172.259 342.231 170.936 342.736L170.313 342.974C167.499 341.789 164.696 340.545 161.838 339.445L161.529 339.282C161.281 339.087 161 339.036 160.754 339.042C160.513 339.028 160.233 339.069 159.978 339.249C157.478 340.413 155.018 341.583 152.402 342.586L151.516 342.855C151.516 342.855 150.697 343.106 150.765 343.717C154.105 342.89 157.154 341.741 160.657 340.249C163.333 341.065 167.025 343.946 169.786 344.139C173.384 344.389 177.231 341.817 180.565 341.317C182.468 341.031 184.427 342.269 186.149 342.709C190.596 344.414 198.934 348.961 204.604 349.75C204.458 349.603 183.793 339.18 180.669 340.139Z" fill="#994F43"/>
<path d="M188.53 365.798C195.283 366.449 195.967 365.531 195.967 365.531C195.967 365.531 189.244 365.379 189.173 365.387C177.621 366.635 177.207 367.898 169.696 366.838C168.07 366.369 162.518 364.342 162.5 364.34C162.036 364.518 154.463 364.634 156.426 364.999C157.099 365.124 160.397 365.398 162.48 365.704C162.48 365.704 168.743 367.856 170.548 368.052C177.883 368.848 188.53 365.798 188.53 365.798Z" fill="#994F43"/>
<path d="M158.585 349.271C160.249 349.975 169.097 351.072 170.842 351.575C178.531 352.701 183.528 350.204 183.528 350.204C195.283 353.797 208.995 351.28 209.844 351.138C210.034 351.106 203.91 350.82 202.738 350.762C198.763 350.566 193.252 351.402 191.259 350.525C189.648 350.301 183.36 349.197 183.289 349.205C179.647 349.24 174.465 350.008 170.444 350.057C166.257 350.109 167.054 349.431 163.223 348.89C161.596 348.422 157.222 347.277 157.203 347.275C156.957 347.37 154.855 348.831 153.527 348.106C151.703 347.111 150.849 344.995 150.849 344.995C150.849 344.995 150.879 348.84 154.83 350.11L158.585 349.271Z" fill="#994F43"/>
</svg>