<svg xmlns="http://www.w3.org/2000/svg" fill="none" viewBox="142.09 324.02 82.08 71.92">
<path d="M145.183 353.77C146.802 361.752 150.413 375.777 153.365 383.335C153.879 384.652 154.277 386.151 154.607 387.743C170.164 395.837 191.284 398.727 207.253 392.785C220.535 380.729 228.399 356.99 221.787 341.299C221.186 339.873 220.485 338.553 219.694 337.332C211.934 332.741 203.816 328.037 194.936 324.876C192.054 324.786 189.058 324.476 185.983 324.041C174.461 324.306 162.828 327.068 155.059 329.932C152.646 330.765 150.389 331.787 148.257 332.964C146.446 334.75 144.579 336.464 142.528 337.856C143.025 342.594 143.607 347.465 145.183 353.77Z" fill="#E1A585"/>
<path d="M142.358 346.291C144.814 358.825 151.213 374.492 153.699 387.041C153.699 387.041 152.311 373.489 150.018 366.778C147.265 358.518 146.424 349.999 143.73 341.624C143.73 340.165 143.597 338.704 143.395 337.241C142.969 337.556 142.535 337.858 142.093 338.144C142.232 340.853 142.347 343.568 142.358 346.291Z" fill="#7F5D4B"/>
<path d="M160.138 366.661C166.851 371.745 164.13 370.78 175.804 370.78C198.467 370.78 212.548 352.165 212.548 352.165C212.548 352.165 200.345 349.766 177.682 349.766C155.018 349.766 154.502 345.994 154.502 345.994C154.502 345.994 153.814 347.277 153.915 349.553C154.137 354.565 155.792 363.37 160.138 366.661Z" fill="#482520"/>
<path d="M168.852 360.771C165.538 362.326 153.999 365.493 162.39 369.132C167.427 369.2 172.443 370.614 177.562 370.614C182.658 370.614 188.213 370.815 193.291 370.908C196.631 370.863 201.978 368.325 202.602 365.217C202.496 364.235 202.274 363.216 201.789 362.416C201.604 362.19 201.388 361.964 201.137 361.739C200.896 361.621 200.654 361.506 200.412 361.392C197.012 361.059 193.672 360.022 190.014 360.022C188.819 360.022 187.298 359.926 185.779 359.922C185.545 359.981 185.315 360.049 185.088 360.125C183.738 360.169 182.306 360.55 180.919 361.051C177.513 359.808 172.013 359.4 168.852 360.771ZM177.737 362.373C177.635 362.418 177.535 362.463 177.436 362.508C177.862 362.809 178.129 363.218 178.165 363.768L178.735 363.512C181.746 362.16 184.319 361.546 187.608 361.496C188.094 361.388 188.593 361.319 189.108 361.319C191.752 361.319 198.33 360.666 200.133 362.962C200.261 362.978 200.44 362.955 200.552 362.753C200.742 362.413 200.362 362.242 200.362 362.242C200.169 362.156 199.976 362.074 199.784 361.996C199.796 361.988 199.807 361.979 199.817 361.97C200.089 362.095 200.36 362.221 200.63 362.35C204.851 366.129 196.962 370.213 193.291 370.146C188.133 370.216 182.719 369.852 177.562 369.852C172.549 369.852 167.502 368.301 162.585 368.391C157.715 366.106 161.931 364.13 165.693 362.746C165.666 362.802 165.649 362.871 165.665 362.946C166.326 362.716 166.996 362.489 167.634 362.212C168.071 362.212 168.863 362.118 169.825 362.016C172.659 361.2 176.251 360.723 177.737 362.373ZM197.454 361.188C197.553 361.235 197.646 361.283 197.736 361.331C197.54 361.282 197.344 361.236 197.148 361.194L197.454 361.188ZM171.643 360.792C171.119 360.884 170.598 360.996 170.092 361.125C170.569 360.979 171.092 360.869 171.643 360.792Z" fill="#B65E50"/>
<path d="M169.745 361.99C168.784 362.093 167.99 362.191 167.552 362.191C166.915 362.468 166.244 362.701 165.582 362.931C165.567 362.856 165.584 362.786 165.61 362.73C161.849 364.115 157.632 366.119 162.502 368.403C167.418 368.314 172.498 369.913 177.51 369.913C182.667 369.913 188.212 370.245 193.37 370.175C197.041 370.242 204.934 366.115 200.714 362.336C200.444 362.207 200.172 362.079 199.9 361.953C199.89 361.963 199.713 362.005 199.702 362.013C199.894 362.09 200.086 362.171 200.28 362.257C200.28 362.257 200.658 362.426 200.469 362.766C200.356 362.968 200.345 362.966 200.217 362.951C198.414 360.654 191.825 361.28 189.18 361.28C188.666 361.28 188.163 361.344 187.677 361.452C184.388 361.501 181.687 362.106 178.676 363.458L178.234 363.813C178.197 363.263 177.924 362.862 177.497 362.561C177.596 362.517 177.578 362.362 177.68 362.317C176.194 360.667 172.579 361.174 169.745 361.99Z" fill="#C36556"/>
<path d="M204.131 352.017L204.093 351.971C204.002 351.881 203.804 351.765 203.535 351.635C201.181 351.066 199.214 350.553 198.254 350.459C193.845 350.024 181.962 348.268 178.058 348.268L177.703 348.21C174.909 350.357 169.709 348.252 165.45 347.414C162.862 347.518 158.497 347.714 156.607 348.269C156.239 348.605 154.98 353.073 158.12 354.439C159.592 355.079 163.058 356.811 172.738 357.323C183.66 357.901 198.614 357.774 202.153 355.783C203.555 354.994 207.143 352.916 207.192 351.971C207.192 351.971 204.496 352.073 204.131 352.017Z" fill="#F9F9F9"/>
<path d="M159.812 363.987L159.844 364.014C159.921 364.068 160.089 364.138 160.317 364.216C162.318 364.571 163.99 364.89 164.807 364.955C168.559 365.251 167.485 367.602 170.81 367.64L182.294 366.466C184.688 365.237 189.103 366.518 192.725 367.048C194.93 367.012 198.648 366.94 200.262 366.633C200.577 366.44 201.679 363.838 199.013 363.01C197.764 362.621 194.824 361.575 186.583 361.183C177.285 360.741 164.548 360.672 161.521 361.803C160.322 362.251 157.253 363.432 157.205 363.985C157.205 363.985 159.502 363.951 159.812 363.987Z" fill="#F9F9F9"/>
<path d="M187.631 378.346L187.573 378.327C187.553 378.336 187.534 378.346 187.514 378.355C186.958 378.401 186.415 378.48 185.883 378.579C185.051 378.442 184.291 378.017 183.33 378.05C183.065 377.919 182.762 377.798 182.429 377.688C179.984 377.606 177.546 377.481 175.043 377.481C173.76 377.481 172.487 377.813 171.218 377.964C171.215 377.965 171.213 377.966 171.21 377.967L171.209 377.965C171.052 377.983 170.895 377.999 170.739 378.011L170.582 378.088C170.392 378.177 170.26 378.368 170.26 378.589C170.26 378.81 170.392 379.001 170.582 379.09L171.01 379.3C172.13 381.392 176.334 381.082 178.418 381.082C179.124 381.082 179.805 381.017 180.47 380.913C183.127 380.975 185.91 380.849 187.891 379.514L187.954 379.638L188.396 379.421C188.446 379.42 188.496 379.42 188.546 379.42C188.546 379.42 189.109 379.42 189.109 378.866C189.109 378.312 188.546 378.312 188.546 378.312C188.469 378.312 188.392 378.312 188.316 378.314C188.299 378.312 188.282 378.312 188.265 378.312H187.702V378.341C187.678 378.342 187.654 378.344 187.631 378.346Z" fill="#D1997B"/>
<path d="M189.703 378.062C189.448 378.062 189.192 378.062 188.937 378.062C184.134 376.183 177.2 377.193 172.148 377.24C171.519 377.447 170.842 377.517 170.179 377.517L170.084 377.588L170.069 377.544L169.241 377.816C169.097 377.859 168.973 377.947 168.885 378.062C169.166 378.062 169.448 378.062 169.729 378.062C176.601 378.063 183.495 378.301 190.387 378.335L189.703 378.062Z" fill="#7F5D4B"/>
<path opacity="0.01" d="M194.936 324.877C194.288 324.646 193.636 324.424 192.98 324.21C190.675 324.037 188.332 323.987 185.983 324.041C189.058 324.476 192.054 324.786 194.936 324.877Z" fill="black"/>
<path opacity="0.01" fill-rule="evenodd" clip-rule="evenodd" d="M183.742 351.702C182.637 352.255 182.637 352.255 183.742 351.702V351.702Z" fill="black"/>
<path opacity="0.01" fill-rule="evenodd" clip-rule="evenodd" d="M182.913 364.135C185.188 364.619 187.122 365.725 188.715 367.45C191.072 364.51 190.243 362.852 186.228 362.477C185.171 361.554 185.171 360.725 186.228 359.99C187.095 356.444 185.852 354.234 182.498 353.359C181.367 354.265 181.09 355.37 181.669 356.675C182.516 357.383 183.207 358.212 183.742 359.162C183.539 360.861 183.263 362.519 182.913 364.135Z" fill="#101010"/>
<path opacity="0.01" fill-rule="evenodd" clip-rule="evenodd" d="M164.677 368.279C164.637 370.434 163.808 372.23 162.19 373.667C162.897 375.1 163.726 375.238 164.677 374.082C164.677 372.977 165.23 372.424 166.335 372.424C166.202 371.016 166.34 369.634 166.749 368.28C166.98 369.039 167.394 369.591 167.993 369.937C168.924 368.895 169.475 369.171 169.65 370.766C170.389 371.272 171.218 371.548 172.137 371.595C173.96 370.622 175.618 371.036 177.111 372.838C175.306 374.308 173.787 376.103 172.552 378.226C172.276 377.673 171.999 377.121 171.723 376.568C171.358 377.875 170.668 378.981 169.651 379.884C170.266 380.449 170.818 381.002 171.308 381.542C170.479 381.542 169.651 381.542 168.822 381.542C169.717 382.822 169.717 384.066 168.822 385.272C170.306 386.709 171.963 387.952 173.795 389.002C175.653 388.561 176.896 387.456 177.525 385.686C178.862 386.616 179.83 386.202 180.426 384.443C177.716 383.179 176.887 381.245 177.94 378.641C177.315 377.408 176.625 377.27 175.868 378.226C175.261 376.398 175.814 375.017 177.525 374.082C178.019 372.922 177.88 371.817 177.111 370.766C177.405 369.919 177.958 369.366 178.769 369.109C179.495 369.217 180.048 368.941 180.427 368.28C179.322 367.175 179.322 366.069 180.427 364.964C179.342 364.031 178.237 364.031 177.111 364.964C176.085 365.221 176.085 365.636 177.111 366.207C175.41 366.978 174.167 368.222 173.381 369.937C173.24 367.879 173.931 366.084 175.453 364.55C173.358 363.459 173.358 362.491 175.453 361.648C175.995 360.31 176.41 358.928 176.696 357.504C177.855 357.047 178.961 356.771 180.012 356.675C180.27 354.971 180.684 353.313 181.255 351.702C181 351.032 180.586 350.479 180.012 350.044C179.183 351.149 178.354 351.149 177.525 350.044C175.729 351.84 173.934 353.635 172.138 355.432C172.57 355.897 172.846 356.45 172.966 357.09C171.484 359.206 170.517 361.554 170.065 364.135C169.196 363.292 168.229 363.154 167.164 363.721C166.759 365.552 165.929 367.071 164.677 368.279ZM167.993 369.937C168.546 370.213 169.098 370.49 169.65 370.766C169.475 369.171 168.924 368.895 167.993 369.937ZM169.65 370.766C170.031 374.517 170.86 374.793 172.137 371.595C171.218 371.548 170.389 371.272 169.65 370.766ZM164.677 374.082C164.677 372.977 165.23 372.424 166.335 372.424C166.059 373.253 165.506 373.806 164.677 374.082ZM171.308 381.542C171.38 382.367 171.103 383.058 170.479 383.614C171.937 384.449 172.905 385.693 173.381 387.344C173.607 385.828 174.298 384.584 175.453 383.614C174.527 382.045 173.145 381.355 171.308 381.542Z" fill="#161616"/>
<path opacity="0.01" fill-rule="evenodd" clip-rule="evenodd" d="M186.228 359.991C186.975 361.837 188.356 362.666 190.373 362.477C190.373 361.649 190.373 360.82 190.373 359.991C188.831 359.517 187.449 359.517 186.228 359.991Z" fill="black"/>
<path opacity="0.01" fill-rule="evenodd" clip-rule="evenodd" d="M177.111 364.964C178.236 364.031 179.342 364.031 180.426 364.964C179.322 366.069 179.322 367.175 180.426 368.279C180.048 368.941 179.495 369.217 178.769 369.108C180.881 371.274 182.815 371.136 184.571 368.694C183.931 367.682 183.102 366.853 182.084 366.207C182.707 365.651 182.984 364.961 182.913 364.135C180.584 362.744 178.65 363.02 177.111 364.964Z" fill="#030303"/>
<path opacity="0.01" fill-rule="evenodd" clip-rule="evenodd" d="M163.848 368.28C164.124 368.28 164.401 368.28 164.677 368.28C164.401 366.069 164.124 366.069 163.848 368.28Z" fill="black"/>
<path opacity="0.01" fill-rule="evenodd" clip-rule="evenodd" d="M163.848 368.279C162.623 368.062 161.518 368.338 160.533 369.108C161.085 369.384 161.638 369.661 162.19 369.937C163.196 369.732 163.749 369.179 163.848 368.279Z" fill="black"/>
<path opacity="0.012" fill-rule="evenodd" clip-rule="evenodd" d="M169.651 370.766C170.031 374.517 170.86 374.793 172.137 371.595C171.218 371.548 170.389 371.272 169.651 370.766Z" fill="#484848"/>
<path opacity="0.016" fill-rule="evenodd" clip-rule="evenodd" d="M166.335 372.424C166.059 373.253 165.506 373.806 164.678 374.082C164.232 375.422 163.956 376.804 163.849 378.226C165.466 378.452 166.709 377.9 167.579 376.568C167.737 378.398 168.151 380.056 168.822 381.542C168.693 379.415 168.97 377.342 169.651 375.325C169.228 373.811 168.537 373.673 167.579 374.911C167.386 373.885 166.972 373.056 166.335 372.424Z" fill="#1E1E1E"/>
<path d="M173.516 366.577C172.832 366.353 164.959 364.511 164.184 364.222C162.73 363.86 159.301 364.866 158.338 363.376C156.604 360.694 152.669 346.157 152.213 345.628C150.694 343.865 156.468 366.064 158.938 368.632C160.617 370.377 164.309 371.032 165.292 371.767C167.857 373.294 171.659 373.57 173.938 373.686C178.297 373.906 186.767 374.366 190.205 373.476C195.928 371.994 201.002 366.777 203.671 364.908C203.809 364.811 213.032 352.657 213.468 352.172C213.802 351.799 212.185 352.199 212.185 352.199C212.185 352.199 199.401 365.198 198.597 365.156C198.597 365.156 195.622 365.631 190.594 365.015C190.594 365.015 177.34 367.625 173.516 366.577Z" fill="#D97E67"/>
<path d="M188.373 374.01C191.501 374.004 193.234 373.029 193.701 372.776C196.669 371.17 203.823 364.648 204.333 364.338C202.796 364.318 195.429 372.028 189.67 373.229C184.822 373.253 182.502 373.689 177.642 373.819C177.83 373.855 184.925 374.01 188.373 374.01Z" fill="#994F43"/>
<path d="M163.147 371.569C166.664 372.708 170.846 374.094 171.275 373.594C170.936 373.474 168.425 372.812 168.095 372.667C165.484 372.074 160.349 369.438 159.552 369.21C161.097 370.149 160.786 370.804 163.147 371.569Z" fill="#994F43"/>
<path d="M209.067 351.846C211.053 351.983 211.858 352.012 214.101 352.018C207.43 350.702 200.024 348.183 195.066 346.562C192.244 345.767 189.528 344.678 186.935 343.568C185.442 343.099 183.904 342.761 182.148 343.021C178.867 343.507 174.509 345.665 170.909 345.041C168.218 344.574 164.577 343.074 161.965 342.236C161.613 342.205 161.26 342.19 160.91 342.188C158.738 343.117 156.36 343.845 153.87 344.367C153.094 345.018 151.336 344.611 151.464 345.309C151.621 346.164 153.444 349.24 155.35 349.765C158.556 350.647 167.704 351.615 172.119 351.604C175.638 351.987 180.295 351.093 182.942 351.153C187.008 351.244 188.864 352.145 194.346 352.145C198.661 352.145 200.125 352.565 204.405 352.64L209.067 351.846Z" fill="#CD6B5B"/>
<path d="M183.471 342.234C181.998 342.359 174.586 344.116 173.189 344.57L172.531 344.785C169.559 343.718 166.597 342.599 163.578 341.61L163.252 341.463C162.99 341.288 162.693 341.241 162.434 341.247C162.178 341.234 161.883 341.271 161.613 341.433C158.973 342.48 156.374 343.533 153.611 344.435L152.674 344.677C152.674 344.677 151.809 344.903 151.881 345.452C155.41 344.709 158.631 343.675 162.33 342.333C165.158 343.067 169.057 345.659 171.975 345.832C175.774 346.057 179.839 343.743 183.36 343.293C185.371 343.037 187.44 344.15 189.259 344.546C193.956 346.079 202.764 350.17 208.754 350.88C208.599 350.748 186.771 341.371 183.471 342.234Z" fill="#994F43"/>
<path d="M191.774 365.317C198.907 365.903 199.629 365.077 199.629 365.077C199.629 365.077 192.528 364.941 192.453 364.948C180.25 366.071 179.813 367.206 171.879 366.253C170.16 365.831 164.296 364.008 164.277 364.006C163.786 364.166 155.788 364.27 157.861 364.598C158.572 364.711 162.055 364.958 164.256 365.233C164.256 365.233 170.872 367.168 172.779 367.345C180.527 368.061 191.774 365.317 191.774 365.317Z" fill="#994F43"/>
<path d="M160.142 350.45C161.899 351.082 171.246 352.07 173.089 352.522C181.211 353.535 186.49 351.289 186.49 351.289C198.907 354.521 213.392 352.256 214.289 352.128C214.489 352.1 208.02 351.842 206.782 351.79C202.584 351.614 196.761 352.366 194.656 351.578C192.955 351.376 186.312 350.382 186.237 350.39C182.39 350.421 176.917 351.112 172.669 351.156C168.246 351.203 169.088 350.593 165.041 350.106C163.323 349.685 158.701 348.656 158.682 348.654C158.422 348.739 156.202 350.053 154.799 349.401C152.872 348.506 151.97 346.603 151.97 346.603C151.97 346.603 152.001 350.061 156.175 351.204L160.142 350.45Z" fill="#994F43"/>
</svg>