<svg xmlns="http://www.w3.org/2000/svg" fill="none" viewBox="142 325.98 82.08 71.92">
<path d="M145.09 355.729C146.709 363.711 150.32 377.736 153.272 385.294C153.786 386.611 154.184 388.11 154.513 389.702C170.07 397.796 191.191 400.686 207.16 394.744C220.442 382.688 228.305 358.949 221.694 343.258C221.093 341.832 220.391 340.512 219.601 339.291C211.84 334.7 203.723 329.996 194.842 326.835C191.961 326.745 188.965 326.435 185.89 326C174.368 326.265 162.734 329.027 154.965 331.891C152.552 332.724 150.296 333.746 148.163 334.923C146.353 336.709 144.486 338.423 142.434 339.815C142.932 344.553 143.513 349.424 145.09 355.729Z" fill="#E1A585"/>
<path d="M142.265 348.25C144.721 360.784 151.119 376.451 153.605 389C153.605 389 152.218 375.448 149.925 368.737C147.172 360.477 146.33 351.958 143.637 343.583C143.637 342.124 143.504 340.663 143.302 339.2C142.876 339.515 142.442 339.817 142 340.103C142.139 342.812 142.254 345.527 142.265 348.25Z" fill="#7F5D4B"/>
<path d="M160.857 363.963C167.212 369.615 165.138 367.465 176.19 367.465C197.645 367.465 207.33 353.937 207.33 353.937C207.33 353.937 197.645 351.457 176.19 351.457C154.736 351.457 154.247 347.264 154.247 347.264C154.247 347.264 153.596 348.691 153.691 351.22C153.901 356.792 156.743 360.305 160.857 363.963Z" fill="#482520"/>
<path d="M186.905 377.541L186.847 377.522C186.827 377.532 186.808 377.541 186.788 377.55C186.231 377.596 185.689 377.675 185.157 377.775C184.325 377.638 183.565 377.212 182.604 377.245C182.339 377.115 182.036 376.994 181.702 376.884C179.258 376.802 176.82 376.676 174.317 376.676C173.034 376.676 171.761 377.008 170.492 377.159C170.489 377.16 170.487 377.161 170.484 377.163L170.483 377.16C170.326 377.179 170.169 377.194 170.012 377.206L169.856 377.284C169.666 377.372 169.534 377.563 169.534 377.784C169.534 378.005 169.666 378.196 169.856 378.285L170.284 378.496C171.404 380.587 175.608 380.277 177.692 380.277C178.398 380.277 179.079 380.212 179.744 380.108C182.401 380.171 185.184 380.044 187.165 378.709L187.228 378.834L187.67 378.616C187.72 378.615 187.77 378.615 187.82 378.615C187.82 378.615 188.383 378.615 188.383 378.061C188.383 377.507 187.82 377.507 187.82 377.507C187.743 377.507 187.666 377.508 187.589 377.509C187.573 377.508 187.556 377.507 187.539 377.507H186.976V377.536C186.952 377.538 186.928 377.54 186.905 377.541Z" fill="#D1997B"/>
<path d="M188.977 377.258C188.722 377.258 188.466 377.258 188.211 377.258C183.408 375.379 176.474 376.388 171.422 376.436C170.793 376.642 170.116 376.713 169.453 376.713L169.358 376.784L169.343 376.739L168.515 377.011C168.371 377.055 168.247 377.142 168.159 377.258C168.44 377.258 168.722 377.258 169.003 377.258C175.875 377.258 182.769 377.497 189.661 377.531L188.977 377.258Z" fill="#7F5D4B"/>
<path opacity="0.01" d="M194.843 326.836C194.195 326.605 193.543 326.383 192.887 326.169C190.582 325.996 188.238 325.946 185.89 326C188.965 326.435 191.961 326.745 194.843 326.836Z" fill="black"/>
<path opacity="0.01" fill-rule="evenodd" clip-rule="evenodd" d="M183.648 353.661C182.544 354.214 182.544 354.214 183.648 353.661V353.661Z" fill="black"/>
<path opacity="0.01" fill-rule="evenodd" clip-rule="evenodd" d="M182.819 366.094C185.095 366.578 187.029 367.684 188.622 369.409C190.979 366.469 190.15 364.811 186.135 364.436C185.077 363.513 185.077 362.684 186.135 361.949C187.002 358.403 185.759 356.193 182.405 355.318C181.273 356.224 180.997 357.329 181.576 358.634C182.423 359.342 183.114 360.171 183.648 361.121C183.446 362.82 183.17 364.477 182.819 366.094Z" fill="#101010"/>
<path opacity="0.01" fill-rule="evenodd" clip-rule="evenodd" d="M164.584 370.238C164.543 372.393 163.714 374.189 162.097 375.626C162.803 377.059 163.632 377.197 164.584 376.041C164.584 374.936 165.137 374.383 166.242 374.383C166.109 372.975 166.247 371.593 166.656 370.239C166.887 370.998 167.301 371.55 167.899 371.896C168.83 370.854 169.382 371.13 169.557 372.725C170.296 373.231 171.125 373.507 172.044 373.554C173.867 372.581 175.524 372.995 177.017 374.797C175.213 376.267 173.693 378.062 172.458 380.185C172.182 379.632 171.906 379.08 171.63 378.527C171.265 379.834 170.574 380.94 169.557 381.843C170.173 382.408 170.725 382.961 171.215 383.501C170.386 383.501 169.557 383.501 168.729 383.501C169.624 384.781 169.624 386.025 168.729 387.231C170.212 388.668 171.87 389.911 173.702 390.961C175.559 390.52 176.803 389.415 177.432 387.645C178.769 388.575 179.736 388.161 180.333 386.402C177.623 385.138 176.794 383.204 177.846 380.6C177.222 379.367 176.532 379.229 175.774 380.185C175.168 378.357 175.72 376.976 177.432 376.041C177.925 374.881 177.787 373.776 177.018 372.725C177.312 371.878 177.865 371.325 178.676 371.068C179.402 371.176 179.955 370.9 180.333 370.239C179.228 369.134 179.228 368.028 180.333 366.923C179.249 365.99 178.143 365.99 177.018 366.923C175.991 367.18 175.991 367.595 177.018 368.166C175.317 368.937 174.073 370.181 173.288 371.896C173.147 369.838 173.838 368.043 175.36 366.509C173.264 365.418 173.264 364.45 175.36 363.607C175.902 362.269 176.316 360.887 176.603 359.463C177.762 359.006 178.868 358.73 179.919 358.634C180.177 356.93 180.591 355.272 181.162 353.661C180.907 352.991 180.492 352.438 179.919 352.003C179.09 353.108 178.261 353.108 177.432 352.003C175.636 353.799 173.841 355.594 172.044 357.391C172.477 357.856 172.753 358.409 172.873 359.049C171.391 361.165 170.424 363.513 169.972 366.094C169.103 365.251 168.135 365.113 167.071 365.68C166.666 367.511 165.836 369.03 164.584 370.238ZM167.899 371.896C168.452 372.172 169.004 372.449 169.557 372.725C169.382 371.13 168.83 370.854 167.899 371.896ZM169.557 372.725C169.938 376.476 170.767 376.752 172.044 373.554C171.125 373.507 170.296 373.231 169.557 372.725ZM164.584 376.041C164.584 374.936 165.137 374.383 166.242 374.383C165.966 375.212 165.413 375.765 164.584 376.041ZM171.215 383.501C171.286 384.326 171.009 385.016 170.386 385.573C171.844 386.408 172.811 387.652 173.287 389.303C173.513 387.787 174.205 386.543 175.359 385.573C174.434 384.004 173.052 383.314 171.215 383.501Z" fill="#161616"/>
<path opacity="0.01" fill-rule="evenodd" clip-rule="evenodd" d="M186.135 361.95C186.882 363.796 188.263 364.625 190.279 364.436C190.279 363.608 190.279 362.779 190.279 361.95C188.738 361.476 187.356 361.476 186.135 361.95Z" fill="black"/>
<path opacity="0.01" fill-rule="evenodd" clip-rule="evenodd" d="M177.018 366.923C178.143 365.99 179.249 365.99 180.333 366.923C179.228 368.028 179.228 369.134 180.333 370.238C179.954 370.9 179.401 371.176 178.675 371.067C180.787 373.233 182.722 373.095 184.478 370.653C183.838 369.641 183.009 368.812 181.991 368.166C182.614 367.61 182.891 366.92 182.82 366.094C180.49 364.703 178.557 364.979 177.018 366.923Z" fill="#030303"/>
<path opacity="0.01" fill-rule="evenodd" clip-rule="evenodd" d="M163.755 370.239C164.031 370.239 164.308 370.239 164.584 370.239C164.308 368.028 164.031 368.028 163.755 370.239Z" fill="black"/>
<path opacity="0.01" fill-rule="evenodd" clip-rule="evenodd" d="M163.755 370.238C162.53 370.021 161.425 370.297 160.439 371.067C160.992 371.343 161.544 371.62 162.097 371.896C163.103 371.691 163.655 371.138 163.755 370.238Z" fill="black"/>
<path opacity="0.012" fill-rule="evenodd" clip-rule="evenodd" d="M169.557 372.725C169.938 376.476 170.767 376.752 172.044 373.554C171.125 373.507 170.296 373.231 169.557 372.725Z" fill="#484848"/>
<path opacity="0.016" fill-rule="evenodd" clip-rule="evenodd" d="M166.242 374.383C165.966 375.212 165.413 375.765 164.584 376.041C164.138 377.381 163.862 378.763 163.755 380.185C165.373 380.411 166.616 379.859 167.485 378.527C167.644 380.357 168.058 382.015 168.729 383.501C168.599 381.374 168.876 379.301 169.558 377.284C169.135 375.77 168.444 375.632 167.485 376.869C167.293 375.844 166.879 375.015 166.242 374.383Z" fill="#1E1E1E"/>
<path d="M184.173 360.201C169.836 353.408 166.428 359.616 159.854 358.192C154.4 358.192 155.138 353.415 153.935 351.775C152.498 349.817 152.869 361.104 155.205 363.956C156.793 365.895 160.122 367.26 161.052 368.076C163.478 369.772 168.909 368.567 171.971 368.908C177.725 369.549 181.13 371.275 186.249 370.512C194.097 368.232 203.445 363.439 207.892 355.165C207.892 355.165 208.416 355.129 207.893 354.209C202.27 355.081 198.275 362.229 184.173 360.201Z" fill="#D97E67"/>
<path d="M199.929 352.224L199.893 352.169C199.809 352.061 199.627 351.923 199.378 351.769C197.206 351.092 195.39 350.482 194.505 350.37C190.436 349.852 179.47 347.763 175.867 347.763L175.54 347.694C172.961 350.248 168.162 347.744 164.232 346.747C161.843 346.87 157.815 347.103 156.071 347.763C155.731 348.164 154.57 353.48 157.468 355.105C158.826 355.867 162.024 357.928 170.957 358.537C181.037 359.225 194.837 359.073 198.103 356.705C199.397 355.766 202.708 353.294 202.753 352.169C202.753 352.169 200.265 352.291 199.929 352.224Z" fill="#F9F9F9"/>
<path d="M205.9 353.769C207.78 353.921 208.543 353.954 210.666 353.96C204.351 352.497 197.34 349.697 192.646 347.896C189.975 347.011 187.404 345.801 184.949 344.568C183.536 344.046 182.079 343.67 180.417 343.959C177.311 344.499 173.186 346.898 169.778 346.204C167.231 345.686 163.784 344.019 161.31 343.088C160.977 343.053 160.644 343.036 160.312 343.034C158.255 344.066 156.004 344.875 153.648 345.456C152.913 346.179 151.248 345.727 151.37 346.503C151.519 347.453 153.244 350.873 155.048 351.456C158.084 352.437 166.744 353.512 170.923 353.5C174.254 353.926 178.663 352.933 181.169 352.999C185.018 353.1 186.775 354.102 191.965 354.102C196.05 354.102 197.435 354.569 201.487 354.652L205.9 353.769Z" fill="#CD6B5B"/>
<path d="M181.669 343.085C180.275 343.223 173.259 345.177 171.936 345.681L171.313 345.92C168.499 344.734 165.696 343.491 162.838 342.391L162.529 342.227C162.281 342.033 162 341.981 161.754 341.987C161.513 341.973 161.233 342.014 160.978 342.194C158.478 343.358 156.018 344.528 153.402 345.531L152.516 345.8C152.516 345.8 151.697 346.051 151.765 346.662C155.105 345.836 158.154 344.686 161.657 343.195C164.333 344.01 168.025 346.892 170.786 347.084C174.384 347.335 178.231 344.762 181.565 344.262C183.468 343.977 185.427 345.214 187.149 345.654C191.596 347.359 199.934 351.906 205.604 352.695C205.458 352.549 184.793 342.125 181.669 343.085Z" fill="#994F43"/>
<path d="M159.585 352.217C161.249 352.92 170.097 354.018 171.842 354.52C179.531 355.646 184.528 353.149 184.528 353.149C196.283 356.743 209.995 354.225 210.844 354.083C211.034 354.051 204.91 353.765 203.738 353.707C199.763 353.511 194.252 354.347 192.259 353.471C190.648 353.247 184.36 352.142 184.289 352.15C180.647 352.185 175.465 352.953 171.444 353.002C167.257 353.054 168.054 352.376 164.223 351.835C162.596 351.367 158.222 350.222 158.203 350.221C157.957 350.315 155.855 351.776 154.527 351.051C152.703 350.056 151.849 347.94 151.849 347.94C151.849 347.94 151.879 351.785 155.83 353.055L159.585 352.217Z" fill="#994F43"/>
<path d="M172.268 369.881L175.042 370.532C178.265 370.995 179.197 371.399 182.458 371.399C185.943 371.392 190.153 371.009 193.083 369.147C195.891 367.364 197.696 365.265 200.572 364.337C201.019 363.991 201.481 363.648 201.964 363.304C200.51 363.281 199.099 363.369 198.026 363.901C193.327 366.231 190.602 369.198 185.155 370.532C180.569 370.559 176.369 369.003 171.773 369.147C168.949 369.147 172.268 369.881 172.268 369.881Z" fill="#994F43"/>
<path d="M156.679 366.144L157.195 366.392C159.544 367.593 161.762 369.008 164.845 369.513C164.845 369.513 168.576 369.098 168.993 368.756C168.338 368.559 166.279 368.669 164.159 368.6C161.303 367.623 159.645 366.998 158.398 365.807C157.921 365.547 155.712 363.315 155.331 363.032C154.832 363.42 156.137 365.734 156.679 366.144Z" fill="#994F43"/>
</svg>