<svg xmlns="http://www.w3.org/2000/svg" fill="none" viewBox="141 322 82.08 71.9">
<path d="M144.09 351.729C145.709 359.711 149.32 373.736 152.272 381.294C152.786 382.611 153.184 384.11 153.513 385.702C169.07 393.796 190.191 396.686 206.16 390.744C219.442 378.688 227.305 354.949 220.694 339.258C220.093 337.832 219.391 336.512 218.601 335.291C210.84 330.7 202.723 325.996 193.842 322.835C190.961 322.745 187.965 322.435 184.89 322C173.368 322.265 161.734 325.027 153.965 327.891C151.552 328.724 149.296 329.746 147.163 330.923C145.353 332.708 143.486 334.423 141.434 335.815C141.932 340.553 142.513 345.424 144.09 351.729Z" fill="#E1A585"/>
<path d="M141.265 344.25C143.721 356.784 150.119 372.451 152.605 385C152.605 385 151.218 371.448 148.925 364.737C146.172 356.477 145.33 347.958 142.637 339.583C142.637 338.124 142.504 336.663 142.302 335.2C141.876 335.515 141.442 335.817 141 336.103C141.139 338.812 141.254 341.527 141.265 344.25Z" fill="#7F5D4B"/>
<path d="M161.258 368.434C167.613 374.085 164.601 370.837 175.653 370.837C183.184 370.837 189.672 374.253 194.583 370.143C200.688 365.033 210.438 348.403 210.438 348.403C210.438 348.403 198.885 347.478 177.43 347.478C155.976 347.478 155.488 343.284 155.488 343.284C155.488 343.284 154.836 344.711 154.931 347.241C155.142 352.812 157.144 364.775 161.258 368.434Z" fill="#482520"/>
<path d="M175.535 371.862L176.391 372.093C178.861 372.094 180.628 371.929 182.649 370.499C184.024 370.562 185.779 370.843 187.592 371.018C187.947 371.073 188.312 371.104 188.686 371.108C192.267 371.343 195.817 370.921 196.875 367.386C196.907 367.305 196.92 367.226 196.925 367.159C196.933 367.074 196.931 366.964 196.892 366.854C195.823 361.693 189.953 357.728 185.77 354.783C179.542 351.278 170.323 349.701 167.131 357.37C167.06 363.179 168.774 370.326 175.219 371.673C175.363 371.808 175.535 371.862 175.535 371.862Z" fill="#B65E50"/>
<path d="M177.619 361.844C177.668 361.883 180.764 365.281 183.609 367.393C185.54 368.827 187.581 369.246 187.605 369.254C190.284 369.444 191.702 369.946 194.002 368.819C194.366 368.64 195.14 367.461 195.474 367.26C195.491 367.208 195.507 367.155 195.522 367.102C194.661 362.408 188.728 358.5 184.986 355.858C179.724 352.882 171.377 351.071 168.495 357.608C168.579 363.13 170.089 370.624 177.401 370.588C178.254 370.593 178.949 370.449 179.722 369.926C181.621 368.64 177.662 362.046 177.619 361.844Z" fill="#C36556"/>
<path d="M178.863 367.46C178.862 367.484 178.859 367.511 178.854 367.54C178.799 368.262 178.674 368.967 178.419 369.642C178.44 369.678 178.466 369.709 178.499 369.737C178.769 369.964 179.222 369.966 179.735 369.858C179.811 369.917 179.923 369.954 180.079 369.9C180.207 369.855 180.274 369.781 180.307 369.703C181.158 369.431 182.044 368.991 182.476 368.842C182.777 368.731 183.064 368.556 183.291 368.33L183.845 368.139C184.044 368.07 184.149 367.853 184.08 367.654C184.075 367.637 184.068 367.621 184.06 367.605C184.155 367.593 184.26 367.54 184.332 367.392C184.499 367.049 184.156 366.883 184.156 366.883L183.763 366.713C183.394 366.664 183.008 366.541 182.627 366.359C182.258 365.933 181.934 365.508 181.621 365.083C180.603 364.408 179.68 363.519 178.839 362.397C178.73 364.011 178.957 365.695 178.869 367.304C178.868 367.356 178.866 367.409 178.863 367.46ZM179.52 367.859C179.57 368.309 179.578 368.762 179.515 369.22C179.337 369.255 179.184 369.263 179.069 369.231C178.591 369.1 179.251 368.429 179.52 367.859Z" fill="#AD594C"/>
<path d="M179.998 365.49C180.03 365.595 180.068 365.693 180.111 365.782C180.079 364.312 179.79 362.947 179.218 361.467C178.574 359.802 176.964 358.664 176.435 357.196C175.99 359.857 178.932 364.031 179.998 365.49Z" fill="#B65E50"/>
<path d="M188.779 382.811L188.721 382.791C188.701 382.801 188.682 382.811 188.662 382.82C188.105 382.865 187.563 382.945 187.031 383.044C186.199 382.907 185.439 382.482 184.478 382.515C184.213 382.384 183.91 382.263 183.576 382.153C181.132 382.071 178.694 381.946 176.191 381.946C174.908 381.946 173.635 382.278 172.366 382.428C172.363 382.43 172.361 382.431 172.358 382.432L172.357 382.43C172.2 382.448 172.043 382.464 171.886 382.476L171.73 382.553C171.54 382.642 171.408 382.833 171.408 383.054C171.408 383.275 171.54 383.466 171.73 383.555L172.158 383.765C173.278 385.857 177.482 385.546 179.566 385.546C180.272 385.546 180.953 385.482 181.618 385.378C184.275 385.44 187.058 385.314 189.039 383.979L189.102 384.103L189.544 383.885C189.594 383.885 189.644 383.884 189.694 383.884C189.694 383.884 190.257 383.884 190.257 383.331C190.257 382.777 189.694 382.777 189.694 382.777C189.617 382.777 189.54 382.777 189.463 382.779C189.447 382.777 189.43 382.777 189.413 382.777H188.85V382.806C188.826 382.807 188.802 382.809 188.779 382.811Z" fill="#D1997B"/>
<path d="M190.851 382.527C190.596 382.527 190.34 382.527 190.085 382.527C185.282 380.648 178.348 381.658 173.296 381.705C172.667 381.912 171.99 381.982 171.327 381.982L171.232 382.053L171.217 382.009L170.389 382.281C170.245 382.324 170.121 382.412 170.033 382.527C170.314 382.527 170.596 382.527 170.877 382.527C177.749 382.528 184.643 382.766 191.535 382.8L190.851 382.527Z" fill="#7F5D4B"/>
<path d="M203.467 349.574L203.43 349.526C203.342 349.432 203.153 349.311 202.894 349.176C200.63 348.585 198.738 348.051 197.816 347.953C193.577 347.5 182.151 345.674 178.397 345.674L178.056 345.613C175.369 347.847 170.369 345.657 166.274 344.785C163.786 344.893 159.589 345.096 157.772 345.674C157.418 346.024 156.208 350.672 159.227 352.093C160.642 352.76 163.974 354.562 173.282 355.094C183.783 355.695 198.162 355.563 201.565 353.492C202.913 352.671 206.363 350.51 206.41 349.526C206.41 349.526 203.817 349.632 203.467 349.574Z" fill="#F9F9F9"/>
<path d="M162.052 368.829L162.078 368.851C162.138 368.895 162.269 368.95 162.448 369.011C163.996 369.252 165.29 369.472 165.919 369.5C168.809 369.631 176.607 370.281 179.16 370.201L179.393 370.223C181.186 369.075 184.619 370.038 187.417 370.377C189.108 370.272 191.959 370.083 193.186 369.762C193.422 369.583 194.173 367.287 192.099 366.657C191.126 366.361 188.832 365.552 182.495 365.489C175.344 365.419 165.567 365.79 163.285 366.874C162.381 367.303 160.068 368.433 160.051 368.914C160.051 368.914 161.813 368.807 162.052 368.829Z" fill="#F9F9F9"/>
<path opacity="0.01" d="M196.083 322.856C195.435 322.626 194.783 322.403 194.127 322.19C191.822 322.016 189.479 321.967 187.131 322.021C190.205 322.455 193.201 322.765 196.083 322.856Z" fill="black"/>
<path opacity="0.01" fill-rule="evenodd" clip-rule="evenodd" d="M184.889 349.681C183.784 350.234 183.784 350.234 184.889 349.681V349.681Z" fill="black"/>
<path opacity="0.01" fill-rule="evenodd" clip-rule="evenodd" d="M184.06 362.114C186.335 362.598 188.269 363.704 189.862 365.43C192.219 362.489 191.39 360.831 187.375 360.457C186.318 359.533 186.318 358.704 187.375 357.97C188.242 354.423 186.999 352.213 183.645 351.339C182.514 352.245 182.237 353.35 182.816 354.654C183.663 355.362 184.354 356.191 184.889 357.141C184.686 358.84 184.41 360.498 184.06 362.114Z" fill="#101010"/>
<path opacity="0.01" fill-rule="evenodd" clip-rule="evenodd" d="M165.824 366.259C165.783 368.413 164.955 370.209 163.337 371.647C164.044 373.079 164.873 373.218 165.824 372.061C165.824 370.956 166.377 370.403 167.482 370.403C167.349 368.995 167.487 367.613 167.896 366.259C168.127 367.018 168.541 367.57 169.14 367.917C170.07 366.875 170.622 367.151 170.797 368.746C171.536 369.251 172.365 369.527 173.284 369.575C175.107 368.601 176.765 369.016 178.257 370.818C176.453 372.288 174.934 374.083 173.699 376.206C173.423 375.653 173.146 375.101 172.87 374.548C172.505 375.854 171.814 376.96 170.798 377.864C171.413 378.429 171.965 378.982 172.455 379.521C171.626 379.521 170.798 379.521 169.969 379.521C170.864 380.802 170.864 382.045 169.969 383.251C171.452 384.689 173.11 385.932 174.942 386.981C176.8 386.54 178.043 385.435 178.672 383.666C180.009 384.596 180.977 384.181 181.573 382.422C178.863 381.158 178.034 379.225 179.087 376.62C178.462 375.388 177.772 375.249 177.015 376.206C176.408 374.377 176.961 372.996 178.672 372.061C179.166 370.902 179.027 369.797 178.258 368.746C178.552 367.899 179.105 367.346 179.916 367.088C180.642 367.197 181.195 366.921 181.574 366.259C180.469 365.154 180.469 364.049 181.574 362.944C180.489 362.01 179.384 362.01 178.258 362.944C177.232 363.201 177.232 363.615 178.258 364.187C176.557 364.958 175.314 366.201 174.528 367.917C174.387 365.859 175.078 364.063 176.6 362.529C174.505 361.438 174.505 360.471 176.6 359.628C177.142 358.289 177.557 356.908 177.843 355.483C179.002 355.027 180.108 354.751 181.159 354.655C181.417 352.951 181.831 351.293 182.402 349.681C182.147 349.011 181.733 348.459 181.159 348.023C180.33 349.128 179.501 349.128 178.672 348.023C176.876 349.82 175.081 351.615 173.285 353.411C173.717 353.876 173.993 354.429 174.113 355.069C172.631 357.185 171.664 359.533 171.212 362.115C170.343 361.272 169.376 361.133 168.311 361.7C167.906 363.531 167.076 365.05 165.824 366.259ZM169.14 367.917C169.692 368.193 170.245 368.47 170.797 368.746C170.622 367.151 170.07 366.875 169.14 367.917ZM170.797 368.746C171.178 372.496 172.007 372.772 173.284 369.575C172.365 369.527 171.536 369.251 170.797 368.746ZM165.824 372.061C165.824 370.956 166.377 370.403 167.482 370.403C167.206 371.232 166.653 371.785 165.824 372.061ZM172.455 379.521C172.527 380.347 172.25 381.037 171.626 381.593C173.084 382.429 174.052 383.672 174.527 385.323C174.754 383.807 175.445 382.564 176.6 381.593C175.674 380.025 174.292 379.335 172.455 379.521Z" fill="#161616"/>
<path opacity="0.01" fill-rule="evenodd" clip-rule="evenodd" d="M187.375 357.97C188.122 359.816 189.503 360.645 191.52 360.457C191.52 359.628 191.52 358.799 191.52 357.97C189.978 357.497 188.596 357.497 187.375 357.97Z" fill="black"/>
<path opacity="0.01" fill-rule="evenodd" clip-rule="evenodd" d="M178.258 362.943C179.383 362.01 180.489 362.01 181.573 362.943C180.469 364.048 180.469 365.154 181.573 366.259C181.195 366.92 180.642 367.196 179.916 367.088C182.028 369.254 183.962 369.115 185.718 366.673C185.078 365.661 184.249 364.832 183.231 364.187C183.854 363.631 184.131 362.94 184.06 362.115C181.731 360.724 179.797 361 178.258 362.943Z" fill="#030303"/>
<path opacity="0.01" fill-rule="evenodd" clip-rule="evenodd" d="M164.995 366.259C165.271 366.259 165.548 366.259 165.824 366.259C165.548 364.048 165.271 364.048 164.995 366.259Z" fill="black"/>
<path opacity="0.01" fill-rule="evenodd" clip-rule="evenodd" d="M164.995 366.259C163.77 366.042 162.665 366.318 161.68 367.088C162.232 367.364 162.785 367.641 163.337 367.916C164.343 367.712 164.896 367.159 164.995 366.259Z" fill="black"/>
<path opacity="0.012" fill-rule="evenodd" clip-rule="evenodd" d="M170.797 368.746C171.178 372.496 172.007 372.772 173.284 369.574C172.365 369.527 171.536 369.251 170.797 368.746Z" fill="#484848"/>
<path opacity="0.016" fill-rule="evenodd" clip-rule="evenodd" d="M167.482 370.403C167.206 371.232 166.653 371.785 165.825 372.061C165.379 373.401 165.102 374.783 164.996 376.206C166.613 376.432 167.856 375.88 168.726 374.548C168.884 376.378 169.298 378.036 169.969 379.521C169.84 377.394 170.117 375.322 170.798 373.304C170.375 371.791 169.684 371.653 168.726 372.89C168.533 371.865 168.119 371.036 167.482 370.403Z" fill="#1E1E1E"/>
<path d="M202.332 347.048L202.297 346.994C202.216 346.888 202.039 346.752 201.797 346.599C199.688 345.934 197.924 345.333 197.064 345.222C193.112 344.713 182.462 342.656 178.962 342.656L178.644 342.588C176.14 345.103 171.479 342.637 167.662 341.656C167.382 341.67 167.104 341.688 166.829 341.708C168.369 343.851 169.391 346.389 169.684 349.34C169.739 349.893 169.974 353.657 169.831 354.168C170.686 354.487 172.266 354.564 173.473 354.247C174.355 354.015 175.331 353.141 175.384 352.972C177.312 354.527 183.761 354.087 184.072 352.35C185.408 353.314 187.848 353.968 189.534 353.361C190.037 353.173 191.289 352.868 191.605 352.526C191.824 352.291 191.706 351.443 191.905 351.69C192.204 352.063 193.643 354.58 194.239 354.617C195.325 354.684 197.387 352.423 197.547 351.27C198.326 351.926 199.421 353.15 200.829 352.461C201.221 352.269 201.034 351.651 201.462 351.51C202.437 351.189 203.637 352.203 203.878 350.744C204.051 349.693 202.612 348.502 202.656 347.395C202.656 347.395 202.658 347.113 202.332 347.048Z" fill="#F9F9F9"/>
<path d="M169.399 344.444C172.515 344.464 173.543 347.861 173.798 350.33C174.138 350.874 174.46 351.429 174.715 351.975C174.805 351.875 174.806 351.757 174.806 351.757L174.81 351.28C174.829 349.087 174.569 344.736 178.567 344.73C181.954 343.257 182.891 348.315 183.552 350.711C183.552 350.753 183.552 350.796 183.552 350.837C183.758 351.221 183.941 351.606 184.075 351.97C184.225 351.378 184.45 350.794 184.724 350.223C185.294 347.469 186.9 342.828 189.275 346.518C190.28 347.998 189.886 349.826 190.798 351.3L191.094 351.76C191.128 351.832 191.196 351.912 191.33 351.953C191.382 351.974 191.445 351.988 191.516 351.987C191.656 351.605 191.818 351.185 192.009 350.771C192.08 347.764 192.525 342.878 195.813 347.971C195.825 347.994 195.839 348.019 195.859 348.042C196.323 348.778 196.531 349.435 196.624 350.147C196.691 350.119 196.769 350.103 196.852 350.104C197.039 350.105 197.2 350.189 197.274 350.311L197.578 350.783L197.452 350.831C197.512 350.91 197.566 350.989 197.615 351.068C197.622 349.849 197.418 348.87 196.714 347.749C196.697 345.563 198.063 346.959 199.071 348.686C199.193 348.69 199.302 348.73 199.382 348.792L200.003 349.273L199.84 349.396C200.642 350.194 200.761 351.193 200.757 352.256C201.054 352.183 201.056 351.92 201.056 351.92L201.06 351.442C201.048 350.589 200.681 349.091 200.064 347.855C202.36 346.412 202.677 349.182 203.58 350.586L203.564 350.981C203.564 350.981 203.561 351.338 204.03 351.341C204.087 351.342 204.138 351.337 204.182 351.328C204.447 351.412 204.675 351.241 204.675 351.241C206.056 350.196 205.904 348.906 206.372 347.892C202.164 347.011 198.637 345.425 197.065 345.222C193.113 344.713 182.462 342.657 178.963 342.657L178.645 342.588C175.908 345.337 170.594 342.136 166.622 341.426C167.345 342.388 167.963 343.432 168.454 344.56C168.738 344.479 169.052 344.438 169.399 344.444Z" fill="#F9F9F9"/>
<path d="M174.16 375.421C174.384 375.212 174.582 374.962 174.754 374.68C174.795 374.809 174.84 374.924 174.89 375.026C175.167 375.593 175.673 376.206 176.253 376.541C176.622 376.612 177.008 376.686 177.405 376.762C177.649 376.705 177.89 376.571 178.118 376.342L177.993 376.543C177.993 376.543 178.458 376.582 178.493 376.202C178.498 376.14 178.491 376.087 178.474 376.042C179.566 375.339 180.126 374.186 180.314 372.992C181.158 375.705 185.128 377.217 185.62 373.35C185.8 373.311 185.901 373.175 185.901 373.175C187.672 370.703 184.859 365.605 181.232 368.263C180.71 368.646 180.712 370.38 180.349 371.322C180.323 371.093 180.286 370.87 180.238 370.656C180.068 369.898 181.043 368.429 179.974 367.848C179.28 367.47 177.77 367.86 176.924 367.789C176.112 367.76 175.525 368.344 175.131 369.202C174.525 367.786 173.263 366.963 171.285 367.85C171.027 369.155 170.695 370.434 170.294 371.685C170.135 372.222 169.985 372.769 169.844 373.325C169.957 374.361 170.272 375.27 170.96 375.761C171.767 375.845 172.541 375.932 173.266 376.028C173.522 375.968 173.797 375.886 174.091 375.778L174.16 375.421Z" fill="#F9F9F9"/>
<path d="M190.781 370.394C189.945 368.672 188.55 366.869 187.013 367.421C186.747 367.517 185.739 372.203 185.679 372.73C185.286 377.008 190.273 377.242 191.165 373.63C191.482 374.066 191.866 374.47 192.269 374.791C193.565 373.506 194.723 372.007 195.853 370.66C194.281 369.691 192.174 369.308 190.781 370.394Z" fill="#F9F9F9"/>
<path d="M191.842 373.078L191.582 372.554C191.519 372.419 191.367 372.317 191.182 372.301C190.925 372.28 190.702 372.432 190.683 372.641C190.677 372.705 190.69 372.767 190.72 372.822L190.856 373.097C190.378 375.462 187.369 376.999 185.854 373.879L185.635 373.163C185.591 373.003 185.425 372.875 185.216 372.858C184.961 372.836 184.74 372.985 184.717 373.192L184.654 373.738C183.43 375.639 181.829 376.054 180.573 373.403L180.314 372.879C180.251 372.745 180.099 372.643 179.914 372.627C179.657 372.605 179.433 372.758 179.414 372.967L179.369 373.462C178.343 375.135 176.53 376.547 175.62 373.654L175.651 373.152C175.665 372.946 175.474 372.763 175.22 372.742C175.035 372.726 174.867 372.801 174.78 372.923L174.429 373.396C172.629 374.657 170.068 376.158 170.384 372.717L170.453 371.958C170.464 371.839 170.406 371.726 170.306 371.647C170.302 371.66 170.298 371.672 170.294 371.685C170.131 372.233 169.979 372.791 169.835 373.36C169.776 374.099 169.704 374.861 169.617 375.625C171.078 375.771 172.463 375.911 173.691 376.086C176.931 376.549 184.918 378.596 188.051 377.584C189.874 376.995 191.405 375.725 192.788 374.259C192.396 373.925 192.065 373.528 191.842 373.078Z" fill="#F9F9F9"/>
<path d="M169.935 374.165C169.974 374.294 170.019 374.41 170.068 374.512C170.099 374.575 170.132 374.64 170.168 374.704C170.104 374.036 170.068 373.282 170.06 372.504C169.861 373.229 169.679 373.971 169.51 374.727C169.666 374.56 169.807 374.371 169.935 374.165Z" fill="#F9F9F9"/>
<path d="M170.296 375.693C170.151 374.837 170.072 373.698 170.06 372.504C169.786 373.504 169.543 374.537 169.323 375.596C169.651 375.628 169.976 375.661 170.296 375.693Z" fill="#F9F9F9"/>
<path d="M168.421 368.142C168.197 369.95 167.562 374.235 168.745 375.442C169.225 375.51 169.704 375.57 170.173 375.626C170.176 375.625 170.179 375.624 170.183 375.623C170.325 372.847 170.549 370.092 170.9 367.405C170.35 366.883 169.534 366.97 168.421 368.142Z" fill="#F9F9F9"/>
<path d="M168.424 372.371L168.491 371.613C168.51 371.403 168.392 371.22 168.227 371.203C168.108 371.191 167.998 371.269 167.939 371.392L167.719 371.832C166.283 373.304 164.188 374.978 164.544 370.953L164.612 370.195C164.63 369.985 164.512 369.802 164.347 369.785C164.183 369.768 164.035 369.924 164.016 370.134L163.975 370.6C163.498 371.643 162.974 372.676 162.109 373.137C164.229 374.822 167.36 375.29 170.182 375.627C170.215 374.983 170.252 374.339 170.295 373.698C169.245 374.673 168.177 375.164 168.424 372.371Z" fill="#F9F9F9"/>
<path d="M159.46 368.776C159.45 368.774 159.441 368.772 159.43 368.771C159.409 368.769 159.389 368.769 159.371 368.771C159.369 368.803 159.367 368.834 159.364 368.866C159.364 368.888 159.364 368.91 159.364 368.931C159.394 368.878 159.426 368.826 159.46 368.776Z" fill="#F9F9F9"/>
<path d="M163.57 374.043C163.673 374.054 163.745 374.015 163.794 373.96C163.846 373.908 163.89 373.826 163.901 373.694C163.902 373.687 163.902 373.68 163.903 373.674C163.939 373.209 164.133 372.596 164.325 371.94C164.371 372.308 164.48 372.656 164.665 372.971C164.638 372.998 164.612 373.035 164.588 373.083C164.425 373.409 164.676 373.605 164.676 373.605C168.74 376.79 167.92 368.773 167.812 366.369C166.673 366.662 165.397 368.03 164.742 369.565C164.72 369.22 164.636 368.903 164.462 368.633C163.965 367.862 160.333 367.105 159.741 367.384C159.621 367.613 159.511 367.834 159.412 368.048C159.399 368.32 159.383 368.593 159.365 368.866C159.362 369.196 159.355 369.525 159.342 369.854C160.154 371.08 161.006 372.243 162.055 373.094C162.511 373.463 163.015 373.776 163.553 374.041L163.57 374.043Z" fill="#F9F9F9"/>
<path d="M206.924 348.919C208.804 349.071 210.437 347.797 212.561 347.804C204.94 347.865 198.581 345.717 193.888 343.916C191.216 343.031 188.646 341.821 186.191 340.588C184.777 340.066 183.321 339.69 181.659 339.979C178.553 340.519 174.427 342.918 171.02 342.224C168.472 341.706 165.025 340.039 162.552 339.108C162.219 339.073 161.885 339.056 161.553 339.054C159.497 340.086 157.246 340.895 154.889 341.476C154.155 342.199 151.837 341.094 151.959 341.871C152.107 342.82 154.486 346.893 156.29 347.476C159.325 348.457 167.985 349.532 172.165 349.52C175.496 349.946 179.905 348.953 182.411 349.019C186.259 349.12 188.017 350.122 193.206 350.122C197.292 350.122 198.677 350.589 202.729 350.672L206.924 348.919Z" fill="#CD6B5B"/>
<path d="M182.91 339.105C181.516 339.244 174.5 341.197 173.177 341.702L172.554 341.94C169.74 340.755 166.937 339.511 164.079 338.411L163.77 338.248C163.522 338.053 163.241 338.002 162.995 338.008C162.753 337.994 162.474 338.035 162.219 338.214C159.719 339.379 157.912 339.896 155.296 340.899L153.104 341.385C153.104 341.385 152.938 341.636 153.006 342.248C156.346 341.421 159.395 340.707 162.897 339.215C165.574 340.031 169.266 342.912 172.027 343.105C175.624 343.355 179.472 340.783 182.806 340.283C184.709 339.997 186.668 341.235 188.39 341.675C192.837 343.38 200.739 346.839 206.41 347.628C206.263 347.481 186.034 338.146 182.91 339.105Z" fill="#994F43"/>
<path d="M173.487 369.703C172.84 369.417 165.386 367.059 164.653 366.689C163.276 366.225 160.466 367.514 159.554 365.607C157.913 362.175 153.752 343.571 153.321 342.895C151.882 340.639 157.784 368.829 160.122 372.114C161.711 374.348 164.771 375.404 165.702 376.344C168.13 378.298 171.729 378.652 173.887 378.8C178.013 379.082 186.032 379.67 189.286 378.531C194.703 376.635 198.202 369.741 200.728 367.35C200.859 367.226 210.025 349.278 210.437 348.657C210.754 348.18 208.57 348.909 208.57 348.909C208.57 348.909 197.557 367.285 196.795 367.231C196.795 367.231 194.414 368.492 189.654 367.704C189.654 367.704 177.107 371.045 173.487 369.703Z" fill="#D97E67"/>
<path d="M187.552 379.214C190.513 379.207 192.153 377.96 192.596 377.636C195.406 375.581 200.872 367.017 201.355 366.621C199.9 366.594 194.232 376.678 188.78 378.215C184.191 378.246 181.994 378.805 177.394 378.97C177.571 379.016 184.288 379.214 187.552 379.214Z" fill="#994F43"/>
<path d="M163.67 376.091C167 377.549 170.959 379.323 171.365 378.682C171.045 378.529 168.668 377.681 168.355 377.497C165.883 376.737 161.022 373.364 160.268 373.073C161.73 374.273 161.436 375.112 163.67 376.091Z" fill="#994F43"/>
<path d="M190.771 368.09C197.524 368.84 198.208 367.783 198.208 367.783C198.208 367.783 191.486 367.608 191.415 367.617C179.862 369.054 179.448 370.508 171.937 369.287C170.311 368.748 164.759 366.414 164.741 366.412C164.277 366.617 156.705 366.75 158.667 367.17C159.341 367.314 162.638 367.63 164.721 367.982C164.721 367.982 170.984 370.459 172.789 370.685C180.124 371.602 190.771 368.09 190.771 368.09Z" fill="#994F43"/>
<path d="M160.826 348.237C162.49 348.941 171.338 350.039 173.083 350.541C180.771 351.667 185.769 349.17 185.769 349.17C197.524 352.763 211.671 348.287 212.52 348.145C212.71 348.113 206.15 348.915 204.979 348.857C201.004 348.661 195.492 350.368 193.5 349.491C191.889 349.268 185.6 348.163 185.529 348.171C181.888 348.206 176.706 348.974 172.685 349.023C168.498 349.075 169.295 348.397 165.464 347.856C163.837 347.388 159.462 346.243 159.444 346.241C159.198 346.336 157.314 347.144 155.986 346.419C154.161 345.424 152.219 342.22 152.219 342.22C152.219 342.22 152.902 347.153 156.853 348.423L160.826 348.237Z" fill="#994F43"/>
</svg>