<svg xmlns="http://www.w3.org/2000/svg" fill="none" viewBox="142 327 82.01 71.86">
<path d="M145.088 356.728C146.705 364.703 150.313 378.716 153.263 386.268C153.776 387.583 154.174 389.081 154.503 390.671C170.047 398.759 191.149 401.646 207.104 395.709C220.375 383.663 228.232 359.945 221.625 344.268C221.025 342.843 220.324 341.524 219.534 340.304C211.781 335.717 203.67 331.017 194.797 327.859C191.918 327.768 188.925 327.459 185.853 327.024C174.34 327.29 162.717 330.048 154.955 332.91C152.544 333.743 150.29 334.764 148.159 335.939C146.35 337.724 144.484 339.437 142.435 340.828C142.932 345.561 143.513 350.428 145.088 356.728Z" fill="#E1A585"/>
<path d="M142.265 349.252C144.719 361.775 151.112 377.428 153.596 389.966C153.596 389.966 152.209 376.426 149.918 369.72C147.167 361.468 146.327 352.957 143.636 344.588C143.636 343.131 143.503 341.671 143.301 340.209C142.875 340.524 142.442 340.825 142 341.111C142.139 343.818 142.254 346.531 142.265 349.252Z" fill="#7F5D4B"/>
<path d="M188.682 377.821L188.625 377.802C188.605 377.812 188.586 377.821 188.566 377.83C188.01 377.876 187.468 377.955 186.936 378.054C186.105 377.917 185.345 377.493 184.386 377.525C184.121 377.395 183.818 377.274 183.485 377.164C181.042 377.082 178.606 376.957 176.105 376.957C174.823 376.957 173.551 377.289 172.284 377.439C172.281 377.44 172.279 377.442 172.276 377.443L172.275 377.44C172.118 377.459 171.961 377.474 171.805 377.487L171.648 377.564C171.458 377.652 171.327 377.843 171.327 378.064C171.327 378.285 171.458 378.476 171.648 378.564L172.076 378.775C173.195 380.865 177.396 380.555 179.478 380.555C180.183 380.555 180.863 380.49 181.528 380.386C184.183 380.448 186.963 380.322 188.942 378.988L189.005 379.112L189.447 378.895C189.497 378.894 189.547 378.894 189.597 378.894C189.597 378.894 190.159 378.894 190.159 378.341C190.159 377.787 189.597 377.787 189.597 377.787C189.52 377.787 189.443 377.788 189.367 377.789C189.35 377.788 189.333 377.787 189.316 377.787H188.754V377.816C188.73 377.818 188.706 377.819 188.682 377.821Z" fill="#D1997B"/>
<path d="M190.745 377.541C190.49 377.541 190.235 377.541 189.98 377.541C185.181 375.663 178.253 376.672 173.206 376.719C172.577 376.926 171.901 376.996 171.238 376.996L171.143 377.067L171.128 377.023L170.3 377.294C170.157 377.338 170.033 377.425 169.945 377.541C170.226 377.541 170.507 377.541 170.788 377.541C177.654 377.541 184.543 377.78 191.429 377.814L190.745 377.541Z" fill="#7F5D4B"/>
<path d="M210.935 359.848C206.065 360.578 201.361 359.493 196.605 358.809C187.573 358.784 178.353 361.055 169.862 357.34C167.719 356.713 157.097 358.613 155.893 356.973C154.456 355.015 156.978 362.913 159.314 365.765C160.902 367.704 163.806 369.901 164.736 370.717C167.162 372.413 169.463 372.236 172.525 372.578C178.279 373.219 185.239 373.084 190.358 372.321C198.206 370.04 205.237 364.302 212.625 361.097C212.625 361.097 213.866 360.98 213.343 360.06C213.3 359.985 213.254 359.919 213.205 359.861C212.456 359.906 211.697 359.894 210.936 359.847L210.935 359.848Z" fill="#D97E67"/>
<path d="M175.847 373.037L176.63 373.023C179.852 373.486 183.306 373.208 186.568 373.208C190.052 373.201 194.262 372.818 197.193 370.956C200 369.173 201.805 367.074 204.681 366.146C205.128 365.8 205.59 365.456 206.073 365.113C204.619 365.09 203.209 365.178 202.136 365.71C197.437 368.04 194.711 371.007 189.264 372.34C184.679 372.368 180.133 372.852 175.536 372.996C175.713 373.036 175.847 373.037 175.847 373.037Z" fill="#994F43"/>
<path d="M158.941 365.964C158.22 366.774 159.14 367.409 159.14 367.409L159.664 367.769C162.051 369.528 164.313 371.627 167.41 372.26C167.41 372.26 168.225 372.42 168.631 371.864C167.969 371.589 167.323 371.253 166.695 370.87C164.322 369.843 162.132 368.593 160.848 366.795C160.363 366.413 159.917 366.012 159.527 365.588C159.332 365.64 159.13 365.753 158.941 365.964Z" fill="#994F43"/>
<path d="M204.965 359.441C206.843 359.615 208.781 359.653 210.902 359.66C204.593 357.983 197.588 354.773 192.898 352.708C190.229 351.694 187.66 350.306 185.207 348.892C183.796 348.294 182.34 347.864 180.68 348.195C177.576 348.814 173.454 351.564 170.05 350.769C167.504 350.174 164.061 348.263 161.589 347.195C161.257 347.156 160.923 347.136 160.591 347.134C158.537 348.317 156.288 349.245 153.933 349.91C153.2 350.74 151.536 350.222 151.658 351.111C151.806 352.2 153.53 356.12 155.333 356.789C158.365 357.913 162.608 358.472 166.784 358.458C175.225 359.696 184.244 359.148 192.805 359.148C196.887 359.148 200.917 359.346 204.965 359.441Z" fill="#CD6B5B"/>
<path d="M181.93 347.192C180.538 347.351 173.527 349.59 172.205 350.169L171.583 350.442C168.772 349.083 165.971 347.657 163.115 346.396L162.806 346.209C162.559 345.986 162.278 345.927 162.032 345.934C161.791 345.918 161.512 345.965 161.257 346.171C158.759 347.506 156.301 348.847 153.687 349.997L152.802 350.305C152.802 350.305 151.983 350.593 152.052 351.293C155.389 350.346 158.436 349.028 161.935 347.318C164.609 348.253 168.297 351.556 171.057 351.777C174.651 352.064 178.495 349.115 181.826 348.542C183.728 348.215 185.685 349.634 187.405 350.138C191.848 352.092 200.179 357.305 205.845 358.21C205.698 358.042 185.052 346.092 181.93 347.192Z" fill="#994F43"/>
<path d="M161.698 358.462L165.744 358.212C167.407 358.915 175.953 359.13 177.696 359.632C185.378 360.757 194.193 359.438 194.193 359.438C204.468 362.146 216.405 359.631 217.253 359.489C217.442 359.457 210.735 359.759 209.565 359.701C205.593 359.505 200.087 359.459 198.096 358.583C196.486 358.36 195.53 357.914 194.16 357.257C194.094 357.254 194.025 357.256 193.954 357.264C186.527 357.335 177.588 358.008 170.084 356.949C168.459 356.481 163.794 355.044 163.775 355.042C163.191 355.266 160.88 356.136 160.073 356.292C155.476 357.178 151.609 356.982 161.698 358.462Z" fill="#994F43"/>
<path opacity="0.01" d="M194.798 327.855C194.151 327.625 193.499 327.403 192.844 327.19C190.541 327.016 188.199 326.967 185.853 327.021C188.925 327.455 191.919 327.765 194.798 327.855Z" fill="black"/>
<path opacity="0.01" fill-rule="evenodd" clip-rule="evenodd" d="M183.612 354.657C182.495 355.216 182.495 355.216 183.612 354.657V354.657Z" fill="black"/>
<path opacity="0.01" fill-rule="evenodd" clip-rule="evenodd" d="M182.785 367.08C185.058 367.563 186.99 368.668 188.582 370.392C190.937 367.454 190.109 365.798 186.097 365.423C185.041 364.501 185.041 363.672 186.097 362.939C186.964 359.395 185.721 357.187 182.37 356.313C181.24 357.219 180.963 358.323 181.542 359.626C182.389 360.333 183.079 361.162 183.613 362.111C183.411 363.808 183.135 365.465 182.785 367.08Z" fill="#101010"/>
<path opacity="0.01" fill-rule="evenodd" clip-rule="evenodd" d="M164.565 371.221C164.524 373.373 163.696 375.168 162.08 376.604C162.786 378.035 163.614 378.173 164.565 377.018C164.565 375.914 165.117 375.362 166.221 375.362C166.089 373.955 166.226 372.574 166.635 371.221C166.866 371.979 167.28 372.531 167.878 372.877C168.808 371.836 169.359 372.112 169.534 373.705C170.272 374.211 171.1 374.486 172.019 374.533C173.84 373.561 175.496 373.975 176.988 375.776C175.185 377.244 173.667 379.038 172.433 381.159C172.157 380.607 171.88 380.055 171.604 379.503C171.24 380.808 170.55 381.913 169.534 382.815C170.149 383.38 170.701 383.932 171.191 384.472C170.362 384.472 169.534 384.472 168.706 384.472C169.6 385.751 169.6 386.993 168.706 388.198C170.188 389.634 171.845 390.877 173.675 391.925C175.531 391.485 176.773 390.381 177.402 388.612C178.738 389.542 179.704 389.128 180.301 387.37C177.593 386.107 176.764 384.175 177.816 381.573C177.192 380.342 176.503 380.203 175.746 381.159C175.14 379.332 175.692 377.952 177.402 377.018C177.895 375.86 177.757 374.755 176.988 373.705C177.282 372.859 177.834 372.307 178.644 372.049C179.37 372.157 179.922 371.882 180.301 371.221C179.197 370.117 179.197 369.012 180.301 367.908C179.218 366.976 178.113 366.976 176.988 367.908C175.963 368.165 175.963 368.579 176.988 369.151C175.289 369.921 174.046 371.163 173.261 372.877C173.12 370.821 173.811 369.027 175.332 367.494C173.238 366.404 173.238 365.438 175.332 364.595C175.873 363.258 176.287 361.877 176.574 360.455C177.732 359.998 178.837 359.723 179.887 359.626C180.144 357.924 180.558 356.267 181.129 354.657C180.874 353.988 180.46 353.436 179.887 353.001C179.058 354.105 178.23 354.105 177.402 353.001C175.608 354.796 173.814 356.589 172.019 358.384C172.451 358.849 172.727 359.401 172.847 360.04C171.366 362.155 170.4 364.501 169.949 367.08C169.08 366.238 168.113 366.099 167.05 366.666C166.645 368.495 165.816 370.013 164.565 371.221ZM167.878 372.877C168.43 373.153 168.982 373.43 169.534 373.705C169.359 372.112 168.808 371.836 167.878 372.877ZM169.534 373.705C169.914 377.453 170.742 377.729 172.019 374.533C171.1 374.486 170.272 374.211 169.534 373.705ZM164.565 377.018C164.565 375.914 165.117 375.362 166.221 375.362C165.946 376.19 165.393 376.742 164.565 377.018ZM171.191 384.472C171.262 385.296 170.985 385.986 170.362 386.542C171.819 387.377 172.785 388.619 173.261 390.269C173.487 388.754 174.178 387.511 175.331 386.542C174.406 384.975 173.026 384.285 171.191 384.472Z" fill="#161616"/>
<path opacity="0.01" fill-rule="evenodd" clip-rule="evenodd" d="M186.122 362.937C186.864 364.77 188.235 365.594 190.238 365.407C190.238 364.584 190.238 363.76 190.238 362.937C188.707 362.467 187.335 362.467 186.122 362.937Z" fill="black"/>
<path opacity="0.01" fill-rule="evenodd" clip-rule="evenodd" d="M176.987 367.908C178.112 366.975 179.216 366.975 180.3 367.908C179.196 369.012 179.196 370.116 180.3 371.22C179.921 371.881 179.369 372.157 178.643 372.049C180.754 374.213 182.686 374.074 184.44 371.634C183.801 370.623 182.973 369.795 181.956 369.15C182.579 368.594 182.855 367.904 182.784 367.08C180.457 365.69 178.525 365.966 176.987 367.908Z" fill="#030303"/>
<path opacity="0.01" fill-rule="evenodd" clip-rule="evenodd" d="M163.744 371.206C164.017 371.206 164.291 371.206 164.564 371.206C164.291 369.017 164.017 369.017 163.744 371.206Z" fill="black"/>
<path opacity="0.01" fill-rule="evenodd" clip-rule="evenodd" d="M163.736 371.22C162.52 371.004 161.422 371.279 160.443 372.043C160.992 372.318 161.541 372.593 162.09 372.867C163.089 372.663 163.637 372.114 163.736 371.22Z" fill="black"/>
<path opacity="0.012" fill-rule="evenodd" clip-rule="evenodd" d="M166.221 375.362C166.857 375.994 167.271 376.822 167.464 377.846C168.421 376.61 169.112 376.748 169.534 378.26C168.853 380.276 168.577 382.346 168.706 384.472C169.534 384.472 170.362 384.472 171.19 384.472C170.701 383.932 170.149 383.38 169.534 382.815C170.55 381.913 171.24 380.808 171.604 379.502C171.88 380.055 172.157 380.606 172.432 381.159C173.666 379.038 175.184 377.244 176.987 375.776C175.496 373.975 173.839 373.561 172.018 374.533C170.742 377.728 169.914 377.453 169.534 373.705C168.981 373.429 168.43 373.153 167.877 372.877C167.279 372.531 166.865 371.979 166.635 371.221C166.226 372.574 166.089 373.955 166.221 375.362ZM172.018 374.533C170.742 377.728 169.914 377.453 169.534 373.705C170.272 374.21 171.1 374.486 172.018 374.533Z" fill="#484848"/>
<path opacity="0.016" fill-rule="evenodd" clip-rule="evenodd" d="M166.222 375.362C165.946 376.19 165.393 376.742 164.565 377.018C164.12 378.357 163.844 379.738 163.737 381.159C165.353 381.385 166.595 380.834 167.464 379.503C167.622 381.331 168.036 382.988 168.706 384.472C168.577 382.347 168.853 380.276 169.534 378.26C169.112 376.748 168.421 376.61 167.464 377.846C167.272 376.822 166.858 375.994 166.222 375.362Z" fill="#1E1E1E"/>
</svg>