<svg xmlns="http://www.w3.org/2000/svg" fill="none" viewBox="141 323 82.08 71.92">
<path d="M144.09 352.75C145.709 360.732 149.32 374.756 152.272 382.315C152.786 383.631 153.184 385.131 153.513 386.722C169.07 394.817 190.191 397.707 206.16 391.764C219.442 379.708 227.305 355.969 220.694 340.279C220.093 338.853 219.391 337.532 218.601 336.311C210.84 331.721 202.723 327.016 193.842 323.856C190.961 323.765 187.965 323.455 184.89 323.021C173.368 323.286 161.734 326.047 153.965 328.911C151.552 329.745 149.296 330.766 147.163 331.943C145.353 333.729 143.486 335.444 141.434 336.836C141.932 341.573 142.513 346.444 144.09 352.75Z" fill="#E1A585"/>
<path d="M141.265 345.271C143.721 357.805 150.119 373.472 152.605 386.021C152.605 386.021 151.218 372.468 148.925 365.757C146.172 357.498 145.33 348.979 142.637 340.603C142.637 339.145 142.504 337.683 142.302 336.221C141.876 336.535 141.442 336.837 141 337.123C141.139 339.833 141.254 342.548 141.265 345.271Z" fill="#7F5D4B"/>
<path opacity="0.01" d="M193.843 323.856C193.195 323.626 192.543 323.403 191.887 323.19C189.582 323.016 187.238 322.967 184.89 323.021C187.965 323.455 190.961 323.765 193.843 323.856Z" fill="black"/>
<path opacity="0.01" fill-rule="evenodd" clip-rule="evenodd" d="M182.648 350.681C181.544 351.234 181.544 351.234 182.648 350.681V350.681Z" fill="black"/>
<path opacity="0.01" fill-rule="evenodd" clip-rule="evenodd" d="M181.819 363.114C184.095 363.598 186.029 364.704 187.622 366.43C189.979 363.489 189.15 361.831 185.135 361.457C184.077 360.533 184.077 359.704 185.135 358.97C186.002 355.423 184.759 353.213 181.405 352.339C180.273 353.245 179.997 354.35 180.576 355.654C181.423 356.362 182.114 357.191 182.648 358.141C182.446 359.84 182.17 361.498 181.819 363.114Z" fill="#101010"/>
<path opacity="0.01" fill-rule="evenodd" clip-rule="evenodd" d="M163.584 367.259C163.543 369.413 162.714 371.209 161.097 372.647C161.803 374.079 162.632 374.218 163.584 373.061C163.584 371.956 164.137 371.403 165.242 371.403C165.109 369.995 165.247 368.613 165.656 367.259C165.887 368.018 166.301 368.57 166.899 368.917C167.83 367.875 168.382 368.151 168.557 369.746C169.296 370.251 170.125 370.527 171.044 370.575C172.867 369.601 174.524 370.016 176.017 371.818C174.213 373.288 172.693 375.083 171.458 377.206C171.182 376.653 170.906 376.101 170.63 375.548C170.265 376.854 169.574 377.96 168.557 378.864C169.173 379.429 169.725 379.982 170.215 380.521C169.386 380.521 168.557 380.521 167.729 380.521C168.624 381.802 168.624 383.045 167.729 384.251C169.212 385.689 170.87 386.932 172.702 387.981C174.559 387.54 175.803 386.435 176.432 384.666C177.769 385.596 178.736 385.181 179.333 383.422C176.623 382.158 175.794 380.225 176.846 377.62C176.222 376.388 175.532 376.249 174.774 377.206C174.168 375.377 174.72 373.996 176.432 373.061C176.925 371.902 176.787 370.797 176.018 369.746C176.312 368.899 176.865 368.346 177.676 368.088C178.402 368.197 178.955 367.921 179.333 367.259C178.228 366.154 178.228 365.049 179.333 363.944C178.249 363.01 177.143 363.01 176.018 363.944C174.991 364.201 174.991 364.615 176.018 365.187C174.317 365.958 173.073 367.201 172.288 368.917C172.147 366.859 172.838 365.063 174.36 363.529C172.264 362.438 172.264 361.471 174.36 360.628C174.902 359.289 175.316 357.908 175.603 356.483C176.762 356.027 177.868 355.751 178.919 355.655C179.177 353.951 179.591 352.293 180.162 350.681C179.907 350.011 179.492 349.459 178.919 349.023C178.09 350.128 177.261 350.128 176.432 349.023C174.636 350.82 172.841 352.615 171.044 354.411C171.477 354.876 171.753 355.429 171.873 356.069C170.391 358.185 169.424 360.533 168.972 363.115C168.103 362.272 167.135 362.133 166.071 362.7C165.666 364.531 164.836 366.05 163.584 367.259ZM166.899 368.917C167.452 369.193 168.004 369.47 168.557 369.746C168.382 368.151 167.83 367.875 166.899 368.917ZM168.557 369.746C168.938 373.496 169.767 373.772 171.044 370.575C170.125 370.527 169.296 370.251 168.557 369.746ZM163.584 373.061C163.584 371.956 164.137 371.403 165.242 371.403C164.966 372.232 164.413 372.785 163.584 373.061ZM170.215 380.521C170.286 381.347 170.009 382.037 169.386 382.593C170.844 383.429 171.811 384.672 172.287 386.323C172.513 384.807 173.205 383.564 174.359 382.593C173.434 381.025 172.052 380.335 170.215 380.521Z" fill="#161616"/>
<path opacity="0.01" fill-rule="evenodd" clip-rule="evenodd" d="M185.135 358.97C185.882 360.816 187.263 361.645 189.279 361.457C189.279 360.628 189.279 359.799 189.279 358.97C187.738 358.497 186.356 358.497 185.135 358.97Z" fill="black"/>
<path opacity="0.01" fill-rule="evenodd" clip-rule="evenodd" d="M176.018 363.943C177.143 363.01 178.249 363.01 179.333 363.943C178.228 365.048 178.228 366.154 179.333 367.259C178.954 367.92 178.401 368.196 177.675 368.088C179.787 370.254 181.722 370.115 183.478 367.673C182.838 366.661 182.009 365.832 180.991 365.187C181.614 364.631 181.891 363.94 181.82 363.115C179.491 361.724 177.557 362 176.018 363.943Z" fill="#030303"/>
<path opacity="0.01" fill-rule="evenodd" clip-rule="evenodd" d="M162.755 367.259C163.031 367.259 163.308 367.259 163.584 367.259C163.308 365.048 163.031 365.048 162.755 367.259Z" fill="black"/>
<path opacity="0.01" fill-rule="evenodd" clip-rule="evenodd" d="M162.755 367.259C161.53 367.042 160.425 367.318 159.439 368.088C159.992 368.364 160.544 368.641 161.097 368.916C162.103 368.712 162.655 368.159 162.755 367.259Z" fill="black"/>
<path opacity="0.012" fill-rule="evenodd" clip-rule="evenodd" d="M165.242 371.403C165.879 372.036 166.293 372.865 166.486 373.89C167.444 372.652 168.135 372.791 168.558 374.304C167.876 376.322 167.6 378.394 167.729 380.521C168.558 380.521 169.387 380.521 170.215 380.521C169.726 379.982 169.174 379.429 168.558 378.863C169.575 377.96 170.265 376.854 170.63 375.548C170.906 376.101 171.183 376.653 171.459 377.206C172.694 375.083 174.213 373.287 176.018 371.818C174.525 370.016 172.867 369.601 171.044 370.574C169.767 373.772 168.938 373.496 168.558 369.745C168.005 369.469 167.453 369.193 166.9 368.917C166.301 368.57 165.887 368.018 165.656 367.259C165.247 368.613 165.11 369.995 165.242 371.403ZM171.044 370.574C169.767 373.772 168.938 373.496 168.558 369.745C169.296 370.251 170.125 370.527 171.044 370.574Z" fill="#484848"/>
<path opacity="0.016" fill-rule="evenodd" clip-rule="evenodd" d="M165.242 371.403C164.966 372.232 164.413 372.785 163.584 373.061C163.138 374.401 162.862 375.783 162.755 377.205C164.373 377.432 165.616 376.88 166.485 375.548C166.644 377.378 167.058 379.036 167.729 380.521C167.599 378.394 167.876 376.322 168.558 374.304C168.135 372.791 167.444 372.653 166.485 373.89C166.293 372.865 165.879 372.036 165.242 371.403Z" fill="#1E1E1E"/>
<path d="M181.548 381.079L181.506 381.06C181.492 381.069 181.478 381.079 181.464 381.088C181.062 381.134 180.67 381.214 180.285 381.315C179.685 381.176 179.136 380.747 178.442 380.78C178.25 380.648 178.031 380.526 177.79 380.415C176.025 380.332 174.264 380.206 172.456 380.206C171.529 380.206 170.61 380.541 169.693 380.693C169.692 380.694 169.69 380.696 169.688 380.697L169.687 380.694C169.574 380.713 169.461 380.729 169.347 380.741L169.234 380.819C169.097 380.908 169.002 381.101 169.002 381.324C169.002 381.547 169.097 381.74 169.234 381.83L169.543 382.043C170.353 384.154 173.389 383.841 174.894 383.841C175.404 383.841 175.895 383.775 176.376 383.67C178.295 383.733 180.305 383.605 181.735 382.258L181.781 382.384L182.1 382.164C182.136 382.163 182.173 382.163 182.209 382.163C182.209 382.163 182.615 382.163 182.615 381.604C182.615 381.045 182.209 381.045 182.209 381.045C182.153 381.045 182.098 381.045 182.042 381.047C182.03 381.045 182.018 381.045 182.006 381.045H181.599V381.074C181.582 381.076 181.565 381.077 181.548 381.079Z" fill="#D1997B"/>
<path d="M183.35 380.793C183.165 380.793 182.981 380.793 182.796 380.793C179.327 378.896 174.319 379.915 170.671 379.963C170.216 380.171 169.727 380.242 169.248 380.242L169.18 380.314L169.169 380.269L168.57 380.544C168.467 380.588 168.377 380.676 168.314 380.793C168.517 380.793 168.72 380.793 168.923 380.793C173.887 380.793 178.866 381.034 183.844 381.068L183.35 380.793Z" fill="#7F5D4B"/>
<path d="M164.939 358.328C164.939 366.042 169.339 372.295 174.767 372.295C180.195 372.295 184.596 366.042 184.596 358.328C184.596 350.614 180.195 344.361 174.767 344.361C169.339 344.361 164.939 350.614 164.939 358.328Z" fill="#482520"/>
<path d="M165.802 365.472C165.802 366.374 165.18 365.64 165.415 362.704C165.623 360.111 165.778 352.227 166.439 350.816C167.074 349.461 170.881 346.28 173.903 346.28C174.478 346.28 177.028 346.189 179.223 347.306C180.491 347.951 181.785 349.852 182.139 350.208C183.798 351.875 184.795 360.668 184.253 362.037C184.15 362.3 185.028 362.331 185.028 360.141C185.028 358.727 185.913 351.183 184.896 347.973C183.702 344.2 181.841 341.856 179.657 340.158C177.972 338.848 176.223 343.508 174.767 343.508C174.363 343.508 171.63 338.891 169.853 340.433C168.194 341.872 166.398 343.847 165.462 346.104C163.484 350.873 165.154 359.433 165.154 361.634L165.802 365.472Z" fill="#CD6B5B"/>
<path d="M164.938 360.14C164.938 361.149 164.86 360.966 164.851 362.703C164.838 365.377 164.554 368.558 165.399 371.151C165.919 372.746 167.633 375.771 168.392 375.933C170.274 376.333 173.579 375.707 173.579 375.707C173.579 375.707 176.281 376.34 177.69 376.207C178.598 376.121 180.8 375.058 181.649 373.762C183.274 371.284 184.187 367.256 184.644 363.799C184.918 361.723 185.027 359.853 185.027 358.648C185.027 355.706 183.821 363.842 180.879 366.132C178.63 367.883 177.548 368.883 174.443 368.883C171.295 368.883 169.536 366.081 167.716 365.141C167.365 364.959 164.938 360.14 164.938 360.14Z" fill="#D97E67"/>
<path d="M170.77 340.842C171.528 340.795 174.734 344.404 174.767 344.388C175.085 344.231 177.453 341.488 178.538 341.015C180.349 340.226 183.066 345.337 183.085 345.388C183.719 345.967 184.271 346.631 184.708 347.351C185.023 347.142 184.892 346.751 184.892 346.751L184.648 346.046C184.381 345.649 184.153 345.219 184 344.766C182.844 343.045 180.872 339.011 178.124 340.03C176.68 340.566 175.819 342.023 174.767 343.073C173.797 342.088 172.188 339.819 170.771 339.776C168.659 339.713 166.32 343.02 165.775 344.72C165.246 345.22 165.566 346 165.566 346C166.265 345.269 169.247 340.937 170.77 340.842Z" fill="#994F43"/>
<path d="M172.16 376.091C173.768 376.035 175.329 376.399 176.909 376.455C178.34 376.455 180.456 376.524 181.318 374.354C180.823 374.773 180.366 375.298 179.809 375.415C178.901 375.958 177.897 375.728 176.909 375.728C176.183 375.769 175.184 375.463 174.473 375.193C173.723 374.908 172.872 375.405 172.16 375.365C172.091 375.365 172.023 375.366 171.955 375.367C170.863 375.772 169.691 375.728 168.541 375.728C168.314 375.72 168.1 375.668 167.899 375.581C169.321 376.497 170.576 376.091 172.16 376.091Z" fill="#994F43"/>
<path d="M166.397 363.786C167.991 366.158 170.754 368.221 173.464 369.307C173.467 369.359 173.478 369.416 173.499 369.478C173.669 369.984 174.182 369.815 174.182 369.815C176.974 368.896 180.485 367.703 182.237 365.127L182.486 364.644C182.486 364.644 182.528 364.562 182.542 364.449C180.892 366.407 178.475 367.841 175.991 368.072C175.503 368.251 175.019 368.415 174.551 368.57C173.549 368.234 172.509 367.739 171.518 367.127C169.55 366.098 166.588 362.863 165.455 360.883C165.382 360.874 166.397 363.786 166.397 363.786Z" fill="#994F43"/>
<path d="M172.714 347.453C174.152 347.453 176.505 346.974 177.775 347.225C178.156 347.301 178.522 347.504 178.872 347.785C180.322 348.316 181.586 349.352 182.565 351.035C182.615 351.09 182.665 351.146 182.713 351.204C182.891 350.881 182.601 350.594 182.601 350.594C181.299 349.383 180.043 346.586 178.023 346.188C176.593 345.906 174.256 346.387 172.714 346.387C169.483 346.426 168.236 349.004 166.068 351.021L166.024 351.185C166.719 350.64 167.451 350.195 167.966 349.914C168.293 349.735 168.62 349.564 168.948 349.399C169.982 348.306 171.119 347.438 172.714 347.453Z" fill="#994F43"/>
</svg>