<svg xmlns="http://www.w3.org/2000/svg" fill="none" viewBox="142 326 82.08 71.9">
<path d="M145.09 355.729C146.709 363.711 150.32 377.736 153.272 385.294C153.786 386.611 154.184 388.11 154.513 389.702C170.07 397.796 191.191 400.686 207.16 394.744C220.442 382.687 228.305 358.949 221.694 343.258C221.093 341.832 220.391 340.512 219.601 339.291C211.84 334.7 203.723 329.996 194.842 326.835C191.961 326.745 188.965 326.435 185.89 326C174.368 326.265 162.734 329.027 154.965 331.891C152.552 332.724 150.296 333.746 148.163 334.923C146.353 336.709 144.486 338.423 142.434 339.815C142.932 344.553 143.513 349.424 145.09 355.729Z" fill="#E1A585"/>
<path d="M142.265 348.25C144.721 360.784 151.119 376.451 153.605 389C153.605 389 152.218 375.448 149.925 368.737C147.172 360.477 146.33 351.958 143.637 343.583C143.637 342.124 143.504 340.663 143.302 339.2C142.876 339.515 142.442 339.817 142 340.103C142.139 342.812 142.254 345.527 142.265 348.25Z" fill="#7F5D4B"/>
<path d="M161.051 368.278C167.406 373.93 169.781 372.857 180.833 372.857C190.871 372.857 195.677 369.368 199.749 365.645C202.629 363.012 205.904 360.263 207.043 358.548C207.735 357.505 209.934 356.266 209.934 356.266C209.934 356.266 198.733 354.069 177.278 354.069C155.824 354.069 155.335 349.875 155.335 349.875C155.335 349.875 154.684 351.302 154.779 353.832C154.989 359.403 156.937 364.62 161.051 368.278Z" fill="#482520"/>
<path d="M187.157 378.629L187.099 378.61C187.079 378.62 187.06 378.629 187.04 378.638C186.483 378.684 185.941 378.763 185.409 378.862C184.577 378.725 183.817 378.3 182.856 378.333C182.591 378.202 182.288 378.081 181.954 377.971C179.51 377.889 177.072 377.764 174.569 377.764C173.286 377.764 172.013 378.096 170.744 378.247C170.741 378.248 170.739 378.249 170.736 378.25L170.735 378.248C170.578 378.266 170.421 378.282 170.264 378.294L170.108 378.371C169.918 378.46 169.786 378.651 169.786 378.872C169.786 379.093 169.918 379.284 170.108 379.373L170.536 379.583C171.656 381.675 175.86 381.365 177.944 381.365C178.65 381.365 179.331 381.3 179.996 381.196C182.653 381.258 185.436 381.132 187.417 379.797L187.48 379.921L187.922 379.704C187.972 379.703 188.022 379.703 188.072 379.703C188.072 379.703 188.635 379.703 188.635 379.149C188.635 378.595 188.072 378.595 188.072 378.595C187.995 378.595 187.918 378.596 187.841 378.597C187.825 378.596 187.808 378.595 187.791 378.595H187.228V378.624C187.204 378.626 187.18 378.627 187.157 378.629Z" fill="#D1997B"/>
<path d="M189.229 378.345C188.974 378.345 188.718 378.345 188.463 378.345C183.66 376.467 176.726 377.476 171.674 377.523C171.045 377.73 170.368 377.8 169.705 377.8L169.61 377.872L169.595 377.827L168.767 378.099C168.623 378.142 168.499 378.23 168.411 378.345C168.692 378.345 168.974 378.345 169.255 378.345C176.127 378.346 183.021 378.585 189.913 378.618L189.229 378.345Z" fill="#7F5D4B"/>
<path d="M201.971 354.751L201.934 354.703C201.846 354.609 201.656 354.488 201.397 354.353C199.134 353.761 197.242 353.228 196.32 353.129C192.081 352.677 180.655 350.85 176.901 350.85L176.56 350.79C173.873 353.023 168.873 350.834 164.778 349.962C162.29 350.07 158.093 350.273 156.275 350.851C155.922 351.201 154.711 355.849 157.731 357.27C159.146 357.936 162.478 359.738 171.786 360.271C182.287 360.872 196.666 360.74 200.068 358.669C201.417 357.848 204.866 355.686 204.914 354.703C204.914 354.703 202.321 354.809 201.971 354.751Z" fill="#F9F9F9"/>
<path d="M158.73 366.048L158.969 367.243C159.046 367.322 160.822 367.137 161.046 367.246C162.983 367.694 160.925 367.187 161.711 367.247C165.322 367.523 175.07 368.788 178.257 368.689L178.548 368.732C180.769 366.742 185.072 368.49 188.572 369.13C190.681 368.971 197.461 366.166 198.988 365.622C199.279 365.312 199.303 362.447 196.702 361.307C195.483 360.773 190.693 360.709 182.772 360.709C164.013 360.709 164.135 358.409 156.854 361.307C155.588 361.811 157.769 363.244 157.755 364.089C157.755 364.089 158.431 366.007 158.73 366.048Z" fill="#F9F9F9"/>
<path opacity="0.01" d="M195.931 329.447C195.283 329.216 194.631 328.994 193.975 328.781C191.67 328.607 189.326 328.558 186.978 328.612C190.053 329.046 193.049 329.356 195.931 329.447Z" fill="black"/>
<path opacity="0.01" fill-rule="evenodd" clip-rule="evenodd" d="M184.736 356.272C183.631 356.825 183.631 356.825 184.736 356.272V356.272Z" fill="black"/>
<path opacity="0.01" fill-rule="evenodd" clip-rule="evenodd" d="M183.907 368.705C186.182 369.189 188.116 370.295 189.709 372.021C192.067 369.08 191.238 367.422 187.223 367.047C186.165 366.124 186.165 365.295 187.223 364.561C188.09 361.014 186.847 358.804 183.493 357.93C182.361 358.836 182.085 359.941 182.664 361.245C183.511 361.953 184.202 362.782 184.736 363.732C184.534 365.431 184.258 367.089 183.907 368.705Z" fill="#101010"/>
<path opacity="0.01" fill-rule="evenodd" clip-rule="evenodd" d="M165.672 372.85C165.631 375.004 164.802 376.8 163.185 378.238C163.891 379.67 164.72 379.808 165.672 378.652C165.672 377.547 166.225 376.994 167.33 376.994C167.197 375.586 167.334 374.204 167.744 372.85C167.974 373.609 168.389 374.161 168.987 374.508C169.918 373.466 170.47 373.742 170.645 375.337C171.384 375.842 172.213 376.118 173.132 376.165C174.954 375.192 176.612 375.607 178.105 377.409C176.301 378.878 174.781 380.674 173.546 382.797C173.27 382.244 172.993 381.692 172.717 381.139C172.353 382.445 171.662 383.551 170.645 384.454C171.261 385.02 171.813 385.572 172.303 386.112C171.474 386.112 170.645 386.112 169.816 386.112C170.712 387.393 170.712 388.636 169.816 389.842C171.3 391.279 172.958 392.523 174.79 393.572C176.647 393.131 177.891 392.026 178.52 390.257C179.857 391.187 180.824 390.772 181.421 389.013C178.711 387.749 177.882 385.815 178.934 383.211C178.31 381.978 177.62 381.84 176.862 382.797C176.256 380.968 176.808 379.587 178.52 378.652C179.013 377.493 178.875 376.388 178.106 375.337C178.4 374.49 178.953 373.937 179.763 373.679C180.489 373.787 181.042 373.511 181.421 372.85C180.316 371.745 180.316 370.639 181.421 369.534C180.337 368.601 179.231 368.601 178.106 369.534C177.079 369.791 177.079 370.206 178.106 370.778C176.405 371.549 175.161 372.792 174.376 374.508C174.235 372.45 174.926 370.654 176.448 369.12C174.352 368.029 174.352 367.062 176.448 366.219C176.99 364.88 177.404 363.498 177.691 362.074C178.85 361.618 179.956 361.342 181.007 361.245C181.265 359.541 181.679 357.883 182.25 356.272C181.995 355.602 181.58 355.049 181.007 354.614C180.178 355.719 179.349 355.719 178.52 354.614C176.724 356.41 174.928 358.206 173.132 360.002C173.565 360.467 173.841 361.02 173.961 361.66C172.479 363.776 171.512 366.124 171.06 368.705C170.191 367.862 169.223 367.724 168.159 368.291C167.754 370.122 166.924 371.641 165.672 372.85ZM168.987 374.508C169.54 374.784 170.092 375.061 170.645 375.337C170.47 373.742 169.918 373.466 168.987 374.508ZM170.645 375.337C171.026 379.087 171.854 379.363 173.132 376.165C172.213 376.118 171.384 375.842 170.645 375.337ZM165.672 378.652C165.672 377.547 166.225 376.994 167.33 376.994C167.054 377.823 166.501 378.376 165.672 378.652ZM172.303 386.112C172.374 386.938 172.097 387.628 171.474 388.184C172.932 389.02 173.899 390.263 174.375 391.914C174.601 390.398 175.293 389.155 176.447 388.184C175.521 386.616 174.14 385.926 172.303 386.112Z" fill="#161616"/>
<path opacity="0.01" fill-rule="evenodd" clip-rule="evenodd" d="M187.223 364.561C187.97 366.407 189.351 367.236 191.367 367.048C191.367 366.219 191.367 365.39 191.367 364.561C189.826 364.088 188.444 364.088 187.223 364.561Z" fill="black"/>
<path opacity="0.01" fill-rule="evenodd" clip-rule="evenodd" d="M178.105 369.534C179.231 368.601 180.337 368.601 181.421 369.534C180.316 370.639 180.316 371.745 181.421 372.85C181.042 373.511 180.489 373.787 179.763 373.679C181.875 375.845 183.81 375.706 185.565 373.264C184.926 372.252 184.097 371.423 183.079 370.778C183.702 370.221 183.979 369.531 183.908 368.705C181.578 367.314 179.645 367.59 178.105 369.534Z" fill="#030303"/>
<path opacity="0.01" fill-rule="evenodd" clip-rule="evenodd" d="M164.843 372.85C165.119 372.85 165.396 372.85 165.672 372.85C165.396 370.639 165.119 370.639 164.843 372.85Z" fill="black"/>
<path opacity="0.01" fill-rule="evenodd" clip-rule="evenodd" d="M164.843 372.85C163.618 372.632 162.513 372.908 161.527 373.678C162.08 373.954 162.632 374.231 163.185 374.507C164.19 374.303 164.743 373.75 164.843 372.85Z" fill="black"/>
<path opacity="0.012" fill-rule="evenodd" clip-rule="evenodd" d="M170.645 375.336C171.026 379.087 171.855 379.363 173.132 376.165C172.213 376.118 171.384 375.842 170.645 375.336Z" fill="#484848"/>
<path opacity="0.016" fill-rule="evenodd" clip-rule="evenodd" d="M167.329 376.994C167.053 377.823 166.5 378.376 165.671 378.652C165.225 379.992 164.949 381.374 164.842 382.796C166.46 383.023 167.703 382.471 168.572 381.139C168.731 382.969 169.145 384.627 169.816 386.112C169.686 383.985 169.963 381.913 170.645 379.895C170.222 378.382 169.531 378.243 168.572 379.481C168.38 378.456 167.966 377.626 167.329 376.994Z" fill="#1E1E1E"/>
<path d="M206.989 356.381C208.869 356.533 209.632 356.565 211.755 356.572C205.44 355.109 198.429 352.308 193.735 350.507C191.064 349.623 188.493 348.412 186.038 347.179C184.625 346.657 183.168 346.282 181.506 346.571C178.4 347.111 174.274 349.509 170.867 348.816C168.319 348.297 164.873 346.63 162.399 345.699C162.066 345.664 161.733 345.647 161.4 345.646C159.344 346.677 157.093 347.487 154.737 348.067C154.002 348.79 152.337 348.339 152.459 349.115C152.608 350.064 154.333 353.484 156.137 354.067C159.173 355.048 167.832 356.124 172.012 356.112C175.343 356.537 179.752 355.544 182.258 355.61C186.106 355.711 187.864 356.713 193.053 356.713C197.139 356.713 198.524 357.18 202.576 357.263L206.989 356.381Z" fill="#CD6B5B"/>
<path d="M182.758 345.696C181.364 345.835 174.348 347.788 173.025 348.293L172.402 348.531C169.588 347.346 166.785 346.102 163.927 345.002L163.618 344.838C163.37 344.644 163.089 344.592 162.843 344.599C162.601 344.584 162.322 344.626 162.067 344.805C159.567 345.97 157.107 347.14 154.491 348.143L153.604 348.411C153.604 348.411 152.786 348.662 152.854 349.274C156.194 348.447 159.243 347.298 162.745 345.806C165.422 346.622 169.114 349.503 171.875 349.695C175.472 349.946 179.32 347.373 182.653 346.874C184.557 346.588 186.516 347.826 188.238 348.266C192.685 349.97 201.023 354.518 206.693 355.307C206.547 355.16 185.882 344.737 182.758 345.696Z" fill="#994F43"/>
<path d="M160.673 354.828C162.337 355.531 171.185 356.629 172.93 357.132C180.619 358.257 185.616 355.761 185.616 355.761C197.371 359.354 211.083 356.836 211.932 356.694C212.122 356.662 205.997 356.376 204.826 356.318C200.851 356.122 195.339 356.958 193.347 356.082C191.736 355.858 185.448 354.753 185.377 354.761C181.735 354.796 176.553 355.564 172.532 355.614C168.345 355.665 169.142 354.987 165.311 354.447C163.684 353.978 159.309 352.834 159.291 352.832C159.045 352.926 156.943 354.387 155.615 353.663C153.791 352.667 152.937 350.552 152.937 350.552C152.937 350.552 152.967 354.396 156.918 355.667L160.673 354.828Z" fill="#994F43"/>
<path d="M173.334 367.126C172.687 366.937 165.234 365.382 164.501 365.138C163.124 364.832 159.878 365.682 158.966 364.424C157.325 362.16 153.599 349.889 153.168 349.442C151.73 347.954 157.196 366.693 159.534 368.86C161.123 370.334 164.618 370.887 165.549 371.507C167.977 372.796 171.577 373.029 173.734 373.127C177.861 373.313 185.879 373.701 189.133 372.95C194.551 371.699 199.355 367.295 201.881 365.717C202.012 365.636 210.742 355.375 211.155 354.966C211.472 354.652 209.941 354.989 209.941 354.989C209.941 354.989 197.839 365.962 197.078 365.926C197.078 365.926 194.261 366.327 189.501 365.808C189.501 365.808 176.955 368.011 173.334 367.126Z" fill="#D97E67"/>
<path d="M187.4 373.4C190.361 373.395 192.001 372.572 192.444 372.359C195.254 371.003 202.025 365.498 202.509 365.236C201.053 365.219 194.079 371.727 188.627 372.741C184.038 372.761 181.842 373.13 177.241 373.239C177.419 373.27 184.135 373.4 187.4 373.4Z" fill="#994F43"/>
<path d="M163.518 371.34C166.848 372.302 170.807 373.472 171.213 373.049C170.892 372.948 168.515 372.389 168.202 372.267C165.731 371.766 160.87 369.541 160.116 369.349C161.578 370.141 161.284 370.694 163.518 371.34Z" fill="#994F43"/>
<path d="M190.619 366.063C197.372 366.557 198.056 365.86 198.056 365.86C198.056 365.86 191.333 365.745 191.262 365.751C179.71 366.699 179.296 367.657 171.785 366.852C170.158 366.496 164.607 364.957 164.588 364.956C164.124 365.091 156.552 365.178 158.515 365.456C159.188 365.551 162.485 365.759 164.569 365.991C164.569 365.991 170.832 367.625 172.637 367.774C179.972 368.379 190.619 366.063 190.619 366.063Z" fill="#994F43"/>
</svg>