<svg width="83" height="72" viewBox="0 0 83 72" fill="none" xmlns="http://www.w3.org/2000/svg">
<path d="M3.08967 29.7837C4.7089 37.766 8.31982 51.7906 11.2718 59.3491C11.7859 60.6654 12.1839 62.165 12.5134 63.7564C28.0704 71.8511 49.1908 74.7411 65.16 68.7986C78.4417 56.7422 86.3055 33.0036 79.6936 17.313C79.0926 15.8867 78.3915 14.5663 77.6005 13.3456C69.8404 8.75466 61.7229 4.05049 52.8423 0.890099C49.9606 0.799259 46.9648 0.489268 43.8898 0.0546875C32.3677 0.320003 20.7345 3.08132 12.9653 5.94557C10.5523 6.77892 8.29616 7.80048 6.16349 8.97743C4.35283 10.7632 2.48596 12.478 0.434367 13.8697C0.931971 18.6076 1.51336 23.4782 3.08967 29.7837Z" fill="#F8BC99"/>
<path d="M0.264802 22.3049C2.72075 34.8387 9.11935 50.5059 11.6055 63.0548C11.6055 63.0548 10.2176 49.5026 7.92481 42.7914C5.17165 34.5321 4.33025 26.013 1.63702 17.6374C1.63702 16.1789 1.50422 14.7174 1.30177 13.2549C0.875784 13.5696 0.442202 13.8713 -0.00014769 14.1576C0.138817 16.8669 0.253711 19.5818 0.264802 22.3049Z" fill="#95725D"/>
<path d="M17.5826 44.2917C23.9377 49.9432 21.3612 48.871 32.413 48.871C53.8674 48.871 67.1973 28.1781 67.1973 28.1781C67.1973 28.1781 55.6447 25.5122 34.1902 25.5122C12.7358 25.5122 12.2473 21.3184 12.2473 21.3184C12.2473 21.3184 11.5958 22.7454 11.6912 25.2749C11.9014 30.8464 13.4686 40.6331 17.5826 44.2917Z" fill="#482520"/>
<path d="M57.9291 27.5907L57.8936 27.543C57.8095 27.4487 57.6274 27.3279 57.3787 27.1927C55.2064 26.6014 53.3908 26.0678 52.5054 25.9694C48.4365 25.5171 37.4705 23.6905 33.8676 23.6905L33.5402 23.6298C30.9617 25.8633 26.1626 23.6737 22.2324 22.8018C19.8438 22.9097 15.8159 23.1132 14.0715 23.6906C13.7318 24.0409 12.5704 28.6892 15.4681 30.1101C16.8267 30.7763 20.0249 32.5786 28.958 33.1112C39.0372 33.7121 52.8378 33.5798 56.1032 31.5088C57.3971 30.6881 60.7082 28.5263 60.7539 27.543C60.7539 27.543 58.2652 27.6491 57.9291 27.5907Z" fill="#F9F9F9"/>
<path d="M26.4544 37.0896C23.1409 38.6442 11.6016 41.8115 19.9928 45.4507C25.029 45.5189 30.0456 46.932 35.1642 46.932C40.2607 46.932 45.8158 47.1335 50.8936 47.2262C51.6134 47.2165 52.4264 47.091 53.2653 46.869C53.4263 46.561 53.595 46.2541 53.7694 45.9488C52.7223 46.2914 51.7049 46.4794 50.8935 46.4646C45.7351 46.5344 40.3211 46.1703 35.1642 46.1703C30.1518 46.1703 25.104 44.6196 20.1877 44.7094C15.3178 42.4246 19.5339 40.4487 23.2951 39.0645C23.2689 39.1203 23.2519 39.1893 23.2678 39.2643C23.9289 39.0341 24.5986 38.8071 25.2359 38.5307C25.6733 38.5307 26.4657 38.4368 27.427 38.3342C30.2612 37.5183 33.8532 37.0416 35.3391 38.6913C35.2378 38.7367 35.1374 38.7818 35.0382 38.8264C35.4649 39.127 35.731 39.5364 35.7675 40.0861L36.337 39.8304C39.3485 38.4785 41.9217 37.864 45.21 37.8144C45.6968 37.7066 46.1953 37.6378 46.71 37.6378C49.3548 37.6378 55.9326 36.9845 57.7358 39.2807C57.8631 39.296 58.0421 39.2736 58.1545 39.0717C58.3442 38.731 57.9648 38.5607 57.9648 38.5607C57.7716 38.474 57.5789 38.3921 57.3866 38.3147C57.3982 38.3063 57.4092 38.2974 57.4197 38.288C57.6914 38.4134 57.9628 38.5395 58.2328 38.6682C58.3476 38.7711 58.4535 38.8741 58.5507 38.9773C58.7532 38.8063 58.9648 38.6457 59.1846 38.4963C59.05 38.3498 58.9018 38.2034 58.7393 38.0572C58.4983 37.9391 58.2566 37.8239 58.014 37.7107C54.6146 37.3773 51.2747 36.3399 47.6166 36.3399C46.4217 36.3399 44.9007 36.2446 43.3818 36.2403C43.1477 36.2995 42.9171 36.367 42.6901 36.4437C41.3408 36.4875 39.9086 36.8685 38.5218 37.369C35.1151 36.126 29.6153 35.7187 26.4544 37.0896ZM55.0562 37.5067C55.1555 37.5533 55.2488 37.6018 55.3385 37.6493C55.1423 37.5999 54.9462 37.5543 54.7501 37.5123L55.0562 37.5067ZM29.2458 37.1109C28.7212 37.2027 28.2009 37.3148 27.694 37.4436C28.1718 37.2974 28.694 37.1877 29.2458 37.1109Z" fill="#B65E50"/>
<path d="M27.3471 38.3084C26.3858 38.411 25.5916 38.5098 25.1542 38.5098C24.5169 38.7862 23.8455 39.0195 23.1844 39.2497C23.1685 39.1747 23.1858 39.1046 23.212 39.0488C19.4508 40.433 15.2339 42.437 20.1038 44.7218C25.0201 44.632 30.1 46.231 35.1124 46.231C40.2693 46.231 45.8135 46.5633 50.972 46.4935C51.754 46.5078 52.7276 46.3317 53.7349 46.0092C54.5883 44.5074 55.5803 43.0416 56.4523 41.6638C56.5057 41.5793 56.5804 41.4698 56.6738 41.3406C57.1484 40.4113 57.8081 39.5924 58.6045 38.9324C58.5154 38.8395 58.4194 38.7467 58.316 38.6541C58.046 38.5254 57.7741 38.3971 57.5023 38.2717C57.4918 38.2811 57.3152 38.3229 57.3036 38.3313C57.4959 38.4087 57.6883 38.4891 57.8815 38.5758C57.8815 38.5758 58.2604 38.7439 58.0707 39.0845C57.9583 39.2864 57.9467 39.2841 57.8195 39.2689C56.0163 36.9727 49.4271 37.5984 46.7823 37.5984C46.2676 37.5984 45.7655 37.6623 45.2787 37.7701C41.9903 37.8197 39.289 38.4243 36.2775 39.7762L35.836 40.1311C35.7994 39.5814 35.5258 39.1801 35.0991 38.8794C35.1983 38.8349 35.1804 38.6807 35.2817 38.6352C33.7959 36.9855 30.1814 37.4925 27.3471 38.3084Z" fill="#C36556"/>
<path d="M20.6832 45.8354L20.7091 45.8579C20.7701 45.9022 20.901 45.9571 21.0792 46.0177C22.6275 46.2584 23.9221 46.4789 24.5509 46.5073C27.4408 46.6381 35.2386 47.2875 37.7914 47.2077L38.0243 47.2301C39.8172 46.0817 43.251 47.0451 46.049 47.384C47.7398 47.2784 50.5907 47.0897 51.8178 46.7689C52.0531 46.5902 52.805 44.2934 50.7302 43.6634C49.7574 43.368 47.4638 42.5584 41.1261 42.4961C33.9753 42.4259 24.1991 42.7964 21.917 43.8807C21.0128 44.3103 18.6998 45.4399 18.6824 45.9213C18.6824 45.9213 20.4441 45.8143 20.6832 45.8354Z" fill="#F9F9F9"/>
<path d="M45.5374 56.4924L45.4798 56.4731C45.4601 56.4828 45.4407 56.4922 45.4211 56.5014C44.8643 56.547 44.3222 56.6262 43.7896 56.7257C42.9578 56.5886 42.1977 56.1634 41.2371 56.1962C40.9718 56.0657 40.6688 55.9448 40.3353 55.8347C37.8906 55.7526 35.4529 55.6274 32.9495 55.6274C31.6666 55.6274 30.3934 55.9593 29.1245 56.1101C29.1221 56.1113 29.1196 56.1123 29.1171 56.1137L29.1158 56.1112C28.9589 56.1297 28.8021 56.1453 28.6453 56.1575L28.4886 56.2346C28.2984 56.3233 28.1667 56.5142 28.1667 56.7353C28.1667 56.9565 28.2984 57.1474 28.4886 57.2362L28.9164 57.4467C30.0372 59.5383 34.2409 59.228 36.3252 59.228C37.031 59.228 37.7114 59.1632 38.3766 59.0592C41.0338 59.1217 43.8168 58.9952 45.7974 57.6604L45.8606 57.7847L46.3026 57.5671C46.3526 57.5665 46.4026 57.5661 46.453 57.5661C46.453 57.5661 47.0156 57.5661 47.0156 57.0122C47.0156 56.4582 46.453 56.4582 46.453 56.4582C46.3757 56.4582 46.2988 56.4589 46.2223 56.4604C46.2057 56.4589 46.1887 56.4582 46.1718 56.4582H45.6091V56.4872C45.5852 56.4888 45.5611 56.4906 45.5374 56.4924Z" fill="#DEA889"/>
<path d="M47.6099 56.2087C47.3545 56.2087 47.0991 56.2087 46.8436 56.2087C42.0407 54.3298 35.1071 55.3394 30.055 55.3867C29.4259 55.5932 28.7489 55.6637 28.0858 55.6637L27.9911 55.7349L27.976 55.6903L27.1474 55.9622C27.0039 56.0056 26.8799 56.0931 26.7917 56.2086C27.073 56.2086 27.3544 56.2086 27.6357 56.2086C34.5078 56.2091 41.4018 56.448 48.2939 56.4817L47.6099 56.2087Z" fill="#95725D"/>
<path opacity="0.01" d="M52.8428 0.890312C52.1949 0.659776 51.5431 0.437462 50.887 0.224033C48.5818 0.050579 46.2383 0.000905173 43.8902 0.0549707C46.9651 0.489475 49.961 0.799411 52.8428 0.890312Z" fill="black"/>
<path opacity="0.01" fill-rule="evenodd" clip-rule="evenodd" d="M41.6484 27.7153C40.5435 28.2682 40.5435 28.2682 41.6484 27.7153Z" fill="black"/>
<path opacity="0.01" fill-rule="evenodd" clip-rule="evenodd" d="M40.8194 40.1486C43.0946 40.6327 45.0285 41.7384 46.6216 43.4641C48.979 40.5232 48.1501 38.8655 44.135 38.4907C43.0773 37.5674 43.0773 36.7384 44.135 36.004C45.0021 32.4572 43.7587 30.2474 40.405 29.373C39.2735 30.279 38.9967 31.3839 39.5762 32.6886C40.4232 33.3965 41.1137 34.2253 41.6483 35.1752C41.4461 36.8745 41.17 38.5322 40.8194 40.1486Z" fill="#101010"/>
<path opacity="0.01" fill-rule="evenodd" clip-rule="evenodd" d="M22.5838 44.2931C22.5433 46.4474 21.7143 48.2436 20.0972 49.681C20.8034 51.1133 21.6323 51.2517 22.5838 50.0955C22.5838 48.9906 23.1367 48.4376 24.2416 48.4376C24.109 47.0294 24.2466 45.6476 24.656 44.2932C24.8865 45.0524 25.3009 45.6046 25.8994 45.951C26.8302 44.9092 27.3822 45.1851 27.5572 46.7799C28.2958 47.2856 29.1247 47.5615 30.0439 47.6088C31.8666 46.6356 33.5244 47.0501 35.0172 48.8521C33.2128 50.3217 31.6934 52.1171 30.4584 54.24C30.1823 53.6871 29.9055 53.135 29.6295 52.5821C29.2648 53.8884 28.5742 54.9943 27.5573 55.8977C28.1731 56.463 28.7252 57.0159 29.2151 57.5555C28.3862 57.5555 27.5573 57.5555 26.7285 57.5555C27.6237 58.8361 27.6237 60.0795 26.7285 61.2855C28.2122 62.7227 29.87 63.9661 31.7019 65.0154C33.5594 64.5745 34.8029 63.4696 35.4319 61.7C36.769 62.6299 37.7363 62.2155 38.3331 60.4566C35.6227 59.1925 34.7937 57.2587 35.8464 54.6544C35.2222 53.4219 34.5318 53.2835 33.7743 54.24C33.1676 52.4113 33.7204 51.0306 35.4321 50.0956C35.9253 48.936 35.7869 47.831 35.0177 46.78C35.3119 45.9329 35.8649 45.38 36.6755 45.1222C37.4016 45.2307 37.9546 44.9548 38.3333 44.2933C37.2284 43.1884 37.2284 42.0827 38.3333 40.9778C37.2491 40.0444 36.1433 40.0444 35.0177 40.9778C33.9914 41.2347 33.9914 41.6492 35.0177 42.2211C33.3168 42.992 32.0734 44.2353 31.2876 45.9511C31.1468 43.8929 31.838 42.0975 33.3599 40.5632C31.2644 39.4723 31.2644 38.5051 33.3599 37.6621C33.902 36.3234 34.3163 34.9418 34.6032 33.5177C35.762 33.061 36.8677 32.785 37.9188 32.6888C38.1767 30.9847 38.5911 29.3268 39.1621 27.7154C38.9068 27.0456 38.4923 26.4929 37.9188 26.0576C37.0898 27.1625 36.261 27.1625 35.4321 26.0576C33.6359 27.8538 31.8406 29.6491 30.0443 31.4454C30.477 31.9105 30.7529 32.4633 30.8732 33.1032C29.3911 35.2194 28.4238 37.5675 27.9722 40.1488C27.1026 39.3058 26.1354 39.1674 25.071 39.7343C24.6657 41.5654 23.8362 43.0846 22.5838 44.2931ZM25.8994 45.951C26.4523 46.2271 27.0043 46.5039 27.5572 46.7799C27.3822 45.1851 26.8302 44.9092 25.8994 45.951ZM27.5572 46.7799C27.9377 50.5306 28.7665 50.8066 30.0439 47.6088C29.1247 47.5615 28.2958 47.2856 27.5572 46.7799ZM22.5838 50.0955C22.5838 48.9906 23.1367 48.4376 24.2416 48.4376C23.9656 49.2665 23.4128 49.8194 22.5838 50.0955ZM29.2151 57.5555C29.2864 58.3811 29.0094 59.0712 28.3861 59.6274C29.844 60.463 30.8114 61.7063 31.2873 63.3574C31.5135 61.8414 32.2047 60.598 33.3594 59.6274C32.4335 58.0592 31.0518 57.369 29.2151 57.5555Z" fill="#161616"/>
<path opacity="0.01" fill-rule="evenodd" clip-rule="evenodd" d="M44.1349 36.0043C44.8817 37.8502 46.2626 38.6793 48.2793 38.4911C48.2793 37.6622 48.2793 36.8332 48.2793 36.0043C46.7376 35.5311 45.3558 35.5311 44.1349 36.0043Z" fill="black"/>
<path opacity="0.01" fill-rule="evenodd" clip-rule="evenodd" d="M35.0175 40.9776C36.1432 40.0442 37.249 40.0442 38.3331 40.9776C37.2282 42.0825 37.2282 43.1882 38.3331 44.2932C37.9543 44.9546 37.4014 45.2306 36.6753 45.122C38.7874 47.288 40.722 47.1495 42.4775 44.7076C41.8377 43.6955 41.0087 42.8666 39.9909 42.2209C40.6141 41.6648 40.891 40.9742 40.8197 40.1487C38.4905 38.7578 36.5568 39.0338 35.0175 40.9776Z" fill="#030303"/>
<path opacity="0.01" fill-rule="evenodd" clip-rule="evenodd" d="M21.7551 44.2932C22.0312 44.2932 22.308 44.2932 22.584 44.2932C22.3079 42.0826 22.0311 42.0826 21.7551 44.2932Z" fill="black"/>
<path opacity="0.01" fill-rule="evenodd" clip-rule="evenodd" d="M21.7548 44.2929C20.5297 44.0757 19.4249 44.3518 18.4393 45.1218C18.9922 45.3978 19.5443 45.6747 20.0971 45.9507C21.1026 45.746 21.6553 45.1931 21.7548 44.2929Z" fill="black"/>
<path opacity="0.012" fill-rule="evenodd" clip-rule="evenodd" d="M27.5573 46.7798C27.9378 50.5305 28.7666 50.8064 30.0439 47.6086C29.1248 47.5614 28.2957 47.2854 27.5573 46.7798Z" fill="#484848"/>
<path opacity="0.016" fill-rule="evenodd" clip-rule="evenodd" d="M24.2421 48.4375C23.966 49.2664 23.4132 49.8194 22.5843 50.0953C22.1383 51.4356 21.8623 52.8173 21.7554 54.2397C23.3726 54.466 24.6159 53.914 25.4854 52.5819C25.6437 54.4122 26.0581 56.0699 26.7287 57.5553C26.5994 55.4284 26.8763 53.3561 27.5576 51.3386C27.1349 49.8251 26.4436 49.6867 25.4854 50.9242C25.2931 49.8989 24.8787 49.0698 24.2421 48.4375Z" fill="#1E1E1E"/>
<path d="M30.2454 44.1989C29.598 43.95 22.1448 41.9019 21.4117 41.5812C20.0348 41.1781 16.7891 42.2971 15.8772 40.6408C14.2358 37.6593 10.5103 21.5001 10.0791 20.9125C8.64065 18.9524 14.1072 43.6283 16.4448 46.4824C18.0343 48.423 21.5292 49.151 22.46 49.9678C24.8882 51.665 28.4876 51.9723 30.6451 52.1004C34.7716 52.3455 42.7902 52.8564 46.0445 51.8671C51.4618 50.2204 56.2657 44.421 58.7919 42.3438C58.9231 42.2359 67.6534 28.7251 68.0662 28.186C68.3832 27.7719 66.8519 28.2158 66.8519 28.2158C66.8519 28.2158 54.7501 42.6659 53.989 42.6188C53.989 42.6188 51.1725 43.147 46.4124 42.4624C46.4124 42.4624 33.8658 45.3641 30.2454 44.1989Z" fill="#DC8D79"/>
<path d="M44.311 52.4603C47.2722 52.4541 48.9121 51.3704 49.3547 51.0892C52.1646 49.3041 58.9364 42.0541 59.4199 41.71C57.9645 41.687 50.9903 50.2574 45.5383 51.5921C40.9492 51.6192 38.7528 52.1044 34.1522 52.2485C34.3297 52.2884 41.0464 52.4603 44.311 52.4603Z" fill="#AF7060"/>
<path d="M20.4293 49.7469C23.7591 51.0136 27.7177 52.5545 28.124 51.998C27.8033 51.8649 25.4266 51.1288 25.1133 50.9682C22.6419 50.3081 17.7811 47.3785 17.0267 47.1255C18.4892 48.1682 18.1947 48.8969 20.4293 49.7469Z" fill="#AF7060"/>
<path d="M63.9005 27.8241C65.7802 27.976 66.5428 28.0083 68.666 28.015C62.3509 26.5521 55.3397 23.7517 50.6459 21.9507C47.9746 21.0661 45.404 19.8557 42.9489 18.6225C41.5359 18.1008 40.0794 17.725 38.4172 18.014C35.3113 18.5541 31.1856 20.9528 27.778 20.2591C25.2306 19.7406 21.7837 18.0733 19.3104 17.1422C18.9773 17.1078 18.6437 17.0905 18.3116 17.0889C16.2555 18.1207 14.0042 18.9302 11.6478 19.5103C10.9133 20.2337 9.24831 19.782 9.36995 20.5581C9.51874 21.5078 11.2443 24.9272 13.0484 25.5103C16.0837 26.4912 24.7437 27.567 28.9229 27.555C32.2544 27.9807 36.6634 26.9873 39.1691 27.0534C43.0176 27.1548 44.7753 28.1563 49.9645 28.1563C54.0499 28.1563 55.4351 28.6234 59.487 28.7065L63.9005 27.8241Z" fill="#C9816E"/>
<path d="M39.6695 17.1393C38.2754 17.278 31.2587 19.2314 29.9357 19.7359L29.3133 19.9745C26.4995 18.7889 23.6959 17.5454 20.838 16.4454L20.5289 16.2818C20.2811 16.0874 19.9998 16.0357 19.7543 16.0422C19.5126 16.0278 19.2331 16.069 18.9778 16.2486C16.4783 17.4131 14.0184 18.5831 11.4021 19.586L10.5155 19.8545C10.5155 19.8545 9.6967 20.1056 9.76479 20.717C13.1053 19.8903 16.1543 18.741 19.6566 17.2495C22.3333 18.065 26.0248 20.9463 28.7864 21.1387C32.3835 21.3894 36.231 18.8168 39.5647 18.3169C41.4683 18.0315 43.4272 19.2692 45.1488 19.7091C49.5958 21.4138 57.9336 25.9611 63.6045 26.7499C63.4577 26.6035 42.7934 16.18 39.6695 17.1393Z" fill="#AF7060"/>
<path d="M47.53 42.7981C54.283 43.449 54.9668 42.5309 54.9668 42.5309C54.9668 42.5309 48.2443 42.3793 48.1734 42.3873C36.6211 43.6355 36.2073 44.8977 28.6961 43.8378C27.0696 43.3694 21.5178 41.3423 21.4996 41.3403C21.0356 41.5183 13.4633 41.6339 15.4261 41.9989C16.0995 42.1242 19.3965 42.3983 21.4799 42.7039C21.4799 42.7039 27.743 44.8556 29.5481 45.0516C36.8833 45.8483 47.53 42.7981 47.53 42.7981Z" fill="#AF7060"/>
<path d="M17.585 26.2714C19.2491 26.9748 28.0973 28.0725 29.8421 28.5749C37.5307 29.7006 42.5279 27.2041 42.5279 27.2041C54.2827 30.7973 67.9953 28.2797 68.8443 28.1376C69.034 28.1059 62.9096 27.8197 61.7383 27.7618C57.7633 27.5655 52.2516 28.4017 50.2589 27.5253C48.6479 27.3015 42.3596 26.1969 42.2887 26.2049C38.6471 26.2398 33.4654 27.0077 29.4441 27.0572C25.2572 27.1086 26.0543 26.4307 22.2229 25.89C20.5964 25.4216 16.2215 24.2772 16.2033 24.2752C15.957 24.3697 13.8555 25.8305 12.5273 25.1059C10.703 24.1106 9.84914 21.9951 9.84914 21.9951C9.84914 21.9951 9.87887 25.8398 13.8298 27.1099L17.585 26.2714Z" fill="#AF7060"/>
</svg>
