<svg width="83" height="72" viewBox="0 0 83 72" fill="none" xmlns="http://www.w3.org/2000/svg">
<path d="M3.18245 29.77C4.80167 37.7524 8.41259 51.7769 11.3646 59.3354C11.8786 60.6518 12.2767 62.1513 12.6062 63.7427C28.1632 71.8375 49.2835 74.7275 65.2527 68.7849C78.5345 56.7285 86.3983 32.9899 79.7864 17.2993C79.1854 15.873 78.4843 14.5526 77.6933 13.332C69.9332 8.74099 61.8157 4.03682 52.9351 0.876427C50.0533 0.785587 47.0575 0.475596 43.9826 0.0410156C32.4605 0.306331 20.8273 3.06765 13.0581 5.9319C10.6451 6.76525 8.38893 7.78681 6.25626 8.96376C4.44561 10.7495 2.57874 12.4644 0.52714 13.8561C1.02474 18.5939 1.60614 23.4645 3.18245 29.77Z" fill="#F8BC99"/>
<path d="M0.357575 22.2912C2.81353 34.8251 9.21213 50.4923 11.6982 63.0411C11.6982 63.0411 10.3104 49.4889 8.01759 42.7777C5.26442 34.5184 4.42303 25.9993 1.72979 17.6237C1.72979 16.1652 1.59699 14.7037 1.39455 13.2412C0.968558 13.556 0.534976 13.8577 0.0926257 14.144C0.23159 16.8533 0.346485 19.5681 0.357575 22.2912Z" fill="#95725D"/>
<path d="M18.1378 42.6608C24.851 47.745 22.1292 46.7804 33.8037 46.7804C56.4669 46.7804 70.5479 28.1648 70.5479 28.1648C70.5479 28.1648 58.3444 25.7665 35.6812 25.7665C13.0179 25.7665 12.5018 21.9937 12.5018 21.9937C12.5018 21.9937 11.8136 23.2774 11.9144 25.5531C12.1364 30.5652 13.792 39.3695 18.1378 42.6608Z" fill="#482520"/>
<path d="M26.8515 36.7712C23.5379 38.3258 11.9986 41.4931 20.3899 45.1323C25.426 45.2005 30.4427 46.6137 35.5613 46.6137C40.6578 46.6137 46.2128 46.8152 51.2906 46.9079C54.6304 46.8627 59.9774 44.3252 60.6016 41.2174C60.4951 40.2354 60.2737 39.2158 59.7887 38.4165C59.6037 38.1904 59.387 37.9644 59.1364 37.7389C58.8953 37.6208 58.6537 37.5055 58.4111 37.3924C55.0117 37.0589 51.6717 36.0216 48.0136 36.0216C46.8187 36.0216 45.2978 35.9262 43.7789 35.922C43.5448 35.9811 43.3141 36.0486 43.0872 36.1253C41.7379 36.1691 40.3056 36.5501 38.9188 37.0506C35.5121 35.8076 30.0124 35.4004 26.8515 36.7712ZM35.7362 38.3729C35.6348 38.4184 35.5345 38.4634 35.4353 38.508C35.8619 38.8086 36.128 39.218 36.1646 39.7677L36.7341 39.5121C39.7456 38.1601 42.3187 37.5456 45.607 37.496C46.0938 37.3882 46.5923 37.3195 47.1071 37.3195C49.7518 37.3195 56.3297 36.6661 58.1329 38.9624C58.2601 38.9776 58.4392 38.9552 58.5516 38.7533C58.7413 38.4127 58.3619 38.2423 58.3619 38.2423C58.1687 38.1556 57.9759 38.0737 57.7837 37.9963C57.7952 37.988 57.8062 37.979 57.8167 37.9696C58.0885 38.095 58.3599 38.2211 58.6299 38.3499C62.8503 42.1288 54.9616 46.2132 51.2906 46.1462C46.1322 46.216 40.7181 45.852 35.5613 45.852C30.5488 45.852 25.5011 44.3013 20.5848 44.391C15.7149 42.1063 19.931 40.1303 23.6922 38.7462C23.666 38.802 23.6489 38.8709 23.6649 38.9459C24.326 38.7157 24.9957 38.4887 25.633 38.2123C26.0704 38.2123 26.8628 38.1184 27.8241 38.0158C30.6583 37.1999 34.2503 36.7233 35.7362 38.3729ZM55.4532 37.1883C55.5526 37.2349 55.6459 37.2834 55.7355 37.331C55.5394 37.2815 55.3433 37.2359 55.1472 37.1939L55.4532 37.1883ZM29.6429 36.7925C29.1183 36.8843 28.5979 36.9964 28.0911 37.1253C28.5689 36.979 29.0911 36.8693 29.6429 36.7925Z" fill="#B65E50"/>
<path d="M27.7446 37.99C26.7833 38.0926 25.9891 38.1915 25.5518 38.1915C24.9145 38.4678 24.2431 38.7011 23.582 38.9313C23.5661 38.8563 23.5833 38.7863 23.6095 38.7305C19.8483 40.1146 15.6315 42.1187 20.5014 44.4034C25.4176 44.3136 30.4975 45.9126 35.51 45.9126C40.6669 45.9126 46.2111 46.2449 51.3695 46.1751C55.0405 46.2422 62.9339 42.1147 58.7135 38.3358C58.4435 38.207 58.1717 38.0787 57.8999 37.9533C57.8894 37.9627 57.7127 38.0046 57.7012 38.0129C57.8935 38.0903 58.0858 38.1707 58.279 38.2574C58.279 38.2574 58.658 38.4255 58.4683 38.7662C58.3558 38.9681 58.3442 38.9658 58.217 38.9505C56.4138 36.6543 49.8246 37.28 47.1799 37.28C46.6651 37.28 46.163 37.3439 45.6762 37.4517C42.3879 37.5013 39.6866 38.1059 36.675 39.4579L36.2335 39.8127C36.197 39.263 35.9233 38.8617 35.4966 38.5611C35.5959 38.5165 35.5779 38.3623 35.6793 38.3169C34.1934 36.6672 30.5789 37.1741 27.7446 37.99Z" fill="#C36556"/>
<path d="M62.1314 28.017L62.0929 27.9711C62.0018 27.8805 61.8044 27.7644 61.535 27.6345C59.181 27.0661 57.2136 26.5533 56.2542 26.4587C51.8452 26.0239 39.9623 24.2683 36.0581 24.2683L35.7033 24.2099C32.9092 26.3567 27.7089 24.2521 23.45 23.4141C20.8618 23.5178 16.497 23.7134 14.6068 24.2684C14.2387 24.6051 12.9802 29.0728 16.1201 30.4385C17.5923 31.0789 21.0579 32.8111 30.738 33.323C41.66 33.9005 56.6144 33.7735 60.1528 31.7828C61.555 30.994 65.1428 28.9163 65.1924 27.9711C65.1924 27.9711 62.4956 28.0731 62.1314 28.017Z" fill="#F9F9F9"/>
<path d="M17.8115 39.9872L17.844 40.0143C17.9209 40.0682 18.0883 40.138 18.3169 40.2166C20.318 40.5715 21.9901 40.8902 22.8067 40.9547C26.5588 41.2511 25.4846 43.6024 28.8096 43.6397L40.2942 42.4662C42.6879 41.2371 47.103 42.5177 50.7246 43.0486C52.9296 43.0126 56.6481 42.9398 58.2616 42.6332C58.5773 42.4398 59.6783 39.8385 57.0132 39.0096C55.7636 38.621 52.8234 37.5747 44.5827 37.183C35.2847 36.7409 22.5478 36.6726 19.5212 37.8032C18.3219 38.2513 15.2527 39.4324 15.2043 39.9848C15.2043 39.9848 17.5016 39.9508 17.8115 39.9872Z" fill="#F9F9F9"/>
<path d="M45.6301 54.3459L45.5726 54.3266C45.5529 54.3363 45.5335 54.3457 45.5139 54.355C44.957 54.4005 44.415 54.4798 43.8823 54.5792C43.0506 54.4421 42.2905 54.0169 41.3299 54.0497C41.0645 53.9192 40.7616 53.7983 40.428 53.6882C37.9834 53.6061 35.5457 53.481 33.0422 53.481C31.7594 53.481 30.4862 53.8128 29.2173 53.9636C29.2148 53.9648 29.2123 53.9659 29.2099 53.9672L29.2086 53.9647C29.0517 53.9833 28.8949 53.9989 28.738 54.0111L28.5814 54.0881C28.3912 54.1769 28.2595 54.3677 28.2595 54.5888C28.2595 54.81 28.3912 55.0009 28.5814 55.0897L29.0092 55.3003C30.13 57.3919 34.3337 57.0816 36.4179 57.0816C37.1238 57.0816 37.8042 57.0168 38.4693 56.9127C41.1266 56.9753 43.9096 56.8488 45.8902 55.5139L45.9534 55.6382L46.3953 55.4206C46.4454 55.42 46.4954 55.4196 46.5457 55.4196C46.5457 55.4196 47.1084 55.4196 47.1084 54.8657C47.1084 54.3117 46.5457 54.3117 46.5457 54.3117C46.4685 54.3117 46.3916 54.3125 46.315 54.3139C46.2985 54.3125 46.2814 54.3117 46.2645 54.3117H45.7019V54.3407C45.678 54.3423 45.6539 54.3441 45.6301 54.3459Z" fill="#DEA889"/>
<path d="M47.7027 54.0622C47.4473 54.0622 47.1918 54.0622 46.9364 54.0622C42.1335 52.1833 35.1998 53.1929 30.1478 53.2402C29.5187 53.4467 28.8416 53.5172 28.1786 53.5172L28.0839 53.5884L28.0687 53.5439L27.2402 53.8157C27.0967 53.8591 26.9727 53.9467 26.8845 54.0622C27.1658 54.0622 27.4472 54.0622 27.7285 54.0622C34.6006 54.0627 41.4946 54.3015 48.3867 54.3352L47.7027 54.0622Z" fill="#95725D"/>
<path opacity="0.01" d="M52.9355 0.876641C52.2877 0.646104 51.6359 0.42379 50.9798 0.210362C48.6745 0.0369071 46.3311 -0.0127667 43.983 0.0412988C47.0579 0.475803 50.0538 0.785739 52.9355 0.876641Z" fill="black"/>
<path opacity="0.01" fill-rule="evenodd" clip-rule="evenodd" d="M41.7412 27.7017C40.6363 28.2545 40.6363 28.2545 41.7412 27.7017Z" fill="black"/>
<path opacity="0.01" fill-rule="evenodd" clip-rule="evenodd" d="M40.9122 40.1349C43.1874 40.619 45.1213 41.7247 46.7143 43.4504C49.0717 40.5095 48.2429 38.8518 44.2277 38.4771C43.1701 37.5537 43.1701 36.7247 44.2277 35.9904C45.0948 32.4435 43.8515 30.2337 40.4978 29.3594C39.3662 30.2653 39.0895 31.3703 39.6689 32.6749C40.516 33.3828 41.2065 34.2116 41.7411 35.1616C41.5388 36.8608 41.2628 38.5185 40.9122 40.1349Z" fill="#101010"/>
<path opacity="0.01" fill-rule="evenodd" clip-rule="evenodd" d="M22.6766 44.2795C22.636 46.4337 21.8071 48.2299 20.19 49.6673C20.8962 51.0996 21.725 51.2381 22.6766 50.0818C22.6766 48.9769 23.2295 48.424 24.3344 48.424C24.2018 47.0158 24.3393 45.6339 24.7488 44.2795C24.9793 45.0388 25.3937 45.5909 25.9922 45.9374C26.923 44.8955 27.475 45.1714 27.65 46.7662C28.3885 47.2719 29.2175 47.5479 30.1366 47.5951C31.9593 46.622 33.6171 47.0364 35.11 48.8384C33.3055 50.308 31.7862 52.1034 30.5512 54.2263C30.2751 53.6734 29.9983 53.1213 29.7223 52.5685C29.3576 53.8748 28.667 54.9806 27.6501 55.884C28.2659 56.4493 28.8179 57.0022 29.3079 57.5418C28.479 57.5418 27.6501 57.5418 26.8213 57.5418C27.7165 58.8225 27.7165 60.0658 26.8213 61.2718C28.305 62.7091 29.9628 63.9524 31.7947 65.0018C33.6522 64.5608 34.8956 63.4559 35.5247 61.6863C36.8618 62.6163 37.8291 62.2018 38.4259 60.4429C35.7155 59.1788 34.8864 57.2451 35.9392 54.6408C35.315 53.4082 34.6246 53.2698 33.867 54.2263C33.2604 52.3977 33.8132 51.0169 35.5249 50.0819C36.0181 48.9223 35.8796 47.8173 35.1105 46.7664C35.4047 45.9192 35.9576 45.3663 36.7683 45.1085C37.4944 45.2171 38.0474 44.9411 38.4261 44.2797C37.3212 43.1748 37.3212 42.0691 38.4261 40.9641C37.3419 40.0307 36.2361 40.0307 35.1104 40.9641C34.0842 41.2211 34.0842 41.6355 35.1104 42.2074C33.4095 42.9783 32.1662 44.2216 31.3804 45.9374C31.2395 43.8793 31.9308 42.0838 33.4526 40.5495C31.3571 39.4587 31.3571 38.4914 33.4526 37.6485C33.9948 36.3097 34.4091 34.9281 34.696 33.504C35.8548 33.0473 36.9605 32.7713 38.0115 32.6751C38.2694 30.971 38.6838 29.3131 39.2549 27.7018C38.9995 27.0319 38.5851 26.4792 38.0115 26.0439C37.1826 27.1488 36.3538 27.1488 35.5249 26.0439C33.7287 27.8401 31.9333 29.6355 30.1371 31.4317C30.5697 31.8968 30.8457 32.4496 30.9659 33.0895C29.4839 35.2057 28.5166 37.5539 28.0649 40.1351C27.1954 39.2921 26.2281 39.1537 25.1637 39.7207C24.7584 41.5517 23.929 43.071 22.6766 44.2795ZM25.9922 45.9374C26.5451 46.2134 27.0971 46.4903 27.65 46.7662C27.475 45.1714 26.923 44.8955 25.9922 45.9374ZM27.65 46.7662C28.0305 50.5169 28.8593 50.7929 30.1366 47.5951C29.2175 47.5479 28.3885 47.2719 27.65 46.7662ZM22.6766 50.0818C22.6766 48.9769 23.2295 48.424 24.3344 48.424C24.0584 49.2528 23.5055 49.8058 22.6766 50.0818ZM29.3079 57.5418C29.3792 58.3674 29.1022 59.0575 28.4788 59.6137C29.9368 60.4493 30.9042 61.6926 31.38 63.3438C31.6062 61.8278 32.2975 60.5844 33.4522 59.6137C32.5263 58.0455 31.1446 57.3553 29.3079 57.5418Z" fill="#161616"/>
<path opacity="0.01" fill-rule="evenodd" clip-rule="evenodd" d="M44.2276 35.9907C44.9745 37.8366 46.3554 38.6656 48.3721 38.4774C48.3721 37.6485 48.3721 36.8196 48.3721 35.9907C46.8304 35.5174 45.4485 35.5174 44.2276 35.9907Z" fill="black"/>
<path opacity="0.01" fill-rule="evenodd" clip-rule="evenodd" d="M35.1103 40.9639C36.236 40.0306 37.3418 40.0306 38.4259 40.9639C37.321 42.0688 37.321 43.1745 38.4259 44.2795C38.0471 44.9409 37.4942 45.217 36.7681 45.1084C38.8802 47.2743 40.8148 47.1358 42.5703 44.6939C41.9304 43.6818 41.1015 42.8529 40.0836 42.2073C40.7069 41.6511 40.9838 40.9605 40.9125 40.135C38.5832 38.7441 36.6495 39.0201 35.1103 40.9639Z" fill="#030303"/>
<path opacity="0.01" fill-rule="evenodd" clip-rule="evenodd" d="M21.8478 44.2795C22.1239 44.2795 22.4007 44.2795 22.6768 44.2795C22.4007 42.0689 22.1239 42.0689 21.8478 44.2795Z" fill="black"/>
<path opacity="0.01" fill-rule="evenodd" clip-rule="evenodd" d="M21.8476 44.2793C20.6225 44.062 19.5177 44.3381 18.5321 45.1081C19.085 45.3842 19.6371 45.6611 20.1899 45.937C21.1954 45.7323 21.7481 45.1794 21.8476 44.2793Z" fill="black"/>
<path opacity="0.012" fill-rule="evenodd" clip-rule="evenodd" d="M27.65 46.7661C28.0305 50.5168 28.8594 50.7928 30.1367 47.595C29.2175 47.5477 28.3885 47.2718 27.65 46.7661Z" fill="#484848"/>
<path opacity="0.016" fill-rule="evenodd" clip-rule="evenodd" d="M24.3349 48.4238C24.0588 49.2527 23.506 49.8057 22.6771 50.0816C22.231 51.4219 21.955 52.8036 21.8481 54.226C23.4654 54.4524 24.7087 53.9003 25.5782 52.5682C25.7364 54.3985 26.1509 56.0562 26.8215 57.5416C26.6922 55.4148 26.9691 53.3425 27.6504 51.325C27.2277 49.8114 26.5364 49.673 25.5782 50.9105C25.3859 49.8852 24.9715 49.0561 24.3349 48.4238Z" fill="#1E1E1E"/>
<path d="M31.5154 42.5772C30.8315 42.3533 22.9584 40.5108 22.184 40.2223C20.7295 39.8596 17.3009 40.8664 16.3376 39.3763C14.6037 36.6941 10.6684 22.157 10.2129 21.6284C8.69337 19.8651 14.4679 42.0639 16.9372 44.6316C18.6163 46.3773 22.3081 47.0322 23.2914 47.767C25.8563 49.2939 29.6585 49.5703 31.9376 49.6855C36.2966 49.906 44.767 50.3656 48.2047 49.4757C53.9272 47.9942 59.0017 42.777 61.6702 40.9083C61.8089 40.8113 71.0311 28.6568 71.4671 28.1718C71.8019 27.7993 70.1844 28.1986 70.1844 28.1986C70.1844 28.1986 57.4008 41.1981 56.5967 41.1557C56.5967 41.1557 53.6216 41.6309 48.5932 41.015C48.5932 41.015 35.3397 43.6255 31.5154 42.5772Z" fill="#DC8D79"/>
<path d="M46.3728 50.0095C49.5008 50.0039 51.2332 49.029 51.7007 48.7761C54.6689 47.1702 61.8222 40.6479 62.333 40.3384C60.7956 40.3177 53.4284 48.0278 47.6693 49.2285C42.8216 49.2529 40.5015 49.6894 35.6417 49.819C35.8292 49.8549 42.9243 50.0095 46.3728 50.0095Z" fill="#AF7060"/>
<path d="M21.1462 47.5687C24.6636 48.7083 28.8452 50.0944 29.2744 49.5938C28.9357 49.4741 26.425 48.8119 26.0941 48.6674C23.4834 48.0736 18.3488 45.438 17.5519 45.2104C19.0968 46.1485 18.7857 46.804 21.1462 47.5687Z" fill="#AF7060"/>
<path d="M67.0665 27.846C69.0521 27.9827 69.8578 28.0118 72.1006 28.0178C65.4297 26.7018 58.0234 24.1825 53.0651 22.5623C50.2434 21.7665 47.5279 20.6775 44.9345 19.5682C43.4418 19.0989 41.9033 18.7608 40.1475 19.0207C36.8666 19.5066 32.5084 21.6646 28.9089 21.0405C26.2179 20.574 22.5768 19.0741 19.9642 18.2365C19.6123 18.2055 19.2599 18.1899 18.9091 18.1885C16.7371 19.1168 14.359 19.8449 11.8698 20.3668C11.094 21.0176 9.33517 20.6112 9.46367 21.3094C9.62083 22.1638 11.4436 25.2399 13.3494 25.7645C16.5557 26.647 25.7035 27.6147 30.1183 27.604C33.6374 27.987 38.2949 27.0932 40.9418 27.1527C45.0071 27.244 46.8638 28.1449 52.3454 28.1449C56.661 28.1449 58.1242 28.5652 62.4044 28.6399L67.0665 27.846Z" fill="#C9816E"/>
<path d="M41.4704 18.234C39.9978 18.3588 32.5856 20.1161 31.1881 20.5699L30.5307 20.7845C27.5583 19.718 24.5967 18.5993 21.5779 17.6097L21.2513 17.4625C20.9896 17.2876 20.6924 17.2412 20.433 17.247C20.1777 17.2341 19.8825 17.2711 19.6128 17.4327C16.9725 18.4802 14.374 19.5329 11.6103 20.4351L10.6738 20.6766C10.6738 20.6766 9.80882 20.9025 9.88074 21.4525C13.4095 20.7088 16.6302 19.6749 20.3299 18.3331C23.1574 19.0667 27.0568 21.6588 29.9741 21.8319C33.7738 22.0574 37.8381 19.7431 41.3596 19.2934C43.3705 19.0366 45.4397 20.1501 47.2584 20.5458C51.956 22.0794 60.7636 26.1702 66.7539 26.8798C66.5988 26.7481 44.7703 17.371 41.4704 18.234Z" fill="#AF7060"/>
<path d="M49.7731 41.3172C56.9066 41.9029 57.6289 41.0769 57.6289 41.0769C57.6289 41.0769 50.5277 40.9405 50.4527 40.9477C38.2496 42.0706 37.8124 43.2061 29.8781 42.2526C28.1598 41.8313 22.2954 40.0076 22.2761 40.0059C21.7859 40.166 13.7871 40.2699 15.8604 40.5983C16.5717 40.711 20.0546 40.9576 22.2553 41.2325C22.2553 41.2325 28.8713 43.1682 30.7781 43.3446C38.5265 44.0613 49.7731 41.3172 49.7731 41.3172Z" fill="#AF7060"/>
<path d="M18.1411 26.4495C19.8989 27.0823 29.2456 28.0698 31.0888 28.5219C39.2105 29.5345 44.4893 27.2886 44.4893 27.2886C56.9064 30.5211 71.3916 28.2562 72.2884 28.1284C72.4888 28.0999 66.0193 27.8424 64.782 27.7903C60.583 27.6137 54.7608 28.3659 52.6559 27.5776C50.9541 27.3762 44.3115 26.3825 44.2365 26.3897C40.3898 26.4211 34.9162 27.112 30.6683 27.1564C26.2455 27.2028 27.0875 26.5928 23.0403 26.1064C21.322 25.6851 16.7008 24.6555 16.6815 24.6537C16.4213 24.7387 14.2014 26.0529 12.7984 25.4011C10.8712 24.5057 9.96935 22.6025 9.96935 22.6025C9.96935 22.6025 10.0008 26.0613 14.1743 27.2039L18.1411 26.4495Z" fill="#AF7060"/>
</svg>
