<svg width="83" height="73" viewBox="0 0 83 73" fill="none" xmlns="http://www.w3.org/2000/svg">
<path d="M3.08967 30.729C4.7089 38.7114 8.31982 52.7359 11.2718 60.2944C11.7859 61.6107 12.1839 63.1103 12.5134 64.7017C28.0704 72.7964 49.1908 75.6865 65.16 69.7439C78.4417 57.6875 86.3055 33.9489 79.6936 18.2583C79.0926 16.832 78.3915 15.5116 77.6005 14.2909C69.8404 9.69998 61.7229 4.9958 52.8423 1.83541C49.9606 1.74457 46.9648 1.43458 43.8898 1C32.3677 1.26532 20.7345 4.02663 12.9653 6.89088C10.5523 7.72423 8.29616 8.74579 6.16349 9.92274C4.35283 11.7085 2.48596 13.4234 0.434367 14.8151C0.931971 19.5529 1.51336 24.4235 3.08967 30.729Z" fill="#F8BC99"/>
<path d="M0.264802 23.2502C2.72075 35.7841 9.11935 51.4513 11.6055 64.0001C11.6055 64.0001 10.2176 50.4479 7.92481 43.7367C5.17165 35.4774 4.33025 26.9583 1.63702 18.5827C1.63702 17.1242 1.50422 15.6627 1.30177 14.2002C0.875784 14.515 0.442202 14.8167 -0.00014769 15.1029C0.138817 17.8122 0.253711 20.5271 0.264802 23.2502Z" fill="#95725D"/>
<path d="M18.8569 38.9633C25.212 44.6148 23.1385 42.4647 34.1903 42.4647C55.6448 42.4647 65.3301 28.9366 65.3301 28.9366C65.3301 28.9366 55.6448 26.4575 34.1903 26.4575C12.7358 26.4575 12.2473 22.2637 12.2473 22.2637C12.2473 22.2637 11.5958 23.6907 11.6912 26.2202C11.9014 31.7917 14.7429 35.3047 18.8569 38.9633Z" fill="#482520"/>
<path d="M44.9046 52.5412L44.847 52.522C44.8273 52.5316 44.8079 52.541 44.7883 52.5503C44.2314 52.5958 43.6894 52.6751 43.1567 52.7746C42.325 52.6374 41.5649 52.2122 40.6043 52.245C40.3389 52.1145 40.036 51.9936 39.7024 51.8835C37.2578 51.8014 34.8201 51.6763 32.3166 51.6763C31.0338 51.6763 29.7606 52.0081 28.4917 52.1589C28.4893 52.1601 28.4868 52.1612 28.4843 52.1625L28.483 52.16C28.3261 52.1786 28.1693 52.1942 28.0125 52.2064L27.8558 52.2834C27.6656 52.3722 27.5339 52.563 27.5339 52.7842C27.5339 53.0053 27.6656 53.1962 27.8558 53.285L28.2836 53.4956C29.4044 55.5871 33.6081 55.2769 35.6924 55.2769C36.3982 55.2769 37.0786 55.2121 37.7438 55.108C40.401 55.1705 43.184 55.0441 45.1646 53.7092L45.2278 53.8335L45.6697 53.6159C45.7198 53.6153 45.7698 53.6149 45.8201 53.6149C45.8201 53.6149 46.3828 53.6149 46.3828 53.061C46.3828 52.507 45.8201 52.507 45.8201 52.507C45.7429 52.507 45.666 52.5078 45.5895 52.5092C45.5729 52.5078 45.5558 52.507 45.539 52.507H44.9763V52.536C44.9524 52.5376 44.9283 52.5394 44.9046 52.5412Z" fill="#DEA889"/>
<path d="M46.9771 52.2575C46.7217 52.2575 46.4662 52.2575 46.2108 52.2575C41.4079 50.3787 34.4742 51.3882 29.4222 51.4355C28.7931 51.642 28.1161 51.7125 27.453 51.7125L27.3583 51.7837L27.3431 51.7392L26.5146 52.011C26.3711 52.0544 26.2471 52.142 26.1589 52.2575C26.4402 52.2575 26.7216 52.2575 27.0029 52.2575C33.875 52.258 40.769 52.4968 47.6611 52.5305L46.9771 52.2575Z" fill="#95725D"/>
<path opacity="0.01" d="M52.8428 1.83562C52.1949 1.60509 51.5431 1.38277 50.887 1.16935C48.5818 0.995891 46.2383 0.946218 43.8902 1.00028C46.9651 1.43479 49.961 1.74472 52.8428 1.83562Z" fill="black"/>
<path opacity="0.01" fill-rule="evenodd" clip-rule="evenodd" d="M41.6484 28.6606C40.5435 29.2135 40.5435 29.2135 41.6484 28.6606Z" fill="black"/>
<path opacity="0.01" fill-rule="evenodd" clip-rule="evenodd" d="M40.8194 41.0939C43.0946 41.578 45.0285 42.6837 46.6216 44.4094C48.979 41.4685 48.1501 39.8108 44.135 39.4361C43.0773 38.5127 43.0773 37.6837 44.135 36.9493C45.0021 33.4025 43.7587 31.1927 40.405 30.3184C39.2735 31.2243 38.9967 32.3292 39.5762 33.6339C40.4232 34.3418 41.1137 35.1706 41.6483 36.1205C41.4461 37.8198 41.17 39.4775 40.8194 41.0939Z" fill="#101010"/>
<path opacity="0.01" fill-rule="evenodd" clip-rule="evenodd" d="M22.5838 45.2384C22.5433 47.3927 21.7143 49.1889 20.0972 50.6263C20.8034 52.0586 21.6323 52.197 22.5838 51.0408C22.5838 49.9359 23.1367 49.383 24.2416 49.383C24.109 47.9747 24.2466 46.5929 24.656 45.2385C24.8865 45.9978 25.3009 46.5499 25.8994 46.8963C26.8302 45.8545 27.3822 46.1304 27.5572 47.7252C28.2958 48.2309 29.1247 48.5068 30.0439 48.5541C31.8666 47.581 33.5244 47.9954 35.0172 49.7974C33.2128 51.267 31.6934 53.0624 30.4584 55.1853C30.1823 54.6324 29.9055 54.0803 29.6295 53.5274C29.2648 54.8338 28.5742 55.9396 27.5573 56.843C28.1731 57.4083 28.7252 57.9612 29.2151 58.5008C28.3862 58.5008 27.5573 58.5008 26.7285 58.5008C27.6237 59.7814 27.6237 61.0248 26.7285 62.2308C28.2122 63.668 29.87 64.9114 31.7019 65.9607C33.5594 65.5198 34.8029 64.4149 35.4319 62.6453C36.769 63.5752 37.7363 63.1608 38.3331 61.4019C35.6227 60.1378 34.7937 58.204 35.8464 55.5997C35.2222 54.3672 34.5318 54.2288 33.7743 55.1853C33.1676 53.3566 33.7204 51.9759 35.4321 51.0409C35.9253 49.8813 35.7869 48.7763 35.0177 47.7253C35.3119 46.8782 35.8649 46.3253 36.6755 46.0675C37.4016 46.176 37.9546 45.9001 38.3333 45.2387C37.2284 44.1338 37.2284 43.0281 38.3333 41.9231C37.2491 40.9897 36.1433 40.9897 35.0177 41.9231C33.9914 42.18 33.9914 42.5945 35.0177 43.1664C33.3168 43.9373 32.0734 45.1806 31.2876 46.8964C31.1468 44.8383 31.838 43.0428 33.3599 41.5085C31.2644 40.4177 31.2644 39.4504 33.3599 38.6075C33.902 37.2687 34.3163 35.8871 34.6032 34.463C35.762 34.0063 36.8677 33.7303 37.9188 33.6341C38.1767 31.93 38.5911 30.2721 39.1621 28.6607C38.9068 27.9909 38.4923 27.4382 37.9188 27.0029C37.0898 28.1078 36.261 28.1078 35.4321 27.0029C33.6359 28.7991 31.8406 30.5944 30.0443 32.3907C30.477 32.8558 30.7529 33.4086 30.8732 34.0485C29.3911 36.1647 28.4238 38.5128 27.9722 41.0941C27.1026 40.2511 26.1354 40.1127 25.071 40.6797C24.6657 42.5107 23.8362 44.0299 22.5838 45.2384ZM25.8994 46.8963C26.4523 47.1724 27.0043 47.4493 27.5572 47.7252C27.3822 46.1304 26.8302 45.8545 25.8994 46.8963ZM27.5572 47.7252C27.9377 51.4759 28.7665 51.7519 30.0439 48.5541C29.1247 48.5068 28.2958 48.2309 27.5572 47.7252ZM22.5838 51.0408C22.5838 49.9359 23.1367 49.383 24.2416 49.383C23.9656 50.2118 23.4128 50.7648 22.5838 51.0408ZM29.2151 58.5008C29.2864 59.3264 29.0094 60.0165 28.3861 60.5727C29.844 61.4083 30.8114 62.6516 31.2873 64.3027C31.5135 62.7867 32.2047 61.5433 33.3594 60.5727C32.4335 59.0045 31.0518 58.3143 29.2151 58.5008Z" fill="#161616"/>
<path opacity="0.01" fill-rule="evenodd" clip-rule="evenodd" d="M44.1349 36.9497C44.8817 38.7955 46.2626 39.6246 48.2793 39.4364C48.2793 38.6075 48.2793 37.7785 48.2793 36.9497C46.7376 36.4764 45.3558 36.4764 44.1349 36.9497Z" fill="black"/>
<path opacity="0.01" fill-rule="evenodd" clip-rule="evenodd" d="M35.0175 41.9229C36.1432 40.9895 37.249 40.9895 38.3331 41.9229C37.2282 43.0278 37.2282 44.1335 38.3331 45.2385C37.9543 45.8999 37.4014 46.1759 36.6753 46.0674C38.7874 48.2333 40.722 48.0948 42.4775 45.6529C41.8377 44.6408 41.0087 43.8119 39.9909 43.1662C40.6141 42.6101 40.891 41.9195 40.8197 41.094C38.4905 39.7031 36.5568 39.9791 35.0175 41.9229Z" fill="#030303"/>
<path opacity="0.01" fill-rule="evenodd" clip-rule="evenodd" d="M21.7551 45.2385C22.0312 45.2385 22.308 45.2385 22.584 45.2385C22.3079 43.0279 22.0311 43.0279 21.7551 45.2385Z" fill="black"/>
<path opacity="0.01" fill-rule="evenodd" clip-rule="evenodd" d="M21.7548 45.2382C20.5297 45.021 19.4249 45.2971 18.4393 46.0671C18.9922 46.3432 19.5443 46.62 20.0971 46.896C21.1026 46.6913 21.6553 46.1384 21.7548 45.2382Z" fill="black"/>
<path opacity="0.012" fill-rule="evenodd" clip-rule="evenodd" d="M27.5573 47.7251C27.9378 51.4758 28.7666 51.7518 30.0439 48.554C29.1248 48.5067 28.2957 48.2308 27.5573 47.7251Z" fill="#484848"/>
<path opacity="0.016" fill-rule="evenodd" clip-rule="evenodd" d="M24.2421 49.3828C23.966 50.2117 23.4132 50.7647 22.5843 51.0406C22.1383 52.3809 21.8623 53.7626 21.7554 55.185C23.3726 55.4113 24.6159 54.8593 25.4854 53.5272C25.6437 55.3575 26.0581 57.0152 26.7287 58.5006C26.5994 56.3737 26.8763 54.3014 27.5576 52.284C27.1349 50.7704 26.4436 50.632 25.4854 51.8695C25.2931 50.8442 24.8787 50.0151 24.2421 49.3828Z" fill="#1E1E1E"/>
<path d="M42.1735 35.2008C27.8357 28.4075 24.4284 34.6163 17.8543 33.1919C12.3998 33.1919 13.1381 28.4146 11.9351 26.7752C10.4979 24.8168 10.8694 36.1044 13.205 38.9561C14.7931 40.8951 18.1218 42.2599 19.0518 43.076C21.4778 44.7718 26.909 43.5671 29.9711 43.9083C35.7245 44.5494 39.1304 46.2755 44.249 45.5121C52.0971 43.2315 61.4449 38.4392 65.8924 30.1646C65.8924 30.1646 66.4156 30.1288 65.8926 29.2086C60.2703 30.0807 56.2755 37.2289 42.1735 35.2008Z" fill="#DC8D79"/>
<path d="M57.9291 27.224L57.8936 27.1694C57.8095 27.0615 57.6274 26.9234 57.3787 26.7688C55.2064 26.0926 53.3908 25.4823 52.5054 25.3698C48.4365 24.8525 37.4705 22.7635 33.8676 22.7635L33.5402 22.694C30.9617 25.2485 26.1626 22.7443 22.2324 21.7471C19.8438 21.8705 15.8159 22.1033 14.0715 22.7636C13.7318 23.1642 12.5704 28.4803 15.4681 30.1053C16.8267 30.8672 20.0249 32.9284 28.958 33.5375C39.0372 34.2247 52.8378 34.0735 56.1032 31.7049C57.3971 30.7663 60.7082 28.294 60.7539 27.1694C60.7539 27.1694 58.2652 27.2907 57.9291 27.224Z" fill="#F9F9F9"/>
<path d="M63.9005 28.7694C65.7802 28.9213 66.5428 28.9536 68.666 28.9603C62.3509 27.4975 55.3397 24.697 50.6459 22.896C47.9746 22.0114 45.404 20.801 42.9489 19.5678C41.5359 19.0461 40.0794 18.6703 38.4172 18.9593C35.3113 19.4994 31.1856 21.8981 27.778 21.2044C25.2306 20.6859 21.7837 19.0186 19.3104 18.0875C18.9773 18.0531 18.6437 18.0358 18.3116 18.0342C16.2555 19.0661 14.0042 19.8755 11.6478 20.4556C10.9133 21.179 9.24831 20.7273 9.36995 21.5034C9.51874 22.4531 11.2443 25.8725 13.0484 26.4556C16.0837 27.4365 24.7437 28.5123 28.9229 28.5003C32.2544 28.926 36.6634 27.9326 39.1691 27.9987C43.0176 28.1002 44.7753 29.1016 49.9645 29.1016C54.0499 29.1016 55.4351 29.5687 59.487 29.6519L63.9005 28.7694Z" fill="#C9816E"/>
<path d="M39.6695 18.0846C38.2754 18.2233 31.2587 20.1767 29.9357 20.6812L29.3133 20.9198C26.4995 19.7342 23.6959 18.4907 20.838 17.3907L20.5289 17.2271C20.2811 17.0327 19.9998 16.981 19.7543 16.9875C19.5126 16.9732 19.2331 17.0143 18.9778 17.1939C16.4783 18.3584 14.0184 19.5284 11.4021 20.5313L10.5155 20.7998C10.5155 20.7998 9.6967 21.0509 9.76479 21.6623C13.1053 20.8356 16.1543 19.6863 19.6566 18.1948C22.3333 19.0103 26.0248 21.8916 28.7864 22.084C32.3835 22.3347 36.231 19.7621 39.5647 19.2622C41.4683 18.9768 43.4272 20.2145 45.1488 20.6544C49.5958 22.3591 57.9336 26.9064 63.6045 27.6952C63.4577 27.5488 42.7934 17.1253 39.6695 18.0846Z" fill="#AF7060"/>
<path d="M17.585 27.2167C19.2491 27.9201 28.0973 29.0178 29.8421 29.5203C37.5307 30.6459 42.5279 28.1494 42.5279 28.1494C54.2827 31.7426 67.9953 29.225 68.8443 29.0829C69.034 29.0512 62.9096 28.765 61.7383 28.7071C57.7633 28.5108 52.2516 29.347 50.2589 28.4706C48.6479 28.2468 42.3596 27.1422 42.2887 27.1502C38.6471 27.1851 33.4654 27.953 29.4441 28.0025C25.2572 28.054 26.0543 27.376 22.2229 26.8353C20.5964 26.3669 16.2215 25.2225 16.2033 25.2205C15.957 25.315 13.8555 26.7758 12.5273 26.0512C10.703 25.0559 9.84914 22.9404 9.84914 22.9404C9.84914 22.9404 9.87887 26.7851 13.8298 28.0552L17.585 27.2167Z" fill="#AF7060"/>
<path d="M30.2681 44.8817L33.0422 45.5319C36.2647 45.9953 37.1967 46.3993 40.4585 46.3993C43.9428 46.392 48.1528 46.0092 51.0833 44.1476C53.8908 42.364 55.6956 40.2657 58.5716 39.3376C59.0185 38.9912 59.4808 38.6478 59.9639 38.3041C58.5097 38.281 57.0994 38.369 56.0262 38.9011C51.3271 41.2315 48.6018 44.1983 43.1546 45.5319C38.5694 45.5589 34.3694 44.0037 29.7728 44.1476C26.9486 44.1476 30.2681 44.8817 30.2681 44.8817Z" fill="#AF7060"/>
<path d="M14.6786 41.1446L15.1946 41.3921C17.5445 42.5937 19.7622 44.0084 22.8447 44.5132C22.8447 44.5132 26.5763 44.0986 26.9935 43.756C26.3381 43.5592 24.2787 43.6688 22.159 43.6007C19.3032 42.6234 17.6449 41.9981 16.3983 40.8069C15.9211 40.5468 13.7118 38.3157 13.3306 38.0321C12.8321 38.4206 14.1371 40.7342 14.6786 41.1446Z" fill="#AF7060"/>
</svg>
