<svg width="83" height="72" viewBox="0 0 83 72" fill="none" xmlns="http://www.w3.org/2000/svg">
<path d="M3.08967 29.729C4.7089 37.7114 8.31977 51.7359 11.2718 59.2944C11.7858 60.6107 12.1839 62.1103 12.5134 63.7017C28.0704 71.7964 49.1908 74.6865 65.16 68.7439C78.4417 56.6875 86.3055 32.9489 79.6936 17.2583C79.0926 15.832 78.3915 14.5116 77.6005 13.2909C69.8404 8.69998 61.7229 3.9958 52.8423 0.835412C49.9606 0.744571 46.9648 0.434581 43.8898 0C32.3677 0.265316 20.7344 3.02663 12.9652 5.89088C10.5523 6.72423 8.29616 7.74577 6.16349 8.92272C4.35283 10.7085 2.48596 12.4233 0.434367 13.815C0.931971 18.5529 1.51336 23.4235 3.08967 29.729Z" fill="#F8BC99"/>
<path d="M0.264802 22.2502C2.72075 34.7841 9.11935 50.4513 11.6055 63.0001C11.6055 63.0001 10.2176 49.4479 7.92481 42.7367C5.17165 34.4774 4.33021 25.9583 1.63697 17.5827C1.63697 16.1242 1.50417 14.6627 1.30173 13.2002C0.875738 13.515 0.442202 13.8167 -0.00014769 14.1029C0.138817 16.8122 0.253711 19.5271 0.264802 22.2502Z" fill="#95725D"/>
<path d="M20.2581 46.4338C26.6132 52.0853 23.6014 48.8368 34.6532 48.8368C42.1843 48.8368 48.6722 52.2526 53.5827 48.1429C59.6885 43.0331 69.4375 26.4029 69.4375 26.4029C69.4375 26.4029 57.8849 25.478 36.4305 25.478C14.976 25.478 14.4875 21.2842 14.4875 21.2842C14.4875 21.2842 13.836 22.7112 13.9314 25.2408C14.1416 30.8122 16.1441 42.7752 20.2581 46.4338Z" fill="#482520"/>
<path d="M34.5345 49.8618L35.3907 50.0931C37.8609 50.0939 39.6282 49.9288 41.6491 48.499C43.0237 48.5621 44.7792 48.8427 46.5915 49.0178C46.9474 49.0731 47.3119 49.1043 47.6861 49.1078C51.2674 49.3433 54.8172 48.9206 55.8746 45.3856C55.9067 45.3055 55.9201 45.2258 55.9247 45.1594C55.9332 45.0738 55.9307 44.964 55.8917 44.8542C54.8226 39.6928 48.9534 35.7284 44.7697 32.7828C38.5416 29.278 29.3232 27.7007 26.1315 35.37C26.0603 41.1792 27.7736 48.3262 34.2186 49.6732C34.3625 49.8079 34.5345 49.8618 34.5345 49.8618Z" fill="#B65E50"/>
<path d="M36.6187 39.844C36.6681 39.8829 39.7639 43.2809 42.609 45.3931C44.5401 46.8267 46.5807 47.2455 46.6045 47.2537C49.2838 47.4443 50.7019 47.9461 53.0015 46.8189C53.3663 46.6402 54.1395 45.4611 54.4736 45.2597C54.4907 45.2082 54.5072 45.155 54.5225 45.1016C53.6609 40.4082 47.7278 36.4998 43.9856 33.8578C38.7245 30.882 30.3766 29.071 27.4952 35.6077C27.5787 41.1298 29.0891 48.6242 36.4012 48.5879C37.2542 48.5928 37.9495 48.449 38.7223 47.9256C40.6212 46.6399 36.6615 40.0458 36.6187 39.844Z" fill="#C36556"/>
<path d="M37.8635 45.4601C37.8624 45.484 37.859 45.5106 37.8537 45.5398C37.7994 46.2618 37.6743 46.967 37.4189 47.6419C37.44 47.6776 37.4664 47.7093 37.4986 47.7365C37.7688 47.9644 38.2222 47.9659 38.7346 47.8577C38.8111 47.9169 38.9228 47.9538 39.0786 47.9C39.2075 47.8554 39.2743 47.7807 39.3069 47.7031C40.1577 47.4312 41.0437 46.9909 41.4759 46.8416C41.7768 46.7311 42.0638 46.5565 42.2909 46.3299L42.8448 46.1385C43.0436 46.0698 43.1491 45.853 43.0805 45.6542C43.0746 45.6371 43.0675 45.6206 43.0595 45.605C43.1554 45.5926 43.2602 45.5396 43.3322 45.3916C43.4988 45.0492 43.1564 44.8826 43.1564 44.8826L42.7628 44.7128C42.3942 44.6642 42.0079 44.5412 41.6266 44.3585C41.2575 43.9331 40.9343 43.5083 40.6207 43.0825C39.6033 42.408 38.6797 41.519 37.8386 40.397C37.7296 42.0114 37.9569 43.6954 37.869 45.3036C37.8677 45.3564 37.8658 45.4086 37.8635 45.4601ZM38.5197 45.8585C38.57 46.3087 38.5776 46.7619 38.5148 47.2202C38.3369 47.2553 38.1837 47.2629 38.0686 47.2313C37.5905 47.0999 38.2509 46.4286 38.5197 45.8585Z" fill="#AD594C"/>
<path d="M38.9978 43.4896C39.0301 43.5951 39.0682 43.6927 39.1113 43.7815C39.0794 42.3117 38.7902 40.9469 38.2178 39.467C37.5736 37.8015 35.9643 36.6639 35.435 35.1963C34.9905 37.857 37.9318 42.031 38.9978 43.4896Z" fill="#B65E50"/>
<path d="M47.7785 60.8107L47.721 60.7915C47.7014 60.8012 47.6819 60.8106 47.6623 60.8198C47.1054 60.8654 46.5634 60.9446 46.0308 61.0441C45.199 60.907 44.4389 60.4818 43.4783 60.5146C43.213 60.384 42.91 60.2631 42.5765 60.1531C40.1318 60.071 37.6941 59.9458 35.1907 59.9458C33.9078 59.9458 32.6346 60.2776 31.3657 60.4284C31.3632 60.4297 31.3607 60.4307 31.3583 60.432L31.357 60.4295C31.2001 60.4481 31.0433 60.4637 30.8865 60.4759L30.7298 60.5529C30.5395 60.6417 30.4079 60.8326 30.4079 61.0537C30.4079 61.2748 30.5395 61.4657 30.7298 61.5545L31.1577 61.7651C32.2784 63.8567 36.4821 63.5464 38.5663 63.5464C39.2722 63.5464 39.9526 63.4816 40.6177 63.3776C43.2749 63.4401 46.058 63.3136 48.0386 61.9788L48.1018 62.1031L48.5437 61.8854C48.5938 61.8848 48.6438 61.8845 48.6941 61.8845C48.6941 61.8845 49.2568 61.8845 49.2568 61.3305C49.2568 60.7766 48.6941 60.7766 48.6941 60.7766C48.6168 60.7766 48.54 60.7773 48.4635 60.7788C48.4469 60.7773 48.4299 60.7766 48.413 60.7766H47.8503V60.8056C47.8264 60.8072 47.8023 60.809 47.7785 60.8107Z" fill="#DEA889"/>
<path d="M49.8511 60.5271C49.5957 60.5271 49.3402 60.5271 49.0847 60.5271C44.2819 58.6482 37.3483 59.6578 32.2962 59.7051C31.6671 59.9116 30.9901 59.9821 30.327 59.9821L30.2323 60.0532L30.2172 60.0087L29.3886 60.2805C29.2451 60.324 29.1211 60.4115 29.0329 60.527C29.3142 60.527 29.5956 60.527 29.8769 60.527C36.749 60.5275 43.643 60.7663 50.5352 60.8001L49.8511 60.5271Z" fill="#95725D"/>
<path d="M62.467 27.5741L62.43 27.5264C62.3424 27.4321 62.1526 27.3113 61.8935 27.1761C59.6302 26.5848 57.7385 26.0512 56.8159 25.9528C52.5766 25.5005 41.1511 23.6739 37.3971 23.6739L37.0561 23.6132C34.3695 25.8467 29.3693 23.6571 25.2744 22.7852C22.7858 22.8931 18.589 23.0966 16.7715 23.674C16.4176 24.0243 15.2076 28.6726 18.2266 30.0935C19.6421 30.7597 22.9743 32.562 32.2818 33.0946C42.7834 33.6955 57.1623 33.5632 60.5646 31.4922C61.9127 30.6715 65.3625 28.5097 65.4102 27.5264C65.4102 27.5264 62.8172 27.6325 62.467 27.5741Z" fill="#F9F9F9"/>
<path d="M21.0513 46.8286L21.0773 46.8511C21.1382 46.8953 21.2692 46.9503 21.4474 47.0108C22.9956 47.2516 24.2902 47.472 24.9191 47.5005C27.8089 47.6313 35.6067 48.2807 38.1596 48.2008L38.3925 48.2233C40.1854 47.0748 43.6192 48.0383 46.4172 48.3772C48.1079 48.2715 50.9588 48.0828 52.1859 47.762C52.4213 47.5834 53.1731 45.2866 51.0983 44.6566C50.1255 44.3612 47.8319 43.5515 41.4943 43.4893C34.3435 43.4191 24.5672 43.7896 22.2852 44.8738C21.3809 45.3035 19.068 46.433 19.0506 46.9145C19.0506 46.9145 20.8123 46.8075 21.0513 46.8286Z" fill="#F9F9F9"/>
<path opacity="0.01" d="M55.083 0.856113C54.4351 0.625577 53.7833 0.403263 53.1272 0.189834C50.822 0.0163798 48.4786 -0.0332708 46.1305 0.0207947C49.2054 0.455299 52.2012 0.765212 55.083 0.856113Z" fill="black"/>
<path opacity="0.01" fill-rule="evenodd" clip-rule="evenodd" d="M43.8887 27.6812C42.7838 28.234 42.7838 28.234 43.8887 27.6812Z" fill="black"/>
<path opacity="0.01" fill-rule="evenodd" clip-rule="evenodd" d="M43.0596 40.1144C45.3349 40.5985 47.2688 41.7042 48.8618 43.4299C51.2192 40.489 50.3904 38.8313 46.3752 38.4565C45.3176 37.5332 45.3176 36.7042 46.3752 35.9699C47.2423 32.423 45.9989 30.2132 42.6452 29.3389C41.5137 30.2448 41.2369 31.3497 41.8163 32.6544C42.6634 33.3623 43.3539 34.1911 43.8885 35.141C43.6863 36.8403 43.4103 38.498 43.0596 40.1144Z" fill="#101010"/>
<path opacity="0.01" fill-rule="evenodd" clip-rule="evenodd" d="M24.8241 44.259C24.7835 46.4132 23.9545 48.2094 22.3374 49.6468C23.0436 51.0791 23.8725 51.2175 24.8241 50.0613C24.8241 48.9564 25.377 48.4035 26.4819 48.4035C26.3493 46.9952 26.4868 45.6134 26.8963 44.259C27.1267 45.0183 27.5411 45.5704 28.1396 45.9168C29.0704 44.875 29.6224 45.1509 29.7974 46.7457C30.536 47.2514 31.3649 47.5273 32.2841 47.5746C34.1068 46.6014 35.7646 47.0159 37.2575 48.8179C35.453 50.2875 33.9337 52.0829 32.6987 54.2058C32.4226 53.6529 32.1457 53.1008 31.8697 52.548C31.505 53.8543 30.8145 54.9601 29.7976 55.8635C30.4134 56.4288 30.9654 56.9817 31.4554 57.5213C30.6264 57.5213 29.7975 57.5213 28.9687 57.5213C29.8639 58.8019 29.8639 60.0453 28.9687 61.2513C30.4524 62.6886 32.1102 63.9319 33.9421 64.9812C35.7997 64.5403 37.0431 63.4354 37.6722 61.6657C39.0092 62.5957 39.9765 62.1813 40.5733 60.4224C37.8629 59.1583 37.0339 57.2246 38.0866 54.6202C37.4625 53.3877 36.7721 53.2493 36.0145 54.2058C35.4079 52.3771 35.9607 50.9964 37.6723 50.0614C38.1655 48.9018 38.027 47.7968 37.2579 46.7458C37.5521 45.8987 38.105 45.3458 38.9157 45.088C39.6418 45.1965 40.1948 44.9206 40.5736 44.2592C39.4687 43.1543 39.4687 42.0486 40.5736 40.9436C39.4894 40.0102 38.3836 40.0102 37.2579 40.9436C36.2317 41.2005 36.2317 41.615 37.2579 42.1869C35.557 42.9578 34.3137 44.2011 33.5279 45.9169C33.387 43.8588 34.0782 42.0633 35.6001 40.529C33.5046 39.4382 33.5046 38.4709 35.6001 37.6279C36.1422 36.2892 36.5566 34.9076 36.8434 33.4835C38.0023 33.0268 39.108 32.7508 40.159 32.6546C40.4169 30.9505 40.8313 29.2926 41.4023 27.6812C41.147 27.0114 40.7325 26.4587 40.159 26.0234C39.3301 27.1283 38.5012 27.1283 37.6724 26.0234C35.8762 27.8196 34.0808 29.615 32.2845 31.4112C32.7172 31.8763 32.9931 32.4291 33.1134 33.069C31.6313 35.1852 30.664 37.5334 30.2124 40.1146C29.3428 39.2716 28.3756 39.1332 27.3112 39.7002C26.9059 41.5312 26.0764 43.0505 24.8241 44.259ZM28.1396 45.9168C28.6925 46.1929 29.2446 46.4698 29.7974 46.7457C29.6224 45.1509 29.0704 44.875 28.1396 45.9168ZM29.7974 46.7457C30.1779 50.4964 31.0068 50.7724 32.2841 47.5746C31.3649 47.5273 30.536 47.2514 29.7974 46.7457ZM24.8241 50.0613C24.8241 48.9564 25.377 48.4035 26.4819 48.4035C26.2058 49.2323 25.653 49.7852 24.8241 50.0613ZM31.4554 57.5213C31.5266 58.3469 31.2497 59.037 30.6263 59.5932C32.0843 60.4288 33.0516 61.6721 33.5275 63.3233C33.7537 61.8073 34.445 60.5638 35.5996 59.5932C34.6738 58.025 33.2921 57.3348 31.4554 57.5213Z" fill="#161616"/>
<path opacity="0.01" fill-rule="evenodd" clip-rule="evenodd" d="M46.3751 35.9702C47.1219 37.816 48.5029 38.6451 50.5195 38.4569C50.5195 37.628 50.5195 36.7991 50.5195 35.9702C48.9779 35.4969 47.596 35.4969 46.3751 35.9702Z" fill="black"/>
<path opacity="0.01" fill-rule="evenodd" clip-rule="evenodd" d="M37.2578 40.9434C38.3834 40.0101 39.4893 40.0101 40.5734 40.9434C39.4685 42.0483 39.4685 43.154 40.5734 44.259C40.1946 44.9204 39.6417 45.1964 38.9156 45.0878C41.0277 47.2538 42.9622 47.1153 44.7178 44.6734C44.0779 43.6613 43.249 42.8324 42.2311 42.1868C42.8544 41.6306 43.1313 40.94 43.06 40.1145C40.7307 38.7236 38.797 38.9996 37.2578 40.9434Z" fill="#030303"/>
<path opacity="0.01" fill-rule="evenodd" clip-rule="evenodd" d="M23.9953 44.259C24.2714 44.259 24.5482 44.259 24.8242 44.259C24.5481 42.0484 24.2713 42.0484 23.9953 44.259Z" fill="black"/>
<path opacity="0.01" fill-rule="evenodd" clip-rule="evenodd" d="M23.9951 44.2588C22.77 44.0415 21.6651 44.3176 20.6796 45.0876C21.2325 45.3636 21.7846 45.6405 22.3374 45.9165C23.3429 45.7118 23.8956 45.1589 23.9951 44.2588Z" fill="black"/>
<path opacity="0.012" fill-rule="evenodd" clip-rule="evenodd" d="M29.7975 46.7456C30.178 50.4963 31.0069 50.7723 32.2842 47.5745C31.365 47.5272 30.536 47.2513 29.7975 46.7456Z" fill="#484848"/>
<path opacity="0.016" fill-rule="evenodd" clip-rule="evenodd" d="M26.4823 48.4033C26.2062 49.2322 25.6535 49.7852 24.8245 50.0611C24.3785 51.4014 24.1025 52.7831 23.9956 54.2055C25.6128 54.4318 26.8561 53.8798 27.7256 52.5478C27.8839 54.378 28.2984 56.0357 28.969 57.5211C28.8396 55.3943 29.1165 53.322 29.7979 51.3045C29.3752 49.7909 28.6838 49.6526 27.7257 50.89C27.5334 49.8647 27.1189 49.0356 26.4823 48.4033Z" fill="#1E1E1E"/>
<path d="M61.332 25.0476L61.2974 24.9939C61.2158 24.8877 61.0389 24.7517 60.7974 24.5995C58.6875 23.9338 56.9241 23.333 56.0642 23.2222C52.1124 22.713 41.4617 20.6564 37.9624 20.6564L37.6444 20.588C35.14 23.1028 30.479 20.6375 26.6618 19.6558C26.3817 19.6704 26.1039 19.6878 25.829 19.7082C27.3686 21.8509 28.3908 24.3886 28.6842 27.3399C28.7391 27.8926 28.9743 31.6574 28.8306 32.1675C29.6861 32.4867 31.2662 32.5641 32.4725 32.247C33.3549 32.015 34.3315 31.141 34.3842 30.9721C36.3116 32.5266 42.7615 32.0872 43.0719 30.3501C44.4078 31.3138 46.8483 31.968 48.5341 31.3614C49.0374 31.173 50.2887 30.8678 50.6053 30.5263C50.824 30.2905 50.7063 29.4433 50.9046 29.6899C51.2044 30.0627 52.6429 32.5805 53.239 32.617C54.3247 32.6836 56.3871 30.4233 56.5469 29.2702C57.3258 29.9257 58.4215 31.1499 59.8288 30.4611C60.2207 30.2693 60.0343 29.6512 60.4618 29.5105C61.4372 29.1893 62.6373 30.2035 62.8781 28.7436C63.0514 27.6929 61.6116 26.502 61.656 25.3949C61.656 25.3949 61.6584 25.1133 61.332 25.0476Z" fill="#F9F9F9"/>
<path d="M28.3987 22.4444C31.5151 22.4638 32.5426 25.8609 32.7982 28.3296C33.1381 28.8735 33.4598 29.4292 33.7154 29.9754C33.8055 29.8753 33.8065 29.7569 33.8065 29.7569L33.8105 29.2796C33.8288 27.087 33.5687 22.7357 37.5668 22.7304C40.954 21.2569 41.8906 26.3148 42.5516 28.7111C42.5517 28.7535 42.5519 28.7956 42.5521 28.8373C42.7578 29.2209 42.9413 29.6065 43.075 29.9696C43.2253 29.378 43.4498 28.7942 43.7239 28.2234C44.2941 25.4687 45.9003 20.8284 48.2753 24.5176C49.2797 25.9978 48.886 27.8263 49.7978 29.3001L50.0938 29.7599C50.1283 29.8317 50.1962 29.9121 50.3296 29.953C50.3824 29.9737 50.4446 29.9875 50.5163 29.9867C50.6562 29.6045 50.8178 29.1846 51.0085 28.7712C51.0801 25.7643 51.5254 20.8776 54.8132 25.9708C54.8245 25.9943 54.8394 26.0187 54.8589 26.0423C55.3229 26.7781 55.5308 27.4349 55.6237 28.1474C55.6914 28.119 55.7694 28.1031 55.8523 28.1036C56.0394 28.1047 56.2002 28.1895 56.2744 28.311L56.5784 28.7833L56.4521 28.8306C56.5118 28.9102 56.5656 28.9892 56.6153 29.0681C56.6216 27.8495 56.4175 26.8698 55.7137 25.7487C55.6965 23.5629 57.0633 24.9592 58.0713 26.6857C58.193 26.6903 58.3023 26.7302 58.3824 26.7922L59.0033 27.2734L58.8403 27.3961C59.6423 28.1941 59.7605 29.1927 59.7569 30.2562C60.0539 30.1833 60.0561 29.9196 60.0561 29.9196L60.0601 29.4423C60.0481 28.5894 59.6813 27.0911 59.064 25.8555C61.3597 24.4123 61.6766 27.1825 62.5798 28.5856L62.564 28.9805C62.564 28.9805 62.561 29.3385 63.0297 29.3414C63.0872 29.3417 63.1376 29.3367 63.1819 29.3275C63.4468 29.412 63.6746 29.2405 63.6746 29.2405C65.0561 28.1955 64.9042 26.906 65.3721 25.8918C61.1641 25.011 57.6366 23.425 56.0645 23.2224C52.1127 22.7132 41.4621 20.6566 37.9627 20.6566L37.6448 20.5882C34.9075 23.3368 29.5939 20.1362 25.6216 19.4258C26.3451 20.3878 26.9627 21.432 27.4544 22.56C27.7382 22.4793 28.0519 22.4383 28.3987 22.4444Z" fill="#F9F9F9"/>
<path d="M33.1597 53.4206C33.3841 53.2124 33.5824 52.962 33.7539 52.6805C33.7948 52.8085 33.8403 52.9245 33.8901 53.0263C34.1674 53.5928 34.6726 54.2057 35.2531 54.541C35.6224 54.6118 36.008 54.6864 36.4054 54.7624C36.6495 54.7049 36.8903 54.5715 37.1182 54.3418L36.9931 54.5426C36.9931 54.5426 37.4578 54.5817 37.4926 54.2024C37.4983 54.1403 37.4906 54.0874 37.4738 54.0422C38.5664 53.339 39.1262 52.1864 39.3139 50.9919C40.1584 53.7049 44.1283 55.217 44.6197 51.3495C44.8003 51.3106 44.9013 51.1746 44.9013 51.1746C46.6718 48.7028 43.8594 43.6046 40.2317 46.2634C39.7099 46.6459 39.7117 48.3798 39.3486 49.3224C39.3233 49.093 39.286 48.8696 39.2381 48.6556C39.0684 47.8976 40.0426 46.4293 38.9741 45.8479C38.2805 45.4705 36.7704 45.8602 35.9237 45.7889C35.112 45.7599 34.5249 46.3439 34.1314 47.2021C33.5248 45.7863 32.2634 44.9625 30.2851 45.8504C30.0272 47.1552 29.6955 48.4344 29.2942 49.6848C29.1347 50.2217 28.9851 50.7688 28.8441 51.3251C28.9565 52.3613 29.2722 53.2699 29.9602 53.7613C30.7672 53.8452 31.5406 53.9315 32.2656 54.0279C32.5224 53.9682 32.7972 53.8856 33.0911 53.7781L33.1597 53.4206Z" fill="#F9F9F9"/>
<path d="M49.7806 48.3945C48.9447 46.6717 47.5496 44.8694 46.0128 45.4211C45.7468 45.5166 44.7385 50.2031 44.679 50.7302C44.2862 55.0081 49.2726 55.2417 50.1648 51.6296C50.4821 52.0656 50.8664 52.4703 51.2695 52.7912C52.5651 51.5055 53.7231 50.0067 54.8525 48.6602C53.2806 47.6914 51.1742 47.3078 49.7806 48.3945Z" fill="#F9F9F9"/>
<path d="M50.8417 51.0776L50.5822 50.5536C50.5194 50.419 50.3675 50.3168 50.182 50.3012C49.9254 50.2796 49.7018 50.4319 49.6825 50.6414C49.6767 50.7051 49.6904 50.7668 49.7196 50.8223L49.8557 51.0972C49.3776 53.4625 46.3689 54.9986 44.8544 51.879L44.6351 51.1626C44.591 51.0027 44.4245 50.8752 44.2155 50.8576C43.9613 50.8362 43.7395 50.9854 43.7166 51.1918L43.6542 51.7385C42.4298 53.6395 40.8286 54.0537 39.5734 51.4035L39.3138 50.8794C39.2511 50.7448 39.0991 50.6427 38.9137 50.627C38.657 50.6054 38.4334 50.7577 38.4141 50.9672L38.3686 51.4625C37.343 53.1346 35.5299 54.5471 34.6195 51.6541L34.6508 51.1522C34.6646 50.946 34.4738 50.7631 34.2204 50.7418C34.0349 50.7261 33.8666 50.8014 33.7803 50.9234L33.4293 51.3961C31.629 52.657 29.0679 54.1583 29.3838 50.717L29.4535 49.9584C29.4645 49.8385 29.4062 49.7259 29.3062 49.6475C29.3022 49.6599 29.2982 49.6723 29.2942 49.6848C29.1314 50.2328 28.9789 50.7914 28.8354 51.3596C28.776 52.0994 28.7042 52.8614 28.6167 53.6251C30.0782 53.7709 31.4627 53.911 32.6912 54.0864C35.9311 54.5488 43.9182 56.5963 47.0513 55.5838C48.8743 54.9946 50.4052 53.7253 51.7881 52.2588C51.3963 51.9246 51.0646 51.5278 50.8417 51.0776Z" fill="#F9F9F9"/>
<path d="M28.9345 52.1652C28.9744 52.2935 29.019 52.4097 29.068 52.5118C29.0985 52.5754 29.1319 52.6395 29.168 52.7038C29.1036 52.0359 29.0675 51.2816 29.0597 50.5044C28.8612 51.2291 28.6789 51.9709 28.5099 52.7273C28.6655 52.5597 28.8072 52.3709 28.9345 52.1652Z" fill="#F9F9F9"/>
<path d="M29.2959 53.693C29.1505 52.8374 29.0719 51.6979 29.0599 50.5044C28.7859 51.5045 28.5429 52.5369 28.323 53.5957C28.6512 53.6284 28.9758 53.6607 29.2959 53.693Z" fill="#F9F9F9"/>
<path d="M27.4212 46.1418C27.1973 47.9501 26.5617 52.2347 27.7446 53.4418C28.2254 53.5103 28.7037 53.5701 29.1735 53.6263C29.1765 53.6252 29.1795 53.624 29.1825 53.6228C29.3246 50.8467 29.5494 48.0918 29.9004 45.4053C29.35 44.8835 28.5339 44.9702 27.4212 46.1418Z" fill="#F9F9F9"/>
<path d="M27.4243 50.3713L27.4915 49.6126C27.51 49.4032 27.3918 49.2197 27.2273 49.2029C27.1085 49.1907 26.9981 49.2689 26.939 49.3923L26.7186 49.8322C25.2826 51.3036 23.188 52.9779 23.5444 48.9534L23.6115 48.1947C23.6301 47.9853 23.5119 47.8018 23.3474 47.7849C23.183 47.7681 23.0346 47.9243 23.0161 48.1338L22.9748 48.6002C22.4977 49.6427 21.974 50.6762 21.1088 51.1371C23.229 52.8224 26.36 53.29 29.1821 53.6273C29.2151 52.9827 29.2525 52.3392 29.2949 51.6975C28.2449 52.6726 27.1771 53.1643 27.4243 50.3713Z" fill="#F9F9F9"/>
<path d="M18.46 46.7756C18.4505 46.7738 18.4406 46.7723 18.4303 46.7713C18.4092 46.7691 18.3894 46.769 18.3709 46.7707C18.3688 46.8025 18.3666 46.8344 18.3644 46.8663C18.3643 46.888 18.3641 46.9096 18.3639 46.9312C18.3942 46.8779 18.4263 46.826 18.46 46.7756Z" fill="#F9F9F9"/>
<path d="M22.57 52.043C22.6734 52.0536 22.7449 52.0147 22.7943 51.9595C22.8461 51.9082 22.8896 51.8259 22.9013 51.6941C22.9019 51.6873 22.9024 51.6805 22.9028 51.6738C22.9394 51.2094 23.1327 50.5964 23.3253 49.9404C23.371 50.3076 23.4802 50.6559 23.6646 50.9709C23.6379 50.9985 23.612 51.0351 23.588 51.083C23.4248 51.4086 23.6761 51.6055 23.6761 51.6055C27.7405 54.7905 26.9199 46.7733 26.812 44.3691C25.6727 44.6623 24.3973 46.0304 23.7418 47.5646C23.7197 47.2203 23.636 46.9032 23.4617 46.6327C22.9649 45.8619 19.3328 45.1049 18.7414 45.3839C18.6207 45.6132 18.5112 45.8344 18.4123 46.0481C18.3993 46.3202 18.3834 46.5929 18.3646 46.866C18.3622 47.1958 18.3547 47.5251 18.3423 47.854C19.1537 49.08 20.0061 50.2426 21.055 51.0935C21.5109 51.4634 22.0148 51.7756 22.5534 52.0412L22.57 52.043Z" fill="#F9F9F9"/>
<path d="M65.9245 26.9189C67.8041 27.0708 69.4373 25.7973 71.5605 25.804C63.9397 25.8646 57.5814 23.7171 52.8875 21.916C50.2163 21.0314 47.6456 19.821 45.1905 18.5878C43.7775 18.0661 42.3211 17.6903 40.6589 17.9793C37.553 18.5194 33.4272 20.9181 30.0197 20.2245C27.4722 19.7059 24.0253 18.0386 21.5521 17.1075C21.219 17.0731 20.8853 17.0558 20.5532 17.0542C18.4971 18.0861 16.2459 18.8955 13.8894 19.4756C13.155 20.199 10.8371 19.0944 10.9587 19.8705C11.1075 20.8203 13.4859 24.8925 15.29 25.4756C18.3253 26.4565 26.9853 27.5323 31.1646 27.5204C34.496 27.9461 38.9051 26.9526 41.4108 27.0187C45.2593 27.1202 47.0169 28.1216 52.2062 28.1216C56.2915 28.1216 57.6767 28.5888 61.7286 28.6719L65.9245 26.9189Z" fill="#C9816E"/>
<path d="M41.9104 17.1051C40.5164 17.2439 33.4996 19.1972 32.1766 19.7017L31.5542 19.9403C28.7404 18.7548 25.9368 17.5112 23.0789 16.4112L22.7698 16.2476C22.522 16.0532 22.2407 16.0015 21.9952 16.008C21.7535 15.9937 21.474 16.0348 21.2186 16.2145C18.7192 17.3789 16.9122 17.8961 14.2959 18.899L12.1035 19.3851C12.1035 19.3851 11.9376 19.6362 12.0057 20.2475C15.3462 19.4209 18.3952 18.7069 21.8975 17.2153C24.5742 18.0308 28.2657 20.9121 31.0273 21.1045C34.6244 21.3552 38.4718 18.7826 41.8055 18.2827C43.7092 17.9973 45.6681 19.235 47.3897 19.6749C51.8368 21.3797 59.7393 24.8388 65.4102 25.6275C65.2633 25.4812 45.0343 16.1458 41.9104 17.1051Z" fill="#AF7060"/>
<path d="M32.487 47.7031C31.8397 47.4166 24.3865 45.0588 23.6533 44.6895C22.2765 44.2254 19.466 45.5137 18.5541 43.6068C16.9127 40.1745 12.752 21.5715 12.3208 20.895C10.8823 18.6385 16.7841 46.8285 19.1217 50.1144C20.7112 52.3484 23.7708 53.4041 24.7017 54.3444C27.1298 56.2983 30.7293 56.652 32.8867 56.7995C37.0133 57.0817 45.0319 57.6699 48.2862 56.531C53.7035 54.6352 57.2016 47.7411 59.7278 45.3498C59.859 45.2256 69.0246 27.2777 69.4373 26.657C69.7543 26.1802 67.5702 26.9089 67.5702 26.9089C67.5702 26.9089 56.5566 45.2853 55.7954 45.2311C55.7954 45.2311 53.4142 46.4921 48.654 45.7039C48.654 45.7039 36.1074 49.0446 32.487 47.7031Z" fill="#DC8D79"/>
<path d="M46.5523 57.2144C49.5134 57.2072 51.1535 55.9596 51.596 55.636C54.406 53.5809 59.872 45.0167 60.3555 44.6207C58.9001 44.5941 53.2316 54.6784 47.7796 56.2149C43.1905 56.2461 40.9942 56.8047 36.3936 56.9705C36.571 57.0164 43.2877 57.2144 46.5523 57.2144Z" fill="#AF7060"/>
<path d="M22.6705 54.0906C26.0003 55.5489 29.9589 57.3228 30.3652 56.6822C30.0445 56.529 27.6677 55.6815 27.3545 55.4967C24.8831 54.7367 20.0223 51.364 19.2679 51.0728C20.7304 52.2732 20.4359 53.112 22.6705 54.0906Z" fill="#AF7060"/>
<path d="M49.7712 46.0903C56.5241 46.8397 57.208 45.7827 57.208 45.7827C57.208 45.7827 50.4855 45.6082 50.4146 45.6174C38.8623 47.0543 38.4484 48.5075 30.9373 47.2873C29.3107 46.7481 23.759 44.4144 23.7407 44.4121C23.2767 44.617 15.7046 44.75 17.6673 45.1703C18.3407 45.3145 21.6378 45.6301 23.7211 45.9819C23.7211 45.9819 29.9842 48.4589 31.7894 48.6847C39.1245 49.6018 49.7712 46.0903 49.7712 46.0903Z" fill="#AF7060"/>
<path d="M19.8258 26.2375C21.4899 26.9409 30.3381 28.0386 32.0829 28.5411C39.7715 29.6667 44.7687 27.1702 44.7687 27.1702C56.5235 30.7634 70.6714 26.2872 71.5204 26.145C71.71 26.1133 65.1503 26.9153 63.9791 26.8574C60.004 26.6611 54.4924 28.3678 52.4998 27.4914C50.8887 27.2676 44.6004 26.163 44.5294 26.171C40.8878 26.2059 35.7062 26.9739 31.6849 27.0233C27.498 27.0748 28.2951 26.3968 24.4637 25.8561C22.8372 25.3877 18.4623 24.2433 18.4441 24.2413C18.1977 24.3358 16.3139 25.1438 14.9857 24.4192C13.1613 23.4239 11.2194 20.2202 11.2194 20.2202C11.2194 20.2202 11.902 25.1531 15.8529 26.4231L19.8258 26.2375Z" fill="#AF7060"/>
</svg>
