<svg width="83" height="73" viewBox="0 0 83 73" fill="none" xmlns="http://www.w3.org/2000/svg">
<path d="M3.85719 30.3825C5.47501 38.358 9.08276 52.3704 12.0322 59.9223C12.5458 61.2375 12.9436 62.7358 13.2728 64.3258C28.8164 72.4136 49.9184 75.3011 65.8738 69.3637C79.1441 57.3177 87.0011 33.5996 80.3949 17.9226C79.7944 16.4975 79.0939 15.1783 78.3036 13.9587C70.5502 9.37168 62.4397 4.67154 53.5668 1.51389C50.6875 1.42313 47.6943 1.1134 44.6221 0.679199C33.1099 0.944285 21.4867 3.70324 13.7242 6.56501C11.3134 7.39764 9.05917 8.41829 6.92834 9.59423C5.11926 11.3785 3.254 13.0918 1.20418 14.4823C1.70135 19.2161 2.28224 24.0825 3.85719 30.3825Z" fill="#F8BC99"/>
<path d="M1.03437 22.9064C3.4882 35.4294 9.88127 51.0831 12.3652 63.6211C12.3652 63.6211 10.9786 50.0806 8.68776 43.3752C5.93697 35.123 5.09626 26.6114 2.40535 18.243C2.40535 16.7857 2.27267 15.3255 2.0704 13.8643C1.64478 14.1788 1.21162 14.4802 0.769652 14.7662C0.908497 17.4732 1.02329 20.1857 1.03437 22.9064Z" fill="#95725D"/>
<path d="M44.1657 54.5505C43.3347 54.4067 42.6463 54.5754 41.6866 54.6098C41.4214 54.4729 41.0477 54.6659 40.7144 54.5505C38.2719 54.4644 35.8363 54.3331 33.335 54.3331C32.0532 54.3331 32.3347 54.3609 31.0669 54.519C33.624 53.8993 30.4282 54.3317 30.4258 54.3331L29.9721 54.519C29.9807 54.2291 28.5474 54.5377 28.3907 54.5505L28.878 54.9698C28.6879 55.063 28.5564 55.2631 28.5564 55.495C28.5564 55.7269 28.6879 55.9271 28.878 56.0202L29.3055 56.2411C30.4253 58.4346 34.6253 58.1091 36.7078 58.1091C37.413 58.1091 38.0928 58.0412 38.7574 57.9321C41.4123 57.9976 44.1929 57.865 46.1718 56.4651C47.7564 56.1579 47.0734 55.5608 47.7637 54.7811C46.3984 54.7811 46.6618 54.7811 46.3102 54.519C45.5517 54.5728 44.8139 54.4234 44.1657 54.5505Z" fill="#DEA889"/>
<path d="M47.9748 54.7016C47.7196 54.7016 47.4643 54.7016 47.209 54.7016C42.4103 53.5167 35.4827 54.1534 30.435 54.1832C29.8065 54.3134 29.13 54.3579 28.4675 54.3579L28.3729 54.4028L28.3578 54.3747L27.5299 54.5461C27.3865 54.5735 27.2626 54.6287 27.1745 54.7016C27.4556 54.7016 27.7367 54.7016 28.0178 54.7016C34.884 54.7019 41.772 54.8525 48.6582 54.8738L47.9748 54.7016Z" fill="#95725D"/>
<path opacity="0.01" d="M53.5674 1.51016C52.9201 1.27982 52.2688 1.0577 51.6133 0.844455C49.3101 0.671151 46.9687 0.621543 44.6226 0.675562C47.6949 1.10969 50.6881 1.41934 53.5674 1.51016Z" fill="black"/>
<path opacity="0.01" fill-rule="evenodd" clip-rule="evenodd" d="M42.3818 28.312C41.2642 28.8712 41.2642 28.8712 42.3818 28.312Z" fill="black"/>
<path opacity="0.01" fill-rule="evenodd" clip-rule="evenodd" d="M41.5541 40.7345C43.8273 41.2182 45.7595 42.3229 47.3512 44.0471C49.7066 41.1088 48.8784 39.4525 44.8668 39.0781C43.81 38.1555 43.81 37.3273 44.8668 36.5935C45.7331 33.0498 44.4908 30.8419 41.14 29.9683C40.0095 30.8734 39.7329 31.9774 40.3118 33.281C41.1582 33.9882 41.8481 34.8163 42.3822 35.7654C42.1802 37.4632 41.9044 39.1195 41.5541 40.7345Z" fill="#101010"/>
<path opacity="0.01" fill-rule="evenodd" clip-rule="evenodd" d="M23.3345 44.8755C23.2939 47.0279 22.4657 48.8225 20.85 50.2587C21.5556 51.6897 22.3838 51.8281 23.3345 50.6728C23.3345 49.5689 23.8869 49.0164 24.9909 49.0164C24.8584 47.6094 24.9957 46.2288 25.4049 44.8756C25.6351 45.6342 26.0492 46.1858 26.6471 46.532C27.5772 45.491 28.1287 45.7667 28.3036 47.3601C29.0415 47.8653 29.8697 48.1411 30.7881 48.1883C32.6092 47.216 34.2656 47.6301 35.7572 49.4305C33.9542 50.8989 32.4362 52.6927 31.2023 54.8137C30.9264 54.2613 30.6498 53.7097 30.374 53.1573C30.0097 54.4625 29.3197 55.5674 28.3037 56.47C28.919 57.0349 29.4705 57.5872 29.9601 58.1264C29.1318 58.1264 28.3037 58.1264 27.4756 58.1264C28.37 59.4059 28.37 60.6482 27.4756 61.8531C28.958 63.2892 30.6143 64.5314 32.4447 65.5799C34.3006 65.1393 35.543 64.0354 36.1715 62.2673C37.5074 63.1964 38.4738 62.7823 39.0701 61.025C36.3621 59.762 35.5338 57.8299 36.5856 55.2278C35.962 53.9963 35.2722 53.8581 34.5153 54.8137C33.9092 52.9867 34.4615 51.6071 36.1716 50.6729C36.6644 49.5143 36.5261 48.4103 35.7576 47.3602C36.0515 46.5138 36.604 45.9614 37.4139 45.7039C38.1394 45.8123 38.692 45.5366 39.0704 44.8757C37.9664 43.7718 37.9664 42.667 39.0704 41.563C37.9871 40.6305 36.8823 40.6305 35.7576 41.563C34.7322 41.8197 34.7322 42.2339 35.7576 42.8053C34.0582 43.5755 32.8159 44.8177 32.0308 46.532C31.89 44.4757 32.5807 42.6817 34.1012 41.1488C32.0075 40.0589 32.0075 39.0925 34.1012 38.2502C34.6429 36.9127 35.0568 35.5322 35.3435 34.1094C36.5013 33.653 37.606 33.3773 38.6562 33.2812C38.9138 31.5786 39.3279 29.9221 39.8984 28.3121C39.6433 27.6429 39.2292 27.0906 38.6562 26.6558C37.8279 27.7597 36.9998 27.7597 36.1717 26.6558C34.377 28.4504 32.5832 30.2441 30.7885 32.0389C31.2208 32.5036 31.4965 33.0559 31.6166 33.6953C30.1359 35.8096 29.1694 38.1557 28.7181 40.7348C27.8493 39.8925 26.883 39.7542 25.8195 40.3206C25.4145 42.1501 24.5858 43.668 23.3345 44.8755ZM26.6471 46.532C27.1996 46.8077 27.7512 47.0844 28.3036 47.3601C28.1287 45.7667 27.5772 45.491 26.6471 46.532ZM28.3036 47.3601C28.6837 51.1076 29.5119 51.3833 30.7881 48.1883C29.8697 48.1411 29.0415 47.8653 28.3036 47.3601ZM23.3345 50.6728C23.3345 49.5689 23.8869 49.0164 24.9909 49.0164C24.7151 49.8446 24.1627 50.397 23.3345 50.6728ZM29.9601 58.1264C30.0313 58.9513 29.7545 59.6408 29.1317 60.1965C30.5884 61.0313 31.5549 62.2736 32.0304 63.9233C32.2564 62.4086 32.9471 61.1663 34.1007 60.1965C33.1757 58.6296 31.7952 57.9401 29.9601 58.1264Z" fill="#161616"/>
<path opacity="0.01" fill-rule="evenodd" clip-rule="evenodd" d="M44.8915 36.5918C45.6333 38.4251 47.0048 39.2485 49.0078 39.0616C49.0078 38.2383 49.0078 37.415 49.0078 36.5918C47.4766 36.1218 46.1041 36.1218 44.8915 36.5918Z" fill="black"/>
<path opacity="0.01" fill-rule="evenodd" clip-rule="evenodd" d="M35.7564 41.5626C36.8811 40.63 37.986 40.63 39.0692 41.5626C37.9653 42.6665 37.9653 43.7712 39.0692 44.8752C38.6907 45.5361 38.1383 45.8119 37.4128 45.7034C39.5231 47.8674 41.4559 47.7291 43.21 45.2893C42.5706 44.2781 41.7424 43.4499 40.7254 42.8048C41.3482 42.2492 41.6249 41.5592 41.5536 40.7344C39.2264 39.3447 37.2943 39.6204 35.7564 41.5626Z" fill="#030303"/>
<path opacity="0.01" fill-rule="evenodd" clip-rule="evenodd" d="M22.5132 44.8608C22.7866 44.8608 23.0607 44.8608 23.334 44.8608C23.0606 42.6721 22.7865 42.6721 22.5132 44.8608Z" fill="black"/>
<path opacity="0.01" fill-rule="evenodd" clip-rule="evenodd" d="M22.5058 44.875C21.2891 44.6592 20.1917 44.9334 19.2128 45.6982C19.762 45.9724 20.3103 46.2474 20.8594 46.5214C21.8581 46.3181 22.407 45.769 22.5058 44.875Z" fill="black"/>
<path opacity="0.012" fill-rule="evenodd" clip-rule="evenodd" d="M24.9908 49.0165C25.6268 49.6483 26.0409 50.4765 26.2331 51.5009C27.1903 50.2645 27.8811 50.4028 28.3034 51.915C27.6227 53.9308 27.3461 56.0012 27.4753 58.1263C28.3035 58.1263 29.1316 58.1263 29.9597 58.1263C29.4703 57.5872 28.9188 57.0348 28.3034 56.4699C29.3196 55.5673 30.0095 54.4625 30.3738 53.1572C30.6496 53.7096 30.9262 54.2613 31.202 54.8136C32.4359 52.6927 33.9539 50.8989 35.7568 49.4304C34.2653 47.6299 32.609 47.2158 30.7878 48.1882C29.5116 51.3833 28.6834 51.1076 28.3033 47.36C27.7509 47.0842 27.1993 46.8076 26.6469 46.5319C26.0489 46.1856 25.6349 45.6341 25.4046 44.8755C24.9955 46.2287 24.8583 47.6095 24.9908 49.0165ZM30.7878 48.1882C29.5116 51.3833 28.6834 51.1076 28.3033 47.36C29.0412 47.8652 29.8694 48.1409 30.7878 48.1882Z" fill="#484848"/>
<path opacity="0.016" fill-rule="evenodd" clip-rule="evenodd" d="M24.9911 49.0166C24.7152 49.8448 24.163 50.3973 23.3347 50.673C22.8891 52.0121 22.6133 53.3926 22.5065 54.8138C24.1224 55.0399 25.3646 54.4883 26.2333 53.1574C26.3915 54.9861 26.8056 56.6424 27.4756 58.1265C27.3464 56.0015 27.623 53.931 28.3037 51.9153C27.8814 50.403 27.1907 50.2647 26.2334 51.5011C26.0412 50.4767 25.6271 49.6484 24.9911 49.0166Z" fill="#1E1E1E"/>
<path d="M50.5546 30.906C50.8697 28.4759 51.2966 26.0809 51.8301 23.7264C47.4333 22.5421 43.0031 21.3884 38.6577 21.5572C38.6577 21.5572 32.0511 25.8903 29.4726 25.0286C24.7144 23.438 21.6824 20.8648 19.4058 21.6506C18.162 22.1953 10.7874 28.0363 7.41267 29.3558C8.60977 30.3984 5.81674 28.4209 19.2272 29.5939C29.464 33.5016 28.6622 33.4285 31.8518 33.4057C35.076 33.5488 44.5956 31.9843 50.5546 30.906Z" fill="#C9816E"/>
<path d="M37.8481 31.5397C37.0866 31.5397 36.3444 31.6945 35.6139 31.8983C34.8038 37.1819 33.4405 42.2882 31.5833 47.1591C39.9827 45.8543 51.1969 50.5277 60.0559 43.0948C61.6865 41.7267 72.3869 34.0009 78.6383 34.0009L78.8439 33.8507L78.8908 33.9267L80.4167 33.3079C80.8094 33.1568 81.0811 32.8324 81.0811 32.4564C81.0811 31.9361 80.5611 31.5144 79.9199 31.5144H77.5973V31.5821C69.1549 30.1806 60.8374 30.2587 52.05 30.2587C47.2682 30.2587 42.1314 29.8027 37.8481 31.5397Z" fill="#DC8D79"/>
<path d="M41.5963 21.9799C39.8714 22.4794 38.1467 22.9791 36.422 23.4786C36.2749 27.1985 35.8558 30.8499 35.1837 34.4147C36.7966 34.2067 38.4611 33.7987 40.223 33.1247C52.7899 29.6586 63.2914 31.285 76.0702 33.032C76.1486 33.0638 76.227 33.0956 76.3054 33.1272L77.3761 33.2096C77.3866 33.2109 77.3971 33.2124 77.4077 33.2138C77.4077 33.2138 77.4637 33.2213 77.5532 33.2232L77.5989 33.2266C77.5989 33.2266 77.646 33.2266 77.7212 33.219C77.9496 33.203 78.2565 33.1386 78.4794 32.9304C78.6267 32.8035 78.7386 32.6219 78.7572 32.3625C78.7915 32.1042 78.7178 31.9104 78.5982 31.7654C78.4206 31.5301 78.1307 31.426 77.9088 31.3798C77.836 31.3621 77.7896 31.3558 77.7896 31.3558C77.4579 31.3111 77.1279 31.2663 76.7995 31.2217C75.9488 30.8769 75.098 30.5318 74.2472 30.1868C63.8579 25.9738 54.7333 21.9248 42.7613 21.9248C42.7613 21.9248 42.7328 21.9249 42.6851 21.9284L41.5963 21.9799Z" fill="#C9816E"/>
<path d="M41.3081 30.736C39.4011 31.178 37.4941 31.6199 35.587 32.0619C35.4808 32.7447 35.3652 33.4243 35.2406 34.1011C38.0687 33.4458 41.5369 32.6421 43.8523 32.1056C43.8523 32.1056 43.8772 32.0998 43.9187 32.0868C44.1327 32.1418 44.3075 32.142 44.3075 32.142C50.2378 32.0598 57.2634 30.4636 63.3947 31.489C68.7714 32.3882 73.0826 33.2008 78.6133 33.3668C72.4876 31.8768 65.8827 31.7462 60.049 29.3427C54.7536 29.2613 49.2221 30.355 44.3075 30.2583C44.3075 30.2583 44.1486 30.2585 43.9485 30.306C43.5774 30.2105 43.2141 30.2945 43.2141 30.2945L41.3081 30.736Z" fill="#AF7060"/>
<path d="M48.4916 47.8677C50.4157 47.2152 57.3208 42.4566 59.3711 41.9247C59.2626 40.2414 49.9072 42.7435 49.9072 41.0328C49.9072 37.8348 50.0996 34.6817 50.4735 31.5846C45.5503 32.0826 39.7349 32.6781 35.9017 32.8135C30.3708 33.9692 26.39 34.8289 22.5046 30.6842C21.0367 30.195 18.4022 30.466 16.5255 29.9033C14.335 29.2464 4.11303 29.4423 5.53836 30.6842C6.0325 31.1148 11.6278 32.6943 14.1877 36.8045C17.3381 40.2024 20.6416 45.0464 24.9651 46.3936C28.0606 47.3583 29.3656 45.1351 32.108 45.4996C37.4983 46.2159 42.383 48.0833 48.4916 47.8677Z" fill="#DC8D79"/>
<path d="M19.0991 20.4269C17.6446 20.9562 16.4397 22.7133 14.2937 24.3957C10.8263 27.1142 6.48581 30.0339 6.5128 30.227C7.7166 29.7044 12.5533 26.76 15.6901 24.5233C17.6688 23.1124 17.9346 21.9832 19.4559 21.9214C24.5578 21.7141 25.1434 24.5678 29.2138 27.2333L33.0982 25.3334C36.335 24.0792 42.4706 21.952 42.6499 21.9665C45.3747 22.04 65.5141 27.1197 65.6094 26.7282C60.8464 24.2002 45.0658 20.6239 42.8198 20.428C41.5989 20.3215 42.4218 20.0581 41.3173 20.468C38.568 21.4884 34.8351 23.634 32.0051 24.5422L30.5928 25.3893C26.7491 23.2944 22.3922 21.2364 20.0827 20.1812L19.0991 20.4269Z" fill="#AF7060"/>
<path d="M17.0857 40.0144C17.2156 40.528 19.5685 43.3202 19.5685 43.3202C19.5685 43.3202 22.0796 45.7575 25.277 47.297C27.7756 47.8695 29.9023 46.1978 32.3766 46.8367C38.3549 48.3805 45.6494 49.2471 50.6905 47.6624C50.6822 47.5416 54.6888 46.265 57.7818 44.3489C62.7545 41.2685 70.4426 36.1108 70.4316 35.916C68.3409 36.4804 61.9186 40.6933 56.4495 43.5681C54.8041 44.433 51.909 44.9853 50.227 45.7548C46.1057 47.6401 35.4643 46.3815 32.6321 45.5497C30.3172 44.8699 28.4361 46.7646 25.7045 46.1428C22.3288 45.3746 19.7422 41.394 17.0857 40.0144Z" fill="#AF7060"/>
<path d="M43.4748 32.9239C45.6732 32.6815 48.2712 32.2035 50.4321 31.8814C50.5069 31.2412 50.5894 30.6033 50.6797 29.9678C50.4057 29.9798 50.1275 29.9924 49.8444 30.0056C49.7141 30.0399 45.5743 30.7331 40.9618 31.716C34.7405 33.0415 30.9482 33.2872 29.1211 33.8111C31.2388 34.4338 36.1501 33.7316 43.4748 32.9239Z" fill="#AF7060"/>
<path d="M17.0722 28.9C16.0092 28.9256 12.1025 29.0205 10.7641 29.1545C7.93973 29.4372 6.66795 29.1014 6.82044 29.4498C6.99064 29.8391 8.80267 30.2956 11.399 30.0653C12.6219 29.9568 14.9647 30.3018 16.7238 30.1692C22.1283 29.9769 25.5395 34.9385 30.7676 33.698C26.086 32.621 21.4966 28.6881 17.0722 28.9Z" fill="#AF7060"/>
</svg>
