<svg width="83" height="72" viewBox="0 0 83 72" fill="none" xmlns="http://www.w3.org/2000/svg">
<path d="M3.08972 29.7495C4.70894 37.7318 8.31981 51.7564 11.2718 59.3149C11.7859 60.6312 12.184 62.1308 12.5135 63.7222C28.0705 71.8169 49.1908 74.7069 65.16 68.7644C78.4417 56.708 86.3055 32.9694 79.6936 17.2788C79.0926 15.8525 78.3915 14.5321 77.6005 13.3115C69.8403 8.7205 61.7229 4.01631 52.8424 0.855919C49.9606 0.765079 46.9647 0.455088 43.8898 0.0205078C32.3677 0.285823 20.7345 3.04716 12.9653 5.91141C10.5523 6.74476 8.29615 7.76629 6.16348 8.94324C4.35283 10.729 2.48601 12.4439 0.434411 13.8356C0.932015 18.5734 1.51341 23.444 3.08972 29.7495Z" fill="#F8BC99"/>
<path d="M0.264762 22.2707C2.72071 34.8045 9.11935 50.4717 11.6055 63.0206C11.6055 63.0206 10.2175 49.4684 7.92477 42.7571C5.1716 34.4978 4.33021 25.9788 1.63698 17.6032C1.63698 16.1447 1.50418 14.6832 1.30173 13.2207C0.875744 13.5355 0.442162 13.8372 -0.000187823 14.1235C0.138777 16.8327 0.253671 19.5476 0.264762 22.2707Z" fill="#95725D"/>
<path opacity="0.01" d="M52.8428 0.856113C52.1949 0.625577 51.5431 0.403263 50.887 0.189834C48.5818 0.0163798 46.2384 -0.0332707 43.8903 0.0207947C46.9652 0.455299 49.961 0.765211 52.8428 0.856113Z" fill="black"/>
<path opacity="0.01" fill-rule="evenodd" clip-rule="evenodd" d="M41.6484 27.6812C40.5435 28.234 40.5435 28.234 41.6484 27.6812Z" fill="black"/>
<path opacity="0.01" fill-rule="evenodd" clip-rule="evenodd" d="M40.8194 40.1144C43.0946 40.5985 45.0285 41.7042 46.6216 43.4299C48.979 40.489 48.1501 38.8313 44.1349 38.4566C43.0773 37.5332 43.0773 36.7042 44.1349 35.9699C45.002 32.423 43.7587 30.2132 40.405 29.3389C39.2735 30.2448 38.9967 31.3497 39.5761 32.6544C40.4232 33.3623 41.1137 34.1911 41.6483 35.141C41.446 36.8403 41.17 38.498 40.8194 40.1144Z" fill="#101010"/>
<path opacity="0.01" fill-rule="evenodd" clip-rule="evenodd" d="M22.5838 44.2589C22.5433 46.4132 21.7143 48.2094 20.0972 49.6468C20.8034 51.0791 21.6323 51.2175 22.5838 50.0613C22.5838 48.9564 23.1368 48.4035 24.2417 48.4035C24.1091 46.9952 24.2466 45.6134 24.6561 44.259C24.8865 45.0183 25.3009 45.5704 25.8994 45.9168C26.8303 44.8749 27.3822 45.1509 27.5572 46.7457C28.2958 47.2513 29.1247 47.5273 30.0439 47.5745C31.8666 46.6014 33.5244 47.0159 35.0173 48.8179C33.2128 50.2875 31.6934 52.0829 30.4584 54.2057C30.1823 53.6529 29.9055 53.1008 29.6295 52.5479C29.2649 53.8542 28.5743 54.9601 27.5573 55.8635C28.1731 56.4288 28.7252 56.9817 29.2152 57.5213C28.3862 57.5213 27.5574 57.5213 26.7286 57.5213C27.6237 58.8019 27.6237 60.0453 26.7286 61.2513C28.2123 62.6885 29.87 63.9319 31.7019 64.9812C33.5594 64.5403 34.8029 63.4354 35.432 61.6657C36.769 62.5957 37.7363 62.1812 38.3331 60.4224C35.6227 59.1583 34.7937 57.2245 35.8465 54.6202C35.2223 53.3877 34.5318 53.2493 33.7743 54.2057C33.1676 52.3771 33.7204 50.9963 35.4321 50.0614C35.9253 48.9017 35.7869 47.7968 35.0177 46.7458C35.3119 45.8987 35.8649 45.3457 36.6755 45.088C37.4016 45.1965 37.9546 44.9206 38.3333 44.2591C37.2284 43.1543 37.2284 42.0486 38.3333 40.9436C37.2491 40.0102 36.1434 40.0102 35.0177 40.9436C33.9915 41.2005 33.9915 41.615 35.0177 42.1869C33.3168 42.9578 32.0734 44.2011 31.2876 45.9169C31.1468 43.8588 31.838 42.0633 33.3599 40.529C31.2644 39.4381 31.2644 38.4709 33.3599 37.6279C33.902 36.2892 34.3163 34.9075 34.6032 33.4835C35.762 33.0268 36.8677 32.7508 37.9188 32.6546C38.1767 30.9505 38.5911 29.2926 39.1621 27.6812C38.9068 27.0114 38.4923 26.4587 37.9188 26.0234C37.0898 27.1283 36.261 27.1283 35.4322 26.0234C33.636 27.8196 31.8406 29.6149 30.0443 31.4112C30.477 31.8763 30.7529 32.4291 30.8732 33.069C29.3912 35.1852 28.4238 37.5333 27.9722 40.1146C27.1026 39.2716 26.1354 39.1332 25.071 39.7001C24.6657 41.5312 23.8362 43.0504 22.5838 44.2589ZM25.8994 45.9168C26.4523 46.1928 27.0044 46.4697 27.5572 46.7457C27.3822 45.1509 26.8303 44.8749 25.8994 45.9168ZM27.5572 46.7457C27.9377 50.4964 28.7666 50.7724 30.0439 47.5745C29.1247 47.5273 28.2958 47.2513 27.5572 46.7457ZM22.5838 50.0613C22.5838 48.9564 23.1368 48.4035 24.2417 48.4035C23.9657 49.2323 23.4128 49.7852 22.5838 50.0613ZM29.2152 57.5213C29.2864 58.3469 29.0095 59.037 28.3861 59.5932C29.8441 60.4287 30.8115 61.6721 31.2873 63.3232C31.5135 61.8072 32.2048 60.5638 33.3594 59.5932C32.4335 58.0249 31.0519 57.3348 29.2152 57.5213Z" fill="#161616"/>
<path opacity="0.01" fill-rule="evenodd" clip-rule="evenodd" d="M44.1349 35.9702C44.8817 37.816 46.2626 38.6451 48.2793 38.4569C48.2793 37.628 48.2793 36.7991 48.2793 35.9702C46.7376 35.4969 45.3558 35.4969 44.1349 35.9702Z" fill="black"/>
<path opacity="0.01" fill-rule="evenodd" clip-rule="evenodd" d="M35.0175 40.9434C36.1432 40.0101 37.2491 40.0101 38.3332 40.9434C37.2283 42.0483 37.2283 43.154 38.3332 44.259C37.9544 44.9204 37.4015 45.1964 36.6754 45.0879C38.7874 47.2538 40.722 47.1153 42.4775 44.6734C41.8377 43.6613 41.0087 42.8324 39.9909 42.1868C40.6141 41.6306 40.8911 40.94 40.8197 40.1145C38.4905 38.7236 36.5568 38.9996 35.0175 40.9434Z" fill="#030303"/>
<path opacity="0.01" fill-rule="evenodd" clip-rule="evenodd" d="M21.755 44.259C22.0311 44.259 22.308 44.259 22.584 44.259C22.3079 42.0484 22.031 42.0484 21.755 44.259Z" fill="black"/>
<path opacity="0.01" fill-rule="evenodd" clip-rule="evenodd" d="M21.7548 44.2588C20.5297 44.0415 19.4249 44.3176 18.4393 45.0876C18.9922 45.3637 19.5443 45.6405 20.0971 45.9165C21.1026 45.7118 21.6553 45.1589 21.7548 44.2588Z" fill="black"/>
<path opacity="0.012" fill-rule="evenodd" clip-rule="evenodd" d="M24.2422 48.4033C24.8788 49.0357 25.2932 49.8647 25.4856 50.89C26.4437 49.6525 27.135 49.7908 27.5577 51.3044C26.8764 53.3219 26.5995 55.3941 26.7288 57.5211C27.5578 57.5211 28.3866 57.5211 29.2155 57.5211C28.7256 56.9815 28.1736 56.4286 27.5577 55.8633C28.5748 54.9598 29.2652 53.8541 29.6298 52.5477C29.9059 53.1006 30.1827 53.6527 30.4588 54.2055C31.6937 52.0828 33.2131 50.2874 35.0176 48.8177C33.5248 47.0156 31.8671 46.6011 30.0442 47.5743C28.767 50.7722 27.938 50.4962 27.5576 46.7454C27.0047 46.4694 26.4526 46.1925 25.8998 45.9166C25.3013 45.57 24.8869 45.018 24.6564 44.2588C24.2469 45.6132 24.1096 46.9951 24.2422 48.4033ZM30.0442 47.5743C28.767 50.7722 27.938 50.4962 27.5576 46.7454C28.2961 47.2511 29.125 47.5271 30.0442 47.5743Z" fill="#484848"/>
<path opacity="0.016" fill-rule="evenodd" clip-rule="evenodd" d="M24.2421 48.4033C23.966 49.2322 23.4133 49.7852 22.5843 50.0611C22.1383 51.4014 21.8623 52.7831 21.7554 54.2055C23.3726 54.4318 24.6159 53.8798 25.4854 52.5477C25.6437 54.378 26.0581 56.0357 26.7287 57.5211C26.5994 55.3942 26.8763 53.322 27.5576 51.3045C27.1349 49.7909 26.4436 49.6525 25.4855 50.89C25.2932 49.8647 24.8787 49.0356 24.2421 48.4033Z" fill="#1E1E1E"/>
<path d="M40.5478 58.0791L40.5061 58.0598C40.4919 58.0695 40.4777 58.0789 40.4637 58.0883C40.0615 58.1343 39.67 58.2142 39.2853 58.3147C38.6846 58.1762 38.1356 57.747 37.4417 57.7802C37.2501 57.6483 37.0313 57.5264 36.7904 57.4153C35.0248 57.3325 33.2641 57.2061 31.4559 57.2061C30.5294 57.2061 29.6098 57.541 28.6933 57.6932C28.6915 57.6943 28.6898 57.6956 28.6881 57.6968L28.6871 57.6943C28.5738 57.713 28.4606 57.7289 28.3473 57.741L28.2342 57.8188C28.0968 57.9084 28.0017 58.1011 28.0017 58.3243C28.0017 58.5475 28.0967 58.7402 28.2342 58.8299L28.5432 59.0425C29.3527 61.1538 32.3888 60.8405 33.894 60.8405C34.4038 60.8405 34.8953 60.7752 35.3757 60.6701C37.2949 60.7331 39.3049 60.6055 40.7354 59.2582L40.781 59.3837L41.1002 59.1641C41.1363 59.1635 41.1725 59.1631 41.2089 59.1631C41.2089 59.1631 41.6152 59.1631 41.6152 58.6039C41.6152 58.0446 41.2089 58.0447 41.2089 58.0447C41.153 58.0447 41.0975 58.0454 41.0422 58.0469C41.0302 58.0454 41.018 58.0447 41.0057 58.0447H40.5992V58.0739C40.582 58.0755 40.565 58.0772 40.5478 58.0791Z" fill="#DEA889"/>
<path d="M42.3496 57.7926C42.1652 57.7926 41.9807 57.7926 41.7962 57.7926C38.3273 55.896 33.3194 56.9152 29.6706 56.9629C29.2162 57.1714 28.7272 57.2425 28.2482 57.2425L28.1798 57.3143L28.169 57.2693L27.5705 57.5437C27.4668 57.5876 27.3773 57.6759 27.3136 57.7926C27.5168 57.7926 27.72 57.7926 27.9232 57.7926C32.8866 57.7932 37.8659 58.0343 42.8438 58.0683L42.3496 57.7926Z" fill="#95725D"/>
<path d="M23.9385 35.3279C23.9385 43.0417 28.339 49.2951 33.7671 49.2951C39.1953 49.2951 43.5957 43.0417 43.5957 35.3279C43.5957 27.6141 39.1953 21.3608 33.7671 21.3608C28.339 21.3608 23.9385 27.6141 23.9385 35.3279Z" fill="#482520"/>
<path d="M24.8024 42.4717C24.8024 43.3737 24.1798 42.6404 24.415 39.7038C24.6227 37.1114 24.7778 29.2269 25.4392 27.8155C26.0737 26.4615 29.8813 23.2803 32.9029 23.2803C33.4775 23.2803 36.028 23.1887 38.2232 24.3058C39.4913 24.9512 40.7847 26.8524 41.1387 27.208C42.7979 28.8747 43.7948 37.6682 43.2534 39.0372C43.1495 39.2998 44.0276 39.331 44.0276 37.1408C44.0276 35.7272 44.9126 28.1829 43.8963 24.9733C42.7016 21.2001 40.8406 18.8556 38.6565 17.1578C36.9719 15.8483 35.2235 20.5082 33.767 20.5082C33.3634 20.5082 30.6304 15.8911 28.8529 17.4331C27.1938 18.8724 25.3984 20.8474 24.4623 23.1042C22.4842 27.873 24.1544 36.4331 24.1544 38.6335L24.8024 42.4717Z" fill="#C9816E"/>
<path d="M23.9381 37.1403C23.9381 38.1491 23.8605 37.9662 23.8514 39.7032C23.8375 42.3771 23.5543 45.5581 24.3992 48.1509C24.9192 49.7465 26.6326 52.7714 27.3916 52.9327C29.2745 53.3331 32.5787 52.7067 32.5787 52.7067C32.5787 52.7067 35.2807 53.3401 36.6901 53.2067C37.5982 53.1207 39.8 52.0579 40.6493 50.7623C42.2743 48.2838 43.1874 44.2562 43.6438 40.7994C43.9179 38.7232 44.0273 36.8529 44.0273 35.6476C44.0273 32.7064 42.821 40.8417 39.8788 43.132C37.6298 44.8827 36.5476 45.8831 33.4427 45.8831C30.2949 45.8831 28.5361 43.0813 26.7158 42.1406C26.3649 41.9592 23.9381 37.1403 23.9381 37.1403Z" fill="#DC8D79"/>
<path d="M29.7705 17.8425C30.5281 17.7954 33.7341 21.4037 33.7667 21.3876C34.0847 21.2306 36.4528 18.4878 37.5376 18.0152C39.3489 17.226 42.0657 22.3372 42.085 22.388C42.7187 22.9667 43.2711 23.6312 43.7079 24.3508C44.0235 24.1417 43.8916 23.7512 43.8916 23.7512L43.6484 23.0458C43.3805 22.6491 43.1532 22.2188 43.0004 21.7664C41.844 20.0453 39.8721 16.0105 37.1243 17.0301C35.6801 17.5659 34.8187 19.0226 33.7671 20.0734C32.7966 19.0881 31.1877 16.8186 29.7705 16.7763C27.6587 16.7132 25.3197 20.0203 24.7748 21.7204C24.246 22.22 24.566 23.0001 24.566 23.0001C25.2654 22.269 28.2465 17.9371 29.7705 17.8425Z" fill="#AF7060"/>
<path d="M31.1597 53.0914C32.7679 53.0352 34.3287 53.3994 35.9091 53.4546C37.3403 53.4546 39.4555 53.5243 40.3184 51.354C39.8232 51.773 39.3656 52.2979 38.8092 52.4155C37.9009 52.9579 36.8972 52.7282 35.9091 52.7282C35.1825 52.7687 34.1838 52.4627 33.4732 52.1932C32.7226 51.9084 31.8723 52.4048 31.1597 52.3651C31.0907 52.3651 31.0226 52.3656 30.9553 52.3667C29.8628 52.7723 28.6914 52.7283 27.5412 52.7283C27.3138 52.7203 27.1005 52.6682 26.8985 52.5808C28.3211 53.4972 29.5763 53.0914 31.1597 53.0914Z" fill="#AF7060"/>
<path d="M25.3973 40.7864C26.9907 43.158 29.7543 45.2213 32.4644 46.3071C32.467 46.3593 32.4776 46.4162 32.4986 46.4782C32.6693 46.9839 33.1817 46.8154 33.1817 46.8154C35.9743 45.8964 39.4853 44.703 41.2367 42.1273L41.4864 41.6435C41.4864 41.6435 41.5277 41.5618 41.542 41.4492C39.8919 43.4071 37.4754 44.8413 34.9906 45.0716C34.5032 45.2508 34.019 45.4149 33.5511 45.5698C32.5491 45.234 31.5095 44.7389 30.5176 44.1271C28.5501 43.0979 25.5878 39.8631 24.4552 37.8828C24.3815 37.8744 25.3973 40.7864 25.3973 40.7864Z" fill="#AF7060"/>
<path d="M31.7144 24.4529C33.1518 24.4529 35.5051 23.974 36.7746 24.2254C37.1563 24.301 37.5222 24.504 37.8722 24.7848C39.3218 25.3164 40.5865 26.3518 41.5649 28.0347C41.6153 28.09 41.6645 28.1464 41.7126 28.2039C41.8908 27.8807 41.6008 27.5944 41.6008 27.5944C40.2991 26.3834 39.0428 23.586 37.0227 23.1877C35.5929 22.9058 33.2563 23.3867 31.7144 23.3867C28.4827 23.4263 27.2361 26.004 25.0681 28.0208L25.0242 28.1848C25.7189 27.6397 26.4507 27.1951 26.9663 26.9135C27.2927 26.7352 27.6202 26.5636 27.9482 26.3993C28.982 25.3063 30.1195 24.4379 31.7144 24.4529Z" fill="#AF7060"/>
</svg>
