<svg width="83" height="72" viewBox="0 0 83 72" fill="none" xmlns="http://www.w3.org/2000/svg">
<path d="M3.08972 29.729C4.70894 37.7113 8.31981 51.7359 11.2718 59.2944C11.7859 60.6107 12.184 62.1103 12.5135 63.7017C28.0705 71.7964 49.1908 74.6864 65.16 68.7439C78.4417 56.6875 86.3055 32.9489 79.6936 17.2583C79.0926 15.832 78.3915 14.5116 77.6005 13.2909C69.8403 8.69997 61.7229 3.9958 52.8424 0.835411C49.9606 0.744571 46.9647 0.434581 43.8898 0C32.3677 0.265315 20.7345 3.02663 12.9653 5.89088C10.5523 6.72423 8.29615 7.74579 6.16348 8.92274C4.35283 10.7085 2.48601 12.4233 0.434411 13.815C0.932015 18.5529 1.51341 23.4235 3.08972 29.729Z" fill="#F8BC99"/>
<path d="M0.264762 22.2502C2.72071 34.784 9.11935 50.4512 11.6055 63.0001C11.6055 63.0001 10.2176 49.4479 7.92482 42.7367C5.17165 34.4774 4.33021 25.9583 1.63698 17.5827C1.63698 16.1242 1.50418 14.6627 1.30173 13.2002C0.875744 13.515 0.442162 13.8167 -0.000187823 14.1029C0.138777 16.8122 0.253671 19.5271 0.264762 22.2502Z" fill="#95725D"/>
<path d="M19.0514 42.2781C25.4065 47.9296 27.781 46.8574 38.8328 46.8574C48.8714 46.8574 53.6766 43.3678 57.7492 39.6447C60.6291 37.0121 63.9044 34.2627 65.0426 32.5478C65.7348 31.5049 67.9336 30.266 67.9336 30.266C67.9336 30.266 56.7326 28.0688 35.2782 28.0688C13.8237 28.0688 13.3352 23.875 13.3352 23.875C13.3352 23.875 12.6837 25.302 12.7791 27.8316C12.9893 33.403 14.9374 38.6196 19.0514 42.2781Z" fill="#482520"/>
<path d="M45.1565 52.6296L45.099 52.6103C45.0793 52.62 45.0599 52.6294 45.0403 52.6386C44.4834 52.6842 43.9414 52.7634 43.4087 52.8629C42.577 52.7258 41.8169 52.3006 40.8563 52.3334C40.5909 52.2029 40.288 52.082 39.9544 51.9719C37.5098 51.8898 35.0721 51.7646 32.5686 51.7646C31.2858 51.7646 30.0126 52.0965 28.7436 52.2473C28.7412 52.2485 28.7387 52.2495 28.7363 52.2509L28.735 52.2484C28.5781 52.2669 28.4213 52.2825 28.2645 52.2947L28.1078 52.3718C27.9175 52.4606 27.7859 52.6514 27.7859 52.8725C27.7859 53.0937 27.9175 53.2846 28.1078 53.3734L28.5356 53.5839C29.6564 55.6755 33.8601 55.3652 35.9443 55.3652C36.6501 55.3652 37.3305 55.3004 37.9957 55.1964C40.6529 55.2589 43.436 55.1324 45.4165 53.7976L45.4798 53.9219L45.9217 53.7043C45.9717 53.7037 46.0218 53.7033 46.0721 53.7033C46.0721 53.7033 46.6348 53.7033 46.6348 53.1494C46.6348 52.5954 46.0721 52.5954 46.0721 52.5954C45.9948 52.5954 45.9179 52.5961 45.8414 52.5976C45.8248 52.5961 45.8078 52.5954 45.7909 52.5954H45.2282V52.6244C45.2043 52.626 45.1803 52.6278 45.1565 52.6296Z" fill="#DEA889"/>
<path d="M47.229 52.3459C46.9736 52.3459 46.7181 52.3459 46.4627 52.3459C41.6598 50.467 34.7262 51.4766 29.6742 51.5239C29.0451 51.7304 28.368 51.8009 27.7049 51.8009L27.6102 51.8721L27.5951 51.8276L26.7665 52.0994C26.623 52.1428 26.499 52.2303 26.4108 52.3458C26.6921 52.3458 26.9735 52.3458 27.2548 52.3458C34.127 52.3463 41.021 52.5852 47.9131 52.6189L47.229 52.3459Z" fill="#95725D"/>
<path d="M59.9709 28.7508L59.9339 28.7032C59.8463 28.6088 59.6565 28.4881 59.3974 28.3529C57.1341 27.7616 55.2424 27.228 54.3199 27.1296C50.0805 26.6773 38.655 24.8507 34.9011 24.8507L34.56 24.7899C31.8734 27.0235 26.8732 24.8339 22.7783 23.9619C20.2897 24.0698 16.0929 24.2734 14.2754 24.8508C13.9215 25.2011 12.7115 29.8494 15.7305 31.2703C17.146 31.9365 20.4783 33.7387 29.7857 34.2713C40.2873 34.8722 54.6662 34.74 58.0685 32.6689C59.4166 31.8482 62.8664 29.6865 62.9141 28.7032C62.9141 28.7032 60.3211 28.8092 59.9709 28.7508Z" fill="#F9F9F9"/>
<path d="M16.7301 40.0477L16.9688 41.2434C17.0456 41.322 18.8221 41.1371 19.0457 41.2464C20.9829 41.6941 18.9254 41.1873 19.7112 41.2473C23.322 41.5232 33.0701 42.7885 36.2568 42.6888L36.548 42.7319C38.7686 40.7424 43.072 42.4901 46.5716 43.1301C48.6812 42.9714 55.4606 40.1665 56.9879 39.6223C57.2789 39.3121 57.3031 36.4474 54.702 35.3073C53.4825 34.7727 48.6931 34.7094 40.7717 34.7094C22.0134 34.7094 22.135 32.4086 14.8541 35.3073C13.5878 35.8114 15.7688 37.2437 15.7547 38.0894C15.7547 38.0894 16.4312 40.0068 16.7301 40.0477Z" fill="#F9F9F9"/>
<path opacity="0.01" d="M53.9307 3.44693C53.2828 3.2164 52.631 2.99408 51.9749 2.78065C49.6697 2.6072 47.3263 2.55755 44.9782 2.61162C48.0531 3.04612 51.0489 3.35603 53.9307 3.44693Z" fill="black"/>
<path opacity="0.01" fill-rule="evenodd" clip-rule="evenodd" d="M42.7363 30.272C41.6314 30.8248 41.6314 30.8248 42.7363 30.272Z" fill="black"/>
<path opacity="0.01" fill-rule="evenodd" clip-rule="evenodd" d="M41.9073 42.7052C44.1825 43.1893 46.1164 44.295 47.7095 46.0207C50.0669 43.0798 49.238 41.4221 45.2228 41.0474C44.1652 40.124 44.1652 39.295 45.2228 38.5607C46.0899 35.0138 44.8466 32.8041 41.4929 31.9297C40.3614 32.8356 40.0846 33.9406 40.664 35.2453C41.5111 35.9531 42.2016 36.7819 42.7361 37.7319C42.5339 39.4311 42.2579 41.0888 41.9073 42.7052Z" fill="#101010"/>
<path opacity="0.01" fill-rule="evenodd" clip-rule="evenodd" d="M23.6717 46.8498C23.6312 49.004 22.8022 50.8002 21.1851 52.2376C21.8913 53.6699 22.7202 53.8083 23.6717 52.6521C23.6717 51.5472 24.2246 50.9943 25.3295 50.9943C25.1969 49.5861 25.3345 48.2042 25.7439 46.8498C25.9744 47.6091 26.3888 48.1612 26.9873 48.5076C27.9181 47.4658 28.4701 47.7417 28.6451 49.3365C29.3836 49.8422 30.2126 50.1181 31.1318 50.1654C32.9545 49.1923 34.6123 49.6067 36.1052 51.4087C34.3007 52.8783 32.7813 54.6737 31.5463 56.7966C31.2702 56.2437 30.9934 55.6916 30.7174 55.1388C30.3527 56.4451 29.6621 57.5509 28.6452 58.4543C29.261 59.0196 29.8131 59.5725 30.303 60.1121C29.4741 60.1121 28.6452 60.1121 27.8164 60.1121C28.7116 61.3927 28.7116 62.6361 27.8164 63.8421C29.3001 65.2794 30.9579 66.5227 32.7898 67.572C34.6473 67.1311 35.8908 66.0262 36.5198 64.2565C37.8569 65.1865 38.8242 64.7721 39.421 63.0132C36.7106 61.7491 35.8816 59.8154 36.9343 57.2111C36.3102 55.9785 35.6197 55.8401 34.8622 56.7966C34.2555 54.9679 34.8083 53.5872 36.52 52.6522C37.0132 51.4926 36.8748 50.3876 36.1056 49.3367C36.3998 48.4895 36.9527 47.9366 37.7634 47.6788C38.4895 47.7873 39.0425 47.5114 39.4212 46.85C38.3163 45.7451 38.3163 44.6394 39.4212 43.5344C38.337 42.601 37.2312 42.601 36.1056 43.5344C35.0793 43.7914 35.0793 44.2058 36.1056 44.7777C34.4047 45.5487 33.1613 46.7919 32.3755 48.5077C32.2347 46.4496 32.9259 44.6541 34.4478 43.1199C32.3523 42.029 32.3523 41.0617 34.4478 40.2188C34.9899 38.88 35.4042 37.4984 35.6911 36.0743C36.8499 35.6176 37.9556 35.3416 39.0067 35.2455C39.2646 33.5413 39.679 31.8834 40.25 30.2721C39.9947 29.6023 39.5802 29.0495 39.0067 28.6143C38.1777 29.7191 37.3489 29.7191 36.5201 28.6143C34.7239 30.4105 32.9285 32.2058 31.1322 34.002C31.5649 34.4671 31.8408 35.0199 31.9611 35.6598C30.479 37.776 29.5117 40.1242 29.0601 42.7054C28.1905 41.8624 27.2233 41.724 26.1589 42.291C25.7536 44.122 24.9241 45.6413 23.6717 46.8498ZM26.9873 48.5076C27.5402 48.7837 28.0922 49.0606 28.6451 49.3365C28.4701 47.7417 27.9181 47.4658 26.9873 48.5076ZM28.6451 49.3365C29.0256 53.0872 29.8544 53.3632 31.1318 50.1654C30.2126 50.1181 29.3836 49.8422 28.6451 49.3365ZM23.6717 52.6521C23.6717 51.5472 24.2246 50.9943 25.3295 50.9943C25.0535 51.8231 24.5007 52.3761 23.6717 52.6521ZM30.303 60.1121C30.3743 60.9377 30.0973 61.6278 29.474 62.184C30.9319 63.0196 31.8993 64.2629 32.3752 65.914C32.6014 64.3981 33.2926 63.1546 34.4473 62.184C33.5214 60.6158 32.1397 59.9256 30.303 60.1121Z" fill="#161616"/>
<path opacity="0.01" fill-rule="evenodd" clip-rule="evenodd" d="M45.2227 38.561C45.9696 40.4069 47.3505 41.2359 49.3672 41.0477C49.3672 40.2188 49.3672 39.3899 49.3672 38.561C47.8255 38.0877 46.4436 38.0877 45.2227 38.561Z" fill="black"/>
<path opacity="0.01" fill-rule="evenodd" clip-rule="evenodd" d="M36.1054 43.5342C37.2311 42.6009 38.337 42.6009 39.4211 43.5342C38.3162 44.6391 38.3162 45.7448 39.4211 46.8498C39.0423 47.5113 38.4893 47.7872 37.7632 47.6787C39.8753 49.8446 41.8099 49.7061 43.5654 47.2642C42.9256 46.2521 42.0966 45.4232 41.0787 44.7776C41.702 44.2214 41.9789 43.5309 41.9076 42.7054C39.5783 41.3145 37.6447 41.5904 36.1054 43.5342Z" fill="#030303"/>
<path opacity="0.01" fill-rule="evenodd" clip-rule="evenodd" d="M22.8429 46.8498C23.119 46.8498 23.3959 46.8498 23.6719 46.8498C23.3958 44.6392 23.1189 44.6392 22.8429 46.8498Z" fill="black"/>
<path opacity="0.01" fill-rule="evenodd" clip-rule="evenodd" d="M22.8427 46.8496C21.6176 46.6323 20.5128 46.9084 19.5272 47.6784C20.0801 47.9545 20.6322 48.2314 21.185 48.5073C22.1905 48.3026 22.7432 47.7498 22.8427 46.8496Z" fill="black"/>
<path opacity="0.012" fill-rule="evenodd" clip-rule="evenodd" d="M28.6452 49.3364C29.0257 53.0871 29.8545 53.3631 31.1318 50.1653C30.2126 50.118 29.3836 49.8421 28.6452 49.3364Z" fill="#484848"/>
<path opacity="0.016" fill-rule="evenodd" clip-rule="evenodd" d="M25.3291 50.9941C25.053 51.823 24.5002 52.376 23.6713 52.652C23.2252 53.9922 22.9492 55.3739 22.8423 56.7963C24.4595 57.0227 25.7028 56.4706 26.5723 55.1386C26.7306 56.9688 27.1451 58.6265 27.8157 60.112C27.6863 57.9851 27.9632 55.9128 28.6445 53.8953C28.2218 52.3817 27.5306 52.2434 26.5724 53.4808C26.3801 52.4556 25.9656 51.6265 25.3291 50.9941Z" fill="#1E1E1E"/>
<path d="M64.9893 30.3807C66.869 30.5326 67.6317 30.5649 69.7549 30.5716C63.4398 29.1088 56.4286 26.3084 51.7347 24.5073C49.0635 23.6228 46.4928 22.4123 44.0377 21.1791C42.6247 20.6575 41.1683 20.2816 39.5061 20.5706C36.4002 21.1107 32.2745 23.5094 28.8669 22.8158C26.3195 22.2972 22.8726 20.6299 20.3993 19.6988C20.0662 19.6644 19.7326 19.6471 19.4004 19.6455C17.3443 20.6774 15.0931 21.4868 12.7367 22.0669C12.0022 22.7903 10.3372 22.3386 10.4589 23.1147C10.6076 24.0644 12.3332 27.4838 14.1373 28.0669C17.1726 29.0478 25.8325 30.1236 30.0118 30.1117C33.3432 30.5374 37.7523 29.5439 40.258 29.61C44.1065 29.7115 45.8641 30.7129 51.0534 30.7129C55.1387 30.7129 56.5239 31.1801 60.5758 31.2632L64.9893 30.3807Z" fill="#C9816E"/>
<path d="M40.7583 19.6959C39.3643 19.8347 32.3475 21.788 31.0246 22.2925L30.4022 22.5311C27.5883 21.3456 24.7848 20.1021 21.9269 19.0021L21.6178 18.8384C21.37 18.644 21.0887 18.5923 20.8431 18.5988C20.6014 18.5845 20.322 18.6257 20.0666 18.8053C17.5672 19.9697 15.1072 21.1398 12.491 22.1427L11.6044 22.4112C11.6044 22.4112 10.7855 22.6623 10.8536 23.2736C14.1942 22.4469 17.2431 21.2977 20.7454 19.8061C23.4221 20.6216 27.1136 23.5029 29.8753 23.6953C33.4724 23.9461 37.3198 21.3734 40.6535 20.8736C42.5572 20.5881 44.516 21.8258 46.2377 22.2658C50.6847 23.9705 59.0225 28.5178 64.6934 29.3065C64.5465 29.1602 43.8822 18.7366 40.7583 19.6959Z" fill="#AF7060"/>
<path d="M18.673 28.828C20.3371 29.5314 29.1852 30.6291 30.9301 31.1316C38.6186 32.2572 43.6158 29.7607 43.6158 29.7607C55.3706 33.3539 69.0832 30.8363 69.9322 30.6942C70.1219 30.6625 63.9975 30.3763 62.8262 30.3184C58.8512 30.1221 53.3395 30.9583 51.3468 30.0819C49.7358 29.8581 43.4475 28.7535 43.3766 28.7615C39.735 28.7964 34.5533 29.5644 30.532 29.6138C26.3451 29.6653 27.1422 28.9873 23.3108 28.4466C21.6843 27.9782 17.3095 26.8338 17.2912 26.8318C17.0449 26.9263 14.9434 28.3872 13.6152 27.6626C11.7909 26.6672 10.9371 24.5518 10.9371 24.5518C10.9371 24.5518 10.9668 28.3965 14.9177 29.6665L18.673 28.828Z" fill="#AF7060"/>
<path d="M31.3343 41.1263C30.6869 40.9373 23.2337 39.382 22.5006 39.1384C21.1237 38.8323 17.878 39.6821 16.9661 38.4242C15.3247 36.1601 11.5992 23.8887 11.168 23.4425C9.7296 21.954 15.1961 40.6929 17.5337 42.8604C19.1232 44.3341 22.6181 44.8869 23.5489 45.5072C25.9771 46.7961 29.5765 47.0294 31.734 47.1267C35.8606 47.3128 43.8791 47.7008 47.1334 46.9495C52.5507 45.699 57.3546 41.2949 59.8808 39.7175C60.012 39.6355 68.7423 29.3754 69.155 28.966C69.472 28.6515 67.9408 28.9886 67.9408 28.9886C67.9408 28.9886 55.839 39.9621 55.0779 39.9263C55.0779 39.9263 52.2614 40.3274 47.5012 39.8075C47.5012 39.8075 34.9547 42.0112 31.3343 41.1263Z" fill="#DC8D79"/>
<path d="M45.3999 47.4002C48.361 47.3955 50.0011 46.5725 50.4436 46.359C53.2536 45.0034 60.0253 39.4976 60.5088 39.2364C59.0534 39.2189 52.0792 45.7273 46.6272 46.7409C42.0381 46.7614 39.8417 47.1299 35.2411 47.2393C35.4186 47.2696 42.1353 47.4002 45.3999 47.4002Z" fill="#AF7060"/>
<path d="M21.5182 45.3398C24.848 46.3018 28.8066 47.4719 29.2129 47.0493C28.8922 46.9482 26.5154 46.3892 26.2022 46.2673C23.7308 45.766 18.87 43.5412 18.1156 43.3491C19.5781 44.141 19.2836 44.6943 21.5182 45.3398Z" fill="#AF7060"/>
<path d="M48.6189 40.0626C55.3718 40.5569 56.0557 39.8597 56.0557 39.8597C56.0557 39.8597 49.3332 39.7446 49.2622 39.7506C37.71 40.6985 37.2961 41.6571 29.785 40.8522C28.1584 40.4965 22.6067 38.9571 22.5885 38.9556C22.1244 39.0907 14.5522 39.1785 16.515 39.4557C17.1884 39.5508 20.4855 39.759 22.5688 39.9911C22.5688 39.9911 28.8319 41.6251 30.637 41.774C37.9721 42.379 48.6189 40.0626 48.6189 40.0626Z" fill="#AF7060"/>
</svg>
