<svg xmlns="http://www.w3.org/2000/svg" fill="none" viewBox="78 328 54.72 66.57">
<path d="M91.8575 371.353C99.7395 377.16 96.5438 372.302 110.251 372.302C115.458 372.302 120.279 371.487 124.667 370.178C123.792 368.389 122.997 366.536 121.884 364.948C119.18 361.087 119.263 356.234 119.186 351.771C119.158 350.123 113.677 350 113.553 348.301C113.19 348.3 112.824 348.3 112.455 348.3C95.3838 348.3 89.0154 346.526 86.6434 345.255C89.5927 347.95 96.1732 354.18 96.265 356.196C98.415 368.182 90.9117 365.089 91.8575 371.353Z" fill="#482520"/>
<path d="M100.115 369.524C104.405 368.497 109.202 367.494 113.532 366.524C116.316 365.825 119.296 363.271 117.959 361.338C117.28 360.788 116.483 360.24 115.596 359.873C115.304 359.779 114.987 359.691 114.64 359.61C114.367 359.59 114.094 359.572 113.822 359.555C110.761 360.046 107.327 360.116 104.248 360.854C103.242 361.095 101.905 361.346 100.624 361.65C100.462 361.731 100.308 361.817 100.163 361.907C99.1804 362.171 95.7669 365.791 94.976 366.282C95.0636 366.756 94.1292 369.195 94.1483 369.683C95.6388 368.64 100.799 362.779 103.106 362.197C103.451 362.036 103.83 361.895 104.263 361.791C106.489 361.258 111.635 359.552 114.529 360.524C114.645 360.507 114.783 360.458 114.756 360.318C114.712 360.082 114.29 360.059 114.29 360.059C114.076 360.048 113.864 360.039 113.656 360.033C113.661 360.026 113.665 360.018 113.668 360.01C113.972 360.029 114.276 360.047 114.58 360.068C120.398 361.414 116.206 365.38 113.075 366.081C108.775 367.162 103.999 368.042 99.6583 369.081C98.7428 369.301 97.7821 369.478 96.7972 369.631C96.7307 369.818 96.6606 370.005 96.5871 370.193C97.7968 370.009 98.982 369.795 100.115 369.524ZM111.21 360.033C111.322 360.04 111.429 360.049 111.533 360.059C111.338 360.069 111.146 360.082 110.956 360.097L111.21 360.033Z" fill="#B65E50"/>
<path d="M99.6508 369.127C103.992 368.087 108.858 367.163 113.158 366.082C116.289 365.381 120.459 361.389 114.642 360.043C114.337 360.022 114.031 360.002 113.727 359.984C113.724 359.992 113.601 360.052 113.596 360.059C113.804 360.065 114.014 360.073 114.229 360.085C114.229 360.085 114.649 360.106 114.693 360.342C114.719 360.482 114.708 360.483 114.592 360.5C111.698 359.528 106.526 361.221 104.3 361.754C103.867 361.858 103.482 361.996 103.137 362.157C100.867 362.73 99.1647 363.444 97.6662 364.466C89.5763 372.339 97.427 367.877 96.7815 369.674C97.771 369.522 98.7348 369.346 99.6508 369.127Z" fill="#C36556"/>
<path d="M79.5654 346.79C80.394 349.298 114.441 349.014 116.038 351.287C116.682 352.202 113.871 358.145 109.158 362.303C106.322 364.805 101.313 365.85 100.134 367.047C95.9425 371.3 87.4537 371.632 89.0151 374.631C90.2316 376.967 96.1217 376.884 99.3975 379.829C102.16 382.313 102.795 384.525 102.653 386.422C102.438 389.321 102.39 392.026 102.49 394.55C124.254 386.303 139.878 373.767 129.362 350.63C121.726 333.829 104.77 328.312 84.5427 328C83.7887 328.214 82.628 328.418 81.8681 328.611C81.8585 336.718 77.3765 340.165 79.5654 346.79Z" fill="#E1A585"/>
<path d="M89.0897 376.125C89.2641 376.724 89.2499 377.714 89.2499 377.714C93.7613 379.787 98.4466 379.05 100.522 382.452C103.549 386.531 103.127 390.465 102.427 394.574C102.954 394.375 103.478 394.173 103.997 393.968C103.98 392.004 103.997 390.694 103.922 390.642C104.231 389.537 104.418 388.5 104.496 387.526C104.223 384.931 103.649 382.472 102.286 380.816C99.3416 377.24 88.8628 375.346 89.0897 376.125Z" fill="#7F5D4B"/>
<path d="M109.678 348.869L109.647 348.828C109.567 348.747 109.361 348.63 109.067 348.493C106.266 347.724 103.941 347.052 102.742 346.843C100.469 346.445 96.6451 345.695 92.5845 344.91C92.8341 346.552 92.7353 348.23 92.2583 349.927C92.1794 350.208 92.0907 350.487 91.9924 350.764C92.1111 350.747 92.2119 350.727 92.2889 350.705C92.6874 350.587 92.8191 350.019 93.0169 350.21C93.316 350.5 94.4926 352.362 95.3378 352.481C96.8772 352.698 100.649 351.563 101.289 350.841C102.177 351.39 103.32 352.359 105.591 352.138C106.223 352.076 106.174 351.646 106.839 351.623C108.358 351.571 109.725 352.42 110.591 351.512C111.213 350.859 109.564 349.857 110.021 349.146C110.021 349.146 110.124 348.964 109.678 348.869Z" fill="#F9F9F9"/>
<path d="M91.4266 352.288C91.6722 352.254 92.1064 352.225 92.5022 352.175C92.7668 350.806 93.2228 349.516 93.9081 348.363C94.1101 347.693 94.3416 347.031 94.6011 346.378C92.9483 345.854 91.1897 345.302 89.6488 344.856C89.6901 347.223 89.2476 349.49 88.4039 351.637C89.2604 352.107 90.4003 352.419 91.4266 352.288Z" fill="#F9F9F9"/>
<path d="M93.1268 347.79C93.4354 348.707 92.9086 349.663 92.9109 350.583C93.1656 349.802 93.4953 349.057 93.9081 348.363C94.1101 347.693 94.3416 347.031 94.6011 346.378C92.9483 345.854 91.1898 345.302 89.6488 344.856C89.6718 346.173 89.545 347.46 89.2825 348.712C90.5854 347.123 92.4497 345.546 93.1268 347.79Z" fill="#F9F9F9"/>
<path d="M88.6769 344.772L88.5262 344.692C87.6689 345.296 86.8313 345.223 86.0113 344.861C85.5181 345.904 85.0356 346.95 84.623 348.021C84.1993 349.12 83.8285 350.234 83.4594 351.352C83.7643 351.337 84.1045 351.303 84.2207 351.129C84.7302 352.122 87.1259 352.585 88.3384 352.142C88.6827 349.914 89.4517 347.633 90.5386 345.383C89.784 345.089 89.1315 344.866 88.6769 344.772Z" fill="#F9F9F9"/>
<path d="M84.1149 350.404C84.1874 350.349 84.2174 350.271 84.2174 350.271L84.3383 349.96C84.8939 348.527 85.84 345.652 87.9507 346.086C89.2161 345.737 89.474 346.77 89.4213 348.014C89.7412 347.136 90.1154 346.258 90.5376 345.384C89.783 345.09 89.1307 344.866 88.676 344.772L88.5253 344.693C87.6679 345.296 86.8303 345.223 86.0104 344.861C85.5172 345.905 85.0348 346.951 84.6221 348.021C84.4294 348.521 84.2474 349.025 84.0718 349.53C84.0987 349.824 84.1158 350.118 84.1149 350.404Z" fill="#F9F9F9"/>
<path d="M86.6431 345.255C85.7895 344.474 85.24 343.99 85.24 343.99C85.24 343.99 85.3179 344.544 86.6431 345.255Z" fill="#482520"/>
<path d="M93.3409 367.516C100.536 365.761 101.891 365.193 101.891 365.193C101.891 365.193 93.7412 366.659 93.658 366.684C93.0781 366.856 92.9026 367.004 92.3702 367.166C91.8376 367.328 90.8309 369.495 90.8608 369.655C91.4501 369.394 91.7077 367.914 93.3409 367.516Z" fill="#994F43"/>
<path d="M90.6713 346.29C88.1827 346.373 83.9859 346.531 82.1685 346.978C81.8146 347.25 80.6045 350.851 83.6235 351.952C85.0391 352.468 88.3901 353.556 97.6788 354.277C115.316 355.646 116.422 353.171 116.541 351.263C106.353 347.498 98.6304 347.603 90.6713 346.29Z" fill="#F9F9F9"/>
<path d="M92.7187 368.324L92.7368 368.344C92.7776 368.382 92.8574 368.425 92.9632 368.47C93.8272 368.579 94.5533 368.689 94.8907 368.666C96.4414 368.557 100.683 368.555 102.015 368.268L102.142 368.271C102.865 366.998 104.865 367.661 106.407 367.764C107.279 367.522 108.747 367.103 109.332 366.688C109.422 366.494 109.372 364.18 108.154 363.732C107.583 363.522 106.215 362.916 102.858 363.375C99.0706 363.892 93.983 365.056 92.9896 366.306C92.5959 366.801 91.595 368.098 91.6795 368.572C91.6795 368.572 92.5885 368.323 92.7187 368.324Z" fill="#F9F9F9"/>
<path d="M113.702 351.022C113.75 350.255 115.475 350.684 115.475 350.684C112.785 350.041 94.4049 344.742 92.3457 342.544C90.8184 342.357 81.1758 338.557 79.6778 340.477C79.2551 341.019 78.1024 343.388 78.5508 344.465C78.873 345.09 78.1208 346.817 81.0035 348.619C82.6529 349.65 87.4944 349.482 88.0073 349.477C90.4488 349.455 94.4291 350.032 94.5825 349.757C94.5825 349.757 113.688 351.234 113.702 351.022Z" fill="#CD6B5B"/>
<path d="M116.946 350.976C116.165 350.93 109.958 360.771 106.855 362.595C102.727 365.021 96.6471 366.552 93.1296 367.074C90.6599 367.441 88.3968 372.843 88.2361 372.829C88.1422 372.82 88.1495 375.912 89.4679 377.083C90.4076 377.917 92.578 376.933 95.4908 376.973C97.8314 377.005 108.877 367.06 109.425 366.533C114.77 361.391 116.256 351.344 116.946 350.976Z" fill="#D97E67"/>
<path d="M99.3243 374.144L107.464 369.633C109.013 368.76 109.49 366.025 110.941 365.098C112.565 363.419 115.963 355.587 115.963 355.587C115.963 355.587 111.947 361.992 108.33 366.079C104.439 370.475 99.3367 374.005 99.3243 374.144Z" fill="#994F43"/>
<path d="M115.478 351.357L115.954 350.449C113.935 350.42 92.8999 342.892 91.4167 341.363C75.5865 335.494 78.403 341.386 77.9999 344.576C78.5219 344.917 80.1731 340.756 80.5937 341.256C81.957 340.145 90.7879 342.423 93.6179 343.82C100.06 346.999 111.215 348.925 114.189 350.659C95.2055 349.729 85.3583 347.381 82.2926 349.048C83.278 349.235 86.8141 349.953 89.7268 350.213C92.5104 350.461 109.574 350.827 110.411 351.251C110.411 351.251 114.699 351.309 115.478 351.357Z" fill="#994F43"/>
</svg>