<svg xmlns="http://www.w3.org/2000/svg" fill="none" viewBox="77 325.98 54.72 66.58">
<path d="M91.7406 369.035C100.307 374.511 96.8338 369.929 111.731 369.929C117.39 369.929 122.63 369.161 127.398 367.926C126.448 366.239 125.583 364.492 124.374 362.994C121.435 359.354 121.525 354.777 121.442 350.568C121.411 349.015 115.454 348.899 115.32 347.297C114.925 347.296 114.527 347.295 114.126 347.295C95.5731 347.295 88.6519 345.623 86.0739 344.424C89.2793 346.965 97.6753 347.863 101.508 355.363C101.356 362.623 90.7128 363.128 91.7406 369.035Z" fill="#482520"/>
<path opacity="0.01" d="M109.008 377.649L109.164 375.778V352.735L108.807 348.809L108.863 348.454L108.775 348.105V345.347L108.639 343.849L108.606 343.651L107.312 342.945L104.82 341.699L103.878 341.385L100.915 340.644L99.0415 340.5L98.4136 340.291H97.7518L96.5857 339.999L96.169 339.94H89.9171L89.1395 340.134H88.3618L87.9416 340.029L87.2788 340.12L86.8081 339.746L84.4735 339.162L84.3461 338.939C82.2649 339.247 79.7467 339.803 77.5542 340.273C77.5542 340.273 77.6635 356.644 78.3119 359.052C82.0682 373.005 89.2884 372.417 89.1536 374.958C94.0592 376.97 102.132 376.626 106.946 380.094C107.442 379.132 108.129 378.317 109.008 377.649Z" fill="#121212"/>
<path d="M99.1097 367.507C103.401 366.479 108.198 365.476 112.529 364.506C115.313 363.806 118.294 361.252 116.956 359.319C116.278 358.769 115.48 358.221 114.593 357.854C114.302 357.76 113.984 357.672 113.638 357.591C113.364 357.571 113.091 357.553 112.819 357.536C109.758 358.027 106.324 358.097 103.244 358.835C102.238 359.076 100.9 359.327 99.6189 359.631C99.4573 359.713 99.3035 359.798 99.1584 359.889C98.1753 360.152 94.7613 363.773 93.9702 364.264C94.0579 364.738 93.1233 367.177 93.1424 367.665C94.6331 366.622 99.7945 360.761 102.102 360.178C102.447 360.017 102.825 359.877 103.259 359.773C105.485 359.24 110.632 357.533 113.526 358.505C113.642 358.488 113.78 358.439 113.753 358.299C113.709 358.063 113.287 358.04 113.287 358.04C113.073 358.029 112.861 358.02 112.653 358.014C112.658 358.007 112.662 357.999 112.665 357.992C112.969 358.01 113.273 358.028 113.577 358.049C119.396 359.396 115.203 363.362 112.072 364.063C107.771 365.144 102.995 366.024 98.6532 367.064C97.7376 367.283 96.7768 367.46 95.7918 367.614C95.7252 367.801 95.6551 367.988 95.5815 368.176C96.7915 367.991 97.9769 367.778 99.1097 367.507ZM110.207 358.014C110.318 358.021 110.426 358.03 110.53 358.04C110.335 358.05 110.143 358.063 109.952 358.079L110.207 358.014Z" fill="#B65E50"/>
<path d="M98.6458 367.109C102.987 366.069 107.854 365.145 112.155 364.064C115.286 363.363 119.457 359.37 113.639 358.023C113.334 358.003 113.029 357.983 112.725 357.965C112.722 357.973 112.598 358.033 112.593 358.04C112.801 358.046 113.012 358.054 113.226 358.066C113.226 358.066 113.646 358.087 113.69 358.323C113.717 358.463 113.706 358.464 113.589 358.481C110.695 357.509 105.522 359.202 103.296 359.735C102.862 359.839 102.478 359.977 102.133 360.138C99.8619 360.712 98.1597 361.426 96.661 362.448C88.5698 370.322 96.4217 365.859 95.7762 367.657C96.7658 367.505 97.7298 367.329 98.6458 367.109Z" fill="#C36556"/>
<path d="M78.5571 344.769C79.3857 347.278 116.86 347.616 118.457 349.888C119.101 350.804 116.29 356.437 111.575 360.596C108.739 363.097 100.308 363.832 99.1283 365.03C94.9366 369.283 90.8014 367.437 92.3631 370.437C93.5797 372.773 95.1159 374.867 98.3921 377.813C101.155 380.298 101.79 382.51 101.648 384.407C101.433 387.306 101.385 390.012 101.485 392.537C123.252 384.288 138.879 371.75 128.362 348.61C120.725 331.806 103.766 326.288 83.5351 325.976C82.781 326.19 81.6201 326.394 80.8601 326.587C80.8505 334.695 76.3678 338.143 78.5571 344.769Z" fill="#E1A585"/>
<path d="M91.9762 372.587C96.4883 374.66 97.4416 377.033 99.5168 380.436C102.545 384.516 102.123 388.45 101.423 392.56C101.95 392.361 102.473 392.159 102.993 391.954C102.976 389.99 102.993 388.68 102.918 388.628C103.226 387.522 103.414 386.485 103.491 385.511C103.219 382.916 102.645 380.456 101.282 378.8C98.3367 375.223 93.7665 370.529 93.9934 371.309L91.9762 372.587Z" fill="#7F5D4B"/>
<path d="M95.9336 363.183C96.0478 363.141 96.0897 363.057 96.0897 363.057C96.7874 361.576 94.0946 359.314 92.1682 360.884C92.2636 361.189 92.353 361.495 92.4364 361.803C92.6541 362.606 92.8279 363.409 92.9584 364.211C94.2653 365.012 96.2771 364.942 95.9336 363.183Z" fill="#F9F9F9"/>
<path d="M98.842 360.99C97.9484 360.181 96.663 359.399 95.7339 359.879C95.573 359.962 95.7933 362.562 95.8544 362.848C96.4108 365.158 99.8139 364.672 99.7216 362.653C100.019 362.845 100.355 363.012 100.688 363.132C101.314 362.294 101.807 361.361 102.309 360.511C101.064 360.191 99.572 360.245 98.842 360.99Z" fill="#F9F9F9"/>
<path d="M100.072 362.279L99.7964 362.034C99.7283 361.97 99.6064 361.935 99.4784 361.949C99.3014 361.969 99.1801 362.077 99.2073 362.19C99.2155 362.224 99.2366 362.255 99.267 362.281L99.4115 362.41C99.5435 363.719 97.8118 364.898 96.1932 363.434L95.9081 363.083C95.8476 363.003 95.7111 362.956 95.5669 362.973C95.3916 362.992 95.2709 363.098 95.295 363.21L95.358 363.507C94.9453 364.543 94.0983 364.983 92.9501 364.161C92.9576 364.206 92.965 364.252 92.9722 364.297C93.3139 364.823 93.6037 365.35 93.8448 365.876C95.7018 365.765 97.4758 365.56 98.3837 365.124C99.4984 364.59 100.286 363.732 100.936 362.788C100.608 362.659 100.308 362.49 100.072 362.279Z" fill="#F9F9F9"/>
<path d="M108.675 346.848L108.645 346.808C108.565 346.726 108.358 346.61 108.065 346.472C105.263 345.703 102.938 345.031 101.739 344.822C99.4648 344.425 95.6408 343.674 91.5795 342.889C91.8292 344.531 91.7304 346.21 91.2533 347.907C91.1744 348.187 91.0857 348.467 90.9874 348.744C91.1061 348.727 91.2069 348.707 91.2839 348.684C91.6825 348.567 91.8141 347.998 92.012 348.19C92.3112 348.48 93.4879 350.342 94.3333 350.462C95.8729 350.678 99.6455 349.543 100.285 348.821C101.174 349.37 102.317 350.339 104.588 350.118C105.22 350.056 105.171 349.626 105.837 349.603C107.355 349.551 108.723 350.4 109.588 349.492C110.211 348.839 108.561 347.836 109.019 347.126C109.019 347.126 109.122 346.943 108.675 346.848Z" fill="#F9F9F9"/>
<path d="M91.3467 348.32C91.684 348.094 92.066 347.848 92.4875 347.61C93.6588 345.672 96.0362 342.575 98.9606 346.403C98.9685 346.42 98.9812 346.438 99.0009 346.457C99.4076 347.008 99.4737 347.467 99.3542 347.944C99.4618 347.937 99.5797 347.939 99.6988 347.952C99.9678 347.983 100.169 348.064 100.233 348.154L100.503 348.509L100.304 348.52C100.362 348.581 100.411 348.641 100.455 348.7C100.897 347.911 100.951 347.243 100.336 346.403C101.088 344.983 102.56 346.107 103.398 347.388C103.571 347.411 103.715 347.454 103.808 347.507L104.531 347.918L104.253 347.972C105.124 348.618 104.939 349.284 104.556 349.973C105.01 349.973 105.107 349.803 105.107 349.803L105.282 349.494C105.568 348.939 105.572 347.909 105.122 347.009C108.94 346.44 108.412 348.287 109.214 349.341L109.051 349.595C109.051 349.595 108.92 349.827 109.594 349.903C109.676 349.913 109.75 349.918 109.817 349.919C110.169 350.016 110.558 349.941 110.558 349.941C112.918 349.485 113.158 348.624 114.192 348.042C108.446 346.797 103.93 345.204 101.739 344.821C99.4645 344.424 95.6404 343.673 91.5791 342.889C91.8288 344.531 91.7301 346.209 91.253 347.906C91.2176 348.032 91.1802 348.158 91.1409 348.283C91.1994 348.298 91.2674 348.311 91.3467 348.32Z" fill="#F9F9F9"/>
<path d="M90.421 350.268C90.6666 350.234 91.1009 350.205 91.4968 350.154C91.7614 348.785 92.2175 347.495 92.9029 346.342C93.1049 345.672 93.3364 345.01 93.5959 344.357C91.9429 343.833 90.1841 343.28 88.643 342.834C88.6842 345.202 88.2417 347.469 87.3978 349.616C88.2545 350.086 89.3945 350.399 90.421 350.268Z" fill="#F9F9F9"/>
<path d="M92.1215 345.769C92.4301 346.686 91.9032 347.642 91.9055 348.562C92.1603 347.781 92.49 347.037 92.9029 346.342C93.1049 345.672 93.3364 345.01 93.5959 344.357C91.9429 343.833 90.1841 343.28 88.643 342.834C88.6659 344.152 88.5391 345.439 88.2765 346.691C89.5797 345.102 91.4442 343.524 92.1215 345.769Z" fill="#F9F9F9"/>
<path d="M87.6724 342.75L87.5217 342.671C86.6643 343.275 85.8266 343.201 85.0064 342.839C84.5132 343.883 84.0306 344.929 83.6179 346C83.1942 347.099 82.8234 348.213 82.4542 349.331C82.7591 349.316 83.0994 349.283 83.2155 349.109C83.7252 350.102 86.1213 350.565 87.334 350.122C87.6782 347.893 88.4474 345.612 89.5344 343.362C88.7798 343.068 88.1272 342.844 87.6724 342.75Z" fill="#F9F9F9"/>
<path d="M83.1088 348.383C83.1813 348.328 83.2113 348.25 83.2113 348.25L83.3322 347.938C83.8879 346.506 84.8342 343.63 86.9452 344.064C88.2108 343.715 88.4687 344.748 88.416 345.993C88.736 345.115 89.1102 344.236 89.5325 343.362C88.7778 343.068 88.1253 342.844 87.6706 342.75L87.5198 342.671C86.6624 343.275 85.8247 343.201 85.0046 342.839C84.5114 343.883 84.0288 344.929 83.6161 346C83.4233 346.5 83.2413 347.003 83.0656 347.509C83.0926 347.802 83.1097 348.097 83.1088 348.383Z" fill="#F9F9F9"/>
<path d="M90.9417 345.22C88.246 345.355 83.7003 345.599 81.7391 346.077C81.3608 346.351 80.1188 349.911 83.4123 350.927C84.9565 351.404 88.6095 352.4 98.6911 352.91C117.834 353.877 118.984 351.424 119.077 349.549C107.962 346.071 99.5936 346.338 90.9417 345.22Z" fill="#F9F9F9"/>
<path d="M91.5966 363.166L91.6205 363.194C91.6743 363.248 91.7789 363.31 91.9173 363.375C93.0415 363.546 93.9868 363.715 94.4244 363.689C96.4356 363.571 101.944 363.66 103.667 363.288L103.832 363.295C104.743 361.536 107.354 362.504 109.36 362.681C110.486 362.362 112.384 361.81 113.135 361.245C113.246 360.975 113.132 357.75 111.541 357.099C110.795 356.795 109.006 355.92 104.656 356.487C99.7492 357.126 93.1679 358.639 91.9049 360.359C91.4044 361.041 90.1326 362.828 90.2525 363.489C90.2525 363.489 91.4275 363.162 91.5966 363.166Z" fill="#F9F9F9"/>
<path d="M85.636 343.233C84.7823 342.453 84.2327 341.969 84.2327 341.969C84.2327 341.969 84.3106 342.523 85.636 343.233Z" fill="#482520"/>
<path d="M117.765 349.166C117.831 348.443 119.799 348.873 119.799 348.873C116.729 348.228 95.7679 342.97 93.4403 340.869C91.6953 340.671 80.7117 336.951 78.9728 338.74C78.4821 339.245 77.1325 341.463 77.6315 342.484C77.992 343.078 77.109 344.696 80.3839 346.436C82.2578 347.431 87.7995 347.342 88.3864 347.345C91.1803 347.358 95.727 347.959 95.906 347.702C95.906 347.702 117.747 349.366 117.765 349.166Z" fill="#CD6B5B"/>
<path d="M119.794 349.508L120.35 348.658C118.04 348.602 94.0702 341.205 92.393 339.742C74.3564 333.983 77.5026 339.579 76.9999 342.581C77.5928 342.91 79.5361 339.01 80.0108 339.487C81.5851 338.459 91.6598 340.733 94.8796 342.09C102.209 345.179 114.947 347.153 118.328 348.831C96.6195 347.684 85.383 345.331 81.8536 346.859C82.9786 347.049 87.0153 347.777 90.3446 348.063C93.5264 348.337 113.046 348.924 113.998 349.335C113.998 349.335 118.903 349.451 119.794 349.508Z" fill="#994F43"/>
<path d="M119.757 349.576C118.878 349.479 111.251 358.31 107.631 359.811C102.816 361.808 95.8536 362.828 91.8477 363.076C86.4435 363.25 88.0156 372.938 93.2469 372.555C95.8887 372.748 109.636 364.154 110.288 363.696C116.647 359.227 118.955 349.875 119.757 349.576Z" fill="#D97E67"/>
<path d="M98.4031 370.159L107.88 366.477C109.684 365.763 110.394 363.222 112.091 362.45C114.031 360.983 118.36 353.848 118.36 353.848C118.36 353.848 113.421 359.597 109.08 363.192C104.41 367.06 98.4258 370.028 98.4031 370.159Z" fill="#994F43"/>
<path d="M91.2067 363.834C98.4999 362.541 99.8889 362.061 99.8889 362.061C99.8889 362.061 91.6609 363.004 91.5762 363.024C90.9864 363.158 90.8019 363.295 90.26 363.423C89.7181 363.551 88.5751 365.65 88.5948 365.811C89.1996 365.588 89.5511 364.128 91.2067 363.834Z" fill="#994F43"/>
<path d="M82.3293 326.022C81.7428 326.17 81.1547 326.311 80.5648 326.445C80.7818 329.777 79.8175 332.904 79.8175 332.904C79.8175 332.904 82.0329 329.458 82.3293 326.022Z" fill="#7F5D4B"/>
</svg>