<svg xmlns="http://www.w3.org/2000/svg" fill="none" viewBox="77 325 54.72 66.08">
<path d="M91.6151 363.529C94.9395 366.486 97.1892 367.627 100.128 368.039C100.264 367.814 100.427 367.596 100.617 367.386C101.094 366.498 101.74 365.715 102.511 365.078C103.69 361.777 113.435 359.436 114.963 356.273C116.07 353.982 110.001 351.279 110.18 349.134C109.485 349.13 108.779 349.127 108.062 349.127C86.3164 349.127 85.8212 344.877 85.8212 344.877C85.8212 344.877 85.1609 346.323 85.2576 348.887C85.4706 354.534 87.4452 359.821 91.6151 363.529Z" fill="#482520"/>
<path opacity="0.01" d="M108.227 375.146L108.381 373.288V350.412L108.027 346.515L108.082 346.162L107.995 345.816V343.078L107.86 341.59L107.827 341.394L106.542 340.693L104.068 339.456L103.133 339.144L100.192 338.409L98.3317 338.266L97.7084 338.058H97.0514L95.8937 337.768L95.48 337.709H89.2733L88.5013 337.902H87.7293L87.3121 337.798L86.654 337.888L86.1868 337.517L83.8691 336.937L83.7425 336.716C81.6765 337.022 79.1765 337.573 76.9998 338.04C76.9998 338.04 77.1083 354.293 77.752 356.684C81.4812 370.535 88.6492 369.952 88.5153 372.474C93.3854 374.472 101.4 374.131 106.179 377.573C106.671 376.618 107.354 375.809 108.227 375.146Z" fill="#121212"/>
<path d="M79.5078 345.079C80.3251 347.553 110.792 352.418 112.367 354.66C113.326 356.024 102.721 356.958 98.85 358.703C93.135 361.278 87.3002 361.35 88.9068 364.436C89.5736 365.717 89.9175 368.155 92.116 369.784C93.8739 371.087 97.4143 374.834 98.85 376.125C101.575 378.576 102.201 380.757 102.061 382.629C101.849 385.488 101.802 388.156 101.901 390.647C123.369 382.511 138.781 370.145 128.408 347.323C120.876 330.75 104.15 325.308 84.1969 325C83.4531 325.211 82.7063 325.412 81.9568 325.603C81.9473 333.599 77.1281 336.999 79.2872 343.535L79.5078 345.079Z" fill="#E1A585"/>
<path d="M90.1366 367.963C94.1457 370.449 97.9126 375.136 99.9593 378.492C102.946 382.516 102.391 387.024 101.7 391.078C102.22 390.881 102.801 390.651 103.313 390.449C103.296 388.512 103.388 386.622 103.313 386.571C103.618 385.48 103.803 384.458 103.879 383.497C103.611 380.937 103.044 378.511 101.7 376.879C100.793 375.777 98.4927 373.989 96.8188 372.315C93.1306 368.628 89.5094 364.754 89.5094 364.754L90.1366 367.963Z" fill="#7F5D4B"/>
<path d="M81.0119 335.357C80.7521 332.755 81.6671 329.068 81.9614 325.657C81.3791 325.804 80.7952 325.944 80.2095 326.078C80.425 329.385 80.6952 332.669 80.9251 335.933C81.0223 335.621 81.0119 335.357 81.0119 335.357Z" fill="#7F5D4B"/>
<path opacity="0.01" fill-rule="evenodd" clip-rule="evenodd" d="M114.907 346.407C116.986 347.214 118.958 348.247 120.83 349.504C121.46 348.86 121.978 348.145 122.403 347.357C121.125 346.479 119.716 345.84 118.184 345.442C117.088 344.557 117.055 343.724 118.085 342.945C118.773 339.186 117.32 337.438 113.734 337.7C113.367 338.06 113.111 338.487 112.956 338.982C113.828 340.058 114.699 341.135 115.57 342.212C115.557 343.569 115.339 344.968 114.907 346.407Z" fill="#0F0F0F"/>
<path opacity="0.01" fill-rule="evenodd" clip-rule="evenodd" d="M118.085 342.945C119.187 344.619 120.579 344.841 122.254 343.611C120.941 342.87 119.556 342.648 118.085 342.945Z" fill="black"/>
<path opacity="0.01" fill-rule="evenodd" clip-rule="evenodd" d="M97.8958 356.257C97.8519 355.148 98.3843 354.571 99.4847 354.527C99.3071 353.389 99.4037 352.273 99.7666 351.181C100.155 352.212 100.864 352.74 101.901 352.763C101.745 353.845 102.059 354.666 102.827 355.226C102.691 354.501 102.942 353.935 103.588 353.529C104.352 354.186 104.658 355.007 104.515 355.993C105.171 354.99 105.681 353.858 106.038 352.597C106.522 348.72 107.48 345.07 108.919 341.644C109.873 340.832 110.962 340.511 112.195 340.68C112.82 333.84 110.578 333.096 105.478 338.447C104.815 341.386 103.816 344.204 102.498 346.903C101.293 345.978 100.344 346.293 99.635 347.852C98.5082 350.372 97.366 352.918 96.2082 355.492C96.6149 356.14 97.1721 356.396 97.8958 356.257ZM102.827 355.226C103.392 355.481 103.949 355.738 104.515 355.993C104.658 355.007 104.352 354.186 103.588 353.529C102.942 353.935 102.691 354.501 102.827 355.226ZM97.8958 356.257C97.8519 355.148 98.3843 354.571 99.4847 354.527C99.2446 355.37 98.7121 355.947 97.8958 356.257Z" fill="#171717"/>
<path opacity="0.01" fill-rule="evenodd" clip-rule="evenodd" d="M114.908 346.406C114.08 346.44 113.253 346.473 112.426 346.506C113.669 347.56 113.423 348.265 111.681 348.62C112.963 350.032 112.728 351.014 110.969 351.566C112.716 352.589 114.511 352.517 116.346 351.351C115.699 349.867 115.22 348.219 114.908 346.406Z" fill="black"/>
<path opacity="0.01" fill-rule="evenodd" clip-rule="evenodd" d="M96.9038 352.129C96.1255 351.096 95.2981 351.129 94.4217 352.228C95.2177 353.082 96.0452 353.049 96.9038 352.129Z" fill="black"/>
<path opacity="0.012" fill-rule="evenodd" clip-rule="evenodd" d="M112.426 346.506C111.325 346.55 110.217 346.594 109.116 346.638C108.44 348.819 107.417 350.804 106.037 352.597C105.681 353.857 105.171 354.99 104.514 355.992C103.949 355.737 103.392 355.481 102.827 355.226C102.059 354.666 101.744 353.845 101.901 352.762C100.864 352.74 100.155 352.212 99.7664 351.18C99.4036 352.273 99.3068 353.389 99.4843 354.526C99.2443 355.37 98.712 355.947 97.8956 356.257C97.8982 357.16 97.6581 358.003 97.1671 358.787C97.8747 359.498 98.7129 359.742 99.6819 359.52C99.9136 357.209 100.981 356.332 102.893 356.891C102.247 358.79 102.042 360.743 102.296 362.75C103.123 362.717 103.95 362.684 104.778 362.651C105.583 362.063 106.388 361.475 107.194 360.887C107.183 360.61 107.172 360.332 107.161 360.054C107.326 357.52 108.349 355.534 110.24 354.096C109.999 353.029 110.247 352.186 110.968 351.566C112.728 351.014 112.963 350.032 111.681 348.619C113.423 348.264 113.669 347.561 112.426 346.506ZM102.827 355.226C103.392 355.481 103.949 355.737 104.514 355.992C104.658 355.007 104.352 354.186 103.588 353.529C102.941 353.936 102.69 354.501 102.827 355.226Z" fill="#3D3D3D"/>
<path opacity="0.01" fill-rule="evenodd" clip-rule="evenodd" d="M110.24 354.096C108.349 355.534 107.326 357.52 107.161 360.054C109.381 360.243 109.392 360.521 107.194 360.887C106.388 361.475 105.583 362.062 104.777 362.651C103.95 362.684 103.123 362.717 102.295 362.75C102.505 364.064 102.841 365.44 103.287 366.879C104.764 367.343 106.038 368.126 107.109 369.227C109.102 368.502 110.148 367.071 110.254 364.933C110.89 366.135 111.88 366.652 113.215 366.481C113.182 365.649 113.149 364.817 113.117 363.984C112.289 364.018 111.462 364.051 110.634 364.084C110.751 361.792 110.123 359.733 108.733 357.908C109.53 356.902 110.319 355.897 111.1 354.895C110.98 354.394 110.688 354.128 110.24 354.096ZM104.777 362.651C104.648 364.4 105.4 366.037 107.043 367.562C109.801 364.594 109.04 362.957 104.777 362.651Z" fill="black"/>
<path opacity="0.01" fill-rule="evenodd" clip-rule="evenodd" d="M99.6815 359.521C100.843 360.383 101.714 361.46 102.295 362.751C102.042 360.743 102.246 358.79 102.892 356.891C100.981 356.333 99.9132 357.209 99.6815 359.521Z" fill="black"/>
<path d="M87.8883 350.251L87.7253 350.205C87.0219 350.973 86.194 351.08 85.3218 350.903C85.0651 352.02 83.8214 351.624 83.6485 352.75C83.471 353.906 83.617 357.994 85.3219 357.896C93.0568 355.79 102.628 357.441 109.83 354.24C109.69 352.006 89.2475 352.861 89.824 350.448C89.0296 350.323 88.3493 350.245 87.8883 350.251Z" fill="#F9F9F9"/>
<path d="M113.852 354.653C113.815 353.896 96.5082 348.508 94.6839 346.227C93.1269 346.158 86.5886 343.04 84.7524 344.598C80.2991 344.941 78.2754 345.568 79.7131 347.72C80.3329 348.647 80.9063 351.16 82.5979 352.111C84.4966 353.178 87.14 353.652 90.6199 353.546C94.3114 353.435 101.679 354.499 101.779 354.271C101.779 354.271 113.889 355.41 113.852 354.653Z" fill="#CD6B5B"/>
<path d="M116.237 354.264C114.529 354.36 108.928 351.746 101.993 348.865C101.197 348.534 90.3496 343.641 87.0198 342.561C82.7644 341.447 79.5435 344.587 79.3552 344.808C79.96 345.104 79.4307 345.706 79.9451 346.166C80.7955 345.407 86.5697 344.156 92.2595 346.377C95.5226 347.65 99.1906 349.935 100.366 350.357C101.298 350.961 110.703 353.752 111.783 354.218C111.541 354.196 109.174 354.499 102.742 353.872C97.2233 353.333 89.829 351.818 83.1231 352.574C84.2096 352.683 85.3473 353.614 86.5107 353.722C86.5107 353.722 93.8244 354.332 97.0009 354.369C110.123 356.609 116.237 354.264 116.237 354.264Z" fill="#994F43"/>
<path d="M106.875 359.092C107.302 358.725 113.978 354.627 114.567 354.348C103.263 355.177 100.414 358.13 94.2512 358.741C94.2512 358.741 87.1231 357.511 86.4501 357.396C79.8596 359.951 85.6975 369.131 91.0904 369.568C93.1423 369.735 96.2942 366.441 100.602 363.047C102.972 361.18 105.335 360.415 106.875 359.092Z" fill="#D97E67"/>
<path d="M110.102 356.978C105.867 357.467 101.003 361.461 99.532 364.305L99.2293 364.522C99.2293 364.522 99.0463 364.691 98.9869 364.92L100.152 363.864C101.483 363.196 102.771 362.494 104.035 361.775C105.546 360.42 107.454 359.173 109.228 358.703C109.888 358.307 111.869 356.171 112.533 355.779C112.347 355.145 110.102 356.978 110.102 356.978Z" fill="#994F43"/>
</svg>