<svg xmlns="http://www.w3.org/2000/svg" fill="none" viewBox="77 325.05 54.72 66.57">
<path opacity="0.01" d="M109.011 376.711L109.167 374.84V351.801L108.81 347.876L108.866 347.52L108.778 347.172V344.414L108.642 342.916L108.609 342.718L107.315 342.012L104.823 340.766L103.882 340.452L100.919 339.712L99.0459 339.568L98.4182 339.358H97.7565L96.5905 339.067L96.1739 339.007H89.923L89.1455 339.202H88.3679L87.9478 339.097L87.2851 339.187L86.8145 338.813L84.4802 338.23L84.3528 338.007C82.272 338.315 79.7541 338.87 77.562 339.34C77.562 339.34 77.6712 355.709 78.3195 358.117C82.0753 372.067 89.2944 371.48 89.1596 374.02C94.0644 376.032 102.136 375.688 106.949 379.155C107.445 378.193 108.132 377.379 109.011 376.711Z" fill="#121212"/>
<path d="M90.8572 376.055C98.7393 383.566 95.5436 377.282 109.251 377.282C114.458 377.282 119.279 376.229 123.666 374.535C122.792 372.221 121.997 369.825 120.884 367.771C118.18 362.777 118.263 356.501 118.186 350.728C118.157 348.597 112.677 348.438 112.553 346.241C112.189 346.24 111.823 346.239 111.455 346.239C94.3836 346.239 88.0152 343.945 85.6432 342.3C88.5925 345.786 95.173 353.844 95.2648 356.451C97.4148 371.954 89.9115 367.954 90.8572 376.055Z" fill="#482520"/>
<path d="M101.963 366.543C104.525 366.243 106.411 361.961 107.709 359.658C107.709 359.658 107.851 359.402 107.675 359.184C107.676 359.178 107.677 359.171 107.679 359.165C107.756 358.797 107.443 358.678 107.443 358.678C105.372 357.928 101.588 353.924 99.6714 352.287C97.3271 350.329 93.761 348.325 90.993 348.839C87.9113 349.411 87.2642 351.852 89.1558 355.46C89.9625 357.125 92.7203 360.654 94.076 364.105C95.2742 367.154 94.095 370.028 94.3857 370.362C95.9356 372.145 97.7791 369.372 96.7881 367.838C96.5073 366.325 99.8833 366.366 101.196 366.123L101.277 366.108C101.519 366.209 101.746 366.374 101.963 366.543ZM102.073 365.792C101.964 365.691 101.847 365.603 101.725 365.527C101.681 365.422 101.601 365.344 101.51 365.311L101.167 365.181L101.157 365.226C99.0202 363.676 96.3928 363.375 94.2833 361.639C92.6252 359.217 90.7888 356.731 89.177 354.139C88.6837 353.376 88.1258 352.46 88.3583 351.482L88.4397 351.372C88.4397 351.372 88.5219 351.223 88.4827 351.055C89.0377 350.305 89.9948 349.815 91.1349 349.603C93.7193 349.124 97.1457 351.063 99.327 352.91C101.371 354.604 104.818 358.307 107.093 359.332C105.91 361.54 104.235 365.046 102.073 365.792Z" fill="#B65E50"/>
<path d="M110.461 359.539C108.186 358.515 101.391 354.533 99.3471 352.838C97.1658 350.992 93.6704 349.068 91.086 349.548C89.9459 349.76 88.9792 350.267 88.4242 351.016C88.4635 351.184 88.3805 351.334 88.3805 351.334L88.2989 351.445C88.0664 352.423 88.6204 353.353 89.1137 354.116C90.7256 356.707 92.5793 359.268 94.2374 361.69C96.3469 363.426 99.0485 363.748 101.186 365.298L101.195 365.252L101.541 365.381C101.632 365.414 101.712 365.491 101.757 365.596C101.879 365.672 101.997 365.76 102.105 365.861C104.268 365.115 109.279 368.746 110.461 359.539Z" fill="#C36556"/>
<path d="M104.296 358.915L104.128 358.774C102.134 357.098 99.6543 355.672 97.9436 353.579C96.0664 352.826 94.3727 351.448 92.5224 350.464C92.8815 350.833 93.2549 351.185 93.6209 351.589C97.0395 354.447 101.007 356.442 104.444 359.099C104.41 359.007 104.352 358.95 104.296 358.915Z" fill="#B65E50"/>
<path d="M78.5652 343.836C79.3938 346.344 113.441 346.06 115.038 348.332C115.682 349.248 110.694 364.689 105.98 368.847C103.145 371.348 96.892 368.805 95.7121 370.002C91.521 374.255 89.5636 372.41 91.1251 375.409C92.3415 377.745 89.5232 376.418 92.7989 379.363C95.5615 381.847 101.794 381.571 101.653 383.468C101.545 384.923 102.451 386.525 102.425 387.884C102.399 389.232 101.44 390.339 101.49 391.596C123.254 383.349 138.878 370.813 128.362 347.676C120.726 330.875 103.77 325.358 83.5425 325.046C82.7885 325.26 81.6278 325.464 80.8679 325.657C80.8583 333.763 76.3763 337.21 78.5652 343.836Z" fill="#E1A585"/>
<path d="M99.5213 382.528C102.549 385.587 102.127 388.537 101.427 391.62C101.954 391.47 102.478 391.319 102.997 391.165C102.98 389.692 102.997 388.709 102.922 388.67C103.23 387.841 103.418 387.064 103.495 386.334C103.223 384.387 102.649 382.543 101.286 381.301C99.1949 379.396 93.304 378.128 90.1461 377.762C90.8685 378.465 91.5777 379.148 92.1568 379.924C95.2628 380.47 98.0491 380.718 99.5213 382.528Z" fill="#7F5D4B"/>
<path d="M108.677 345.914L108.647 345.874C108.567 345.792 108.361 345.676 108.067 345.538C105.266 344.769 102.941 344.098 101.742 343.888C99.4684 343.491 95.6449 342.74 91.5843 341.956C91.8339 343.598 91.7351 345.276 91.2581 346.973C91.1792 347.253 91.0905 347.532 90.9922 347.81C91.1109 347.793 91.2117 347.773 91.2887 347.75C91.6873 347.632 91.8189 347.064 92.0168 347.256C92.3159 347.545 93.4924 349.408 94.3377 349.527C95.877 349.744 99.649 348.609 100.289 347.887C101.177 348.436 102.32 349.405 104.59 349.184C105.223 349.122 105.174 348.691 105.839 348.669C107.358 348.617 108.725 349.466 109.59 348.558C110.213 347.905 108.563 346.902 109.021 346.192C109.021 346.192 109.124 346.009 108.677 345.914Z" fill="#F9F9F9"/>
<path d="M91.3521 347.386C91.6894 347.16 92.0713 346.914 92.4928 346.677C93.664 344.739 96.0409 341.642 98.9649 345.47C98.9728 345.487 98.9855 345.505 99.0052 345.523C99.4118 346.075 99.4779 346.534 99.3584 347.011C99.466 347.003 99.5839 347.005 99.703 347.019C99.972 347.049 100.173 347.13 100.237 347.221L100.507 347.576L100.308 347.586C100.366 347.647 100.415 347.707 100.459 347.766C100.901 346.977 100.955 346.309 100.34 345.47C101.092 344.05 102.563 345.174 103.401 346.455C103.575 346.477 103.718 346.52 103.811 346.573L104.534 346.985L104.256 347.038C105.127 347.684 104.943 348.35 104.56 349.039C105.013 349.039 105.11 348.869 105.11 348.869L105.285 348.56C105.571 348.005 105.575 346.975 105.125 346.075C108.943 345.507 108.415 347.353 109.217 348.408L109.054 348.661C109.054 348.661 108.922 348.893 109.596 348.97C109.679 348.979 109.753 348.984 109.82 348.985C110.172 349.082 110.56 349.007 110.56 349.007C112.92 348.551 113.16 347.691 114.194 347.108C108.449 345.864 103.934 344.271 101.742 343.888C99.4687 343.491 95.6452 342.74 91.5846 341.956C91.8342 343.598 91.7355 345.276 91.2584 346.973C91.2231 347.098 91.1857 347.224 91.1464 347.349C91.2048 347.365 91.2729 347.377 91.3521 347.386Z" fill="#F9F9F9"/>
<path d="M90.4265 349.334C90.672 349.3 91.1062 349.271 91.502 349.22C91.7666 347.851 92.2226 346.561 92.9079 345.409C93.1099 344.739 93.3413 344.077 93.6008 343.424C91.9481 342.9 90.1895 342.347 88.6486 341.901C88.6899 344.269 88.2474 346.536 87.4037 348.683C88.2602 349.152 89.4001 349.465 90.4265 349.334Z" fill="#F9F9F9"/>
<path d="M92.1266 344.836C92.4352 345.752 91.9084 346.709 91.9107 347.629C92.1655 346.847 92.4951 346.103 92.908 345.409C93.1099 344.739 93.3413 344.077 93.6008 343.424C91.9481 342.9 90.1896 342.347 88.6486 341.901C88.6716 343.219 88.5447 344.505 88.2822 345.757C89.5852 344.169 91.4494 342.591 92.1266 344.836Z" fill="#F9F9F9"/>
<path d="M87.6776 341.817L87.5269 341.738C86.6696 342.342 85.832 342.268 85.012 341.907C84.5189 342.95 84.0363 343.996 83.6237 345.066C83.2001 346.166 82.8293 347.279 82.4602 348.397C82.7651 348.382 83.1053 348.349 83.2214 348.175C83.731 349.168 86.1267 349.631 87.3392 349.188C87.6834 346.959 88.4524 344.678 89.5393 342.429C88.7848 342.135 88.1323 341.912 87.6776 341.817Z" fill="#F9F9F9"/>
<path d="M83.1167 347.449C83.1891 347.394 83.2191 347.317 83.2191 347.317L83.34 347.005C83.8956 345.572 84.8417 342.697 86.9525 343.131C88.2178 342.782 88.4757 343.815 88.423 345.06C88.743 344.181 89.1171 343.303 89.5393 342.429C88.7847 342.135 88.1323 341.911 87.6776 341.817L87.5269 341.738C86.6696 342.342 85.8321 342.268 85.0121 341.907C84.519 342.95 84.0364 343.996 83.6238 345.066C83.431 345.567 83.2492 346.07 83.0735 346.575C83.1004 346.869 83.1175 347.163 83.1167 347.449Z" fill="#F9F9F9"/>
<path d="M89.4225 342.807C86.9339 342.89 82.7371 343.048 80.9197 343.495C80.5658 343.767 79.3557 347.368 82.3748 348.469C83.7903 348.985 87.1413 350.073 96.43 350.794C114.068 352.163 115.173 349.688 115.292 347.78C105.104 344.015 97.3817 344.12 89.4225 342.807Z" fill="#F9F9F9"/>
<path d="M91.7273 368.257L91.7453 368.277C91.7861 368.315 91.8659 368.358 91.9718 368.403C92.8357 368.512 93.5619 368.622 93.8993 368.599C95.4499 368.49 99.6917 368.488 101.023 368.201L101.151 368.204C101.874 366.931 103.873 367.594 105.416 367.697C106.288 367.455 107.756 367.037 108.341 366.622C108.43 366.427 108.38 364.113 107.163 363.666C106.592 363.456 105.224 362.85 101.867 363.308C98.0791 363.825 92.9916 364.989 91.9981 366.239C91.6045 366.735 90.6035 368.032 90.688 368.505C90.688 368.505 91.597 368.256 91.7273 368.257Z" fill="#F9F9F9"/>
<path d="M85.6428 342.3C84.7892 341.52 84.2397 341.036 84.2397 341.036C84.2397 341.036 84.3176 341.59 85.6428 342.3Z" fill="#482520"/>
<path d="M115.112 347.266C116.426 346.647 116.519 346.055 116.519 346.055C115.516 345.811 112.257 346.095 108.05 345.233C101.171 343.823 92.3484 340.953 91.0931 339.59C89.5927 339.403 80.1196 335.603 78.648 337.523C78.2327 338.065 77.1003 340.434 77.5408 341.511C77.8573 342.136 77.1183 343.863 79.9504 345.664C81.5708 346.695 86.3272 346.528 86.831 346.523C89.2296 346.501 93.14 347.078 93.2906 346.803C93.2906 346.803 111.355 347.801 111.368 347.589C111.368 347.589 114.521 347.545 115.112 347.266Z" fill="#CD6B5B"/>
<path d="M116.169 347.206L117.107 345.58C108.777 347.346 91.6379 339.938 90.1808 338.409C74.6289 332.54 77.3959 338.432 76.9999 341.621C77.5127 341.963 79.1348 337.801 79.548 338.301C80.8873 337.19 89.563 339.469 92.3432 340.866C98.6722 344.044 109.278 346.688 115.843 346.269C106.83 349.406 84.2289 344.427 81.2171 346.094C82.1851 346.281 85.6591 346.999 88.5206 347.259C91.2553 347.507 108.019 347.872 108.841 348.296L116.169 347.206Z" fill="#994F43"/>
<path d="M95.6032 368.053C95.6968 368.014 95.7311 367.935 95.7311 367.935C96.303 366.556 94.0959 364.448 92.517 365.911C92.5952 366.195 92.6684 366.48 92.7368 366.767C92.9152 367.516 93.0576 368.264 93.1647 369.011C94.2358 369.757 95.8848 369.692 95.6032 368.053Z" fill="#F9F9F9"/>
<path d="M97.9878 366.01C97.2554 365.257 96.2019 364.528 95.4403 364.975C95.3085 365.052 95.489 367.475 95.5391 367.741C95.9952 369.893 98.7844 369.44 98.7088 367.56C98.9525 367.738 99.2283 367.894 99.5013 368.006C100.014 367.225 100.418 366.355 100.829 365.563C99.8093 365.265 98.5861 365.316 97.9878 366.01Z" fill="#F9F9F9"/>
<path d="M98.9952 367.211L98.7695 366.983C98.7137 366.923 98.6137 366.89 98.5089 366.904C98.3638 366.922 98.2644 367.023 98.2867 367.128C98.2934 367.16 98.3107 367.189 98.3356 367.213L98.454 367.333C98.5622 368.553 97.1429 369.652 95.8162 368.288L95.5825 367.96C95.533 367.886 95.4211 367.842 95.3029 367.857C95.1593 367.876 95.0603 367.975 95.0801 368.079L95.1317 368.355C94.7934 369.321 94.0992 369.731 93.1581 368.964C93.1643 369.007 93.1703 369.049 93.1762 369.091C93.4563 369.582 93.6938 370.072 93.8914 370.563C95.4135 370.459 96.8675 370.268 97.6116 369.862C98.5253 369.365 99.1707 368.565 99.7034 367.685C99.4345 367.565 99.1891 367.407 98.9952 367.211Z" fill="#F9F9F9"/>
<path d="M115.606 346.998C114.823 347 109.185 362.778 106.14 364.932C103.214 367.001 96.8064 366.137 93.3473 366.979C90.9186 367.57 89.1619 373.871 89.0002 373.866C88.9059 373.862 89.1992 377.378 90.6222 378.615C91.6364 379.498 93.7095 378.226 96.6177 378.067C98.9545 377.938 109.048 365.853 109.546 365.215C114.4 358.992 114.952 347.465 115.606 346.998Z" fill="#D97E67"/>
<path d="M107.878 368.878C113.289 360.419 115.292 349.635 115.292 349.635C115.292 349.635 110.632 361.367 108.992 365.039C108.941 365.153 107.306 367.679 106.822 368.268C104.735 370.803 100.896 374.568 100.896 374.692L107.878 368.878Z" fill="#994F43"/>
<path d="M97.9058 366.798C104.559 366.19 106.815 365.115 106.815 365.115C106.815 365.115 93.9192 366.464 93.8386 366.498C93.2763 366.735 93.115 366.915 92.599 367.137C92.083 367.359 90.9208 369.559 90.9655 369.739C91.5289 369.4 92.0077 368.035 93.5994 367.467L97.9058 366.798Z" fill="#994F43"/>
<path d="M82.3362 325.092C81.7497 325.239 81.1617 325.38 80.5719 325.515C80.7888 328.846 79.8247 331.973 79.8247 331.973C79.8247 331.973 82.0397 328.527 82.3362 325.092Z" fill="#7F5D4B"/>
</svg>