<svg xmlns="http://www.w3.org/2000/svg" fill="none" viewBox="78 322 54.66 67.11">
<path d="M79.0765 340.94C79.9117 343.468 88.2784 351.821 89.8883 354.112C92.3142 357.563 86.1529 360.363 88.9065 365.651C90.1327 368.006 95.7653 371.275 99.0672 374.244C101.852 376.748 102.491 378.977 102.349 380.889C102.131 383.811 102.083 386.538 102.185 389.083C124.122 380.769 139.872 368.133 129.272 344.811C121.575 327.876 104.483 322.314 84.0935 322C83.3335 322.216 82.5704 322.421 81.8044 322.616C81.7947 330.787 76.8701 334.262 79.0765 340.94Z" fill="#E1A585"/>
<path d="M87.8877 367.187L88.8386 369.368C93.3862 371.458 98.1089 373.457 100.2 376.887C103.252 380.999 102.827 384.963 102.121 389.106C102.653 388.905 103.18 388.702 103.704 388.495C103.686 386.515 103.704 385.195 103.628 385.142C103.939 384.028 104.128 382.984 104.206 382.002C103.932 379.386 103.353 376.907 101.979 375.238C99.0111 371.633 92.8537 369.842 89.082 367.194C88.7292 366.947 88.3765 366.699 88.0237 366.452C87.8736 366.833 87.8877 367.187 87.8877 367.187Z" fill="#7F5D4B"/>
<path d="M80.8386 332.584C80.5731 329.924 81.5081 326.157 81.8088 322.671C81.2138 322.821 80.6171 322.964 80.0187 323.101C80.2388 326.481 80.5149 329.836 80.7499 333.172C80.8492 332.853 80.8386 332.584 80.8386 332.584Z" fill="#7F5D4B"/>
<path d="M96.5414 353.039C98.4252 353.927 100.186 354.502 101.277 354.459C101.277 354.459 102.047 354.428 102.016 353.654C101.985 352.88 101.216 352.911 101.216 352.911C97.863 353.045 90.7278 348.052 88.9974 345.378C87.71 345.307 80.1491 338.857 79.0816 340.9C78.7805 341.476 78.2342 343.018 79.423 345.217C79.9354 346.165 82.7953 350.567 84.194 351.539C87.4293 353.787 90.9352 353.71 95.0784 353.544L95.8474 353.513C95.8474 353.513 96.3804 353.492 96.5414 353.039Z" fill="#CD6B5B"/>
<path d="M101.918 357.381C102.251 357.045 104.371 354.895 104.819 354.657C100.955 353.586 95.81 353.902 91.2476 354.085C91.2476 354.085 90.8275 354.101 90.3386 353.94C84.9322 355.901 84.6718 366.988 88.6145 367.798C90.1145 368.106 93.7634 363.979 97.1038 360.892C98.942 359.194 100.718 358.595 101.918 357.381Z" fill="#D97E67"/>
<path d="M100.945 354.777C100.945 354.777 101.476 355.018 101.823 354.616C103.075 355.157 104.132 355.492 104.784 355.48C104.784 355.48 105.553 355.45 105.523 354.676C105.492 353.902 104.723 353.933 104.723 353.933C103.042 354.059 93.1722 348.267 91.797 346.846C89.2224 345.706 79.9226 336.764 77.9999 339.762C78.4657 340.065 78.8978 340.454 79.2939 340.924C80.3244 339.704 88.4642 346.953 90.9471 348.138C91.9965 349.04 94.7958 351.248 97.4303 352.76C95.2706 352.493 90.0237 352.504 87.571 353.784C88.4077 353.896 89.759 354.17 90.6549 354.281C90.6549 354.281 92.6719 354.229 95.118 354.265C97.4558 354.301 100.21 354.416 100.945 354.777Z" fill="#994F43"/>
<path d="M104.398 355.496C101.26 355.69 97.4797 359.337 96.2529 362.073L96.0193 362.268C96.0193 362.268 95.8761 362.425 95.8208 362.649L96.7313 361.676C97.744 361.101 98.7268 360.491 99.6925 359.861C100.873 358.614 102.34 357.502 103.668 357.157C104.173 356.807 104.679 356.459 105.187 356.114C105.082 355.469 104.398 355.496 104.398 355.496Z" fill="#994F43"/>
<path opacity="0.01" fill-rule="evenodd" clip-rule="evenodd" d="M115.476 343.875C117.6 344.7 119.615 345.755 121.528 347.04C122.171 346.382 122.701 345.651 123.135 344.846C121.829 343.948 120.39 343.296 118.824 342.889C117.704 341.985 117.671 341.134 118.723 340.337C119.426 336.496 117.941 334.71 114.277 334.978C113.902 335.345 113.64 335.782 113.482 336.287C114.372 337.387 115.263 338.488 116.153 339.588C116.14 340.976 115.917 342.405 115.476 343.875Z" fill="#0F0F0F"/>
<path opacity="0.01" fill-rule="evenodd" clip-rule="evenodd" d="M118.717 340.337C119.845 342.05 121.27 342.277 122.984 341.019C121.639 340.261 120.223 340.034 118.717 340.337Z" fill="black"/>
<path opacity="0.01" fill-rule="evenodd" clip-rule="evenodd" d="M98.0913 353.941C98.0464 352.808 98.5905 352.218 99.7149 352.173C99.5334 351.01 99.6322 349.87 100.003 348.753C100.4 349.807 101.125 350.347 102.184 350.37C102.024 351.476 102.345 352.315 103.13 352.888C102.991 352.147 103.247 351.569 103.908 351.153C104.689 351.824 105.001 352.664 104.855 353.671C105.526 352.646 106.047 351.489 106.411 350.201C106.906 346.239 107.885 342.509 109.355 339.009C110.33 338.178 111.443 337.85 112.704 338.023C113.342 331.033 111.051 330.273 105.839 335.742C105.162 338.744 104.141 341.624 102.794 344.383C101.562 343.437 100.593 343.759 99.8684 345.352C98.717 347.927 97.5498 350.529 96.3666 353.159C96.7823 353.822 97.3517 354.083 98.0913 353.941ZM103.13 352.888C103.708 353.148 104.277 353.41 104.855 353.671C105.001 352.664 104.689 351.824 103.908 351.153C103.247 351.569 102.991 352.147 103.13 352.888ZM98.0913 353.941C98.0464 352.808 98.5905 352.218 99.7149 352.173C99.4696 353.034 98.9254 353.624 98.0913 353.941Z" fill="#171717"/>
<path opacity="0.01" fill-rule="evenodd" clip-rule="evenodd" d="M115.475 343.875C114.629 343.909 113.782 343.943 112.936 343.977C114.208 345.056 113.957 345.776 112.174 346.139C113.485 347.584 113.246 348.589 111.445 349.153C113.233 350.199 115.07 350.126 116.947 348.933C116.285 347.415 115.794 345.729 115.475 343.875Z" fill="black"/>
<path opacity="0.01" fill-rule="evenodd" clip-rule="evenodd" d="M97.0784 349.721C96.2843 348.668 95.4402 348.701 94.5461 349.822C95.3582 350.693 96.2024 350.659 97.0784 349.721Z" fill="black"/>
<path opacity="0.012" fill-rule="evenodd" clip-rule="evenodd" d="M112.94 343.976C111.815 344.021 110.682 344.067 109.558 344.112C108.867 346.34 107.821 348.369 106.412 350.201C106.048 351.489 105.526 352.646 104.855 353.671C104.278 353.41 103.709 353.148 103.131 352.888C102.346 352.315 102.025 351.476 102.184 350.37C101.125 350.347 100.401 349.807 100.003 348.753C99.6327 349.87 99.5337 351.01 99.7152 352.173C99.4699 353.034 98.9259 353.624 98.0917 353.941C98.0944 354.864 97.849 355.725 97.3472 356.527C98.0703 357.253 98.9269 357.502 99.9171 357.276C100.154 354.913 101.245 354.018 103.198 354.589C102.538 356.529 102.329 358.525 102.588 360.576C103.434 360.542 104.279 360.509 105.124 360.475C105.947 359.874 106.77 359.273 107.593 358.672C107.582 358.389 107.571 358.105 107.56 357.821C107.728 355.231 108.774 353.202 110.706 351.732C110.46 350.642 110.714 349.78 111.451 349.147C113.249 348.583 113.489 347.58 112.178 346.136C113.959 345.773 114.21 345.054 112.94 343.976ZM103.131 352.888C103.709 353.148 104.278 353.41 104.855 353.671C105.002 352.664 104.689 351.824 103.909 351.153C103.248 351.569 102.991 352.147 103.131 352.888Z" fill="#3D3D3D"/>
<path opacity="0.01" fill-rule="evenodd" clip-rule="evenodd" d="M110.706 351.732C108.775 353.202 107.729 355.231 107.56 357.821C109.829 358.014 109.84 358.298 107.594 358.672C106.771 359.273 105.948 359.873 105.125 360.475C104.279 360.509 103.434 360.542 102.589 360.576C102.803 361.919 103.146 363.325 103.602 364.795C105.111 365.27 106.413 366.069 107.507 367.194C109.544 366.453 110.613 364.992 110.721 362.806C111.371 364.035 112.383 364.563 113.747 364.389C113.714 363.538 113.68 362.688 113.646 361.837C112.801 361.871 111.955 361.905 111.11 361.939C111.229 359.597 110.587 357.493 109.167 355.628C109.982 354.6 110.788 353.574 111.585 352.549C111.464 352.037 111.165 351.765 110.706 351.732ZM105.125 360.475C104.992 362.262 105.761 363.935 107.44 365.493C110.259 362.46 109.481 360.787 105.125 360.475Z" fill="black"/>
<path opacity="0.01" fill-rule="evenodd" clip-rule="evenodd" d="M99.9132 357.279C101.101 358.161 101.992 359.263 102.587 360.583C102.328 358.53 102.537 356.532 103.198 354.589C101.242 354.018 100.15 354.914 99.9132 357.279Z" fill="black"/>
</svg>