<svg xmlns="http://www.w3.org/2000/svg" fill="none" viewBox="77 322 54.72 66.99">
<path opacity="0.01" d="M108.646 374.212L108.803 372.329V349.146L108.444 345.196L108.499 344.839L108.411 344.488V341.713L108.274 340.205L108.241 340.006L106.939 339.296L104.432 338.042L103.484 337.726L100.503 336.981L98.6181 336.836L97.9864 336.626H97.3206L96.1473 336.332L95.7281 336.272H89.4381L88.6557 336.468H87.8733L87.4505 336.362L86.7836 336.453L86.3101 336.077L83.9612 335.49L83.833 335.266C81.7392 335.576 79.2055 336.134 76.9997 336.607C76.9997 336.607 77.1096 353.078 77.762 355.502C81.5412 369.539 88.8055 368.948 88.6699 371.504C93.6054 373.529 101.727 373.183 106.571 376.671C107.07 375.704 107.761 374.884 108.646 374.212Z" fill="#121212"/>
<path d="M89.0361 366.518C96.9674 372.362 95.3166 366.579 109.109 366.579C114.349 366.579 119.201 365.759 123.615 364.441C122.736 362.641 121.935 360.777 120.816 359.179C118.094 355.294 118.178 350.411 118.101 345.919C118.072 344.262 112.557 344.138 112.433 342.428C112.067 342.427 111.698 342.427 111.328 342.427C99.862 342.427 91.1274 338.825 85.7276 337.982C83.0371 337.562 80.1122 337.776 79.3184 337.351C80.2744 340.51 88.2372 348.12 88.3296 350.149C90.4931 362.21 88.5315 359.321 89.4832 365.624L89.0361 366.518Z" fill="#482520"/>
<path d="M83.9925 338.852C87.2357 338.495 89.2478 339.434 92.0258 341.732C94.1226 343.467 97.1608 345.725 98.6426 350.21C99.2903 351.132 98.5516 360.087 97.3644 361.292C93.147 365.571 86.17 365.905 87.7412 368.922C88.9652 371.273 94.8923 371.19 98.1885 374.153C100.968 376.653 101.607 378.878 101.465 380.788C101.248 383.704 101.199 386.426 101.301 388.967C123.2 380.668 138.922 368.053 128.341 344.772C120.657 327.865 103.595 322.314 83.2407 322C82.482 322.215 81.3141 322.42 80.5494 322.615C80.5397 330.772 76.9239 331.111 79.1265 337.778C79.1265 337.778 80.7499 339.209 83.9925 338.852Z" fill="#E1A585"/>
<path d="M87.8171 370.426C87.9925 371.028 87.9782 372.025 87.9782 372.025C92.5179 374.11 97.2325 373.369 99.3204 376.792C102.367 380.897 101.942 384.855 101.238 388.99C101.768 388.79 102.295 388.586 102.818 388.381C102.8 386.404 102.818 385.086 102.742 385.034C103.053 383.921 103.241 382.878 103.319 381.898C103.045 379.287 102.468 376.812 101.096 375.146C98.1331 371.547 87.5888 369.641 87.8171 370.426Z" fill="#7F5D4B"/>
<path d="M84.8252 341.003C84.0026 340.251 83.4731 339.785 83.4731 339.785C83.4731 339.785 83.5482 340.318 84.8252 341.003Z" fill="#482520"/>
<path d="M78.3274 335.52C77.9201 336.027 75.9707 339.582 78.7486 341.268C80.338 342.233 83.7189 342.492 84.2131 342.488C84.7074 342.483 91.4718 344.878 91.6195 344.621C91.6195 344.621 94.274 347.225 96.4474 349.976C98.1552 352.137 99.4943 354.605 99.5 354.517C99.5 354.517 98.774 349.42 96.6251 346.162C95.0623 343.793 92.3721 341.395 89.0359 339.534C89.0359 339.534 79.7709 333.723 78.3274 335.52Z" fill="#CD6B5B"/>
<path d="M85.6242 336.349C78.1379 330.856 77.5432 335.747 77.3525 338.732C77.5994 339.051 78.3803 335.157 78.5792 335.625C79.2239 334.585 83.4001 336.717 84.7384 338.025C85.7519 339.014 91.4623 341.663 95.4642 344.947C95.9586 345.352 98.9452 351.788 99.2966 352.188C99.3682 351.998 98.7228 347.584 95.9458 344.426C92.0914 340.042 85.7171 336.539 85.6242 336.349Z" fill="#994F43"/>
<path d="M85.6779 342.304C81.9776 341.797 79.1642 341.006 78.7404 341.462C79.2064 341.637 83.6616 342.725 85.0391 342.968C85.595 343.066 89.1527 343.998 91.841 346.003C93.4451 347.199 97.2718 351.55 98.4217 352.794C98.4445 352.406 96.1193 349.114 96.16 348.74C92.8545 344.638 88.8629 342.74 85.6779 342.304Z" fill="#994F43"/>
<path d="M95.3468 359.497C91.3893 361.276 90.5431 361.127 87.3886 361.17C83.0402 362.183 84.3886 367.994 85.3786 369.28C86.0841 370.197 87.7198 370.39 90.2655 370.805C92.3111 371.138 96.8044 365.716 97.2139 365.124C97.799 364.277 98.9095 362.642 99.233 361.445C100.513 356.711 98.6555 351.546 99.1793 351.337C99.1793 351.337 98.322 358.16 95.3468 359.497Z" fill="#D97E67"/>
<path d="M90.1434 370.628C90.1434 370.628 96.2228 369.109 98.9661 363.566C100.244 360.985 99.6866 355.693 99.6866 355.693C99.6866 355.693 100.294 362.238 96.5506 365.665C92.5231 369.353 90.1739 370.496 90.1434 370.628Z" fill="#994F43"/>
<path d="M87.8501 361.235C95.0941 360.596 94.947 360.454 94.947 360.454C94.947 360.454 88.36 360.476 88.2756 360.488C87.6874 360.568 87.496 360.684 86.9553 360.762C86.4145 360.841 85.1303 362.762 85.1369 362.918C85.7468 362.754 86.2057 361.381 87.8501 361.235Z" fill="#994F43"/>
<path d="M82.0273 322.046C81.4372 322.195 80.8455 322.337 80.252 322.472C80.4703 325.824 79.5002 328.971 79.5002 328.971C79.5002 328.971 81.729 325.503 82.0273 322.046Z" fill="#7F5D4B"/>
</svg>