<svg xmlns="http://www.w3.org/2000/svg" fill="none" viewBox="77 322 54.72 65.65">
<path d="M91.6156 360.529C94.94 363.486 97.1897 364.627 100.128 365.039C100.265 364.814 100.427 364.596 100.618 364.386C101.095 363.498 101.74 362.715 102.512 362.078C103.69 358.777 113.435 356.436 114.964 353.273C116.071 350.982 110.001 348.279 110.181 346.134C109.486 346.13 108.78 346.127 108.063 346.127C86.3169 346.127 85.8218 341.876 85.8218 341.876C85.8218 341.876 85.1615 343.323 85.2582 345.887C85.4712 351.534 87.4457 356.821 91.6156 360.529Z" fill="#482520"/>
<path opacity="0.01" d="M108.227 372.146L108.382 370.288V347.413L108.028 343.515L108.082 343.162L107.996 342.816V340.078L107.861 338.59L107.828 338.394L106.543 337.693L104.069 336.456L103.134 336.144L100.192 335.409L98.3322 335.266L97.7089 335.058H97.0519L95.8942 334.769L95.4805 334.71H89.2739L88.5019 334.903H87.7298L87.3126 334.798L86.6545 334.888L86.1873 334.517L83.8696 333.938L82.4038 328.058C80.3377 328.364 79.177 334.573 77.0003 335.04C77.0003 335.04 77.1088 351.293 77.7525 353.684C81.4817 367.535 88.6497 366.952 88.5158 369.475C93.3859 371.472 101.4 371.131 106.179 374.573C106.672 373.618 107.354 372.809 108.227 372.146Z" fill="#121212"/>
<path d="M90.7265 347.242C88.8973 347.468 85.8138 347.864 84.5077 348.414C84.2676 348.705 83.6528 352.364 85.9646 353.29C87.0485 353.724 89.6042 354.617 96.5114 354.806C109.627 355.165 110.251 352.634 110.192 350.724C102.387 347.552 96.6986 348.097 90.7265 347.242Z" fill="#F9F9F9"/>
<path d="M89.3336 359.735L89.3527 359.76C89.3956 359.808 89.4782 359.864 89.5871 359.923C90.4644 360.094 91.2026 360.26 91.5423 360.247C93.1031 360.186 97.3862 360.375 98.718 360.087L98.8466 360.097C99.5189 358.59 101.568 359.483 103.131 359.677C104 359.424 105.463 358.984 106.035 358.508C106.117 358.277 105.962 355.476 104.712 354.88C104.126 354.6 101.885 354.581 98.5158 354.984C94.7146 355.438 90.3657 354.643 89.4191 356.11C89.044 356.691 88.1887 359.412 88.2954 359.988C88.2954 359.988 89.202 359.728 89.3336 359.735Z" fill="#F9F9F9"/>
<path d="M79.5084 342.079C80.3257 344.553 110.792 349.418 112.368 351.66C113.326 353.023 106.247 358.136 102.376 359.88C96.6611 362.456 87.3008 361.631 88.9074 364.717C89.5741 365.998 89.146 366.892 91.3445 368.521C93.1024 369.824 97.4148 371.834 98.8505 373.125C101.576 375.575 102.201 377.757 102.062 379.629C101.849 382.488 101.802 385.156 101.901 387.646C123.369 379.511 138.781 367.145 128.409 344.323C120.876 327.75 104.15 322.308 84.1974 322C83.4537 322.211 81.6636 322.759 80.914 322.95C80.9045 330.946 81.9573 334.336 79.2878 340.535L79.5084 342.079Z" fill="#E1A585"/>
<path d="M89.9441 367.472C93.9531 369.958 97.913 372.136 99.9598 375.492C102.946 379.516 102.53 383.395 101.84 387.449C102.36 387.253 102.876 387.053 103.388 386.852C103.371 384.914 103.388 383.622 103.314 383.57C103.618 382.48 103.803 381.458 103.88 380.497C103.611 377.937 103.045 375.511 101.701 373.878C98.7959 370.35 89.8959 366 89.8959 366L89.9441 367.472Z" fill="#7F5D4B"/>
<path d="M81.0124 332.357C80.7527 329.755 81.6676 326.068 81.9619 322.657C81.3796 322.804 80.7957 322.944 80.2101 323.077C80.4255 326.385 80.6957 329.669 80.9256 332.933C81.0228 332.621 81.0124 332.357 81.0124 332.357Z" fill="#7F5D4B"/>
<path d="M113.852 351.653C113.815 350.895 97.2062 344.952 95.3819 342.671C93.825 342.602 86.5892 340.04 84.753 341.598C80.2996 341.941 78.276 342.568 79.7137 344.72C80.3334 345.647 82.4291 348.632 84.1207 349.583C86.0193 350.65 87.1405 350.651 90.6204 350.546C94.3119 350.435 101.679 351.499 101.779 351.271C101.779 351.271 113.889 352.41 113.852 351.653Z" fill="#CD6B5B"/>
<path d="M114.789 351.752C112.417 351.22 108.202 356.429 103.474 357.974C98.8862 359.474 93.4487 358.53 92.5283 358.451C86.3199 357.915 87.0771 366.194 90.8302 366.818C92.6444 367.119 101.964 367.492 105.459 360.721C107.682 359.059 114.248 351.985 114.789 351.752Z" fill="#D97E67"/>
<path d="M116.237 351.263C114.529 351.36 108.929 348.746 101.994 345.865C101.198 345.534 90.3501 340.64 87.0203 339.561C82.7649 338.447 79.544 341.587 79.3557 341.808C79.9605 342.104 79.4312 342.706 79.9456 343.166C80.796 342.407 86.5702 341.156 92.26 343.377C95.5231 344.65 99.1911 346.935 100.366 347.357C101.299 347.961 110.704 350.751 111.784 351.218C111.541 351.196 109.174 351.499 102.743 350.871C97.2239 350.333 89.8295 348.818 83.1237 349.574C84.2101 349.683 85.3479 350.614 86.5112 350.722C86.5112 350.722 93.8249 351.332 97.0014 351.368C110.123 353.609 116.237 351.263 116.237 351.263Z" fill="#994F43"/>
<path d="M102.728 364.992C106.581 362.64 108.947 357.324 108.601 357.504C107.803 357.66 104.401 362.42 101.275 364.404C97.6609 366.699 94.3228 366.249 94.3228 366.249C94.3228 366.249 99.2842 367.093 102.728 364.992Z" fill="#994F43"/>
<path opacity="0.01" fill-rule="evenodd" clip-rule="evenodd" d="M114.908 343.406C116.987 344.214 118.958 345.247 120.831 346.504C121.46 345.86 121.979 345.145 122.403 344.357C121.126 343.478 119.717 342.84 118.184 342.442C117.089 341.557 117.056 340.724 118.086 339.945C118.774 336.186 117.321 334.438 113.735 334.7C113.368 335.06 113.111 335.487 112.957 335.981C113.828 337.058 114.699 338.135 115.57 339.211C115.558 340.569 115.34 341.968 114.908 343.406Z" fill="#0F0F0F"/>
<path opacity="0.01" fill-rule="evenodd" clip-rule="evenodd" d="M118.085 339.945C119.187 341.619 120.58 341.84 122.255 340.611C120.941 339.87 119.557 339.648 118.085 339.945Z" fill="black"/>
<path opacity="0.01" fill-rule="evenodd" clip-rule="evenodd" d="M97.8963 353.257C97.8524 352.148 98.3848 351.57 99.4851 351.526C99.3075 350.389 99.4042 349.273 99.7671 348.18C100.156 349.212 100.865 349.74 101.901 349.762C101.745 350.845 102.059 351.666 102.827 352.226C102.691 351.501 102.942 350.935 103.589 350.529C104.352 351.186 104.658 352.007 104.515 352.992C105.171 351.99 105.682 350.857 106.038 349.597C106.523 345.72 107.48 342.07 108.919 338.644C109.873 337.832 110.963 337.51 112.196 337.679C112.82 330.839 110.578 330.096 105.478 335.447C104.816 338.386 103.817 341.204 102.498 343.903C101.293 342.978 100.345 343.293 99.6354 344.851C98.5087 347.372 97.3664 349.918 96.2086 352.491C96.6154 353.14 97.1725 353.395 97.8963 353.257ZM102.827 352.226C103.393 352.481 103.95 352.737 104.515 352.992C104.658 352.007 104.352 351.186 103.589 350.529C102.942 350.935 102.691 351.501 102.827 352.226ZM97.8963 353.257C97.8524 352.148 98.3848 351.57 99.4851 351.526C99.2451 352.37 98.7125 352.947 97.8963 353.257Z" fill="#171717"/>
<path opacity="0.01" fill-rule="evenodd" clip-rule="evenodd" d="M114.908 343.406C114.081 343.439 113.253 343.473 112.426 343.506C113.669 344.56 113.424 345.265 111.681 345.62C112.963 347.032 112.729 348.014 110.969 348.566C112.716 349.589 114.512 349.517 116.347 348.35C115.7 346.867 115.22 345.219 114.908 343.406Z" fill="black"/>
<path opacity="0.01" fill-rule="evenodd" clip-rule="evenodd" d="M96.9043 349.129C96.126 348.096 95.2986 348.129 94.4222 349.228C95.2182 350.082 96.0457 350.049 96.9043 349.129Z" fill="black"/>
<path opacity="0.012" fill-rule="evenodd" clip-rule="evenodd" d="M112.426 343.506C111.326 343.55 110.217 343.594 109.117 343.638C108.441 345.819 107.417 347.804 106.038 349.597C105.682 350.857 105.171 351.99 104.515 352.992C103.95 352.737 103.393 352.481 102.827 352.226C102.059 351.666 101.745 350.845 101.901 349.762C100.864 349.74 100.156 349.212 99.7669 348.18C99.4041 349.273 99.3072 350.389 99.4848 351.526C99.2447 352.37 98.7124 352.947 97.8961 353.257C97.8987 354.16 97.6586 355.003 97.1676 355.787C97.8752 356.498 98.7134 356.742 99.6824 356.52C99.9142 354.209 100.982 353.332 102.893 353.891C102.247 355.79 102.043 357.743 102.296 359.75C103.124 359.717 103.951 359.684 104.778 359.651C105.583 359.062 106.389 358.475 107.194 357.887C107.183 357.61 107.172 357.331 107.162 357.054C107.326 354.519 108.35 352.533 110.24 351.096C109.999 350.029 110.248 349.185 110.969 348.566C112.729 348.014 112.963 347.032 111.681 345.619C113.424 345.264 113.669 344.56 112.426 343.506ZM102.827 352.226C103.393 352.481 103.95 352.737 104.515 352.992C104.658 352.007 104.352 351.186 103.589 350.528C102.942 350.935 102.691 351.501 102.827 352.226Z" fill="#3D3D3D"/>
<path opacity="0.01" fill-rule="evenodd" clip-rule="evenodd" d="M110.24 351.096C108.35 352.534 107.326 354.519 107.161 357.054C109.381 357.243 109.392 357.521 107.194 357.887C106.389 358.475 105.583 359.062 104.778 359.651C103.951 359.684 103.123 359.717 102.296 359.75C102.505 361.064 102.842 362.44 103.288 363.879C104.765 364.343 106.039 365.126 107.11 366.227C109.103 365.502 110.148 364.071 110.254 361.933C110.89 363.135 111.88 363.651 113.216 363.481C113.183 362.649 113.15 361.817 113.117 360.984C112.29 361.017 111.462 361.051 110.635 361.084C110.752 358.792 110.123 356.732 108.734 354.907C109.531 353.902 110.319 352.897 111.1 351.895C110.981 351.394 110.689 351.128 110.24 351.096ZM104.778 359.651C104.648 361.4 105.401 363.037 107.044 364.562C109.802 361.594 109.041 359.957 104.778 359.651Z" fill="black"/>
<path opacity="0.01" fill-rule="evenodd" clip-rule="evenodd" d="M99.6821 356.521C100.843 357.383 101.714 358.46 102.296 359.75C102.042 357.743 102.247 355.79 102.893 353.891C100.981 353.332 99.9138 354.209 99.6821 356.521Z" fill="black"/>
</svg>