<svg xmlns="http://www.w3.org/2000/svg" fill="none" viewBox="405.42 320.47 54.72 66.57">
<path opacity="0.01" d="M428.133 372.134L427.978 370.263V347.225L428.334 343.299L428.279 342.944L428.366 342.595V339.838L428.503 338.339L428.535 338.142L429.83 337.436L432.321 336.19L433.263 335.876L436.225 335.136L438.099 334.991L438.727 334.782H439.388L440.554 334.491L440.971 334.431H447.222L447.999 334.626H448.777L449.197 334.521L449.86 334.611L450.33 334.237L452.665 333.654L452.792 333.431C454.873 333.739 457.391 334.294 459.583 334.764C459.583 334.764 459.474 351.133 458.825 353.541C455.069 367.491 447.85 366.904 447.985 369.444C443.08 371.456 435.009 371.112 430.196 374.579C429.7 373.617 429.012 372.802 428.133 372.134Z" fill="#121212"/>
<path d="M446.288 371.479C438.406 378.99 441.601 372.706 427.894 372.706C422.687 372.706 417.866 371.653 413.479 369.959C414.353 367.645 415.148 365.249 416.261 363.194C418.965 358.201 418.882 351.924 418.959 346.152C418.987 344.021 424.468 343.862 424.592 341.665C424.955 341.663 425.321 341.663 425.69 341.663C442.761 341.663 449.13 339.369 451.502 337.724C448.552 341.21 441.972 349.268 441.88 351.875C439.73 367.378 447.233 363.378 446.288 371.479Z" fill="#482520"/>
<path d="M435.182 361.967C432.62 361.667 430.733 357.385 429.436 355.081C429.436 355.081 429.294 354.826 429.47 354.607C429.469 354.601 429.467 354.595 429.466 354.589C429.389 354.221 429.702 354.102 429.702 354.102C431.773 353.352 435.556 349.348 437.473 347.71C439.818 345.753 443.384 343.749 446.152 344.263C449.233 344.835 449.881 347.276 447.989 350.884C447.182 352.549 444.424 356.078 443.069 359.529C441.871 362.578 443.05 365.452 442.759 365.786C441.209 367.569 439.366 364.795 440.357 363.262C440.638 361.749 437.262 361.79 435.949 361.546L435.867 361.531C435.626 361.633 435.399 361.798 435.182 361.967ZM435.072 361.216C435.181 361.115 435.298 361.026 435.42 360.951C435.464 360.846 435.543 360.767 435.635 360.735L435.978 360.605L435.987 360.65C438.125 359.1 440.752 358.799 442.861 357.062C444.52 354.641 446.356 352.155 447.968 349.563C448.461 348.8 449.019 347.884 448.786 346.906L448.705 346.796C448.705 346.796 448.623 346.647 448.662 346.479C448.107 345.729 447.15 345.239 446.01 345.027C443.425 344.548 439.999 346.487 437.818 348.334C435.774 350.028 432.327 353.731 430.052 354.756C431.234 356.964 432.91 360.47 435.072 361.216Z" fill="#B65E50"/>
<path d="M426.684 354.963C428.959 353.939 435.754 349.956 437.798 348.262C439.979 346.416 443.474 344.492 446.059 344.972C447.199 345.184 448.166 345.69 448.721 346.44C448.681 346.608 448.764 346.758 448.764 346.758L448.846 346.869C449.078 347.847 448.524 348.777 448.031 349.54C446.419 352.131 444.565 354.692 442.907 357.113C440.798 358.85 438.096 359.171 435.959 360.721L435.95 360.676L435.604 360.805C435.513 360.837 435.432 360.915 435.388 361.02C435.266 361.096 435.148 361.184 435.039 361.285C432.877 360.539 427.866 364.17 426.684 354.963Z" fill="#C36556"/>
<path d="M432.848 354.339L433.017 354.198C435.011 352.522 437.49 351.096 439.201 349.002C441.078 348.25 442.772 346.872 444.622 345.888C444.263 346.257 443.89 346.609 443.524 347.013C440.105 349.871 436.138 351.866 432.701 354.522C432.734 354.43 432.793 354.374 432.848 354.339Z" fill="#B65E50"/>
<path d="M458.58 339.26C457.751 341.768 423.704 341.484 422.107 343.756C421.463 344.672 426.451 360.113 431.165 364.271C434 366.772 440.253 364.229 441.433 365.426C445.624 369.679 447.581 367.833 446.02 370.832C444.803 373.169 447.622 371.841 444.346 374.787C441.583 377.271 435.35 376.994 435.492 378.892C435.6 380.347 434.694 381.948 434.72 383.308C434.746 384.656 435.705 385.763 435.655 387.02C413.891 378.772 398.267 366.236 408.783 343.1C416.419 326.299 433.375 320.782 453.602 320.47C454.356 320.684 455.517 320.887 456.277 321.081C456.287 329.187 460.768 332.634 458.58 339.26Z" fill="#E1A585"/>
<path d="M437.623 377.952C434.596 381.011 435.018 383.961 435.718 387.043C435.191 386.894 434.667 386.742 434.148 386.589C434.165 385.116 434.148 384.133 434.223 384.094C433.914 383.265 433.727 382.488 433.649 381.757C433.922 379.811 434.496 377.967 435.859 376.725C437.95 374.82 443.841 373.551 446.999 373.186C446.276 373.889 445.567 374.572 444.988 375.347C441.882 375.894 439.096 376.141 437.623 377.952Z" fill="#7F5D4B"/>
<path d="M428.467 341.338L428.498 341.298C428.578 341.216 428.784 341.1 429.078 340.962C431.879 340.193 434.204 339.522 435.403 339.312C437.676 338.915 441.5 338.164 445.561 337.38C445.311 339.022 445.41 340.7 445.887 342.396C445.966 342.677 446.054 342.956 446.153 343.234C446.034 343.217 445.933 343.197 445.856 343.174C445.458 343.056 445.326 342.488 445.128 342.68C444.829 342.969 443.652 344.832 442.807 344.951C441.268 345.168 437.496 344.032 436.856 343.31C435.968 343.86 434.825 344.829 432.554 344.608C431.922 344.546 431.971 344.115 431.305 344.092C429.787 344.04 428.42 344.89 427.554 343.982C426.932 343.328 428.581 342.326 428.124 341.615C428.124 341.615 428.021 341.433 428.467 341.338Z" fill="#F9F9F9"/>
<path d="M445.793 342.81C445.455 342.584 445.073 342.338 444.652 342.1C443.481 340.163 441.104 337.066 438.18 340.894C438.172 340.911 438.159 340.929 438.14 340.947C437.733 341.499 437.667 341.958 437.786 342.434C437.679 342.427 437.561 342.429 437.442 342.443C437.173 342.473 436.971 342.554 436.908 342.645L436.638 342.999L436.836 343.01C436.779 343.071 436.729 343.131 436.686 343.19C436.244 342.401 436.19 341.733 436.805 340.894C436.053 339.474 434.581 340.598 433.743 341.878C433.57 341.901 433.427 341.944 433.334 341.997L432.61 342.409L432.889 342.462C432.018 343.108 432.202 343.774 432.585 344.463C432.132 344.463 432.035 344.292 432.035 344.292L431.86 343.984C431.574 343.429 431.57 342.399 432.019 341.499C428.202 340.931 428.73 342.777 427.928 343.831L428.091 344.085C428.091 344.085 428.222 344.317 427.549 344.393C427.466 344.403 427.392 344.408 427.325 344.409C426.973 344.506 426.584 344.431 426.584 344.431C424.224 343.975 423.985 343.114 422.951 342.532C428.696 341.288 433.211 339.695 435.402 339.312C437.676 338.915 441.5 338.164 445.56 337.38C445.311 339.022 445.409 340.7 445.886 342.396C445.922 342.522 445.959 342.648 445.998 342.773C445.94 342.788 445.872 342.801 445.793 342.81Z" fill="#F9F9F9"/>
<path d="M446.718 344.758C446.473 344.724 446.039 344.695 445.643 344.644C445.378 343.275 444.922 341.985 444.237 340.833C444.035 340.162 443.803 339.5 443.544 338.848C445.197 338.324 446.955 337.771 448.496 337.325C448.455 339.693 448.897 341.96 449.741 344.106C448.885 344.576 447.745 344.889 446.718 344.758Z" fill="#F9F9F9"/>
<path d="M445.018 340.259C444.71 341.176 445.236 342.132 445.234 343.052C444.979 342.271 444.65 341.527 444.237 340.833C444.035 340.162 443.803 339.5 443.544 338.848C445.197 338.324 446.955 337.771 448.496 337.325C448.473 338.643 448.6 339.929 448.863 341.181C447.56 339.593 445.695 338.015 445.018 340.259Z" fill="#F9F9F9"/>
<path d="M449.467 337.241L449.618 337.162C450.475 337.765 451.313 337.692 452.133 337.33C452.626 338.374 453.108 339.42 453.521 340.49C453.945 341.589 454.315 342.703 454.685 343.821C454.38 343.806 454.039 343.773 453.923 343.599C453.414 344.592 451.018 345.055 449.806 344.612C449.461 342.383 448.692 340.102 447.605 337.853C448.36 337.558 449.013 337.335 449.467 337.241Z" fill="#F9F9F9"/>
<path d="M454.028 342.873C453.956 342.818 453.926 342.74 453.926 342.74L453.805 342.429C453.249 340.996 452.303 338.121 450.192 338.555C448.927 338.206 448.669 339.239 448.722 340.483C448.402 339.605 448.028 338.727 447.605 337.853C448.36 337.559 449.012 337.335 449.467 337.241L449.618 337.162C450.475 337.765 451.313 337.692 452.133 337.33C452.626 338.374 453.108 339.42 453.521 340.49C453.714 340.99 453.896 341.494 454.071 341.999C454.044 342.292 454.027 342.587 454.028 342.873Z" fill="#F9F9F9"/>
<path d="M447.722 338.23C450.211 338.314 454.408 338.472 456.225 338.919C456.579 339.191 457.789 342.792 454.77 343.893C453.354 344.409 450.003 345.497 440.715 346.218C423.077 347.587 421.972 345.112 421.853 343.203C432.041 339.438 439.763 339.544 447.722 338.23Z" fill="#F9F9F9"/>
<path d="M445.418 363.681L445.399 363.701C445.359 363.739 445.279 363.782 445.173 363.827C444.309 363.936 443.583 364.046 443.245 364.023C441.695 363.914 437.453 363.912 436.121 363.625L435.994 363.628C435.271 362.355 433.272 363.018 431.729 363.121C430.857 362.879 429.389 362.46 428.804 362.045C428.715 361.851 428.765 359.537 429.982 359.089C430.553 358.879 431.921 358.273 435.278 358.732C439.066 359.249 444.153 360.413 445.147 361.663C445.54 362.158 446.541 363.455 446.457 363.929C446.457 363.929 445.548 363.68 445.418 363.681Z" fill="#F9F9F9"/>
<path d="M451.502 337.724C452.356 336.944 452.905 336.46 452.905 336.46C452.905 336.46 452.827 337.014 451.502 337.724Z" fill="#482520"/>
<path d="M422.032 342.69C420.719 342.071 420.626 341.479 420.626 341.479C421.629 341.235 424.888 341.518 429.095 340.657C435.974 339.247 444.796 336.377 446.052 335.014C447.552 334.826 457.025 331.026 458.497 332.947C458.912 333.488 460.044 335.858 459.604 336.934C459.288 337.56 460.026 339.286 457.194 341.088C455.574 342.119 450.818 341.952 450.314 341.947C447.915 341.924 444.005 342.501 443.854 342.227C443.854 342.227 425.79 343.225 425.776 343.013C425.776 343.013 422.624 342.969 422.032 342.69Z" fill="#CD6B5B"/>
<path d="M420.975 342.63L420.038 341.004C428.367 342.77 445.507 335.362 446.964 333.833C462.516 327.963 459.749 333.855 460.145 337.045C459.632 337.386 458.01 333.225 457.597 333.725C456.257 332.614 447.582 334.893 444.802 336.29C438.473 339.468 427.867 342.112 421.301 341.693C430.315 344.83 452.916 339.851 455.928 341.518C454.96 341.704 451.486 342.423 448.624 342.683C445.889 342.931 429.126 343.296 428.303 343.72L420.975 342.63Z" fill="#994F43"/>
<path d="M441.542 363.477C441.448 363.438 441.414 363.359 441.414 363.359C440.842 361.98 443.049 359.872 444.628 361.335C444.55 361.619 444.476 361.904 444.408 362.191C444.23 362.939 444.087 363.688 443.98 364.435C442.909 365.181 441.26 365.116 441.542 363.477Z" fill="#F9F9F9"/>
<path d="M439.157 361.434C439.889 360.68 440.943 359.952 441.704 360.398C441.836 360.476 441.656 362.899 441.606 363.165C441.15 365.317 438.36 364.864 438.436 362.984C438.192 363.162 437.916 363.318 437.644 363.43C437.131 362.649 436.727 361.779 436.315 360.987C437.335 360.689 438.559 360.74 439.157 361.434Z" fill="#F9F9F9"/>
<path d="M438.15 362.635L438.375 362.406C438.431 362.347 438.531 362.314 438.636 362.328C438.781 362.346 438.88 362.447 438.858 362.552C438.851 362.584 438.834 362.613 438.809 362.637L438.691 362.757C438.583 363.976 440.002 365.076 441.329 363.712L441.562 363.384C441.612 363.31 441.724 363.266 441.842 363.281C441.986 363.3 442.085 363.398 442.065 363.503L442.013 363.779C442.351 364.745 443.046 365.155 443.987 364.388C443.981 364.431 443.974 364.473 443.969 364.515C443.688 365.006 443.451 365.496 443.253 365.987C441.731 365.883 440.277 365.692 439.533 365.286C438.619 364.788 437.974 363.989 437.441 363.109C437.71 362.989 437.956 362.831 438.15 362.635Z" fill="#F9F9F9"/>
<path d="M421.539 342.422C422.322 342.424 427.96 358.202 431.005 360.356C433.931 362.425 440.338 361.561 443.797 362.403C446.226 362.993 447.983 369.295 448.145 369.289C448.239 369.286 447.946 372.801 446.523 374.039C445.508 374.922 443.435 373.65 440.527 373.49C438.19 373.362 428.096 361.277 427.598 360.638C422.745 354.416 422.193 342.889 421.539 342.422Z" fill="#D97E67"/>
<path d="M429.267 364.302C423.856 355.842 421.853 345.059 421.853 345.059C421.853 345.059 426.513 356.791 428.153 360.463C428.204 360.577 429.839 363.103 430.323 363.692C432.41 366.227 436.249 369.992 436.248 370.115L429.267 364.302Z" fill="#994F43"/>
<path d="M439.239 362.221C432.586 361.614 430.33 360.539 430.33 360.539C430.33 360.539 443.226 361.888 443.306 361.922C443.869 362.158 444.03 362.339 444.546 362.561C445.062 362.783 446.224 364.983 446.179 365.163C445.616 364.824 445.137 363.458 443.545 362.89L439.239 362.221Z" fill="#994F43"/>
<path d="M454.809 320.516C455.395 320.663 455.983 320.804 456.573 320.939C456.356 324.27 457.32 327.397 457.32 327.397C457.32 327.397 455.105 323.951 454.809 320.516Z" fill="#7F5D4B"/>
</svg>