<svg width="55" height="69" viewBox="0 0 55 69" fill="none" xmlns="http://www.w3.org/2000/svg">
<path d="M53.9062 19.9009C53.071 22.4289 44.7042 30.7816 43.0943 33.0722C40.6684 36.5236 46.8298 39.3232 44.0761 44.6119C42.85 46.9669 37.2174 50.2352 33.9155 53.204C31.1308 55.708 30.4913 57.9373 30.6337 59.8499C30.8512 62.7713 30.8993 65.4984 30.7979 68.043C8.86019 59.7296 -6.88885 47.0933 3.71077 23.7715C11.4079 6.83596 28.4997 1.27476 48.8892 0.960449C49.6492 1.17619 50.4123 1.38151 51.1782 1.57613C51.188 9.74766 56.1126 13.2222 53.9062 19.9009Z" fill="#F8BC99"/>
<path d="M45.095 46.1477L44.1441 48.3287C39.5965 50.4181 34.8737 52.4179 32.7822 55.8473C29.7306 59.9593 30.1558 63.9239 30.8613 68.0666C30.33 67.8656 29.8024 67.662 29.2786 67.4558C29.2962 65.4756 29.2788 64.1553 29.3548 64.1029C29.0435 62.9886 28.8544 61.944 28.7764 60.9622C29.0509 58.3464 29.6296 55.8673 31.0032 54.1987C33.9716 50.5932 40.129 48.8022 43.9007 46.1547C44.2535 45.9072 44.6061 45.6595 44.959 45.4121C45.1091 45.7931 45.095 46.1477 45.095 46.1477Z" fill="#95725D"/>
<path d="M52.1441 11.5441C52.4095 8.88476 51.4746 5.11759 51.1738 1.63184C51.7689 1.78139 52.3655 1.92447 52.964 2.06119C52.7438 5.44108 52.4678 8.79659 52.2328 12.1321C52.1335 11.8136 52.1441 11.5441 52.1441 11.5441Z" fill="#95725D"/>
<path d="M36.4413 31.9993C34.5575 32.8876 32.7968 33.4629 31.7052 33.4191C31.7052 33.4191 30.9361 33.3882 30.9667 32.6145C30.9973 31.8407 31.7665 31.8713 31.7665 31.8713C35.1197 32.0055 42.2548 27.0123 43.9853 24.3384C45.2727 24.2678 52.8335 17.8174 53.901 19.86C54.2022 20.4363 54.7484 21.9788 53.5597 24.1776C53.0472 25.1253 50.1874 29.5276 48.7886 30.4995C45.5533 32.7472 42.0475 32.6706 37.9043 32.5045L37.1352 32.4736C37.1352 32.4736 36.6023 32.4525 36.4413 31.9993Z" fill="#C9816E"/>
<path d="M31.0645 36.3419C30.7319 36.0058 28.6114 33.8553 28.1641 33.6172C32.028 32.5464 37.1727 32.8624 41.735 33.0451C41.735 33.0451 42.1552 33.0619 42.6441 32.9008C48.0505 34.8614 48.3108 45.9486 44.3682 46.7587C42.8682 47.0669 39.2192 42.9397 35.8788 39.8528C34.0406 38.1541 32.2647 37.5551 31.0645 36.3419Z" fill="#DC8D79"/>
<path d="M32.0374 33.7378C32.0374 33.7378 31.5065 33.9788 31.1599 33.5769C29.9076 34.117 28.8508 34.4528 28.1984 34.4409C28.1984 34.4409 27.4293 34.41 27.4599 33.6363C27.4906 32.8625 28.2596 32.8932 28.2596 32.8932C29.9411 33.0194 39.8104 27.2274 41.1857 25.8067C43.7602 24.6666 53.0601 15.7247 54.9828 18.7227C54.517 19.0252 54.0849 19.4148 53.6887 19.8845C52.6582 18.6644 44.5185 25.9134 42.0356 27.0981C40.9862 28 38.1868 30.2083 35.5524 31.72C37.7121 31.4538 42.959 31.4642 45.4117 32.7446C44.575 32.8561 43.2237 33.1306 42.3278 33.2413C42.3278 33.2413 40.3108 33.189 37.8646 33.2258C35.5268 33.261 32.7729 33.3766 32.0374 33.7378Z" fill="#AF7060"/>
<path d="M28.5845 34.4565C31.7228 34.6509 35.5029 38.2979 36.7297 41.0331L36.9634 41.2289C36.9634 41.2289 37.1066 41.385 37.1619 41.6094L36.2514 40.6366C35.2387 40.0619 34.2559 39.4513 33.2901 38.8213C32.1095 37.5745 30.643 36.4623 29.3147 36.117C28.8096 35.7677 28.304 35.4193 27.7959 35.0744C27.9005 34.4296 28.5845 34.4565 28.5845 34.4565Z" fill="#AF7060"/>
<path opacity="0.01" fill-rule="evenodd" clip-rule="evenodd" d="M17.507 22.8352C15.3829 23.6608 13.3681 24.7156 11.4545 26.0005C10.8116 25.3426 10.2815 24.6118 9.84766 23.8064C11.1533 22.9089 12.5931 22.2567 14.1588 21.8493C15.2785 20.945 15.3121 20.0944 14.2599 19.2976C13.5565 15.4565 15.0413 13.6707 18.7057 13.9383C19.0808 14.3059 19.3429 14.7424 19.5008 15.2479C18.6106 16.3478 17.7201 17.4486 16.8299 18.5485C16.843 19.936 17.0655 21.3651 17.507 22.8352Z" fill="#0F0F0F"/>
<path opacity="0.01" fill-rule="evenodd" clip-rule="evenodd" d="M14.2657 19.2976C13.138 21.0107 11.7131 21.2376 9.99902 19.9799C11.3433 19.2216 12.7599 18.9941 14.2657 19.2976Z" fill="black"/>
<path opacity="0.01" fill-rule="evenodd" clip-rule="evenodd" d="M34.8914 32.9018C34.9363 31.768 34.3922 31.1781 33.2678 31.133C33.4493 29.9707 33.3505 28.8302 32.9797 27.7138C32.5823 28.7679 31.8582 29.3073 30.7988 29.3304C30.9584 30.4365 30.6373 31.2755 29.8524 31.8481C29.9917 31.1074 29.7352 30.529 29.0743 30.1133C28.2941 30.7849 27.9815 31.6242 28.1279 32.6311C27.4571 31.6068 26.9356 30.4494 26.5715 29.1613C26.0762 25.1999 25.0976 21.4694 23.6273 17.9691C22.6523 17.1387 21.5392 16.8104 20.279 16.9831C19.6411 9.99343 21.9319 9.23326 27.1435 14.7022C27.8208 17.7049 28.8413 20.5849 30.1888 23.343C31.4202 22.3971 32.3897 22.7197 33.1143 24.312C34.2656 26.8872 35.4329 29.4895 36.616 32.1191C36.2004 32.7822 35.631 33.043 34.8914 32.9018ZM29.8524 31.8481C29.2747 32.1088 28.7057 32.3705 28.1279 32.6311C27.9815 31.6242 28.2941 30.7849 29.0743 30.1133C29.7352 30.529 29.9917 31.1074 29.8524 31.8481ZM34.8914 32.9018C34.9363 31.768 34.3922 31.1781 33.2678 31.133C33.5131 31.9946 34.0573 32.5847 34.8914 32.9018Z" fill="#171717"/>
<path opacity="0.01" fill-rule="evenodd" clip-rule="evenodd" d="M17.5077 22.8354C18.3539 22.8694 19.2004 22.9032 20.0468 22.9371C18.775 24.0161 19.0261 24.7365 20.8089 25.0996C19.4972 26.5446 19.7371 27.5493 21.5372 28.1135C19.7497 29.1599 17.9131 29.0864 16.0361 27.8932C16.698 26.3753 17.1885 24.6893 17.5077 22.8354Z" fill="black"/>
<path opacity="0.01" fill-rule="evenodd" clip-rule="evenodd" d="M35.9043 28.6815C36.6984 27.6281 37.5425 27.6619 38.4366 28.7829C37.6245 29.6537 36.7802 29.6199 35.9043 28.6815Z" fill="black"/>
<path opacity="0.012" fill-rule="evenodd" clip-rule="evenodd" d="M20.0431 22.9369C21.1675 22.9819 22.3003 23.0272 23.4248 23.0722C24.1157 25.3003 25.1618 27.3296 26.5711 29.1612C26.9351 30.4493 27.4566 31.6067 28.1274 32.631C28.7051 32.3704 29.2741 32.1087 29.8519 31.8481C30.6366 31.2755 30.9579 30.4366 30.7984 29.3303C31.8578 29.3071 32.5819 28.7678 32.9792 27.7138C33.35 28.8301 33.4489 29.9706 33.2675 31.133C33.5128 31.9947 34.0567 32.5846 34.8909 32.9017C34.8883 33.8241 35.1337 34.6858 35.6355 35.4872C34.9124 36.2131 34.0558 36.4624 33.0656 36.2362C32.8288 33.8739 31.7378 32.9782 29.7846 33.5492C30.4445 35.4898 30.6535 37.4856 30.3946 39.5367C29.5492 39.5028 28.7037 39.469 27.8584 39.4351C27.0353 38.834 26.2123 38.2338 25.3892 37.6325C25.4005 37.3493 25.4117 37.0651 25.4229 36.7819C25.2544 34.1915 24.2085 32.1621 22.2766 30.6929C22.523 29.6029 22.2691 28.7409 21.5321 28.1074C19.7339 27.5438 19.4941 26.54 20.8045 25.0967C19.0236 24.7339 18.7726 24.0147 20.0431 22.9369ZM29.8519 31.8481C29.2741 32.1087 28.7051 32.3704 28.1274 32.631C27.981 31.6242 28.2935 30.7849 29.0738 30.1133C29.7347 30.5291 29.9914 31.1075 29.8519 31.8481Z" fill="#3D3D3D"/>
<path opacity="0.01" fill-rule="evenodd" clip-rule="evenodd" d="M22.2763 30.6929C24.208 32.1621 25.254 34.1915 25.4225 36.7819C23.154 36.9747 23.1427 37.2587 25.3888 37.6324C26.2118 38.2336 27.0348 38.8338 27.8579 39.4351C28.7033 39.469 29.5487 39.5028 30.3941 39.5367C30.1801 40.8792 29.8366 42.2855 29.3804 43.7555C27.8714 44.2301 26.5695 45.0298 25.4752 46.1548C23.4384 45.4139 22.37 43.9521 22.2617 41.7668C21.6119 42.9956 20.6 43.5233 19.2354 43.3495C19.269 42.4989 19.3027 41.6483 19.3364 40.7978C20.1817 40.8317 21.0273 40.8655 21.8727 40.8994C21.7536 38.5571 22.3957 36.453 23.8158 34.588C23.0011 33.5605 22.1951 32.534 21.3972 31.5096C21.5191 30.9974 21.8177 30.7257 22.2763 30.6929ZM27.8579 39.4351C27.9906 41.2225 27.2212 42.8956 25.5423 44.4539C22.7239 41.4207 23.5017 39.7478 27.8579 39.4351Z" fill="black"/>
<path opacity="0.01" fill-rule="evenodd" clip-rule="evenodd" d="M33.0695 36.2394C31.8817 37.1214 30.9905 38.2233 30.3958 39.5435C30.6549 37.4902 30.4456 35.4923 29.7852 33.5497C31.7404 32.9781 32.8324 33.8746 33.0695 36.2394Z" fill="black"/>
</svg>
