<svg xmlns="http://www.w3.org/2000/svg" fill="none" viewBox="405.42 320.05 54.72 66.99">
<path opacity="0.01" d="M428.499 372.265L428.342 370.382V347.199L428.701 343.249L428.645 342.892L428.733 342.541V339.766L428.87 338.258L428.903 338.059L430.205 337.349L432.713 336.096L433.661 335.78L436.641 335.034L438.526 334.889L439.158 334.679H439.824L440.997 334.386L441.416 334.326H447.706L448.489 334.521H449.271L449.694 334.416L450.361 334.506L450.834 334.13L453.183 333.543L453.312 333.319C455.405 333.629 457.939 334.187 460.145 334.66C460.145 334.66 460.035 351.132 459.383 353.555C455.603 367.592 448.339 367.001 448.475 369.558C443.539 371.582 435.417 371.236 430.574 374.725C430.075 373.757 429.383 372.937 428.499 372.265Z" fill="#121212"/>
<path d="M448.108 364.572C440.177 370.415 441.828 364.632 428.035 364.632C422.795 364.632 417.944 363.813 413.529 362.495C414.409 360.695 415.209 358.83 416.329 357.232C419.05 353.347 418.966 348.464 419.044 343.973C419.073 342.315 424.587 342.191 424.712 340.482C425.078 340.481 425.446 340.48 425.817 340.48C437.283 340.48 446.017 336.878 451.417 336.035C454.107 335.615 457.032 335.829 457.826 335.404C456.87 338.563 448.907 346.173 448.815 348.202C446.651 360.263 448.613 357.375 447.661 363.677L448.108 364.572Z" fill="#482520"/>
<path d="M453.152 336.905C449.909 336.549 447.897 337.487 445.119 339.786C443.022 341.52 439.984 343.778 438.502 348.264C437.854 349.185 438.593 358.14 439.78 359.345C443.998 363.624 450.975 363.958 449.403 366.976C448.179 369.326 442.252 369.243 438.956 372.206C436.176 374.706 435.538 376.932 435.68 378.841C435.897 381.757 435.945 384.48 435.844 387.02C413.944 378.721 398.222 366.106 408.804 342.825C416.487 325.919 433.55 320.367 453.904 320.053C454.663 320.269 455.83 320.474 456.595 320.668C456.605 328.825 460.221 329.164 458.018 335.831C458.018 335.831 456.395 337.262 453.152 336.905Z" fill="#E1A585"/>
<path d="M449.327 368.479C449.152 369.082 449.166 370.078 449.166 370.078C444.627 372.164 439.912 371.422 437.824 374.845C434.778 378.95 435.202 382.908 435.907 387.044C435.376 386.843 434.849 386.64 434.327 386.434C434.344 384.457 434.327 383.139 434.403 383.087C434.092 381.974 433.903 380.932 433.825 379.951C434.099 377.34 434.677 374.865 436.048 373.2C439.011 369.6 449.556 367.695 449.327 368.479Z" fill="#7F5D4B"/>
<path d="M452.319 339.056C453.142 338.304 453.671 337.838 453.671 337.838C453.671 337.838 453.596 338.371 452.319 339.056Z" fill="#482520"/>
<path d="M458.817 333.573C459.224 334.08 461.174 337.635 458.396 339.321C456.807 340.286 453.426 340.545 452.931 340.541C452.437 340.536 445.673 342.931 445.525 342.674C445.525 342.674 442.871 345.278 440.697 348.029C438.989 350.191 437.65 352.658 437.645 352.571C437.645 352.571 438.371 347.473 440.519 344.215C442.082 341.846 444.772 339.448 448.109 337.587C448.109 337.587 457.374 331.776 458.817 333.573Z" fill="#CD6B5B"/>
<path d="M451.52 334.402C459.007 328.91 459.601 333.8 459.792 336.785C459.545 337.104 458.764 333.21 458.565 333.678C457.921 332.638 453.744 334.771 452.406 336.078C451.393 337.068 445.682 339.716 441.68 343C441.186 343.406 438.199 349.841 437.848 350.241C437.776 350.051 438.422 345.637 441.199 342.479C445.053 338.096 451.427 334.592 451.52 334.402Z" fill="#994F43"/>
<path d="M451.467 340.357C455.167 339.85 457.98 339.059 458.404 339.515C457.938 339.69 453.483 340.778 452.105 341.021C451.55 341.119 447.992 342.051 445.304 344.056C443.699 345.252 439.873 349.603 438.723 350.847C438.7 350.459 441.025 347.167 440.985 346.794C444.29 342.691 448.282 340.793 451.467 340.357Z" fill="#994F43"/>
<path d="M441.798 357.551C445.755 359.329 446.601 359.181 449.756 359.223C454.104 360.236 452.756 366.047 451.766 367.334C451.06 368.251 449.425 368.443 446.879 368.858C444.833 369.191 440.34 363.77 439.931 363.177C439.345 362.33 438.235 360.695 437.912 359.499C436.631 354.764 438.489 349.599 437.965 349.39C437.965 349.39 438.823 356.213 441.798 357.551Z" fill="#D97E67"/>
<path d="M447.001 368.681C447.001 368.681 440.922 367.162 438.178 361.62C436.9 359.038 437.458 353.746 437.458 353.746C437.458 353.746 436.85 360.291 440.594 363.719C444.621 367.406 446.971 368.55 447.001 368.681Z" fill="#994F43"/>
<path d="M449.294 359.289C442.05 358.649 442.197 358.507 442.197 358.507C442.197 358.507 448.785 358.529 448.869 358.541C449.457 358.622 449.649 358.737 450.189 358.816C450.73 358.894 452.014 360.815 452.008 360.972C451.398 360.807 450.939 359.434 449.294 359.289Z" fill="#994F43"/>
<path d="M455.117 320.1C455.707 320.248 456.299 320.39 456.893 320.525C456.674 323.877 457.644 327.024 457.644 327.024C457.644 327.024 455.415 323.557 455.117 320.1Z" fill="#7F5D4B"/>
</svg>