<svg xmlns="http://www.w3.org/2000/svg" fill="none" viewBox="404.51 322.17 54.72 65.65">
<path d="M444.612 360.698C441.288 363.654 439.038 364.795 436.099 365.207C435.963 364.982 435.8 364.764 435.61 364.554C435.133 363.667 434.487 362.883 433.716 362.246C432.537 358.945 422.792 356.604 421.264 353.442C420.157 351.151 426.226 348.448 426.047 346.303C426.742 346.298 427.448 346.296 428.165 346.296C449.911 346.296 450.406 342.045 450.406 342.045C450.406 342.045 451.066 343.491 450.969 346.055C450.756 351.702 448.782 356.99 444.612 360.698Z" fill="#482520"/>
<path opacity="0.01" d="M428 372.314L427.846 370.457V347.581L428.2 343.684L428.145 343.331L428.232 342.985V340.247L428.367 338.759L428.4 338.562L429.685 337.862L432.159 336.625L433.094 336.313L436.035 335.578L437.895 335.434L438.519 335.227H439.176L440.333 334.937L440.747 334.878H446.954L447.726 335.071H448.498L448.915 334.967L449.573 335.057L450.04 334.686L452.358 334.106L453.824 328.226C455.89 328.532 457.051 334.742 459.227 335.209C459.227 335.209 459.119 351.461 458.475 353.853C454.746 367.704 447.578 367.121 447.712 369.643C442.842 371.641 434.828 371.299 430.048 374.742C429.556 373.787 428.873 372.978 428 372.314Z" fill="#121212"/>
<path d="M445.501 347.411C447.33 347.636 450.414 348.033 451.72 348.582C451.96 348.873 452.575 352.533 450.263 353.458C449.179 353.892 446.623 354.786 439.716 354.974C426.601 355.333 425.976 352.802 426.035 350.893C433.841 347.72 439.529 348.266 445.501 347.411Z" fill="#F9F9F9"/>
<path d="M446.894 359.903L446.875 359.928C446.832 359.977 446.749 360.032 446.64 360.091C445.763 360.262 445.025 360.428 444.685 360.415C443.124 360.354 438.841 360.543 437.51 360.256L437.381 360.265C436.709 358.758 434.659 359.651 433.097 359.845C432.228 359.592 430.764 359.152 430.192 358.677C430.111 358.445 430.266 355.645 431.516 355.048C432.102 354.768 434.343 354.75 437.712 355.152C441.513 355.606 445.862 354.811 446.808 356.279C447.184 356.86 448.039 359.58 447.932 360.157C447.932 360.157 447.026 359.896 446.894 359.903Z" fill="#F9F9F9"/>
<path d="M456.719 342.247C455.902 344.721 425.435 349.587 423.86 351.828C422.901 353.192 429.981 358.305 433.852 360.049C439.566 362.624 448.927 361.8 447.32 364.885C446.653 366.166 447.082 367.061 444.883 368.69C443.125 369.992 438.813 372.003 437.377 373.294C434.652 375.744 434.026 377.925 434.165 379.797C434.378 382.656 434.425 385.325 434.326 387.815C412.858 379.679 397.446 367.314 407.819 344.491C415.351 327.918 432.077 322.476 452.03 322.168C452.774 322.38 454.564 322.928 455.314 323.118C455.323 331.115 454.27 334.504 456.94 340.703L456.719 342.247Z" fill="#E1A585"/>
<path d="M446.283 367.641C442.274 370.126 438.315 372.304 436.268 375.66C433.282 379.684 433.698 383.564 434.388 387.618C433.868 387.421 433.352 387.222 432.839 387.02C432.856 385.082 432.839 383.79 432.914 383.739C432.609 382.649 432.424 381.626 432.348 380.665C432.616 378.106 433.183 375.68 434.527 374.047C437.432 370.518 446.332 366.168 446.332 366.168L446.283 367.641Z" fill="#7F5D4B"/>
<path d="M455.215 332.526C455.475 329.923 454.56 326.237 454.266 322.826C454.848 322.972 455.432 323.112 456.017 323.246C455.802 326.553 455.532 329.837 455.302 333.101C455.205 332.789 455.215 332.526 455.215 332.526Z" fill="#7F5D4B"/>
<path d="M422.375 351.821C422.412 351.064 439.021 345.121 440.846 342.84C442.403 342.771 449.638 340.208 451.475 341.766C455.928 342.11 457.952 342.737 456.514 344.888C455.894 345.816 453.798 348.8 452.107 349.751C450.208 350.819 449.087 350.82 445.607 350.715C441.916 350.603 434.548 351.668 434.448 351.44C434.448 351.44 422.338 352.578 422.375 351.821Z" fill="#CD6B5B"/>
<path d="M421.438 351.92C423.81 351.388 428.025 356.597 432.753 358.143C437.341 359.642 442.779 358.699 443.699 358.619C449.908 358.083 449.15 366.362 445.397 366.986C443.583 367.288 434.263 367.661 430.769 360.89C428.546 359.228 421.979 352.153 421.438 351.92Z" fill="#D97E67"/>
<path d="M419.99 351.432C421.698 351.529 427.299 348.914 434.234 346.033C435.03 345.703 445.877 340.809 449.207 339.73C453.463 338.615 456.684 341.755 456.872 341.977C456.267 342.273 456.796 342.874 456.282 343.334C455.432 342.575 449.657 341.325 443.968 343.545C440.704 344.819 437.036 347.103 435.861 347.526C434.929 348.13 425.524 350.92 424.444 351.387C424.686 351.364 427.053 351.668 433.485 351.04C439.004 350.501 446.398 348.987 453.104 349.743C452.017 349.852 450.88 350.782 449.716 350.89C449.716 350.89 442.403 351.501 439.226 351.537C426.104 353.777 419.99 351.432 419.99 351.432Z" fill="#994F43"/>
<path d="M433.5 365.16C429.646 362.809 427.28 357.492 427.626 357.672C428.425 357.829 431.826 362.589 434.952 364.573C438.567 366.867 441.905 366.417 441.905 366.417C441.905 366.417 436.943 367.261 433.5 365.16Z" fill="#994F43"/>
<path opacity="0.01" fill-rule="evenodd" clip-rule="evenodd" d="M421.32 343.575C419.241 344.383 417.269 345.415 415.397 346.672C414.768 346.029 414.249 345.313 413.824 344.525C415.102 343.647 416.511 343.009 418.043 342.61C419.139 341.725 419.172 340.893 418.142 340.113C417.454 336.354 418.907 334.607 422.493 334.868C422.86 335.228 423.116 335.655 423.271 336.15C422.4 337.226 421.528 338.304 420.657 339.38C420.67 340.738 420.888 342.136 421.32 343.575Z" fill="#0F0F0F"/>
<path opacity="0.01" fill-rule="evenodd" clip-rule="evenodd" d="M418.142 340.113C417.04 341.787 415.648 342.009 413.973 340.78C415.286 340.039 416.671 339.816 418.142 340.113Z" fill="black"/>
<path opacity="0.01" fill-rule="evenodd" clip-rule="evenodd" d="M438.331 353.426C438.375 352.316 437.843 351.739 436.742 351.695C436.92 350.557 436.823 349.441 436.46 348.349C436.072 349.38 435.363 349.908 434.326 349.931C434.482 351.013 434.168 351.834 433.4 352.395C433.536 351.67 433.285 351.104 432.639 350.697C431.875 351.354 431.569 352.176 431.713 353.161C431.056 352.159 430.546 351.026 430.19 349.765C429.705 345.889 428.747 342.238 427.308 338.813C426.354 338 425.265 337.679 424.032 337.848C423.407 331.008 425.649 330.264 430.749 335.616C431.412 338.554 432.411 341.373 433.729 344.072C434.934 343.146 435.883 343.462 436.592 345.02C437.719 347.54 438.861 350.087 440.019 352.66C439.612 353.309 439.055 353.564 438.331 353.426ZM433.4 352.395C432.835 352.65 432.278 352.906 431.713 353.161C431.569 352.176 431.875 351.354 432.639 350.697C433.285 351.104 433.536 351.67 433.4 352.395ZM438.331 353.426C438.375 352.316 437.843 351.739 436.742 351.695C436.982 352.538 437.515 353.115 438.331 353.426Z" fill="#171717"/>
<path opacity="0.01" fill-rule="evenodd" clip-rule="evenodd" d="M421.319 343.575C422.147 343.608 422.974 343.641 423.802 343.674C422.558 344.729 422.804 345.433 424.546 345.788C423.264 347.201 423.499 348.183 425.259 348.734C423.511 349.757 421.716 349.685 419.881 348.519C420.528 347.035 421.007 345.387 421.319 343.575Z" fill="black"/>
<path opacity="0.01" fill-rule="evenodd" clip-rule="evenodd" d="M439.323 349.297C440.102 348.265 440.929 348.298 441.805 349.397C441.009 350.25 440.182 350.217 439.323 349.297Z" fill="black"/>
<path opacity="0.012" fill-rule="evenodd" clip-rule="evenodd" d="M423.801 343.674C424.902 343.718 426.01 343.763 427.111 343.807C427.787 345.987 428.811 347.973 430.19 349.765C430.546 351.026 431.056 352.158 431.713 353.161C432.278 352.906 432.835 352.65 433.4 352.395C434.168 351.834 434.483 351.013 434.326 349.931C435.363 349.908 436.072 349.38 436.461 348.349C436.823 349.441 436.92 350.557 436.743 351.695C436.983 352.538 437.515 353.115 438.331 353.426C438.329 354.328 438.569 355.172 439.06 355.956C438.352 356.666 437.514 356.91 436.545 356.689C436.313 354.377 435.246 353.501 433.334 354.059C433.98 355.958 434.185 357.911 433.931 359.919C433.104 359.885 432.277 359.852 431.449 359.819C430.644 359.231 429.839 358.644 429.033 358.055C429.044 357.778 429.055 357.5 429.066 357.223C428.901 354.688 427.878 352.702 425.987 351.264C426.228 350.197 425.98 349.354 425.259 348.734C423.499 348.182 423.264 347.2 424.547 345.788C422.804 345.433 422.558 344.729 423.801 343.674ZM433.4 352.395C432.835 352.65 432.278 352.906 431.713 353.161C431.569 352.176 431.875 351.354 432.639 350.697C433.286 351.104 433.537 351.67 433.4 352.395Z" fill="#3D3D3D"/>
<path opacity="0.01" fill-rule="evenodd" clip-rule="evenodd" d="M425.987 351.264C427.878 352.702 428.901 354.688 429.066 357.223C426.846 357.412 426.835 357.689 429.033 358.055C429.839 358.643 430.644 359.231 431.45 359.819C432.277 359.852 433.104 359.885 433.932 359.919C433.722 361.232 433.386 362.609 432.94 364.047C431.463 364.512 430.189 365.294 429.118 366.395C427.125 365.67 426.079 364.24 425.973 362.101C425.337 363.304 424.347 363.82 423.012 363.65C423.045 362.817 423.078 361.985 423.111 361.153C423.938 361.186 424.765 361.219 425.593 361.252C425.476 358.96 426.104 356.901 427.494 355.076C426.697 354.07 425.908 353.066 425.127 352.063C425.247 351.562 425.539 351.296 425.987 351.264ZM431.45 359.819C431.58 361.568 430.827 363.206 429.184 364.731C426.426 361.762 427.187 360.125 431.45 359.819Z" fill="black"/>
<path opacity="0.01" fill-rule="evenodd" clip-rule="evenodd" d="M436.545 356.689C435.384 357.551 434.513 358.628 433.932 359.919C434.185 357.912 433.981 355.959 433.335 354.06C435.246 353.501 436.314 354.377 436.545 356.689Z" fill="black"/>
</svg>